<svg id="8ab17e48-5a4b-4fa3-8e5a-b1e5b11c7350" data-name="Layer 1" xmlns="http://www.w3.org/2000/svg" xmlns:xlink="http://www.w3.org/1999/xlink" viewBox="0 0 528.15 528.15"><defs><linearGradient id="b464aa73-22c2-4547-ac41-c27255b1ad1b" x1="286.92" y1="180.82" x2="286.92" y2="167.98" gradientUnits="userSpaceOnUse"><stop offset="0" stop-color="#3a3a3a" stop-opacity="0"/><stop offset="0.25" stop-color="#3a3a3a" stop-opacity="0.14"/><stop offset="0.64" stop-color="#3a3a3a" stop-opacity="0.53"/><stop offset="1" stop-color="#3a3a3a"/></linearGradient><linearGradient id="03f8c953-5a5c-4b99-ac3b-38b42069725d" x1="240.28" y1="180.82" x2="240.28" y2="167.98" xlink:href="#b464aa73-22c2-4547-ac41-c27255b1ad1b"/></defs><title>joaco - sitio web 2016 v02 - Export</title><circle cx="265.75" cy="263.44" r="264.07" opacity="0.05"/><path d="M39.33,399.41a264.13,264.13,0,0,0,452.83,0Z" opacity="0.05"/><rect id="1332287d-1c50-4f01-b643-c4fdf1d5a444" data-name="&lt;Rectangle&gt;" x="104.79" y="333.31" width="29.86" height="7.92" rx="3.96" ry="3.96" opacity="0.08"/><rect id="b5a4fd25-5af6-4e65-9f1d-52245489e4ad" data-name="&lt;Rectangle&gt;" x="139.9" y="333.31" width="29.86" height="7.92" rx="3.96" ry="3.96" opacity="0.08"/><rect id="a0969170-c7d5-4566-a67c-f9a3f83c382e" data-name="&lt;Rectangle&gt;" x="121.45" y="345.25" width="29.86" height="7.92" rx="3.96" ry="3.96" opacity="0.08"/><rect id="b00a3aba-bbc1-4cff-a6c4-7f61ad03e502" data-name="&lt;Rectangle&gt;" x="390.81" y="262.17" width="29.86" height="7.92" rx="3.96" ry="3.96" opacity="0.08"/><rect id="741ce3d8-5d7d-402f-ad50-60e0c90a8671" data-name="&lt;Rectangle&gt;" x="372.36" y="274.11" width="29.86" height="7.92" rx="3.96" ry="3.96" opacity="0.08"/><line id="9c19fcd3-fec2-412a-94ae-88db05d2ffc3" data-name="&lt;Path&gt;" x1="173.03" y1="265.89" x2="159.84" y2="213.94" fill="none" stroke="#d3987a" stroke-linecap="round" stroke-miterlimit="10" stroke-width="5"/><path d="M289.82,274.51h-51.6a5.26,5.26,0,0,1-5.46-4.75L230.65,246h66.74l-2.11,23.76A5.26,5.26,0,0,1,289.82,274.51Z" fill="#3a3a3a"/><polygon points="290.9 298 237.14 298 234.87 247.46 293.17 247.46 290.9 298" fill="#3a3a3a"/><path d="M274.39,207.38l-10.37,1-10.37-1-17.9,3.82a11.43,11.43,0,0,0-9,11.21v27.88a8.47,8.47,0,0,0,8.71,8.21h24a4.67,4.67,0,0,0,3.57-1.62,1.34,1.34,0,0,1,2,0,4.67,4.67,0,0,0,3.57,1.62h24a8.47,8.47,0,0,0,8.71-8.21V222.41a11.43,11.43,0,0,0-9-11.21Z" fill="#3a3a3a"/><path d="M253.35,201.9h21.33a0,0,0,0,1,0,0V210a8.47,8.47,0,0,1-8.47,8.47h-4.39a8.47,8.47,0,0,1-8.47-8.47V201.9A0,0,0,0,1,253.35,201.9Z" fill="#f9bfa2"/><path d="M205.37,247.63l-1.85,6.77a4.9,4.9,0,0,1-3.68,3.5l-21.32,4.65,2.29,14.65,35.43-2.87a5.38,5.38,0,0,0,4.76-3.95l4.81-17.64Z" fill="#feccae"/><path d="M160.24,264.26l4.27,14a4,4,0,0,0,4.82,2.7l15.62-4-.3-15.78-3.74-3.2a5.6,5.6,0,0,0-3.65-1.35H167.14a4,4,0,0,0-2.5.88L161.56,260A4,4,0,0,0,160.24,264.26Z" fill="#feccae"/><path d="M245.37,357h-2.7c-5.62,0-10.18-4.93-10.18-11V316.1a24.8,24.8,0,0,1,2.76-11.41l.61-1.18h25.39v36.34C261.25,349.33,254.14,357,245.37,357Z" fill="#424242"/><path d="M282.28,357H285c5.68,0,10.28-4.93,10.28-11V316.1a24.61,24.61,0,0,0-2.79-11.41l-.62-1.18H266.25v36.34C266.25,349.33,273.43,357,282.28,357Z" fill="#424242"/><rect x="234.97" y="296.03" width="58.2" height="7.47" rx="1.25" ry="1.25" fill="#424242"/><polyline points="317.15 221.19 294.24 226.67 300.9 251.95" fill="#3a3a3a"/><polygon points="228.36 253.39 205.37 247.63 212.29 222.43 235.29 228.19 228.36 253.39" fill="#3a3a3a"/><path d="M209,235.13,232.57,241l5.89-23.53-12.21-3.2a18.2,18.2,0,0,0-8.12.21A12.79,12.79,0,0,0,210,225.39Z" fill="#3a3a3a"/><path d="M320.27,233.92l-23.59,5.65L291,216l12.25-3.07a18.2,18.2,0,0,1,8.12.3,12.79,12.79,0,0,1,8,11Z" fill="#3a3a3a"/><rect x="256.61" y="303.5" width="14.23" height="22.94" fill="#424242"/><path id="69e227a2-d8d9-47a5-8e84-a44195a4e3a7" data-name="&lt;Path&gt;" d="M263.65,208.52h-.09c-8.21,0-13.51-4.87-18.19-10.89C242,193.31,238,188.87,238,183V163.68a25.55,25.55,0,0,1,25.55-25.55h.09a25.55,25.55,0,0,1,25.55,25.55V183c0,5.9-4,10.34-7.36,14.66C277.16,203.65,271.85,208.52,263.65,208.52Z" fill="#feccae"/><ellipse id="8c61d3e3-2846-456a-b1fe-d6c87ad8cfbe" data-name="&lt;Path&gt;" cx="278.9" cy="179.28" rx="1.23" ry="2.92" transform="translate(21.39 388.13) rotate(-71.78)" fill="#f9bfa2"/><ellipse id="50cac198-85f6-4880-be36-efc9e2d5aa42" data-name="&lt;Path&gt;" cx="247.57" cy="179.28" rx="2.92" ry="1.23" transform="translate(-43.65 86.42) rotate(-18.22)" fill="#f9bfa2"/><path id="c153b652-37e1-4b9d-9d8e-74740367ba52" data-name="&lt;Path&gt;" d="M266.52,198.82h-5.84c-5.33,0-11.84-4.64-13.28-11-.49-2.18-.11-4.76,2.44-4.38l9.54,1.37a30.46,30.46,0,0,0,8.76,0l9.22-1.36c2.16-.39,2.93,2,2.49,4.09C278.49,194,271.93,198.82,266.52,198.82Z" fill="#fff"/><path d="M263.52,182.3h0a2.43,2.43,0,0,1-2.31-2.41l-.52-10a2.46,2.46,0,0,1,2.31-2.7h1a2.46,2.46,0,0,1,2.31,2.7l-.52,10A2.43,2.43,0,0,1,263.52,182.3Z" fill="#f9bfa2"/><path d="M263.91,178.47,260.4,178a1.92,1.92,0,0,0-2.12,1.66h0a1.89,1.89,0,0,0,1.57,2.17l3.52.48a1.92,1.92,0,0,0,2.12-1.66h0A1.89,1.89,0,0,0,263.91,178.47Z" fill="#f9bfa2"/><path d="M291.48,170.45H289.2v10h1.3c2,0,3.65-1.78,4-4.26l.12-.78C295,172.86,293.52,170.45,291.48,170.45Z" fill="#f9bfa2"/><path d="M235.72,170.45H238v10h-1.3c-2,0-3.65-1.78-4-4.26l-.12-.78C232.15,172.86,233.68,170.45,235.72,170.45Z" fill="#f9bfa2"/><path id="9146d4be-7a2f-4ca1-b560-705175537def" data-name="&lt;Path&gt;" d="M269.81,191.86H257.23a.75.75,0,1,1,0-1.5h12.59a.75.75,0,1,1,0,1.5Z" fill="#ededed"/><rect x="261.11" y="201.9" width="5.47" height="2" rx="0.8" ry="0.8" fill="#f9bfa2"/><path id="847d99d0-a27a-4c90-aa6e-73c455374ff4" data-name="&lt;Path&gt;" d="M271,128.35H256.24c-10.07,0-18.24,10.57-18.24,21.15V168h4.56l.72-12.81A2.68,2.68,0,0,1,247,152.6l10.62,4.82a14.41,14.41,0,0,0,12,0l10.62-4.82a2.68,2.68,0,0,1,3.72,2.57l.72,12.81h4.56V147.49C289.2,136.92,281,128.35,271,128.35Z" fill="#3a3a3a"/><path d="M265,158.74h-1.92a15.06,15.06,0,0,1-13.32-8l-.78-1.49a1.25,1.25,0,0,1,1.28-1.83l5.73.81a3.15,3.15,0,0,0,2.61-.83l3.55-3.37a2.76,2.76,0,0,1,3.8,0l3.55,3.37a3.15,3.15,0,0,0,2.61.83l5.73-.81a1.25,1.25,0,0,1,1.28,1.83l-.78,1.49A15.06,15.06,0,0,1,265,158.74Z" fill="#333"/><polygon points="289.2 180.82 285.38 180.82 284.63 167.98 289.2 167.98 289.2 180.82" fill="url(#b464aa73-22c2-4547-ac41-c27255b1ad1b)"/><polygon points="238 180.82 241.82 180.82 242.56 167.98 238 167.98 238 180.82" fill="url(#03f8c953-5a5c-4b99-ac3b-38b42069725d)"/><ellipse id="d5d0a072-93cc-420f-951e-deff3e9ed3c4" data-name="&lt;Path&gt;" cx="274.08" cy="170.74" rx="2.9" ry="2.55" fill="#5b5b5b"/><ellipse id="f039dcfd-92b3-4de9-9e72-0ffe4a7b540c" data-name="&lt;Path&gt;" cx="252.76" cy="170.74" rx="2.9" ry="2.55" fill="#5b5b5b"/><rect x="268.96" y="167.21" width="10.24" height="2.19" rx="1.01" ry="1.01" transform="translate(-22.24 43.25) rotate(-8.67)" fill="#5b5b5b"/><rect x="247.64" y="167.21" width="10.24" height="2.19" rx="1.01" ry="1.01" transform="translate(477.25 372.79) rotate(-171.33)" fill="#5b5b5b"/><path d="M325.92,254.38h0l-2.11-7.92-20.5,4.91,4.31,16.18a1.66,1.66,0,0,1-.58,1.73l-6.46,5.1,7.28,13.5,19.34-8.37a6.57,6.57,0,0,0,3.7-7.85Z" fill="#feccae"/><polyline points="300.9 251.95 324.26 248.18 317.15 221.19" fill="#3a3a3a"/><line id="ced7b8e6-9c39-44fe-86b4-958379f1e55b" data-name="&lt;Path&gt;" x1="294.25" y1="285.13" x2="261.23" y2="245.57" fill="none" stroke="#d3987a" stroke-linecap="round" stroke-miterlimit="10" stroke-width="5"/><path d="M281.07,283.77l8.69,11.79a4,4,0,0,0,5.44.95l13.4-9-5.53-14.78L298.48,271a5.6,5.6,0,0,0-3.89-.06L285,274.27a4,4,0,0,0-2.07,1.66l-2.08,3.36A4,4,0,0,0,281.07,283.77Z" fill="#feccae"/><rect id="ee7a4c16-6822-4e52-b9dc-6a63ee38139a" data-name="&lt;Rectangle&gt;" x="77.3" y="387.97" width="374" height="23.4" rx="11.7" ry="11.7" fill="#686868"/><rect id="19bf7157-570f-4904-9f14-fe298d3b07b1" data-name="&lt;Rectangle&gt;" x="155.96" y="301.88" width="52.75" height="71" fill="#fff"/><line id="fc2f4109-f8af-4c27-9ac2-d58ad75a560b" data-name="&lt;Path&gt;" x1="166.17" y1="302.22" x2="166.17" y2="368.77" fill="none" stroke="#bcbcbb" stroke-linecap="round" stroke-miterlimit="10" stroke-width="3"/><line id="24d4a2bc-e8eb-4468-92fc-467e07a20c80" data-name="&lt;Path&gt;" x1="178.52" y1="302.22" x2="178.52" y2="368.77" fill="none" stroke="#bcbcbb" stroke-linecap="round" stroke-miterlimit="10" stroke-width="3"/><rect id="27e85503-503c-49c0-af14-93bed226fa70" data-name="&lt;Rectangle&gt;" x="162.54" y="314.98" width="7.27" height="9.96" rx="3.64" ry="3.64" fill="#c9c9c9"/><rect id="074ec79c-70a4-4401-9ce3-42f17e364269" data-name="&lt;Rectangle&gt;" x="162.54" y="343.24" width="7.27" height="9.96" rx="3.64" ry="3.64" fill="#c9c9c9"/><rect id="e0d2ac3d-54dc-4ada-baab-262aaf15ec50" data-name="&lt;Rectangle&gt;" x="150.49" y="296.78" width="64.65" height="13.08" rx="6.54" ry="6.54" fill="#474747"/><rect id="1a6aea2f-3971-49e3-82a4-b5a42b331402" data-name="&lt;Rectangle&gt;" x="150.49" y="359.8" width="64.65" height="13.08" rx="6.54" ry="6.54" fill="#474747"/><g id="b5735481-06cd-4d62-8595-2195ae2c23a7" data-name="&lt;Group&gt;"><line id="1cadf239-f054-4d2c-9d9f-073ae36a2ea7" data-name="&lt;Path&gt;" x1="293.33" y1="339.38" x2="293.33" y2="364.36" fill="none" stroke="#c9c9c9" stroke-linecap="round" stroke-miterlimit="10" stroke-width="5"/><line id="de5b36dd-badf-463c-a189-f8201ceb4ed8" data-name="&lt;Path&gt;" x1="313.5" y1="389.06" x2="293.33" y2="364.36" fill="none" stroke="#c9c9c9" stroke-linecap="round" stroke-miterlimit="10" stroke-width="5"/><line id="d53d7d91-1237-4338-8f5b-c05a5e202fcb" data-name="&lt;Path&gt;" x1="313.5" y1="389.06" x2="309.4" y2="384.04" fill="none" stroke="#3a3a3a" stroke-linecap="round" stroke-miterlimit="10" stroke-width="11"/></g><rect id="5e3c408d-078f-4387-ad64-2399e12543d6" data-name="&lt;Rectangle&gt;" x="266.28" y="303.88" width="55.07" height="29.63" fill="#fff"/><line id="fd69f494-3f82-49d2-a1df-2a73aaa432d7" data-name="&lt;Path&gt;" x1="310.88" y1="303.42" x2="310.88" y2="334.49" fill="none" stroke="#bcbcbb" stroke-linecap="round" stroke-miterlimit="10" stroke-width="3"/><line id="6a19b532-64fb-407f-9f69-d3a4421c971f" data-name="&lt;Path&gt;" x1="296.42" y1="303.42" x2="296.42" y2="334.49" fill="none" stroke="#bcbcbb" stroke-linecap="round" stroke-miterlimit="10" stroke-width="3"/><rect id="3f44bb8a-a4dd-4ceb-976d-994b84bb77be" data-name="&lt;Rectangle&gt;" x="307.24" y="313.98" width="7.27" height="9.96" rx="3.64" ry="3.64" fill="#c9c9c9"/><rect id="35753083-afaf-4b14-a92a-85f57a5c6e86" data-name="&lt;Rectangle&gt;" x="292.78" y="313.98" width="7.27" height="9.96" rx="3.64" ry="3.64" fill="#c9c9c9"/><line id="f8e3537c-52a3-49ed-98d6-ab7843b9b508" data-name="&lt;Path&gt;" x1="282.5" y1="303.42" x2="282.5" y2="334.49" fill="none" stroke="#bcbcbb" stroke-linecap="round" stroke-miterlimit="10" stroke-width="3"/><rect id="fb2afc74-4b18-48b1-abb4-fc821e330b99" data-name="&lt;Rectangle&gt;" x="278.86" y="313.98" width="7.27" height="9.96" rx="3.64" ry="3.64" fill="#c9c9c9"/><rect id="71f3d166-07ed-4f47-9b25-7cc7ec23637e" data-name="&lt;Rectangle&gt;" x="253.35" y="295.78" width="74.02" height="13.08" rx="6.54" ry="6.54" fill="#474747"/><rect id="2b5ab226-c829-4edb-97f9-1e8f737c833f" data-name="&lt;Rectangle&gt;" x="260.37" y="329.05" width="67" height="13.08" rx="6.54" ry="6.54" fill="#474747"/><g id="6a170bd1-723e-4c0a-9729-5652257edd55" data-name="&lt;Group&gt;"><line id="3b7d5c2a-4e6f-4c61-bfac-d5fd380cf8cb" data-name="&lt;Path&gt;" x1="174.56" y1="394.01" x2="194.72" y2="369.31" fill="none" stroke="#c9c9c9" stroke-linecap="round" stroke-miterlimit="10" stroke-width="5"/><line id="ae1c2e3a-c124-4ec9-a1cf-65b04c3d4658" data-name="&lt;Path&gt;" x1="174.56" y1="394.01" x2="178.65" y2="389" fill="none" stroke="#3a3a3a" stroke-linecap="round" stroke-miterlimit="10" stroke-width="11"/></g><g id="19b9fa03-cde3-46b5-b4a6-648d8d473eb3" data-name="&lt;Group&gt;"><line id="4ed2509e-3879-41d3-b83a-45ff5d525b41" data-name="&lt;Path&gt;" x1="291.48" y1="394.01" x2="271.31" y2="369.31" fill="none" stroke="#c9c9c9" stroke-linecap="round" stroke-miterlimit="10" stroke-width="5"/><line id="24847a80-b9b6-40ca-a2e5-c25567027f58" data-name="&lt;Path&gt;" x1="291.48" y1="394.01" x2="287.39" y2="389" fill="none" stroke="#3a3a3a" stroke-linecap="round" stroke-miterlimit="10" stroke-width="11"/></g><g id="a0e9948a-30ec-498b-a445-85f9b25081ab" data-name="&lt;Group&gt;"><path d="M232.81,395.57a50.36,50.36,0,1,1,50.36-50.36A50.42,50.42,0,0,1,232.81,395.57Z" fill="#fff"/><path d="M232.81,302.35a42.86,42.86,0,1,1-42.86,42.86,42.91,42.91,0,0,1,42.86-42.86m0-15a57.86,57.86,0,1,0,57.86,57.86,57.86,57.86,0,0,0-57.86-57.86Z" fill="#515151"/></g><g id="89ad2a88-4bdd-4079-99be-f245529384cf" data-name="&lt;Group&gt;"><circle id="374f414c-b2d9-4588-8628-d1b6b0c585dc" data-name="&lt;Path&gt;" cx="182.08" cy="345.38" r="5.04" fill="#6d6d6d"/><circle id="0c6fe760-511f-4b38-9fa1-bd8f17f9ce7d" data-name="&lt;Path&gt;" cx="281.54" cy="345.38" r="5.04" fill="#6d6d6d"/><circle id="3b468a24-6985-4df9-ae44-1458b1a845d9" data-name="&lt;Path&gt;" cx="196.64" cy="380.55" r="5.04" transform="translate(-211.49 250.51) rotate(-45)" fill="#6d6d6d"/><circle id="9f82dc26-351e-45c6-a946-4a6f1b6268d4" data-name="&lt;Path&gt;" cx="266.97" cy="310.22" r="5.04" transform="translate(-141.16 279.64) rotate(-45)" fill="#6d6d6d"/><circle id="519bbc67-311a-4cab-ae87-7f4285ead206" data-name="&lt;Path&gt;" cx="231.81" cy="395.11" r="5.04" fill="#6d6d6d"/><circle id="d6cb7078-4b05-4e84-980f-d81eba6f5355" data-name="&lt;Path&gt;" cx="231.81" cy="295.65" r="5.04" fill="#6d6d6d"/><circle id="44dc81a3-4b24-460a-be97-956d7cd83c84" data-name="&lt;Path&gt;" cx="266.97" cy="380.55" r="5.04" transform="translate(-190.89 300.24) rotate(-45)" fill="#6d6d6d"/><circle id="18352e03-214a-4571-919f-3dc564c07765" data-name="&lt;Path&gt;" cx="196.64" cy="310.22" r="5.04" transform="translate(-161.76 229.91) rotate(-45)" fill="#6d6d6d"/></g><line id="2f8491b1-df68-442d-9a0c-09ddf8d0698f" data-name="&lt;Path&gt;" x1="350.28" y1="209.3" x2="350.28" y2="389.06" fill="none" stroke="#c9c9c9" stroke-linecap="round" stroke-miterlimit="10" stroke-width="4.99"/><line id="8b91c860-7276-4c74-8ebf-8fffa0184c9d" data-name="&lt;Path&gt;" x1="350.28" y1="300.15" x2="350.28" y2="311" fill="none" stroke="#ddd" stroke-linecap="round" stroke-miterlimit="10" stroke-width="5"/><line id="d4f43f53-78fc-4277-995d-a6c7280af1f0" data-name="&lt;Path&gt;" x1="350.28" y1="236.22" x2="350.28" y2="253.23" fill="none" stroke="#b7b7b7" stroke-miterlimit="10" stroke-width="5"/><line id="6e596671-87c6-4dfb-b333-68ad3ce42ca2" data-name="&lt;Path&gt;" x1="350.28" y1="262.33" x2="350.28" y2="277.05" fill="none" stroke="#b7b7b7" stroke-miterlimit="10" stroke-width="5"/><line id="720b63c9-f572-4b22-a1e7-bd0844eba169" data-name="&lt;Path&gt;" x1="350.28" y1="386.55" x2="350.28" y2="393.49" fill="none" stroke="#474747" stroke-linecap="round" stroke-miterlimit="10" stroke-width="11"/><rect id="477fae0c-7e54-43f7-93d5-8e2562f945d0" data-name="&lt;Rectangle&gt;" x="343.3" y="213.63" width="13.96" height="21.97" rx="6.29" ry="6.29" fill="#474747"/><rect id="0017fb72-383c-44b0-89ad-d60b14f60893" data-name="&lt;Rectangle&gt;" x="343.3" y="246.65" width="13.96" height="21.97" rx="6.29" ry="6.29" fill="#c9c9c9"/><path id="934b56d4-47b4-4fa3-8c88-85c2c01a3c01" data-name="&lt;Path&gt;" d="M385,240.13H315.56c-2.19,0-2.78-3.51-.74-4.45l11.78-5.43c13-6,34.32-6,47.34,0l11.78,5.43C387.77,236.62,387.19,240.13,385,240.13Z" fill="#ffce00"/><circle id="79e7832a-7f5c-44d8-96e3-5fc19d6f1ed2" data-name="&lt;Path&gt;" cx="340.28" cy="232.94" r="2.77" fill="#ffdd50"/><circle id="6bd295ed-ddd2-4338-b4bd-ff9618317ac2" data-name="&lt;Path&gt;" cx="349.51" cy="232.94" r="2.77" fill="#ffdd50"/><path id="1d8586ee-0d29-42c9-ba93-b124a9c65213" data-name="&lt;Path&gt;" d="M316.13,245.39h68.3a2.22,2.22,0,0,1,.78,4.25l-11.26,4.7c-13,5.43-34.32,5.43-47.34,0l-11.26-4.7A2.22,2.22,0,0,1,316.13,245.39Z" fill="#fa0"/><line id="caa3abdb-4527-458c-92a4-5c7784c46f25" data-name="&lt;Path&gt;" x1="330.11" y1="389.06" x2="350.28" y2="364.36" fill="none" stroke="#c9c9c9" stroke-linecap="round" stroke-miterlimit="10" stroke-width="5"/><line id="d8b1cf8e-38f9-4080-83c2-04f33843eae9" data-name="&lt;Path&gt;" x1="326.11" y1="389.06" x2="330.21" y2="384.04" fill="none" stroke="#3a3a3a" stroke-linecap="round" stroke-miterlimit="10" stroke-width="11"/><line id="92ec257a-f207-42a7-bc86-fe00c8999450" data-name="&lt;Path&gt;" x1="370.44" y1="389.06" x2="350.28" y2="364.36" fill="none" stroke="#c9c9c9" stroke-linecap="round" stroke-miterlimit="10" stroke-width="5"/><line id="2b1b5743-c62e-4d1c-b67f-7d06a40baa32" data-name="&lt;Path&gt;" x1="123.84" y1="232.94" x2="123.84" y2="389.06" fill="none" stroke="#c9c9c9" stroke-linecap="round" stroke-miterlimit="10" stroke-width="5"/><line id="86d2e488-9803-40d0-a0bf-6a45f77069d1" data-name="&lt;Path&gt;" x1="123.96" y1="227.52" x2="123.96" y2="244.53" fill="none" stroke="#b7b7b7" stroke-miterlimit="10" stroke-width="5"/><line id="9085d9ed-84aa-4e4b-aaf8-adb74892d879" data-name="&lt;Path&gt;" x1="123.84" y1="298.04" x2="123.84" y2="316.38" fill="none" stroke="#b7b7b7" stroke-miterlimit="10" stroke-width="5"/><rect x="121.22" y="197.88" width="5.24" height="10.04" rx="2.62" ry="2.62" fill="#b7b7b7"/><rect x="113.72" y="201.95" width="20.24" height="4.25" rx="2.13" ry="2.13" fill="#c9c9c9"/><rect x="399.95" y="159.26" width="5.24" height="10.04" rx="2.62" ry="2.62" fill="#b7b7b7"/><rect x="392.45" y="163.33" width="20.24" height="4.25" rx="2.13" ry="2.13" fill="#c9c9c9"/><rect id="96f5f394-2adb-4e92-83f7-8f3f4ab053aa" data-name="&lt;Rectangle&gt;" x="116.86" y="205.08" width="13.96" height="21.97" rx="6.29" ry="6.29" fill="#474747"/><path id="a0c8a338-b2d5-4def-9103-7231e9bc527f" data-name="&lt;Path&gt;" d="M179.54,236.8,68.45,238a3.26,3.26,0,0,1-1.31-6.28l18.7-7.74c20.82-8.62,55-9,76-.79l18.85,7.35A3.26,3.26,0,0,1,179.54,236.8Z" fill="#ffce00"/><line id="b574211c-7779-4302-95d9-e1125fc87e9e" data-name="&lt;Path&gt;" x1="103.67" y1="389.06" x2="123.84" y2="364.36" fill="none" stroke="#c9c9c9" stroke-linecap="round" stroke-miterlimit="10" stroke-width="5"/><line id="8ce2c0cb-9164-4d2d-b9b0-7babf21fb5e3" data-name="&lt;Path&gt;" x1="144.01" y1="389.06" x2="123.84" y2="364.36" fill="none" stroke="#c9c9c9" stroke-linecap="round" stroke-miterlimit="10" stroke-width="5"/><line id="95abeaa5-5dfe-4855-8752-7ecd132799d0" data-name="&lt;Path&gt;" x1="410.3" y1="240.38" x2="410.3" y2="387.55" fill="none" stroke="#c9c9c9" stroke-linecap="round" stroke-miterlimit="10" stroke-width="5.23"/><line id="fb09021c-fa6d-4868-9795-56e5a0fb6f5c" data-name="&lt;Path&gt;" x1="410.3" y1="290.23" x2="410.3" y2="301.08" fill="none" stroke="#ddd" stroke-linecap="round" stroke-miterlimit="10" stroke-width="5"/><line id="932337ad-2d89-47b9-9968-8906977665b2" data-name="&lt;Path&gt;" x1="402.57" y1="167.01" x2="402.57" y2="221.94" fill="none" stroke="#c9c9c9" stroke-linecap="round" stroke-miterlimit="10" stroke-width="5"/><line id="05127826-ec3f-40eb-9f30-cf9365aba4b4" data-name="&lt;Path&gt;" x1="402.57" y1="189.29" x2="402.57" y2="206.3" fill="none" stroke="#b7b7b7" stroke-miterlimit="10" stroke-width="5"/><line id="2ec55e82-78c2-4f34-9580-f338353d0008" data-name="&lt;Path&gt;" x1="410.3" y1="309.37" x2="410.3" y2="326.38" fill="none" stroke="#b7b7b7" stroke-miterlimit="10" stroke-width="5"/><rect id="ce065f15-e3e1-4c05-a096-a1e53247cafa" data-name="&lt;Rectangle&gt;" x="395.59" y="166.77" width="13.96" height="21.97" rx="6.29" ry="6.29" fill="#474747"/><path id="c1c21a00-a9c1-44b0-adfb-aed2a3cb4efe" data-name="&lt;Path&gt;" d="M463.91,198.82H341.23c-1.77,0-2.15-3.22-.46-3.9l24.29-9.78c20.63-8.31,54.4-8.31,75,0l24.29,9.78C466.06,195.59,465.68,198.82,463.91,198.82Z" fill="#ffce00"/><line id="ced62bfe-c126-4b1a-97d9-4f12aeabba27" data-name="&lt;Path&gt;" x1="390.13" y1="389.06" x2="410.3" y2="364.36" fill="none" stroke="#c9c9c9" stroke-linecap="round" stroke-miterlimit="10" stroke-width="5"/><line id="2d35e110-1514-409b-a043-eda017d88689" data-name="&lt;Path&gt;" x1="430.46" y1="389.06" x2="410.3" y2="364.36" fill="none" stroke="#c9c9c9" stroke-linecap="round" stroke-miterlimit="10" stroke-width="5"/><line id="174129c7-4933-45c6-a6a1-f0d49da3bb19" data-name="&lt;Path&gt;" x1="370.44" y1="389.06" x2="366.35" y2="384.04" fill="none" stroke="#3a3a3a" stroke-linecap="round" stroke-miterlimit="10" stroke-width="11"/><line id="980d517c-7be2-4c63-9de2-ac5c3fd1cb4b" data-name="&lt;Path&gt;" x1="410.3" y1="386.55" x2="410.3" y2="393.49" fill="none" stroke="#474747" stroke-linecap="round" stroke-miterlimit="10" stroke-width="11"/><line id="daea7522-c2c8-45f7-83a7-a8da911a8b92" data-name="&lt;Path&gt;" x1="390.13" y1="389.06" x2="394.23" y2="384.04" fill="none" stroke="#3a3a3a" stroke-linecap="round" stroke-miterlimit="10" stroke-width="11"/><line id="2e75253e-f839-48ac-bc72-424a8162da30" data-name="&lt;Path&gt;" x1="430.46" y1="389.06" x2="426.37" y2="384.04" fill="none" stroke="#3a3a3a" stroke-linecap="round" stroke-miterlimit="10" stroke-width="11"/><line id="e4eb3fe4-6a5a-4a7a-8734-4ef3fbdde9d1" data-name="&lt;Path&gt;" x1="123.96" y1="386.55" x2="123.96" y2="393.49" fill="none" stroke="#474747" stroke-linecap="round" stroke-miterlimit="10" stroke-width="11"/><line id="0a17224b-4b40-42b1-b665-7dcf351ff3ad" data-name="&lt;Path&gt;" x1="103.79" y1="389.06" x2="107.89" y2="384.04" fill="none" stroke="#3a3a3a" stroke-linecap="round" stroke-miterlimit="10" stroke-width="11"/><line id="66e6f50d-cc5f-4d1c-856d-a45abdadf1ca" data-name="&lt;Path&gt;" x1="144.13" y1="389.06" x2="140.03" y2="384.04" fill="none" stroke="#3a3a3a" stroke-linecap="round" stroke-miterlimit="10" stroke-width="11"/><rect id="d4fcb163-37b5-486b-8275-01b2d9b09c4f" data-name="&lt;Rectangle&gt;" x="403.32" y="296.71" width="13.96" height="21.97" rx="6.29" ry="6.29" fill="#c9c9c9"/><line id="5eebd98b-6b80-461e-b238-41f3cd488c9a" data-name="&lt;Path&gt;" x1="123.84" y1="278.23" x2="123.84" y2="289.08" fill="none" stroke="#ddd" stroke-linecap="round" stroke-miterlimit="10" stroke-width="5"/><rect id="cd5da7ce-c3dd-40fe-adbb-c7af568491ff" data-name="&lt;Rectangle&gt;" x="116.86" y="286.71" width="13.96" height="21.97" rx="6.29" ry="6.29" fill="#c9c9c9"/><circle id="508554c8-9d88-44c3-b40c-531b50856697" data-name="&lt;Path&gt;" cx="116.86" cy="297.7" r="4.47" fill="#b7b7b7"/><circle id="7fe6fcfd-6e44-4d2b-a775-f8c98bb53e7a" data-name="&lt;Path&gt;" cx="403.32" cy="307.7" r="4.47" fill="#b7b7b7"/><line id="403d9447-1a0e-4095-8005-0f33b16f5e08" data-name="&lt;Path&gt;" x1="410.3" y1="235.37" x2="410.3" y2="252.38" fill="none" stroke="#b7b7b7" stroke-miterlimit="10" stroke-width="5"/><rect id="ce705104-de25-4b83-ba71-00653c7f1157" data-name="&lt;Rectangle&gt;" x="403.32" y="222.71" width="13.96" height="21.97" rx="6.29" ry="6.29" fill="#c9c9c9"/><circle id="9969d611-dfd6-45bb-8f85-e186035c5ac0" data-name="&lt;Path&gt;" cx="403.32" cy="233.7" r="4.47" fill="#b7b7b7"/><line id="5aeaedab-058d-4385-985f-39d6b4acba64" data-name="&lt;Path&gt;" x1="350.28" y1="318.52" x2="350.28" y2="335.53" fill="none" stroke="#b7b7b7" stroke-miterlimit="10" stroke-width="5"/><rect id="ea2e76be-87b4-436b-85bd-a89380f2daf1" data-name="&lt;Rectangle&gt;" x="343.3" y="305.86" width="13.96" height="21.97" rx="6.29" ry="6.29" transform="translate(700.56 633.7) rotate(180)" fill="#c9c9c9"/><circle id="cc898745-9011-4768-9ccf-b6585b0a9f8e" data-name="&lt;Path&gt;" cx="357.26" cy="316.85" r="4.47" fill="#b7b7b7"/><circle id="1106f92a-b36c-46a9-9f3f-782f53b231c2" data-name="&lt;Path&gt;" cx="100.26" cy="227.93" r="3.41" fill="#ffdd50"/><circle id="28ccecb2-578a-474c-bd8f-3922b66f6215" data-name="&lt;Path&gt;" cx="111.3" cy="227.93" r="3.41" fill="#ffdd50"/><circle id="e4171045-19c6-4ab8-83f1-cea61419b2a5" data-name="&lt;Path&gt;" cx="386.77" cy="188.86" r="3.41" fill="#ffdd50"/><circle id="ee93cead-f005-4072-91a2-71322918f43b" data-name="&lt;Path&gt;" cx="398.13" cy="188.86" r="3.41" fill="#ffdd50"/><g id="4cf60926-d4be-48e1-9384-64a03e172a3a" data-name="&lt;Group&gt;"><circle cx="231.81" cy="345.21" r="30.07" fill="#f4f4f4"/></g><line x1="402.61" y1="222.14" x2="453.16" y2="272.68" fill="none" stroke="#c9c9c9" stroke-linecap="round" stroke-miterlimit="10" stroke-width="5"/><line x1="447.33" y1="266.86" x2="462.35" y2="281.88" fill="none" stroke="#474747" stroke-linecap="round" stroke-miterlimit="10" stroke-width="11"/></svg>