<svg id="c35dd69d-4692-4150-8ad6-15fbac905f77" data-name="Layer 1" xmlns="http://www.w3.org/2000/svg" xmlns:xlink="http://www.w3.org/1999/xlink" viewBox="0 0 470 470"><defs><linearGradient id="47f25928-d5c7-4fc4-92aa-d63546b6d50f" x1="204.83" y1="51.37" x2="183.24" y2="72.97" gradientUnits="userSpaceOnUse"><stop offset="0" stop-color="#fff" stop-opacity="0"/><stop offset="0.17" stop-color="#fefefe" stop-opacity="0.01"/><stop offset="0.3" stop-color="#fdfdfd" stop-opacity="0.06"/><stop offset="0.43" stop-color="#fafafa" stop-opacity="0.14"/><stop offset="0.55" stop-color="#f7f7f7" stop-opacity="0.25"/><stop offset="0.67" stop-color="#f2f2f2" stop-opacity="0.39"/><stop offset="0.78" stop-color="#ececec" stop-opacity="0.56"/><stop offset="0.89" stop-color="#e5e5e5" stop-opacity="0.77"/><stop offset="1" stop-color="#ddd"/></linearGradient><linearGradient id="30872819-c5ac-44a3-a128-55d15d6ec5ea" x1="132.08" y1="252" x2="163.1" y2="252" gradientUnits="userSpaceOnUse"><stop offset="0.01" stop-color="#aa6f5b"/><stop offset="1" stop-color="#b57961"/></linearGradient></defs><title>joaco - exports</title><g id="e3f3fa07-a01f-41c4-aa1c-89f776711035" data-name="&lt;Group&gt;"><rect id="3c3160f1-c889-4ae2-b828-356c11545247" data-name="&lt;Rectangle&gt;" x="209.85" y="298.41" width="21.27" height="54.26" fill="#5b5b5b"/><rect id="df9236f1-e634-4d13-b7bc-2cc4842f4ea7" data-name="&lt;Rectangle&gt;" x="209.85" y="288.24" width="50.3" height="10.17" fill="#3d3d3d"/><rect id="c04f72fd-2de1-4203-946e-15a361cf3f80" data-name="&lt;Rectangle&gt;" x="238.88" y="298.41" width="21.27" height="54.26" fill="#5b5b5b"/><rect id="988c0fbc-c1ab-45f2-b231-c10e93cbfc43" data-name="&lt;Rectangle&gt;" x="209.85" y="298.41" width="50.3" height="17.12" fill="#5b5b5b"/><path id="3d46d31d-e178-4435-ada6-49ac5f8ce265" data-name="&lt;Rectangle&gt;" d="M247.39,344h18.29a5.6,5.6,0,0,1,5.6,5.6V361a0,0,0,0,1,0,0H247.39a8.51,8.51,0,0,1-8.51-8.51v0A8.51,8.51,0,0,1,247.39,344Z" transform="translate(510.16 704.93) rotate(180)" fill="#474747"/><path id="9fbfbe12-70f2-42be-9456-6d95bb532218" data-name="&lt;Rectangle&gt;" d="M247.39,344h3a4.13,4.13,0,0,1,4.13,4.13V361a0,0,0,0,1,0,0h-7.08a8.51,8.51,0,0,1-8.51-8.51v0A8.51,8.51,0,0,1,247.39,344Z" transform="translate(493.35 704.93) rotate(180)" fill="#3d3d3d"/><path id="8ee02823-0592-4b49-9d2f-9d62ccb1166d" data-name="&lt;Rectangle&gt;" d="M207.23,344h23.89a0,0,0,0,1,0,0v11.42a5.6,5.6,0,0,1-5.6,5.6H207.23a8.51,8.51,0,0,1-8.51-8.51v0a8.51,8.51,0,0,1,8.51-8.51Z" fill="#474747"/><path id="d0e66636-6a49-47d5-89ca-f0d16ef19523" data-name="&lt;Rectangle&gt;" d="M224,344h7.08a0,0,0,0,1,0,0v12.89A4.13,4.13,0,0,1,227,361h-3a8.51,8.51,0,0,1-8.51-8.51v0A8.51,8.51,0,0,1,224,344Z" fill="#3d3d3d"/><rect id="0f2fd23c-ae35-40fb-8865-327aa89197a2" data-name="&lt;Rectangle&gt;" x="209.85" y="227.49" width="50.3" height="60.75" fill="#474747"/><rect id="840e6367-3e0b-4b40-adf5-8fc621717dd5" data-name="&lt;Rectangle&gt;" x="252.03" y="227.5" width="18.95" height="13.83" fill="#515151"/><g id="9f735b87-9707-47e1-979f-ff8ae8aacf3c" data-name="&lt;Group&gt;"><rect id="8b27e68e-f291-4902-ad23-8eb50870f95b" data-name="&lt;Rectangle&gt;" x="267.05" y="271.71" width="19.36" height="43.53" rx="9.68" ry="9.68" transform="translate(-29.2 30.58) rotate(-6.01)" fill="#feccae"/><rect id="18eb7dcb-c0cf-49c3-96c7-27d82e6c5959" data-name="&lt;Rectangle&gt;" x="263.48" y="229.39" width="19.36" height="60.5" rx="9.28" ry="9.28" transform="translate(-25.68 30.03) rotate(-6.01)" fill="#feccae"/><path id="08be3277-1f89-4a5d-a504-e5945668fb04" data-name="&lt;Path&gt;" d="M269.79,227.56l-9.63,1,3.15,29.91,19.26-2-2.14-20.28A9.68,9.68,0,0,0,269.79,227.56Z" fill="#515151"/></g><rect id="3fbe8493-e248-4fde-b0af-85c8ac4d58f9" data-name="&lt;Rectangle&gt;" x="198.96" y="227.5" width="18.95" height="13.83" transform="translate(416.87 468.83) rotate(-180)" fill="#515151"/><g id="8eaaab2b-c295-4590-bf02-2780fff5218b" data-name="&lt;Group&gt;"><rect id="a705f45b-70dd-4729-b521-2ea52d92d458" data-name="&lt;Rectangle&gt;" x="183.53" y="271.71" width="19.36" height="43.53" rx="9.68" ry="9.68" transform="translate(354.64 605.57) rotate(-173.99)" fill="#feccae"/><rect id="0734e729-2afd-4a7e-a4fb-034418ef8d88" data-name="&lt;Rectangle&gt;" x="187.09" y="229.39" width="19.36" height="60.5" rx="9.28" ry="9.28" transform="translate(365.28 538.47) rotate(-173.99)" fill="#feccae"/><path id="96d6c01d-841d-40d2-bcee-a00abdc7836d" data-name="&lt;Path&gt;" d="M200.15,227.56l9.63,1-3.15,29.91-19.26-2,2.14-20.28A9.68,9.68,0,0,1,200.15,227.56Z" fill="#515151"/></g><path id="38ab17d0-0cbf-42dc-9420-d2f6dd769aaf" data-name="&lt;Rectangle&gt;" d="M206.42,227.5h57.15a0,0,0,0,1,0,0v29.22a7.12,7.12,0,0,1-7.12,7.12H213.54a7.12,7.12,0,0,1-7.12-7.12V227.5A0,0,0,0,1,206.42,227.5Z" fill="#474747"/><path id="f10e339e-926d-409a-9e00-088e6eabbe56" data-name="&lt;Path&gt;" d="M218.24,227.5a10.88,10.88,0,0,0-.12,1.55c0,7.44,7.56,13.48,16.88,13.48s16.88-6,16.88-13.48a10.9,10.9,0,0,0-.12-1.55H218.24Z" fill="#515151"/><path id="e4c7db79-0448-44ce-9661-9f82d287c499" data-name="&lt;Rectangle&gt;" d="M223.4,221.64H246.6a0.46,0.46,0,0,1,.46.46v4.07A10.83,10.83,0,0,1,236.23,237h-2.46a10.83,10.83,0,0,1-10.83-10.83V222.1A0.46,0.46,0,0,1,223.4,221.64Z" fill="#febd86"/><path id="57522c14-3b46-4d0a-ae70-c3b9e56ce967" data-name="&lt;Rectangle&gt;" d="M227.59,157h14.82a20,20,0,0,1,20,20v23.3A23.76,23.76,0,0,1,238.61,224h-7.21a23.76,23.76,0,0,1-23.76-23.76V177A20,20,0,0,1,227.59,157Z" fill="#feccae"/><path id="2eed1ea9-6d9c-4f7d-8a17-65457390bc2f" data-name="&lt;Path&gt;" d="M242.87,155.44H227.13a19.5,19.5,0,0,0-19.5,19.5v25.31a5.64,5.64,0,0,0,5.64-5.64V180.71a2.85,2.85,0,0,1,4-2.61L228.61,183a16.1,16.1,0,0,0,12.78,0l11.35-4.91a2.85,2.85,0,0,1,4,2.61V194.6a5.64,5.64,0,0,0,5.64,5.64V174.93A19.5,19.5,0,0,0,242.87,155.44Z" fill="#735448"/><circle id="971dadbe-5cfe-4b4b-8164-3a4c204550ac" data-name="&lt;Path&gt;" cx="224.55" cy="197" r="2.48" fill="#5b5b5b"/><circle id="c61d1231-357c-47ba-a964-c704b2502ef4" data-name="&lt;Path&gt;" cx="244.55" cy="197" r="2.48" fill="#5b5b5b"/><ellipse id="3599f7ec-2984-4aa8-a6b3-de9fcac45d79" data-name="&lt;Path&gt;" cx="249.69" cy="202.58" rx="1.43" ry="3.38" transform="translate(-20.82 376.4) rotate(-71.78)" fill="#f9bfa2"/><ellipse id="21fd3d98-b93d-40e3-b0be-1d7e39097c51" data-name="&lt;Path&gt;" cx="220.78" cy="202.58" rx="3.38" ry="1.43" transform="translate(-52.28 79.21) rotate(-18.22)" fill="#f9bfa2"/><path id="776a067c-ad18-4a1d-8fed-3bc5e9871c17" data-name="&lt;Path&gt;" d="M242.87,155.44H227.13a19.5,19.5,0,0,0-19.5,19.5v25.31a5.64,5.64,0,0,0,5.64-5.64V180.71a2.85,2.85,0,0,1,4-2.61L228.61,183a16.1,16.1,0,0,0,12.78,0l11.35-4.91a2.85,2.85,0,0,1,4,2.61V194.6a5.64,5.64,0,0,0,5.64,5.64V174.93A19.5,19.5,0,0,0,242.87,155.44Z" fill="#473d3a"/><path id="b24ee23b-2c23-4543-8cf7-489c55b6b3a5" data-name="&lt;Path&gt;" d="M214.51,172a1,1,0,0,1-.92-1.39,16.72,16.72,0,0,1,8.8-8.81,1,1,0,1,1,.78,1.84,14.7,14.7,0,0,0-7.74,7.74A1,1,0,0,1,214.51,172Z" fill="#ededed" opacity="0.1"/><path id="0242128b-e906-4b28-9610-1e110649f13e" data-name="&lt;Path&gt;" d="M238.08,212.79h-6.16a7.37,7.37,0,0,1-7.07-5.27,1.62,1.62,0,0,1,1.53-2.1h17.25a1.59,1.59,0,0,1,1.56,2A7.37,7.37,0,0,1,238.08,212.79Z" fill="#fff"/><path id="01653c21-3c0b-4269-92ca-db1c57fb98e3" data-name="&lt;Path&gt;" d="M239.53,209.47H230.4a0.54,0.54,0,1,1,0-1.08h9.13A0.54,0.54,0,1,1,239.53,209.47Z" fill="#ededed"/></g><rect id="bc8c34f4-1eb3-442d-83d9-05d83e972fe5" data-name="&lt;Rectangle&gt;" x="46.04" y="375.33" width="377.91" height="16.77" rx="8.39" ry="8.39" opacity="0.08"/><polygon id="04a834a3-160f-4d0d-b6ff-c81c2d8b183d" data-name="&lt;Path&gt;" points="274.98 274.83 112.98 274.83 151.03 120.36 237.03 120.36 274.98 274.83" fill="#fff" opacity="0.1"/><rect id="df6bfa3c-e262-4520-bb0a-a6c7d904584a" data-name="&lt;Rectangle&gt;" x="374.54" y="350.17" width="26" height="21" rx="3.58" ry="3.58" fill="#58b1cc"/><circle id="dbe9f44b-fc6b-4c42-95fe-37213e17f43e" data-name="&lt;Path&gt;" cx="387.54" cy="360.67" r="5.67" fill="#e5e5e5"/><circle id="f8fc0991-cae0-428a-949f-62ad922cd6eb" data-name="&lt;Path&gt;" cx="82.33" cy="276.83" r="9.27" fill="#e6e8e8"/><circle id="0c645391-dea1-42b9-9488-0f3345ebcf07" data-name="&lt;Path&gt;" cx="92.65" cy="295.11" r="16.99" fill="#fff"/><circle id="5830cf6f-eb03-4984-accd-7ebc8bbe21c0" data-name="&lt;Path&gt;" cx="74.5" cy="303.15" r="9.83" fill="#f2f2f2"/><line id="6ee9517c-b1fc-48f3-b333-c618eeb64115" data-name="&lt;Path&gt;" x1="298" y1="360.67" x2="384" y2="360.67" fill="none" stroke="#e2e2e2" stroke-miterlimit="10" stroke-width="3"/><rect id="a4e9542b-c908-48ec-af2f-fb7c8f3e6046" data-name="&lt;Rectangle&gt;" x="106" y="274.83" width="258" height="108.17" fill="#b47860"/><rect id="fb6f15e0-c06f-4b50-a171-6563dc46a99e" data-name="&lt;Rectangle&gt;" x="106" y="274.83" width="258" height="20.28" fill="#aa6f5b"/><rect id="084f275a-790c-4fe2-85eb-5804c826da4d" data-name="&lt;Rectangle&gt;" x="98.25" y="274.83" width="273.5" height="11.41" rx="5.71" ry="5.71" fill="#b77d67"/><path id="1c62c5af-9a0a-4ad2-b0ac-7a34b4c80327" data-name="&lt;Path&gt;" d="M276.21,155.82l0.09-.09-0.74-.74a17,17,0,0,0-2-2l-10.91-10.91L251.74,153a17,17,0,0,0-2,2l-0.74.74,0.09,0.09A16.91,16.91,0,1,0,276.21,155.82Z" fill="#96d7ea"/><circle id="6782bbd1-0602-4108-829a-4132eebb8919" data-name="&lt;Path&gt;" cx="262.66" cy="166.42" r="10.13" fill="#b2e2ed"/><circle id="b80ee5e5-9013-487f-86bc-7c63c60b6e2f" data-name="&lt;Path&gt;" cx="272.19" cy="163.72" r="3.77" fill="#fff"/><rect id="da365105-1537-42cc-be48-90d7b17a4b10" data-name="&lt;Rectangle&gt;" x="191.27" y="43.33" width="5.53" height="37.67" fill="url(#47f25928-d5c7-4fc4-92aa-d63546b6d50f)"/><circle id="9382b2c7-8f07-4485-a1dc-2c7008ef0512" data-name="&lt;Path&gt;" cx="193.98" cy="117.11" r="12.23" fill="#fff"/><path id="7761c59b-6208-44d9-8ecb-c19eba914153" data-name="&lt;Path&gt;" d="M237,120.36H151l6-22.77A20.73,20.73,0,0,1,177,82.11h34A20.73,20.73,0,0,1,231.08,97.6Z" fill="#ddd"/><rect id="292cf14c-e757-4d35-ba57-235fd2c77f0c" data-name="&lt;Rectangle&gt;" x="161.46" y="106.57" width="30.77" height="6.17" rx="3.08" ry="3.08" fill="#fff" opacity="0.2"/><rect id="538d0b02-0060-489a-87f6-fb3e6140bc1d" data-name="&lt;Rectangle&gt;" x="197.25" y="106.57" width="6.55" height="6.17" rx="3.08" ry="3.08" fill="#fff" opacity="0.2"/><path id="b47189b3-6775-4a6a-8e03-771724d7b942" data-name="&lt;Rectangle&gt;" d="M311.17,238.69h32.5a0,0,0,0,1,0,0V254.4A15.59,15.59,0,0,1,328.08,270h-1.32a15.59,15.59,0,0,1-15.59-15.59V238.69A0,0,0,0,1,311.17,238.69Z" fill="#fff"/><path id="a08eddfb-26a7-4c79-b222-a66139cff4a3" data-name="&lt;Rectangle&gt;" d="M306.33,267.93H348.5a0,0,0,0,1,0,0v0a6.9,6.9,0,0,1-6.9,6.9H313.23a6.9,6.9,0,0,1-6.9-6.9v0a0,0,0,0,1,0,0Z" fill="#e5e5e5"/><path id="75329e0f-307d-4365-9369-7ae2927659b1" data-name="&lt;Rectangle&gt;" d="M343.67,243.87h8.56a0,0,0,0,1,0,0v3.25a8.14,8.14,0,0,1-8.14,8.14h-0.42a0,0,0,0,1,0,0V243.87A0,0,0,0,1,343.67,243.87Z" fill="#e5e5e5"/><rect id="5551eb4c-0f88-4fa0-aeba-db76193ff0cb" data-name="&lt;Rectangle&gt;" x="182.65" y="76.33" width="22.77" height="5.78" fill="#cecece"/><g id="3cb4e7ca-3446-4cb3-aaee-85b86b5699d6" data-name="&lt;Group&gt;"><circle id="8f62d41b-6c40-4d3d-b101-37b7e8598fca" data-name="&lt;Path&gt;" cx="341.24" cy="155.03" r="26.42" fill="#7dd4e2" stroke="#4b9caf" stroke-miterlimit="10" stroke-width="6"/><polyline id="1cb014f5-4bcb-49b9-8995-127cd0b670d2" data-name="&lt;Path&gt;" points="341.24 146.5 341.24 155.61 348.55 163.56" fill="none" stroke="#4b9caf" stroke-linecap="round" stroke-linejoin="round" stroke-width="5"/></g><path id="1c18059a-bcd6-4c9b-b354-cc2993ff95a3" data-name="&lt;Rectangle&gt;" d="M137.43,229.16h20.31a5.35,5.35,0,0,1,5.35,5.35v40.32a0,0,0,0,1,0,0h-31a0,0,0,0,1,0,0V234.52A5.35,5.35,0,0,1,137.43,229.16Z" fill="url(#30872819-c5ac-44a3-a128-55d15d6ec5ea)"/><polygon id="275d0775-236f-4ffd-84b8-d008830cb21d" data-name="&lt;Path&gt;" points="127.17 274.83 147.59 274.83 147.59 251.96 141.24 251.96 127.17 274.83" fill="#a06657"/><rect id="3cab4840-4393-4bf5-89d7-e50007e2926a" data-name="&lt;Rectangle&gt;" x="62.67" y="304.97" width="43.33" height="78.03" fill="#515151"/><path id="1f2226cb-07ae-4d96-830a-15b8fed9caea" data-name="&lt;Rectangle&gt;" d="M63,305h43a0,0,0,0,1,0,0v14a0,0,0,0,1,0,0H63a4.34,4.34,0,0,1-4.34-4.34v-5.31A4.34,4.34,0,0,1,63,305Z" fill="#474747"/><rect id="77bba811-5d8e-4cfd-b0ea-e050576953d1" data-name="&lt;Rectangle&gt;" x="174.67" y="193" width="120.67" height="81.83" rx="8.8" ry="8.8" fill="#e3e3e3"/><path id="d7953ca0-b011-46b6-9081-41500d2831fc" data-name="&lt;Path&gt;" d="M244.63,235.28a7.74,7.74,0,0,1-3.79-11.95A12.13,12.13,0,1,0,247,235.68,7.73,7.73,0,0,1,244.63,235.28Z" fill="#fff"/><g id="658b0cc5-8b39-4dcb-810f-780d167be622" data-name="&lt;Group&gt;" opacity="0.3"><rect id="1758e36e-6dbd-4241-b946-6da8599c2f5e" data-name="&lt;Rectangle&gt;" x="170.68" y="248.57" width="30.77" height="6.17" rx="3.08" ry="3.08" transform="translate(-65.6 437.72) rotate(-90)" fill="#fff"/><rect id="15d873ea-1ecb-49fe-b716-1bcc73dd6204" data-name="&lt;Rectangle&gt;" x="182.79" y="224.9" width="6.55" height="6.17" rx="3.08" ry="3.08" transform="translate(-41.92 414.04) rotate(-90)" fill="#fff"/></g><rect id="0408660a-52a5-43ae-af1a-03999fa2f460" data-name="&lt;Rectangle&gt;" x="70.75" y="326" width="9.83" height="48.33" rx="4.92" ry="4.92" fill="#474747"/><rect id="7af5f862-a0e2-49ac-90a1-449b1282a913" data-name="&lt;Rectangle&gt;" x="88.5" y="326" width="9.83" height="48.33" rx="4.92" ry="4.92" fill="#474747"/></svg>