<svg id="Layer_1" version="1.1" data-name="Layer 1" xmlns="http://www.w3.org/2000/svg" xmlns:xlink="http://www.w3.org/1999/xlink" viewBox="0 0 460 420">
  <defs>
    <linearGradient id="linear-gradient" x1="231.9477" y1="162.2398" x2="231.9477" y2="140.3748">
      <stop offset="0" stop-color="#e55757" stop-opacity="0"/>
      <stop offset="1" stop-color="#e55757"/>
    </linearGradient>
  </defs>
  <title>1_</title>
  <g id="background" class="appearfromright">
    <g style="opacity: 0.05">
      <rect x="61.8191" y="114.4665" width="195.8372" height="12.884"/>
      <polygon points="254.199 141.599 60.667 141.599 64.124 132.725 257.656 132.725 254.199 141.599"/>
      <polygon points="254.199 155.438 60.667 155.438 64.124 146.564 257.656 146.564 254.199 155.438"/>
      <polygon points="254.199 169.277 60.667 169.277 64.124 160.403 257.656 160.403 254.199 169.277"/>
      <polygon points="254.199 183.117 60.667 183.117 64.124 174.242 257.656 174.242 254.199 183.117"/>
      <polygon points="254.199 196.956 60.667 196.956 64.124 188.082 257.656 188.082 254.199 196.956"/>
      <polygon points="254.199 210.795 60.667 210.795 64.124 201.921 257.656 201.921 254.199 210.795"/>
      <polygon points="254.199 224.634 60.667 224.634 64.124 215.76 257.656 215.76 254.199 224.634"/>
      <polygon points="254.302 233.673 61.016 243.437 64.021 234.399 257.307 224.636 254.302 233.673"/>
      <rect x="76.801" y="126.9412" width="2.7199" height="134.2909"/>
      <rect x="131.5424" y="126.9412" width="2.7199" height="124.6485"/>
      <rect x="186.2839" y="126.9412" width="2.7199" height="124.6485"/>
      <rect x="74.5568" y="252.4775" width="7.2082" height="11.8658" rx="3.6041" ry="3.6041"/>
    </g>
  </g>
  <g id="character" class="fadein">
    <path d="M259.23,286.9544H204.7056c-.5341-11.9011-2.7635-9.5347-4.0028-19.75l-2.1053-23.7561h66.7411l-2.1053,23.7561C262.4492,277.39,261.1177,273.8659,259.23,286.9544Z" style="fill: #3a3a3a"/>
    <polygon points="258.849 295.448 205.087 295.448 202.818 244.902 261.118 244.902 258.849 295.448" style="fill: #3a3a3a"/>
    <path d="M242.3363,204.0521l-10.3683,1.0255L221.6,204.0521l-17.9012,3.8761a11.5668,11.5668,0,0,0-8.9994,11.3809v28.2967a8.53,8.53,0,0,0,8.7108,8.3372h23.9834a4.6449,4.6449,0,0,0,3.57-1.64,1.3248,1.3248,0,0,1,2.01,0,4.6449,4.6449,0,0,0,3.57,1.64h23.9834a8.53,8.53,0,0,0,8.7108-8.3372V219.309a11.5668,11.5668,0,0,0-8.9994-11.3809Z" style="fill: #3a3a3a"/>
    <ellipse cx="231.7275" cy="211.7374" rx="14.1832" ry="9.5171" style="fill: #424242"/>
    <path d="M221.3036,199.3466h21.3288a0,0,0,0,1,0,0v8.1343a8.467,8.467,0,0,1-8.467,8.467h-4.3948a8.467,8.467,0,0,1-8.467-8.467v-8.1343A0,0,0,0,1,221.3036,199.3466Z" style="fill: #f9bfa2"/>
    <polygon points="190.656 270.649 169.761 267.833 173.166 246.037 194.06 248.854 190.656 270.649" style="fill: #feccae"/>
    <polygon points="273.415 270.649 294.309 267.833 290.905 246.037 270.01 248.854 273.415 270.649" style="fill: #feccae"/>
    <polygon points="187.783 314.328 172.949 314.328 169.761 267.833 190.656 270.649 187.783 314.328" style="fill: #feccae"/>
    <path d="M188.9231,332.6493l-14.4963-2.0536a3.9961,3.9961,0,0,1-3.417-4.3413l1.5531-16.0566,15.6362-2.1482,3.7436,3.1967a5.6039,5.6039,0,0,1,1.8981,3.3987l1.56,10.0086a3.9961,3.9961,0,0,1-.4842,2.6072l-1.9687,3.4238A3.9961,3.9961,0,0,1,188.9231,332.6493Z" style="fill: #feccae"/>
    <polygon points="276.288 314.328 291.121 314.328 294.309 267.833 273.415 270.649 276.288 314.328" style="fill: #feccae"/>
    <path d="M275.1475,332.6493l14.4963-2.0536a3.9961,3.9961,0,0,0,3.417-4.3413l-1.5531-16.0566L275.8714,308.05l-3.7436,3.1967a5.6039,5.6039,0,0,0-1.8981,3.3987l-1.56,10.0086a3.9961,3.9961,0,0,0,.4842,2.6072l1.9687,3.4238A3.9961,3.9961,0,0,0,275.1475,332.6493Z" style="fill: #feccae"/>
    <path d="M213.3173,354.4675h-2.7048c-5.6209,0-10.1776-4.9287-10.1776-11.0086V313.5456a24.8,24.8,0,0,1,2.7613-11.4137l.615-1.1839h25.3883v36.3407C229.1994,346.7763,222.0887,354.4675,213.3173,354.4675Z" style="fill: #424242"/>
    <path d="M250.2344,354.4675h2.7309c5.6751,0,10.2757-4.9287,10.2757-11.0086V313.5456a24.6093,24.6093,0,0,0-2.7879-11.4137l-.6209-1.1839H234.1993v36.3407C234.1993,346.7762,241.3785,354.4675,250.2344,354.4675Z" style="fill: #424242"/>
    <path d="M259.2858,300.9479H204.7322a1.4871,1.4871,0,0,1-1.4582-1.7786l1.6168-8.089h54.1545l1.6959,8.0749A1.4871,1.4871,0,0,1,259.2858,300.9479Z" style="fill: #3a3a3a"/>
    <polygon points="268.964 248.995 290.905 246.037 286.865 220.217 264.924 223.174 268.964 248.995" style="fill: #3a3a3a"/>
    <polygon points="196.662 249.204 173.166 246.037 177.245 220.222 200.741 223.389 196.662 249.204" style="fill: #3a3a3a"/>
    <path d="M175.4287,233.2046l24.038,3.24,3.24-24.038-12.4932-1.8187a18.2029,18.2029,0,0,0-8.0493,1.1129,12.7858,12.7858,0,0,0-6.8776,11.7191Z" style="fill: #3a3a3a"/>
    <path d="M288.6419,233.2046l-24.038,3.24-3.24-24.038,12.4932-1.8187a18.2029,18.2029,0,0,1,8.0493,1.1129,12.7858,12.7858,0,0,1,6.8776,11.7191Z" style="fill: #3a3a3a"/>
    <rect x="224.5548" y="300.9479" width="14.2263" height="22.9444" style="fill: #424242"/>
    <g>
      <line x1="174.2735" y1="279.553" x2="181.3344" y2="278.9263" style="fill: none;stroke: #efb49a;stroke-linecap: round;stroke-miterlimit: 10"/>
      <line x1="174.4482" y1="284.1703" x2="181.509" y2="283.5437" style="fill: none;stroke: #efb49a;stroke-linecap: round;stroke-miterlimit: 10"/>
      <line x1="174.6405" y1="288.7881" x2="181.7014" y2="288.1615" style="fill: none;stroke: #efb49a;stroke-linecap: round;stroke-miterlimit: 10"/>
    </g>
    <g>
      <line x1="289.9358" y1="279.553" x2="282.8749" y2="278.9263" style="fill: none;stroke: #efb49a;stroke-linecap: round;stroke-miterlimit: 10"/>
      <line x1="289.7611" y1="284.1703" x2="282.7003" y2="283.5437" style="fill: none;stroke: #efb49a;stroke-linecap: round;stroke-miterlimit: 10"/>
      <line x1="289.5688" y1="288.7881" x2="282.508" y2="288.1615" style="fill: none;stroke: #efb49a;stroke-linecap: round;stroke-miterlimit: 10"/>
    </g>
    <path d="M235.0316,207.35a3.1006,3.1006,0,0,1-6.2011,0" style="fill: none;stroke: #efb49a;stroke-linecap: round;stroke-miterlimit: 10"/>
    <path d="M194.3132,248.8538l-21.9563-2.96a1.5714,1.5714,0,0,1-1.3424-1.8015l.5748-3.6552a1.5714,1.5714,0,0,1,1.7623-1.3132l22.0927,2.9779Z" style="fill: #3f3f3f"/>
    <g>
      <g>
        <path id="_Path_" data-name="&lt;Path&gt;" d="M231.9721,200.04h-.0862c-7.8128,0-12.8614-2.8881-17.3109-8.9407-3.2-4.353-6.0134-8.8161-5.0173-14.756l-.9961-19.41c-.9961-14.1988,9.8925-25.7091,23.3243-25.7091h.0862c13.4318,0,24.32,11.51,23.3243,25.7091l-.9961,19.41c.9961,5.94-1.8172,10.403-5.0173,14.756C244.8335,197.152,239.7849,200.04,231.9721,200.04Z" style="fill: #feccae"/>

        <rect class="hategradient" x="210.2052" y="140.3748" width="43.4851" height="21.865" style="fill: url(#linear-gradient)"/>


        <path d="M244.7484,194.7751l7.9459-6.0712L253.69,173.29h0a9.0137,9.0137,0,0,0-8.9419,9.0838Z" style="fill: #f9bfa2"/>
        <path d="M219.1471,194.7443l-7.9459-6.0712-.9961-15.4139h0a9.0137,9.0137,0,0,1,8.9419,9.0838Z" style="fill: #f9bfa2"/>
        <polygon points="244.748 164.169 218.931 164.169 216.57 159.3 247.101 159.3 244.748 164.169" style="fill: #f9bfa2"/>
        <path d="M252.8153,177.9537a13.5045,13.5045,0,0,1-2.8612,8.6943c-2.149,2.8382-4.8135,5.1783-5.8057,1.48l-1.1844-3.7693c-.9479-3.0052-3.4323-6.0845-8.8043-6.0845l-2.2306.0012-2.2306-.0012a9.4547,9.4547,0,0,0-8.9012,6.0845l-1.1284,3.592c-1.106,4.9889-3.5541,1.2866-5.7648-1.3024-2.8568-3.3457-3.0822-5.5893-2.8614-8.6943h-2.4811v1.3081c0,6.4108,2.8965,11.228,6.1664,15.9262,4.3663,6.2734,9.3054,9.2429,16.76,9.64v.039c.15,0,.2926-.0154.4407-.0195.1482.0041.2905.0191.4407.0195v-.039c7.4548-.3968,12.3939-3.3662,16.76-9.64,3.27-4.6982,6.1664-9.5154,6.1664-15.9262v-1.3081Z" style="fill: #3a3a3a"/>
        <path id="_Path_2" data-name="&lt;Path&gt;" d="M216.6037,171.1561c.1362.8832,1.754,1.3051,3.6137.9424s3.2568-1.3727,3.1206-2.2558-1.754-1.3051-3.6137-.9424S216.4676,170.273,216.6037,171.1561Z" style="fill: #f7afa4"/>
        <path id="_Path_3" data-name="&lt;Path&gt;" d="M246.5857,171.1561c-.1362.8832-1.754,1.3051-3.6137.9424s-3.2568-1.3727-3.1206-2.2558,1.754-1.3051,3.6137-.9424S246.7218,170.273,246.5857,171.1561Z" style="fill: #f7afa4"/>
        <path d="M257.4656,161.5471h-2.1744v10.7311h1.24c1.8657,0,3.4718-1.9093,3.8369-4.5611l.1152-.8369C260.8633,164.1207,259.407,161.5471,257.4656,161.5471Z" style="fill: #f9bfa2"/>
        <path d="M206.3872,161.5471h2.1744v10.7311h-1.24c-1.8657,0-3.4718-1.9093-3.8369-4.5611l-.1152-.8369C202.99,164.1207,204.4459,161.5471,206.3872,161.5471Z" style="fill: #f9bfa2"/>
        <path d="M220.2548,137.0477a8.31,8.31,0,0,1-5.2953-10.27h0a7.8556,7.8556,0,0,1,9.8453-5.5238Z" style="fill: #424242"/>
        <g>
          <path id="_Path_4" data-name="&lt;Path&gt;" d="M238.9332,126.1005H224.92c-9.5873,0-17.3593,9.1791-17.3593,20.5021v-2.01l.9961,18.5906h3.2976l.729-16.9262c0-2.1536,1.8675-3.6029,3.5412-2.7481l10.1107,5.1635a12.3389,12.3389,0,0,0,11.3831,0l10.1107-5.1635c1.6737-.8548,3.5412.5945,3.5412,2.7481l.8143,16.9262h3.2123l.9961-16.4492v-2.2728C256.2925,133.1382,248.52,126.1005,238.9332,126.1005Z" style="fill: #3a3a3a"/>
          <polygon points="255.296 179.262 252.815 177.954 252.084 163.183 255.296 162.24 255.296 179.262" style="fill: #3a3a3a"/>
          <polygon points="208.56 178.958 211.043 177.954 211.854 163.183 208.498 162.098 208.56 178.958" style="fill: #3a3a3a"/>
        </g>
        <path d="M217.9711,119.775l.0216,12.731a5.8634,5.8634,0,0,0,1.66,4.0983l13.228,13.4592h-14.91c-6.6716,0-12.08-5.877-12.08-13.1265v-4.0353C205.8911,125.652,211.2995,119.775,217.9711,119.775Z" style="fill: #3a3a3a"/>
        <path d="M231.8462,178.187h0a2.977,2.977,0,0,1-2.77-3.0081l-.6291-12.4463a3.0346,3.0346,0,0,1,2.77-3.3791h1.2581a3.0346,3.0346,0,0,1,2.77,3.3791l-.6291,12.4463A2.977,2.977,0,0,1,231.8462,178.187Z" style="fill: #efb49a"/>
        <rect x="226.9346" y="174.2301" width="7.0938" height="3.9568" rx="1.7435" ry="1.7435" style="fill: #efb49a"/>
        <path d="M246.3376,161.1971l-7.36,2.418a1.0033,1.0033,0,0,1-1.2673-.6582l-.09-.2829a1.0258,1.0258,0,0,1,.6479-1.2874l7.36-2.418a1.0033,1.0033,0,0,1,1.2673.6582l.09.2829A1.0258,1.0258,0,0,1,246.3376,161.1971Z" style="fill: #3a3a3a"/>
        <path d="M217.6539,161.1971l7.36,2.418a1.0033,1.0033,0,0,0,1.2673-.6582l.09-.2829a1.0258,1.0258,0,0,0-.6479-1.2874l-7.36-2.418a1.0033,1.0033,0,0,0-1.2673.6582l-.09.2829A1.0258,1.0258,0,0,0,217.6539,161.1971Z" style="fill: #3a3a3a"/>
        <path id="_Path_5" data-name="&lt;Path&gt;" d="M244.7484,163.5841c0-1.2688-5.5145-1.2688-5.5145,0a2.8033,2.8033,0,0,0,5.5145,0Z" style="fill: #3a3a3a"/>
        <path id="_Path_6" data-name="&lt;Path&gt;" d="M224.4457,163.5841c0-1.2688-5.5145-1.2688-5.5145,0a2.8033,2.8033,0,0,0,5.5145,0Z" style="fill: #3a3a3a"/>
        <path d="M211.739,130.3777s-1.7421,13.958,12.7067,13.958h5.1069" style="fill: none;stroke: #494949;stroke-linecap: round;stroke-miterlimit: 10;stroke-width: 1.5px"/>
        <path d="M218.9312,133.1465c1.9264,5.7153,4.8708,6.0434,12.7058,6.0434" style="fill: none;stroke: #424242;stroke-linecap: round;stroke-miterlimit: 10;stroke-width: 1.5px"/>
        <path d="M228.5093,195.7422a1.81,1.81,0,1,1-3.62,0" style="fill: none;stroke: #424242;stroke-linecap: round;stroke-miterlimit: 10"/>
        <path d="M234.686,195.7422a3.0887,3.0887,0,1,1-6.1767,0" style="fill: none;stroke: #424242;stroke-linecap: round;stroke-miterlimit: 10"/>
      </g>
      <path d="M227.2621,188.6969a2.0006,2.0006,0,0,1-1.7134-3.0293,7.2927,7.2927,0,0,1,12.0542-.2158,2,2,0,0,1-3.3428,2.1973,3.3063,3.3063,0,0,0-5.2808.0771A1.9987,1.9987,0,0,1,227.2621,188.6969Z" style="fill: #feccae"/>
      <path d="M227.2631,187.4967a.7894.7894,0,0,1-.4106-.1143.799.799,0,0,1-.2744-1.0967,5.8694,5.8694,0,0,1,5.0659-2.7148,5.9365,5.9365,0,0,1,4.9561,2.54.8.8,0,1,1-1.3369.8789,4.3222,4.3222,0,0,0-3.6191-1.8193,4.2672,4.2672,0,0,0-3.6938,1.9375A.8.8,0,0,1,227.2631,187.4967Z" style="fill: #eaa688"/>
    </g>
  </g>
  <g id="front-desk" class="fadeinbottom">
    <g>
      <polygon id="_Path_7" data-name="&lt;Path&gt;" points="269.976 256.831 107.976 256.831 146.035 102.363 232.035 102.363 269.976 256.831" style="fill: #fff;opacity: 0.1"/>
      <rect id="_Rectangle_" data-name="&lt;Rectangle&gt;" x="186.2706" y="29.2821" width="5.5295" height="40.4158" style="fill: #dbdbdb"/>
      <circle id="_Path_8" data-name="&lt;Path&gt;" cx="188.9762" cy="99.1082" r="12.2251" style="fill: #fff"/>
      <path id="_Path_9" data-name="&lt;Path&gt;" d="M232.0353,102.3627h-86l5.9519-22.7669A20.7267,20.7267,0,0,1,172.04,64.1115h33.9906a20.7267,20.7267,0,0,1,20.0527,15.4843Z" style="fill: #e3e3e3"/>
      <rect id="_Rectangle_2" data-name="&lt;Rectangle&gt;" x="156.4584" y="88.5735" width="30.7653" height="6.1654" rx="3.0827" ry="3.0827" style="fill: #fff;opacity: 0.4"/>
      <rect id="_Rectangle_3" data-name="&lt;Rectangle&gt;" x="192.2459" y="88.5735" width="6.5478" height="6.1654" rx="3.0827" ry="3.0827" style="fill: #fff;opacity: 0.4"/>
      <rect id="_Rectangle_4" data-name="&lt;Rectangle&gt;" x="177.648" y="58.3333" width="22.7747" height="5.7781" style="fill: #cecece"/>
      <path d="M226.0834,79.5958a20.7268,20.7268,0,0,0-20.0527-15.4843H188.8364a20.7267,20.7267,0,0,1,20.0527,15.4843l5.9519,22.7669h17.1943Z" style="fill: #dbdbdb"/>
    </g>
    <circle id="_Path_10" data-name="&lt;Path&gt;" cx="81.3311" cy="275.8285" r="9.2688" style="fill: #e6e8e8"/>
    <circle id="_Path_11" data-name="&lt;Path&gt;" cx="91.6528" cy="294.1123" r="16.9861" style="fill: #fff"/>
    <circle id="_Path_12" data-name="&lt;Path&gt;" cx="73.5" cy="302.1509" r="9.8333" style="fill: #f2f2f2"/>
    <rect id="_Rectangle_5" data-name="&lt;Rectangle&gt;" x="371.1953" y="323.1695" width="21" height="21" rx="3.2152" ry="3.2152" style="opacity: 0.08"/>
    <circle id="_Path_13" data-name="&lt;Path&gt;" cx="381.8274" cy="333.6695" r="5.6695" style="fill: #e5e5e5"/>
    <line id="_Path_14" data-name="&lt;Path&gt;" x1="292.2857" y1="333.6695" x2="378.2857" y2="333.6695" style="fill: none;stroke: #d6d6d6;stroke-miterlimit: 10;stroke-width: 4px"/>
    <rect id="_Rectangle_6" data-name="&lt;Rectangle&gt;" x="47.5782" y="374.3333" width="344.8436" height="16.7747" rx="8.012" ry="8.012" style="opacity: 0.08"/>
    <rect id="_Rectangle_7" data-name="&lt;Rectangle&gt;" x="105" y="253.8307" width="258" height="128.1693" style="fill: #b47860"/>
    <path d="M363,330.893l-23.9819,10.7276a19.0866,19.0866,0,0,1-14.7744.3413l-20.638-8.11a19.0866,19.0866,0,0,0-14.8922.3945l-15.5145,7.0664a19.0866,19.0866,0,0,1-15.738.0384l-15.7078-7.0621a19.0866,19.0866,0,0,0-15.194-.1993l-18.2271,7.6267a19.0866,19.0866,0,0,1-15.1127-.1629L177.8,334.7075a19.0866,19.0866,0,0,0-16.8521.6705l-7.473,4.0572a19.0866,19.0866,0,0,1-19.6057-.8343h0a19.0866,19.0866,0,0,0-22.5616,1.1481L105,344.893V382H363Z" style="opacity: 0.03"/>
    <g style="opacity: 0.5">
      <path d="M112.67,301.4431a3.4545,3.4545,0,0,0,2.7686.6953c3.1924-.6084,4.5762-1.3418,5.4209-6.2344a8.4327,8.4327,0,0,0-1.9365-6.7539,5.9825,5.9825,0,0,0-4.3018-2.3594,5.1,5.1,0,0,0-4.0029,1.5811c-1.1631,1.3066-1.64,3.4316-1.3418,5.9834C109.6391,297.4567,110.9389,300.1735,112.67,301.4431Zm-1.6855-8.3652a.8753.8753,0,0,1,.875-.8623h.0127a.8749.8749,0,0,1,.8623.8877c-.03,2.0156.0684,4.4443,1.1016,5.3438a2.0779,2.0779,0,0,0,1.7617.3525c1.2871-.1973,1.6768-1.8145,1.7852-2.501.34-2.1611-.4-5.0283-2.0439-5.8516a.8748.8748,0,1,1,.7832-1.5645c2.4365,1.22,3.4336,4.8672,2.9893,7.6885-.35,2.2207-1.5635,3.7-3.248,3.959a5.4863,5.4863,0,0,1-.8193.0645,3.4694,3.4694,0,0,1-2.3584-.8281C111.1245,298.406,110.9457,295.7477,110.9848,293.0778Z" style="fill: none"/>
      <path d="M278.9457,358.7233c7.2861-35.9639,6.5771-58.4893,5.9521-78.3623-.1611-5.1289-.3135-9.9727-.3135-14.78a.875.875,0,0,0-1.75,0c0,4.835.1523,9.6924.3145,14.835.6221,19.7783,1.3271,42.1953-5.918,77.96Q274.8568,370.0944,273.4672,382H275.23Q276.6127,370.2526,278.9457,358.7233Z" style="fill: #aa6f5b"/>
      <path d="M289.6381,334.7018c.0215.001.0439.002.0654.002a.8754.8754,0,0,0,.8721-.8105c2.1221-28.5469,1.2676-42.5176.5811-53.7422-.2979-4.8682-.5791-9.4648-.5791-14.57a.875.875,0,0,0-1.75,0c0,5.1582.2832,9.7822.582,14.6768.6836,11.1729,1.5342,25.0771-.58,53.5068A.8763.8763,0,0,0,289.6381,334.7018Z" style="fill: #aa6f5b"/>
      <path d="M288.0121,343.5231a.879.879,0,0,0-1.0215.6992c-.0514.2745-3.457,18.583-5.8986,37.7776h1.7633c2.4312-19.0475,5.8047-37.1829,5.856-37.4553A.8755.8755,0,0,0,288.0121,343.5231Z" style="fill: #aa6f5b"/>
      <path d="M289.5441,382c.6648-4.8625,1.4464-9.8291,2.3694-14.9319,8.6709-47.9453,6.8525-77.6621,5.3906-101.541a.8747.8747,0,0,0-1.7461.1074c1.4551,23.7842,3.2666,53.3848-5.3672,101.123-.9425,5.2109-1.7385,10.2806-2.4136,15.2424Z" style="fill: #aa6f5b"/>
      <path d="M295.3012,378.9968c-.2192,1.01-.4358,2.0074-.6477,3.0032h1.79c.1865-.8726.3761-1.7473.5681-2.6321a220.1322,220.1322,0,0,0,5.0137-33.248c2.918-36.8574.03-80.165.001-80.5986a.889.889,0,0,0-.9326-.8135.8747.8747,0,0,0-.8135.9326c.0293.4316,2.9082,43.61.001,80.3408A218.68,218.68,0,0,1,295.3012,378.9968Z" style="fill: #aa6f5b"/>
      <path d="M301.9262,375.4186c-.3665,2.3093-.7128,4.4933-1.04,6.5813h1.7708c.3146-2.0056.6462-4.0977.9968-6.3079.5078-3.1953,1.0518-6.625,1.6309-10.3418,5.3877-34.5625,4.0332-87.6992,2.8662-99.8535a.8621.8621,0,0,0-.9551-.7871.8754.8754,0,0,0-.7871.9551c1.1621,12.1006,2.5107,65.0059-2.8525,99.416C302.977,368.7956,302.433,372.2243,301.9262,375.4186Z" style="fill: #aa6f5b"/>
      <path d="M308.8344,366.7438c-.7935,4.9952-1.623,10.2229-2.3879,15.2561h1.77c.7528-4.9462,1.5667-10.0762,2.3456-14.9817,1.6318-10.2744,3.1729-19.9785,3.752-25.459,2.5879-24.4639.6094-58.126-.2354-72.5l-.2041-3.5273a.8957.8957,0,0,0-.9229-.8252.8764.8764,0,0,0-.8252.9229l.2051,3.5322c.8418,14.3311,2.8145,47.8926.2422,72.2139C311.9985,346.81,310.4614,356.4929,308.8344,366.7438Z" style="fill: #aa6f5b"/>
      <path d="M312.5,375.1872a.8711.8711,0,0,0-1.0146.708c-.3663,2.0581-.67,4.0938-.9312,6.1047h1.7637c.2513-1.9109.5424-3.844.89-5.7981A.8749.8749,0,0,0,312.5,375.1872Z" style="fill: #aa6f5b"/>
      <path d="M317.3188,362.0993c-.7284,6.9293-1.4067,13.3958-1.73,19.9006h1.7546c.3214-6.4429.9937-12.8508,1.7156-19.717.8037-7.6445,1.7148-16.3086,2.251-26.1846a467.8057,467.8057,0,0,0-1.8193-70.62.8752.8752,0,1,0-1.7383.2051,465.5794,465.5794,0,0,1,1.81,70.3193C319.0287,345.8356,318.16,354.1032,317.3188,362.0993Z" style="fill: #aa6f5b"/>
      <path d="M328.9448,345.3327l.6045-4.7285c3.72-29.2744,1.7832-56.8857.0029-75.1084a.8752.8752,0,0,0-1.7422.17c1.7725,18.1387,3.7,45.6182.0029,74.7178l-.6045,4.7266c-1.5615,12.1719-3.1428,24.5214-3.7957,36.89h1.7545C325.82,369.7153,327.3919,357.4357,328.9448,345.3327Z" style="fill: #aa6f5b"/>
      <path d="M329.4667,382h1.7491a243.2013,243.2013,0,0,1,3.0629-32.2014c5.2813-33.05,1.5264-83.7754,1.4873-84.2842a.8746.8746,0,1,0-1.7441.1328c.0381.5059,3.7773,51.0264-1.4717,83.876A244.7855,244.7855,0,0,0,329.4667,382Z" style="fill: #aa6f5b"/>
      <path d="M345.8276,265.5436a.8492.8492,0,0,0-.9111-.8369.8745.8745,0,0,0-.8369.9111c.2607,6.1035.2,11.4834.1416,16.6865-.1182,10.4736-.2295,20.3672,2.2373,34.5908a255.8946,255.8946,0,0,0,7.2529,29.0166,263.7708,263.7708,0,0,1,7.54,30.2861.8752.8752,0,1,0,1.7246-.2988,265.19,265.19,0,0,0-7.585-30.48c-2.7773-9.4629-5.4-18.4014-7.208-28.8223-2.44-14.0664-2.3291-23.8809-2.2119-34.2725C346.03,277.0983,346.09,271.694,345.8276,265.5436Z" style="fill: #aa6f5b"/>
      <path d="M338.1176,354.9626a.9017.9017,0,0,0,.1758.0176.875.875,0,0,0,.8564-.7,197.8559,197.8559,0,0,0,3.1279-41.3154c-.1367-3.7559-.26-8.918-.3906-14.3828-.2891-12.0771-.6172-25.7656-1.2549-33.0771a.8754.8754,0,1,0-1.7441.1523c.6338,7.2559.9609,20.915,1.249,32.9668.1309,5.4707.2549,10.6377.3926,14.4053A195.9752,195.9752,0,0,1,337.435,353.93.8749.8749,0,0,0,338.1176,354.9626Z" style="fill: #aa6f5b"/>
      <path d="M345.2094,335.195a.8746.8746,0,0,0-.6729,1.0381c.8867,4.1611,5.166,17.5693,5.3486,18.1387a.8746.8746,0,0,0,1.666-.5332c-.0439-.1387-4.4346-13.8936-5.3037-17.9707A.87.87,0,0,0,345.2094,335.195Z" style="fill: #aa6f5b"/>
      <path d="M336.6784,382c.1462-8.4226,1.2881-17.37,4.9763-21.9417a4.8716,4.8716,0,0,1,3.0938-2.0273c1.1377-.1094,2.5771.5254,4.0605,1.81,3.6489,3.16,7.9441,10.6173,9.7947,22.1594h1.78c-1.8665-12.1122-6.3411-19.9418-10.4287-23.4817-1.88-1.6289-3.7344-2.3984-5.3877-2.2275a6.5443,6.5443,0,0,0-4.2744,2.6689c-1.78,2.2053-5.1436,8.3076-5.4181,23.04Z" style="fill: #aa6f5b"/>
      <path d="M344.8178,369.6208a2.2567,2.2567,0,0,1,1.5928-1.0352c1.6416-.17,3.0928,1.0313,4.2852,3.5879A34.56,34.56,0,0,1,353.123,382h1.7981c-.6338-5.0378-1.7885-9.6183-3.6433-12.3645-1.3916-2.06-3.0859-2.9922-5.0527-2.79a3.9547,3.9547,0,0,0-2.8193,1.7432c-1.6122,2.2058-2.3962,6.7046-2.3607,13.4114h1.734C342.727,374.51,343.73,371.11,344.8178,369.6208Z" style="fill: #aa6f5b"/>
      <path d="M352.1889,317.8c1.5332,10.32,3.8926,18.0547,6.3906,26.2432,1.4618,4.7908,2.9907,9.8029,4.42,15.6431v-6.88c-.9153-3.2681-1.8436-6.314-2.7466-9.2737-2.4785-8.124-4.82-15.7979-6.334-25.99-2.31-15.5469-1.84-26.2334-1.4268-35.6621a155.083,155.083,0,0,0,.1387-16.3516.8589.8589,0,0,0-.9248-.8213.8736.8736,0,0,0-.8213.9248,153.8844,153.8844,0,0,1-.1406,16.1719C350.3276,291.3112,349.8549,302.0866,352.1889,317.8Z" style="fill: #aa6f5b"/>
      <path d="M356.8871,289.11a.875.875,0,0,0-1.75,0c0,7.5352,1.4424,19.3271,3.7656,30.7725,1.2739,6.2769,2.6935,11.6674,4.0972,16.8115V329.87c-.8235-3.2272-1.6294-6.6267-2.3823-10.3356C358.3168,308.195,356.8871,296.5368,356.8871,289.11Z" style="fill: #aa6f5b"/>
      <path d="M359.0073,264.7058a.8758.8758,0,0,0-.8486.9014A372.4721,372.4721,0,0,0,363,310.0713V298.4282c-2.6353-19.1889-3.0851-32.6638-3.0913-32.8738A.867.867,0,0,0,359.0073,264.7058Z" style="fill: #aa6f5b"/>
      <path d="M325.5287,322.3415c.0156.001.0313.001.0469.001a.8752.8752,0,0,0,.873-.8291c.7607-14.5654-.0625-32.8906-2.5186-56.0254a.875.875,0,1,0-1.74.1855c2.4453,23.041,3.2676,41.2764,2.5107,55.748A.8756.8756,0,0,0,325.5287,322.3415Z" style="fill: #aa6f5b"/>
      <path d="M277.8334,326.6c.0186.001.0371.002.0557.002a.8749.8749,0,0,0,.8721-.82c.9775-15.4746.0117-59.7744.002-60.2207a.8752.8752,0,0,0-.875-.8555h-.02a.875.875,0,0,0-.8555.8945c.01.4443.9746,44.67.002,60.0723A.875.875,0,0,0,277.8334,326.6Z" style="fill: #aa6f5b"/>
      <path d="M273.1772,356.2624a.8748.8748,0,0,0,1.0557-.6455c.1172-.4873,2.8516-12.0459,1.0654-21.9385-1.7422-9.6387-2.0937-67.52-2.0967-68.1025a.875.875,0,0,0-.875-.87h-.0049a.8748.8748,0,0,0-.87.88c.0137,2.3887.3555,58.6172,2.124,68.4033,1.7207,9.5244-1.0166,21.1025-1.0439,21.2178A.8745.8745,0,0,0,273.1772,356.2624Z" style="fill: #aa6f5b"/>
      <path d="M267.1752,265.5808a.875.875,0,0,0-1.75,0c0,17.7686,1.1045,30.4678,2.3838,45.1709.3311,3.8057.6758,7.7754,1.0215,12.0371a.875.875,0,0,0,.8711.8047c.0234,0,.0479-.001.0713-.0029a.8744.8744,0,0,0,.8018-.9424c-.3457-4.2666-.6914-8.2393-1.0225-12.0479C268.2768,295.9372,267.1752,283.2731,267.1752,265.5808Z" style="fill: #aa6f5b"/>
      <path d="M105,272.6193a25.5976,25.5976,0,0,0,1.5688-6.9877.8608.8608,0,0,0-1.5688-.55Z" style="fill: #aa6f5b"/>
      <path d="M107.9262,382h1.7783c-2.88-15.5486-2.9268-27.6763-2.9609-38.469-.0127-3.8711-.0244-7.5273-.1738-11.0352A120.0735,120.0735,0,0,0,105,318.37V345.298C105.0412,355.6512,105.23,367.2941,107.9262,382Z" style="fill: #aa6f5b"/>
      <path d="M111.4653,264.7067a.8728.8728,0,0,0-.9238.8242c-.2,3.5107-1.5918,7.14-3.0645,10.9814-.8857,2.31-1.7821,4.6534-2.4771,7.0768v17.8041c.72,3.4948,1.637,7.0731,2.5425,10.5848a120.6475,120.6475,0,0,1,3.4473,16.251,170.6132,170.6132,0,0,1,.4912,17.66,209.8122,209.8122,0,0,0,.6426,21.498A102.3706,102.3706,0,0,0,114.8747,382h1.7981a100.6971,100.6971,0,0,1-2.8091-14.79,208.6151,208.6151,0,0,1-.6328-21.3135,171.9934,171.9934,0,0,0-.501-17.8564,123.8777,123.8777,0,0,0-3.4932-16.499c-1.5381-5.9668-3.1289-12.1367-3.6562-17.6533-.5771-6.0371,1.5107-11.4824,3.53-16.749,1.5234-3.9727,2.9619-7.7246,3.1787-11.5078A.8764.8764,0,0,0,111.4653,264.7067Z" style="fill: #aa6f5b"/>
      <path d="M110.5346,281.2116a.8752.8752,0,1,0,.7773,1.5684c3.4736-1.7207,8.66,2,8.7119,2.0381a.8751.8751,0,0,0,1.2461-1.1875c-2.1768-3.3193-2.7783-10.2715-3.3086-16.4062l-.1514-1.7217a.8746.8746,0,0,0-1.7422.1563l.1494,1.7168c.4365,5.0459.92,10.6279,2.3184,14.5557C116.3715,280.8893,113.19,279.8952,110.5346,281.2116Z" style="fill: #aa6f5b"/>
      <path d="M114.8129,303.9479a5.1144,5.1144,0,0,0,.9541-.0908c3.9287-.748,5.8457-2.0312,6.8174-7.6543a10.2013,10.2013,0,0,0-2.3223-8.18,7.6227,7.6227,0,0,0-5.6406-2.9824,6.8605,6.8605,0,0,0-5.3105,2.167c-1.5215,1.71-2.1338,4.251-1.7725,7.3506.4229,3.623,1.9541,6.7236,4.0957,8.2959A5.333,5.333,0,0,0,114.8129,303.9479Zm-5.5361-9.5928c-.2979-2.5518.1787-4.6768,1.3418-5.9834a5.1,5.1,0,0,1,4.0029-1.5811,5.9825,5.9825,0,0,1,4.3018,2.3594,8.4327,8.4327,0,0,1,1.9365,6.7539c-.8447,4.8926-2.2285,5.626-5.4209,6.2344a3.4545,3.4545,0,0,1-2.7686-.6953C110.9389,300.1735,109.6391,297.4567,109.2768,294.3552Z" style="fill: #aa6f5b"/>
      <path d="M115.0444,300.5944a5.4863,5.4863,0,0,0,.8193-.0645c1.6846-.2588,2.8984-1.7383,3.248-3.959.4443-2.8213-.5527-6.4687-2.9893-7.6885a.8748.8748,0,1,0-.7832,1.5645c1.6436.8232,2.3838,3.69,2.0439,5.8516-.1084.6865-.498,2.3037-1.7852,2.501a2.0779,2.0779,0,0,1-1.7617-.3525c-1.0332-.8994-1.1318-3.3281-1.1016-5.3437a.8749.8749,0,0,0-.8623-.8877H111.86a.8753.8753,0,0,0-.875.8623c-.0391,2.67.14,5.3281,1.7012,6.6885A3.4694,3.4694,0,0,0,115.0444,300.5944Z" style="fill: #aa6f5b"/>
      <path d="M116.2514,311.5778a.8735.8735,0,0,0,1.1172-.5312,2.9714,2.9714,0,0,0-.5117-3.26,4.4244,4.4244,0,0,0-4.2568-.85,2.1138,2.1138,0,0,0-1.6055,1.6055c-.1484.999.3848,2.1816,1.1221,3.8174a22.6127,22.6127,0,0,1,2.0947,6.4209.8753.8753,0,0,0,1.7363-.2227,24.037,24.037,0,0,0-2.2354-6.917,9.0275,9.0275,0,0,1-.998-2.8066,2.6454,2.6454,0,0,1,2.4785-.1113c.4551.2188.9258.6133.5273,1.7373A.874.874,0,0,0,116.2514,311.5778Z" style="fill: #aa6f5b"/>
      <path d="M122.7377,265.4685a.8754.8754,0,0,0-1.7363.2246,78.1038,78.1038,0,0,0,2.4668,10.8584c1.6816,6.0381,3.27,11.7412,2.2725,17.8018a123.9516,123.9516,0,0,1-3.6016,14.1553c-1.7861,6.0518-3.4736,11.7676-3.8047,16.5107-.4619,6.6182-.5625,16.6055-.3076,30.5313.14,7.6563,1.0292,14.4489,3.59,26.4495h1.7893c-2.5947-12.1056-3.49-18.8716-3.6292-26.4807-.2549-13.875-.1553-23.8115.3037-30.3789.3174-4.5518,1.9785-10.1787,3.7373-16.1367a125.2174,125.2174,0,0,0,3.6494-14.3672c1.06-6.4414-.6553-12.6-2.3135-18.5547A76.6984,76.6984,0,0,1,122.7377,265.4685Z" style="fill: #aa6f5b"/>
      <path d="M124.5258,320.5768a.888.888,0,0,0,.3027.0537.8765.8765,0,0,0,.8213-.5723c9.583-25.98,7.3545-35.8516,5.5625-43.7832a38.6126,38.6126,0,0,1-1.2559-8.5586.875.875,0,0,0-1.75.0117,39.9975,39.9975,0,0,0,1.2988,8.9316c1.8311,8.1084,3.9072,17.2988-5.498,42.793A.8763.8763,0,0,0,124.5258,320.5768Z" style="fill: #aa6f5b"/>
      <path d="M134.6664,279.152a.8752.8752,0,0,0,.873-.8291,102.3014,102.3014,0,0,1,1.3916-12.5762.8753.8753,0,1,0-1.7187-.332,104.4628,104.4628,0,0,0-1.4209,12.8164.875.875,0,0,0,.8281.92C134.6352,279.152,134.6508,279.152,134.6664,279.152Z" style="fill: #aa6f5b"/>
      <path d="M129.6274,313.7624c-3.8027,12.001-7.0869,22.3662-6.5156,39.9082.2913,8.9424,1.9352,18.6555,3.8191,28.3293h1.7833c-1.8976-9.7141-3.5629-19.4672-3.8524-28.386-.5625-17.2432,2.68-27.4746,6.4336-39.3223.5342-1.6875,1.082-3.4141,1.6318-5.2031,4.5059-14.64,7.7666-34.8711,7.7666-41.3662a.875.875,0,0,0-1.75,0c0,6.3887-3.2285,26.3574-7.6885,40.8516C130.7055,310.3581,130.1606,312.08,129.6274,313.7624Z" style="fill: #aa6f5b"/>
      <path d="M143.7221,264.7077a.8594.8594,0,0,0-.9238.8223c-.6924,11.8516-2.0645,28.9961-5.98,40.9922l-.5508,1.6826c-3.7275,11.37-9.3613,28.5527-8.6807,45.2871.3018,7.4141,2.0625,16.5605,4.1016,27.1514.0864.4486.1738.9045.2609,1.3567H133.73c-.1084-.5637-.2172-1.13-.3246-1.6877-2.0254-10.5215-3.7744-19.6084-4.0713-26.8906-.668-16.4189,4.9072-33.4209,8.5957-44.6719l.5518-1.6846c3.9785-12.1885,5.3652-29.4844,6.0625-41.4336A.8736.8736,0,0,0,143.7221,264.7077Z" style="fill: #aa6f5b"/>
      <path d="M137.5991,321.6413c-4.6311,15.9125-5.0508,35.6653-1.292,60.3586h1.7694c-3.7642-24.5607-3.3724-44.1495,1.2023-59.87,1.1279-3.876,2.3008-7.5684,3.4346-11.14,4.5107-14.2061,8.4072-26.4756,7.6445-43.3076a.8749.8749,0,0,0-1.748.08c.748,16.52-3.1035,28.6514-7.5645,42.6982C139.9086,314.0417,138.7328,317.7438,137.5991,321.6413Z" style="fill: #aa6f5b"/>
      <path d="M157.5707,264.7058a.8748.8748,0,0,0-.875.875c0,9.1338,0,14.6475-6.4707,35.7725-5.6328,18.3867-11.915,42.0908-10.49,62.35.3978,5.6506,1.2295,11.8826,2.2339,18.2971H143.74c-1.0171-6.469-1.86-12.75-2.2593-18.42-1.4053-19.9707,4.8291-43.4717,10.418-61.7148,6.5469-21.375,6.5469-26.9863,6.5469-36.2842A.8748.8748,0,0,0,157.5707,264.7058Z" style="fill: #aa6f5b"/>
      <path d="M145.4536,356.3483c.0732,3.7559,1.3506,12.4434,2.9678,23.4424.1066.725.2151,1.4641.3245,2.2092h1.769c-.1221-.832-.2434-1.6567-.3621-2.4641-1.5439-10.5039-2.8779-19.5762-2.9492-23.2227-.1963-10.0088,4.125-26.9365,8.957-44.8721,4.3291-16.0645,8.2471-32.7441,7.61-45.9023a.875.875,0,1,0-1.748.084c.626,12.917-3.26,29.4365-7.5518,45.3633C149.6049,329.0485,145.2534,346.1091,145.4536,356.3483Z" style="fill: #aa6f5b"/>
      <path d="M161.1284,316.0378c.69-2.4814,1.374-4.9355,2.0215-7.3506,5.1367-19.1514,7.3281-32.043,7.3281-43.1064a.875.875,0,0,0-1.75,0c0,10.9014-2.1738,23.6582-7.2676,42.6533-.6465,2.4092-1.3291,4.8584-2.0186,7.334-3.6221,13.0117-7.3691,26.4648-7.42,38.9961-.0276,6.8151,1.18,16.6851,2.6237,27.4358h1.7661c-1.449-10.7786-2.6667-20.6746-2.64-27.428C153.8217,342.2761,157.5366,328.9372,161.1284,316.0378Z" style="fill: #aa6f5b"/>
      <path d="M161.7387,373.81c-.6318-5.27-1.1787-9.8213-1.5225-13.22-1.0107-10.0039,2.5215-26.1484,6.4893-42.1055,1.0537-4.2383,2.2891-8.5742,3.4844-12.7676,3.6074-12.6533,7.3369-25.7383,7.4385-40.1309a.8755.8755,0,0,0-.8691-.8809h-.0059a.8748.8748,0,0,0-.875.8691c-.1,14.1533-3.7959,27.1221-7.3711,39.6631-1.1992,4.207-2.4395,8.5576-3.501,12.8252-4.0049,16.11-7.5684,32.4336-6.53,42.7031.3447,3.415.8916,7.9736,1.5254,13.2529.3027,2.5225.6241,5.2056.95,7.9807h1.7616C162.3787,379.15,162.049,376.3962,161.7387,373.81Z" style="fill: #aa6f5b"/>
      <path d="M177.9428,289.9118a.879.879,0,0,0-1.0039.7227c-.8779,5.4072-2.8457,13.9551-4.748,22.2217-1.6045,6.9727-3.1211,13.56-3.8437,17.6738-.5078,2.8838-1.0723,5.7061-1.6182,8.4355-1.5264,7.626-2.9668,14.8281-2.82,21.7314a.8761.8761,0,0,0,.875.8564h.0186a.8756.8756,0,0,0,.8564-.8936c-.1436-6.7109,1.2793-13.8223,2.7861-21.3506.5479-2.7393,1.1152-5.5723,1.625-8.4766.7158-4.0693,2.2266-10.6338,3.8262-17.584,1.9092-8.2939,3.8828-16.87,4.77-22.333A.8738.8738,0,0,0,177.9428,289.9118Z" style="fill: #aa6f5b"/>
      <path d="M179.5834,305.5749a322.4476,322.4476,0,0,1-6.45,33.85c-2.1035,9.1406-3.92,17.0352-4.207,22.8779-.2759,5.6088-.4734,12.2686-.1931,19.6975h1.7513c-.2815-7.3958-.0846-14.0281.19-19.6116.2793-5.6875,2.08-13.5117,4.1641-22.5723a323.2038,323.2038,0,0,0,6.4814-34.03l.4414-3.6221c2.252-18.4746,3.0947-25.3877,2.7217-36.6123a.8758.8758,0,0,0-.874-.8457h-.03a.8751.8751,0,0,0-.8447.9043c.3691,11.0889-.47,17.9648-2.71,36.3418Z" style="fill: #aa6f5b"/>
      <path d="M189.3315,264.7058h-.0039a.8746.8746,0,0,0-.875.8711c-.1543,32.7783-3.6279,60.6279-10.6182,85.1406a.8762.8762,0,0,0,.6016,1.082.89.89,0,0,0,.24.0332.8766.8766,0,0,0,.8418-.6348c7.0342-24.6689,10.5293-52.6729,10.6846-85.6133A.8748.8748,0,0,0,189.3315,264.7058Z" style="fill: #aa6f5b"/>
      <path d="M176.978,360.8015a.8749.8749,0,0,0-1.7324-.2461A139.9223,139.9223,0,0,0,173.8876,382h1.75A138.1526,138.1526,0,0,1,176.978,360.8015Z" style="fill: #aa6f5b"/>
      <path d="M194.08,264.7058a.9115.9115,0,0,0-.8936.8564c-.0254,1.2041-.0449,2.9531-.0684,5.124-.1553,14.3193-.52,47.8535-4.4385,62.7344-1.042,3.9521-2.1719,7.7051-3.2646,11.334C181.92,356.36,178.6212,367.3591,179.1207,382h1.7523c-.5-14.3892,2.762-25.2654,6.2173-36.7415,1.0977-3.6426,2.2314-7.41,3.28-11.3926,3.9756-15.09,4.3408-48.7764,4.4971-63.1611.0234-2.1631.043-3.9062.0684-5.1055A.8756.8756,0,0,0,194.08,264.7058Z" style="fill: #aa6f5b"/>
      <path d="M198.8823,264.7058h-.001a.8754.8754,0,0,0-.874.876c.0078,7.3682-.167,15.1484-.335,22.6729-.1689,7.5547-.3437,15.3652-.3437,22.959,0,16.584-2.6924,31.7422-7.2012,40.5488-3.53,6.8926-5.54,18.0364-5.6473,30.2375h1.77c.1287-11.8853,2.0789-22.8879,5.4351-29.4407,4.63-9.041,7.3936-24.498,7.3936-41.3457,0-7.5742.1748-15.375.3428-22.92.1689-7.5342.3438-15.3252.3359-22.7139A.8746.8746,0,0,0,198.8823,264.7058Z" style="fill: #aa6f5b"/>
      <path d="M203.0483,318.09c0,4.2891-.1045,8.1914-.1963,11.6357-.2783,10.3906-.4785,17.8984,2.2129,26.043A67.3255,67.3255,0,0,1,208.1613,382h1.7646a69.0068,69.0068,0,0,0-3.199-26.7805c-2.5957-7.8545-2.3984-15.2344-2.126-25.4482.0928-3.4541.1973-7.3691.1973-11.6816,0-7.2705.1934-15.9316.3809-24.3086.25-11.1514.4854-21.6846.26-28.23a.8432.8432,0,0,0-.9043-.8437.8743.8743,0,0,0-.8437.9043c.2227,6.4961-.0127,17.0049-.2607,28.1309C203.2426,302.1286,203.0483,310.8,203.0483,318.09Z" style="fill: #aa6f5b"/>
      <path d="M208.3793,322.7438a.8748.8748,0,0,0,.875.85h.0254a.8758.8758,0,0,0,.85-.9c-.333-11.6387.08-23.1094.4785-34.2021.2969-8.2578.5771-16.0566.49-22.9209a.8412.8412,0,0,0-.8857-.8643.8755.8755,0,0,0-.8643.8857c.0859,6.8223-.1934,14.6006-.4893,22.8369C208.4594,299.5485,208.0453,311.0485,208.3793,322.7438Z" style="fill: #aa6f5b"/>
      <path d="M210.1293,332.1335a.8964.8964,0,0,0-.9033-.8467.8765.8765,0,0,0-.8467.9033c.0137.415.0215.8994.0293,1.4531a81.4171,81.4171,0,0,0,3.751,24.3291c2.29,7.4824,2.5236,15.9844,1.6382,24.0276h1.7534c.8832-8.2056.6257-16.88-1.7178-24.5393a79.763,79.763,0,0,1-3.6748-23.8428C210.15,333.0524,210.143,332.5573,210.1293,332.1335Z" style="fill: #aa6f5b"/>
      <path d="M199.16,339.7614a.87.87,0,0,0-.94.8037c-.0254.3125-.5859,7.7266,1.0693,13.2363a.875.875,0,1,0,1.6758-.5039c-1.56-5.1914-1.0068-12.5215-1.001-12.5957A.8743.8743,0,0,0,199.16,339.7614Z" style="fill: #aa6f5b"/>
      <path d="M198.0786,356.8747c-5.3057.8789-8.2451,8.2959-8.7363,22.0469-.0371,1.0383-.0326,2.0641-.0059,3.0784h1.7483c-.0255-.9817-.0312-1.9824.0056-3.0159.4512-12.6211,2.9668-19.67,7.2734-20.3828a1.8934,1.8934,0,0,1,.31-.0264,1.6062,1.6062,0,0,1,1.0859.4326c1.542,1.3311,3.3232,6.09,3.05,21.1982-.0112.62-.03,1.2131-.0532,1.7942h1.7515c.0223-.5725.0408-1.1566.0518-1.7629.2324-12.8516-.9639-20.2295-3.6562-22.5547A3.3623,3.3623,0,0,0,198.0786,356.8747Z" style="fill: #aa6f5b"/>
      <path d="M196.3041,367.53c.1953-.4521.6006-1.2246,1.1309-1.3076a.9159.9159,0,0,1,.9014.292c1.7754,1.9482.7275,10.6123-.3574,14.916a.8582.8582,0,0,0,.0637.57h1.5649a.8134.8134,0,0,0,.0686-.1418c.0322-.1289,3.06-13.1143-.0469-16.5225a2.6355,2.6355,0,0,0-2.4639-.8418,3.4159,3.4159,0,0,0-2.4687,2.3457c-1.3608,3.1669-1.501,9.47-.8958,15.16h1.761C194.9775,376.5434,195.0693,370.405,196.3041,367.53Z" style="fill: #aa6f5b"/>
      <path d="M216.0092,265.5808a.875.875,0,0,0-1.75,0c0,12.4717-.4668,20.5723-.8789,27.72a206.8538,206.8538,0,0,0,.125,32.8184,131.7636,131.7636,0,0,0,4.0225,23.792c2.0137,8.1689,3.6035,14.6211,2.4863,27.7295-.1289,1.5139-.2843,2.96-.457,4.36h1.7622c.1646-1.3549.3145-2.75.439-4.2112,1.1416-13.3955-.5605-20.3008-2.5312-28.2969a130.3062,130.3062,0,0,1-3.9775-23.5078,205.4918,205.4918,0,0,1-.1221-32.583C215.54,286.23,216.0092,278.1032,216.0092,265.5808Z" style="fill: #aa6f5b"/>
      <path d="M224.44,264.7058h-.0029a.8742.8742,0,0,0-.875.8721,161.7328,161.7328,0,0,1-1.8584,20c-1.3418,10.1143-2.8623,21.5781-2.2822,34.2178a140.9494,140.9494,0,0,0,3.8076,25.7012c1.6924,7.7275,3.292,15.0264,3.292,24.626A78.3739,78.3739,0,0,1,225.5434,382h1.7705a79.7279,79.7279,0,0,0,.957-11.8772c0-9.7891-1.6191-17.1777-3.333-25.001a139.5522,139.5522,0,0,1-3.7686-25.4062c-.5732-12.4844.9365-23.8662,2.27-33.9082a162.988,162.988,0,0,0,1.873-20.2236A.8754.8754,0,0,0,224.44,264.7058Z" style="fill: #aa6f5b"/>
      <path d="M225.0024,299.8884a.8814.8814,0,0,0-.9072.8408c-.2021,5.2852.3613,26.8555,3.1455,38.31a.8767.8767,0,0,0,.85.668.8959.8959,0,0,0,.208-.0244.8762.8762,0,0,0,.6436-1.0576c-2.7441-11.2871-3.2979-32.6016-3.0986-37.8291A.8744.8744,0,0,0,225.0024,299.8884Z" style="fill: #aa6f5b"/>
      <path d="M229.7993,277.92c-.0068-4.4531-.0137-8.3-.1484-12.3682a.8888.8888,0,0,0-.9033-.8457.8766.8766,0,0,0-.8457.9043c.1338,4.04.1406,7.874.1475,12.3125.0107,7.1846.0244,16.127.6426,29.4668.4219,9.1162,1.2666,16.2949,2.084,23.2363,1.0723,9.1045,2.085,17.7031,1.8594,29.1094A156.676,156.676,0,0,1,230.24,382h1.7749a157.2045,157.2045,0,0,0,2.37-22.23c.2275-11.5264-.792-20.1836-1.8711-29.3486-.8135-6.9121-1.6553-14.0586-2.0742-23.1123C229.8237,294.0075,229.81,285.0876,229.7993,277.92Z" style="fill: #aa6f5b"/>
      <path d="M238.725,265.569a.92.92,0,0,0-.8867-.8633.8755.8755,0,0,0-.8633.8867c.0029.2246.3262,22.65,1.7773,40.16.6377,7.6816,1.6865,16.0156,2.7021,24.0762,1.2676,10.0635,2.5781,20.4707,3.0166,29.2275A93.8347,93.8347,0,0,1,242.4016,382h1.7837a94.6615,94.6615,0,0,0,2.0339-23.0315c-.4424-8.8232-1.7568-19.2627-3.0283-29.3584-1.0127-8.042-2.0605-16.3584-2.6943-24.002C239.05,288.1589,238.728,265.7927,238.725,265.569Z" style="fill: #aa6f5b"/>
      <path d="M233.9907,265.5671a.8413.8413,0,0,0-.8887-.8613.8755.8755,0,0,0-.8613.8887c.0039.2559.4248,25.8057,1.79,46.6943.4756,7.2666,1.2979,14.2539,2.0928,21.0117,1.5068,12.8047,2.93,24.8994,1.6465,36.3545-.4395,3.9143-1.1084,8.09-1.8732,12.345h1.7789c.7472-4.18,1.3993-8.2845,1.8325-12.15,1.3066-11.6553-.1279-23.8467-1.6465-36.7549-.793-6.7354-1.6123-13.6992-2.085-20.92C234.4145,291.33,233.9946,265.822,233.9907,265.5671Z" style="fill: #aa6f5b"/>
      <path d="M243.602,264.7067a.8433.8433,0,0,0-.9062.8418,293.3575,293.3575,0,0,0,1.8691,40.9668c.5146,4.8984,1.1924,10.1318,1.9111,15.6729,1.7139,13.2266,3.6563,28.2168,3.5166,41.0732A151.7706,151.7706,0,0,1,248.54,382h1.7664a153.08,153.08,0,0,0,1.4363-18.719c.1406-12.9795-1.8105-28.0352-3.5312-41.3174-.7168-5.53-1.3936-10.7539-1.9062-15.6318a291.8012,291.8012,0,0,1-1.8613-40.7187A.8737.8737,0,0,0,243.602,264.7067Z" style="fill: #aa6f5b"/>
      <path d="M249.5727,265.5681a.8747.8747,0,0,0-.875-.8623h-.0127a.8755.8755,0,0,0-.8623.8877c.0029.1748.2793,17.6836,1.8906,38.3047.6445,8.252,1.7275,17.5791,2.7764,26.5986,1.5664,13.48,3.1855,27.4189,3.4209,38.3486A88.3,88.3,0,0,1,254.9672,382h1.766a89.2032,89.2032,0,0,0,.9274-13.1917c-.2373-11.0127-1.8613-24.9932-3.4326-38.5127-1.0469-9.0039-2.1279-18.3145-2.7705-26.5342C249.851,283.1979,249.5756,265.7419,249.5727,265.5681Z" style="fill: #aa6f5b"/>
      <path d="M254.0239,264.7058a.8748.8748,0,0,0-.875.875c0,17.0488,2.2832,38.5156,4.4912,59.2764,1.4629,13.7549,2.8447,26.7471,3.3994,37.165A117.1543,117.1543,0,0,1,260.4866,382H262.25a119.0057,119.0057,0,0,0,.5371-20.0715c-.5576-10.4629-1.9414-23.4775-3.4072-37.2559-2.2031-20.7158-4.4814-42.1367-4.4814-59.0918A.8748.8748,0,0,0,254.0239,264.7058Z" style="fill: #aa6f5b"/>
      <path d="M260.144,265.5583a.84.84,0,0,0-.8975-.8525.8764.8764,0,0,0-.8525.8975c.6064,24.0566,2.5859,41.1846,4.5,57.748.57,4.9414,1.1094,9.6094,1.6143,14.4561l.2773,2.6611c1.6406,15.6738,2.9087,27.8953,1.4353,41.5315h1.76c1.4622-13.72.19-25.9944-1.4546-41.7131l-.2783-2.6611c-.5049-4.8564-1.0449-9.5283-1.6162-14.4746C262.7231,306.6257,260.7485,289.5368,260.144,265.5583Z" style="fill: #aa6f5b"/>
      <path d="M219.5063,264.7058h-.001a.8748.8748,0,0,0-.874.876c.0078,5.126-.792,12.5264-.8008,12.6006a.876.876,0,0,0,.7754.9648c.0322.0029.0645.0049.0957.0049a.8757.8757,0,0,0,.8691-.78c.0078-.0752.8184-7.5693.8105-12.792A.8752.8752,0,0,0,219.5063,264.7058Z" style="fill: #aa6f5b"/>
    </g>
    <rect id="_Rectangle_8" data-name="&lt;Rectangle&gt;" x="105" y="253.8307" width="258" height="20.2816" style="opacity: 0.05"/>
    <rect id="_Rectangle_9" data-name="&lt;Rectangle&gt;" x="97.25" y="253.8307" width="273.5" height="11.4123" rx="5.7061" ry="5.7061" style="fill: #b77d67"/>
    <path d="M365.0439,253.8307H102.9561a5.7061,5.7061,0,0,0-5.7062,5.7061h0a5.6721,5.6721,0,0,0,.8589,3,5.6969,5.6969,0,0,1,4.8473-2.7061H365.0439a5.6963,5.6963,0,0,1,4.8472,2.7061,5.67,5.67,0,0,0,.8589-3h0A5.7061,5.7061,0,0,0,365.0439,253.8307Z" style="fill: #c18674"/>
    <g>
      <path id="_Path_15" data-name="&lt;Path&gt;" d="M271.21,121.6857a16.9069,16.9069,0,1,1-27.1082,0l.65-.836a16.9935,16.9935,0,0,1,1.9914-1.9913l9.1766-9.1767a2.4546,2.4546,0,0,1,3.4713,0l9.1766,9.1767A16.9935,16.9935,0,0,1,270.56,120.85Z" style="fill: #96d7ea"/>
      <path d="M257.66,122.16a10.0848,10.0848,0,0,0-3.6771.6989,3.76,3.76,0,1,1-5.4863,5.1371,10.1215,10.1215,0,1,0,9.1635-5.836Z" style="fill: #b2e2ed"/>
      <circle id="_Path_16" data-name="&lt;Path&gt;" cx="267.1928" cy="129.5815" r="3.7678" style="fill: #fff"/>
    </g>
    <g id="_Group_" data-name="&lt;Group&gt;">
      <circle id="_Path_17" data-name="&lt;Path&gt;" cx="336.2391" cy="134.0306" r="26.4167" style="fill: #fff;stroke: #4b9caf;stroke-miterlimit: 10;stroke-width: 5px"/>
      <circle id="_Path_18" data-name="&lt;Path&gt;" cx="336.2391" cy="134.0306" r="18.3844" style="fill: #edebeb"/>
      <circle id="_Path_19" data-name="&lt;Path&gt;" cx="336.2391" cy="134.0306" r="8.121" style="fill: #e2e0e0"/>
      <line id="_Path_20" data-name="&lt;Path&gt;" x1="336.2391" y1="134.6094" x2="343.5508" y2="142.5608" style="fill: none;stroke: #4b9caf;stroke-linecap: round;stroke-linejoin: round;stroke-width: 4px"/>
      <line id="_Path_21" data-name="&lt;Path&gt;" x1="336.2391" y1="125.5004" x2="336.2391" y2="134.6094" style="fill: none;stroke: #4b9caf;stroke-linecap: round;stroke-linejoin: round;stroke-width: 4px"/>
    </g>
    <path id="_Rectangle_10" data-name="&lt;Rectangle&gt;" d="M132.4344,208.1645H152.748a5.351,5.351,0,0,1,5.351,5.351v40.3152a0,0,0,0,1,0,0H127.0833a0,0,0,0,1,0,0V213.5155A5.351,5.351,0,0,1,132.4344,208.1645Z" style="fill: #aa7065"/>
    <path id="_Rectangle_11" data-name="&lt;Rectangle&gt;" d="M132.0828,208.1645h17.0754a4.9995,4.9995,0,0,1,4.9995,4.9995v40.6667a0,0,0,0,1,0,0H127.0833a0,0,0,0,1,0,0V213.164A4.9995,4.9995,0,0,1,132.0828,208.1645Z" style="fill: #b77d67"/>
    <polygon id="_Path_22" data-name="&lt;Path&gt;" points="122.167 253.831 142.591 253.831 142.591 230.957 136.239 230.957 122.167 253.831" style="fill: #a06657"/>
    <rect id="_Rectangle_12" data-name="&lt;Rectangle&gt;" x="61.6667" y="303.9732" width="43.3333" height="78.0268" style="fill: #515151"/>
    <path id="_Rectangle_13" data-name="&lt;Rectangle&gt;" d="M62.0238,303.9732H105a0,0,0,0,1,0,0v13.9982a0,0,0,0,1,0,0H62.0238a4.3441,4.3441,0,0,1-4.3441-4.3441v-5.31A4.3441,4.3441,0,0,1,62.0238,303.9732Z" style="fill: #3f3f3f"/>
    <path id="_Rectangle_14" data-name="&lt;Rectangle&gt;" d="M61.3264,303.9732H105a0,0,0,0,1,0,0v9.8644a0,0,0,0,1,0,0H61.3264a3.6467,3.6467,0,0,1-3.6467-3.6467V307.62A3.6467,3.6467,0,0,1,61.3264,303.9732Z" style="fill: #474747"/>
    <rect id="_Rectangle_15" data-name="&lt;Rectangle&gt;" x="169.6667" y="172" width="120.6667" height="81.8307" rx="8.8011" ry="8.8011" style="fill: #e3e3e3"/>
    <path id="_Path_23" data-name="&lt;Path&gt;" d="M240.2735,214.0891a6.6388,6.6388,0,0,1-3.2495-10.2463,10.4027,10.4027,0,1,0,5.2715,10.5847A6.6347,6.6347,0,0,1,240.2735,214.0891Z" style="fill: #b2b2b2"/>
    <path d="M228.986,209.6513a10.3163,10.3163,0,0,1,6.4592-6.5088c-.0374-.0129-.0718-.03-.1094-.0425a10.344,10.344,0,1,0,.0923,19.5883A10.3409,10.3409,0,0,1,228.986,209.6513Z" style="fill: #bfbfbf"/>
    <path d="M281.5323,172h-5.875a8.8011,8.8011,0,0,1,8.8011,8.801V245.03a8.8011,8.8011,0,0,1-8.8011,8.801h5.875a8.8011,8.8011,0,0,0,8.8011-8.801V180.801A8.8011,8.8011,0,0,0,281.5323,172Z" style="fill: #dbdbdb"/>
    <g id="_Group_2" data-name="&lt;Group&gt;" style="opacity: 0.30000000000000004">
      <rect id="_Rectangle_16" data-name="&lt;Rectangle&gt;" x="165.6765" y="227.575" width="30.7653" height="6.1654" rx="3.0827" ry="3.0827" transform="translate(-49.5985 411.7169) rotate(-90)" style="fill: #fff"/>
      <rect id="_Rectangle_17" data-name="&lt;Rectangle&gt;" x="177.7852" y="203.8962" width="6.5478" height="6.1654" rx="3.0827" ry="3.0827" transform="translate(-25.9198 388.0381) rotate(-90)" style="fill: #fff"/>
    </g>
    <rect id="_Rectangle_18" data-name="&lt;Rectangle&gt;" x="69.75" y="325" width="9.8333" height="48.3333" rx="4.9167" ry="4.9167" style="fill: #474747"/>
    <rect id="_Rectangle_19" data-name="&lt;Rectangle&gt;" x="87.5" y="325" width="9.8333" height="48.3333" rx="4.9167" ry="4.9167" style="fill: #474747"/>
    <g>
      <path id="_Rectangle_20" data-name="&lt;Rectangle&gt;" d="M338.3958,222.8727h6.2691a2.2934,2.2934,0,0,1,2.2934,2.2934v.9555A8.1385,8.1385,0,0,1,338.82,234.26h-.424a0,0,0,0,1,0,0V222.8727A0,0,0,0,1,338.3958,222.8727Z" style="fill: #e5e5e5"/>
      <path id="_Rectangle_21" data-name="&lt;Rectangle&gt;" d="M308.9381,217.6916h26.9572a2.7714,2.7714,0,0,1,2.7714,2.7714v12.9341a15.59,15.59,0,0,1-15.59,15.59h-1.3192a15.59,15.59,0,0,1-15.59-15.59V220.4629A2.7714,2.7714,0,0,1,308.9381,217.6916Z" style="fill: #f4f4f4"/>
      <path id="_Rectangle_22" data-name="&lt;Rectangle&gt;" d="M301.3333,246.93H343.5a0,0,0,0,1,0,0v0a6.9011,6.9011,0,0,1-6.9011,6.9011H308.2345a6.9011,6.9011,0,0,1-6.9011-6.9011v0a0,0,0,0,1,0,0Z" style="fill: #e5e5e5"/>
      <g id="_Group_3" data-name="&lt;Group&gt;">
        <rect id="_Rectangle_23" data-name="&lt;Rectangle&gt;" x="308.2797" y="231.3542" width="9.1171" height="4.0315" rx="2.0158" ry="2.0158" transform="translate(79.4683 546.2082) rotate(-90)" style="fill: #fff"/>
        <rect id="_Rectangle_24" data-name="&lt;Rectangle&gt;" x="310.6974" y="222.3709" width="4.2816" height="4.0315" rx="2.0158" ry="2.0158" transform="translate(88.4515 537.2249) rotate(-90)" style="fill: #fff"/>
      </g>
      <path d="M322.4167,180.3129s-6.6945,6.5111,0,14.7359,0,15.2041,0,15.2041" style="fill: none;stroke: #000;stroke-linecap: round;stroke-miterlimit: 10;stroke-width: 2.5px;opacity: 0.05"/>
      <path d="M331.7031,181.3962s-6.6945,6.2755,0,14.2027,0,14.654,0,14.654" style="fill: none;stroke: #000;stroke-linecap: round;stroke-miterlimit: 10;stroke-width: 2.5px;opacity: 0.05"/>
      <path d="M314.8954,207.8044a10.2975,10.2975,0,0,1-1.7652,2.3327" style="fill: none;stroke: #000;stroke-linecap: round;stroke-miterlimit: 10;stroke-width: 2.5px;opacity: 0.05"/>
      <path d="M313.13,183.7022s-6.6945,5.7489,0,13.0108" style="fill: none;stroke: #000;stroke-linecap: round;stroke-miterlimit: 10;stroke-width: 2.5px;opacity: 0.05"/>
    </g>
  </g>
</svg>
