<svg id="7879e647-8eea-4136-a542-5738bd761b79" data-name="Layer 1" xmlns="http://www.w3.org/2000/svg" xmlns:xlink="http://www.w3.org/1999/xlink" viewBox="0 0 528.15 528.15"><defs><linearGradient id="8feb6dd3-7ed7-413f-8170-33e461ed6928" x1="263.97" y1="207.6" x2="263.97" y2="185.99" gradientUnits="userSpaceOnUse"><stop offset="0" stop-color="#e55757" stop-opacity="0"/><stop offset="1" stop-color="#e55757"/></linearGradient><linearGradient id="a485959f-b678-4ed9-8ea5-a2248141c1b6" x1="286.95" y1="217.42" x2="286.95" y2="204.58" gradientUnits="userSpaceOnUse"><stop offset="0" stop-color="#3a3a3a" stop-opacity="0"/><stop offset="0.25" stop-color="#3a3a3a" stop-opacity="0.14"/><stop offset="0.64" stop-color="#3a3a3a" stop-opacity="0.53"/><stop offset="1" stop-color="#3a3a3a"/></linearGradient><linearGradient id="cb03510b-72c9-4174-b977-1c31bf1bed08" x1="240.32" y1="217.42" x2="240.32" y2="204.58" xlink:href="#a485959f-b678-4ed9-8ea5-a2248141c1b6"/><clipPath id="45a64f33-75d7-43c5-a057-6c48e5a5c45c"><rect id="18726a75-ce80-47a6-bc29-ca70329fd931" data-name="&lt;Rectangle&gt;" x="139.07" y="298.9" width="258" height="128.17" fill="none"/></clipPath><linearGradient id="be631f85-bfe0-45c6-b98a-02e6c02d44c8" x1="240.04" y1="66.74" x2="206.18" y2="100.6" gradientUnits="userSpaceOnUse"><stop offset="0" stop-color="#fff" stop-opacity="0"/><stop offset="0.17" stop-color="#fefefe" stop-opacity="0.01"/><stop offset="0.3" stop-color="#fdfdfd" stop-opacity="0.06"/><stop offset="0.43" stop-color="#fafafa" stop-opacity="0.14"/><stop offset="0.55" stop-color="#f7f7f7" stop-opacity="0.25"/><stop offset="0.67" stop-color="#f2f2f2" stop-opacity="0.39"/><stop offset="0.78" stop-color="#ececec" stop-opacity="0.56"/><stop offset="0.89" stop-color="#e5e5e5" stop-opacity="0.77"/><stop offset="1" stop-color="#ddd"/></linearGradient><linearGradient id="2d69f7b2-f688-4424-8e38-42d51f9f59c6" x1="161.16" y1="276.07" x2="192.17" y2="276.07" gradientUnits="userSpaceOnUse"><stop offset="0.01" stop-color="#aa6f5b"/><stop offset="1" stop-color="#b57961"/></linearGradient></defs><title>joaco - sitio web 2016 v02 - Export</title><circle cx="265.75" cy="263.44" r="264.07" opacity="0.05"/><path d="M39.33,399.41a264.13,264.13,0,0,0,452.83,0Z" opacity="0.05"/><rect id="8f526663-3a66-4810-88e4-328e621cf8a9" data-name="&lt;Rectangle&gt;" x="145.18" y="182.22" width="29.86" height="7.92" rx="3.96" ry="3.96" opacity="0.05"/><rect id="5caa8833-3651-4aac-b50b-0aaa6e392247" data-name="&lt;Rectangle&gt;" x="180.3" y="182.22" width="29.86" height="7.92" rx="3.96" ry="3.96" opacity="0.05"/><rect id="5d024d44-37f0-416f-9077-bfca2c86550d" data-name="&lt;Rectangle&gt;" x="161.85" y="194.16" width="29.86" height="7.92" rx="3.96" ry="3.96" opacity="0.05"/><path d="M289.82,311.51h-51.6a5.26,5.26,0,0,1-5.46-4.75L230.65,283h66.74l-2.11,23.76A5.26,5.26,0,0,1,289.82,311.51Z" fill="#3a3a3a"/><polygon points="290.9 335 237.14 335 234.87 284.46 293.17 284.46 290.9 335" fill="#3a3a3a"/><path d="M274.39,244.38l-10.37,1-10.37-1-17.9,3.82a11.43,11.43,0,0,0-9,11.21v27.88a8.47,8.47,0,0,0,8.71,8.21h24a4.67,4.67,0,0,0,3.57-1.62,1.34,1.34,0,0,1,2,0,4.67,4.67,0,0,0,3.57,1.62h24a8.47,8.47,0,0,0,8.71-8.21V259.41a11.43,11.43,0,0,0-9-11.21Z" fill="#3a3a3a"/><path d="M253.35,238.9h21.33a0,0,0,0,1,0,0V247a8.47,8.47,0,0,1-8.47,8.47h-4.39a8.47,8.47,0,0,1-8.47-8.47V238.9A0,0,0,0,1,253.35,238.9Z" fill="#f9bfa2"/><polygon points="222.71 310.2 201.81 307.39 205.22 285.59 226.11 288.41 222.71 310.2" fill="#feccae"/><polygon points="305.46 310.2 326.36 307.39 322.95 285.59 302.06 288.41 305.46 310.2" fill="#feccae"/><polygon points="219.83 353.88 205 353.88 201.81 307.39 222.71 310.2 219.83 353.88" fill="#feccae"/><path d="M221,372.2l-14.5-2.05a4,4,0,0,1-3.42-4.34l1.55-16.06,15.64-2.15,3.74,3.2a5.6,5.6,0,0,1,1.9,3.4l1.56,10a4,4,0,0,1-.48,2.61l-2,3.42A4,4,0,0,1,221,372.2Z" fill="#feccae"/><polygon points="308.34 353.88 323.17 353.88 326.36 307.39 305.46 310.2 308.34 353.88" fill="#feccae"/><path d="M307.2,372.2l14.5-2.05a4,4,0,0,0,3.42-4.34l-1.55-16.06-15.64-2.15-3.74,3.2a5.6,5.6,0,0,0-1.9,3.4l-1.56,10a4,4,0,0,0,.48,2.61l2,3.42A4,4,0,0,0,307.2,372.2Z" fill="#feccae"/><path d="M245.37,394h-2.7c-5.62,0-10.18-4.93-10.18-11V353.1a24.8,24.8,0,0,1,2.76-11.41l.61-1.18h25.39v36.34C261.25,386.33,254.14,394,245.37,394Z" fill="#424242"/><path d="M282.28,394H285c5.68,0,10.28-4.93,10.28-11V353.1a24.61,24.61,0,0,0-2.79-11.41l-.62-1.18H266.25v36.34C266.25,386.33,273.43,394,282.28,394Z" fill="#424242"/><rect x="234.97" y="333.03" width="58.2" height="7.47" rx="1.25" ry="1.25" fill="#424242"/><polygon points="301.01 288.55 322.95 285.59 318.92 259.77 296.97 262.73 301.01 288.55" fill="#3a3a3a"/><polygon points="228.71 288.76 205.22 285.59 209.29 259.78 232.79 262.94 228.71 288.76" fill="#3a3a3a"/><path d="M207.48,272.76l24,3.24,3.24-24-12.49-1.82a18.2,18.2,0,0,0-8,1.11A12.79,12.79,0,0,0,207.34,263Z" fill="#3a3a3a"/><path d="M320.69,272.76l-24,3.24-3.24-24,12.49-1.82a18.2,18.2,0,0,1,8,1.11A12.79,12.79,0,0,1,320.83,263Z" fill="#3a3a3a"/><rect x="256.61" y="340.5" width="14.23" height="22.94" fill="#424242"/><path id="0172e86f-2638-4da7-b1d5-a8e89a1e336c" data-name="&lt;Path&gt;" d="M263.68,245.12h-.09c-8.21,0-13.51-4.87-18.19-10.89-3.36-4.33-7.36-8.76-7.36-14.66V200.28a25.55,25.55,0,0,1,25.55-25.55h.09a25.55,25.55,0,0,1,25.55,25.55v19.29c0,5.9-4,10.34-7.36,14.66C277.19,240.25,271.88,245.12,263.68,245.12Z" fill="#feccae"/><rect x="239.98" y="185.99" width="47.97" height="21.61" fill="url(#8feb6dd3-7ed7-413f-8170-33e461ed6928)"/><ellipse id="3c47770c-621f-42a3-87f7-dfc157ebb836" data-name="&lt;Path&gt;" cx="276.05" cy="218.74" rx="1.52" ry="3.59" transform="translate(30.56 471.3) rotate(-84.21)" fill="#f9bfa2"/><path d="M263.63,224.79h0a2.91,2.91,0,0,1-2.91-2.75l-.66-11.36A2.91,2.91,0,0,1,263,207.6h1.32a2.91,2.91,0,0,1,2.91,3.08L266.54,222A2.91,2.91,0,0,1,263.63,224.79Z" fill="#f9bfa2"/><rect x="258.33" y="220.55" width="7.45" height="4.24" rx="2.12" ry="2.12" fill="#f9bfa2"/><path d="M291.52,208.81h-2.28v10h1.3c2,0,3.65-1.78,4-4.26l.12-.78C295.09,211.21,293.56,208.81,291.52,208.81Z" fill="#f9bfa2"/><path d="M235.75,208.81H238v10h-1.3c-2,0-3.65-1.78-4-4.26l-.12-.78C232.18,211.21,233.71,208.81,235.75,208.81Z" fill="#f9bfa2"/><ellipse id="6d44194b-87e9-447c-9c13-44bf354f8107" data-name="&lt;Path&gt;" cx="251.12" cy="218.74" rx="3.59" ry="1.52" transform="translate(-20.8 26.47) rotate(-5.79)" fill="#f9bfa2"/><rect x="260.9" y="236.26" width="5.47" height="2" rx="0.8" ry="0.8" fill="#f9bfa2"/><path id="6207c733-0eaf-47d8-af22-c196547e5b71" data-name="&lt;Path&gt;" d="M271,164.94H256.27c-10.07,0-18.24,10.57-18.24,21.15v18.49h4.56l.72-12.81A2.68,2.68,0,0,1,247,189.2L257.65,194a14.41,14.41,0,0,0,12,0l10.62-4.82a2.68,2.68,0,0,1,3.72,2.57l.72,12.81h4.56V184.09C289.23,173.52,281.07,164.94,271,164.94Z" fill="#3a3a3a"/><path d="M265,195.34h-1.92a15.06,15.06,0,0,1-13.32-8l-.78-1.49a1.25,1.25,0,0,1,1.28-1.83l5.73.81a3.15,3.15,0,0,0,2.61-.83l3.55-3.37a2.76,2.76,0,0,1,3.8,0l3.55,3.37a3.15,3.15,0,0,0,2.61.83l5.73-.81a1.25,1.25,0,0,1,1.28,1.83l-.78,1.49A15.06,15.06,0,0,1,265,195.34Z" fill="#333"/><polygon points="289.23 217.42 285.42 217.42 284.67 204.58 289.23 204.58 289.23 217.42" fill="url(#a485959f-b678-4ed9-8ea5-a2248141c1b6)"/><polygon points="238.04 217.42 241.85 217.42 242.6 204.58 238.04 204.58 238.04 217.42" fill="url(#cb03510b-72c9-4174-b977-1c31bf1bed08)"/><ellipse id="b95052cc-69ef-4ba4-a76e-79738824c5ce" data-name="&lt;Path&gt;" cx="274.3" cy="211.34" rx="2.9" ry="2.55" fill="#5b5b5b"/><ellipse id="c4ea80df-3b2b-4b59-81d0-3f0a9ea57953" data-name="&lt;Path&gt;" cx="252.97" cy="211.34" rx="2.9" ry="2.55" fill="#5b5b5b"/><rect x="269.18" y="207.81" width="10.24" height="2.19" rx="1.01" ry="1.01" transform="translate(-28.36 43.74) rotate(-8.67)" fill="#5b5b5b"/><rect x="247.85" y="207.81" width="10.24" height="2.19" rx="1.01" ry="1.01" transform="translate(471.55 453.56) rotate(-171.33)" fill="#5b5b5b"/><path id="eebdf141-021d-4110-aab6-c37732233fb9" data-name="&lt;Path&gt;" d="M267.93,232a5.3,5.3,0,0,0-8.67.15" fill="none" stroke="#eaa688" stroke-linecap="round" stroke-miterlimit="10" stroke-width="1.6"/><rect id="2163c6d3-1991-4a61-863d-852b44d3fe7f" data-name="&lt;Rectangle&gt;" x="82.51" y="418.69" width="344.82" height="16.77" rx="8.17" ry="8.17" opacity="0.08"/><polygon id="4fe8c299-952d-4d06-82ee-7efd32375dba" data-name="&lt;Path&gt;" points="304.05 301.9 142.05 301.9 180.11 147.44 266.11 147.44 304.05 301.9" fill="#fff" opacity="0.1"/><circle id="20a9f742-5959-4b38-b1be-453d5f10bb33" data-name="&lt;Path&gt;" cx="115.41" cy="320.9" r="9.27" fill="#e6e8e8"/><circle id="d29589db-5cb0-4579-899d-9874de65c8f1" data-name="&lt;Path&gt;" cx="125.73" cy="339.19" r="16.99" fill="#fff"/><circle id="55a7b72a-b1f1-4bec-8555-f9a16766d672" data-name="&lt;Path&gt;" cx="107.57" cy="347.22" r="9.83" fill="#f2f2f2"/><rect id="4a20d0c1-4600-4942-85b9-da3a1dcaffd5" data-name="&lt;Rectangle&gt;" x="405.27" y="368.24" width="21" height="21" rx="3.22" ry="3.22" opacity="0.08"/><circle id="7c83e203-935d-4dfb-9fd0-80cf6c1e0b6b" data-name="&lt;Path&gt;" cx="415.9" cy="378.74" r="5.67" fill="#e5e5e5"/><line id="59746987-8f4a-4c53-b42f-49bdd6a0420c" data-name="&lt;Path&gt;" x1="326.36" y1="378.74" x2="412.36" y2="378.74" fill="none" stroke="#e2e2e2" stroke-miterlimit="10" stroke-width="4"/><rect id="75b091a6-9d25-49a8-bb54-fc80fd4e5712" data-name="&lt;Rectangle&gt;" x="139.07" y="298.9" width="258" height="128.17" fill="#b47860"/><g opacity="0.5"><g clip-path="url(#45a64f33-75d7-43c5-a057-6c48e5a5c45c)"><path d="M321.39,619.87c2.37-18.05,6.16-23.21-5.09-74.59S303,448.9,312.16,403.62s5.62-69.77,5.62-93" fill="none" stroke="#aa6f5b" stroke-linecap="round" stroke-linejoin="round" stroke-width="1.75"/><path d="M323.78,378.9c3-40.83,0-51.27,0-68.25" fill="none" stroke="#aa6f5b" stroke-linecap="round" stroke-linejoin="round" stroke-width="1.75"/><path d="M321.93,389.46s-7.69,41.11-8.28,65,1.48,53.61,8.28,90.27,10.06,32.22,4.44,76.38-4.92,55-5,69.44-3,16.11-2.13,31.94,4.59,13.61,4.51,31.11,0,41.06,0,41.06" fill="none" stroke="#aa6f5b" stroke-linecap="round" stroke-linejoin="round" stroke-width="1.75"/><path d="M330.51,310.66c1.59,26,3,55.09-5.38,101.33s-5.86,82.19,1.24,123,12.43,40,5.92,93.88-4.74,54.72-4.74,65,7.86,17,7.68,26.66-5.88,15.55-6,26.11.48,32.07,1.27,48" fill="none" stroke="#aa6f5b" stroke-linecap="round" stroke-linejoin="round" stroke-width="1.75"/><path d="M335.23,310.66s2.95,43.25,0,80.47-9.75,36.94-8.86,75.13,5,57.08,8.86,79,9.78,27.5,6.23,58.61-9.59,43.21-8.28,82.77c0,0-.2,12.13,3.65,21.29s4.24,16.3.3,28-3.55,26.2-3.35,31.76,1.47,27,1.47,27" fill="none" stroke="#aa6f5b" stroke-linecap="round" stroke-linejoin="round" stroke-width="1.75"/><path d="M341.35,310.66c1.19,12.4,2.47,65.47-2.86,99.63s-7.68,44.11-5.46,70.13c3.25,38.19,8.71,64,11.08,72.91s7.1,30,3.25,50.83-8,45.55-7.4,68.88,1,25.46,2.57,32.87,5.32,10.55,2.56,26.29.59,48.37,2,62.44" fill="none" stroke="#aa6f5b" stroke-linecap="round" stroke-linejoin="round" stroke-width="1.75"/><path d="M347.07,310.66c.69,12.41,3.25,49.31.44,75.89-1.38,13-8.14,49.58-9,63.47s2.07,43.33,4.05,58.33,11.33,53.89,11.93,75.27-5.62,30.83-7.59,52.22-.39,37.31,0,49.16,4.93,23.05,4.93,36-1.18,11.62-2,27,2.86,46.7,2.86,46.7" fill="none" stroke="#aa6f5b" stroke-linecap="round" stroke-linejoin="round" stroke-width="1.75"/><path d="M346.42,471.4a148.56,148.56,0,0,1,0-50.27" fill="none" stroke="#aa6f5b" stroke-linecap="round" stroke-linejoin="round" stroke-width="1.75"/><path d="M352.7,310.66a462.52,462.52,0,0,1,1.81,70.47c-2,37.57-9.24,55,1.87,93s8.74,67.22,7.56,85.55-8.28,42.5-4.14,88.61,10.81,40.83,7.1,88.61c-2.24,28.89,2.07,57.72,2.07,57.72" fill="none" stroke="#aa6f5b" stroke-linecap="round" stroke-linejoin="round" stroke-width="1.75"/><path d="M358,566.56c2.76-29.44-1.34-87.67-9.21-87.66-5.36,0-2.34,18.69,0,31.09" fill="none" stroke="#aa6f5b" stroke-linecap="round" stroke-linejoin="round" stroke-width="1.75"/><path d="M353.34,537.64c1.17-15.34-2.12-38.93-2.12-38.93" fill="none" stroke="#aa6f5b" stroke-linecap="round" stroke-linejoin="round" stroke-width="1.75"/><path d="M362.76,310.66c1.59,16.24,3.85,44.64,0,74.91s-8.45,60.83.21,90.55,11.33,53.05,6,99.72-4.44,59.16-1.48,82.77,8.28,39.16,5.62,82.77c0,0-2.69,19.67.72,53.28" fill="none" stroke="#aa6f5b" stroke-linecap="round" stroke-linejoin="round" stroke-width="1.75"/><path d="M369,310.66s3.85,50.75-1.48,84.08-3.25,59.44,1.48,76.66S379,498.89,379,528.89s-7.29,65.55-7.34,96.38,7.64,54.57,8.53,81.45-1.78,48.45-2.07,62.8a215,215,0,0,0,.89,25.13" fill="none" stroke="#aa6f5b" stroke-linecap="round" stroke-linejoin="round" stroke-width="1.75"/><path d="M396.19,421.12c-3.85-22.22-11.12-38.1-14.79-59.3S379.81,329,379,310.66" fill="none" stroke="#aa6f5b" stroke-linecap="round" stroke-linejoin="round" stroke-width="1.75"/><path d="M372.37,399.18a195.09,195.09,0,0,0,3.11-41.11c-.43-11.81-.71-36.73-1.64-47.42" fill="none" stroke="#aa6f5b" stroke-linecap="round" stroke-linejoin="round" stroke-width="1.75"/><path d="M379.47,381.12c.89,4.17,5.33,18.05,5.33,18.05" fill="none" stroke="#aa6f5b" stroke-linecap="round" stroke-linejoin="round" stroke-width="1.75"/><path d="M378.73,402.23c-5.33.56-11.24,12.78-8,42.5s10.06,41.39,13.31,41.66,10.95-35.55,10.36-50.55C393.54,413.61,384.06,401.68,378.73,402.23Z" fill="none" stroke="#aa6f5b" stroke-linecap="round" stroke-linejoin="round" stroke-width="1.75"/><path d="M382.35,428.62C381.24,432,383.47,452,386.54,452s4.32-40.28-6.15-39.16,1,56.94,1,56.94" fill="none" stroke="#aa6f5b" stroke-linecap="round" stroke-linejoin="round" stroke-width="1.75"/><path d="M376.22,618.69c-.2-19,4.73-41.21,5.91-55.91,1.76-21.92,1.93-47.68,1.93-47.68.3-14.91-3.67-25.09-3.67-25.09" fill="none" stroke="#aa6f5b" stroke-linecap="round" stroke-linejoin="round" stroke-width="1.75"/><path d="M395.48,473.62s-5.5,20.83-5.73,38.05-1.41,45.4-5.64,71.65c-3.47,21.5-6.32,43.14-1.24,87.23,6.37,55.29,3.85,59.16,3,79.72s0,44.39,0,44.39" fill="none" stroke="#aa6f5b" stroke-linecap="round" stroke-linejoin="round" stroke-width="1.75"/><path d="M399.15,446.26s1.48,35-1.78,52.45-1.48,42.13-4.73,62.68-7.17,44.72-5.51,84.16,7.34,56.11,6,82.22-.59,58.55,0,66.89" fill="none" stroke="#aa6f5b" stroke-linecap="round" stroke-linejoin="round" stroke-width="1.75"/><path d="M393.11,608.33c.17-13.05,4.56-41.39,4.56-41.39s8.28-64.72,6.21-115.83-12.56-60.17-16.75-88.37c-3.66-24.63-.4-36.82-1.3-52.09" fill="none" stroke="#aa6f5b" stroke-linecap="round" stroke-linejoin="round" stroke-width="1.75"/><path d="M390.09,334.18c0,7.7,1.48,19.45,3.75,30.6,4.59,22.64,10.8,32.62,13.9,71s1.79,61.77,0,84.27-6.42,62.22-8.1,76.11-5.82,30-2.56,58.61,7.17,31.66,7.14,60.27,1.15,79.66,1.15,79.66" fill="none" stroke="#aa6f5b" stroke-linecap="round" stroke-linejoin="round" stroke-width="1.75"/><path d="M404.21,596.13s10.22-72,10.22-111.13-2-66.66-11.14-103.88a378.3,378.3,0,0,1-10.18-70.47" fill="none" stroke="#aa6f5b" stroke-linecap="round" stroke-linejoin="round" stroke-width="1.75"/><path d="M399.48,310.66A379.52,379.52,0,0,0,408.22,375c7.69,33.33,11,71.11,11,92.77s-1.26,59.72,1,84.44,10.54,53.33,10.84,85.27-9.68,54.91-12.23,68.24c-2.67,14-2.56,58.74-1.58,88.92" fill="none" stroke="#aa6f5b" stroke-linecap="round" stroke-linejoin="round" stroke-width="1.75"/><path d="M405.36,310.66c.36,12.15,5.82,67.69,13.12,68.25s-1.38-44.23-1.18-68.25" fill="none" stroke="#aa6f5b" stroke-linecap="round" stroke-linejoin="round" stroke-width="1.75"/><path d="M411,315.76s2.55,31.29,6.1,49.63" fill="none" stroke="#aa6f5b" stroke-linecap="round" stroke-linejoin="round" stroke-width="1.75"/><path d="M418.87,412.77c.79-21.46-3.94-30.53-3.94-30.53" fill="none" stroke="#aa6f5b" stroke-linecap="round" stroke-linejoin="round" stroke-width="1.75"/><path d="M425.54,310.66s2.79,36.21.63,62.88-4.34,38.33-2.37,63.7,4.73,26.48,6.51,58.14-.39,38.15,2.37,61.11,6.31,59.26,5.72,76.85-6.71,46.29-9.47,72.4.28,50.92,1.82,68,1.34,21,1.34,21" fill="none" stroke="#aa6f5b" stroke-linecap="round" stroke-linejoin="round" stroke-width="1.75"/><path d="M433.76,614.72s-5-35.65-7.4-49.16A275.88,275.88,0,0,1,423,518.61c.38-12.68.8-43.79,0-58.05" fill="none" stroke="#aa6f5b" stroke-linecap="round" stroke-linejoin="round" stroke-width="1.75"/><path d="M427.16,504.26s-.15,34.07,1.21,46.11" fill="none" stroke="#aa6f5b" stroke-linecap="round" stroke-linejoin="round" stroke-width="1.75"/><path d="M432.09,310.66s2.86,41.76-1,75.5-.3,52.19,2.66,70.8,3.25,42.13,3,58.14,2.66,48.45,4.44,68.48S448.7,623,438.46,683a294.84,294.84,0,0,0-3.22,67.77c2.66,36.39,3.48,36.33,3.22,43.83" fill="none" stroke="#aa6f5b" stroke-linecap="round" stroke-linejoin="round" stroke-width="1.75"/><path d="M438.46,310.66s2.93,36,0,68.25-5.34,30.55-.28,67.35,3.87,52.91,4.16,72.36,9.47,74.44,9.17,111.66-5,43.33-8.13,67.77-3.71,34.16-2.82,51.66,4.38,31.89,3.82,44.94" fill="none" stroke="#aa6f5b" stroke-linecap="round" stroke-linejoin="round" stroke-width="1.75"/><path d="M441.75,425.84c-2.07-29.16,2.37-21.94,5.62-42.5S450,310.66,450,310.66" fill="none" stroke="#aa6f5b" stroke-linecap="round" stroke-linejoin="round" stroke-width="1.75"/><path d="M442.34,386.68c4.14-29.44,2-76,2-76" fill="none" stroke="#aa6f5b" stroke-linecap="round" stroke-linejoin="round" stroke-width="1.75"/><path d="M448.82,400.57c-3.14.69-3.81,4.72-3.07,18.33s4,21,5.78,20.83,5.61-1.53,5-17.78S452.76,399.7,448.82,400.57Z" fill="none" stroke="#aa6f5b" stroke-linecap="round" stroke-linejoin="round" stroke-width="1.75"/><path d="M449.59,421.19s.59,16,3,12.29S451,408.9,451,408.9" fill="none" stroke="#aa6f5b" stroke-linecap="round" stroke-linejoin="round" stroke-width="1.75"/><path d="M452.7,445.35c-1.66,8.27-2.51,15.08-6.07,14s-4.29-28.05-4.29-28.05" fill="none" stroke="#aa6f5b" stroke-linecap="round" stroke-linejoin="round" stroke-width="1.75"/><path d="M451,534.73s-5.15-33.05-2.22-55.83,12.76-27.5,13.05-53-7.69-31.39-7.1-56.52,2.37-58.67,2.37-58.67" fill="none" stroke="#aa6f5b" stroke-linecap="round" stroke-linejoin="round" stroke-width="1.75"/><path d="M464.24,310.66s-2.28,36.69-2.36,48.67a167.12,167.12,0,0,0,3,33.79c2.22,12.22,4.72,16.9,4.72,35.37s-5,30.83-10.5,47.36-3.55,38.61-2.07,55.55,4.29,41.52,5.92,68.47.59,58.47-1.18,75.83S453,710.13,450,717.21,445.3,731,448.26,745s9.76,15.55,13.46,28.89,2.51,20.78,2.51,20.78" fill="none" stroke="#aa6f5b" stroke-linecap="round" stroke-linejoin="round" stroke-width="1.75"/><path d="M470.55,310.66c0,15.45-2.95,26.54.14,62.14,3.77,43.59,7.46,41.39,4.2,73.47s-12.11,32.27-13,58,5.72,49.07,7.15,76,1.43,70.83,3.5,95.27,6.71,39.07,9.86,48.14,7.5,13,4.73,28.33-5.52,24.3-4.93,42.63" fill="none" stroke="#aa6f5b" stroke-linecap="round" stroke-linejoin="round" stroke-width="1.75"/><path d="M481.47,431.26c.54-20.68-2.67-46.46-3.87-69.3-1.18-22.56-.34-42.24-.94-51.3" fill="none" stroke="#aa6f5b" stroke-linecap="round" stroke-linejoin="round" stroke-width="1.75"/><path d="M474.9,481.49c-3.16.74-8.69,10.18-8.29,24.44.31,11.29,6.11,23.15,10.65,23.15s9.66-22.22,9.66-34.63S478.06,480.75,474.9,481.49Z" fill="none" stroke="#aa6f5b" stroke-linecap="round" stroke-linejoin="round" stroke-width="1.75"/><path d="M479.43,511.86c1.38-4.81,4.93-30.18-2.67-24.07s-5.41,26.11,0,32.78" fill="none" stroke="#aa6f5b" stroke-linecap="round" stroke-linejoin="round" stroke-width="1.75"/><path d="M475.76,503.7s-.62-7.21,1.86-8.88" fill="none" stroke="#aa6f5b" stroke-linecap="round" stroke-linejoin="round" stroke-width="1.75"/><path d="M473.11,477.41a17.08,17.08,0,0,1,1.71-7.68" fill="none" stroke="#aa6f5b" stroke-linecap="round" stroke-linejoin="round" stroke-width="1.75"/><path d="M486.87,687.08c-1.3-20.55-3.7-63.19-4.29-83.75s-6.71-51.66.39-70.74,9.07-33.89,8.48-43.7-7.69-9.63-10.95-15.92,1.08-27,1-36.29" fill="none" stroke="#aa6f5b" stroke-linecap="round" stroke-linejoin="round" stroke-width="1.75"/><path d="M498.21,671.34A380.89,380.89,0,0,0,495,626.46c-1.94-14.58-4.32-20.72-5.1-40.16s10.27-50.74,12.44-65.74,2.56-37,1.38-53.51-3-52.59-3.75-67.87-2.85-63.11.39-88.52" fill="none" stroke="#aa6f5b" stroke-linecap="round" stroke-linejoin="round" stroke-width="1.75"/><path d="M483.63,462c-.92,7.41,2.7,14.81,6.2,12.59s.25-27-1.83-45.92-2.66-45.55-3.84-65-.38-34.74-2-53.06" fill="none" stroke="#aa6f5b" stroke-linecap="round" stroke-linejoin="round" stroke-width="1.75"/><path d="M485.43,572.36A145.94,145.94,0,0,1,488,544.45c2.87-14.58,9.08-27.73,9.82-49.63s-1.63-48-2.81-60.77-2.61-53.57-3.32-72.09" fill="none" stroke="#aa6f5b" stroke-linecap="round" stroke-linejoin="round" stroke-width="1.75"/><path d="M490.08,310.66c1.61,13,1.61,44.92,1.61,44.92" fill="none" stroke="#aa6f5b" stroke-linecap="round" stroke-linejoin="round" stroke-width="1.75"/><path d="M507.29,310.66c-1.91,20.55-1.92,51.44-1.92,62.83s1,50.27,1.81,61.38,2.78,42.36,3.81,56.94-.15,30.41-1.33,42.91-8,28.75-9.17,39.86,4,28.61,5.18,40.14,2.22,39.72,3,54,1.92,31.8,4.24,42.5.64,18.75-.09,23.84-1.18,12.13,0,30.88.89,28.7.89,28.7" fill="none" stroke="#aa6f5b" stroke-linecap="round" stroke-linejoin="round" stroke-width="1.75"/><path d="M526.76,549.84a96.85,96.85,0,0,1-5.92-15.94c-4.93-18.7-6.51-99.62-6.81-118.51s-1.57-73.35-.39-104.73" fill="none" stroke="#aa6f5b" stroke-linecap="round" stroke-linejoin="round" stroke-width="1.75"/><path d="M526.76,528.81a138.23,138.23,0,0,1-2.47-18c-3.25-40.8-3-174.36-4-200.18" fill="none" stroke="#aa6f5b" stroke-linecap="round" stroke-linejoin="round" stroke-width="1.75"/><path d="M359.65,366.54c.84-16-.35-35.47-2.51-55.89" fill="none" stroke="#aa6f5b" stroke-linecap="round" stroke-linejoin="round" stroke-width="1.75"/><path d="M301.71,455.49c-.59,4.17-.59,13.33-.59,13.33.79,14.63,2.5,31.48,3.65,40.74s4.24,27.41,8,43.1,7.18,36.17,6.51,45.23c-.7,9.41-4.74,29.26-5.62,41.66s-1.54,28.15-1.28,36.66c.39,12.9-3.75,26.66-3.55,41.56.14,10.45,2.67,25.2,3.75,34.64s-.48,30.18-.59,42.24" fill="none" stroke="#aa6f5b" stroke-linecap="round" stroke-linejoin="round" stroke-width="1.75"/><path d="M312,370.8c1-15.62,0-60.15,0-60.15" fill="none" stroke="#aa6f5b" stroke-linecap="round" stroke-linejoin="round" stroke-width="1.75"/><path d="M307.46,400.49s2.83-11.75,1.05-21.58-2.11-68.25-2.11-68.25" fill="none" stroke="#aa6f5b" stroke-linecap="round" stroke-linejoin="round" stroke-width="1.75"/><path d="M302.59,535.67a77.84,77.84,0,0,0,.5-12.68" fill="none" stroke="#aa6f5b" stroke-linecap="round" stroke-linejoin="round" stroke-width="1.75"/><path d="M303.78,367.79c-1.7-21-3.4-34.89-3.4-57.14" fill="none" stroke="#aa6f5b" stroke-linecap="round" stroke-linejoin="round" stroke-width="1.75"/><path d="M42.73,528.81c4.51,21,11.92,19.72,11.44,43.55-.38,18.6-7.1,20.55-4.14,54.09s10.06,62.7,9.47,94.65-3.85,52.16-2.66,73.55" fill="none" stroke="#aa6f5b" stroke-linecap="round" stroke-linejoin="round" stroke-width="1.75"/><path d="M42.73,310.66c0,.07,2,48,2.27,93s1.18,108.51,5.92,127.86,10.13,21.94,9.8,43.15-7.43,17.41-4.77,50,7.1,37,9.47,85.09-2.37,41.61,0,84.94" fill="none" stroke="#aa6f5b" stroke-linecap="round" stroke-linejoin="round" stroke-width="1.75"/><path d="M50.19,370.8c1.88-21.11-.14-42.25-1.05-60.15" fill="none" stroke="#aa6f5b" stroke-linecap="round" stroke-linejoin="round" stroke-width="1.75"/><path d="M65.41,310.66c.68,8.54.2,38.62-.79,49.17s-5.13,15.92-5.09,27.59,4.9,15.18,6.57,25.74.8,24.07,0,54.14,5.23,102.15,4.05,128.83-6.8,28-6.8,45.11,8.58,52,9,80.7-1.33,52.58,0,72.7" fill="none" stroke="#aa6f5b" stroke-linecap="round" stroke-linejoin="round" stroke-width="1.75"/><path d="M65.11,601.82c.15,5.12-.67,20.54-4.4,20.54-2.55,0-1.38-17.14.8-25.34s3.34-11.88,3.62-25.21-1.64-44.3-2.24-56.52-3-36.53-2.18-61.66.48-31.25-1.18-39.72-6.1-13.75-6.1-24.58c0-17.08,3.89-24.06,4.88-33.75,1.79-17.41-1.17-33.53-1.48-44.92" fill="none" stroke="#aa6f5b" stroke-linecap="round" stroke-linejoin="round" stroke-width="1.75"/><path d="M58,533.34s-2.81-29.11-4-46.5-1.18-25.72-1.33-37.11,1.23-27-1.44-44" fill="none" stroke="#aa6f5b" stroke-linecap="round" stroke-linejoin="round" stroke-width="1.75"/><path d="M72.36,310.66c.45,9.86-.15,38.11-.9,50.2-.59,9.63-5.38,14.16-5.49,25.46-.15,15.56,6.92,15.92,7.91,23.52s-.79,64.06-.2,89.43,2.56,57.41,2.37,81.3-.93,33.7-3.62,41.11-8.81,22.76,3,52c10.06,25,8.16,50,8.36,72.22s.79,48.74.79,48.74" fill="none" stroke="#aa6f5b" stroke-linecap="round" stroke-linejoin="round" stroke-width="1.75"/><path d="M77,372.61c-4.34.19-5.92,6.48-6.11,13.8s2.56,15.18,6.11,15,6.51-6.39,6.41-13.52S82.37,372.38,77,372.61Z" fill="none" stroke="#aa6f5b" stroke-linecap="round" stroke-linejoin="round" stroke-width="1.75"/><path d="M76.06,378.72c-1.28,3-2.28,17.41,1.13,17.31s2.12-11.57,2.12-11.57" fill="none" stroke="#aa6f5b" stroke-linecap="round" stroke-linejoin="round" stroke-width="1.75"/><path d="M78.82,310.66c.06,16.94-2.35,46.65.73,53.39,4,8.81,8.34,11.34,8.34,23s-8.4,19-8.34,27.59S79,467.51,79,485.7s1.63,67.77,2.22,79.3,1.33,31.39-.59,43.47-8.2,21.67-7,38.61c1.57,21.37,10.15,29.44,12.17,38.47s3,31.94,3.2,42.36.91,66.75.91,66.75" fill="none" stroke="#aa6f5b" stroke-linecap="round" stroke-linejoin="round" stroke-width="1.75"/><path d="M84.54,310.66c.7,16.66-2.16,35.89.9,48.29,2.23,9.06,7.76,12.87,7.76,27s-7.08,21.94-7.38,35.49c-.23,10.76-.3,60.2-.3,81.31s3,104.44,5.72,112,7.1,12.41,7.69,31.85-5.31,28.52-5.32,37.4,0,23.94.93,44.45c1,20.2,1.82,52.07,1.43,66.14" fill="none" stroke="#aa6f5b" stroke-linecap="round" stroke-linejoin="round" stroke-width="1.75"/><path d="M91.59,427.51c.74-17.36,7-26.66,7.39-41.8s-2.85-16.79-6.54-30.14C88.7,342,90.34,331.3,90,310.66" fill="none" stroke="#aa6f5b" stroke-linecap="round" stroke-linejoin="round" stroke-width="1.75"/><path d="M91.74,436.68s-.59,38.61,0,56.25.59,62.91,1.48,78.74S95,601.8,98,612.91s6.21,16.94,6.51,34.72S100,676.94,99.88,690s-.15,25.69.89,44.16,2.66,45.08,2.66,60.5" fill="none" stroke="#aa6f5b" stroke-linecap="round" stroke-linejoin="round" stroke-width="1.75"/><path d="M99,560.37s-.63-45.37-1-61.11-1-32.4-1-51.66,4.14-37.78,6.51-50,3-25-2.76-38.15-4.93-42.69-4.73-48.8" fill="none" stroke="#aa6f5b" stroke-linecap="round" stroke-linejoin="round" stroke-width="1.75"/><path d="M102.29,451.48a187.43,187.43,0,0,1,5.92-45.73c4.15-15,3.6-34.33,0-49.21s-4.59-34-4.78-45.89" fill="none" stroke="#aa6f5b" stroke-linecap="round" stroke-linejoin="round" stroke-width="1.75"/><path d="M103.28,511.67c.3,9.17,1.18,73.55,5.33,94,0,0,1.47,8.18,4.14,17.48,2.43,8.46,6.71,18.89,7.1,40.09s-.2,37.5,0,54.72,1.38,53.18,1.58,76.7" fill="none" stroke="#aa6f5b" stroke-linecap="round" stroke-linejoin="round" stroke-width="1.75"/><path d="M108.7,433.59s1.88-11.73,2.79-15.43,4.81-20,5-35-1.38-25.74-3.75-38S110,322.87,110,310.66" fill="none" stroke="#aa6f5b" stroke-linecap="round" stroke-linejoin="round" stroke-width="1.75"/><path d="M115.9,310.66c.2,8.15,1.18,29.18,3.16,44.36a229.1,229.1,0,0,1,1.78,43.7c-.79,15.92-6.11,32.78-11.24,45.74s-7.3,28.15-6.31,39.44,8.09,40.55,10.65,51.48,5.52,35.18,3.16,48.14-4.54,20.37-2.17,29.63,10.26,26.29,10.65,38.52,0,41.64,0,53.23,1.78,80,1.58,89.77" fill="none" stroke="#aa6f5b" stroke-linecap="round" stroke-linejoin="round" stroke-width="1.75"/><path d="M121.43,310.66c.2,10.93,1.78,32.32,3.35,48.25s3.35,32.41,1,50.74-11.4,37.4-14.28,49.81-3.27,28,1.85,49.81,9.27,39.63,9.86,55.37-5.37,33-5.05,41,11.17,26.37,12.74,37.85a142.94,142.94,0,0,1,1.38,20.37" fill="none" stroke="#aa6f5b" stroke-linecap="round" stroke-linejoin="round" stroke-width="1.75"/><path d="M133.66,310.66c-.39,6.3-5.31,10.15-4.54,27.51.63,14.07,3.75,25.28,4.14,49.21s-6.71,45.6-10.85,55.78a93.8,93.8,0,0,0-7.31,40.18c.6,17.22,6.32,35,9.87,50s5.13,31.85,3.35,46.48-5.78,23.7-4.17,30.18S136.81,632.4,137,642.77s1.38,29.26,1.58,46.85.2,30.37,0,43.89.79,45.59,1.18,61.15" fill="none" stroke="#aa6f5b" stroke-linecap="round" stroke-linejoin="round" stroke-width="1.75"/><path d="M132.28,445c-9.85,1.11-14,34.81-11.45,50.18s3.95,12.78,8.68,15.18,5.72,19.44,11.24,19.26,7.87-21.66,8.28-45C149.38,465.43,142.14,443.9,132.28,445Z" fill="none" stroke="#aa6f5b" stroke-linecap="round" stroke-linejoin="round" stroke-width="1.75"/><path d="M132.28,462.79c-2.75,26.29,3.25,53.14,8.47,53.14,4.34,0,1.8-64.92-7.1-64.44-8,.43-10.55,37.95-5.52,51.14" fill="none" stroke="#aa6f5b" stroke-linecap="round" stroke-linejoin="round" stroke-width="1.75"/><path d="M138.19,499.82a157.75,157.75,0,0,0-2-24.81" fill="none" stroke="#aa6f5b" stroke-linecap="round" stroke-linejoin="round" stroke-width="1.75"/><path d="M136.22,408.24c0,15.18-6.8,24.7-4.58,28.59s7.05,5.74,8.53,3.89-3.34-11.85-3.34-11.85" fill="none" stroke="#aa6f5b" stroke-linecap="round" stroke-linejoin="round" stroke-width="1.75"/><path d="M139.77,310.66c-.48,8.24-6.81,14.59-5.72,27.51,1,11.33,5.13,25.55,5.72,39.44s-1,30.17,3.94,53.69,11.44,32.41,10.85,61.3-3.75,33.15-7.5,43.52-5.14,19.26-2.86,34.63,12.53,31.48,13.71,46.29-5.33,27-4.93,35.55,1,36.66,1.38,56.48.79,68.18,1.58,85.59" fill="none" stroke="#aa6f5b" stroke-linecap="round" stroke-linejoin="round" stroke-width="1.75"/><path d="M127.41,515.93c6.78,22.11,7.43,37,11.38,60.37S152,599.81,153,618s-3.35,16.85-5.13,27.78.59,33.89,1.18,60.74,1.38,71,2,88.18" fill="none" stroke="#aa6f5b" stroke-linecap="round" stroke-linejoin="round" stroke-width="1.75"/><path d="M160.68,492.78c0-11-1.33-28.05-4.29-41.3s-8-26.06-9.32-39.11,0-28.75-1.13-39.16-6.11-23.33-7.15-34.16,6.21-19.78,6.71-28.39" fill="none" stroke="#aa6f5b" stroke-linecap="round" stroke-linejoin="round" stroke-width="1.75"/><path d="M160.68,501.26c0,5.14-1.92,22.08-4.59,31s-7.06,13.05-6.42,25.55,6.86,32.61,10,40.82S165.71,616.66,165,626s-5.33,19.86-6.07,31.11.89,41.8.89,41.8" fill="none" stroke="#aa6f5b" stroke-linecap="round" stroke-linejoin="round" stroke-width="1.75"/><path d="M145,327.07c4-2,9.62,2.11,9.62,2.11-2.51-3.83-3-12-3.6-18.53" fill="none" stroke="#aa6f5b" stroke-linecap="round" stroke-linejoin="round" stroke-width="1.75"/><path d="M148.7,331c-4.59,0-6.8,3.47-6.21,8.54s3.55,9.24,7.2,8.54,5.23-1.81,6.12-6.94S152.59,331,148.7,331Z" fill="none" stroke="#aa6f5b" stroke-linecap="round" stroke-linejoin="round" stroke-width="1.75"/><path d="M145.93,338.16c0,3.38.25,7.13,3.87,6.57s3.33-8.33,0-10" fill="none" stroke="#aa6f5b" stroke-linecap="round" stroke-linejoin="round" stroke-width="1.75"/><path d="M150.62,355.83c1.33-3.75-4.44-3.75-4.68-2.08s2.61,5.28,3.22,10" fill="none" stroke="#aa6f5b" stroke-linecap="round" stroke-linejoin="round" stroke-width="1.75"/><path d="M163.49,685.55c-.74-12.36-.89-32.22,3.55-47.22a59.81,59.81,0,0,0,0-35.55c-2.66-9.17-7.25-21-9.69-37.5s1-20.28,4.66-34.16,4.88-35.83,3.7-52.91-4-28.33-7.65-44.44-4.92-24-5.08-33.15-.29-22,.31-30.46,5.77-20.69,7.4-30.58-3.44-18.92-4.73-28.91" fill="none" stroke="#aa6f5b" stroke-linecap="round" stroke-linejoin="round" stroke-width="1.75"/><path d="M158.9,364.83c12.88-34.93,4.33-40,4.25-52" fill="none" stroke="#aa6f5b" stroke-linecap="round" stroke-linejoin="round" stroke-width="1.75"/><path d="M168.74,323.35a102.23,102.23,0,0,1,1.41-12.7" fill="none" stroke="#aa6f5b" stroke-linecap="round" stroke-linejoin="round" stroke-width="1.75"/><path d="M168.07,461.94c-2.13-20.14-9.37-43.41-10-63.22s3.6-30.18,8.11-44.81,7.73-34.63,7.73-41.11" fill="none" stroke="#aa6f5b" stroke-linecap="round" stroke-linejoin="round" stroke-width="1.75"/><path d="M163.83,578.33c-2.56-13.33-3.55-28.52,3.35-48.7S172.71,472,172.71,472c-.39-27.78-9.47-56.11-10.18-73.51s5.44-35.18,9.19-46.66,5.23-27.69,6-41.21" fill="none" stroke="#aa6f5b" stroke-linecap="round" stroke-linejoin="round" stroke-width="1.75"/><path d="M178.63,472.85c-.79-19.93-4.34-26.18-7.3-45.34S167,385.94,172.51,367s12-33.19,11-54.16" fill="none" stroke="#aa6f5b" stroke-linecap="round" stroke-linejoin="round" stroke-width="1.75"/><path d="M178.63,482.23c0,9.44.2,24.63-4.34,40.92s-6.71,19.63-7.1,38.15,8.09,38.4,8.48,62.62-.59,34.22-7.1,49.78" fill="none" stroke="#aa6f5b" stroke-linecap="round" stroke-linejoin="round" stroke-width="1.75"/><path d="M191.65,310.66c0,9.28,0,14.78-6.51,36-5.91,19.29-11.83,42.4-10.45,62s8.09,47,8.88,61.66,2.56,34.63-4.93,59.26-5.92,38.7-3.55,54.62,7.3,30.37,7.1,47.12-.79,31.21-7.69,43.24-12,26.29-11.25,43.15c1,21.69,20.18,42.76,20.32,58.14.11,11.85-5.13,13.19-5.81,18.74" fill="none" stroke="#aa6f5b" stroke-linecap="round" stroke-linejoin="round" stroke-width="1.75"/><path d="M178.63,560.37c.2-7.59,2.56-19.26,4.93-27.78s5.33-27.78,5.83-50.37-8.79-70.74-9-80.82,4.14-27.13,9-45.12,8.17-33.41,7.58-45.63" fill="none" stroke="#aa6f5b" stroke-linecap="round" stroke-linejoin="round" stroke-width="1.75"/><path d="M203.68,310.66c0,10.55-1.93,22.88-7.3,42.88-4,14.89-9.35,31.29-9.41,46.11s5.72,43.89,7.27,67-2.59,51.65-2.59,59.63c0,10.37,4.85,21.48,3.71,38.89s-5.09,26.46-4.89,36.56,2.76,21.21,2.76,35.1-2.17,23.33,1,37.78c3.54,16,7.65,40,7.26,58.14s-5.92,42.07-4.54,61.89" fill="none" stroke="#aa6f5b" stroke-linecap="round" stroke-linejoin="round" stroke-width="1.75"/><path d="M210.83,310.66c-.13,19.11-6.72,35.9-10.9,52.69-3.62,14.57-7.58,31.8-6.51,42.4,1.36,13.5,5.92,45.14,6.31,67.1s.79,74.74.79,87.52-1.38,63.88-2,75.37.84,38,3,49.81,5.1,27,5.3,41.48-1.78,34.07-2.76,44.9a188.31,188.31,0,0,0-.39,22.72" fill="none" stroke="#aa6f5b" stroke-linecap="round" stroke-linejoin="round" stroke-width="1.75"/><path d="M198.86,405.75c-.2-9.26,2.5-19.06,4.42-30,1.57-8.94,7-29.88,8.59-39.91" fill="none" stroke="#aa6f5b" stroke-linecap="round" stroke-linejoin="round" stroke-width="1.75"/><path d="M211.76,490.56c0-19.44-3.75-28.7-6.11-43.33a186.43,186.43,0,0,1-1.78-39.81c.59-12,7.76-32.92,10.65-56.66,2.61-21.43,3.55-28.25,3.16-40.1" fill="none" stroke="#aa6f5b" stroke-linecap="round" stroke-linejoin="round" stroke-width="1.75"/><path d="M212,499.17c0,6.2,1,33.42-1.18,62.13s-3.35,47.59-4.14,61.85-3.94,35-1.58,52.77,8.68,30.37,8.48,52.4-2.81,38-2.76,52c0,13.7,0,14.3,0,14.3" fill="none" stroke="#aa6f5b" stroke-linecap="round" stroke-linejoin="round" stroke-width="1.75"/><path d="M204.19,467.58c1.16,19.93,4.16,70.2,0,128" fill="none" stroke="#aa6f5b" stroke-linecap="round" stroke-linejoin="round" stroke-width="1.75"/><path d="M212.75,396c9-31.72,10.55-63.62,10.65-85.38" fill="none" stroke="#aa6f5b" stroke-linecap="round" stroke-linejoin="round" stroke-width="1.75"/><path d="M210.19,405.75a134.41,134.41,0,0,0,0,38.15c2.37,15.74,6.51,32.22,6.9,52.77s-.79,82-2.37,97-4.31,46.66-5.9,59.81.77,31.29,6.89,47,4.14,38.15,3.16,50.74-1.18,32.07-1.18,43.37" fill="none" stroke="#aa6f5b" stroke-linecap="round" stroke-linejoin="round" stroke-width="1.75"/><path d="M221.23,580.56c.79-14.44,1-80.55-.21-98.33s-5.7-33-6.87-53.14,4.91-33.15,9.45-50.37,4.34-58.8,4.54-68.06" fill="none" stroke="#aa6f5b" stroke-linecap="round" stroke-linejoin="round" stroke-width="1.75"/><path d="M233,310.66c0,14.72-.68,30.42-.68,45.63s-2.37,31.32-7.3,40.95-6.47,27-5,42.22,6.12,30.74,6.65,63.51,1.66,54.95,1.07,76.75-2.22,32.78-3.55,45-8.28,27.22-6.8,43.05,11.19,37.31,12.77,54.39-2.17,57.49-2,72.49" fill="none" stroke="#aa6f5b" stroke-linecap="round" stroke-linejoin="round" stroke-width="1.75"/><path d="M233.66,520.37c.2-6.85-.39-20-1.12-32s-.66-21.48,6.27-41.11,4.71-35.92,1.16-46.66-2-20.55-2-37.4,1-41,.64-52.51" fill="none" stroke="#aa6f5b" stroke-linecap="round" stroke-linejoin="round" stroke-width="1.75"/><path d="M233.46,527.23V578c0,12.59-3.75,41.48-3.94,49.07s.92,18.7,3,22.31,5,18.33,0,28.56-.81,23.56-.14,27.64,3.63,13.52,4,31.85S233,779.84,233,794.66" fill="none" stroke="#aa6f5b" stroke-linecap="round" stroke-linejoin="round" stroke-width="1.75"/><path d="M243.33,367.79c-.59-20.55,1.17-41.31,1-57.14" fill="none" stroke="#aa6f5b" stroke-linecap="round" stroke-linejoin="round" stroke-width="1.75"/><path d="M243.33,377.24a83.24,83.24,0,0,0,3.74,25.55c4,13.05,1.92,30.14-2.37,42.77s-6.36,22.64-6.21,34.58,1.48,36.39.89,48.05.15,27.22-.3,42.08-2,35.69-2.63,47.77-.92,18.75,2,27.08,3.4,20.42-.44,34.44-.15,20.42,1.63,32.08a146.14,146.14,0,0,1,1.48,31.94c-.59,11.11-2.37,38-2.51,51.06" fill="none" stroke="#aa6f5b" stroke-linecap="round" stroke-linejoin="round" stroke-width="1.75"/><path d="M233.17,385.71s-.59,7.5,1,12.92" fill="none" stroke="#aa6f5b" stroke-linecap="round" stroke-linejoin="round" stroke-width="1.75"/><path d="M232.3,402.81c-5.19.86-7.57,9-8,21.22s3.81,22.17,6.27,21.53,6.9-4.16,7.2-20.26S236.07,402.19,232.3,402.81Z" fill="none" stroke="#aa6f5b" stroke-linecap="round" stroke-linejoin="round" stroke-width="1.75"/><path d="M232.9,426.72c.87-3.45,3.17-17-1.53-16.29s-3.08,22.44-.06,26.81" fill="none" stroke="#aa6f5b" stroke-linecap="round" stroke-linejoin="round" stroke-width="1.75"/><path d="M230.13,451.8s-.05-4.51-2.86-3.12,1.46,14.67,1.46,21.47" fill="none" stroke="#aa6f5b" stroke-linecap="round" stroke-linejoin="round" stroke-width="1.75"/><path d="M244.46,566.11s.83-16.48,1.23-38.89-2-48.7-1-60.55S253,445.94,255,422.79s-4.54-26.29-6.51-51.66.76-30.38.76-60.47" fill="none" stroke="#aa6f5b" stroke-linecap="round" stroke-linejoin="round" stroke-width="1.75"/><path d="M249.9,571.85c.46-10.74,2.3-34.44,1.91-55.92s-1.58-35.92,0-50,9.66-31.85,9.66-50.74-6.11-28.89-7.1-50.37,4.1-39.27,4.14-54.17" fill="none" stroke="#aa6f5b" stroke-linecap="round" stroke-linejoin="round" stroke-width="1.75"/><path d="M259,345.84c-.2,5.38.35,26.67,3.12,38.07" fill="none" stroke="#aa6f5b" stroke-linecap="round" stroke-linejoin="round" stroke-width="1.75"/><path d="M255.84,510.64a183.07,183.07,0,0,1-.51,31.17" fill="none" stroke="#aa6f5b" stroke-linecap="round" stroke-linejoin="round" stroke-width="1.75"/><path d="M255.59,555c4.18-9.07,4.9-17.78,4.7-31.85s-3.16-35.55-1.58-55.57,8.48-42.75,8.88-62.75-3-31.11-3.94-52.4-.43-30.94-.79-41.77" fill="none" stroke="#aa6f5b" stroke-linecap="round" stroke-linejoin="round" stroke-width="1.75"/><path d="M271.92,310.66s.31,22.42,1.78,40.1c1.44,17.35,4.93,37.59,5.72,53.33s-3.75,29.07-7.3,48.33a170.46,170.46,0,0,0-1.42,52.4c1.93,16.11,1.22,25.74,0,41.29s-9,13-12.45,33.52,1.64,40.55,7,55.55,9.41,22.59,10.59,47.22-.79,33.33-1.58,54.07-2.37,45-2.37,58.18" fill="none" stroke="#aa6f5b" stroke-linecap="round" stroke-linejoin="round" stroke-width="1.75"/><path d="M255.84,567.22c7-9.63,10-25.55,10-43.52s-2.56-35.18-2-52.4,6.9-38.89,8.88-56.48-2.35-36.41-3.73-57.52-1.79-46.65-1.79-46.65" fill="none" stroke="#aa6f5b" stroke-linecap="round" stroke-linejoin="round" stroke-width="1.75"/><path d="M277.64,310.66c-.39,10.74.06,23.67,1.87,40.84,1.78,17,5.63,38.7,5.43,56.85s-4.34,36.48-8.49,53.33-.38,33.33,1,53.14-1.18,29.26-1,40.18,8.88,17,9.86,43.6S279,632,277.64,642.77s4.14,32,4.34,50.37-1.58,43.15-2.47,60-1.87,41.52-1.87,41.52" fill="none" stroke="#aa6f5b" stroke-linecap="round" stroke-linejoin="round" stroke-width="1.75"/><path d="M282.77,310.66s.26,17.42,1.89,38.25c1.6,20.51,5.81,46.66,6.2,65s-9.47,50.74-9.27,63.33,2.17,24.26,3.16,35-2,24.81-2,37.78,7.89,22.78,9.67,45.55-7.1,40.74-7.52,46.85-.17,20.74,1.49,41.85-.28,34.44-1.07,51.48S283,781,282.77,794.66" fill="none" stroke="#aa6f5b" stroke-linecap="round" stroke-linejoin="round" stroke-width="1.75"/><path d="M288.1,310.66c0,28.47,6.51,70.47,7.89,96.39s-5.13,37.78-6.9,55.74,2.37,37,2.56,47.77-2.56,23.89-2.76,36.95S298,578,298.55,597.59s-6.11,36.66-7.3,44.63-1.58,17.78,0,33.89,1.18,35.74,0,54.07-3,53.18-3.16,64.48" fill="none" stroke="#aa6f5b" stroke-linecap="round" stroke-linejoin="round" stroke-width="1.75"/><path d="M299.43,438.16c4-19.44,2.21-34.32,0-55.37-2.22-21.29-5.33-41-6.11-72.14" fill="none" stroke="#aa6f5b" stroke-linecap="round" stroke-linejoin="round" stroke-width="1.75"/><path d="M297.37,447.23c-1.38,7.59-3.94,16.3-2.76,27.78s5.2,32.22,4,45.37-3.63,23.15-2,32.68,8.11,23.4,7.51,48.69-7.1,39.08-7.5,44.87" fill="none" stroke="#aa6f5b" stroke-linecap="round" stroke-linejoin="round" stroke-width="1.75"/><path d="M126.07,322a95.55,95.55,0,0,0,1.08-11.35" fill="none" stroke="#aa6f5b" stroke-linecap="round" stroke-linejoin="round" stroke-width="1.75"/><path d="M252.77,323.35s.81-7.46.81-12.7" fill="none" stroke="#aa6f5b" stroke-linecap="round" stroke-linejoin="round" stroke-width="1.75"/></g></g><rect id="828ba791-01e0-4c1b-84a6-28aa301b23a5" data-name="&lt;Rectangle&gt;" x="139.07" y="298.9" width="258" height="20.28" opacity="0.05"/><rect id="ab6140ce-99d3-44e7-8a49-68c409adc67a" data-name="&lt;Rectangle&gt;" x="131.32" y="298.9" width="273.5" height="11.41" rx="5.71" ry="5.71" fill="#b77d67"/><path id="a0df7c6f-b9a3-474e-8d58-0e03dd615989" data-name="&lt;Path&gt;" d="M305.28,166.76l.09-.09-.74-.74a17,17,0,0,0-2-2L291.73,153l-10.91,10.91a17,17,0,0,0-2,2l-.74.74.09.09a16.91,16.91,0,1,0,27.11,0Z" fill="#96d7ea"/><circle id="d342de20-76e4-4f50-a488-83770d4baabc" data-name="&lt;Path&gt;" cx="291.73" cy="177.36" r="10.13" fill="#b2e2ed"/><circle id="97d6005d-d0a0-4640-98c1-df887413aa1d" data-name="&lt;Path&gt;" cx="301.27" cy="174.66" r="3.77" fill="#fff"/><rect id="2720bda3-5666-40a7-90bf-5bfe31fec3f0" data-name="&lt;Rectangle&gt;" x="220.34" y="52.57" width="5.53" height="62.2" fill="url(#be631f85-bfe0-45c6-b98a-02e6c02d44c8)"/><circle id="d760d8e9-e33a-42f5-8d46-0d2eac395a9d" data-name="&lt;Path&gt;" cx="223.05" cy="144.18" r="12.23" fill="#fff"/><path id="118a71d1-7e18-442b-8246-f8eb14891c36" data-name="&lt;Path&gt;" d="M266.11,147.44h-86l6-22.77a20.73,20.73,0,0,1,20.05-15.48h34a20.73,20.73,0,0,1,20.05,15.48Z" fill="#ddd"/><rect id="055d1857-1380-4825-a7e8-bed616e7aa21" data-name="&lt;Rectangle&gt;" x="190.53" y="133.65" width="30.77" height="6.17" rx="3.08" ry="3.08" fill="#fff" opacity="0.2"/><rect id="51ba5456-c52d-45be-a0c0-a8cd95512f70" data-name="&lt;Rectangle&gt;" x="226.32" y="133.65" width="6.55" height="6.17" rx="3.08" ry="3.08" fill="#fff" opacity="0.2"/><path id="6ff83029-89a1-480f-bb11-86eb290ef832" data-name="&lt;Rectangle&gt;" d="M340.24,262.77h32.5a0,0,0,0,1,0,0v15.71a15.59,15.59,0,0,1-15.59,15.59h-1.32a15.59,15.59,0,0,1-15.59-15.59V262.77A0,0,0,0,1,340.24,262.77Z" fill="#f4f4f4"/><path id="4fc1acc6-4526-4f93-aace-d32b58463204" data-name="&lt;Rectangle&gt;" d="M335.41,292h42.17a0,0,0,0,1,0,0v0a6.9,6.9,0,0,1-6.9,6.9H342.31a6.9,6.9,0,0,1-6.9-6.9v0A0,0,0,0,1,335.41,292Z" fill="#e5e5e5"/><path id="bf46f5eb-9573-46b2-b45a-43132f5db8e3" data-name="&lt;Rectangle&gt;" d="M372.74,267.95h8.56a0,0,0,0,1,0,0v3.25a8.14,8.14,0,0,1-8.14,8.14h-.42a0,0,0,0,1,0,0V267.95A0,0,0,0,1,372.74,267.95Z" fill="#e5e5e5"/><rect id="e3679798-7452-4f32-acb1-dd848ec9b499" data-name="&lt;Rectangle&gt;" x="211.72" y="103.41" width="22.77" height="5.78" fill="#cecece"/><g id="0269416d-17b5-4fec-9a01-72d73b460a01" data-name="&lt;Group&gt;"><circle id="71906e09-4e12-402b-8fc0-919f1463494a" data-name="&lt;Path&gt;" cx="370.31" cy="179.1" r="26.42" fill="#fff" stroke="#4b9caf" stroke-miterlimit="10" stroke-width="5"/><circle id="1fa4d57f-d6f5-46a7-8335-b9356ac9d8f0" data-name="&lt;Path&gt;" cx="370.31" cy="179.1" r="18.38" fill="#edebeb"/><circle id="bd9d63fd-5940-4eb9-9703-16bcf745640d" data-name="&lt;Path&gt;" cx="370.31" cy="179.1" r="8.12" fill="#e2e0e0"/><line id="7ffbdba0-b180-47f9-816a-e8112886fa07" data-name="&lt;Path&gt;" x1="370.31" y1="179.68" x2="377.62" y2="187.63" fill="none" stroke="#4b9caf" stroke-linecap="round" stroke-linejoin="round" stroke-width="4"/><line id="80befe3f-1938-42b1-a7c9-1779aa7cf448" data-name="&lt;Path&gt;" x1="370.31" y1="170.57" x2="370.31" y2="179.68" fill="none" stroke="#4b9caf" stroke-linecap="round" stroke-linejoin="round" stroke-width="4"/></g><path id="33f9526d-6a62-41f1-bb16-764c7d00a865" data-name="&lt;Rectangle&gt;" d="M166.51,253.24h20.31a5.35,5.35,0,0,1,5.35,5.35V298.9a0,0,0,0,1,0,0h-31a0,0,0,0,1,0,0V258.59A5.35,5.35,0,0,1,166.51,253.24Z" fill="url(#2d69f7b2-f688-4424-8e38-42d51f9f59c6)"/><polygon id="c964d05a-2f81-402c-a5cb-5f6292f9beed" data-name="&lt;Path&gt;" points="156.24 298.9 176.66 298.9 176.66 276.03 170.31 276.03 156.24 298.9" fill="#a06657"/><rect id="cb55509a-c688-4ede-91aa-1fcd0df6b0e4" data-name="&lt;Rectangle&gt;" x="95.74" y="349.05" width="43.33" height="78.03" fill="#515151"/><path id="95d95235-fabc-4bf8-966c-12c4084e6ef5" data-name="&lt;Rectangle&gt;" d="M96.1,349h43a0,0,0,0,1,0,0v14a0,0,0,0,1,0,0h-43a4.34,4.34,0,0,1-4.34-4.34v-5.31A4.34,4.34,0,0,1,96.1,349Z" fill="#474747"/><rect id="c235994a-32ea-4bf9-83f8-1c1fb4adf89a" data-name="&lt;Rectangle&gt;" x="203.74" y="217.07" width="120.67" height="81.83" rx="8.8" ry="8.8" fill="#e3e3e3"/><path d="M315.61,217.07h-5.87a8.8,8.8,0,0,1,8.8,8.8V290.1a8.8,8.8,0,0,1-8.8,8.8h5.88a8.8,8.8,0,0,0,8.8-8.8V225.88A8.8,8.8,0,0,0,315.61,217.07Z" fill="#dbdbdb"/><path id="678f8a83-c9fe-4952-afef-3a999e274373" data-name="&lt;Path&gt;" d="M273.71,259.36a7.74,7.74,0,0,1-3.79-11.95,12.13,12.13,0,1,0,6.15,12.34A7.73,7.73,0,0,1,273.71,259.36Z" fill="#fff"/><g id="aba170e0-c8d8-4d62-b846-a370008e766f" data-name="&lt;Group&gt;" opacity="0.3"><rect id="d2184882-a338-4d1a-87bb-444d9ded8164" data-name="&lt;Rectangle&gt;" x="199.75" y="272.65" width="30.77" height="6.17" rx="3.08" ry="3.08" transform="translate(-60.6 490.86) rotate(-90)" fill="#fff"/><rect id="0b93da60-492b-494e-a8f4-0154e3fc4993" data-name="&lt;Rectangle&gt;" x="211.86" y="248.97" width="6.55" height="6.17" rx="3.08" ry="3.08" transform="translate(-36.92 467.19) rotate(-90)" fill="#fff"/></g><rect id="4e467efb-b33f-4372-b652-b47175d5b4df" data-name="&lt;Rectangle&gt;" x="103.82" y="370.07" width="9.83" height="48.33" rx="4.92" ry="4.92" fill="#474747"/><rect id="03ca8c19-9683-4dc8-865c-570d0fd3b68f" data-name="&lt;Rectangle&gt;" x="121.57" y="370.07" width="9.83" height="48.33" rx="4.92" ry="4.92" fill="#474747"/><g id="05cbbf9a-949e-4406-8eae-d69b04485500" data-name="&lt;Group&gt;"><rect id="401da2a9-ba3e-4933-86eb-65c499773695" data-name="&lt;Rectangle&gt;" x="342.35" y="276.43" width="9.12" height="4.03" rx="2.02" ry="2.02" transform="translate(68.47 625.36) rotate(-90)" fill="#fff"/><rect id="67b00e02-bfd5-4f1a-be8b-739558a54218" data-name="&lt;Rectangle&gt;" x="344.77" y="267.44" width="4.28" height="4.03" rx="2.02" ry="2.02" transform="translate(77.45 616.37) rotate(-90)" fill="#fff"/></g><path d="M356.49,225.39s-6.69,6.51,0,14.74,0,15.2,0,15.2" fill="none" stroke="#000" stroke-linecap="round" stroke-miterlimit="10" stroke-width="2.5" opacity="0.05"/><path d="M365.78,226.47s-6.69,6.28,0,14.2,0,14.65,0,14.65" fill="none" stroke="#000" stroke-linecap="round" stroke-miterlimit="10" stroke-width="2.5" opacity="0.05"/><path d="M349,252.88a10.3,10.3,0,0,1-1.77,2.33" fill="none" stroke="#000" stroke-linecap="round" stroke-miterlimit="10" stroke-width="2.5" opacity="0.05"/><path d="M347.2,228.78s-6.69,5.75,0,13" fill="none" stroke="#000" stroke-linecap="round" stroke-miterlimit="10" stroke-width="2.5" opacity="0.05"/></svg>