<svg id="5530b6c3-7909-4b15-8f7d-5c6da3f62e2d" data-name="Layer 1" xmlns="http://www.w3.org/2000/svg" xmlns:xlink="http://www.w3.org/1999/xlink" viewBox="0 0 528.15 528.15"><defs><linearGradient id="1b14f4b5-218e-49c4-9537-4937d17a29f4" x1="286.91" y1="217.82" x2="286.91" y2="204.98" gradientUnits="userSpaceOnUse"><stop offset="0" stop-color="#3a3a3a" stop-opacity="0"/><stop offset="0.25" stop-color="#3a3a3a" stop-opacity="0.14"/><stop offset="0.64" stop-color="#3a3a3a" stop-opacity="0.53"/><stop offset="1" stop-color="#3a3a3a"/></linearGradient><linearGradient id="177b3bd4-e907-44d1-838c-7822c174d810" x1="240.28" y1="217.82" x2="240.28" y2="204.98" xlink:href="#1b14f4b5-218e-49c4-9537-4937d17a29f4"/><clipPath id="d91bae75-24b5-4399-b42e-f590031969d3"><path d="M393.07,392.46V298.9h-258v93.71a14.86,14.86,0,0,0-11.47,14.46H405.27A14.86,14.86,0,0,0,393.07,392.46Z" fill="none"/></clipPath><linearGradient id="21487c68-885d-4720-b784-a0ee5377d746" x1="162.61" y1="292.4" x2="162.61" y2="278.74" xlink:href="#1b14f4b5-218e-49c4-9537-4937d17a29f4"/></defs><title>joaco - sitio web 2016 v02 - Export</title><circle cx="265.75" cy="263.44" r="264.07" opacity="0.05"/><path d="M39.33,399.41a264.13,264.13,0,0,0,452.83,0Z" opacity="0.05"/><rect id="6ff1ff0f-864e-46d6-9d28-eb8277779ee5" data-name="&lt;Rectangle&gt;" x="103.76" y="399.41" width="320.63" height="16.77" rx="8.39" ry="8.39" opacity="0.08"/><circle cx="323.79" cy="187.92" r="7.82" fill="#fff"/><circle cx="302.47" cy="182.52" r="4.56" fill="#fff"/><circle cx="313.59" cy="175.13" r="3.09" fill="#fff"/><circle cx="367.36" cy="182.52" r="3.09" fill="#fff"/><circle cx="347.07" cy="172.04" r="13.07" fill="#fff"/><circle cx="340.36" cy="67.49" r="7.96" fill="#fff"/><circle cx="438.32" cy="198.14" r="8.92" fill="#fff"/><path d="M289.82,311.51h-51.6a5.26,5.26,0,0,1-5.46-4.75L230.65,283h66.74l-2.11,23.76A5.26,5.26,0,0,1,289.82,311.51Z" fill="#3a3a3a"/><polygon points="290.9 335 237.14 335 234.87 284.46 293.17 284.46 290.9 335" fill="#3a3a3a"/><path d="M274.39,244.38l-10.37,1-10.37-1-17.9,3.82a11.43,11.43,0,0,0-9,11.21v27.88a8.47,8.47,0,0,0,8.71,8.21h24a4.67,4.67,0,0,0,3.57-1.62,1.34,1.34,0,0,1,2,0,4.67,4.67,0,0,0,3.57,1.62h24a8.47,8.47,0,0,0,8.71-8.21V259.41a11.43,11.43,0,0,0-9-11.21Z" fill="#3a3a3a"/><path d="M253.35,238.9h21.33a0,0,0,0,1,0,0V247a8.47,8.47,0,0,1-8.47,8.47h-4.39a8.47,8.47,0,0,1-8.47-8.47V238.9a0,0,0,0,1,0,0Z" fill="#f9bfa2"/><polygon points="222.71 310.2 201.81 307.39 205.22 285.59 226.11 288.41 222.71 310.2" fill="#feccae"/><polygon points="305.46 310.2 326.36 307.39 322.95 285.59 302.06 288.41 305.46 310.2" fill="#feccae"/><polygon points="219.83 353.88 205 353.88 201.81 307.39 222.71 310.2 219.83 353.88" fill="#feccae"/><path d="M221,372.2l-14.5-2.05a4,4,0,0,1-3.42-4.34l1.55-16.06,15.64-2.15,3.74,3.2a5.6,5.6,0,0,1,1.9,3.4l1.56,10a4,4,0,0,1-.48,2.61l-2,3.42A4,4,0,0,1,221,372.2Z" fill="#feccae"/><polygon points="308.34 353.88 323.17 353.88 326.36 307.39 305.46 310.2 308.34 353.88" fill="#feccae"/><path d="M307.2,372.2l14.5-2.05a4,4,0,0,0,3.42-4.34l-1.55-16.06-15.64-2.15-3.74,3.2a5.6,5.6,0,0,0-1.9,3.4l-1.56,10a4,4,0,0,0,.48,2.61l2,3.42A4,4,0,0,0,307.2,372.2Z" fill="#feccae"/><path d="M245.37,394h-2.7c-5.62,0-10.18-4.93-10.18-11V353.1a24.8,24.8,0,0,1,2.76-11.41l.61-1.18h25.39v36.34C261.25,386.33,254.14,394,245.37,394Z" fill="#424242"/><path d="M282.28,394H285c5.68,0,10.28-4.93,10.28-11V353.1a24.61,24.61,0,0,0-2.79-11.41l-.62-1.18H266.25v36.34C266.25,386.33,273.43,394,282.28,394Z" fill="#424242"/><rect x="234.97" y="333.03" width="58.2" height="7.47" rx="1.25" ry="1.25" fill="#424242"/><polygon points="301.01 288.55 322.95 285.59 318.92 259.77 296.97 262.73 301.01 288.55" fill="#3a3a3a"/><polygon points="228.71 288.76 205.22 285.59 209.29 259.78 232.79 262.94 228.71 288.76" fill="#3a3a3a"/><path d="M207.48,272.76l24,3.24,3.24-24-12.49-1.82a18.2,18.2,0,0,0-8,1.11A12.79,12.79,0,0,0,207.34,263Z" fill="#3a3a3a"/><path d="M320.69,272.76l-24,3.24-3.24-24,12.49-1.82a18.2,18.2,0,0,1,8,1.11A12.79,12.79,0,0,1,320.83,263Z" fill="#3a3a3a"/><rect x="256.61" y="340.5" width="14.23" height="22.94" fill="#424242"/><path id="253e1c4f-f91d-4d44-ba88-19a84f6c658f" data-name="&lt;Path&gt;" d="M263.64,245.52h-.09c-8.21,0-13.51-4.87-18.19-10.89C242,230.31,238,225.87,238,220V200.68a25.55,25.55,0,0,1,25.55-25.55h.09a25.55,25.55,0,0,1,25.55,25.55V220c0,5.9-4,10.34-7.36,14.66C277.15,240.65,271.85,245.52,263.64,245.52Z" fill="#feccae"/><ellipse id="676d0462-36c2-4d81-a3a1-06081ce51ef6" data-name="&lt;Path&gt;" cx="274.26" cy="209.74" rx="2.9" ry="2.55" fill="#5b5b5b"/><ellipse id="8741abc4-a879-4d7c-b9b5-64c5f75c983d" data-name="&lt;Path&gt;" cx="252.93" cy="209.74" rx="2.9" ry="2.55" fill="#5b5b5b"/><ellipse id="b18af83e-fe27-4b7b-a468-c9f21ebc7a5b" data-name="&lt;Path&gt;" cx="276.01" cy="216.14" rx="1.52" ry="3.59" transform="translate(33.11 468.93) rotate(-84.21)" fill="#f9bfa2"/><path id="19a14375-bc5c-43e6-925c-706d3cb2d731" data-name="&lt;Path&gt;" d="M266.89,231H260.3a.75.75,0,1,1,0-1.5h6.59a.75.75,0,1,1,0,1.5Z" fill="#eaa688"/><path d="M263.59,223.19h0a2.91,2.91,0,0,1-2.91-2.75L260,209.08a2.91,2.91,0,0,1,2.91-3.08h1.32a2.91,2.91,0,0,1,2.91,3.08l-.66,11.36A2.91,2.91,0,0,1,263.59,223.19Z" fill="#f9bfa2"/><rect x="258.3" y="218.95" width="7.45" height="4.24" rx="2.12" ry="2.12" fill="#f9bfa2"/><path d="M291.48,209.21h-2.28v10h1.3c2,0,3.65-1.78,4-4.26l.12-.78C295,211.61,293.52,209.21,291.48,209.21Z" fill="#f9bfa2"/><path d="M235.71,209.21H238v10h-1.3c-2,0-3.65-1.78-4-4.26l-.12-.78C232.14,211.61,233.67,209.21,235.71,209.21Z" fill="#f9bfa2"/><rect x="270.64" y="206.21" width="10.24" height="2.19" rx="1.01" ry="1.01" fill="#5b5b5b"/><rect x="246.81" y="206.21" width="10.24" height="2.19" rx="1.01" ry="1.01" fill="#5b5b5b"/><ellipse id="8d007ea2-3b8f-4582-9e26-c74a7d4a2965" data-name="&lt;Path&gt;" cx="251.08" cy="216.14" rx="3.59" ry="1.52" transform="translate(-20.54 26.45) rotate(-5.79)" fill="#f9bfa2"/><rect x="260.86" y="236.66" width="5.47" height="2" rx="0.8" ry="0.8" fill="#f9bfa2"/><path id="63af0cab-32dc-4ad8-9c12-c52d350d3e78" data-name="&lt;Path&gt;" d="M271,165.35H256.23c-10.07,0-18.24,10.57-18.24,21.15V205h4.56l.72-12.81A2.68,2.68,0,0,1,247,189.6l10.62,4.82a14.41,14.41,0,0,0,12,0l10.62-4.82a2.68,2.68,0,0,1,3.72,2.57l.72,12.81h4.56V184.49C289.19,173.92,281,165.35,271,165.35Z" fill="#3a3a3a"/><path d="M265,195.74h-1.92a15.06,15.06,0,0,1-13.32-8l-.78-1.49a1.25,1.25,0,0,1,1.28-1.83l5.73.81a3.15,3.15,0,0,0,2.61-.83l3.55-3.37a2.76,2.76,0,0,1,3.8,0l3.55,3.37a3.15,3.15,0,0,0,2.61.83l5.73-.81a1.25,1.25,0,0,1,1.28,1.83l-.78,1.49A15.06,15.06,0,0,1,265,195.74Z" fill="#333"/><polygon points="289.19 217.82 285.38 217.82 284.63 204.98 289.19 204.98 289.19 217.82" fill="url(#1b14f4b5-218e-49c4-9537-4937d17a29f4)"/><polygon points="238 217.82 241.81 217.82 242.56 204.98 238 204.98 238 217.82" fill="url(#177b3bd4-e907-44d1-838c-7822c174d810)"/><path d="M393.07,392.46V298.9h-258v93.71a14.86,14.86,0,0,0-11.47,14.46H405.27A14.86,14.86,0,0,0,393.07,392.46Z" fill="#b47860"/><g opacity="0.5"><g clip-path="url(#d91bae75-24b5-4399-b42e-f590031969d3)"><path d="M321.39,619.87c2.37-18.05,6.16-23.21-5.09-74.59S303,448.9,312.16,403.62s5.62-69.77,5.62-93" fill="none" stroke="#aa6f5b" stroke-linecap="round" stroke-linejoin="round" stroke-width="1.75"/><path d="M323.78,378.9c3-40.83,0-51.27,0-68.25" fill="none" stroke="#aa6f5b" stroke-linecap="round" stroke-linejoin="round" stroke-width="1.75"/><path d="M321.93,389.46s-7.69,41.11-8.28,65,1.48,53.61,8.28,90.27,10.06,32.22,4.44,76.38-4.92,55-5,69.44-3,16.11-2.13,31.94,4.59,13.61,4.51,31.11,0,41.06,0,41.06" fill="none" stroke="#aa6f5b" stroke-linecap="round" stroke-linejoin="round" stroke-width="1.75"/><path d="M330.51,310.66c1.59,26,3,55.09-5.38,101.33s-5.86,82.19,1.24,123,12.43,40,5.92,93.88-4.74,54.72-4.74,65,7.86,17,7.68,26.66-5.88,15.55-6,26.11.48,32.07,1.27,48" fill="none" stroke="#aa6f5b" stroke-linecap="round" stroke-linejoin="round" stroke-width="1.75"/><path d="M335.23,310.66s2.95,43.25,0,80.47-9.75,36.94-8.86,75.13,5,57.08,8.86,79,9.78,27.5,6.23,58.61-9.59,43.21-8.28,82.77c0,0-.2,12.13,3.65,21.29s4.24,16.3.3,28-3.55,26.2-3.35,31.76,1.47,27,1.47,27" fill="none" stroke="#aa6f5b" stroke-linecap="round" stroke-linejoin="round" stroke-width="1.75"/><path d="M341.35,310.66c1.19,12.4,2.47,65.47-2.86,99.63s-7.68,44.11-5.46,70.13c3.25,38.19,8.71,64,11.08,72.91s7.1,30,3.25,50.83-8,45.55-7.4,68.88,1,25.46,2.57,32.87,5.32,10.55,2.56,26.29.59,48.37,2,62.44" fill="none" stroke="#aa6f5b" stroke-linecap="round" stroke-linejoin="round" stroke-width="1.75"/><path d="M347.07,310.66c.69,12.41,3.25,49.31.44,75.89-1.38,13-8.14,49.58-9,63.47s2.07,43.33,4.05,58.33,11.33,53.89,11.93,75.27-5.62,30.83-7.59,52.22-.39,37.31,0,49.16,4.93,23.05,4.93,36-1.18,11.62-2,27,2.86,46.7,2.86,46.7" fill="none" stroke="#aa6f5b" stroke-linecap="round" stroke-linejoin="round" stroke-width="1.75"/><path d="M346.42,471.4a148.56,148.56,0,0,1,0-50.27" fill="none" stroke="#aa6f5b" stroke-linecap="round" stroke-linejoin="round" stroke-width="1.75"/><path d="M352.7,310.66a462.52,462.52,0,0,1,1.81,70.47c-2,37.57-9.24,55,1.87,93s8.74,67.22,7.56,85.55-8.28,42.5-4.14,88.61,10.81,40.83,7.1,88.61c-2.24,28.89,2.07,57.72,2.07,57.72" fill="none" stroke="#aa6f5b" stroke-linecap="round" stroke-linejoin="round" stroke-width="1.75"/><path d="M358,566.56c2.76-29.44-1.34-87.67-9.21-87.66-5.36,0-2.34,18.69,0,31.09" fill="none" stroke="#aa6f5b" stroke-linecap="round" stroke-linejoin="round" stroke-width="1.75"/><path d="M353.34,537.64c1.17-15.34-2.12-38.93-2.12-38.93" fill="none" stroke="#aa6f5b" stroke-linecap="round" stroke-linejoin="round" stroke-width="1.75"/><path d="M362.76,310.66c1.59,16.24,3.85,44.64,0,74.91s-8.45,60.83.21,90.55,11.33,53.05,6,99.72-4.44,59.16-1.48,82.77,8.28,39.16,5.62,82.77c0,0-2.69,19.67.72,53.28" fill="none" stroke="#aa6f5b" stroke-linecap="round" stroke-linejoin="round" stroke-width="1.75"/><path d="M369,310.66s3.85,50.75-1.48,84.08-3.25,59.44,1.48,76.66S379,498.89,379,528.89s-7.29,65.55-7.34,96.38,7.64,54.57,8.53,81.45-1.78,48.45-2.07,62.8a215,215,0,0,0,.89,25.13" fill="none" stroke="#aa6f5b" stroke-linecap="round" stroke-linejoin="round" stroke-width="1.75"/><path d="M396.19,421.12c-3.85-22.22-11.12-38.1-14.79-59.3S379.81,329,379,310.66" fill="none" stroke="#aa6f5b" stroke-linecap="round" stroke-linejoin="round" stroke-width="1.75"/><path d="M372.37,399.18a195.09,195.09,0,0,0,3.11-41.11c-.43-11.81-.71-36.73-1.64-47.42" fill="none" stroke="#aa6f5b" stroke-linecap="round" stroke-linejoin="round" stroke-width="1.75"/><path d="M379.47,381.12c.89,4.17,5.33,18.05,5.33,18.05" fill="none" stroke="#aa6f5b" stroke-linecap="round" stroke-linejoin="round" stroke-width="1.75"/><path d="M378.73,402.23c-5.33.56-11.24,12.78-8,42.5s10.06,41.39,13.31,41.66,10.95-35.55,10.36-50.55C393.54,413.61,384.06,401.68,378.73,402.23Z" fill="none" stroke="#aa6f5b" stroke-linecap="round" stroke-linejoin="round" stroke-width="1.75"/><path d="M382.35,428.62C381.24,432,383.47,452,386.54,452s4.32-40.28-6.15-39.16,1,56.94,1,56.94" fill="none" stroke="#aa6f5b" stroke-linecap="round" stroke-linejoin="round" stroke-width="1.75"/><path d="M376.22,618.69c-.2-19,4.73-41.21,5.91-55.91,1.76-21.92,1.93-47.68,1.93-47.68.3-14.91-3.67-25.09-3.67-25.09" fill="none" stroke="#aa6f5b" stroke-linecap="round" stroke-linejoin="round" stroke-width="1.75"/><path d="M395.48,473.62s-5.5,20.83-5.73,38.05-1.41,45.4-5.64,71.65c-3.47,21.5-6.32,43.14-1.24,87.23,6.37,55.29,3.85,59.16,3,79.72s0,44.39,0,44.39" fill="none" stroke="#aa6f5b" stroke-linecap="round" stroke-linejoin="round" stroke-width="1.75"/><path d="M399.15,446.26s1.48,35-1.78,52.45-1.48,42.13-4.73,62.68-7.17,44.72-5.51,84.16,7.34,56.11,6,82.22-.59,58.55,0,66.89" fill="none" stroke="#aa6f5b" stroke-linecap="round" stroke-linejoin="round" stroke-width="1.75"/><path d="M393.11,608.33c.17-13.05,4.56-41.39,4.56-41.39s8.28-64.72,6.21-115.83-12.56-60.17-16.75-88.37c-3.66-24.63-.4-36.82-1.3-52.09" fill="none" stroke="#aa6f5b" stroke-linecap="round" stroke-linejoin="round" stroke-width="1.75"/><path d="M390.09,334.18c0,7.7,1.48,19.45,3.75,30.6,4.59,22.64,10.8,32.62,13.9,71s1.79,61.77,0,84.27-6.42,62.22-8.1,76.11-5.82,30-2.56,58.61,7.17,31.66,7.14,60.27,1.15,79.66,1.15,79.66" fill="none" stroke="#aa6f5b" stroke-linecap="round" stroke-linejoin="round" stroke-width="1.75"/><path d="M404.21,596.13s10.22-72,10.22-111.13-2-66.66-11.14-103.88a378.3,378.3,0,0,1-10.18-70.47" fill="none" stroke="#aa6f5b" stroke-linecap="round" stroke-linejoin="round" stroke-width="1.75"/><path d="M399.48,310.66A379.52,379.52,0,0,0,408.22,375c7.69,33.33,11,71.11,11,92.77s-1.26,59.72,1,84.44,10.54,53.33,10.84,85.27-9.68,54.91-12.23,68.24c-2.67,14-2.56,58.74-1.58,88.92" fill="none" stroke="#aa6f5b" stroke-linecap="round" stroke-linejoin="round" stroke-width="1.75"/><path d="M405.36,310.66c.36,12.15,5.82,67.69,13.12,68.25s-1.38-44.23-1.18-68.25" fill="none" stroke="#aa6f5b" stroke-linecap="round" stroke-linejoin="round" stroke-width="1.75"/><path d="M411,315.76s2.55,31.29,6.1,49.63" fill="none" stroke="#aa6f5b" stroke-linecap="round" stroke-linejoin="round" stroke-width="1.75"/><path d="M418.87,412.77c.79-21.46-3.94-30.53-3.94-30.53" fill="none" stroke="#aa6f5b" stroke-linecap="round" stroke-linejoin="round" stroke-width="1.75"/><path d="M425.54,310.66s2.79,36.21.63,62.88-4.34,38.33-2.37,63.7,4.73,26.48,6.51,58.14-.39,38.15,2.37,61.11,6.31,59.26,5.72,76.85-6.71,46.29-9.47,72.4.28,50.92,1.82,68,1.34,21,1.34,21" fill="none" stroke="#aa6f5b" stroke-linecap="round" stroke-linejoin="round" stroke-width="1.75"/><path d="M433.76,614.72s-5-35.65-7.4-49.16A275.88,275.88,0,0,1,423,518.61c.38-12.68.8-43.79,0-58.05" fill="none" stroke="#aa6f5b" stroke-linecap="round" stroke-linejoin="round" stroke-width="1.75"/><path d="M427.16,504.26s-.15,34.07,1.21,46.11" fill="none" stroke="#aa6f5b" stroke-linecap="round" stroke-linejoin="round" stroke-width="1.75"/><path d="M432.09,310.66s2.86,41.76-1,75.5-.3,52.19,2.66,70.8,3.25,42.13,3,58.14,2.66,48.45,4.44,68.48S448.7,623,438.46,683a294.84,294.84,0,0,0-3.22,67.77c2.66,36.39,3.48,36.33,3.22,43.83" fill="none" stroke="#aa6f5b" stroke-linecap="round" stroke-linejoin="round" stroke-width="1.75"/><path d="M438.46,310.66s2.93,36,0,68.25-5.34,30.55-.28,67.35,3.87,52.91,4.16,72.36,9.47,74.44,9.17,111.66-5,43.33-8.13,67.77-3.71,34.16-2.82,51.66,4.38,31.89,3.82,44.94" fill="none" stroke="#aa6f5b" stroke-linecap="round" stroke-linejoin="round" stroke-width="1.75"/><path d="M441.75,425.84c-2.07-29.16,2.37-21.94,5.62-42.5S450,310.66,450,310.66" fill="none" stroke="#aa6f5b" stroke-linecap="round" stroke-linejoin="round" stroke-width="1.75"/><path d="M442.34,386.68c4.14-29.44,2-76,2-76" fill="none" stroke="#aa6f5b" stroke-linecap="round" stroke-linejoin="round" stroke-width="1.75"/><path d="M448.82,400.57c-3.14.69-3.81,4.72-3.07,18.33s4,21,5.78,20.83,5.61-1.53,5-17.78S452.76,399.7,448.82,400.57Z" fill="none" stroke="#aa6f5b" stroke-linecap="round" stroke-linejoin="round" stroke-width="1.75"/><path d="M449.59,421.19s.59,16,3,12.29S451,408.9,451,408.9" fill="none" stroke="#aa6f5b" stroke-linecap="round" stroke-linejoin="round" stroke-width="1.75"/><path d="M452.7,445.35c-1.66,8.27-2.51,15.08-6.07,14s-4.29-28.05-4.29-28.05" fill="none" stroke="#aa6f5b" stroke-linecap="round" stroke-linejoin="round" stroke-width="1.75"/><path d="M451,534.73s-5.15-33.05-2.22-55.83,12.76-27.5,13.05-53-7.69-31.39-7.1-56.52,2.37-58.67,2.37-58.67" fill="none" stroke="#aa6f5b" stroke-linecap="round" stroke-linejoin="round" stroke-width="1.75"/><path d="M464.24,310.66s-2.28,36.69-2.36,48.67a167.12,167.12,0,0,0,3,33.79c2.22,12.22,4.72,16.9,4.72,35.37s-5,30.83-10.5,47.36-3.55,38.61-2.07,55.55,4.29,41.52,5.92,68.47.59,58.47-1.18,75.83S453,710.13,450,717.21,445.3,731,448.26,745s9.76,15.55,13.46,28.89,2.51,20.78,2.51,20.78" fill="none" stroke="#aa6f5b" stroke-linecap="round" stroke-linejoin="round" stroke-width="1.75"/><path d="M470.55,310.66c0,15.45-2.95,26.54.14,62.14,3.77,43.59,7.46,41.39,4.2,73.47s-12.11,32.27-13,58,5.72,49.07,7.15,76,1.43,70.83,3.5,95.27,6.71,39.07,9.86,48.14,7.5,13,4.73,28.33-5.52,24.3-4.93,42.63" fill="none" stroke="#aa6f5b" stroke-linecap="round" stroke-linejoin="round" stroke-width="1.75"/><path d="M481.47,431.26c.54-20.68-2.67-46.46-3.87-69.3-1.18-22.56-.34-42.24-.94-51.3" fill="none" stroke="#aa6f5b" stroke-linecap="round" stroke-linejoin="round" stroke-width="1.75"/><path d="M474.9,481.49c-3.16.74-8.69,10.18-8.29,24.44.31,11.29,6.11,23.15,10.65,23.15s9.66-22.22,9.66-34.63S478.06,480.75,474.9,481.49Z" fill="none" stroke="#aa6f5b" stroke-linecap="round" stroke-linejoin="round" stroke-width="1.75"/><path d="M479.43,511.86c1.38-4.81,4.93-30.18-2.67-24.07s-5.41,26.11,0,32.78" fill="none" stroke="#aa6f5b" stroke-linecap="round" stroke-linejoin="round" stroke-width="1.75"/><path d="M475.76,503.7s-.62-7.21,1.86-8.88" fill="none" stroke="#aa6f5b" stroke-linecap="round" stroke-linejoin="round" stroke-width="1.75"/><path d="M473.11,477.41a17.08,17.08,0,0,1,1.71-7.68" fill="none" stroke="#aa6f5b" stroke-linecap="round" stroke-linejoin="round" stroke-width="1.75"/><path d="M486.87,687.08c-1.3-20.55-3.7-63.19-4.29-83.75s-6.71-51.66.39-70.74,9.07-33.89,8.48-43.7-7.69-9.63-10.95-15.92,1.08-27,1-36.29" fill="none" stroke="#aa6f5b" stroke-linecap="round" stroke-linejoin="round" stroke-width="1.75"/><path d="M498.21,671.34A380.89,380.89,0,0,0,495,626.46c-1.94-14.58-4.32-20.72-5.1-40.16s10.27-50.74,12.44-65.74,2.56-37,1.38-53.51-3-52.59-3.75-67.87-2.85-63.11.39-88.52" fill="none" stroke="#aa6f5b" stroke-linecap="round" stroke-linejoin="round" stroke-width="1.75"/><path d="M483.63,462c-.92,7.41,2.7,14.81,6.2,12.59s.25-27-1.83-45.92-2.66-45.55-3.84-65-.38-34.74-2-53.06" fill="none" stroke="#aa6f5b" stroke-linecap="round" stroke-linejoin="round" stroke-width="1.75"/><path d="M485.43,572.36A145.94,145.94,0,0,1,488,544.45c2.87-14.58,9.08-27.73,9.82-49.63s-1.63-48-2.81-60.77-2.61-53.57-3.32-72.09" fill="none" stroke="#aa6f5b" stroke-linecap="round" stroke-linejoin="round" stroke-width="1.75"/><path d="M490.08,310.66c1.61,13,1.61,44.92,1.61,44.92" fill="none" stroke="#aa6f5b" stroke-linecap="round" stroke-linejoin="round" stroke-width="1.75"/><path d="M507.29,310.66c-1.91,20.55-1.92,51.44-1.92,62.83s1,50.27,1.81,61.38,2.78,42.36,3.81,56.94-.15,30.41-1.33,42.91-8,28.75-9.17,39.86,4,28.61,5.18,40.14,2.22,39.72,3,54,1.92,31.8,4.24,42.5.64,18.75-.09,23.84-1.18,12.13,0,30.88.89,28.7.89,28.7" fill="none" stroke="#aa6f5b" stroke-linecap="round" stroke-linejoin="round" stroke-width="1.75"/><path d="M526.76,549.84a96.85,96.85,0,0,1-5.92-15.94c-4.93-18.7-6.51-99.62-6.81-118.51s-1.57-73.35-.39-104.73" fill="none" stroke="#aa6f5b" stroke-linecap="round" stroke-linejoin="round" stroke-width="1.75"/><path d="M526.76,528.81a138.23,138.23,0,0,1-2.47-18c-3.25-40.8-3-174.36-4-200.18" fill="none" stroke="#aa6f5b" stroke-linecap="round" stroke-linejoin="round" stroke-width="1.75"/><path d="M359.65,366.54c.84-16-.35-35.47-2.51-55.89" fill="none" stroke="#aa6f5b" stroke-linecap="round" stroke-linejoin="round" stroke-width="1.75"/><path d="M301.71,455.49c-.59,4.17-.59,13.33-.59,13.33.79,14.63,2.5,31.48,3.65,40.74s4.24,27.41,8,43.1,7.18,36.17,6.51,45.23c-.7,9.41-4.74,29.26-5.62,41.66s-1.54,28.15-1.28,36.66c.39,12.9-3.75,26.66-3.55,41.56.14,10.45,2.67,25.2,3.75,34.64s-.48,30.18-.59,42.24" fill="none" stroke="#aa6f5b" stroke-linecap="round" stroke-linejoin="round" stroke-width="1.75"/><path d="M312,370.8c1-15.62,0-60.15,0-60.15" fill="none" stroke="#aa6f5b" stroke-linecap="round" stroke-linejoin="round" stroke-width="1.75"/><path d="M307.46,400.49s2.83-11.75,1.05-21.58-2.11-68.25-2.11-68.25" fill="none" stroke="#aa6f5b" stroke-linecap="round" stroke-linejoin="round" stroke-width="1.75"/><path d="M302.59,535.67a77.84,77.84,0,0,0,.5-12.68" fill="none" stroke="#aa6f5b" stroke-linecap="round" stroke-linejoin="round" stroke-width="1.75"/><path d="M303.78,367.79c-1.7-21-3.4-34.89-3.4-57.14" fill="none" stroke="#aa6f5b" stroke-linecap="round" stroke-linejoin="round" stroke-width="1.75"/><path d="M42.73,528.81c4.51,21,11.92,19.72,11.44,43.55-.38,18.6-7.1,20.55-4.14,54.09s10.06,62.7,9.47,94.65-3.85,52.16-2.66,73.55" fill="none" stroke="#aa6f5b" stroke-linecap="round" stroke-linejoin="round" stroke-width="1.75"/><path d="M42.73,310.66c0,.07,2,48,2.27,93s1.18,108.51,5.92,127.86,10.13,21.94,9.8,43.15-7.43,17.41-4.77,50,7.1,37,9.47,85.09-2.37,41.61,0,84.94" fill="none" stroke="#aa6f5b" stroke-linecap="round" stroke-linejoin="round" stroke-width="1.75"/><path d="M50.19,370.8c1.88-21.11-.14-42.25-1.05-60.15" fill="none" stroke="#aa6f5b" stroke-linecap="round" stroke-linejoin="round" stroke-width="1.75"/><path d="M65.41,310.66c.68,8.54.2,38.62-.79,49.17s-5.13,15.92-5.09,27.59,4.9,15.18,6.57,25.74.8,24.07,0,54.14,5.23,102.15,4.05,128.83-6.8,28-6.8,45.11,8.58,52,9,80.7-1.33,52.58,0,72.7" fill="none" stroke="#aa6f5b" stroke-linecap="round" stroke-linejoin="round" stroke-width="1.75"/><path d="M65.11,601.82c.15,5.12-.67,20.54-4.4,20.54-2.55,0-1.38-17.14.8-25.34s3.34-11.88,3.62-25.21-1.64-44.3-2.24-56.52-3-36.53-2.18-61.66.48-31.25-1.18-39.72-6.1-13.75-6.1-24.58c0-17.08,3.89-24.06,4.88-33.75,1.79-17.41-1.17-33.53-1.48-44.92" fill="none" stroke="#aa6f5b" stroke-linecap="round" stroke-linejoin="round" stroke-width="1.75"/><path d="M58,533.34s-2.81-29.11-4-46.5-1.18-25.72-1.33-37.11,1.23-27-1.44-44" fill="none" stroke="#aa6f5b" stroke-linecap="round" stroke-linejoin="round" stroke-width="1.75"/><path d="M72.36,310.66c.45,9.86-.15,38.11-.9,50.2-.59,9.63-5.38,14.16-5.49,25.46-.15,15.56,6.92,15.92,7.91,23.52s-.79,64.06-.2,89.43,2.56,57.41,2.37,81.3-.93,33.7-3.62,41.11-8.81,22.76,3,52c10.06,25,8.16,50,8.36,72.22s.79,48.74.79,48.74" fill="none" stroke="#aa6f5b" stroke-linecap="round" stroke-linejoin="round" stroke-width="1.75"/><path d="M77,372.61c-4.34.19-5.92,6.48-6.11,13.8s2.56,15.18,6.11,15,6.51-6.39,6.41-13.52S82.37,372.38,77,372.61Z" fill="none" stroke="#aa6f5b" stroke-linecap="round" stroke-linejoin="round" stroke-width="1.75"/><path d="M76.06,378.72c-1.28,3-2.28,17.41,1.13,17.31s2.12-11.57,2.12-11.57" fill="none" stroke="#aa6f5b" stroke-linecap="round" stroke-linejoin="round" stroke-width="1.75"/><path d="M78.82,310.66c.06,16.94-2.35,46.65.73,53.39,4,8.81,8.34,11.34,8.34,23s-8.4,19-8.34,27.59S79,467.51,79,485.7s1.63,67.77,2.22,79.3,1.33,31.39-.59,43.47-8.2,21.67-7,38.61c1.57,21.37,10.15,29.44,12.17,38.47s3,31.94,3.2,42.36.91,66.75.91,66.75" fill="none" stroke="#aa6f5b" stroke-linecap="round" stroke-linejoin="round" stroke-width="1.75"/><path d="M84.54,310.66c.7,16.66-2.16,35.89.9,48.29,2.23,9.06,7.76,12.87,7.76,27s-7.08,21.94-7.38,35.49c-.23,10.76-.3,60.2-.3,81.31s3,104.44,5.72,112,7.1,12.41,7.69,31.85-5.31,28.52-5.32,37.4,0,23.94.93,44.45c1,20.2,1.82,52.07,1.43,66.14" fill="none" stroke="#aa6f5b" stroke-linecap="round" stroke-linejoin="round" stroke-width="1.75"/><path d="M91.59,427.51c.74-17.36,7-26.66,7.39-41.8s-2.85-16.79-6.54-30.14C88.7,342,90.34,331.3,90,310.66" fill="none" stroke="#aa6f5b" stroke-linecap="round" stroke-linejoin="round" stroke-width="1.75"/><path d="M91.74,436.68s-.59,38.61,0,56.25.59,62.91,1.48,78.74S95,601.8,98,612.91s6.21,16.94,6.51,34.72S100,676.94,99.88,690s-.15,25.69.89,44.16,2.66,45.08,2.66,60.5" fill="none" stroke="#aa6f5b" stroke-linecap="round" stroke-linejoin="round" stroke-width="1.75"/><path d="M99,560.37s-.63-45.37-1-61.11-1-32.4-1-51.66,4.14-37.78,6.51-50,3-25-2.76-38.15-4.93-42.69-4.73-48.8" fill="none" stroke="#aa6f5b" stroke-linecap="round" stroke-linejoin="round" stroke-width="1.75"/><path d="M102.29,451.48a187.43,187.43,0,0,1,5.92-45.73c4.15-15,3.6-34.33,0-49.21s-4.59-34-4.78-45.89" fill="none" stroke="#aa6f5b" stroke-linecap="round" stroke-linejoin="round" stroke-width="1.75"/><path d="M103.28,511.67c.3,9.17,1.18,73.55,5.33,94,0,0,1.47,8.18,4.14,17.48,2.43,8.46,6.71,18.89,7.1,40.09s-.2,37.5,0,54.72,1.38,53.18,1.58,76.7" fill="none" stroke="#aa6f5b" stroke-linecap="round" stroke-linejoin="round" stroke-width="1.75"/><path d="M108.7,433.59s1.88-11.73,2.79-15.43,4.81-20,5-35-1.38-25.74-3.75-38S110,322.87,110,310.66" fill="none" stroke="#aa6f5b" stroke-linecap="round" stroke-linejoin="round" stroke-width="1.75"/><path d="M115.9,310.66c.2,8.15,1.18,29.18,3.16,44.36a229.1,229.1,0,0,1,1.78,43.7c-.79,15.92-6.11,32.78-11.24,45.74s-7.3,28.15-6.31,39.44,8.09,40.55,10.65,51.48,5.52,35.18,3.16,48.14-4.54,20.37-2.17,29.63,10.26,26.29,10.65,38.52,0,41.64,0,53.23,1.78,80,1.58,89.77" fill="none" stroke="#aa6f5b" stroke-linecap="round" stroke-linejoin="round" stroke-width="1.75"/><path d="M121.43,310.66c.2,10.93,1.78,32.32,3.35,48.25s3.35,32.41,1,50.74-11.4,37.4-14.28,49.81-3.27,28,1.85,49.81,9.27,39.63,9.86,55.37-5.37,33-5.05,41,11.17,26.37,12.74,37.85a142.94,142.94,0,0,1,1.38,20.37" fill="none" stroke="#aa6f5b" stroke-linecap="round" stroke-linejoin="round" stroke-width="1.75"/><path d="M133.66,310.66c-.39,6.3-5.31,10.15-4.54,27.51.63,14.07,3.75,25.28,4.14,49.21s-6.71,45.6-10.85,55.78a93.8,93.8,0,0,0-7.31,40.18c.6,17.22,6.32,35,9.87,50s5.13,31.85,3.35,46.48-5.78,23.7-4.17,30.18S136.81,632.4,137,642.77s1.38,29.26,1.58,46.85.2,30.37,0,43.89.79,45.59,1.18,61.15" fill="none" stroke="#aa6f5b" stroke-linecap="round" stroke-linejoin="round" stroke-width="1.75"/><path d="M132.28,445c-9.85,1.11-14,34.81-11.45,50.18s3.95,12.78,8.68,15.18,5.72,19.44,11.24,19.26,7.87-21.66,8.28-45C149.38,465.43,142.14,443.9,132.28,445Z" fill="none" stroke="#aa6f5b" stroke-linecap="round" stroke-linejoin="round" stroke-width="1.75"/><path d="M132.28,462.79c-2.75,26.29,3.25,53.14,8.47,53.14,4.34,0,1.8-64.92-7.1-64.44-8,.43-10.55,37.95-5.52,51.14" fill="none" stroke="#aa6f5b" stroke-linecap="round" stroke-linejoin="round" stroke-width="1.75"/><path d="M138.19,499.82a157.75,157.75,0,0,0-2-24.81" fill="none" stroke="#aa6f5b" stroke-linecap="round" stroke-linejoin="round" stroke-width="1.75"/><path d="M136.22,408.24c0,15.18-6.8,24.7-4.58,28.59s7.05,5.74,8.53,3.89-3.34-11.85-3.34-11.85" fill="none" stroke="#aa6f5b" stroke-linecap="round" stroke-linejoin="round" stroke-width="1.75"/><path d="M139.77,310.66c-.48,8.24-6.81,14.59-5.72,27.51,1,11.33,5.13,25.55,5.72,39.44s-1,30.17,3.94,53.69,11.44,32.41,10.85,61.3-3.75,33.15-7.5,43.52-5.14,19.26-2.86,34.63,12.53,31.48,13.71,46.29-5.33,27-4.93,35.55,1,36.66,1.38,56.48.79,68.18,1.58,85.59" fill="none" stroke="#aa6f5b" stroke-linecap="round" stroke-linejoin="round" stroke-width="1.75"/><path d="M127.41,515.93c6.78,22.11,7.43,37,11.38,60.37S152,599.81,153,618s-3.35,16.85-5.13,27.78.59,33.89,1.18,60.74,1.38,71,2,88.18" fill="none" stroke="#aa6f5b" stroke-linecap="round" stroke-linejoin="round" stroke-width="1.75"/><path d="M160.68,492.78c0-11-1.33-28.05-4.29-41.3s-8-26.06-9.32-39.11,0-28.75-1.13-39.16-6.11-23.33-7.15-34.16,6.21-19.78,6.71-28.39" fill="none" stroke="#aa6f5b" stroke-linecap="round" stroke-linejoin="round" stroke-width="1.75"/><path d="M160.68,501.26c0,5.14-1.92,22.08-4.59,31s-7.06,13.05-6.42,25.55,6.86,32.61,10,40.82S165.71,616.66,165,626s-5.33,19.86-6.07,31.11.89,41.8.89,41.8" fill="none" stroke="#aa6f5b" stroke-linecap="round" stroke-linejoin="round" stroke-width="1.75"/><path d="M145,327.07c4-2,9.62,2.11,9.62,2.11-2.51-3.83-3-12-3.6-18.53" fill="none" stroke="#aa6f5b" stroke-linecap="round" stroke-linejoin="round" stroke-width="1.75"/><path d="M148.7,331c-4.59,0-6.8,3.47-6.21,8.54s3.55,9.24,7.2,8.54,5.23-1.81,6.12-6.94S152.59,331,148.7,331Z" fill="none" stroke="#aa6f5b" stroke-linecap="round" stroke-linejoin="round" stroke-width="1.75"/><path d="M145.93,338.16c0,3.38.25,7.13,3.87,6.57s3.33-8.33,0-10" fill="none" stroke="#aa6f5b" stroke-linecap="round" stroke-linejoin="round" stroke-width="1.75"/><path d="M150.62,355.83c1.33-3.75-4.44-3.75-4.68-2.08s2.61,5.28,3.22,10" fill="none" stroke="#aa6f5b" stroke-linecap="round" stroke-linejoin="round" stroke-width="1.75"/><path d="M163.49,685.55c-.74-12.36-.89-32.22,3.55-47.22a59.81,59.81,0,0,0,0-35.55c-2.66-9.17-7.25-21-9.69-37.5s1-20.28,4.66-34.16,4.88-35.83,3.7-52.91-4-28.33-7.65-44.44-4.92-24-5.08-33.15-.29-22,.31-30.46,5.77-20.69,7.4-30.58-3.44-18.92-4.73-28.91" fill="none" stroke="#aa6f5b" stroke-linecap="round" stroke-linejoin="round" stroke-width="1.75"/><path d="M158.9,364.83c12.88-34.93,4.33-40,4.25-52" fill="none" stroke="#aa6f5b" stroke-linecap="round" stroke-linejoin="round" stroke-width="1.75"/><path d="M168.74,323.35a102.23,102.23,0,0,1,1.41-12.7" fill="none" stroke="#aa6f5b" stroke-linecap="round" stroke-linejoin="round" stroke-width="1.75"/><path d="M168.07,461.94c-2.13-20.14-9.37-43.41-10-63.22s3.6-30.18,8.11-44.81,7.73-34.63,7.73-41.11" fill="none" stroke="#aa6f5b" stroke-linecap="round" stroke-linejoin="round" stroke-width="1.75"/><path d="M163.83,578.33c-2.56-13.33-3.55-28.52,3.35-48.7S172.71,472,172.71,472c-.39-27.78-9.47-56.11-10.18-73.51s5.44-35.18,9.19-46.66,5.23-27.69,6-41.21" fill="none" stroke="#aa6f5b" stroke-linecap="round" stroke-linejoin="round" stroke-width="1.75"/><path d="M178.63,472.85c-.79-19.93-4.34-26.18-7.3-45.34S167,385.94,172.51,367s12-33.19,11-54.16" fill="none" stroke="#aa6f5b" stroke-linecap="round" stroke-linejoin="round" stroke-width="1.75"/><path d="M178.63,482.23c0,9.44.2,24.63-4.34,40.92s-6.71,19.63-7.1,38.15,8.09,38.4,8.48,62.62-.59,34.22-7.1,49.78" fill="none" stroke="#aa6f5b" stroke-linecap="round" stroke-linejoin="round" stroke-width="1.75"/><path d="M191.65,310.66c0,9.28,0,14.78-6.51,36-5.91,19.29-11.83,42.4-10.45,62s8.09,47,8.88,61.66,2.56,34.63-4.93,59.26-5.92,38.7-3.55,54.62,7.3,30.37,7.1,47.12-.79,31.21-7.69,43.24-12,26.29-11.25,43.15c1,21.69,20.18,42.76,20.32,58.14.11,11.85-5.13,13.19-5.81,18.74" fill="none" stroke="#aa6f5b" stroke-linecap="round" stroke-linejoin="round" stroke-width="1.75"/><path d="M178.63,560.37c.2-7.59,2.56-19.26,4.93-27.78s5.33-27.78,5.83-50.37-8.79-70.74-9-80.82,4.14-27.13,9-45.12,8.17-33.41,7.58-45.63" fill="none" stroke="#aa6f5b" stroke-linecap="round" stroke-linejoin="round" stroke-width="1.75"/><path d="M203.68,310.66c0,10.55-1.93,22.88-7.3,42.88-4,14.89-9.35,31.29-9.41,46.11s5.72,43.89,7.27,67-2.59,51.65-2.59,59.63c0,10.37,4.85,21.48,3.71,38.89s-5.09,26.46-4.89,36.56,2.76,21.21,2.76,35.1-2.17,23.33,1,37.78c3.54,16,7.65,40,7.26,58.14s-5.92,42.07-4.54,61.89" fill="none" stroke="#aa6f5b" stroke-linecap="round" stroke-linejoin="round" stroke-width="1.75"/><path d="M210.83,310.66c-.13,19.11-6.72,35.9-10.9,52.69-3.62,14.57-7.58,31.8-6.51,42.4,1.36,13.5,5.92,45.14,6.31,67.1s.79,74.74.79,87.52-1.38,63.88-2,75.37.84,38,3,49.81,5.1,27,5.3,41.48-1.78,34.07-2.76,44.9a188.31,188.31,0,0,0-.39,22.72" fill="none" stroke="#aa6f5b" stroke-linecap="round" stroke-linejoin="round" stroke-width="1.75"/><path d="M198.86,405.75c-.2-9.26,2.5-19.06,4.42-30,1.57-8.94,7-29.88,8.59-39.91" fill="none" stroke="#aa6f5b" stroke-linecap="round" stroke-linejoin="round" stroke-width="1.75"/><path d="M211.76,490.56c0-19.44-3.75-28.7-6.11-43.33a186.43,186.43,0,0,1-1.78-39.81c.59-12,7.76-32.92,10.65-56.66,2.61-21.43,3.55-28.25,3.16-40.1" fill="none" stroke="#aa6f5b" stroke-linecap="round" stroke-linejoin="round" stroke-width="1.75"/><path d="M212,499.17c0,6.2,1,33.42-1.18,62.13s-3.35,47.59-4.14,61.85-3.94,35-1.58,52.77,8.68,30.37,8.48,52.4-2.81,38-2.76,52c0,13.7,0,14.3,0,14.3" fill="none" stroke="#aa6f5b" stroke-linecap="round" stroke-linejoin="round" stroke-width="1.75"/><path d="M204.19,467.58c1.16,19.93,4.16,70.2,0,128" fill="none" stroke="#aa6f5b" stroke-linecap="round" stroke-linejoin="round" stroke-width="1.75"/><path d="M212.75,396c9-31.72,10.55-63.62,10.65-85.38" fill="none" stroke="#aa6f5b" stroke-linecap="round" stroke-linejoin="round" stroke-width="1.75"/><path d="M210.19,405.75a134.41,134.41,0,0,0,0,38.15c2.37,15.74,6.51,32.22,6.9,52.77s-.79,82-2.37,97-4.31,46.66-5.9,59.81.77,31.29,6.89,47,4.14,38.15,3.16,50.74-1.18,32.07-1.18,43.37" fill="none" stroke="#aa6f5b" stroke-linecap="round" stroke-linejoin="round" stroke-width="1.75"/><path d="M221.23,580.56c.79-14.44,1-80.55-.21-98.33s-5.7-33-6.87-53.14,4.91-33.15,9.45-50.37,4.34-58.8,4.54-68.06" fill="none" stroke="#aa6f5b" stroke-linecap="round" stroke-linejoin="round" stroke-width="1.75"/><path d="M233,310.66c0,14.72-.68,30.42-.68,45.63s-2.37,31.32-7.3,40.95-6.47,27-5,42.22,6.12,30.74,6.65,63.51,1.66,54.95,1.07,76.75-2.22,32.78-3.55,45-8.28,27.22-6.8,43.05,11.19,37.31,12.77,54.39-2.17,57.49-2,72.49" fill="none" stroke="#aa6f5b" stroke-linecap="round" stroke-linejoin="round" stroke-width="1.75"/><path d="M233.66,520.37c.2-6.85-.39-20-1.12-32s-.66-21.48,6.27-41.11,4.71-35.92,1.16-46.66-2-20.55-2-37.4,1-41,.64-52.51" fill="none" stroke="#aa6f5b" stroke-linecap="round" stroke-linejoin="round" stroke-width="1.75"/><path d="M233.46,527.23V578c0,12.59-3.75,41.48-3.94,49.07s.92,18.7,3,22.31,5,18.33,0,28.56-.81,23.56-.14,27.64,3.63,13.52,4,31.85S233,779.84,233,794.66" fill="none" stroke="#aa6f5b" stroke-linecap="round" stroke-linejoin="round" stroke-width="1.75"/><path d="M243.33,367.79c-.59-20.55,1.17-41.31,1-57.14" fill="none" stroke="#aa6f5b" stroke-linecap="round" stroke-linejoin="round" stroke-width="1.75"/><path d="M243.33,377.24a83.24,83.24,0,0,0,3.74,25.55c4,13.05,1.92,30.14-2.37,42.77s-6.36,22.64-6.21,34.58,1.48,36.39.89,48.05.15,27.22-.3,42.08-2,35.69-2.63,47.77-.92,18.75,2,27.08,3.4,20.42-.44,34.44-.15,20.42,1.63,32.08a146.14,146.14,0,0,1,1.48,31.94c-.59,11.11-2.37,38-2.51,51.06" fill="none" stroke="#aa6f5b" stroke-linecap="round" stroke-linejoin="round" stroke-width="1.75"/><path d="M233.17,385.71s-.59,7.5,1,12.92" fill="none" stroke="#aa6f5b" stroke-linecap="round" stroke-linejoin="round" stroke-width="1.75"/><path d="M232.3,402.81c-5.19.86-7.57,9-8,21.22s3.81,22.17,6.27,21.53,6.9-4.16,7.2-20.26S236.07,402.19,232.3,402.81Z" fill="none" stroke="#aa6f5b" stroke-linecap="round" stroke-linejoin="round" stroke-width="1.75"/><path d="M232.9,426.72c.87-3.45,3.17-17-1.53-16.29s-3.08,22.44-.06,26.81" fill="none" stroke="#aa6f5b" stroke-linecap="round" stroke-linejoin="round" stroke-width="1.75"/><path d="M230.13,451.8s-.05-4.51-2.86-3.12,1.46,14.67,1.46,21.47" fill="none" stroke="#aa6f5b" stroke-linecap="round" stroke-linejoin="round" stroke-width="1.75"/><path d="M244.46,566.11s.83-16.48,1.23-38.89-2-48.7-1-60.55S253,445.94,255,422.79s-4.54-26.29-6.51-51.66.76-30.38.76-60.47" fill="none" stroke="#aa6f5b" stroke-linecap="round" stroke-linejoin="round" stroke-width="1.75"/><path d="M249.9,571.85c.46-10.74,2.3-34.44,1.91-55.92s-1.58-35.92,0-50,9.66-31.85,9.66-50.74-6.11-28.89-7.1-50.37,4.1-39.27,4.14-54.17" fill="none" stroke="#aa6f5b" stroke-linecap="round" stroke-linejoin="round" stroke-width="1.75"/><path d="M259,345.84c-.2,5.38.35,26.67,3.12,38.07" fill="none" stroke="#aa6f5b" stroke-linecap="round" stroke-linejoin="round" stroke-width="1.75"/><path d="M255.84,510.64a183.07,183.07,0,0,1-.51,31.17" fill="none" stroke="#aa6f5b" stroke-linecap="round" stroke-linejoin="round" stroke-width="1.75"/><path d="M255.59,555c4.18-9.07,4.9-17.78,4.7-31.85s-3.16-35.55-1.58-55.57,8.48-42.75,8.88-62.75-3-31.11-3.94-52.4-.43-30.94-.79-41.77" fill="none" stroke="#aa6f5b" stroke-linecap="round" stroke-linejoin="round" stroke-width="1.75"/><path d="M271.92,310.66s.31,22.42,1.78,40.1c1.44,17.35,4.93,37.59,5.72,53.33s-3.75,29.07-7.3,48.33a170.46,170.46,0,0,0-1.42,52.4c1.93,16.11,1.22,25.74,0,41.29s-9,13-12.45,33.52,1.64,40.55,7,55.55,9.41,22.59,10.59,47.22-.79,33.33-1.58,54.07-2.37,45-2.37,58.18" fill="none" stroke="#aa6f5b" stroke-linecap="round" stroke-linejoin="round" stroke-width="1.75"/><path d="M255.84,567.22c7-9.63,10-25.55,10-43.52s-2.56-35.18-2-52.4,6.9-38.89,8.88-56.48-2.35-36.41-3.73-57.52-1.79-46.65-1.79-46.65" fill="none" stroke="#aa6f5b" stroke-linecap="round" stroke-linejoin="round" stroke-width="1.75"/><path d="M277.64,310.66c-.39,10.74.06,23.67,1.87,40.84,1.78,17,5.63,38.7,5.43,56.85s-4.34,36.48-8.49,53.33-.38,33.33,1,53.14-1.18,29.26-1,40.18,8.88,17,9.86,43.6S279,632,277.64,642.77s4.14,32,4.34,50.37-1.58,43.15-2.47,60-1.87,41.52-1.87,41.52" fill="none" stroke="#aa6f5b" stroke-linecap="round" stroke-linejoin="round" stroke-width="1.75"/><path d="M282.77,310.66s.26,17.42,1.89,38.25c1.6,20.51,5.81,46.66,6.2,65s-9.47,50.74-9.27,63.33,2.17,24.26,3.16,35-2,24.81-2,37.78,7.89,22.78,9.67,45.55-7.1,40.74-7.52,46.85-.17,20.74,1.49,41.85-.28,34.44-1.07,51.48S283,781,282.77,794.66" fill="none" stroke="#aa6f5b" stroke-linecap="round" stroke-linejoin="round" stroke-width="1.75"/><path d="M288.1,310.66c0,28.47,6.51,70.47,7.89,96.39s-5.13,37.78-6.9,55.74,2.37,37,2.56,47.77-2.56,23.89-2.76,36.95S298,578,298.55,597.59s-6.11,36.66-7.3,44.63-1.58,17.78,0,33.89,1.18,35.74,0,54.07-3,53.18-3.16,64.48" fill="none" stroke="#aa6f5b" stroke-linecap="round" stroke-linejoin="round" stroke-width="1.75"/><path d="M299.43,438.16c4-19.44,2.21-34.32,0-55.37-2.22-21.29-5.33-41-6.11-72.14" fill="none" stroke="#aa6f5b" stroke-linecap="round" stroke-linejoin="round" stroke-width="1.75"/><path d="M297.37,447.23c-1.38,7.59-3.94,16.3-2.76,27.78s5.2,32.22,4,45.37-3.63,23.15-2,32.68,8.11,23.4,7.51,48.69-7.1,39.08-7.5,44.87" fill="none" stroke="#aa6f5b" stroke-linecap="round" stroke-linejoin="round" stroke-width="1.75"/><path d="M126.07,322a95.55,95.55,0,0,0,1.08-11.35" fill="none" stroke="#aa6f5b" stroke-linecap="round" stroke-linejoin="round" stroke-width="1.75"/><path d="M252.77,323.35s.81-7.46.81-12.7" fill="none" stroke="#aa6f5b" stroke-linecap="round" stroke-linejoin="round" stroke-width="1.75"/></g></g><rect id="4196837c-5173-4c32-a28a-31d21bc105c8" data-name="&lt;Rectangle&gt;" x="135.07" y="310.32" width="258" height="8.87" opacity="0.05"/><rect id="e6bcffb8-711b-4f3d-8e6d-f19c97a0414a" data-name="&lt;Rectangle&gt;" x="314.12" y="283.72" width="25.49" height="15.19" fill="#feccae"/><path id="15f32ebb-197c-46a8-a209-1ecf3c0df084" data-name="&lt;Rectangle&gt;" d="M341,279.65h6a10,10,0,0,1,10,10v9.27a0,0,0,0,1,0,0H331a0,0,0,0,1,0,0v-9.27A10,10,0,0,1,341,279.65Z" fill="#feccae"/><line id="b91d316b-6310-4233-a463-b4e3b7051f6e" data-name="&lt;Path&gt;" x1="339.6" y1="298.9" x2="352.53" y2="258.49" fill="none" stroke="#515151" stroke-linecap="round" stroke-miterlimit="10" stroke-width="5"/><rect id="b33bd79e-17b4-44f0-8387-74131ffbc1c5" data-name="&lt;Rectangle&gt;" x="80.05" y="110.17" width="99.1" height="101.04" rx="7.6" ry="7.6" opacity="0.08"/><rect id="f80d1121-8e05-486c-b599-c47a9bb500e8" data-name="&lt;Rectangle&gt;" x="91.96" y="122.31" width="75.3" height="76.77" fill="#ad87c6"/><circle id="2fc9844a-0d89-499f-9024-6cb33a3597f1" data-name="&lt;Path&gt;" cx="138.9" cy="144.07" r="9.08" opacity="0.05"/><path id="01332f30-1652-4184-af8c-41a2b35ba647" data-name="&lt;Path&gt;" d="M92,164.07,104.37,153a5.06,5.06,0,0,1,6.71,0l17.77,15.68a4.39,4.39,0,0,0,5.63.15l7.36-5.82a5.06,5.06,0,0,1,5.76-.35l19.65,11.94v24.5H92Z" opacity="0.08"/><g id="40840ea7-1122-41ea-9b41-411038519136" data-name="&lt;Group&gt;"><rect id="a73549a7-dee1-403f-b541-bfa179e100da" data-name="&lt;Rectangle&gt;" x="203.74" y="217.07" width="120.67" height="81.83" rx="8.8" ry="8.8" fill="#e3e3e3"/><path id="e3dee5d5-a00d-4c65-86bd-73236479ca71" data-name="&lt;Path&gt;" d="M272.32,258.74a7.74,7.74,0,0,1-3.91-7.13A7.85,7.85,0,0,1,269,249a1.79,1.79,0,0,0-1-2.43l-.06,0a12.06,12.06,0,1,0,7.64,15.25v0a1.79,1.79,0,0,0-1.34-2.26A7.86,7.86,0,0,1,272.32,258.74Z" fill="#fff"/><g id="5881d2c4-7e05-4f9a-bfb2-d28b9b0d261c" data-name="&lt;Group&gt;" opacity="0.3"><rect id="41373b8a-d80c-4df1-9117-b9425e2f5cdf" data-name="&lt;Rectangle&gt;" x="199.75" y="272.65" width="30.77" height="6.17" rx="3.08" ry="3.08" transform="translate(-60.6 490.86) rotate(-90)" fill="#fff"/><rect id="9564a929-131e-49fe-8f19-5efb982b3fdf" data-name="&lt;Rectangle&gt;" x="211.86" y="248.97" width="6.55" height="6.17" rx="3.08" ry="3.08" transform="translate(-36.92 467.19) rotate(-90)" fill="#fff"/></g><path d="M315.84,217.07H310a8.8,8.8,0,0,1,8.8,8.8V290.1a8.8,8.8,0,0,1-8.8,8.8h5.88a8.8,8.8,0,0,0,8.8-8.8V225.88A8.8,8.8,0,0,0,315.84,217.07Z" fill="#dbdbdb"/></g><polygon id="aa290e96-69e8-4003-95c5-39499946cf5e" data-name="&lt;Path&gt;" points="128.27 199.08 138.27 199.08 160.94 122.54 150.94 122.54 128.27 199.08" fill="#fff" opacity="0.1"/><polygon id="8a155efd-c2ac-43df-ba2d-486ce6dada39" data-name="&lt;Path&gt;" points="96.27 199.08 119.27 199.08 141.94 122.54 118.94 122.54 96.27 199.08" fill="#fff" opacity="0.1"/><line id="0ec9350c-b57a-42b0-935d-a7bbfef230f6" data-name="&lt;Path&gt;" x1="161.79" y1="289.95" x2="174.72" y2="249.54" fill="none" stroke="#5e5e5e" stroke-linecap="round" stroke-miterlimit="10" stroke-width="5"/><line id="7b1729e3-0abe-4495-a080-d43510a8548a" data-name="&lt;Path&gt;" x1="159.89" y1="287.79" x2="157.7" y2="245.42" fill="none" stroke="#5e5e5e" stroke-linecap="round" stroke-miterlimit="10" stroke-width="5"/><path id="8f13f75b-93f8-4179-a5d9-f2d8f36bcdc5" data-name="&lt;Rectangle&gt;" d="M149.61,272.41h26a0,0,0,0,1,0,0v19.23a7.27,7.27,0,0,1-7.27,7.27H156.87a7.27,7.27,0,0,1-7.27-7.27V272.41A0,0,0,0,1,149.61,272.41Z" fill="#474747"/><rect id="d1d96c3d-0831-4b2f-a322-d71eb1c3d755" data-name="&lt;Rectangle&gt;" x="389.27" y="248.06" width="29.86" height="7.92" rx="3.96" ry="3.96" opacity="0.05"/><rect id="c6f9776a-edf0-435c-86fd-364f5ede7d0d" data-name="&lt;Rectangle&gt;" x="424.39" y="248.06" width="29.86" height="7.92" rx="3.96" ry="3.96" opacity="0.05"/><rect id="00f7c9d9-fc3f-4928-89df-cfe18f19bd5d" data-name="&lt;Rectangle&gt;" x="405.94" y="260" width="29.86" height="7.92" rx="3.96" ry="3.96" opacity="0.05"/><rect id="d6ae8a8f-9891-4af4-89aa-63c4b1397da5" data-name="&lt;Rectangle&gt;" x="75.64" y="312.06" width="29.86" height="7.92" rx="3.96" ry="3.96" opacity="0.05"/><rect id="f59142ef-c5c7-4eac-bfc0-6c90eb3f0cf5" data-name="&lt;Rectangle&gt;" x="57.19" y="324" width="29.86" height="7.92" rx="3.96" ry="3.96" opacity="0.05"/><path d="M508.43,159.18A264.87,264.87,0,0,0,432.88,59l-.16.08c-.25-.28-.51-.55-.77-.82q-5.51-4.47-11.26-8.64a42.59,42.59,0,0,0-62.43,35.94,32.61,32.61,0,1,0,10,64.44A38.23,38.23,0,0,0,437.94,170a38.23,38.23,0,0,0,70.48-10.87Z" fill="#fff"/><ellipse cx="422.95" cy="138.46" rx="20.73" ry="6.26" opacity="0.05"/><circle cx="422.95" cy="114.59" r="23.87" fill="#ea4c89"/><path d="M422.95,138.46a23.87,23.87,0,1,1,23.87-23.87A23.88,23.88,0,0,1,422.95,138.46ZM423.5,111a74.83,74.83,0,0,1-20.91,2.89,4.5,4.5,0,0,0,0,.65,20.35,20.35,0,0,0,5.22,13.61c5.56-9.91,16.56-13.46,16.56-13.46.28-.09.56-.15.81-.25C424.65,113.35,424.1,112.2,423.5,111Zm-9.26-14.89A20.43,20.43,0,0,0,403,110.39a77,77,0,0,0,18.83-2.49A123.68,123.68,0,0,0,414.24,96.16Zm12.31,21.73-.13,0s-12.09,4.23-16,12.74c-.19-.15-.47-.34-.47-.34a20.41,20.41,0,0,0,20.95,3A86,86,0,0,0,426.55,117.88ZM418,94.82a.12.12,0,0,1,.06,0S418,94.79,418,94.82Zm4.94-.62a20.47,20.47,0,0,0-4.82.59,99.76,99.76,0,0,1,7.64,11.87c7.68-2.86,10.57-7.27,10.63-7.37A20.24,20.24,0,0,0,422.95,94.2Zm15.76,7.43c-.06.06-3.33,4.78-11.38,8.08.47,1,.93,2,1.37,3,.15.34.28.71.43,1.06a47.69,47.69,0,0,1,14.2.65A20.44,20.44,0,0,0,438.7,101.63Zm-8.33,15.29a90.91,90.91,0,0,1,4,14.58,20.47,20.47,0,0,0,8.74-13.68A30.31,30.31,0,0,0,430.37,116.92Z" fill="#c32361"/><g opacity="0.1"><line x1="389.63" y1="82.03" x2="400.91" y2="86.67" fill="none" stroke="#000" stroke-linecap="round" stroke-miterlimit="10" stroke-width="2"/><line x1="397.59" y1="78.71" x2="392.95" y2="89.99" fill="none" stroke="#000" stroke-linecap="round" stroke-miterlimit="10" stroke-width="2"/></g><g opacity="0.1"><line x1="458.98" y1="117.42" x2="463.38" y2="121.82" fill="none" stroke="#000" stroke-linecap="round" stroke-miterlimit="10" stroke-width="2"/><line x1="463.38" y1="117.42" x2="458.98" y2="121.82" fill="none" stroke="#000" stroke-linecap="round" stroke-miterlimit="10" stroke-width="2"/></g><g opacity="0.1"><line x1="383.92" y1="98.15" x2="388.5" y2="102.73" fill="none" stroke="#000" stroke-linecap="round" stroke-miterlimit="10" stroke-width="2"/><line x1="388.5" y1="98.15" x2="383.92" y2="102.73" fill="none" stroke="#000" stroke-linecap="round" stroke-miterlimit="10" stroke-width="2"/></g><rect x="149.61" y="272.41" width="26" height="6.33" fill="#686868"/><rect x="149.61" y="278.74" width="26" height="13.66" fill="url(#21487c68-885d-4720-b784-a0ee5377d746)"/><rect id="6bc5af70-2168-4736-90be-5ea4223bce53" data-name="&lt;Path&gt;" x="149.61" y="331.05" width="68.67" height="61.16" rx="7.01" ry="7.01" opacity="0.05"/><rect id="fee3ae45-b0dc-4534-8959-09e1feac00f3" data-name="&lt;Path&gt;" x="229.27" y="331.05" width="68.67" height="61.16" rx="7.01" ry="7.01" opacity="0.05"/><rect id="75d7e1fd-f1dd-47bc-851a-2a7650637c98" data-name="&lt;Path&gt;" x="308.94" y="331.05" width="68.67" height="61.16" rx="7.01" ry="7.01" opacity="0.05"/><rect id="028f21f7-9c57-4cdb-9e60-8a6c3de9fab9" data-name="&lt;Rectangle&gt;" x="127.32" y="298.9" width="273.5" height="11.41" rx="5.71" ry="5.71" fill="#b77d67"/></svg>