<svg id="Layer_1" data-name="Layer 1" xmlns="http://www.w3.org/2000/svg" xmlns:xlink="http://www.w3.org/1999/xlink" viewBox="0 0 460 420">
  <defs>
    <linearGradient id="linear-gradient" x1="128.5318" y1="267.3298" x2="128.5318" y2="253.6667" gradientUnits="userSpaceOnUse">
      <stop offset="0" stop-color="#3a3a3a" stop-opacity="0"/>
      <stop offset="0.2471" stop-color="#3a3a3a" stop-opacity="0.1434"/>
      <stop offset="0.6365" stop-color="#3a3a3a" stop-opacity="0.5339"/>
      <stop offset="1" stop-color="#3a3a3a"/>
    </linearGradient>
  </defs>
  <title>1_</title>
  <g id="hand" class="fadein">
    <rect id="_Rectangle_" data-name="&lt;Rectangle&gt;" x="280.042" y="258.6456" width="25.4887" height="15.1852" style="fill: #feccae"/>
    <path id="_Rectangle_2" data-name="&lt;Rectangle&gt;" d="M306.9225,254.5807h5.9527a9.9776,9.9776,0,0,1,9.9776,9.9776v9.2724a0,0,0,0,1,0,0H296.9449a0,0,0,0,1,0,0v-9.2724a9.9776,9.9776,0,0,1,9.9776-9.9776Z" style="fill: #feccae"/>
    <line id="_Path_" data-name="&lt;Path&gt;" x1="305.5307" y1="273.8307" x2="318.4539" y2="233.4167" style="fill: none;stroke: #515151;stroke-linecap: round;stroke-miterlimit: 10;stroke-width: 5px"/>
  </g>
  <g id="background" class="appearfromleft">
    <rect id="_Rectangle_3" data-name="&lt;Rectangle&gt;" x="45.9807" y="85.0968" width="99.1022" height="101.0417" rx="7.5979" ry="7.5979" style="opacity: 0.08"/>
    <rect id="_Rectangle_4" data-name="&lt;Rectangle&gt;" x="57.8832" y="97.2322" width="75.2972" height="76.7709" style="fill: #ad87c6"/>
    <circle id="_Path_2" data-name="&lt;Path&gt;" cx="104.8235" cy="119" r="9.0833" style="opacity: 0.05"/>
    <path id="_Path_3" data-name="&lt;Path&gt;" d="M57.8832,139l12.41-11.0883a5.0566,5.0566,0,0,1,6.7146-.0209L94.7823,143.574a4.3915,4.3915,0,0,0,5.6272.1535l7.3647-5.8159a5.0566,5.0566,0,0,1,5.76-.3526L133.18,149.5v24.5031H57.8832Z" style="opacity: 0.08"/>
    <polygon id="_Path_4" data-name="&lt;Path&gt;" points="94.198 174.003 104.198 174.003 126.865 97.465 116.865 97.465 94.198 174.003" style="fill: #fff;opacity: 0.1"/>
    <polygon id="_Path_5" data-name="&lt;Path&gt;" points="62.198 174.003 85.198 174.003 107.865 97.465 84.865 97.465 62.198 174.003" style="fill: #fff;opacity: 0.1"/>
    <rect id="_Rectangle_5" data-name="&lt;Rectangle&gt;" x="355.1985" y="222.9866" width="29.856" height="7.9203" rx="3.9602" ry="3.9602" style="opacity: 0.05"/>
    <rect id="_Rectangle_6" data-name="&lt;Rectangle&gt;" x="390.3168" y="222.9866" width="29.856" height="7.9203" rx="3.9602" ry="3.9602" style="opacity: 0.05"/>
    <rect id="_Rectangle_7" data-name="&lt;Rectangle&gt;" x="371.8656" y="234.9266" width="29.856" height="7.9203" rx="3.9602" ry="3.9602" style="opacity: 0.05"/>
    <rect id="_Rectangle_8" data-name="&lt;Rectangle&gt;" x="41.5681" y="286.9841" width="29.856" height="7.9203" rx="3.9602" ry="3.9602" style="opacity: 0.05"/>
    <rect id="_Rectangle_9" data-name="&lt;Rectangle&gt;" x="23.1169" y="298.9241" width="29.856" height="7.9203" rx="3.9602" ry="3.9602" style="opacity: 0.05"/>
  </g>
  <g id="character">
    <path d="M257.1951,302.0812H202.67c-.5341-11.9011-2.7635-9.5347-4.0028-19.75l-2.1053-23.7561h66.7411l-2.1053,23.7561C260.4139,292.5168,259.0823,288.9927,257.1951,302.0812Z" style="fill: #3a3a3a"/>
    <polygon points="256.814 310.575 203.051 310.575 200.783 260.029 259.082 260.029 256.814 310.575" style="fill: #3a3a3a"/>
    <path d="M240.301,219.1789l-10.3683,1.0255-10.3683-1.0255-17.9012,3.8761a11.5668,11.5668,0,0,0-8.9994,11.3809v28.2967a8.53,8.53,0,0,0,8.7108,8.3372h23.9834a4.6449,4.6449,0,0,0,3.57-1.64,1.3248,1.3248,0,0,1,2.01,0,4.6449,4.6449,0,0,0,3.57,1.64h23.9834a8.53,8.53,0,0,0,8.7108-8.3372V234.4358a11.5668,11.5668,0,0,0-8.9994-11.3809Z" style="fill: #3a3a3a"/>
    <ellipse cx="229.6922" cy="226.8642" rx="14.1832" ry="9.5171" style="fill: #424242"/>
    <path d="M219.2683,214.4734h21.3288a0,0,0,0,1,0,0v8.1343a8.467,8.467,0,0,1-8.467,8.467h-4.3948a8.467,8.467,0,0,1-8.467-8.467v-8.1343A0,0,0,0,1,219.2683,214.4734Z" style="fill: #f9bfa2"/>
    <polygon points="188.621 285.776 167.726 282.96 171.13 261.164 192.025 263.981 188.621 285.776" style="fill: #feccae"/>
    <polygon points="271.379 285.776 292.274 282.96 288.87 261.164 267.975 263.981 271.379 285.776" style="fill: #feccae"/>
    <polygon points="185.747 329.455 170.914 329.455 167.726 282.96 188.621 285.776 185.747 329.455" style="fill: #feccae"/>
    <path d="M186.8878,347.7761l-14.4963-2.0536a3.9961,3.9961,0,0,1-3.417-4.3413l1.5531-16.0566,15.6362-2.1482,3.7436,3.1967a5.6039,5.6039,0,0,1,1.8981,3.3987l1.56,10.0086a3.996,3.996,0,0,1-.4842,2.6072l-1.9687,3.4238A3.9961,3.9961,0,0,1,186.8878,347.7761Z" style="fill: #feccae"/>
    <polygon points="274.253 329.455 289.086 329.455 292.274 282.96 271.379 285.776 274.253 329.455" style="fill: #feccae"/>
    <path d="M273.1122,347.7761l14.4963-2.0536a3.9961,3.9961,0,0,0,3.417-4.3413l-1.5531-16.0566-15.6362-2.1482-3.7436,3.1967a5.6039,5.6039,0,0,0-1.8981,3.3987l-1.56,10.0086a3.996,3.996,0,0,0,.4842,2.6072l1.9687,3.4238A3.9961,3.9961,0,0,0,273.1122,347.7761Z" style="fill: #feccae"/>
    <path d="M211.282,369.5943h-2.7048c-5.6209,0-10.1776-4.9287-10.1776-11.0086V328.6724a24.8,24.8,0,0,1,2.7613-11.4137l.615-1.1839h25.3883v36.3407C227.1641,361.9031,220.0534,369.5943,211.282,369.5943Z" style="fill: #424242"/>
    <path d="M248.1991,369.5943H250.93c5.6751,0,10.2757-4.9287,10.2757-11.0086V328.6724a24.6093,24.6093,0,0,0-2.7879-11.4137l-.6209-1.1839H232.164v36.3407C232.164,361.9031,239.3432,369.5943,248.1991,369.5943Z" style="fill: #424242"/>
    <path d="M257.25,316.0747H202.6969a1.4871,1.4871,0,0,1-1.4582-1.7786l1.6168-8.089H257.01l1.6959,8.0749A1.4871,1.4871,0,0,1,257.25,316.0747Z" style="fill: #3a3a3a"/>
    <polygon points="266.929 264.122 288.87 261.164 284.829 235.344 262.889 238.301 266.929 264.122" style="fill: #3a3a3a"/>
    <path d="M267.9749,263.9806l21.9563-2.96a1.5714,1.5714,0,0,0,1.3424-1.8015l-.5748-3.6552a1.5714,1.5714,0,0,0-1.7623-1.3132l-22.0927,2.9779Z" style="fill: #3f3f3f"/>
    <polygon points="194.627 264.331 171.13 261.164 175.21 235.349 198.706 238.516 194.627 264.331" style="fill: #3a3a3a"/>
    <path d="M173.3934,248.3314l24.038,3.24,3.24-24.038-12.4932-1.8187a18.2029,18.2029,0,0,0-8.0493,1.1129,12.7858,12.7858,0,0,0-6.8776,11.7191Z" style="fill: #3a3a3a"/>
    <path d="M286.6066,248.3314l-24.038,3.24-3.24-24.038,12.4932-1.8187a18.2029,18.2029,0,0,1,8.0493,1.1129,12.7858,12.7858,0,0,1,6.8776,11.7191Z" style="fill: #3a3a3a"/>
    <rect x="222.5194" y="316.0747" width="14.2263" height="22.9444" style="fill: #424242"/>
    <path id="_Path_6" data-name="&lt;Path&gt;" d="M230.0286,214.4734h-.0866c-7.8437,0-12.9123-2.84-17.3794-8.79-3.2128-4.28-6.0372-8.6678-5.0372-14.5078l-1-19.0833a23.4465,23.4465,0,0,1,23.4166-25.2767h.0866a23.4465,23.4465,0,0,1,23.4166,25.2767l-1,19.0833c1,5.84-1.8244,10.228-5.0372,14.5078C242.9409,211.6339,237.8724,214.4734,230.0286,214.4734Z" style="fill: #feccae"/>
    <path d="M242.8554,209.621l7.9773-6,1-15.2332h0a8.9773,8.9773,0,0,0-8.9773,8.9773Z" style="fill: #f9bfa2"/>
    <path d="M217.1528,209.5905l-7.9773-6-1-15.2332h0a8.9773,8.9773,0,0,1,8.9773,8.9773Z" style="fill: #f9bfa2"/>
    <polygon points="242.855 179.374 216.936 179.374 214.565 174.562 245.217 174.562 242.855 179.374" style="fill: #f9bfa2"/>
    <path d="M250.9543,192.9968a13.2117,13.2117,0,0,1-2.8726,8.5924c-2.1575,2.8049-4.8326,5.1176-5.8287,1.4623l-1.5208-6.19c-.8018-2.3641-2.5684-3.7007-5.4956-3.548l-5.2513.0744-5.2513-.0744c-2.9272-.1526-4.8356,1.1839-5.6372,3.548l-1.42,6.015c-1.11,4.93-3.5682,1.2715-5.7876-1.2871-2.8681-3.3065-3.0944-5.5238-2.8727-8.5924h-2.4909V194.29c0,6.3356,2.908,11.0964,6.1909,15.74,4.3836,6.2,9.3423,9.1345,16.8266,9.5266v.0385c.1507,0,.2937-.0152.4425-.0193.1488.0041.2917.0189.4425.0193v-.0385c7.4843-.3921,12.443-3.3267,16.8266-9.5266,3.2829-4.6431,6.1909-9.4039,6.1909-15.74v-1.2928Z" style="fill: #3a3a3a"/>
    <path id="_Path_7" data-name="&lt;Path&gt;" d="M214.5994,186.2789c.1367.8728,1.761,1.29,3.628.9314s3.27-1.3566,3.133-2.2294-1.761-1.29-3.628-.9314S214.4627,185.4061,214.5994,186.2789Z" style="fill: #f7afa4"/>
    <path id="_Path_8" data-name="&lt;Path&gt;" d="M244.7,186.2789c-.1367.8728-1.761,1.29-3.628.9314s-3.27-1.3566-3.133-2.2294,1.761-1.29,3.628-.9314S244.8367,185.4061,244.7,186.2789Z" style="fill: #f7afa4"/>
    <path id="_Path_9" data-name="&lt;Path&gt;" d="M232.5662,205.0964h-5.2754c-2.86,0-5.2756-2.2218-6.049-5.2674a1.5889,1.5889,0,0,1,1.31-2.0961h14.76a1.5411,1.5411,0,0,1,1.3379,1.9575C237.9147,202.807,235.47,205.0964,232.5662,205.0964Z" style="fill: #fff"/>
    <path id="_Path_10" data-name="&lt;Path&gt;" d="M234.0123,201.7774h-8.233a.5447.5447,0,0,1,0-1.0839h8.233a.5447.5447,0,0,1,0,1.0839Z" style="fill: #ededed"/>
    <path d="M255.6231,176.7825H253.44v10.6053h1.2449c1.8731,0,3.4855-1.8869,3.8521-4.5077l.1157-.8271C259.0342,179.326,257.5721,176.7825,255.6231,176.7825Z" style="fill: #f9bfa2"/>
    <path d="M204.3424,176.7825h2.183v10.6053H205.28c-1.8731,0-3.4855-1.8869-3.8521-4.5077l-.1157-.8271C200.9313,179.326,202.3934,176.7825,204.3424,176.7825Z" style="fill: #f9bfa2"/>
    <path d="M218.2649,152.57a8.1874,8.1874,0,0,1-5.3163-10.15h0a7.9037,7.9037,0,0,1,9.8842-5.4591Z" style="fill: #424242"/>
    <g>
      <path id="_Path_11" data-name="&lt;Path&gt;" d="M237.0173,141.7515h-14.069c-9.6252,0-17.428,9.0715-17.428,20.2617v-1.9863l1,18.3726h3.3106l.7319-16.7278c0-2.1284,1.8749-3.5606,3.5552-2.7159l10.1507,5.1029a12.5623,12.5623,0,0,0,11.4281,0l10.1507-5.1029c1.68-.8447,3.5552.5875,3.5552,2.7159L250.22,178.4h3.225l1-16.2564v-2.2462C254.4453,148.7067,246.6425,141.7515,237.0173,141.7515Z" style="fill: #3a3a3a"/>
      <polygon points="253.445 194.016 250.954 192.997 250.22 178.4 253.445 177.729 253.445 194.016" style="fill: #3a3a3a"/>
      <polygon points="206.523 193.873 209.016 192.997 209.831 178.4 206.462 177.327 206.523 193.873" style="fill: #3a3a3a"/>
    </g>
    <path d="M215.9722,135.5l.0217,12.5817a5.7477,5.7477,0,0,0,1.6668,4.05l13.28,13.3014H215.9722c-6.698,0-12.1278-5.8081-12.1278-12.9727v-3.988C203.8443,141.3082,209.2742,135.5,215.9722,135.5Z" style="fill: #3a3a3a"/>
    <path d="M229.9022,193.2273h0a2.9624,2.9624,0,0,1-2.7807-2.9728l-.6316-12.3a3.0133,3.0133,0,0,1,2.7807-3.3395h1.2631a3.0133,3.0133,0,0,1,2.7807,3.3395l-.6316,12.3A2.9624,2.9624,0,0,1,229.9022,193.2273Z" style="fill: #efb49a"/>
    <rect x="224.9712" y="189.3169" width="7.1219" height="3.9104" rx="1.7435" ry="1.7435" style="fill: #efb49a"/>
    <rect x="235.4308" y="173.5515" width="9.7864" height="2.3146" rx="1.0104" ry="1.0104" style="fill: #3a3a3a"/>
    <rect x="214.565" y="173.5515" width="9.7864" height="2.3146" rx="1.0104" ry="1.0104" style="fill: #3a3a3a"/>
    <path id="_Path_12" data-name="&lt;Path&gt;" d="M242.8554,179.4623c0-1.2539-5.5363-1.2539-5.5363,0a2.8227,2.8227,0,0,0,5.5363,0Z" style="fill: #3a3a3a"/>
    <path id="_Path_13" data-name="&lt;Path&gt;" d="M222.4724,179.4623c0-1.2539-5.5363-1.2539-5.5363,0a2.8227,2.8227,0,0,0,5.5363,0Z" style="fill: #3a3a3a"/>
    <path d="M209.7154,145.9785s-1.749,13.7944,12.757,13.7944H227.6" style="fill: none;stroke: #494949;stroke-linecap: round;stroke-miterlimit: 10;stroke-width: 1.5px"/>
    <path d="M216.9361,148.7149c1.934,5.6483,4.89,5.9726,12.7561,5.9726" style="fill: none;stroke: #424242;stroke-linecap: round;stroke-miterlimit: 10;stroke-width: 1.5px"/>
    <path d="M226.5521,210.5767a1.817,1.817,0,1,1-3.6341,0" style="fill: none;stroke: #424242;stroke-linecap: round;stroke-miterlimit: 10"/>
    <path d="M232.7532,210.5767a3.1006,3.1006,0,1,1-6.2011,0" style="fill: none;stroke: #424242;stroke-linecap: round;stroke-miterlimit: 10"/>
    <g>
      <line x1="172.2382" y1="294.6798" x2="179.2991" y2="294.0531" style="fill: none;stroke: #efb49a;stroke-linecap: round;stroke-miterlimit: 10"/>
      <line x1="172.4129" y1="299.2971" x2="179.4737" y2="298.6705" style="fill: none;stroke: #efb49a;stroke-linecap: round;stroke-miterlimit: 10"/>
      <line x1="172.6052" y1="303.9149" x2="179.666" y2="303.2883" style="fill: none;stroke: #efb49a;stroke-linecap: round;stroke-miterlimit: 10"/>
    </g>
    <g>
      <line x1="287.9005" y1="294.6798" x2="280.8396" y2="294.0531" style="fill: none;stroke: #efb49a;stroke-linecap: round;stroke-miterlimit: 10"/>
      <line x1="287.7258" y1="299.2971" x2="280.665" y2="298.6705" style="fill: none;stroke: #efb49a;stroke-linecap: round;stroke-miterlimit: 10"/>
      <line x1="287.5335" y1="303.9149" x2="280.4726" y2="303.2883" style="fill: none;stroke: #efb49a;stroke-linecap: round;stroke-miterlimit: 10"/>
    </g>
    <path d="M232.9963,222.4766a3.1006,3.1006,0,0,1-6.2011,0" style="fill: none;stroke: #efb49a;stroke-linecap: round;stroke-miterlimit: 10"/>
    <path d="M192.2779,263.9806l-21.9563-2.96a1.5714,1.5714,0,0,1-1.3424-1.8015l.5748-3.6552a1.5714,1.5714,0,0,1,1.7623-1.3132l22.0927,2.9779Z" style="fill: #3f3f3f"/>
  </g>
  <g id="dreams" class="appearfromright">
    <circle cx="289.7208" cy="162.8503" r="7.8202" style="fill: #fff"/>
    <circle cx="268.3934" cy="157.4422" r="4.5552" style="fill: #fff"/>
    <circle cx="279.5184" cy="150.0572" r="3.0896" style="fill: #fff"/>
    <circle cx="331.2818" cy="166.4422" r="3.0896" style="fill: #fff"/>
    <path d="M361.1893,42.5319a59.134,59.134,0,0,0-49.2185,88.9015,1.7858,1.7858,0,0,1-1.2465,2.66l-.015.0026a13.0713,13.0713,0,1,0,14.6867,16.9713,2.2743,2.2743,0,0,1,3.4916-1.16,59.1386,59.1386,0,1,0,32.3017-107.375Z" style="fill: #fff"/>
    <g style="opacity: 0.08">
      <path d="M422.1744,99.94a59.1667,59.1667,0,0,0-1.6382-12.2379,59.1253,59.1253,0,0,1-92.6484,57.0241,2.2745,2.2745,0,0,0-3.4917,1.16,13.0569,13.0569,0,0,1-13.1279,8.9523,13.1892,13.1892,0,0,1-11.3281-8.0613c-.0024.1584-.0151.3143-.0117.4741a13.064,13.064,0,0,0,25.4678,3.8151,2.2745,2.2745,0,0,1,3.4917-1.16A59.1313,59.1313,0,0,0,422.1744,99.94Z"/>
    </g>
    <circle cx="306.2886" cy="46.4145" r="7.958" style="fill: #fff"/>
    <circle cx="400.2447" cy="170.0672" r="8.9162" style="fill: #fff"/>
    <ellipse cx="362.8722" cy="126.3833" rx="20.733" ry="6.2629" style="opacity: 0.05"/>
    <g>
      <circle cx="362.8722" cy="102.5147" r="23.8686" style="fill: #ea4c89"/>
      <path d="M362.8722,126.3833a23.8686,23.8686,0,1,1,23.8686-23.8686A23.8769,23.8769,0,0,1,362.8722,126.3833Zm.5573-27.4117a74.8348,74.8348,0,0,1-20.9144,2.8907,4.4957,4.4957,0,0,0-.0317.6524,20.35,20.35,0,0,0,5.2241,13.6107c5.5594-9.9135,16.5648-13.4566,16.5648-13.4566.2764-.0906.5573-.154.8065-.2492C364.58,101.2733,364.023,100.1225,363.4295,98.9716Zm-9.2611-14.8884a20.4314,20.4314,0,0,0-11.25,14.236,76.9938,76.9938,0,0,0,18.8348-2.4874A123.682,123.682,0,0,0,354.1684,84.0832Zm12.31,21.7255c-.0317,0-.0951.0317-.1269.0317,0,0-12.0883,4.2273-16.003,12.7408-.1858-.154-.4667-.34-.4667-.34a20.4089,20.4089,0,0,0,20.9462,3.0447A86.0423,86.0423,0,0,0,366.4787,105.8087Zm-8.55-23.0621a.1172.1172,0,0,1,.0634-.0272C357.9607,82.7194,357.9607,82.7194,357.929,82.7466Zm4.9432-.6207a20.4664,20.4664,0,0,0-4.8163.5935A99.7573,99.7573,0,0,1,365.6994,94.59c7.6753-2.859,10.566-7.272,10.6294-7.3672A20.2432,20.2432,0,0,0,362.8722,82.1259Zm15.7583,7.4306c-.0634.0589-3.3257,4.7846-11.377,8.0785.4667.9651.9334,1.9573,1.3683,2.9541.154.34.2809.7113.435,1.0557a47.6935,47.6935,0,0,1,14.2042.6524A20.436,20.436,0,0,0,378.6305,89.5565Zm-8.3322,15.2871a90.9106,90.9106,0,0,1,3.9781,14.58,20.4749,20.4749,0,0,0,8.7355-13.6787A30.3124,30.3124,0,0,0,370.2983,104.8436Z" style="fill: #c32361"/>
    </g>
    <g style="opacity: 0.1">
      <line x1="329.5586" y1="69.9604" x2="340.8383" y2="74.5987" style="fill: none;stroke: #000;stroke-linecap: round;stroke-miterlimit: 10;stroke-width: 2px"/>
      <line x1="337.5176" y1="66.6397" x2="332.8794" y2="77.9194" style="fill: none;stroke: #000;stroke-linecap: round;stroke-miterlimit: 10;stroke-width: 2px"/>
    </g>
    <g style="opacity: 0.1">
      <line x1="398.9056" y1="105.3505" x2="403.3018" y2="109.7466" style="fill: none;stroke: #000;stroke-linecap: round;stroke-miterlimit: 10;stroke-width: 2px"/>
      <line x1="403.3018" y1="105.3505" x2="398.9056" y2="109.7466" style="fill: none;stroke: #000;stroke-linecap: round;stroke-miterlimit: 10;stroke-width: 2px"/>
    </g>
    <g style="opacity: 0.1">
      <line x1="323.8484" y1="86.0719" x2="328.4291" y2="90.6527" style="fill: none;stroke: #000;stroke-linecap: round;stroke-miterlimit: 10;stroke-width: 2px"/>
      <line x1="328.4291" y1="86.0719" x2="323.8484" y2="90.6527" style="fill: none;stroke: #000;stroke-linecap: round;stroke-miterlimit: 10;stroke-width: 2px"/>
    </g>
  </g>
  <g id="desk" class="fadeinbottom">
    <rect id="_Rectangle_10" data-name="&lt;Rectangle&gt;" x="69.6831" y="374.3333" width="320.6337" height="16.7747" rx="8.3874" ry="8.3874" style="opacity: 0.08"/>
    <path d="M359,367.3862V273.8307H101v93.7088A14.8606,14.8606,0,0,0,89.5318,382H371.1983A14.86,14.86,0,0,0,359,367.3862Z" style="fill: #b47860"/>
    <g style="opacity: 0.5">
      <path d="M112.67,321.4431a3.4536,3.4536,0,0,0,2.7686.6953c3.1924-.6084,4.5762-1.3418,5.4209-6.2344a8.4306,8.4306,0,0,0-1.9365-6.7529,5.9874,5.9874,0,0,0-4.3027-2.36,5.1032,5.1032,0,0,0-4.0029,1.58c-1.1621,1.3066-1.6387,3.4326-1.3408,5.9844C109.6392,317.4567,110.939,320.1735,112.67,321.4431Zm-1.6855-8.3652a.8753.8753,0,0,1,.875-.8623h.0127a.8749.8749,0,0,1,.8623.8877c-.03,2.0156.0684,4.4443,1.1016,5.3438a2.0721,2.0721,0,0,0,1.7617.3525c1.2871-.1973,1.6768-1.8145,1.7852-2.501.34-2.1611-.4-5.0283-2.0439-5.8516a.8748.8748,0,1,1,.7832-1.5645c2.4365,1.22,3.4336,4.8672,2.9893,7.6885-.35,2.2207-1.5635,3.7-3.248,3.959a5.4863,5.4863,0,0,1-.8193.0645,3.4694,3.4694,0,0,1-2.3584-.8281C111.1246,318.406,110.9459,315.7477,110.9849,313.0778Z" style="fill: none"/>
      <path d="M278.3057,382c.208-1.093.418-2.1857.6392-3.2766,7.2861-35.9648,6.5781-58.4912,5.9531-78.3652-.1611-5.127-.3135-9.9707-.3135-14.7773a.875.875,0,0,0-1.75,0c0,4.834.1523,9.6914.3145,14.833.6221,19.7783,1.3262,42.1963-5.9189,77.9619q-.3669,1.81-.707,3.6243Z" style="fill: #aa6f5b"/>
      <path d="M289.6383,354.7018c.0215.001.0439.002.0654.002a.8754.8754,0,0,0,.8721-.8105c2.1221-28.5469,1.2676-42.5176.5811-53.7422-.2979-4.8682-.5791-9.4648-.5791-14.57a.875.875,0,0,0-1.75,0c0,5.1582.2832,9.7822.582,14.6768.6836,11.1729,1.5342,25.0771-.58,53.5068A.8763.8763,0,0,0,289.6383,354.7018Z" style="fill: #aa6f5b"/>
      <path d="M288.0123,363.5231a.8785.8785,0,0,0-1.0215.6992c-.0322.1734-1.4028,7.5392-3.0229,17.7776h1.7715c1.5967-10.0643,2.94-17.2842,2.9722-17.4553A.8755.8755,0,0,0,288.0123,363.5231Z" style="fill: #aa6f5b"/>
      <path d="M297.3043,285.527a.8747.8747,0,0,0-1.7461.1074c1.4063,22.9833,3.1431,51.4016-4.5322,96.3655H292.8C300.4512,337.0112,298.7139,308.552,297.3043,285.527Z" style="fill: #aa6f5b"/>
      <path d="M298.5064,382h1.77c.6553-4.4915,1.2573-9.6665,1.749-15.88,2.917-36.8574.03-80.165.001-80.5986a.8866.8866,0,0,0-.9326-.8135.8747.8747,0,0,0-.8135.9326c.0293.4316,2.9072,43.6143.001,80.3408C299.7833,372.2673,299.1715,377.4813,298.5064,382Z" style="fill: #aa6f5b"/>
      <path d="M305.7774,382c4.8091-34.5472,3.5034-84.7352,2.3735-96.5032a.8751.8751,0,1,0-1.7422.168C307.5367,297.41,308.84,347.5964,304.01,382Z" style="fill: #aa6f5b"/>
      <path d="M309.586,382h1.7715c1.3174-8.3394,2.4731-15.8644,2.9565-20.4407,2.5889-24.4746.6084-58.1426-.2373-72.5186l-.2031-3.5088a.89.89,0,0,0-.9229-.8252.8764.8764,0,0,0-.8252.9229l.2041,3.5137c.8428,14.334,2.8174,47.9.2441,72.2324C312.0885,365.9613,310.9176,373.5756,309.586,382Z" style="fill: #aa6f5b"/>
      <path d="M317.3292,382h1.76c.7964-7.5762,1.6914-16.1454,2.2212-25.9016a467.8057,467.8057,0,0,0-1.8193-70.62.8752.8752,0,1,0-1.7383.2051,465.5794,465.5794,0,0,1,1.81,70.3193C319.0308,365.7951,318.1671,374.0346,317.3292,382Z" style="fill: #aa6f5b"/>
      <path d="M328.9449,365.3327l.6045-4.7285c3.7188-29.2783,1.7822-56.8877.0029-75.1084a.8752.8752,0,1,0-1.7422.17c1.7725,18.1367,3.7,45.6143.0029,74.7178l-.6045,4.7266c-.7183,5.5974-1.4395,11.2328-2.0747,16.89h1.7617C327.524,376.4184,328.2359,370.857,328.9449,365.3327Z" style="fill: #aa6f5b"/>
      <path d="M330.8595,382H332.62c.44-3.9114.9829-7.9719,1.6587-12.2014,5.2813-33.05,1.5264-83.7754,1.4873-84.2842a.8848.8848,0,0,0-.9385-.8057.8736.8736,0,0,0-.8057.9385c.0381.5059,3.7773,51.0264-1.4717,83.876C331.859,373.85,331.3053,378.0021,330.8595,382Z" style="fill: #aa6f5b"/>
      <path d="M345.8277,285.5436a.8748.8748,0,1,0-1.748.0742c.2607,6.1035.2,11.4834.1416,16.6865-.1182,10.4736-.2295,20.3672,2.2373,34.5908a255.8946,255.8946,0,0,0,7.2529,29.0166c1.5244,5.1943,3.0723,10.4979,4.4844,16.0881h1.8047c-1.4468-5.7751-3.0405-11.2357-4.6094-16.5813-2.7773-9.4629-5.4-18.4014-7.208-28.8223-2.44-14.0664-2.3291-23.8809-2.2119-34.2725C346.03,297.0983,346.09,291.694,345.8277,285.5436Z" style="fill: #aa6f5b"/>
      <path d="M338.1178,374.9626a.9017.9017,0,0,0,.1758.0176.875.875,0,0,0,.8564-.7,197.8177,197.8177,0,0,0,3.127-41.3154c-.1367-3.7578-.26-8.9229-.3906-14.3916-.2891-12.0742-.6162-25.7588-1.2539-33.0684a.8754.8754,0,1,0-1.7441.1523c.6338,7.2539.96,20.91,1.248,32.958.1309,5.4746.2549,10.6445.3926,14.4141a195.937,195.937,0,0,1-3.0937,40.9014A.8749.8749,0,0,0,338.1178,374.9626Z" style="fill: #aa6f5b"/>
      <path d="M345.21,355.195a.8746.8746,0,0,0-.6729,1.0381c.8867,4.1611,5.166,17.5693,5.3486,18.1387a.8746.8746,0,0,0,1.666-.5332c-.0439-.1387-4.4346-13.8936-5.3037-17.9707A.8717.8717,0,0,0,345.21,355.195Z" style="fill: #aa6f5b"/>
      <path d="M341.6549,380.0583a4.8716,4.8716,0,0,1,3.0938-2.0273c.0889-.0088.18-.0137.2715-.0137a6.2962,6.2962,0,0,1,3.7881,1.8232A16.7293,16.7293,0,0,1,350.8394,382h2.2256a20.2518,20.2518,0,0,0-3.1113-3.4827c-1.88-1.6279-3.7354-2.3984-5.3867-2.2266a6.5443,6.5443,0,0,0-4.2744,2.6689,15.0891,15.0891,0,0,0-1.8447,3.04h1.9292A13.1331,13.1331,0,0,1,341.6549,380.0583Z" style="fill: #aa6f5b"/>
      <path d="M363.5484,382h1.7979c-1.1792-5.1533-2.4453-9.6577-3.7017-13.8693a14.81,14.81,0,0,0-2.0063-.5992C360.9591,371.92,362.3009,376.6024,363.5484,382Z" style="fill: #aa6f5b"/>
      <path d="M352.189,337.8c1.5332,10.32,3.8926,18.0547,6.3906,26.2441q.2095.6862.42,1.3793v-6.0267a148.8207,148.8207,0,0,1-5.0806-21.8546c-2.31-15.5469-1.8408-26.2334-1.4268-35.6621a155.0853,155.0853,0,0,0,.1387-16.3516.8746.8746,0,0,0-1.7461.1035,154.1286,154.1286,0,0,1-.1406,16.1709C350.3267,311.3112,349.8541,322.0866,352.189,337.8Z" style="fill: #aa6f5b"/>
      <path d="M369.1324,382h1.7808c-.4409-2.3921-.896-4.6414-1.3623-6.7758a14.88,14.88,0,0,0-2.6284-3.6409C367.6851,374.78,368.4273,378.2065,369.1324,382Z" style="fill: #aa6f5b"/>
      <path d="M356.0123,308.2351a.8748.8748,0,0,0-.875.875c0,7.5352,1.4424,19.3271,3.7656,30.7725.0317.1571.0649.3061.0972.4621v-9.7084a146.5815,146.5815,0,0,1-2.1128-21.5261A.8748.8748,0,0,0,356.0123,308.2351Z" style="fill: #aa6f5b"/>
      <path d="M358.1588,285.6071c.0039.1255.1631,4.9235.8413,12.8194V284.7075A.8751.8751,0,0,0,358.1588,285.6071Z" style="fill: #aa6f5b"/>
      <path d="M325.5289,342.3415c.0156.001.0313.001.0469.001a.8752.8752,0,0,0,.873-.8291c.7607-14.5684-.0635-32.8936-2.52-56.0254a.875.875,0,0,0-1.74.1855c2.4463,23.0381,3.2686,41.2734,2.5117,55.748A.8756.8756,0,0,0,325.5289,342.3415Z" style="fill: #aa6f5b"/>
      <path d="M277.8336,346.6c.0186.001.0371.002.0557.002a.8749.8749,0,0,0,.8721-.82c.9775-15.4746.0117-59.7744.002-60.2207a.8752.8752,0,0,0-.875-.8555h-.0127a.8763.8763,0,0,0-.8623.8945c.01.4443.9746,44.67.002,60.0723A.875.875,0,0,0,277.8336,346.6Z" style="fill: #aa6f5b"/>
      <path d="M273.1763,376.2624a.8748.8748,0,0,0,1.0557-.6455c.1172-.4873,2.8525-12.0459,1.0654-21.9385-1.7412-9.6377-2.0928-67.52-2.0957-68.1025a.875.875,0,0,0-.875-.87h-.0049a.8748.8748,0,0,0-.87.88c.0137,2.3887.3555,58.6172,2.123,68.4033,1.7217,9.5244-1.0166,21.1025-1.0439,21.2178A.875.875,0,0,0,273.1763,376.2624Z" style="fill: #aa6f5b"/>
      <path d="M267.1754,285.5808a.875.875,0,0,0-1.75,0c0,17.7686,1.1045,30.4678,2.3838,45.1709.3311,3.8057.6758,7.7754,1.0215,12.0371a.875.875,0,0,0,.8711.8047c.0234,0,.0479-.001.0713-.0029a.8744.8744,0,0,0,.8018-.9424c-.3457-4.2666-.6914-8.2393-1.0225-12.0479C268.2769,315.9372,267.1754,303.2731,267.1754,285.5808Z" style="fill: #aa6f5b"/>
      <path d="M91.7452,374.2241Q91.54,378.06,91.1087,382h1.7625c.3772-3.4685.6169-6.8723.7388-10.2165A14.9138,14.9138,0,0,0,91.7452,374.2241Z" style="fill: #aa6f5b"/>
      <path d="M98.8248,382a133.2558,133.2558,0,0,0,1.1953-14.1866,14.7717,14.7717,0,0,0-1.7725.6768A132.2743,132.2743,0,0,1,97.06,382Z" style="fill: #aa6f5b"/>
      <path d="M104.8219,352.57c.1475,3.4736.1592,7.1143.1719,10.9678.0183,5.6835.0417,11.74.4717,18.4622H107.22c-.4348-6.7263-.4578-12.7837-.4758-18.467-.0127-3.8721-.0244-7.5293-.1738-11.0371-.3389-7.9482-1.8135-15.86-3.24-23.5127-.967-5.1863-1.8623-10.0893-2.33-14.5849v11.605c.2,1.091.4011,2.184.6091,3.3C103.025,336.8962,104.4879,344.7458,104.8219,352.57Z" style="fill: #aa6f5b"/>
      <path d="M101,306.0537a46.476,46.476,0,0,1,2.9919-10.675c1.2227-3.2559,2.3779-6.3311,2.5771-9.7471a.8736.8736,0,0,0-.8223-.9238.8528.8528,0,0,0-.9238.8223c-.1846,3.1514-1.2939,6.1055-2.47,9.2334-.4512,1.2012-.917,2.4426-1.3533,3.7486Z" style="fill: #aa6f5b"/>
      <path d="M111.4654,284.7067a.8687.8687,0,0,0-.9238.8242c-.2012,3.5107-1.5918,7.1387-3.0645,10.98-2.0918,5.4541-4.2549,11.0957-3.6387,17.542.54,5.6553,2.1484,11.8936,3.7041,17.9268a120.592,120.592,0,0,1,3.4473,16.249,170.6132,170.6132,0,0,1,.4912,17.66c-.02,5.3525-.0393,10.8394.2373,16.1106h1.751c-.2788-5.2528-.2588-10.7465-.2383-16.1038a171.9934,171.9934,0,0,0-.501-17.8564,123.8072,123.8072,0,0,0-3.4932-16.4961c-1.5381-5.9678-3.1289-12.1387-3.6562-17.6562-.5771-6.0381,1.5107-11.4834,3.53-16.75,1.5225-3.9717,2.9619-7.7236,3.1787-11.5068A.8764.8764,0,0,0,111.4654,284.7067Z" style="fill: #aa6f5b"/>
      <path d="M110.5338,301.2116a.8752.8752,0,0,0,.7773,1.5684c3.4727-1.7207,8.6621,2,8.7129,2.0381a.8751.8751,0,0,0,1.2461-1.1875c-2.1787-3.3223-2.78-10.28-3.3105-16.42l-.1494-1.708a.8746.8746,0,0,0-1.7422.1563l.1484,1.7021c.4365,5.0518.9189,10.64,2.3193,14.57C116.3707,300.8893,113.19,299.8942,110.5338,301.2116Z" style="fill: #aa6f5b"/>
      <path d="M114.8131,323.9479a5.1144,5.1144,0,0,0,.9541-.0908c3.9287-.748,5.8457-2.0312,6.8174-7.6543a10.2,10.2,0,0,0-2.3223-8.1787,7.6226,7.6226,0,0,0-5.6416-2.9834,6.8584,6.8584,0,0,0-5.31,2.167c-1.5215,1.709-2.1338,4.251-1.7725,7.3506.4229,3.623,1.9541,6.7236,4.0957,8.2959A5.333,5.333,0,0,0,114.8131,323.9479Zm-5.5361-9.5928c-.2979-2.5518.1787-4.6777,1.3408-5.9844a5.1032,5.1032,0,0,1,4.0029-1.58,5.9874,5.9874,0,0,1,4.3027,2.36,8.4306,8.4306,0,0,1,1.9365,6.7529c-.8447,4.8926-2.2285,5.626-5.4209,6.2344a3.4536,3.4536,0,0,1-2.7686-.6953C110.939,320.1735,109.6392,317.4567,109.2769,314.3552Z" style="fill: #aa6f5b"/>
      <path d="M115.0445,320.5944a5.4863,5.4863,0,0,0,.8193-.0645c1.6846-.2588,2.8984-1.7383,3.248-3.959.4443-2.8213-.5527-6.4687-2.9893-7.6885a.8748.8748,0,1,0-.7832,1.5645c1.6436.8232,2.3838,3.69,2.0439,5.8516-.1084.6865-.498,2.3037-1.7852,2.501a2.0721,2.0721,0,0,1-1.7617-.3525c-1.0332-.8994-1.1318-3.3281-1.1016-5.3437a.8749.8749,0,0,0-.8623-.8877H111.86a.8753.8753,0,0,0-.875.8623c-.0391,2.67.14,5.3281,1.7012,6.6885A3.4694,3.4694,0,0,0,115.0445,320.5944Z" style="fill: #aa6f5b"/>
      <path d="M114.2105,338.781a.8753.8753,0,1,0,1.7363-.2227,24.0241,24.0241,0,0,0-2.2354-6.918,9.0329,9.0329,0,0,1-.9971-2.8057,2.6483,2.6483,0,0,1,2.4785-.1113c.4551.2188.9258.6133.5273,1.7373a.8747.8747,0,0,0,1.6484.5859,2.9714,2.9714,0,0,0-.5117-3.26,4.4219,4.4219,0,0,0-4.2568-.85,2.1138,2.1138,0,0,0-1.6055,1.6055c-.1484.999.3838,2.1807,1.1221,3.8164A22.6,22.6,0,0,1,114.2105,338.781Z" style="fill: #aa6f5b"/>
      <path d="M122.7379,285.4685a.8754.8754,0,0,0-1.7363.2246,78.0994,78.0994,0,0,0,2.4668,10.86c1.6816,6.0371,3.2686,11.74,2.2725,17.8a123.9091,123.9091,0,0,1-3.6016,14.1523c-1.7871,6.0527-3.4746,11.7705-3.8057,16.5137-.4619,6.6191-.5615,16.6064-.3066,30.5313.04,2.1738.1414,4.2781.3223,6.4495h1.7559c-.1855-2.1871-.2883-4.299-.3281-6.4807-.2549-13.874-.1553-23.8105.3027-30.3789.3184-4.5527,1.9795-10.1807,3.7383-16.14a125.1234,125.1234,0,0,0,3.6494-14.3643c1.06-6.44-.6553-12.5977-2.3125-18.5527A76.5547,76.5547,0,0,1,122.7379,285.4685Z" style="fill: #aa6f5b"/>
      <path d="M124.526,340.5768a.888.888,0,0,0,.3027.0537.8765.8765,0,0,0,.8213-.5723c9.583-25.98,7.3545-35.8516,5.5625-43.7832a38.6126,38.6126,0,0,1-1.2559-8.5586.8748.8748,0,0,0-.875-.8691h-.0059a.8748.8748,0,0,0-.8691.8809,39.9975,39.9975,0,0,0,1.2988,8.9316c1.8311,8.1084,3.9072,17.2988-5.498,42.793A.8763.8763,0,0,0,124.526,340.5768Z" style="fill: #aa6f5b"/>
      <path d="M134.6666,299.152a.8752.8752,0,0,0,.873-.8291,102.3014,102.3014,0,0,1,1.3916-12.5762.8753.8753,0,1,0-1.7187-.332,104.4628,104.4628,0,0,0-1.4209,12.8164.875.875,0,0,0,.8281.92C134.6353,299.152,134.651,299.152,134.6666,299.152Z" style="fill: #aa6f5b"/>
      <path d="M129.6275,333.7634c-3.8027,12.001-7.0869,22.3652-6.5166,39.9072.0886,2.7119.3074,5.4982.6133,8.3293h1.7583c-.3123-2.856-.533-5.6609-.6216-8.386-.5615-17.2432,2.6807-27.4746,6.4346-39.3223.5342-1.6875,1.0811-3.4141,1.6318-5.2031,4.5059-14.64,7.7666-34.8711,7.7666-41.3662a.875.875,0,0,0-1.75,0c0,6.3887-3.2285,26.3574-7.6885,40.8516C130.7056,330.3581,130.1607,332.08,129.6275,333.7634Z" style="fill: #aa6f5b"/>
      <path d="M143.7222,284.7077a.861.861,0,0,0-.9238.8223c-.6924,11.8525-2.0654,28.9971-5.9814,40.9922l-.5527,1.6895c-3.7266,11.3691-9.3584,28.55-8.6787,45.28.1067,2.62.4026,5.4678.8218,8.5081h1.7646c-.43-3.08-.7312-5.9507-.8384-8.5784-.667-16.416,4.9063-33.415,8.5938-44.6641l.5537-1.6924c3.9785-12.1885,5.3662-29.4844,6.0635-41.4336A.8736.8736,0,0,0,143.7222,284.7077Z" style="fill: #aa6f5b"/>
      <path d="M137.5982,341.6413c-3.3054,11.3593-4.4565,24.6854-3.4839,40.3586h1.7532c-.9729-15.5129.1538-28.6776,3.41-39.87,1.1279-3.875,2.3008-7.5664,3.4336-11.1367,4.5127-14.207,8.4092-26.4775,7.6465-43.3105a.8749.8749,0,0,0-1.748.08c.748,16.5205-3.1045,28.6533-7.5654,42.7012C139.9068,334.0436,138.732,337.7448,137.5982,341.6413Z" style="fill: #aa6f5b"/>
      <path d="M157.5709,284.7058a.8748.8748,0,0,0-.875.875c0,9.1338,0,14.6475-6.4707,35.7725C144.7486,339.23,138.68,362.1238,139.6556,382h1.752c-.9856-19.6231,5.0486-42.3679,10.4915-60.135,6.5469-21.375,6.5469-26.9863,6.5469-36.2842A.8748.8748,0,0,0,157.5709,284.7058Z" style="fill: #aa6f5b"/>
      <path d="M145.4527,376.3483c.0256,1.314.2012,3.2427.4844,5.6516h1.7646c-.2908-2.4453-.4741-4.4058-.499-5.6858-.1953-10.01,4.126-26.9375,8.958-44.873,4.3291-16.0674,8.2471-32.749,7.61-45.9023a.8875.8875,0,0,0-.916-.832.8747.8747,0,0,0-.832.916c.625,12.9131-3.26,29.4336-7.5518,45.3633C149.6051,349.0476,145.2535,366.1081,145.4527,376.3483Z" style="fill: #aa6f5b"/>
      <path d="M169.6031,284.7058a.8748.8748,0,0,0-.875.875c0,10.9014-2.1738,23.6582-7.2676,42.6533-.6475,2.4111-1.3291,4.8613-2.02,7.3379-3.6221,13.01-7.3682,26.4629-7.4189,38.9922-.0088,2.1855.1128,4.6938.325,7.4358h1.7551c-.2151-2.7479-.3389-5.2551-.33-7.428.05-12.2949,3.7637-25.6318,7.3555-38.53.69-2.4824,1.375-4.9385,2.0225-7.3545,5.1367-19.1514,7.3281-32.043,7.3281-43.1064A.8748.8748,0,0,0,169.6031,284.7058Z" style="fill: #aa6f5b"/>
      <path d="M176.7594,284.7058h-.0059a.8748.8748,0,0,0-.875.8691c-.1,14.1523-3.7969,27.12-7.3711,39.66-1.2,4.208-2.44,8.56-3.502,12.8281-4.0039,16.1113-7.5674,32.4365-6.5293,42.7031.04.395.083.8088.1282,1.2336h1.7593c-.0522-.4883-.1018-.96-.1472-1.4094-1.01-10.001,2.5215-26.1465,6.4883-42.1055,1.0537-4.2393,2.29-8.5762,3.4854-12.77,3.6074-12.6533,7.3369-25.7373,7.4385-40.1289A.8755.8755,0,0,0,176.7594,284.7058Z" style="fill: #aa6f5b"/>
      <path d="M177.9429,309.9118a.8769.8769,0,0,0-1.0039.7227c-.8779,5.4072-2.8457,13.9551-4.748,22.2217-1.6045,6.9727-3.1211,13.56-3.8437,17.6738-.5068,2.8809-1.0713,5.7-1.6172,8.4268-1.5264,7.6289-2.9678,14.834-2.8213,21.74a.8761.8761,0,0,0,.875.8564h.0186a.8756.8756,0,0,0,.8564-.8936c-.1436-6.7139,1.28-13.8281,2.7871-21.36.5479-2.7363,1.1143-5.5654,1.624-8.4668.7158-4.0693,2.2266-10.6338,3.8262-17.584,1.9092-8.2939,3.8828-16.87,4.77-22.333A.8738.8738,0,0,0,177.9429,309.9118Z" style="fill: #aa6f5b"/>
      <path d="M179.5836,325.5749a322.4476,322.4476,0,0,1-6.45,33.85c-2.0688,8.9894-3.8518,16.7628-4.1836,22.5754h1.7549c.3374-5.6543,2.0952-13.32,4.1338-22.1838a323.2038,323.2038,0,0,0,6.4814-34.03l.4385-3.5947c2.2539-18.4912,3.0967-25.4092,2.7236-36.64a.8758.8758,0,0,0-.874-.8457h-.03a.8751.8751,0,0,0-.8447.9043c.3691,11.0947-.47,17.9766-2.7119,36.3691Z" style="fill: #aa6f5b"/>
      <path d="M189.3316,284.7058h-.0039a.8746.8746,0,0,0-.875.8711c-.1543,32.7783-3.6279,60.6279-10.6182,85.1406a.8762.8762,0,0,0,.6016,1.082.89.89,0,0,0,.24.0332.8766.8766,0,0,0,.8418-.6348c7.0342-24.6689,10.5293-52.6729,10.6846-85.6133A.8748.8748,0,0,0,189.3316,284.7058Z" style="fill: #aa6f5b"/>
      <path d="M176.2349,379.8122a.8768.8768,0,0,0-.9893.7432c-.0662.4657-.1311.9529-.1953,1.4446h1.7656c.0537-.4045.1072-.8121.1621-1.1985A.8747.8747,0,0,0,176.2349,379.8122Z" style="fill: #aa6f5b"/>
      <path d="M194.08,284.7058a.9022.9022,0,0,0-.8936.8564c-.0254,1.2041-.0449,2.9531-.0684,5.124-.1553,14.3193-.52,47.8535-4.4385,62.7344-1.042,3.9521-2.1719,7.7051-3.2646,11.334-1.7241,5.7258-3.397,11.3066-4.5957,17.2454h1.7891c1.18-5.75,2.8066-11.1761,4.4824-16.7415,1.0977-3.6426,2.2314-7.41,3.28-11.3926,3.9756-15.09,4.3408-48.7764,4.4971-63.1611.0234-2.1631.043-3.9062.0684-5.1055A.8756.8756,0,0,0,194.08,284.7058Z" style="fill: #aa6f5b"/>
      <path d="M198.8824,284.7058h-.001a.8748.8748,0,0,0-.874.876c.0068,7.3682-.167,15.1484-.335,22.6729-.1689,7.5547-.3437,15.3652-.3437,22.959,0,16.584-2.6924,31.7422-7.2012,40.5488A44.56,44.56,0,0,0,186.6219,382h1.8235a42,42,0,0,1,3.24-9.4407c4.63-9.041,7.3936-24.498,7.3936-41.3457,0-7.5742.1748-15.375.3438-22.92.168-7.5342.3428-15.3252.335-22.7139A.8759.8759,0,0,0,198.8824,284.7058Z" style="fill: #aa6f5b"/>
      <path d="M203.0484,338.09c0,4.29-.1045,8.1934-.1963,11.6377-.2783,10.39-.4795,17.8975,2.2129,26.041A64.46,64.46,0,0,1,206.78,382h1.7908a66.3745,66.3745,0,0,0-1.8435-6.7805c-2.5967-7.8535-2.3994-15.2324-2.126-25.4453.0928-3.4551.1973-7.3721.1973-11.6846,0-7.2705.1934-15.9316.3809-24.3086.25-11.1514.4854-21.6846.26-28.23a.8745.8745,0,0,0-1.748.0605c.2227,6.4961-.0127,17.0049-.2607,28.1309C203.2428,322.1286,203.0484,330.8,203.0484,338.09Z" style="fill: #aa6f5b"/>
      <path d="M208.3795,342.7438a.8748.8748,0,0,0,.875.85h.0254a.8758.8758,0,0,0,.85-.9c-.333-11.6387.08-23.1094.4785-34.2021.2969-8.2578.5771-16.0566.49-22.9209a.8358.8358,0,0,0-.8857-.8643.8755.8755,0,0,0-.8643.8857c.0859,6.8223-.1934,14.6006-.4893,22.8369C208.46,319.5485,208.0455,331.0485,208.3795,342.7438Z" style="fill: #aa6f5b"/>
      <path d="M210.1295,352.1335a.8435.8435,0,0,0-.9033-.8467.8765.8765,0,0,0-.8467.9033c.0137.415.0215.8994.0293,1.4531a81.4171,81.4171,0,0,0,3.751,24.3291c.4011,1.3113.7209,2.6614,1.0015,4.0276h1.7864a45.901,45.901,0,0,0-1.114-4.5393,79.763,79.763,0,0,1-3.6748-23.8428C210.15,353.0524,210.1431,352.5573,210.1295,352.1335Z" style="fill: #aa6f5b"/>
      <path d="M199.16,359.7614a.8618.8618,0,0,0-.94.8037c-.0254.3125-.5859,7.7266,1.0693,13.2363a.875.875,0,1,0,1.6758-.5039c-1.56-5.1914-1.0068-12.5215-1.001-12.5957A.8743.8743,0,0,0,199.16,359.7614Z" style="fill: #aa6f5b"/>
      <path d="M198.0787,376.8747c-2.3809.394-4.2812,2.1161-5.7017,5.1252h1.9338c1.0933-1.9852,2.4485-3.1331,4.053-3.3987a1.8934,1.8934,0,0,1,.31-.0264,1.6062,1.6062,0,0,1,1.0859.4326A6.39,6.39,0,0,1,201.3785,382h1.7964a8.7812,8.7812,0,0,0-2.272-4.3176A3.3573,3.3573,0,0,0,198.0787,376.8747Z" style="fill: #aa6f5b"/>
      <path d="M216.0094,285.5808a.875.875,0,0,0-1.75,0c0,12.4717-.4668,20.5723-.8789,27.72a206.8538,206.8538,0,0,0,.125,32.8184,131.7636,131.7636,0,0,0,4.0225,23.792A95.0494,95.0494,0,0,1,219.9532,382h1.7476a94.94,94.94,0,0,0-2.4736-12.5081,130.3062,130.3062,0,0,1-3.9775-23.5078,205.4918,205.4918,0,0,1-.1221-32.583C215.5406,306.23,216.0094,298.1032,216.0094,285.5808Z" style="fill: #aa6f5b"/>
      <path d="M224.44,284.7058h-.0029a.8742.8742,0,0,0-.875.8721,161.5271,161.5271,0,0,1-1.8584,20c-1.3428,10.1143-2.8633,21.5781-2.2832,34.2178a141.0361,141.0361,0,0,0,3.8076,25.7A137.1279,137.1279,0,0,1,226.1124,382h1.76a137.5705,137.5705,0,0,0-2.9341-16.8792,139.46,139.46,0,0,1-3.77-25.4053c-.5732-12.4844.9375-23.8652,2.27-33.9072a162.8263,162.8263,0,0,0,1.874-20.2246A.8754.8754,0,0,0,224.44,284.7058Z" style="fill: #aa6f5b"/>
      <path d="M225.0015,319.8884a.8908.8908,0,0,0-.9072.8408c-.2012,5.2881.3643,26.8633,3.1465,38.31a.8767.8767,0,0,0,.85.668.8959.8959,0,0,0,.208-.0244.8762.8762,0,0,0,.6436-1.0576c-2.7422-11.28-3.2979-32.6-3.1-37.8291A.8738.8738,0,0,0,225.0015,319.8884Z" style="fill: #aa6f5b"/>
      <path d="M229.7984,297.92c-.0068-4.4531-.0137-8.3-.1484-12.3682a.875.875,0,1,0-1.749.0586c.1338,4.04.1406,7.874.1475,12.3125.0107,7.1846.0244,16.127.6426,29.4668.4219,9.1152,1.2676,16.293,2.085,23.2334,1.0723,9.1055,2.085,17.7051,1.8594,29.1123-.0146.7468-.0605,1.5092-.0933,2.2649h1.7515c.0317-.7438.0771-1.4939.0918-2.23.2275-11.5283-.792-20.1855-1.8721-29.3516-.8135-6.9111-1.6553-14.0576-2.0742-23.1094C229.8228,314.0075,229.8092,305.0876,229.7984,297.92Z" style="fill: #aa6f5b"/>
      <path d="M238.7242,285.569a.8755.8755,0,0,0-.875-.8633h-.0078a.8763.8763,0,0,0-.8672.8867c.0029.2246.3271,22.65,1.7783,40.16.6377,7.6816,1.6865,16.0156,2.7021,24.0762,1.2676,10.0635,2.5781,20.4707,3.0166,29.2275.05.99.0706,1.9686.0786,2.9436h1.75c-.0083-1.0033-.03-2.0114-.0811-3.0315-.4424-8.8232-1.7568-19.2627-3.0283-29.3584-1.0127-8.042-2.0605-16.3584-2.6943-24.002C239.05,308.1589,238.7271,285.7927,238.7242,285.569Z" style="fill: #aa6f5b"/>
      <path d="M233.9908,285.5671a.8611.8611,0,0,0-.8887-.8613.8749.8749,0,0,0-.8613.8887c.0039.2559.4238,25.8057,1.79,46.6943.4756,7.2666,1.2969,14.2529,2.0928,21.0088,1.1753,9.989,2.2935,19.544,2.1216,28.7024h1.75c.1716-9.259-.9526-18.8657-2.1348-28.9065-.792-6.7344-1.6113-13.6982-2.084-20.918C234.4136,311.33,233.9947,285.822,233.9908,285.5671Z" style="fill: #aa6f5b"/>
      <path d="M243.6021,284.7067c-.0107-.001-.0215-.001-.0332-.001a.8744.8744,0,0,0-.873.8428,293.3575,293.3575,0,0,0,1.8691,40.9668c.5146,4.8984,1.1924,10.1318,1.91,15.6729,1.66,12.8021,3.5154,27.2393,3.5071,39.8118h1.75c.0076-12.6862-1.8557-27.1832-3.5208-40.0364-.7168-5.53-1.3945-10.7539-1.9062-15.6318a291.8012,291.8012,0,0,1-1.8613-40.7187A.8737.8737,0,0,0,243.6021,284.7067Z" style="fill: #aa6f5b"/>
      <path d="M249.5728,285.5681a.8747.8747,0,0,0-.875-.8623h-.0127a.8755.8755,0,0,0-.8623.8877c.0029.1748.2793,17.6836,1.8906,38.3047.6445,8.251,1.7275,17.5771,2.7754,26.5967,1.2554,10.8032,2.5427,21.8972,3.1265,31.5051h1.7537c-.5837-9.6815-1.8792-20.8416-3.1418-31.7073-1.0459-9.0029-2.127-18.3125-2.77-26.5312C249.8511,303.1979,249.5758,285.7419,249.5728,285.5681Z" style="fill: #aa6f5b"/>
      <path d="M254.024,284.7058a.8748.8748,0,0,0-.875.875c0,17.0488,2.2832,38.5156,4.4912,59.2764,1.4619,13.7452,2.8425,26.7286,3.3982,37.1428h1.7522l-.0029-.0715c-.5576-10.4629-1.9414-23.4775-3.4072-37.2559-2.2031-20.7158-4.4814-42.1367-4.4814-59.0918A.8748.8748,0,0,0,254.024,284.7058Z" style="fill: #aa6f5b"/>
      <path d="M260.1441,285.5583a.8753.8753,0,0,0-.875-.8525h-.0225a.8764.8764,0,0,0-.8525.8975c.6064,24.0566,2.5859,41.1846,4.5,57.748.57,4.9414,1.1094,9.6094,1.6143,14.4561l.2773,2.6611c.8208,7.84,1.5439,14.811,1.8843,21.5315h1.7539c-.3413-6.7822-1.07-13.8094-1.897-21.7131l-.2783-2.6611c-.5049-4.8564-1.0449-9.5283-1.6162-14.4746C262.7232,326.6257,260.7486,309.5368,260.1441,285.5583Z" style="fill: #aa6f5b"/>
      <path d="M219.5054,284.7058h-.002a.8754.8754,0,0,0-.873.877c.0088,5.125-.791,12.5254-.8,12.6a.876.876,0,0,0,.7754.9648c.0322.0029.0645.0049.0957.0049a.8757.8757,0,0,0,.8691-.78c.0078-.0752.8184-7.5693.81-12.793A.875.875,0,0,0,219.5054,284.7058Z" style="fill: #aa6f5b"/>
    </g>
    <rect id="_Rectangle_11" data-name="&lt;Rectangle&gt;" x="100.9999" y="285.243" width="258" height="8.8693" style="opacity: 0.05"/>
    <g id="_Group_" data-name="&lt;Group&gt;">
      <rect id="_Rectangle_12" data-name="&lt;Rectangle&gt;" x="167.7257" y="192" width="124.5484" height="81.8307" rx="8.9415" ry="8.9415" style="fill: #e3e3e3"/>
      <g id="_Group_2" data-name="&lt;Group&gt;" style="opacity: 0.30000000000000004">
        <rect id="_Rectangle_13" data-name="&lt;Rectangle&gt;" x="161.6764" y="247.575" width="30.7653" height="6.1654" rx="3.0827" ry="3.0827" transform="translate(-73.5987 427.7167) rotate(-90)" style="fill: #fff"/>
        <rect id="_Rectangle_14" data-name="&lt;Rectangle&gt;" x="173.7851" y="223.8962" width="6.5478" height="6.1654" rx="3.0827" ry="3.0827" transform="translate(-49.9199 404.038) rotate(-90)" style="fill: #fff"/>
      </g>
      <path d="M283.7656,192h-5.875a8.8011,8.8011,0,0,1,8.8011,8.801V265.03a8.8011,8.8011,0,0,1-8.8011,8.801h5.875a8.8011,8.8011,0,0,0,8.8011-8.801V200.801A8.8011,8.8011,0,0,0,283.7656,192Z" style="fill: #dbdbdb"/>
      <path id="_Path_14" data-name="&lt;Path&gt;" d="M238.2734,234.0891a6.6388,6.6388,0,0,1-3.2495-10.2463,10.4027,10.4027,0,1,0,5.2715,10.5847A6.6347,6.6347,0,0,1,238.2734,234.0891Z" style="fill: #b2b2b2"/>
      <path d="M226.9859,229.6513a10.3163,10.3163,0,0,1,6.4592-6.5088c-.0374-.0129-.0718-.03-.1094-.0425a10.344,10.344,0,1,0,.0923,19.5883A10.3409,10.3409,0,0,1,226.9859,229.6513Z" style="fill: #bfbfbf"/>
    </g>
    <line id="_Path_15" data-name="&lt;Path&gt;" x1="127.7188" y1="264.878" x2="140.642" y2="224.464" style="fill: none;stroke: #5e5e5e;stroke-linecap: round;stroke-miterlimit: 10;stroke-width: 5px"/>
    <line id="_Path_16" data-name="&lt;Path&gt;" x1="125.814" y1="262.7163" x2="123.6237" y2="220.343" style="fill: none;stroke: #5e5e5e;stroke-linecap: round;stroke-miterlimit: 10;stroke-width: 5px"/>
    <path id="_Rectangle_15" data-name="&lt;Rectangle&gt;" d="M115.5318,247.3333h26a0,0,0,0,1,0,0V266.564a7.2667,7.2667,0,0,1-7.2667,7.2667H122.7985a7.2667,7.2667,0,0,1-7.2667-7.2667V247.3333a0,0,0,0,1,0,0Z" style="fill: #474747"/>
    <rect x="115.5318" y="247.3333" width="26" height="6.3333" style="fill: #686868"/>
    <rect x="115.5318" y="253.6667" width="26" height="13.6631" style="fill: url(#linear-gradient)"/>
    <rect id="_Path_17" data-name="&lt;Path&gt;" x="115.5318" y="305.9732" width="68.6667" height="61.1611" rx="7.0134" ry="7.0134" style="opacity: 0.05"/>
    <rect id="_Path_18" data-name="&lt;Path&gt;" x="195.1985" y="305.9732" width="68.6667" height="61.1611" rx="7.0134" ry="7.0134" style="opacity: 0.05"/>
    <rect id="_Path_19" data-name="&lt;Path&gt;" x="274.8651" y="305.9732" width="68.6667" height="61.1611" rx="7.0134" ry="7.0134" style="opacity: 0.05"/>
    <rect id="_Rectangle_16" data-name="&lt;Rectangle&gt;" x="93.2499" y="273.8307" width="273.5" height="11.4123" rx="5.7061" ry="5.7061" style="fill: #b77d67"/>
    <path d="M361.0435,273.8307H98.9561a5.7062,5.7062,0,0,0-5.7063,5.7061h0a5.6718,5.6718,0,0,0,.5828,2.5,5.7012,5.7012,0,0,1,5.1235-3.2061H361.0435a5.7,5.7,0,0,1,5.1235,3.2061,5.6719,5.6719,0,0,0,.583-2.5h0A5.7062,5.7062,0,0,0,361.0435,273.8307Z" style="fill: #bf8675"/>
  </g>
</svg>
