<svg id="6e2b79d5-ca36-4779-aac4-baaa94613b36" data-name="Layer 1" xmlns="http://www.w3.org/2000/svg" xmlns:xlink="http://www.w3.org/1999/xlink" viewBox="0 0 528.148 420">
  <defs>
    <linearGradient id="d14c6c6c-847f-4f9a-9b35-1cbc8c547cf9" x1="263.07447" y1="25.68407" x2="263.07447" y2="81.41569" gradientUnits="userSpaceOnUse">
      <stop offset="0" stop-opacity="0"/>
      <stop offset="1"/>
    </linearGradient>
    <linearGradient id="0e6735e2-292b-4cdb-83f1-95748b47ad91" x1="-188.83299" y1="-68.74003" x2="-188.83299" y2="-13.00841" gradientTransform="translate(353.79332 7.63424) rotate(-45)" xlink:href="#d14c6c6c-847f-4f9a-9b35-1cbc8c547cf9"/>
    <linearGradient id="4929b9df-681f-4258-8618-95201ecfcc51" x1="-72.82742" y1="47.26554" x2="-72.82742" y2="102.99716" gradientTransform="matrix(-0.70711, -0.70711, -0.70711, 0.70711, 336.41133, 7.63424)" xlink:href="#d14c6c6c-847f-4f9a-9b35-1cbc8c547cf9"/>
    <linearGradient id="6e9e9998-f86a-4667-bb20-f3b388cfe112" x1="286.52424" y1="153.99547" x2="286.52424" y2="141.15713" gradientUnits="userSpaceOnUse">
      <stop offset="0" stop-color="#3a3a3a" stop-opacity="0"/>
      <stop offset="0.24709" stop-color="#3a3a3a" stop-opacity="0.14343"/>
      <stop offset="0.63647" stop-color="#3a3a3a" stop-opacity="0.53387"/>
      <stop offset="1" stop-color="#3a3a3a"/>
    </linearGradient>
    <linearGradient id="a33157cd-9329-44d8-b602-01e9f91ddf42" x1="239.8895" y1="153.99547" x2="239.8895" y2="141.15713" xlink:href="#6e9e9998-f86a-4667-bb20-f3b388cfe112"/>
  </defs>
  <rect id="ce904a7c-11b1-4717-9096-bcc2326ba278" data-name="&lt;Rectangle&gt;" x="202.13836" y="388.09095" width="121.87126" height="16.77474" rx="8.38736" ry="8.38736" opacity="0.05"/>
  <g>
    <polygon id="a32e2060-4154-4fe4-9fb6-0a7b17a63b48" data-name="&lt;Path&gt;" points="274.327 58.026 274.327 25.684 251.822 25.684 251.822 58.026 243.006 58.026 263.074 81.416 283.143 58.026 274.327 58.026" opacity="0.1" fill="url(#d14c6c6c-847f-4f9a-9b35-1cbc8c547cf9)"/>
    <polygon id="4c60d7ee-23aa-4541-a932-30a295958cb2" data-name="&lt;Path&gt;" points="202.487 107.465 179.618 84.596 163.705 100.509 186.574 123.378 180.34 129.612 211.07 131.961 208.721 101.232 202.487 107.465" opacity="0.1" fill="url(#0e6735e2-292b-4cdb-83f1-95748b47ad91)"/>
    <polygon id="27f0f707-321b-4a45-beed-8124591bd81b" data-name="&lt;Path&gt;" points="323.661 107.465 346.53 84.596 362.443 100.509 339.574 123.378 345.808 129.612 315.078 131.961 317.427 101.232 323.661 107.465" opacity="0.1" fill="url(#4929b9df-681f-4258-8618-95201ecfcc51)"/>
  </g>
  <g>
    <path d="M289.43148,247.68654H237.828a5.25941,5.25941,0,0,1-5.46344-4.75027l-2.10535-23.75614h66.74107l-2.10535,23.75614A5.25941,5.25941,0,0,1,289.43148,247.68654Z" fill="#3a3a3a"/>
    <polygon points="290.511 271.18 236.748 271.18 234.48 220.634 292.779 220.634 290.511 271.18" fill="#3a3a3a"/>
    <path d="M273.99807,180.55513l-10.36835,1.01025-10.36835-1.01025-17.90121,3.81849a11.432,11.432,0,0,0-8.99943,11.21179v27.87638a8.47311,8.47311,0,0,0,8.71082,8.21334H259.055a4.67383,4.67383,0,0,0,3.56975-1.61563,1.33787,1.33787,0,0,1,2.01005,0,4.67386,4.67386,0,0,0,3.56974,1.61563h23.9834a8.47311,8.47311,0,0,0,8.71082-8.21334V195.58541a11.432,11.432,0,0,0-8.99943-11.21179Z" fill="#3a3a3a"/>
    <path d="M252.96533,175.0788h21.32882a0,0,0,0,1,0,0v8.13433a8.467,8.467,0,0,1-8.467,8.467h-4.39483a8.467,8.467,0,0,1-8.467-8.467V175.0788A0,0,0,0,1,252.96533,175.0788Z" fill="#f9bfa2"/>
    <path id="704c5827-752f-4583-895c-b9ccac2eb0ba" data-name="&lt;Path&gt;" d="M263.25489,181.69647h-.09059c-8.20767,0-13.51142-4.87019-18.18587-10.88519-3.36187-4.326-7.36374-8.76143-7.36374-14.66441V136.85751a25.5496,25.5496,0,0,1,25.5496-25.5496h.09059a25.5496,25.5496,0,0,1,25.5496,25.5496v19.28935c0,5.903-4.00186,10.3384-7.36374,14.66441C276.76631,176.82628,271.46257,181.69647,263.25489,181.69647Z" fill="#feccae"/>
    <ellipse id="b83aa0ff-a437-4d2f-8f73-9f39dacfc710" data-name="&lt;Path&gt;" cx="273.87128" cy="144.16151" rx="2.89662" ry="2.55218" fill="#5b5b5b"/>
    <ellipse id="917ac164-da6f-44d2-b446-151adf71bf63" data-name="&lt;Path&gt;" cx="252.54246" cy="144.16151" rx="2.89662" ry="2.55218" fill="#5b5b5b"/>
    <ellipse id="50a3e17a-e3e7-4db6-b52d-e7bd4ef9d375" data-name="&lt;Path&gt;" cx="278.49668" cy="156.32664" rx="1.51586" ry="3.5901" transform="translate(42.91407 371.96349) rotate(-71.77545)" fill="#f9bfa2"/>
    <ellipse id="bdd35809-4a5e-4043-9c38-25d4295bb13d" data-name="&lt;Path&gt;" cx="247.99717" cy="156.32664" rx="3.5901" ry="1.51586" transform="translate(-43.83385 128.48298) rotate(-26.77545)" fill="#f9bfa2"/>
    <path id="90b06c1e-a1f8-46ce-b304-8165d931453e" data-name="&lt;Path&gt;" d="M267.39622,170.99215h-8.50341a10.17268,10.17268,0,0,1-9.75026-7.27364,2.22952,2.22952,0,0,1,2.111-2.89453h23.791a2.18848,2.18848,0,0,1,2.15662,2.7031A10.17259,10.17259,0,0,1,267.39622,170.99215Z" fill="#fff"/>
    <path id="bf58efd6-a55f-438f-85d1-151acc37e3df" data-name="&lt;Path&gt;" d="M269.3892,166.40894H256.80128a.74835.74835,0,1,1,0-1.4967H269.3892a.74835.74835,0,1,1,0,1.4967Z" fill="#ededed"/>
    <path d="M263.20687,157.60585h0a2.91464,2.91464,0,0,1-2.90972-2.74535l-.66086-11.35911a2.91464,2.91464,0,0,1,2.90972-3.08392h1.32172a2.91464,2.91464,0,0,1,2.90972,3.08392l-.66086,11.35911A2.91464,2.91464,0,0,1,263.20687,157.60585Z" fill="#f9bfa2"/>
    <rect x="257.90934" y="153.36757" width="7.45239" height="4.23828" rx="2.11914" ry="2.11914" fill="#f9bfa2"/>
    <path d="M291.08333,143.629H288.799v10.02272h1.3027c1.96,0,3.64726-1.78327,4.03081-4.26006l.121-.78169C294.65269,146.03269,293.12278,143.629,291.08333,143.629Z" fill="#f9bfa2"/>
    <path d="M235.33041,143.629h2.28429v10.02272H236.312c-1.96,0-3.64726-1.78327-4.03081-4.26006l-.121-.78169C231.76105,146.03269,233.291,143.629,235.33041,143.629Z" fill="#f9bfa2"/>
    <rect x="270.25623" y="136.63035" width="10.24045" height="2.1875" rx="1.01041" ry="1.01041" fill="#5b5b5b"/>
    <rect x="246.42223" y="136.63035" width="10.24045" height="2.1875" rx="1.01041" ry="1.01041" fill="#5b5b5b"/>
    <rect x="260.89577" y="174.0788" width="5.46794" height="2" rx="0.79577" ry="0.79577" fill="#f9bfa2"/>
    <g>
      <path id="1c2c4049-d4c7-4436-acaf-1e51e85d61f5" data-name="&lt;Path&gt;" d="M270.56782,101.52218H255.846c-10.07186,0-18.23672,10.57319-18.23672,21.14875v18.48619h4.56052l.716-12.80893a2.67658,2.67658,0,0,1,3.72019-2.56669l10.62173,4.82263a14.40787,14.40787,0,0,0,11.95841,0l10.62169-4.82262a2.67658,2.67658,0,0,1,3.72019,2.56669l.716,12.80892h4.56052V120.67089C288.80449,110.09535,280.63966,101.52218,270.56782,101.52218Z" fill="#3a3a3a"/>
      <path d="M264.589,131.92119H262.665a15.06133,15.06133,0,0,1-13.32465-8.04012l-.7836-1.48709a1.25389,1.25389,0,0,1,1.28493-1.82606l5.72559.80991a3.146,3.146,0,0,0,2.60543-.83226l3.5526-3.36912a2.76358,2.76358,0,0,1,3.80336,0l3.5526,3.36912a3.146,3.146,0,0,0,2.60543.83226l5.72559-.80991a1.25389,1.25389,0,0,1,1.28493,1.82606l-.7836,1.48709A15.06133,15.06133,0,0,1,264.589,131.92119Z" fill="#333"/>
      <polygon points="288.804 153.995 284.988 153.995 284.244 141.157 288.804 141.157 288.804 153.995" fill="url(#6e9e9998-f86a-4667-bb20-f3b388cfe112)"/>
      <polygon points="237.609 153.995 241.426 153.995 242.17 141.157 237.609 141.157 237.609 153.995" fill="url(#a33157cd-9329-44d8-b602-01e9f91ddf42)"/>
    </g>
    <polygon points="222.318 246.381 201.423 243.565 204.828 221.77 225.722 224.586 222.318 246.381" fill="#feccae"/>
    <polygon points="305.077 246.381 325.971 243.565 322.567 221.77 301.672 224.586 305.077 246.381" fill="#feccae"/>
    <polygon points="219.444 290.06 204.611 290.06 201.423 243.565 222.318 246.381 219.444 290.06" fill="#feccae"/>
    <path d="M220.58489,308.38144l-14.49632-2.05365a3.99605,3.99605,0,0,1-3.417-4.34128l1.55312-16.05658,15.63623-2.14815,3.74365,3.19667a5.6039,5.6039,0,0,1,1.89808,3.39871l1.55978,10.00862a3.996,3.996,0,0,1-.48419,2.60725l-1.96867,3.42377A3.99605,3.99605,0,0,1,220.58489,308.38144Z" fill="#feccae"/>
    <polygon points="307.95 290.06 322.783 290.06 325.971 243.565 305.077 246.381 307.95 290.06" fill="#feccae"/>
    <path d="M306.80922,308.38144l14.49632-2.05365a3.99605,3.99605,0,0,0,3.417-4.34128l-1.55312-16.05658-15.63623-2.14815-3.74365,3.19667a5.6039,5.6039,0,0,0-1.89808,3.39871l-1.55978,10.00862a3.996,3.996,0,0,0,.48419,2.60725l1.96867,3.42377A3.99605,3.99605,0,0,0,306.80922,308.38144Z" fill="#feccae"/>
    <path d="M253.6798,382.30712H235.70913v-56.902h12.514c6.31713,0,9.45008,4.35289,10.24784,10.22288a20.64819,20.64819,0,0,1-.01026,5.13752Z" fill="#424242"/>
    <path d="M244.979,330.19966h-2.70483c-5.62095,0-10.17763-4.92871-10.17763-11.00858V289.27779a24.80037,24.80037,0,0,1,2.76132-11.41374l.615-1.18392h25.38828v36.34073C260.86111,322.50845,253.75045,330.19966,244.979,330.19966Z" fill="#424242"/>
    <path d="M273.31949,382.30712h17.97068v-56.902h-12.514c-6.31713,0-9.45008,4.35289-10.24784,10.22288a20.64819,20.64819,0,0,0,.01026,5.13752Z" fill="#424242"/>
    <path d="M281.89616,330.19964H284.627c5.67509,0,10.27566-4.92871,10.27566-11.00858V289.27777a24.60933,24.60933,0,0,0-2.78792-11.41374l-.62088-1.18392H265.86108v36.34073C265.86108,322.50843,273.04023,330.19964,281.89616,330.19964Z" fill="#424242"/>
    <rect x="234.5802" y="269.21138" width="58.19919" height="7.46875" rx="1.25049" ry="1.25049" fill="#424242"/>
    <path d="M214.27623,395.09781l36.28824,1.3805a4.3776,4.3776,0,0,0,4.27281-4.8362l-.97459-10.962h-24.59a12.658,12.658,0,0,0-11.2554,7.03579Z" fill="#3a3a3a"/>
    <rect x="210.03382" y="391.40865" width="47.26919" height="5.06967" rx="2.53483" ry="2.53483" fill="#e8e7e6"/>
    <polygon points="300.626 224.727 322.567 221.77 318.526 195.949 296.586 198.906 300.626 224.727" fill="#3a3a3a"/>
    <polygon points="228.324 224.937 204.828 221.77 208.907 195.954 232.403 199.121 228.324 224.937" fill="#3a3a3a"/>
    <path d="M207.09049,208.93681l24.038,3.24008,3.24008-24.038-12.49315-1.81874a18.20288,18.20288,0,0,0-8.04928,1.11291,12.78579,12.78579,0,0,0-6.87763,11.71907Z" fill="#3a3a3a"/>
    <path d="M320.30362,208.93681l-24.038,3.24008-3.24008-24.038,12.49315-1.81874A18.20288,18.20288,0,0,1,313.568,187.433a12.78579,12.78579,0,0,1,6.87763,11.71907Z" fill="#3a3a3a"/>
    <rect x="256.2165" y="276.68011" width="14.2263" height="22.94436" fill="#424242"/>
    <path d="M313.13142,395.615l-36.55034.86333a4.3776,4.3776,0,0,1-4.27281-4.8362l.97459-10.962h24.59a12.658,12.658,0,0,1,11.2554,7.03579Z" fill="#3a3a3a"/>
    <rect x="269.84254" y="391.40865" width="47.26919" height="5.06967" rx="2.53483" ry="2.53483" transform="translate(586.95427 787.88696) rotate(180)" fill="#e8e7e6"/>
  </g>
  <path d="M203.12055,159.33449V149.13074a6.1214,6.1214,0,0,0-6.1214-6.1214H162.50007a6.1214,6.1214,0,0,0-6.1214,6.1214v25.563a6.1214,6.1214,0,0,0,6.1214,6.1214h34.49908a6.1214,6.1214,0,0,0,6.1214-6.1214v-2.916a1.97405,1.97405,0,0,1,1.949-1.95475,13.97228,13.97228,0,0,0,8.20461-2.97443,1.70683,1.70683,0,0,0-.97653-3.065,24.21269,24.21269,0,0,1-6.68529-.91808A3.69662,3.69662,0,0,1,203.12055,159.33449Z" fill="#fff"/>
  <g>
    <path d="M168.81865,163.35281l-.40562-10.161h3.75874l-.40562,10.161Zm3.45479,4.32877a1.873,1.873,0,1,1-.5484-1.351A1.83779,1.83779,0,0,1,172.27345,167.68157Z" fill="#515151"/>
    <path d="M177.45563,163.35281l-.40562-10.161h3.75874l-.40562,10.161Zm3.45479,4.32877a1.873,1.873,0,1,1-.5484-1.351A1.83779,1.83779,0,0,1,180.91043,167.68157Z" fill="#515151"/>
    <path d="M186.09153,163.35281l-.40562-10.161h3.75874l-.40562,10.161Zm3.45479,4.32877a1.873,1.873,0,1,1-.5484-1.351A1.83779,1.83779,0,0,1,189.54632,167.68157Z" fill="#515151"/>
  </g>
  <rect id="c15339d4-66f0-4bbc-a836-c7ad0d950ba1" data-name="&lt;Rectangle&gt;" x="360.48848" y="294.29269" width="29.85598" height="7.92031" rx="3.96015" ry="3.96015" opacity="0.08"/>
  <rect id="78ed46b5-9065-4fd2-a737-d367b895219f" data-name="&lt;Rectangle&gt;" x="342.03737" y="306.23265" width="29.85598" height="7.92031" rx="3.96015" ry="3.96015" opacity="0.08"/>
  <rect id="fd2e66bd-fd31-460e-8237-ef2798220dbe" data-name="&lt;Rectangle&gt;" x="132.51613" y="341.76811" width="29.85598" height="7.92031" rx="3.96015" ry="3.96015" opacity="0.08"/>
  <rect id="ba3836c1-301e-46dd-8d46-e9d1f6b9b810" data-name="&lt;Rectangle&gt;" x="167.63441" y="341.76811" width="29.85598" height="7.92031" rx="3.96015" ry="3.96015" opacity="0.08"/>
  <rect id="0f67504f-fa2b-4505-95d6-deb9af88bd98" data-name="&lt;Rectangle&gt;" x="149.18331" y="353.70807" width="29.85598" height="7.92031" rx="3.96015" ry="3.96015" opacity="0.08"/>
</svg>
