<svg id="eb723c96-3933-487d-91dc-0b99a204b0ed" data-name="Layer 1" xmlns="http://www.w3.org/2000/svg" xmlns:xlink="http://www.w3.org/1999/xlink" viewBox="0 0 528.15 480"><defs><linearGradient id="fd3e1e84-dde0-45f2-88aa-bfbaf95f2c5c" x1="263.07" y1="55.68" x2="263.07" y2="111.42" gradientUnits="userSpaceOnUse"><stop offset="0" stop-opacity="0"/><stop offset="1"/></linearGradient><linearGradient id="7199d6a2-96b1-4e37-8fd6-6824d46346a1" x1="-186.06" y1="-37.59" x2="-186.06" y2="18.14" gradientTransform="translate(329.8 17.57) rotate(-45)" xlink:href="#fd3e1e84-dde0-45f2-88aa-bfbaf95f2c5c"/><linearGradient id="8bfa566f-c602-4633-bfed-b43529c51091" x1="-70.05" y1="78.42" x2="-70.05" y2="134.15" gradientTransform="matrix(-0.71, -0.71, -0.71, 0.71, 360.4, 17.57)" xlink:href="#fd3e1e84-dde0-45f2-88aa-bfbaf95f2c5c"/><linearGradient id="9b4092b0-60df-44d2-b711-9206cd6f056b" x1="286.52" y1="184" x2="286.52" y2="171.16" gradientUnits="userSpaceOnUse"><stop offset="0" stop-color="#3a3a3a" stop-opacity="0"/><stop offset="0.25" stop-color="#3a3a3a" stop-opacity="0.14"/><stop offset="0.64" stop-color="#3a3a3a" stop-opacity="0.53"/><stop offset="1" stop-color="#3a3a3a"/></linearGradient><linearGradient id="bb85a33f-f86f-4aab-ad9b-b5618e0d5325" x1="239.89" y1="184" x2="239.89" y2="171.16" xlink:href="#9b4092b0-60df-44d2-b711-9206cd6f056b"/></defs><title>joaco - sitio web 2016 v02 - Export2</title><rect id="84c44433-b8bc-4d04-be4c-5fbf6f1066b1" data-name="&lt;Rectangle&gt;" x="202.14" y="418.09" width="121.87" height="16.77" rx="8.39" ry="8.39" opacity="0.05"/><polygon id="1263572a-e931-490c-9a26-5a91b887fcde" data-name="&lt;Path&gt;" points="274.33 88.03 274.33 55.68 251.82 55.68 251.82 88.03 243.01 88.03 263.07 111.42 283.14 88.03 274.33 88.03" opacity="0.1" fill="url(#fd3e1e84-dde0-45f2-88aa-bfbaf95f2c5c)"/><polygon id="038856a8-44f5-4097-b9ed-2bd9e4f25280" data-name="&lt;Path&gt;" points="202.49 137.47 179.62 114.6 163.71 130.51 186.57 153.38 180.34 159.61 211.07 161.96 208.72 131.23 202.49 137.47" opacity="0.1" fill="url(#7199d6a2-96b1-4e37-8fd6-6824d46346a1)"/><polygon id="821e7ae4-2191-4b5b-83fd-ef5044bed856" data-name="&lt;Path&gt;" points="323.66 137.47 346.53 114.6 362.44 130.51 339.57 153.38 345.81 159.61 315.08 161.96 317.43 131.23 323.66 137.47" opacity="0.1" fill="url(#8bfa566f-c602-4633-bfed-b43529c51091)"/><path d="M289.43,277.69h-51.6a5.26,5.26,0,0,1-5.46-4.75l-2.11-23.76H297l-2.11,23.76A5.26,5.26,0,0,1,289.43,277.69Z" fill="#3a3a3a"/><polygon points="290.51 301.18 236.75 301.18 234.48 250.63 292.78 250.63 290.51 301.18" fill="#3a3a3a"/><path d="M274,210.56l-10.37,1-10.37-1-17.9,3.82a11.43,11.43,0,0,0-9,11.21v27.88a8.47,8.47,0,0,0,8.71,8.21h24a4.67,4.67,0,0,0,3.57-1.62,1.34,1.34,0,0,1,2,0,4.67,4.67,0,0,0,3.57,1.62h24a8.47,8.47,0,0,0,8.71-8.21V225.59a11.43,11.43,0,0,0-9-11.21Z" fill="#3a3a3a"/><path d="M253,205.08h21.33a0,0,0,0,1,0,0v8.13a8.47,8.47,0,0,1-8.47,8.47h-4.39a8.47,8.47,0,0,1-8.47-8.47v-8.13A0,0,0,0,1,253,205.08Z" fill="#f9bfa2"/><path id="09e1b017-9101-4272-a8ee-f2c26655e285" data-name="&lt;Path&gt;" d="M263.25,211.7h-.09c-8.21,0-13.51-4.87-18.19-10.89-3.36-4.33-7.36-8.76-7.36-14.66V166.86a25.55,25.55,0,0,1,25.55-25.55h.09a25.55,25.55,0,0,1,25.55,25.55v19.29c0,5.9-4,10.34-7.36,14.66C276.77,206.83,271.46,211.7,263.25,211.7Z" fill="#feccae"/><ellipse id="a2f275ef-8f70-469c-b1d4-173ad3209e22" data-name="&lt;Path&gt;" cx="273.87" cy="174.16" rx="2.9" ry="2.55" fill="#5b5b5b"/><ellipse id="145bf508-7dd1-417b-873b-2ac5d0b4655f" data-name="&lt;Path&gt;" cx="252.54" cy="174.16" rx="2.9" ry="2.55" fill="#5b5b5b"/><ellipse id="da8c29e6-a398-4edb-a5a4-3e25723c2d15" data-name="&lt;Path&gt;" cx="278.5" cy="186.33" rx="1.52" ry="3.59" transform="translate(14.42 392.58) rotate(-71.78)" fill="#f9bfa2"/><ellipse id="3a4ecf2b-f277-4648-aabb-1d9b7b0f749e" data-name="&lt;Path&gt;" cx="248" cy="186.33" rx="3.59" ry="1.52" transform="translate(-57.35 131.7) rotate(-26.78)" fill="#f9bfa2"/><path id="755f18b6-1881-4cfd-b69b-0f7c32e9b058" data-name="&lt;Path&gt;" d="M267.4,201h-8.5a10.17,10.17,0,0,1-9.75-7.27,2.23,2.23,0,0,1,2.11-2.89H275a2.19,2.19,0,0,1,2.16,2.7A10.17,10.17,0,0,1,267.4,201Z" fill="#fff"/><path id="631e0566-7351-4e81-99ce-32ef9247436f" data-name="&lt;Path&gt;" d="M269.39,196.41H256.8a.75.75,0,1,1,0-1.5h12.59a.75.75,0,1,1,0,1.5Z" fill="#ededed"/><path d="M263.21,187.61h0a2.91,2.91,0,0,1-2.91-2.75l-.66-11.36a2.91,2.91,0,0,1,2.91-3.08h1.32a2.91,2.91,0,0,1,2.91,3.08l-.66,11.36A2.91,2.91,0,0,1,263.21,187.61Z" fill="#f9bfa2"/><rect x="257.91" y="183.37" width="7.45" height="4.24" rx="2.12" ry="2.12" fill="#f9bfa2"/><path d="M291.08,173.63H288.8v10h1.3c2,0,3.65-1.78,4-4.26l.12-.78C294.65,176,293.12,173.63,291.08,173.63Z" fill="#f9bfa2"/><path d="M235.33,173.63h2.28v10h-1.3c-2,0-3.65-1.78-4-4.26l-.12-.78C231.76,176,233.29,173.63,235.33,173.63Z" fill="#f9bfa2"/><rect x="270.26" y="166.63" width="10.24" height="2.19" rx="1.01" ry="1.01" fill="#5b5b5b"/><rect x="246.42" y="166.63" width="10.24" height="2.19" rx="1.01" ry="1.01" fill="#5b5b5b"/><rect x="260.9" y="204.08" width="5.47" height="2" rx="0.8" ry="0.8" fill="#f9bfa2"/><path id="36dadfc5-503c-4d84-9a98-28ca22028872" data-name="&lt;Path&gt;" d="M270.57,131.52H255.85c-10.07,0-18.24,10.57-18.24,21.15v18.49h4.56l.72-12.81a2.68,2.68,0,0,1,3.72-2.57l10.62,4.82a14.41,14.41,0,0,0,12,0l10.62-4.82a2.68,2.68,0,0,1,3.72,2.57l.72,12.81h4.56V150.67C288.8,140.1,280.64,131.52,270.57,131.52Z" fill="#3a3a3a"/><path d="M264.59,161.92h-1.92a15.06,15.06,0,0,1-13.32-8l-.78-1.49a1.25,1.25,0,0,1,1.28-1.83l5.73.81a3.15,3.15,0,0,0,2.61-.83l3.55-3.37a2.76,2.76,0,0,1,3.8,0l3.55,3.37a3.15,3.15,0,0,0,2.61.83l5.73-.81a1.25,1.25,0,0,1,1.28,1.83l-.78,1.49A15.06,15.06,0,0,1,264.59,161.92Z" fill="#333"/><polygon points="288.8 184 284.99 184 284.24 171.16 288.8 171.16 288.8 184" fill="url(#9b4092b0-60df-44d2-b711-9206cd6f056b)"/><polygon points="237.61 184 241.43 184 242.17 171.16 237.61 171.16 237.61 184" fill="url(#bb85a33f-f86f-4aab-ad9b-b5618e0d5325)"/><polygon points="222.32 276.38 201.42 273.56 204.83 251.77 225.72 254.59 222.32 276.38" fill="#feccae"/><polygon points="305.08 276.38 325.97 273.56 322.57 251.77 301.67 254.59 305.08 276.38" fill="#feccae"/><polygon points="219.44 320.06 204.61 320.06 201.42 273.56 222.32 276.38 219.44 320.06" fill="#feccae"/><path d="M220.58,338.38l-14.5-2.05a4,4,0,0,1-3.42-4.34l1.55-16.06,15.64-2.15,3.74,3.2a5.6,5.6,0,0,1,1.9,3.4l1.56,10a4,4,0,0,1-.48,2.61l-2,3.42A4,4,0,0,1,220.58,338.38Z" fill="#feccae"/><polygon points="307.95 320.06 322.78 320.06 325.97 273.56 305.08 276.38 307.95 320.06" fill="#feccae"/><path d="M306.81,338.38l14.5-2.05a4,4,0,0,0,3.42-4.34l-1.55-16.06-15.64-2.15-3.74,3.2a5.6,5.6,0,0,0-1.9,3.4l-1.56,10a4,4,0,0,0,.48,2.61l2,3.42A4,4,0,0,0,306.81,338.38Z" fill="#feccae"/><path d="M253.68,412.31h-18v-56.9h12.51c6.32,0,9.45,4.35,10.25,10.22a20.65,20.65,0,0,1,0,5.14Z" fill="#424242"/><path d="M245,360.2h-2.7c-5.62,0-10.18-4.93-10.18-11V319.28a24.8,24.8,0,0,1,2.76-11.41l.61-1.18h25.39V343C260.86,352.51,253.75,360.2,245,360.2Z" fill="#424242"/><path d="M273.32,412.31h18v-56.9H278.78c-6.32,0-9.45,4.35-10.25,10.22a20.65,20.65,0,0,0,0,5.14Z" fill="#424242"/><path d="M281.9,360.2h2.73c5.68,0,10.28-4.93,10.28-11V319.28a24.61,24.61,0,0,0-2.79-11.41l-.62-1.18H265.86V343C265.86,352.51,273,360.2,281.9,360.2Z" fill="#424242"/><rect x="234.58" y="299.21" width="58.2" height="7.47" rx="1.25" ry="1.25" fill="#424242"/><path d="M214.28,425.1l36.29,1.38a4.38,4.38,0,0,0,4.27-4.84l-1-11H229.27a12.66,12.66,0,0,0-11.26,7Z" fill="#3a3a3a"/><rect x="210.03" y="421.41" width="47.27" height="5.07" rx="2.53" ry="2.53" fill="#e8e7e6"/><polygon points="300.63 254.73 322.57 251.77 318.53 225.95 296.59 228.91 300.63 254.73" fill="#3a3a3a"/><polygon points="228.32 254.94 204.83 251.77 208.91 225.95 232.4 229.12 228.32 254.94" fill="#3a3a3a"/><path d="M207.09,238.94l24,3.24,3.24-24-12.49-1.82a18.2,18.2,0,0,0-8,1.11,12.79,12.79,0,0,0-6.88,11.72Z" fill="#3a3a3a"/><path d="M320.3,238.94l-24,3.24-3.24-24,12.49-1.82a18.2,18.2,0,0,1,8,1.11,12.79,12.79,0,0,1,6.88,11.72Z" fill="#3a3a3a"/><rect x="256.22" y="306.68" width="14.23" height="22.94" fill="#424242"/><path d="M313.13,425.61l-36.55.86a4.38,4.38,0,0,1-4.27-4.84l1-11h24.59a12.66,12.66,0,0,1,11.26,7Z" fill="#3a3a3a"/><rect x="269.84" y="421.41" width="47.27" height="5.07" rx="2.53" ry="2.53" transform="translate(586.95 847.89) rotate(180)" fill="#e8e7e6"/><path d="M203.12,189.33v-10.2A6.12,6.12,0,0,0,197,173H162.5a6.12,6.12,0,0,0-6.12,6.12v25.56a6.12,6.12,0,0,0,6.12,6.12H197a6.12,6.12,0,0,0,6.12-6.12v-2.92a2,2,0,0,1,1.95-2,14,14,0,0,0,8.2-3,1.71,1.71,0,0,0-1-3.06,24.21,24.21,0,0,1-6.69-.92A3.7,3.7,0,0,1,203.12,189.33Z" fill="#fff"/><path d="M168.82,193.35l-.41-10.16h3.76l-.41,10.16Zm3.45,4.33a1.87,1.87,0,1,1-.55-1.35A1.84,1.84,0,0,1,172.27,197.68Z" fill="#515151"/><path d="M177.46,193.35l-.41-10.16h3.76l-.41,10.16Zm3.45,4.33a1.87,1.87,0,1,1-.55-1.35A1.84,1.84,0,0,1,180.91,197.68Z" fill="#515151"/><path d="M186.09,193.35l-.41-10.16h3.76L189,193.35Zm3.45,4.33a1.87,1.87,0,1,1-.55-1.35A1.84,1.84,0,0,1,189.55,197.68Z" fill="#515151"/><rect id="bb2e5f3d-a2d0-4fc5-bf4b-a7a1d8b9e199" data-name="&lt;Rectangle&gt;" x="360.49" y="324.29" width="29.86" height="7.92" rx="3.96" ry="3.96" opacity="0.08"/><rect id="43cf09ef-fbd0-4287-b0e6-35046802afdb" data-name="&lt;Rectangle&gt;" x="342.04" y="336.23" width="29.86" height="7.92" rx="3.96" ry="3.96" opacity="0.08"/><rect id="e569fdde-fd2e-40b7-aafb-2f24ea12851e" data-name="&lt;Rectangle&gt;" x="132.52" y="371.77" width="29.86" height="7.92" rx="3.96" ry="3.96" opacity="0.08"/><rect id="533ba158-d641-4cbb-aa9a-328fe03863f7" data-name="&lt;Rectangle&gt;" x="167.63" y="371.77" width="29.86" height="7.92" rx="3.96" ry="3.96" opacity="0.08"/><rect id="69295644-66ae-4694-ae84-cd8d43ebd042" data-name="&lt;Rectangle&gt;" x="149.18" y="383.71" width="29.86" height="7.92" rx="3.96" ry="3.96" opacity="0.08"/></svg>