<svg id="Layer_1" data-name="Layer 1" xmlns="http://www.w3.org/2000/svg" xmlns:xlink="http://www.w3.org/1999/xlink" viewBox="0 0 470 470"><defs><style>.cls-1{opacity:0.05;}.cls-14,.cls-2,.cls-3,.cls-4{opacity:0.1;}.cls-2{fill:url(#linear-gradient);}.cls-3{fill:url(#linear-gradient-2);}.cls-4{fill:url(#linear-gradient-3);}.cls-5{fill:#5b5b5b;}.cls-6{fill:#3d3d3d;}.cls-7{fill:#474747;}.cls-8{fill:#515151;}.cls-9{fill:#feccae;}.cls-10{fill:#febd86;}.cls-11{fill:#735448;}.cls-12{fill:#f9bfa2;}.cls-13{fill:#3a3a3a;}.cls-14,.cls-16{fill:#ededed;}.cls-15{fill:#fff;}</style><linearGradient id="linear-gradient" x1="235" y1="89.22" x2="235" y2="136.5" gradientUnits="userSpaceOnUse"><stop offset="0" stop-opacity="0"/><stop offset="1"/></linearGradient><linearGradient id="linear-gradient-2" x1="157.15" y1="131.5" x2="157.15" y2="178.78" gradientTransform="translate(-63.63 156.45) rotate(-45)" xlink:href="#linear-gradient"/><linearGradient id="linear-gradient-3" x1="271.74" y1="246.09" x2="271.74" y2="293.37" gradientTransform="matrix(-0.71, -0.71, -0.71, 0.71, 695.68, 156.45)" xlink:href="#linear-gradient"/></defs><title>slider</title><g id="_Group_" data-name="&lt;Group&gt;"><rect id="_Rectangle_" data-name="&lt;Rectangle&gt;" class="cls-1" x="174.06" y="352.59" width="121.87" height="16.77" rx="8.39" ry="8.39"/><polygon id="_Path_" data-name="&lt;Path&gt;" class="cls-2" points="244.55 116.66 244.55 89.22 225.45 89.22 225.45 116.66 217.97 116.66 235 136.5 252.03 116.66 244.55 116.66"/><polygon id="_Path_2" data-name="&lt;Path&gt;" class="cls-3" points="166.63 150.97 147.22 131.56 133.72 145.06 153.13 164.47 147.84 169.75 173.91 171.75 171.92 145.68 166.63 150.97"/><polygon id="_Path_3" data-name="&lt;Path&gt;" class="cls-4" points="303.37 150.97 322.77 131.56 336.27 145.06 316.87 164.47 322.16 169.75 296.09 171.75 298.08 145.68 303.37 150.97"/><g id="_Group_2" data-name="&lt;Group&gt;"><rect id="_Rectangle_2" data-name="&lt;Rectangle&gt;" class="cls-5" x="210.46" y="298.95" width="21.27" height="54.26"/><rect id="_Rectangle_3" data-name="&lt;Rectangle&gt;" class="cls-6" x="210.46" y="288.77" width="50.3" height="10.17"/><rect id="_Rectangle_4" data-name="&lt;Rectangle&gt;" class="cls-5" x="239.49" y="298.95" width="21.27" height="54.26"/><rect id="_Rectangle_5" data-name="&lt;Rectangle&gt;" class="cls-5" x="210.46" y="298.95" width="50.3" height="17.12"/><path id="_Rectangle_6" data-name="&lt;Rectangle&gt;" class="cls-7" d="M248,344.49h18.29a5.6,5.6,0,0,1,5.6,5.6v11.42a0,0,0,0,1,0,0H248a8.51,8.51,0,0,1-8.51-8.51v0a8.51,8.51,0,0,1,8.51-8.51Z" transform="translate(511.38 706) rotate(180)"/><path id="_Rectangle_7" data-name="&lt;Rectangle&gt;" class="cls-6" d="M248,344.49h3a4.13,4.13,0,0,1,4.13,4.13v12.89a0,0,0,0,1,0,0H248a8.51,8.51,0,0,1-8.51-8.51v0A8.51,8.51,0,0,1,248,344.49Z" transform="translate(494.57 706) rotate(180)"/><path id="_Rectangle_8" data-name="&lt;Rectangle&gt;" class="cls-7" d="M207.85,344.49h23.89a0,0,0,0,1,0,0v11.42a5.6,5.6,0,0,1-5.6,5.6H207.85a8.51,8.51,0,0,1-8.51-8.51v0a8.51,8.51,0,0,1,8.51-8.51Z"/><path id="_Rectangle_9" data-name="&lt;Rectangle&gt;" class="cls-6" d="M224.65,344.49h7.08a0,0,0,0,1,0,0v12.89a4.13,4.13,0,0,1-4.13,4.13h-3a8.51,8.51,0,0,1-8.51-8.51v0a8.51,8.51,0,0,1,8.51-8.51Z"/><rect id="_Rectangle_10" data-name="&lt;Rectangle&gt;" class="cls-7" x="210.46" y="228.02" width="50.3" height="60.75"/><rect id="_Rectangle_11" data-name="&lt;Rectangle&gt;" class="cls-8" x="252.64" y="228.03" width="18.95" height="13.83"/><g id="_Group_3" data-name="&lt;Group&gt;"><rect id="_Rectangle_12" data-name="&lt;Rectangle&gt;" class="cls-9" x="267.66" y="272.24" width="19.36" height="43.53" rx="9.68" ry="9.68" transform="translate(-29.26 30.65) rotate(-6.01)"/><rect id="_Rectangle_13" data-name="&lt;Rectangle&gt;" class="cls-9" x="264.1" y="229.93" width="19.36" height="60.5" rx="9.28" ry="9.28" transform="translate(-25.73 30.09) rotate(-6.01)"/><path id="_Path_4" data-name="&lt;Path&gt;" class="cls-8" d="M270.4,228.09l-9.63,1L263.92,259l19.26-2L281,236.71A9.68,9.68,0,0,0,270.4,228.09Z"/></g><rect id="_Rectangle_14" data-name="&lt;Rectangle&gt;" class="cls-8" x="199.57" y="228.03" width="18.95" height="13.83" transform="translate(418.1 469.9) rotate(-180)"/><g id="_Group_4" data-name="&lt;Group&gt;"><rect id="_Rectangle_15" data-name="&lt;Rectangle&gt;" class="cls-9" x="184.14" y="272.24" width="19.36" height="43.53" rx="9.68" ry="9.68" transform="translate(355.8 606.69) rotate(-173.99)"/><rect id="_Rectangle_16" data-name="&lt;Rectangle&gt;" class="cls-9" x="187.7" y="229.93" width="19.36" height="60.5" rx="9.28" ry="9.28" transform="translate(366.45 539.59) rotate(-173.99)"/><path id="_Path_5" data-name="&lt;Path&gt;" class="cls-8" d="M200.76,228.09l9.63,1L207.24,259,188,257l2.14-20.28A9.68,9.68,0,0,1,200.76,228.09Z"/></g><path id="_Rectangle_17" data-name="&lt;Rectangle&gt;" class="cls-7" d="M207,228h57.15a0,0,0,0,1,0,0v29.22a7.12,7.12,0,0,1-7.12,7.12H214.15a7.12,7.12,0,0,1-7.12-7.12V228A0,0,0,0,1,207,228Z"/><path id="_Path_6" data-name="&lt;Path&gt;" class="cls-8" d="M218.85,228a10.88,10.88,0,0,0-.12,1.55c0,7.44,7.56,13.48,16.88,13.48s16.88-6,16.88-13.48a10.9,10.9,0,0,0-.12-1.55H218.85Z"/><path id="_Rectangle_18" data-name="&lt;Rectangle&gt;" class="cls-10" d="M224,222.17h23.19a0.46,0.46,0,0,1,.46.46v4.07a10.83,10.83,0,0,1-10.83,10.83h-2.46a10.83,10.83,0,0,1-10.83-10.83v-4.07A0.46,0.46,0,0,1,224,222.17Z"/><path id="_Rectangle_19" data-name="&lt;Rectangle&gt;" class="cls-9" d="M228.2,157.56H243a20,20,0,0,1,20,20v23.3a23.76,23.76,0,0,1-23.76,23.76H232a23.76,23.76,0,0,1-23.76-23.76v-23.3a20,20,0,0,1,20-20Z"/><path id="_Path_7" data-name="&lt;Path&gt;" class="cls-11" d="M243.48,156H227.74a19.5,19.5,0,0,0-19.5,19.5v25.31a5.64,5.64,0,0,0,5.64-5.64V181.24a2.85,2.85,0,0,1,4-2.61l11.35,4.91a16.1,16.1,0,0,0,12.78,0l11.35-4.91a2.85,2.85,0,0,1,4,2.61v13.89a5.64,5.64,0,0,0,5.64,5.64V175.46A19.5,19.5,0,0,0,243.48,156Z"/><circle id="_Path_8" data-name="&lt;Path&gt;" class="cls-5" cx="225.16" cy="197.53" r="2.48"/><circle id="_Path_9" data-name="&lt;Path&gt;" class="cls-5" cx="245.16" cy="197.53" r="2.48"/><ellipse id="_Path_10" data-name="&lt;Path&gt;" class="cls-12" cx="250.3" cy="203.12" rx="1.43" ry="3.38" transform="translate(-20.9 377.34) rotate(-71.78)"/><ellipse id="_Path_11" data-name="&lt;Path&gt;" class="cls-12" cx="221.39" cy="203.12" rx="3.38" ry="1.43" transform="translate(-52.42 79.43) rotate(-18.22)"/><path id="_Path_12" data-name="&lt;Path&gt;" class="cls-13" d="M243.48,156H227.74a19.5,19.5,0,0,0-19.5,19.5v25.31a5.64,5.64,0,0,0,5.64-5.64V181.24a2.85,2.85,0,0,1,4-2.61l11.35,4.91a16.1,16.1,0,0,0,12.78,0l11.35-4.91a2.85,2.85,0,0,1,4,2.61v13.89a5.64,5.64,0,0,0,5.64,5.64V175.46A19.5,19.5,0,0,0,243.48,156Z"/><path id="_Path_13" data-name="&lt;Path&gt;" class="cls-14" d="M215.12,172.57a1,1,0,0,1-.92-1.39,16.72,16.72,0,0,1,8.8-8.81,1,1,0,1,1,.78,1.84A14.7,14.7,0,0,0,216,172,1,1,0,0,1,215.12,172.57Z"/><path id="_Path_14" data-name="&lt;Path&gt;" class="cls-15" d="M238.69,213.32h-6.16a7.37,7.37,0,0,1-7.07-5.27A1.62,1.62,0,0,1,227,206h17.25a1.59,1.59,0,0,1,1.56,2A7.37,7.37,0,0,1,238.69,213.32Z"/><path id="_Path_15" data-name="&lt;Path&gt;" class="cls-16" d="M240.14,210H231a0.54,0.54,0,1,1,0-1.08h9.13A0.54,0.54,0,1,1,240.14,210Z"/></g></g></svg>