<svg id="Layer_1" data-name="Layer 1" xmlns="http://www.w3.org/2000/svg" viewBox="0 0 460 420">
  <title>1</title>
  <circle cx="230.508" cy="205.8784" r="75.8089" style="opacity: 0.08"/>
  <circle cx="230.508" cy="205.8784" r="177.0937" style="opacity: 0.08"/>
  <circle cx="230.508" cy="205.8784" r="144.8943" style="opacity: 0.08"/>
  <circle cx="230.508" cy="205.8784" r="110.5312" style="opacity: 0.08"/>
  <circle cx="230.508" cy="205.8784" r="48.7646" style="opacity: 0.08"/>
  <rect id="_Rectangle_" data-name="&lt;Rectangle&gt;" x="169.0644" y="375.6228" width="121.8713" height="16.7747" rx="8.3874" ry="8.3874" style="opacity: 0.05"/>
  <path d="M165.0465,151.8663V141.6626a6.1214,6.1214,0,0,0-6.1214-6.1214H124.4261a6.1214,6.1214,0,0,0-6.1214,6.1214v25.563a6.1214,6.1214,0,0,0,6.1214,6.1214h34.4991a6.1214,6.1214,0,0,0,6.1214-6.1214V164.31a1.9741,1.9741,0,0,1,1.949-1.9547A13.9723,13.9723,0,0,0,175.2,159.38a1.7068,1.7068,0,0,0-.9765-3.065,24.2127,24.2127,0,0,1-6.6853-.9181A3.6966,3.6966,0,0,1,165.0465,151.8663Z" style="opacity: 0.08"/>
  <path d="M170.0465,146.8663V136.6626a6.1214,6.1214,0,0,0-6.1214-6.1214H129.4261a6.1214,6.1214,0,0,0-6.1214,6.1214v25.563a6.1214,6.1214,0,0,0,6.1214,6.1214h34.4991a6.1214,6.1214,0,0,0,6.1214-6.1214V159.31a1.9741,1.9741,0,0,1,1.949-1.9547A13.9723,13.9723,0,0,0,180.2,154.38a1.7068,1.7068,0,0,0-.9765-3.065,24.2127,24.2127,0,0,1-6.6853-.9181A3.6966,3.6966,0,0,1,170.0465,146.8663Z" style="fill: #fff"/>
  <g>
    <path d="M135.7447,150.8846l-.4056-10.161h3.7587l-.4056,10.161Zm3.4548,4.3288a1.873,1.873,0,1,1-.5484-1.351A1.8378,1.8378,0,0,1,139.1994,155.2134Z" style="fill: #515151"/>
    <path d="M144.3816,150.8846l-.4056-10.161h3.7587l-.4056,10.161Zm3.4548,4.3288a1.873,1.873,0,1,1-.5484-1.351A1.8378,1.8378,0,0,1,147.8364,155.2134Z" style="fill: #515151"/>
    <path d="M153.0175,150.8846l-.4056-10.161h3.7587l-.4056,10.161Zm3.4548,4.3288a1.873,1.873,0,1,1-.5484-1.351A1.8378,1.8378,0,0,1,156.4723,155.2134Z" style="fill: #515151"/>
  </g>
  <g>
    <path d="M257.1387,250.613H202.6138c-.5341-11.9011-2.7635-9.5347-4.0028-19.75l-2.1053-23.7561h66.7411l-2.1053,23.7561C260.3574,241.0486,259.0259,237.5246,257.1387,250.613Z" style="fill: #3a3a3a"/>
    <polygon points="256.758 259.107 202.995 259.107 200.727 208.56 259.026 208.56 256.758 259.107" style="fill: #3a3a3a"/>
    <path d="M240.2446,167.7107l-10.3683,1.0255-10.3683-1.0255-17.9012,3.8761a11.5668,11.5668,0,0,0-8.9994,11.3809v28.2967a8.53,8.53,0,0,0,8.7108,8.3372h23.9834a4.6449,4.6449,0,0,0,3.57-1.64,1.3248,1.3248,0,0,1,2.01,0,4.6449,4.6449,0,0,0,3.57,1.64h23.9834a8.53,8.53,0,0,0,8.7108-8.3372V182.9676a11.5668,11.5668,0,0,0-8.9994-11.3809Z" style="fill: #3a3a3a"/>
    <ellipse cx="229.6358" cy="175.396" rx="14.1832" ry="9.5171" style="fill: #424242"/>
    <path d="M219.2118,163.0052h21.3288a0,0,0,0,1,0,0V171.14a8.467,8.467,0,0,1-8.467,8.467h-4.3948a8.467,8.467,0,0,1-8.467-8.467v-8.1343A0,0,0,0,1,219.2118,163.0052Z" style="fill: #f9bfa2"/>
    <polygon points="188.564 234.308 167.669 231.491 171.074 209.696 191.969 212.512 188.564 234.308" style="fill: #feccae"/>
    <polygon points="271.323 234.308 292.218 231.491 288.813 209.696 267.918 212.512 271.323 234.308" style="fill: #feccae"/>
    <polygon points="185.691 277.986 170.858 277.986 167.669 231.491 188.564 234.308 185.691 277.986" style="fill: #feccae"/>
    <path d="M186.8314,296.3079l-14.4963-2.0536a3.9961,3.9961,0,0,1-3.417-4.3413l1.5531-16.0566,15.6362-2.1482,3.7436,3.1967a5.6039,5.6039,0,0,1,1.8981,3.3987l1.56,10.0086a3.9961,3.9961,0,0,1-.4842,2.6072l-1.9687,3.4238A3.9961,3.9961,0,0,1,186.8314,296.3079Z" style="fill: #feccae"/>
    <path d="M304.0433,205.4071l10.5285,10.4489L289.8554,244.43a7.1967,7.1967,0,0,1-11.1493-.323l-7.47-9.7209Z" style="fill: #feccae"/>
    <path d="M316.14,191.5995l8.8426,11.6691a3.9961,3.9961,0,0,1-.6328,5.4884L311.9367,219.06l-12.6115-9.49-.4054-4.906a5.6039,5.6039,0,0,1,1.0469-3.7494l5.9432-8.2027a3.9961,3.9961,0,0,1,2.18-1.51l3.8091-1.0434A3.9961,3.9961,0,0,1,316.14,191.5995Z" style="fill: #feccae"/>
    <path d="M219.9263,370.2336H201.9556v-56.902H214.47c6.3171,0,9.45,4.3529,10.2478,10.2229a20.6482,20.6482,0,0,1-.01,5.1375Z" style="fill: #424242"/>
    <path d="M211.2255,318.1261h-2.7048c-5.6209,0-10.1776-4.9287-10.1776-11.0086V277.2042a24.8,24.8,0,0,1,2.7613-11.4137l.615-1.1839h25.3883v36.3407C227.1076,310.4349,219.997,318.1261,211.2255,318.1261Z" style="fill: #424242"/>
    <path d="M239.566,370.2336h17.9707v-56.902h-12.514c-6.3171,0-9.45,4.3529-10.2478,10.2229a20.6482,20.6482,0,0,0,.01,5.1375Z" style="fill: #424242"/>
    <path d="M248.1427,318.1261h2.7309c5.6751,0,10.2757-4.9287,10.2757-11.0086V277.2042a24.6093,24.6093,0,0,0-2.7879-11.4137l-.6209-1.1839H232.1076v36.3407C232.1076,310.4349,239.2867,318.1261,248.1427,318.1261Z" style="fill: #424242"/>
    <path d="M180.5227,383.0242l36.2882,1.3805a4.3776,4.3776,0,0,0,4.2728-4.8362l-.9746-10.962h-24.59a12.658,12.658,0,0,0-11.2554,7.0358Z" style="fill: #3a3a3a"/>
    <rect x="176.2803" y="380.4283" width="47.2692" height="5.0697" rx="2.5348" ry="2.5348" style="fill: #e8e7e6"/>
    <polygon points="266.872 212.653 288.813 209.696 284.773 183.875 262.832 186.833 266.872 212.653" style="fill: #3a3a3a"/>
    <path d="M267.9185,212.5124l21.9563-2.96a1.5714,1.5714,0,0,0,1.3424-1.8015l-.5748-3.6552a1.5714,1.5714,0,0,0-1.7623-1.3132l-22.0927,2.9779Z" style="fill: #3f3f3f"/>
    <polygon points="194.57 212.863 171.074 209.696 175.153 183.881 198.649 187.048 194.57 212.863" style="fill: #3a3a3a"/>
    <path d="M173.337,196.8632l24.038,3.24,3.24-24.038-12.4932-1.8187a18.2029,18.2029,0,0,0-8.0493,1.1129,12.7858,12.7858,0,0,0-6.8776,11.7191Z" style="fill: #3a3a3a"/>
    <path d="M286.55,196.8632l-24.038,3.24-3.24-24.038,12.4932-1.8187a18.2029,18.2029,0,0,1,8.0493,1.1129,12.7858,12.7858,0,0,1,6.8776,11.7191Z" style="fill: #3a3a3a"/>
    <rect x="222.463" y="264.6066" width="14.2263" height="22.9444" style="fill: #424242"/>
    <path d="M279.3779,383.5414l-36.55.8633a4.3776,4.3776,0,0,1-4.2728-4.8362l.9746-10.962h24.59a12.658,12.658,0,0,1,11.2554,7.0358Z" style="fill: #3a3a3a"/>
    <rect x="236.0891" y="380.4283" width="47.2692" height="5.0697" rx="2.5348" ry="2.5348" transform="translate(519.4473 765.9262) rotate(180)" style="fill: #e8e7e6"/>
    <path id="_Path_" data-name="&lt;Path&gt;" d="M229.9722,166.4969h-.0866c-7.8437,0-12.9123-2.9861-17.3794-9.2439-3.2128-4.5007-6.0372-9.1152-5.0372-15.2565l-1-20.0681c-1-14.68,9.9317-26.5812,23.4166-26.5812h.0866c13.4849,0,24.4166,11.9008,23.4166,26.5812l-1,20.0681c1,6.1413-1.8244,10.7558-5.0372,15.2565C242.8845,163.5108,237.8159,166.4969,229.9722,166.4969Z" style="fill: #feccae"/>
    <path d="M242.799,158.1528l7.9773-6,1-15.2332h0a8.9773,8.9773,0,0,0-8.9773,8.9773Z" style="fill: #f9bfa2"/>
    <path d="M217.0964,158.1224l-7.9773-6-1-15.2332h0a8.9773,8.9773,0,0,1,8.9773,8.9773Z" style="fill: #f9bfa2"/>
    <polygon points="242.799 127.906 216.88 127.906 214.509 123.094 245.161 123.094 242.799 127.906" style="fill: #f9bfa2"/>
    <path d="M250.8978,141.5286a13.2117,13.2117,0,0,1-2.8726,8.5924c-2.1575,2.8049-4.8326,5.1176-5.8287,1.4623l-1.5208-6.19c-.8018-2.3641-2.5684-3.7007-5.4956-3.548l-5.2513.0744-5.2513-.0744c-2.9272-.1526-4.8356,1.1839-5.6372,3.548l-1.42,6.015c-1.11,4.93-3.5682,1.2715-5.7876-1.2871-2.8681-3.3065-3.0944-5.5238-2.8727-8.5924H206.469v1.2928c0,6.3356,2.908,11.0964,6.1909,15.74,4.3836,6.2,9.3423,9.1345,16.8266,9.5266v.0385c.1507,0,.2937-.0152.4425-.0193.1488.0041.2917.0189.4425.0193v-.0385c7.4843-.3921,12.443-3.3267,16.8266-9.5266,3.2829-4.6431,6.1909-9.4039,6.1909-15.74v-1.2928Z" style="fill: #3a3a3a"/>
    <path id="_Path_2" data-name="&lt;Path&gt;" d="M214.543,134.8107c.1367.8728,1.761,1.29,3.628.9314s3.27-1.3566,3.133-2.2294-1.761-1.29-3.628-.9314S214.4063,133.9379,214.543,134.8107Z" style="fill: #f7afa4"/>
    <path id="_Path_3" data-name="&lt;Path&gt;" d="M244.6436,134.8107c-.1367.8728-1.761,1.29-3.628.9314s-3.27-1.3566-3.133-2.2294,1.761-1.29,3.628-.9314S244.78,133.9379,244.6436,134.8107Z" style="fill: #f7afa4"/>
    <path id="_Path_4" data-name="&lt;Path&gt;" d="M232.51,153.6283h-5.2754c-2.86,0-5.2756-2.2218-6.049-5.2674a1.5889,1.5889,0,0,1,1.31-2.0961h14.76a1.5411,1.5411,0,0,1,1.3379,1.9575C237.8583,151.3389,235.4131,153.6283,232.51,153.6283Z" style="fill: #fff"/>
    <path id="_Path_5" data-name="&lt;Path&gt;" d="M233.9558,150.3092h-8.233a.5447.5447,0,0,1,0-1.0839h8.233a.5447.5447,0,0,1,0,1.0839Z" style="fill: #ededed"/>
    <path d="M255.5666,125.3144h-2.183V135.92h1.2449c1.8731,0,3.4855-1.8869,3.8521-4.5077l.1157-.8271C258.9777,127.8578,257.5157,125.3144,255.5666,125.3144Z" style="fill: #f9bfa2"/>
    <path d="M204.286,125.3144h2.183V135.92h-1.2449c-1.8731,0-3.4855-1.8869-3.8521-4.5077l-.1157-.8271C200.8749,127.8578,202.337,125.3144,204.286,125.3144Z" style="fill: #f9bfa2"/>
    <path d="M218.2085,101.1022a8.1874,8.1874,0,0,1-5.3163-10.15h0a7.9037,7.9037,0,0,1,9.8842-5.4591Z" style="fill: #424242"/>
    <g>
      <path id="_Path_6" data-name="&lt;Path&gt;" d="M236.9609,90.2833h-14.069c-9.6252,0-17.428,9.0715-17.428,20.2617v-1.9863l1,18.3726h3.3106l.7319-16.7278c0-2.1284,1.8749-3.5606,3.5552-2.7159l10.1507,5.1029a12.5623,12.5623,0,0,0,11.4281,0l10.1507-5.1029c1.68-.8447,3.5552.5875,3.5552,2.7159l.8175,16.7278h3.225l1-16.2564v-2.2462C254.3889,97.2385,246.5861,90.2833,236.9609,90.2833Z" style="fill: #3a3a3a"/>
      <polygon points="253.385 142.531 250.898 141.529 250.164 126.931 253.452 125.898 253.385 142.531" style="fill: #3a3a3a"/>
      <polygon points="206.463 142.452 208.96 141.529 209.774 126.931 206.469 125.314 206.463 142.452" style="fill: #3a3a3a"/>
    </g>
    <path d="M215.9157,84.032l.0217,12.5817a5.7477,5.7477,0,0,0,1.6668,4.05l13.28,13.3014H215.9157c-6.698,0-12.1278-5.8081-12.1278-12.9727v-3.988C203.7879,89.84,209.2177,84.032,215.9157,84.032Z" style="fill: #3a3a3a"/>
    <path d="M229.8457,141.7591h0a2.9624,2.9624,0,0,1-2.7807-2.9728l-.6316-12.3a3.0133,3.0133,0,0,1,2.7807-3.3395h1.2631a3.0133,3.0133,0,0,1,2.7807,3.3395l-.6316,12.3A2.9624,2.9624,0,0,1,229.8457,141.7591Z" style="fill: #efb49a"/>
    <rect x="224.9147" y="137.8487" width="7.1219" height="3.9104" rx="1.7435" ry="1.7435" style="fill: #efb49a"/>
    <rect x="235.3744" y="122.0833" width="9.7864" height="2.3146" rx="1.0104" ry="1.0104" style="fill: #3a3a3a"/>
    <rect x="214.5086" y="122.0833" width="9.7864" height="2.3146" rx="1.0104" ry="1.0104" style="fill: #3a3a3a"/>
    <path id="_Path_7" data-name="&lt;Path&gt;" d="M242.799,127.9941c0-1.2539-5.5363-1.2539-5.5363,0a2.8227,2.8227,0,0,0,5.5363,0Z" style="fill: #3a3a3a"/>
    <path id="_Path_8" data-name="&lt;Path&gt;" d="M222.416,127.9941c0-1.2539-5.5363-1.2539-5.5363,0a2.8227,2.8227,0,0,0,5.5363,0Z" style="fill: #3a3a3a"/>
    <path d="M209.6589,94.51s-1.749,13.7944,12.757,13.7944h5.1271" style="fill: none;stroke: #494949;stroke-linecap: round;stroke-miterlimit: 10;stroke-width: 1.5px"/>
    <path d="M216.88,97.2467c1.934,5.6483,4.89,5.9726,12.7561,5.9726" style="fill: none;stroke: #424242;stroke-linecap: round;stroke-miterlimit: 10;stroke-width: 1.5px"/>
    <path d="M226.4957,159.1086a1.817,1.817,0,1,1-3.6341,0" style="fill: none;stroke: #424242;stroke-linecap: round;stroke-miterlimit: 10"/>
    <path d="M232.6968,159.1086a3.1006,3.1006,0,1,1-6.2011,0" style="fill: none;stroke: #424242;stroke-linecap: round;stroke-miterlimit: 10"/>
    <g>
      <line x1="172.1818" y1="243.2116" x2="179.2426" y2="242.585" style="fill: none;stroke: #efb49a;stroke-linecap: round;stroke-miterlimit: 10"/>
      <line x1="172.3564" y1="247.8289" x2="179.4173" y2="247.2023" style="fill: none;stroke: #efb49a;stroke-linecap: round;stroke-miterlimit: 10"/>
      <line x1="172.5488" y1="252.4467" x2="179.6096" y2="251.8201" style="fill: none;stroke: #efb49a;stroke-linecap: round;stroke-miterlimit: 10"/>
    </g>
    <path d="M232.94,171.0085a3.1006,3.1006,0,1,1-6.2011,0" style="fill: none;stroke: #efb49a;stroke-linecap: round;stroke-miterlimit: 10"/>
    <path d="M209.391,368.6066H199.0363l-.3924-1.0714a4.8615,4.8615,0,0,1,4.565-6.5335h0a4.8615,4.8615,0,0,1,4.565,3.19Z" style="fill: #3a3a3a"/>
    <path d="M252.0127,368.6066h10.3547l.3924-1.0714a4.8615,4.8615,0,0,0-4.565-6.5335h0a4.8615,4.8615,0,0,0-4.565,3.19Z" style="fill: #3a3a3a"/>
    <path d="M192.2215,212.5124l-21.9563-2.96a1.5714,1.5714,0,0,1-1.3424-1.8015l.5748-3.6552a1.5714,1.5714,0,0,1,1.7623-1.3132l22.0927,2.9779Z" style="fill: #3f3f3f"/>
    <path d="M257.1941,264.7858H202.64a1.5671,1.5671,0,0,1-1.4582-1.9067l1.6168-8.6719h54.1545l1.6959,8.6567A1.5682,1.5682,0,0,1,257.1941,264.7858Z" style="fill: #3a3a3a"/>
  </g>
</svg>
