<svg id="85cc55a6-ea79-4e95-86f3-4d4853ce75f0" data-name="Layer 1" xmlns="http://www.w3.org/2000/svg" xmlns:xlink="http://www.w3.org/1999/xlink" viewBox="0 0 528.15 480"><defs><linearGradient id="c9cbabce-e9d4-4476-aae1-5b92548da8aa" x1="286.92" y1="180.82" x2="286.92" y2="167.98" gradientUnits="userSpaceOnUse"><stop offset="0" stop-color="#3a3a3a" stop-opacity="0"/><stop offset="0.25" stop-color="#3a3a3a" stop-opacity="0.14"/><stop offset="0.64" stop-color="#3a3a3a" stop-opacity="0.53"/><stop offset="1" stop-color="#3a3a3a"/></linearGradient><linearGradient id="3d92120c-1aa9-4108-b774-bef95bf88e85" x1="240.28" y1="180.82" x2="240.28" y2="167.98" xlink:href="#c9cbabce-e9d4-4476-aae1-5b92548da8aa"/></defs><title>joaco - sitio web 2016 v02 - Export2</title><rect id="c523f8e7-2063-41c4-a7ca-3a62671ad850" data-name="&lt;Rectangle&gt;" x="104.79" y="333.31" width="29.86" height="7.92" rx="3.96" ry="3.96" opacity="0.08"/><rect id="0684130f-6a2c-4fb4-9620-a7c433ce133e" data-name="&lt;Rectangle&gt;" x="139.9" y="333.31" width="29.86" height="7.92" rx="3.96" ry="3.96" opacity="0.08"/><rect id="df030208-a233-4668-a258-8ffaa363112c" data-name="&lt;Rectangle&gt;" x="121.45" y="345.25" width="29.86" height="7.92" rx="3.96" ry="3.96" opacity="0.08"/><rect id="515f5094-381d-4449-92a1-0ed05f39608e" data-name="&lt;Rectangle&gt;" x="390.81" y="262.17" width="29.86" height="7.92" rx="3.96" ry="3.96" opacity="0.08"/><rect id="95967fa0-2831-45f3-86ba-e89aa68489f7" data-name="&lt;Rectangle&gt;" x="372.36" y="274.11" width="29.86" height="7.92" rx="3.96" ry="3.96" opacity="0.08"/><line id="7ae5819e-825a-433a-b9b3-cb17405784e4" data-name="&lt;Path&gt;" x1="173.03" y1="265.89" x2="159.84" y2="213.94" fill="none" stroke="#d3987a" stroke-linecap="round" stroke-miterlimit="10" stroke-width="5"/><path d="M289.82,274.51h-51.6a5.26,5.26,0,0,1-5.46-4.75L230.65,246h66.74l-2.11,23.76A5.26,5.26,0,0,1,289.82,274.51Z" fill="#3a3a3a"/><polygon points="290.9 298 237.14 298 234.87 247.46 293.17 247.46 290.9 298" fill="#3a3a3a"/><path d="M274.39,207.38l-10.37,1-10.37-1-17.9,3.82a11.43,11.43,0,0,0-9,11.21v27.88a8.47,8.47,0,0,0,8.71,8.21h24a4.67,4.67,0,0,0,3.57-1.62,1.34,1.34,0,0,1,2,0,4.67,4.67,0,0,0,3.57,1.62h24a8.47,8.47,0,0,0,8.71-8.21V222.41a11.43,11.43,0,0,0-9-11.21Z" fill="#3a3a3a"/><path d="M253.35,201.9h21.33a0,0,0,0,1,0,0V210a8.47,8.47,0,0,1-8.47,8.47h-4.39a8.47,8.47,0,0,1-8.47-8.47V201.9A0,0,0,0,1,253.35,201.9Z" fill="#f9bfa2"/><path d="M205.37,247.63l-1.85,6.77a4.9,4.9,0,0,1-3.68,3.5l-21.32,4.65,2.29,14.65,35.43-2.87a5.38,5.38,0,0,0,4.76-3.95l4.81-17.64Z" fill="#feccae"/><path d="M160.24,264.26l4.27,14a4,4,0,0,0,4.82,2.7l15.62-4-.3-15.78-3.74-3.2a5.6,5.6,0,0,0-3.65-1.35H167.14a4,4,0,0,0-2.5.88L161.56,260A4,4,0,0,0,160.24,264.26Z" fill="#feccae"/><path d="M245.37,357h-2.7c-5.62,0-10.18-4.93-10.18-11V316.1a24.8,24.8,0,0,1,2.76-11.41l.61-1.18h25.39v36.34C261.25,349.33,254.14,357,245.37,357Z" fill="#424242"/><path d="M282.28,357H285c5.68,0,10.28-4.93,10.28-11V316.1a24.61,24.61,0,0,0-2.79-11.41l-.62-1.18H266.25v36.34C266.25,349.33,273.43,357,282.28,357Z" fill="#424242"/><rect x="234.97" y="296.03" width="58.2" height="7.47" rx="1.25" ry="1.25" fill="#424242"/><polyline points="317.15 221.19 294.24 226.67 300.9 251.95" fill="#3a3a3a"/><polygon points="228.36 253.39 205.37 247.63 212.29 222.43 235.29 228.19 228.36 253.39" fill="#3a3a3a"/><path d="M209,235.13,232.57,241l5.89-23.53-12.21-3.2a18.2,18.2,0,0,0-8.12.21A12.79,12.79,0,0,0,210,225.39Z" fill="#3a3a3a"/><path d="M320.27,233.92l-23.59,5.65L291,216l12.25-3.07a18.2,18.2,0,0,1,8.12.3,12.79,12.79,0,0,1,8,11Z" fill="#3a3a3a"/><rect x="256.61" y="303.5" width="14.23" height="22.94" fill="#424242"/><path id="12f1b077-7d1d-4527-99c4-c71485b4fb8c" data-name="&lt;Path&gt;" d="M263.65,208.52h-.09c-8.21,0-13.51-4.87-18.19-10.89C242,193.31,238,188.87,238,183V163.68a25.55,25.55,0,0,1,25.55-25.55h.09a25.55,25.55,0,0,1,25.55,25.55V183c0,5.9-4,10.34-7.36,14.66C277.16,203.65,271.85,208.52,263.65,208.52Z" fill="#feccae"/><ellipse id="2541842c-f5d7-4fb1-be16-4979e6d0d877" data-name="&lt;Path&gt;" cx="278.9" cy="179.28" rx="1.23" ry="2.92" transform="translate(21.39 388.13) rotate(-71.78)" fill="#f9bfa2"/><ellipse id="9a88ab73-233a-4082-8825-354d0a23f6ba" data-name="&lt;Path&gt;" cx="247.57" cy="179.28" rx="2.92" ry="1.23" transform="translate(-43.65 86.42) rotate(-18.22)" fill="#f9bfa2"/><path id="93c0acd7-6cc3-43c1-9101-cce156197d2a" data-name="&lt;Path&gt;" d="M266.52,198.82h-5.84c-5.33,0-11.84-4.64-13.28-11-.49-2.18-.11-4.76,2.44-4.38l9.54,1.37a30.46,30.46,0,0,0,8.76,0l9.22-1.36c2.16-.39,2.93,2,2.49,4.09C278.49,194,271.93,198.82,266.52,198.82Z" fill="#fff"/><path d="M263.52,182.3h0a2.43,2.43,0,0,1-2.31-2.41l-.52-10a2.46,2.46,0,0,1,2.31-2.7h1a2.46,2.46,0,0,1,2.31,2.7l-.52,10A2.43,2.43,0,0,1,263.52,182.3Z" fill="#f9bfa2"/><path d="M263.91,178.47,260.4,178a1.92,1.92,0,0,0-2.12,1.66h0a1.89,1.89,0,0,0,1.57,2.17l3.52.48a1.92,1.92,0,0,0,2.12-1.66h0A1.89,1.89,0,0,0,263.91,178.47Z" fill="#f9bfa2"/><path d="M291.48,170.45H289.2v10h1.3c2,0,3.65-1.78,4-4.26l.12-.78C295,172.86,293.52,170.45,291.48,170.45Z" fill="#f9bfa2"/><path d="M235.72,170.45H238v10h-1.3c-2,0-3.65-1.78-4-4.26l-.12-.78C232.15,172.86,233.68,170.45,235.72,170.45Z" fill="#f9bfa2"/><path id="c7e98029-84f0-48f8-9ae5-99a5f431f7c2" data-name="&lt;Path&gt;" d="M269.81,191.86H257.23a.75.75,0,1,1,0-1.5h12.59a.75.75,0,1,1,0,1.5Z" fill="#ededed"/><rect x="261.11" y="201.9" width="5.47" height="2" rx="0.8" ry="0.8" fill="#f9bfa2"/><path id="b2f1d47d-5a18-4cc2-b5c5-74305621e447" data-name="&lt;Path&gt;" d="M271,128.35H256.24c-10.07,0-18.24,10.57-18.24,21.15V168h4.56l.72-12.81A2.68,2.68,0,0,1,247,152.6l10.62,4.82a14.41,14.41,0,0,0,12,0l10.62-4.82a2.68,2.68,0,0,1,3.72,2.57l.72,12.81h4.56V147.49C289.2,136.92,281,128.35,271,128.35Z" fill="#3a3a3a"/><path d="M265,158.74h-1.92a15.06,15.06,0,0,1-13.32-8l-.78-1.49a1.25,1.25,0,0,1,1.28-1.83l5.73.81a3.15,3.15,0,0,0,2.61-.83l3.55-3.37a2.76,2.76,0,0,1,3.8,0l3.55,3.37a3.15,3.15,0,0,0,2.61.83l5.73-.81a1.25,1.25,0,0,1,1.28,1.83l-.78,1.49A15.06,15.06,0,0,1,265,158.74Z" fill="#333"/><polygon points="289.2 180.82 285.38 180.82 284.63 167.98 289.2 167.98 289.2 180.82" fill="url(#c9cbabce-e9d4-4476-aae1-5b92548da8aa)"/><polygon points="238 180.82 241.82 180.82 242.56 167.98 238 167.98 238 180.82" fill="url(#3d92120c-1aa9-4108-b774-bef95bf88e85)"/><ellipse id="b4a8fcc0-7a46-476f-9d21-9be660e6414d" data-name="&lt;Path&gt;" cx="274.08" cy="170.74" rx="2.9" ry="2.55" fill="#5b5b5b"/><ellipse id="a58d550a-16de-42b4-a812-bf1efe832378" data-name="&lt;Path&gt;" cx="252.76" cy="170.74" rx="2.9" ry="2.55" fill="#5b5b5b"/><rect x="268.96" y="167.21" width="10.24" height="2.19" rx="1.01" ry="1.01" transform="translate(-22.24 43.25) rotate(-8.67)" fill="#5b5b5b"/><rect x="247.64" y="167.21" width="10.24" height="2.19" rx="1.01" ry="1.01" transform="translate(477.25 372.79) rotate(-171.33)" fill="#5b5b5b"/><path d="M325.92,254.38h0l-2.11-7.92-20.5,4.91,4.31,16.18a1.66,1.66,0,0,1-.58,1.73l-6.46,5.1,7.28,13.5,19.34-8.37a6.57,6.57,0,0,0,3.7-7.85Z" fill="#feccae"/><polyline points="300.9 251.95 324.26 248.18 317.15 221.19" fill="#3a3a3a"/><line id="6073eb97-e1b6-4df7-b8eb-8d911939b551" data-name="&lt;Path&gt;" x1="294.25" y1="285.13" x2="261.23" y2="245.57" fill="none" stroke="#d3987a" stroke-linecap="round" stroke-miterlimit="10" stroke-width="5"/><path d="M281.07,283.77l8.69,11.79a4,4,0,0,0,5.44.95l13.4-9-5.53-14.78L298.48,271a5.6,5.6,0,0,0-3.89-.06L285,274.27a4,4,0,0,0-2.07,1.66l-2.08,3.36A4,4,0,0,0,281.07,283.77Z" fill="#feccae"/><rect id="8669a8b6-d9aa-467c-89dd-b1aa45ec2cda" data-name="&lt;Rectangle&gt;" x="77.3" y="387.97" width="374" height="23.4" rx="11.7" ry="11.7" fill="#686868"/><rect id="cccd3094-0acc-4d7b-94cf-4b3a00307997" data-name="&lt;Rectangle&gt;" x="155.96" y="301.88" width="52.75" height="71" fill="#fff"/><line id="9af6e14f-6786-4c85-ae99-3af2658ad103" data-name="&lt;Path&gt;" x1="166.17" y1="302.22" x2="166.17" y2="368.77" fill="none" stroke="#bcbcbb" stroke-linecap="round" stroke-miterlimit="10" stroke-width="3"/><line id="0afaa8ce-87c5-4cea-8c51-b31dd36a0e16" data-name="&lt;Path&gt;" x1="178.52" y1="302.22" x2="178.52" y2="368.77" fill="none" stroke="#bcbcbb" stroke-linecap="round" stroke-miterlimit="10" stroke-width="3"/><rect id="4466438b-8e83-40a7-9ed2-8863ef9d42eb" data-name="&lt;Rectangle&gt;" x="162.54" y="314.98" width="7.27" height="9.96" rx="3.64" ry="3.64" fill="#c9c9c9"/><rect id="2013a5b0-3772-4c6c-9bb0-64f4bdfa3f8d" data-name="&lt;Rectangle&gt;" x="162.54" y="343.24" width="7.27" height="9.96" rx="3.64" ry="3.64" fill="#c9c9c9"/><rect id="7791e288-6681-4115-824d-e8c21bd35fc7" data-name="&lt;Rectangle&gt;" x="150.49" y="296.78" width="64.65" height="13.08" rx="6.54" ry="6.54" fill="#474747"/><rect id="2bf325ef-b906-40c7-b1d3-4c715c7b102f" data-name="&lt;Rectangle&gt;" x="150.49" y="359.8" width="64.65" height="13.08" rx="6.54" ry="6.54" fill="#474747"/><g id="5d8e3291-4780-4f6d-bcfd-6f19f3b49c1f" data-name="&lt;Group&gt;"><line id="e63fcb62-f935-4142-bbfb-c8009af7304a" data-name="&lt;Path&gt;" x1="293.33" y1="339.38" x2="293.33" y2="364.36" fill="none" stroke="#c9c9c9" stroke-linecap="round" stroke-miterlimit="10" stroke-width="5"/><line id="cd0ace41-a437-4f16-978a-eb158b90ccdc" data-name="&lt;Path&gt;" x1="313.5" y1="389.06" x2="293.33" y2="364.36" fill="none" stroke="#c9c9c9" stroke-linecap="round" stroke-miterlimit="10" stroke-width="5"/><line id="d64ec492-a50c-4e9d-a5de-bc8e087cc9c4" data-name="&lt;Path&gt;" x1="313.5" y1="389.06" x2="309.4" y2="384.04" fill="none" stroke="#3a3a3a" stroke-linecap="round" stroke-miterlimit="10" stroke-width="11"/></g><rect id="4c7b89ae-2d12-4351-9d5b-98e9f6b6bfa6" data-name="&lt;Rectangle&gt;" x="266.28" y="303.88" width="55.07" height="29.63" fill="#fff"/><line id="bdd1e506-09b7-425d-a43f-35ac0510702c" data-name="&lt;Path&gt;" x1="310.88" y1="303.42" x2="310.88" y2="334.49" fill="none" stroke="#bcbcbb" stroke-linecap="round" stroke-miterlimit="10" stroke-width="3"/><line id="af351548-376f-4852-b338-bcb03101d032" data-name="&lt;Path&gt;" x1="296.42" y1="303.42" x2="296.42" y2="334.49" fill="none" stroke="#bcbcbb" stroke-linecap="round" stroke-miterlimit="10" stroke-width="3"/><rect id="f2b91332-6a63-4bf4-bcdc-3bf2497c6af8" data-name="&lt;Rectangle&gt;" x="307.24" y="313.98" width="7.27" height="9.96" rx="3.64" ry="3.64" fill="#c9c9c9"/><rect id="84b81826-e2a2-4150-a0c4-85e9a3f62bce" data-name="&lt;Rectangle&gt;" x="292.78" y="313.98" width="7.27" height="9.96" rx="3.64" ry="3.64" fill="#c9c9c9"/><line id="2423e7b1-bb2b-4026-8069-96e286e9a6b1" data-name="&lt;Path&gt;" x1="282.5" y1="303.42" x2="282.5" y2="334.49" fill="none" stroke="#bcbcbb" stroke-linecap="round" stroke-miterlimit="10" stroke-width="3"/><rect id="af5a0c83-cf5e-4130-98ec-23112cff86e9" data-name="&lt;Rectangle&gt;" x="278.86" y="313.98" width="7.27" height="9.96" rx="3.64" ry="3.64" fill="#c9c9c9"/><rect id="d3b9a352-02da-47ab-91da-a82d9650546d" data-name="&lt;Rectangle&gt;" x="253.35" y="295.78" width="74.02" height="13.08" rx="6.54" ry="6.54" fill="#474747"/><rect id="972ee89e-4bce-4e8e-9a9c-8022decfa718" data-name="&lt;Rectangle&gt;" x="260.37" y="329.05" width="67" height="13.08" rx="6.54" ry="6.54" fill="#474747"/><g id="42e0f798-b456-4f01-a678-4d0e4331726c" data-name="&lt;Group&gt;"><line id="5782b848-0fff-49d5-a89e-5cc34d76c30b" data-name="&lt;Path&gt;" x1="174.56" y1="394.01" x2="194.72" y2="369.31" fill="none" stroke="#c9c9c9" stroke-linecap="round" stroke-miterlimit="10" stroke-width="5"/><line id="93112b4d-2e6f-4de5-b61a-219e708d46ce" data-name="&lt;Path&gt;" x1="174.56" y1="394.01" x2="178.65" y2="389" fill="none" stroke="#3a3a3a" stroke-linecap="round" stroke-miterlimit="10" stroke-width="11"/></g><g id="8144fc50-b503-4ff5-bfa7-a4857925adef" data-name="&lt;Group&gt;"><line id="60c135b6-483a-4643-9b4c-6d7cad2bd84f" data-name="&lt;Path&gt;" x1="291.48" y1="394.01" x2="271.31" y2="369.31" fill="none" stroke="#c9c9c9" stroke-linecap="round" stroke-miterlimit="10" stroke-width="5"/><line id="c04deeba-f737-4b21-8869-f57dc64782e4" data-name="&lt;Path&gt;" x1="291.48" y1="394.01" x2="287.39" y2="389" fill="none" stroke="#3a3a3a" stroke-linecap="round" stroke-miterlimit="10" stroke-width="11"/></g><g id="6eb17448-278c-44f6-a4f4-aceb1da02591" data-name="&lt;Group&gt;"><path d="M232.81,395.57a50.36,50.36,0,1,1,50.36-50.36A50.42,50.42,0,0,1,232.81,395.57Z" fill="#fff"/><path d="M232.81,302.35a42.86,42.86,0,1,1-42.86,42.86,42.91,42.91,0,0,1,42.86-42.86m0-15a57.86,57.86,0,1,0,57.86,57.86,57.86,57.86,0,0,0-57.86-57.86Z" fill="#515151"/></g><g id="b1e8d512-54c2-4bdf-9cee-0498ec6c48f4" data-name="&lt;Group&gt;"><circle id="0aa27ef1-abb1-4885-81f2-10743df746fc" data-name="&lt;Path&gt;" cx="182.08" cy="345.38" r="5.04" fill="#6d6d6d"/><circle id="a5d5b1a8-99c0-4b97-a7ed-e18e5cb386d0" data-name="&lt;Path&gt;" cx="281.54" cy="345.38" r="5.04" fill="#6d6d6d"/><circle id="4843d61f-b353-454d-b9ca-3ba3bd5564d5" data-name="&lt;Path&gt;" cx="196.64" cy="380.55" r="5.04" transform="translate(-211.49 250.51) rotate(-45)" fill="#6d6d6d"/><circle id="2d1257ad-7251-43d1-8cad-6af219d44c17" data-name="&lt;Path&gt;" cx="266.97" cy="310.22" r="5.04" transform="translate(-141.16 279.64) rotate(-45)" fill="#6d6d6d"/><circle id="ace8b7c2-49c2-4e95-a9ed-5fff89cf8ec3" data-name="&lt;Path&gt;" cx="231.81" cy="395.11" r="5.04" fill="#6d6d6d"/><circle id="21f095be-2659-4503-b1e4-e18bbc5db1b8" data-name="&lt;Path&gt;" cx="231.81" cy="295.65" r="5.04" fill="#6d6d6d"/><circle id="0a3845de-a9fe-49be-994b-844c30cc3393" data-name="&lt;Path&gt;" cx="266.97" cy="380.55" r="5.04" transform="translate(-190.89 300.24) rotate(-45)" fill="#6d6d6d"/><circle id="7364b35f-b971-498e-b88f-862b1454351e" data-name="&lt;Path&gt;" cx="196.64" cy="310.22" r="5.04" transform="translate(-161.76 229.91) rotate(-45)" fill="#6d6d6d"/></g><line id="740e59ef-01b6-4f54-8b0b-160257281277" data-name="&lt;Path&gt;" x1="350.28" y1="209.3" x2="350.28" y2="389.06" fill="none" stroke="#c9c9c9" stroke-linecap="round" stroke-miterlimit="10" stroke-width="4.99"/><line id="8d51468f-6aee-485b-85c4-f5d993d3731d" data-name="&lt;Path&gt;" x1="350.28" y1="300.15" x2="350.28" y2="311" fill="none" stroke="#ddd" stroke-linecap="round" stroke-miterlimit="10" stroke-width="5"/><line id="22afab36-d239-4d3e-a475-8c51e01fe1c7" data-name="&lt;Path&gt;" x1="350.28" y1="236.22" x2="350.28" y2="253.23" fill="none" stroke="#b7b7b7" stroke-miterlimit="10" stroke-width="5"/><line id="80426f87-ae4a-4add-be4d-d629f14909f5" data-name="&lt;Path&gt;" x1="350.28" y1="262.33" x2="350.28" y2="277.05" fill="none" stroke="#b7b7b7" stroke-miterlimit="10" stroke-width="5"/><line id="db00de3c-5701-4e0e-8bd7-92ec7b6a8725" data-name="&lt;Path&gt;" x1="350.28" y1="386.55" x2="350.28" y2="393.49" fill="none" stroke="#474747" stroke-linecap="round" stroke-miterlimit="10" stroke-width="11"/><rect id="37508f4d-a120-4d64-8c3c-d8f9588656b9" data-name="&lt;Rectangle&gt;" x="343.3" y="213.63" width="13.96" height="21.97" rx="6.29" ry="6.29" fill="#474747"/><rect id="d50539fc-5b31-4b3e-b4e7-8da61416ebec" data-name="&lt;Rectangle&gt;" x="343.3" y="246.65" width="13.96" height="21.97" rx="6.29" ry="6.29" fill="#c9c9c9"/><path id="ceca15df-dc28-48bc-a514-20bac8ef9af1" data-name="&lt;Path&gt;" d="M385,240.13H315.56c-2.19,0-2.78-3.51-.74-4.45l11.78-5.43c13-6,34.32-6,47.34,0l11.78,5.43C387.77,236.62,387.19,240.13,385,240.13Z" fill="#ffce00"/><circle id="0bf33f48-1cb9-4b3b-826a-34e3cb783878" data-name="&lt;Path&gt;" cx="340.28" cy="232.94" r="2.77" fill="#ffdd50"/><circle id="91b6e192-0da5-4327-ae13-1507391faee2" data-name="&lt;Path&gt;" cx="349.51" cy="232.94" r="2.77" fill="#ffdd50"/><path id="6c92d4eb-01b5-4078-ba8f-eb454b2f96b2" data-name="&lt;Path&gt;" d="M316.13,245.39h68.3a2.22,2.22,0,0,1,.78,4.25l-11.26,4.7c-13,5.43-34.32,5.43-47.34,0l-11.26-4.7A2.22,2.22,0,0,1,316.13,245.39Z" fill="#fa0"/><line id="1bb1b52f-5052-49c8-97ea-7140ec5adb5f" data-name="&lt;Path&gt;" x1="330.11" y1="389.06" x2="350.28" y2="364.36" fill="none" stroke="#c9c9c9" stroke-linecap="round" stroke-miterlimit="10" stroke-width="5"/><line id="ed8e1ab2-f54a-4ca1-983c-8c1d9242a17f" data-name="&lt;Path&gt;" x1="326.11" y1="389.06" x2="330.21" y2="384.04" fill="none" stroke="#3a3a3a" stroke-linecap="round" stroke-miterlimit="10" stroke-width="11"/><line id="01bfdec7-1f4c-4942-9b92-c2fed090cf22" data-name="&lt;Path&gt;" x1="370.44" y1="389.06" x2="350.28" y2="364.36" fill="none" stroke="#c9c9c9" stroke-linecap="round" stroke-miterlimit="10" stroke-width="5"/><line id="2b318735-7270-4f5a-8b23-a700e235b4a1" data-name="&lt;Path&gt;" x1="123.84" y1="232.94" x2="123.84" y2="389.06" fill="none" stroke="#c9c9c9" stroke-linecap="round" stroke-miterlimit="10" stroke-width="5"/><line id="6468246c-bda4-433a-9b58-0b94a27b272b" data-name="&lt;Path&gt;" x1="123.96" y1="227.52" x2="123.96" y2="244.53" fill="none" stroke="#b7b7b7" stroke-miterlimit="10" stroke-width="5"/><line id="e3eca74a-a4f8-47b0-95fa-be4df6cbb5fa" data-name="&lt;Path&gt;" x1="123.84" y1="298.04" x2="123.84" y2="316.38" fill="none" stroke="#b7b7b7" stroke-miterlimit="10" stroke-width="5"/><rect x="121.22" y="197.88" width="5.24" height="10.04" rx="2.62" ry="2.62" fill="#b7b7b7"/><rect x="113.72" y="201.95" width="20.24" height="4.25" rx="2.13" ry="2.13" fill="#c9c9c9"/><rect x="399.95" y="159.26" width="5.24" height="10.04" rx="2.62" ry="2.62" fill="#b7b7b7"/><rect x="392.45" y="163.33" width="20.24" height="4.25" rx="2.13" ry="2.13" fill="#c9c9c9"/><rect id="0099a7ba-c2ff-4d09-b9ec-1f3ca1ef2ebd" data-name="&lt;Rectangle&gt;" x="116.86" y="205.08" width="13.96" height="21.97" rx="6.29" ry="6.29" fill="#474747"/><path id="75dc1175-a085-42e1-b362-59b130e5ae59" data-name="&lt;Path&gt;" d="M179.54,236.8,68.45,238a3.26,3.26,0,0,1-1.31-6.28l18.7-7.74c20.82-8.62,55-9,76-.79l18.85,7.35A3.26,3.26,0,0,1,179.54,236.8Z" fill="#ffce00"/><line id="5c220c61-acd2-4d31-ac71-1ec017d49273" data-name="&lt;Path&gt;" x1="103.67" y1="389.06" x2="123.84" y2="364.36" fill="none" stroke="#c9c9c9" stroke-linecap="round" stroke-miterlimit="10" stroke-width="5"/><line id="463a90b8-fa59-4f5a-8d54-4f2fa40faf3a" data-name="&lt;Path&gt;" x1="144.01" y1="389.06" x2="123.84" y2="364.36" fill="none" stroke="#c9c9c9" stroke-linecap="round" stroke-miterlimit="10" stroke-width="5"/><line id="7549a3cb-1dd0-4bb8-b9ea-2100c83ad2f1" data-name="&lt;Path&gt;" x1="410.3" y1="240.38" x2="410.3" y2="387.55" fill="none" stroke="#c9c9c9" stroke-linecap="round" stroke-miterlimit="10" stroke-width="5.23"/><line id="f0a47dc8-cc70-4950-a7b9-9c69d7caafcd" data-name="&lt;Path&gt;" x1="410.3" y1="290.23" x2="410.3" y2="301.08" fill="none" stroke="#ddd" stroke-linecap="round" stroke-miterlimit="10" stroke-width="5"/><line id="2a7bd086-31e0-4b56-bc1d-6df5c4e2bd40" data-name="&lt;Path&gt;" x1="402.57" y1="167.01" x2="402.57" y2="221.94" fill="none" stroke="#c9c9c9" stroke-linecap="round" stroke-miterlimit="10" stroke-width="5"/><line id="1d147738-874d-4ee7-9484-14e3ee71dde2" data-name="&lt;Path&gt;" x1="402.57" y1="189.29" x2="402.57" y2="206.3" fill="none" stroke="#b7b7b7" stroke-miterlimit="10" stroke-width="5"/><line id="d106ac93-057f-443d-8de3-2e02f4d41717" data-name="&lt;Path&gt;" x1="410.3" y1="309.37" x2="410.3" y2="326.38" fill="none" stroke="#b7b7b7" stroke-miterlimit="10" stroke-width="5"/><rect id="cf09a6d5-1369-4204-b17a-ec91e1a0cd47" data-name="&lt;Rectangle&gt;" x="395.59" y="166.77" width="13.96" height="21.97" rx="6.29" ry="6.29" fill="#474747"/><path id="6912997f-da19-47ed-b8ab-4e45a1068a56" data-name="&lt;Path&gt;" d="M463.91,198.82H341.23c-1.77,0-2.15-3.22-.46-3.9l24.29-9.78c20.63-8.31,54.4-8.31,75,0l24.29,9.78C466.06,195.59,465.68,198.82,463.91,198.82Z" fill="#ffce00"/><line id="f07d7214-61ab-4163-89a0-fce50fb51ca0" data-name="&lt;Path&gt;" x1="390.13" y1="389.06" x2="410.3" y2="364.36" fill="none" stroke="#c9c9c9" stroke-linecap="round" stroke-miterlimit="10" stroke-width="5"/><line id="31fd90cc-ae0c-445b-805e-7cd406e3a6a3" data-name="&lt;Path&gt;" x1="430.46" y1="389.06" x2="410.3" y2="364.36" fill="none" stroke="#c9c9c9" stroke-linecap="round" stroke-miterlimit="10" stroke-width="5"/><line id="80e9cba0-81af-47ef-a716-fdbf161e3bbf" data-name="&lt;Path&gt;" x1="370.44" y1="389.06" x2="366.35" y2="384.04" fill="none" stroke="#3a3a3a" stroke-linecap="round" stroke-miterlimit="10" stroke-width="11"/><line id="b3efc8ea-d263-47fd-bbc9-e62c17c5f463" data-name="&lt;Path&gt;" x1="410.3" y1="386.55" x2="410.3" y2="393.49" fill="none" stroke="#474747" stroke-linecap="round" stroke-miterlimit="10" stroke-width="11"/><line id="94da4d92-5a87-4d45-b46e-b2999aed0659" data-name="&lt;Path&gt;" x1="390.13" y1="389.06" x2="394.23" y2="384.04" fill="none" stroke="#3a3a3a" stroke-linecap="round" stroke-miterlimit="10" stroke-width="11"/><line id="4eb95c47-bcc5-4e4a-a7f5-ba7d0712ef53" data-name="&lt;Path&gt;" x1="430.46" y1="389.06" x2="426.37" y2="384.04" fill="none" stroke="#3a3a3a" stroke-linecap="round" stroke-miterlimit="10" stroke-width="11"/><line id="74e6b018-7c28-423d-832d-2e6aaefe59a9" data-name="&lt;Path&gt;" x1="123.96" y1="386.55" x2="123.96" y2="393.49" fill="none" stroke="#474747" stroke-linecap="round" stroke-miterlimit="10" stroke-width="11"/><line id="d36dfcd3-7d94-465b-b060-c530e4a1d768" data-name="&lt;Path&gt;" x1="103.79" y1="389.06" x2="107.89" y2="384.04" fill="none" stroke="#3a3a3a" stroke-linecap="round" stroke-miterlimit="10" stroke-width="11"/><line id="8723fb60-463b-47c8-85f8-22a4af4fa7c6" data-name="&lt;Path&gt;" x1="144.13" y1="389.06" x2="140.03" y2="384.04" fill="none" stroke="#3a3a3a" stroke-linecap="round" stroke-miterlimit="10" stroke-width="11"/><rect id="f3ef51b4-1c12-4c9a-a21f-d8aee6f9a1be" data-name="&lt;Rectangle&gt;" x="403.32" y="296.71" width="13.96" height="21.97" rx="6.29" ry="6.29" fill="#c9c9c9"/><line id="e72b5100-b5aa-4248-9b9f-6e0d19a75899" data-name="&lt;Path&gt;" x1="123.84" y1="278.23" x2="123.84" y2="289.08" fill="none" stroke="#ddd" stroke-linecap="round" stroke-miterlimit="10" stroke-width="5"/><rect id="b873668e-c31d-4fa2-a477-ec5649c54d12" data-name="&lt;Rectangle&gt;" x="116.86" y="286.71" width="13.96" height="21.97" rx="6.29" ry="6.29" fill="#c9c9c9"/><circle id="bfeab375-7c22-4ac8-903d-5ccacaa48ac5" data-name="&lt;Path&gt;" cx="116.86" cy="297.7" r="4.47" fill="#b7b7b7"/><circle id="c6862c8f-177b-4bde-920f-f2a19d12b5cd" data-name="&lt;Path&gt;" cx="403.32" cy="307.7" r="4.47" fill="#b7b7b7"/><line id="6504b60d-eb99-4672-9d25-10f7cf61b798" data-name="&lt;Path&gt;" x1="410.3" y1="235.37" x2="410.3" y2="252.38" fill="none" stroke="#b7b7b7" stroke-miterlimit="10" stroke-width="5"/><rect id="ba30e9d8-94b0-45a0-be95-367262ec6074" data-name="&lt;Rectangle&gt;" x="403.32" y="222.71" width="13.96" height="21.97" rx="6.29" ry="6.29" fill="#c9c9c9"/><circle id="9cf79107-c44a-4e8b-ac52-121816400725" data-name="&lt;Path&gt;" cx="403.32" cy="233.7" r="4.47" fill="#b7b7b7"/><line id="dffc0fa6-54e6-4181-8a34-17f9263531ba" data-name="&lt;Path&gt;" x1="350.28" y1="318.52" x2="350.28" y2="335.53" fill="none" stroke="#b7b7b7" stroke-miterlimit="10" stroke-width="5"/><rect id="1cf41070-9a26-4a0f-9c96-443708340728" data-name="&lt;Rectangle&gt;" x="343.3" y="305.86" width="13.96" height="21.97" rx="6.29" ry="6.29" transform="translate(700.56 633.7) rotate(180)" fill="#c9c9c9"/><circle id="198dee6c-912f-4f78-8978-24d6fe96f281" data-name="&lt;Path&gt;" cx="357.26" cy="316.85" r="4.47" fill="#b7b7b7"/><circle id="13582242-be87-497c-a40b-3b8f01120c65" data-name="&lt;Path&gt;" cx="100.26" cy="227.93" r="3.41" fill="#ffdd50"/><circle id="be71b2dd-f853-45fa-9e28-4d36d0565383" data-name="&lt;Path&gt;" cx="111.3" cy="227.93" r="3.41" fill="#ffdd50"/><circle id="96907b88-212e-4db5-b61b-850b4c25ed3d" data-name="&lt;Path&gt;" cx="386.77" cy="188.86" r="3.41" fill="#ffdd50"/><circle id="f0f2a947-84f9-48c1-9bec-99f850cf0ccb" data-name="&lt;Path&gt;" cx="398.13" cy="188.86" r="3.41" fill="#ffdd50"/><g id="321fd081-6aeb-40e5-a871-6435741d369c" data-name="&lt;Group&gt;"><circle cx="231.81" cy="345.21" r="30.07" fill="#f4f4f4"/></g><line x1="402.61" y1="222.14" x2="453.16" y2="272.68" fill="none" stroke="#c9c9c9" stroke-linecap="round" stroke-miterlimit="10" stroke-width="5"/><line x1="447.33" y1="266.86" x2="462.35" y2="281.88" fill="none" stroke="#474747" stroke-linecap="round" stroke-miterlimit="10" stroke-width="11"/></svg>