<svg id="Layer_1" data-name="Layer 1" xmlns="http://www.w3.org/2000/svg" xmlns:xlink="http://www.w3.org/1999/xlink" viewBox="0 0 460 420">
  <defs>
    <linearGradient id="linear-gradient" x1="230.7804" y1="145.7451" x2="230.7804" y2="123.8801" gradientUnits="userSpaceOnUse">
      <stop offset="0" stop-color="#e55757" stop-opacity="0"/>
      <stop offset="1" stop-color="#e55757"/>
    </linearGradient>
  </defs>
  <title>1</title>
  <rect id="_Rectangle_" data-name="&lt;Rectangle&gt;" x="70.7114" y="313.2365" width="29.856" height="7.9203" rx="3.9602" ry="3.9602" style="opacity: 0.08"/>
  <rect id="_Rectangle_2" data-name="&lt;Rectangle&gt;" x="105.8297" y="313.2365" width="29.856" height="7.9203" rx="3.9602" ry="3.9602" style="opacity: 0.08"/>
  <rect id="_Rectangle_3" data-name="&lt;Rectangle&gt;" x="87.3786" y="325.1765" width="29.856" height="7.9203" rx="3.9602" ry="3.9602" style="opacity: 0.08"/>
  <rect id="_Rectangle_4" data-name="&lt;Rectangle&gt;" x="102.1523" y="128.8138" width="29.856" height="7.9203" rx="3.9602" ry="3.9602" style="opacity: 0.08"/>
  <rect id="_Rectangle_5" data-name="&lt;Rectangle&gt;" x="137.2706" y="128.8138" width="29.856" height="7.9203" rx="3.9602" ry="3.9602" style="opacity: 0.08"/>
  <rect id="_Rectangle_6" data-name="&lt;Rectangle&gt;" x="118.8195" y="140.7538" width="29.856" height="7.9203" rx="3.9602" ry="3.9602" style="opacity: 0.08"/>
  <rect id="_Rectangle_7" data-name="&lt;Rectangle&gt;" x="356.7359" y="242.0911" width="29.856" height="7.9203" rx="3.9602" ry="3.9602" style="opacity: 0.08"/>
  <rect id="_Rectangle_8" data-name="&lt;Rectangle&gt;" x="338.2848" y="254.0311" width="29.856" height="7.9203" rx="3.9602" ry="3.9602" style="opacity: 0.08"/>
  <line id="_Path_" data-name="&lt;Path&gt;" x1="138.9601" y1="245.8139" x2="125.7614" y2="193.8634" style="fill: none;stroke: #d3987a;stroke-linecap: round;stroke-miterlimit: 10;stroke-width: 5px"/>
  <g>
    <path d="M240.3126,187.3044l-10.3683,1.01-10.3683-1.01-17.9012,3.8185a11.432,11.432,0,0,0-8.9994,11.2118v27.8764a8.4731,8.4731,0,0,0,8.7108,8.2133h23.9834a4.6738,4.6738,0,0,0,3.57-1.6156,1.3379,1.3379,0,0,1,2.01,0,4.6739,4.6739,0,0,0,3.57,1.6156h23.9834a8.4731,8.4731,0,0,0,8.7108-8.2133V202.3347a11.432,11.432,0,0,0-8.9994-11.2118Z" style="fill: #3a3a3a"/>
    <path d="M219.28,181.8281h21.3288a0,0,0,0,1,0,0v8.1343a8.467,8.467,0,0,1-8.467,8.467h-4.3948a8.467,8.467,0,0,1-8.467-8.467v-8.1343A0,0,0,0,1,219.28,181.8281Z" style="fill: #f9bfa2"/>
    <path d="M171.2923,227.5537l-1.8485,6.7745a4.8986,4.8986,0,0,1-3.6812,3.4964l-21.32,4.6535,2.2949,14.6547,35.4349-2.87a5.383,5.383,0,0,0,4.7585-3.9482l4.8134-17.6382Z" style="fill: #feccae"/>
    <path d="M126.1647,244.1863l4.2719,14.004a3.9961,3.9961,0,0,0,4.8177,2.7041l15.6229-4.0189-.2971-15.78-3.7374-3.2039a5.6039,5.6039,0,0,0-3.6515-1.3493l-10.1294.0076a3.9961,3.9961,0,0,0-2.5009.8818l-3.0779,2.4747A3.9961,3.9961,0,0,0,126.1647,244.1863Z" style="fill: #feccae"/>
    <path d="M211.2935,335.949h-2.7048c-5.6209,0-10.1776-4.9287-10.1776-11.0086V295.0271a24.8,24.8,0,0,1,2.7613-11.4137l.615-1.1839h25.3883V318.77C227.1756,328.2577,220.065,335.949,211.2935,335.949Z" style="fill: #424242"/>
    <path d="M248.2107,335.9489h2.7309c5.6751,0,10.2757-4.9287,10.2757-11.0086V295.0271a24.6093,24.6093,0,0,0-2.7879-11.4137l-.6209-1.1839H232.1756V318.77C232.1756,328.2577,239.3548,335.9489,248.2107,335.9489Z" style="fill: #424242"/>
    <polyline points="283.081 201.113 260.167 206.599 266.825 231.872" style="fill: #3a3a3a"/>
    <polygon points="194.29 233.314 171.292 227.554 178.218 202.352 201.216 208.113 194.29 233.314" style="fill: #3a3a3a"/>
    <path d="M174.9685,215.0523l23.5285,5.8936,5.8936-23.5285-12.2134-3.197a18.2029,18.2029,0,0,0-8.1231.2107,12.7858,12.7858,0,0,0-8.1384,10.8814Z" style="fill: #3a3a3a"/>
    <path d="M286.1936,213.8474l-23.5889,5.6469-5.6469-23.5889,12.2462-3.0689a18.2029,18.2029,0,0,1,8.12.2958,12.7858,12.7858,0,0,1,8.024,10.966Z" style="fill: #3a3a3a"/>
    <rect x="222.531" y="282.4294" width="14.2263" height="22.9444" style="fill: #424242"/>
    <path d="M257.1894,269.0812H202.6646c-.5341-11.9011-2.7635-9.5347-4.0028-19.75l-2.1053-23.7561h66.7411l-2.1053,23.7561C260.4082,259.5168,259.0767,255.9927,257.1894,269.0812Z" style="fill: #3a3a3a"/>
    <polygon points="256.808 277.575 203.046 277.575 200.777 227.029 259.077 227.029 256.808 277.575" style="fill: #3a3a3a"/>
    <path d="M257.2448,283.0747H202.6912a1.4871,1.4871,0,0,1-1.4582-1.7786l1.6168-8.089h54.1545L258.7,281.282A1.4871,1.4871,0,0,1,257.2448,283.0747Z" style="fill: #3a3a3a"/>
    <path d="M291.8484,234.3078h0l-2.1094-7.9212-20.5039,4.9084,4.3073,16.1754a1.6585,1.6585,0,0,1-.5756,1.729l-6.4617,5.0962,7.2783,13.503,19.3446-8.3735a6.5706,6.5706,0,0,0,3.7029-7.8516Z" style="fill: #feccae"/>
    <polyline points="266.825 231.872 290.191 228.102 283.081 201.113" style="fill: #3a3a3a"/>
    <line id="_Path_2" data-name="&lt;Path&gt;" x1="260.1768" y1="265.0529" x2="227.1596" y2="225.4974" style="fill: none;stroke: #d3987a;stroke-linecap: round;stroke-miterlimit: 10;stroke-width: 5px"/>
    <path d="M246.9973,263.6912l8.6858,11.7864a3.9961,3.9961,0,0,0,5.4428.9481l13.3973-8.9855-5.5279-14.7834-4.59-1.7787a5.6039,5.6039,0,0,0-3.8924-.0583l-9.55,3.3757a3.9961,3.9961,0,0,0-2.0654,1.6633l-2.08,3.3574A3.9961,3.9961,0,0,0,246.9973,263.6912Z" style="fill: #feccae"/>
    <g>
      <path id="_Path_3" data-name="&lt;Path&gt;" d="M230.4774,187.5655h-.0866c-7.8437,0-12.9123-3.037-17.3794-9.4016-3.2128-4.5774-6.0372-9.2707-5.0372-15.5168l-1-20.4105c-1-14.9308,9.9317-27.0346,23.4166-27.0346h.0866c13.4849,0,24.4166,12.1038,23.4166,27.0346l-1,20.4105c1,6.2461-1.8244,10.9393-5.0372,15.5168C243.39,184.5285,238.3211,187.5655,230.4774,187.5655Z" style="fill: #feccae"/>
      <rect x="209.0378" y="123.8801" width="43.4851" height="21.865" style="fill: url(#linear-gradient)"/>
      <path d="M243.3042,178.0076l7.9773-6,1-15.2332h0a8.9773,8.9773,0,0,0-8.9773,8.9773Z" style="fill: #f9bfa2"/>
      <path d="M217.6016,177.9771l-7.9773-6-1-15.2332h0a8.9773,8.9773,0,0,1,8.9773,8.9773Z" style="fill: #f9bfa2"/>
      <polygon points="243.304 147.76 217.385 147.76 215.014 142.949 225.536 142.949 235.348 142.949 245.666 142.949 243.304 147.76" style="fill: #f9bfa2"/>
      <path id="_Path_4" data-name="&lt;Path&gt;" d="M215.0482,154.6655c.1367.8728,1.761,1.29,3.628.9314s3.27-1.3566,3.133-2.2294-1.761-1.29-3.628-.9314S214.9115,153.7927,215.0482,154.6655Z" style="fill: #f7afa4"/>
      <path id="_Path_5" data-name="&lt;Path&gt;" d="M245.1488,154.6655c-.1367.8728-1.761,1.29-3.628.9314s-3.27-1.3566-3.133-2.2294,1.761-1.29,3.628-.9314S245.2855,153.7927,245.1488,154.6655Z" style="fill: #f7afa4"/>
      <path d="M256.0718,145.1692h-2.183v10.6053h1.2449c1.8731,0,3.4855-1.8869,3.8521-4.5077l.1157-.8271C259.4829,147.7126,258.0208,145.1692,256.0718,145.1692Z" style="fill: #f9bfa2"/>
      <path d="M204.7912,145.1692h2.183v10.6053h-1.2449c-1.8731,0-3.4855-1.8869-3.8521-4.5077l-.1157-.8271C201.38,147.7126,202.8422,145.1692,204.7912,145.1692Z" style="fill: #f9bfa2"/>
      <path d="M218.7137,120.957a8.1874,8.1874,0,0,1-5.3163-10.15h0a7.9037,7.9037,0,0,1,9.8842-5.4591Z" style="fill: #424242"/>
      <g>
        <path id="_Path_6" data-name="&lt;Path&gt;" d="M237.466,110.1381H223.397c-9.6252,0-17.428,9.0715-17.428,20.2617v-1.9863l1,18.3726H210.28l.7319-16.7278c0-2.1284,1.8749-3.5606,3.5552-2.7159l10.1507,5.1029a12.5623,12.5623,0,0,0,11.4281,0l10.1507-5.1029c1.68-.8447,3.5552.5875,3.5552,2.7159l.8175,16.7278h3.225l1-16.2564v-2.2462C254.894,117.0933,247.0913,110.1381,237.466,110.1381Z" style="fill: #3a3a3a"/>
        <polygon points="253.894 161.429 251.403 161.383 250.669 146.786 253.894 146.786 253.894 161.429" style="fill: #3a3a3a"/>
        <polygon points="206.969 161.429 209.465 161.383 210.28 146.786 206.969 146.786 206.969 161.429" style="fill: #3a3a3a"/>
      </g>
      <path d="M216.4209,103.8868l.0217,12.5817a5.7477,5.7477,0,0,0,1.6668,4.05L231.39,133.82H216.4209c-6.698,0-12.1278-5.8081-12.1278-12.9727v-3.988C204.2931,109.6948,209.7229,103.8868,216.4209,103.8868Z" style="fill: #3a3a3a"/>
      <path d="M230.3509,161.245h0a2.93,2.93,0,0,1-2.7807-2.9139l-.6316-12.0566a2.9726,2.9726,0,0,1,2.7807-3.2733h1.2631a2.9726,2.9726,0,0,1,2.7807,3.2733l-.6316,12.0566A2.93,2.93,0,0,1,230.3509,161.245Z" style="fill: #efb49a"/>
      <rect x="225.4279" y="156.9985" width="7.1219" height="3.9104" rx="1.7435" ry="1.7435" transform="translate(20.6765 -26.2709) rotate(6.8758)" style="fill: #efb49a"/>
      <rect x="235.9561" y="143.7596" width="9.7864" height="2.3146" rx="1.0104" ry="1.0104" transform="matrix(0.9515, -0.3077, 0.3077, 0.9515, -32.9073, 81.1467)" style="fill: #3a3a3a"/>
      <rect x="215.2598" y="143.7596" width="9.7864" height="2.3146" rx="1.0104" ry="1.0104" transform="translate(385.0291 350.548) rotate(-162.078)" style="fill: #3a3a3a"/>
      <path id="_Path_7" data-name="&lt;Path&gt;" d="M243.3042,147.1822c0-1.2539-5.5363-1.2539-5.5363,0a2.8227,2.8227,0,0,0,5.5363,0Z" style="fill: #3a3a3a"/>
      <path id="_Path_8" data-name="&lt;Path&gt;" d="M222.9212,147.1822c0-1.2539-5.5363-1.2539-5.5363,0a2.8227,2.8227,0,0,0,5.5363,0Z" style="fill: #3a3a3a"/>
      <path d="M210.1641,114.3651s-1.749,13.7944,12.757,13.7944h5.1271" style="fill: none;stroke: #494949;stroke-linecap: round;stroke-miterlimit: 10;stroke-width: 1.5px"/>
      <path d="M217.3848,117.1015c1.934,5.6483,4.89,5.9726,12.7561,5.9726" style="fill: none;stroke: #424242;stroke-linecap: round;stroke-miterlimit: 10;stroke-width: 1.5px"/>
      <path d="M251.403,161.3833a13.2115,13.2115,0,0,1-2.8726,8.5923q-.1493.1941-.3017.3844a.9311.9311,0,0,1-1.603-.905,14.5491,14.5491,0,0,0,.6992-2.413,7.139,7.139,0,0,0-1.212-5.87,4.7719,4.7719,0,0,0-3.7436-1.7765h0a5.2947,5.2947,0,0,0-.9324.0842l-7.6985,1.2119a20.6,20.6,0,0,1-6.3411.0112l-8.0062-1.2316a5.769,5.769,0,0,0-.9134-.0735,4.8132,4.8132,0,0,0-3.8167,1.7876c-1.6251,2.0054-1.3554,4.723-1.05,6.1646a14.6952,14.6952,0,0,0,.5884,2.0334.9322.9322,0,0,1-1.5918.907q-.1353-.1591-.27-.3143c-2.8681-3.3064-3.0944-5.5237-2.8727-8.5923h-2.4909v1.2927c0,6.3357,2.908,11.0964,6.1909,15.74,4.3836,6.2,9.3423,9.1345,16.8266,9.5267v.0385c.1507,0,.2937-.0151.4425-.0193.1487.0042.2917.019.4425.0193v-.0385c7.4843-.3922,12.4429-3.3268,16.8265-9.5267,3.2829-4.6431,6.1909-9.4038,6.1909-15.74v-1.2927Zm-9.41,1.3491a1.9972,1.9972,0,0,1,.3765-.0375c1.528,0,2.057,1.985,1.7178,3.71a12.3453,12.3453,0,0,1-1.618,4.0848l-1.288-5.2424a5.533,5.533,0,0,0-1.303-2.1825Zm-23.5151-.035a2.5654,2.5654,0,0,1,.4117.035l2.0235.3113a5.3254,5.3254,0,0,0-1.3671,2.2041l-1.2147,5.1443a12.1023,12.1023,0,0,1-1.4918-3.7266C216.453,164.8428,216.7055,162.6974,218.4774,162.6974Z" style="fill: #3a3a3a"/>
      <path d="M226.0009,179.9634a1.817,1.817,0,0,1-3.6341,0" style="fill: none;stroke: #424242;stroke-linecap: round;stroke-miterlimit: 10"/>
      <path d="M232.202,179.9634a3.1006,3.1006,0,0,1-6.2011,0" style="fill: none;stroke: #424242;stroke-linecap: round;stroke-miterlimit: 10"/>
      <path id="_Path_9" data-name="&lt;Path&gt;" d="M232.8864,176.5492h-4.9c-4.4769,0-9.9368-4.1689-11.1474-9.8836-.4143-1.9556-.0938-4.2823,2.05-3.9332l8.0061,1.2317a23.8985,23.8985,0,0,0,7.356-.0129l7.7413-1.2187c1.8164-.3491,2.46,1.8128,2.0943,3.673C242.9373,172.2534,237.4309,176.5492,232.8864,176.5492Z" style="fill: #fff"/>
      <path id="_Path_10" data-name="&lt;Path&gt;" d="M236.021,170.2947H224.7068a.6726.6726,0,1,1,0-1.3453H236.021a.6726.6726,0,1,1,0,1.3453Z" style="fill: #ededed"/>
    </g>
  </g>
  <rect id="_Rectangle_9" data-name="&lt;Rectangle&gt;" x="43.2248" y="367.8985" width="374" height="23.4008" rx="11.7004" ry="11.7004" style="opacity: 0.2"/>
  <g>
    <rect id="_Rectangle_10" data-name="&lt;Rectangle&gt;" x="121.8893" y="281.8023" width="52.7471" height="70.9994" style="fill: #fff"/>
    <line id="_Path_11" data-name="&lt;Path&gt;" x1="132.0997" y1="282.144" x2="132.0997" y2="348.6954" style="fill: none;stroke: #bcbcbb;stroke-linecap: round;stroke-miterlimit: 10;stroke-width: 3px"/>
    <line id="_Path_12" data-name="&lt;Path&gt;" x1="144.442" y1="282.144" x2="144.442" y2="348.6954" style="fill: none;stroke: #bcbcbb;stroke-linecap: round;stroke-miterlimit: 10;stroke-width: 3px"/>
    <rect id="_Rectangle_11" data-name="&lt;Rectangle&gt;" x="128.464" y="294.9015" width="7.2715" height="9.9613" rx="3.6357" ry="3.6357" style="fill: #c9c9c9"/>
    <rect id="_Rectangle_12" data-name="&lt;Rectangle&gt;" x="128.464" y="323.1667" width="7.2715" height="9.9613" rx="3.6357" ry="3.6357" style="fill: #c9c9c9"/>
    <rect id="_Rectangle_13" data-name="&lt;Rectangle&gt;" x="116.4126" y="276.7034" width="64.6465" height="13.0803" rx="6.5402" ry="6.5402" style="fill: #474747"/>
    <rect id="_Rectangle_14" data-name="&lt;Rectangle&gt;" x="116.4126" y="339.7214" width="64.6465" height="13.0803" rx="6.5402" ry="6.5402" style="fill: #474747"/>
    <path d="M174.5188,284.7837H122.9529a6.54,6.54,0,0,1-6.043-4.04,6.5131,6.5131,0,0,0-.4976,2.5h0a6.54,6.54,0,0,0,6.5405,6.54h51.5659a6.54,6.54,0,0,0,6.54-6.54h0a6.5128,6.5128,0,0,0-.4971-2.5A6.54,6.54,0,0,1,174.5188,284.7837Z" style="fill: #3f3f3f"/>
    <path d="M174.5188,347.8017H122.9529a6.54,6.54,0,0,1-6.043-4.04,6.5384,6.5384,0,0,0,6.043,9.04h51.5659a6.5394,6.5394,0,0,0,6.043-9.04A6.54,6.54,0,0,1,174.5188,347.8017Z" style="fill: #3f3f3f"/>
  </g>
  <g id="_Group_" data-name="&lt;Group&gt;">
    <line id="_Path_13" data-name="&lt;Path&gt;" x1="259.2552" y1="319.302" x2="259.2552" y2="344.2844" style="fill: none;stroke: #c9c9c9;stroke-linecap: round;stroke-miterlimit: 10;stroke-width: 5px"/>
    <line id="_Path_14" data-name="&lt;Path&gt;" x1="259.2552" y1="319.302" x2="259.2552" y2="329.1366" style="fill: none;stroke: #b7b7b7;stroke-miterlimit: 10;stroke-width: 5px"/>
    <line id="_Path_15" data-name="&lt;Path&gt;" x1="279.4219" y1="368.9829" x2="259.2552" y2="344.2844" style="fill: none;stroke: #c9c9c9;stroke-linecap: round;stroke-miterlimit: 10;stroke-width: 5px"/>
    <line id="_Path_16" data-name="&lt;Path&gt;" x1="279.4219" y1="368.9829" x2="275.3263" y2="363.967" style="fill: none;stroke: #3a3a3a;stroke-linecap: round;stroke-miterlimit: 10;stroke-width: 11px"/>
  </g>
  <g>
    <rect id="_Rectangle_15" data-name="&lt;Rectangle&gt;" x="232.204" y="283.8023" width="55.0671" height="29.6265" style="fill: #fff"/>
    <line id="_Path_17" data-name="&lt;Path&gt;" x1="276.8043" y1="283.3447" x2="276.8043" y2="314.4197" style="fill: none;stroke: #bcbcbb;stroke-linecap: round;stroke-miterlimit: 10;stroke-width: 3px"/>
    <line id="_Path_18" data-name="&lt;Path&gt;" x1="262.3454" y1="283.3447" x2="262.3454" y2="314.4197" style="fill: none;stroke: #bcbcbb;stroke-linecap: round;stroke-miterlimit: 10;stroke-width: 3px"/>
    <rect id="_Rectangle_16" data-name="&lt;Rectangle&gt;" x="273.1685" y="293.9015" width="7.2715" height="9.9613" rx="3.6357" ry="3.6357" style="fill: #c9c9c9"/>
    <rect id="_Rectangle_17" data-name="&lt;Rectangle&gt;" x="258.7097" y="293.9015" width="7.2715" height="9.9613" rx="3.6357" ry="3.6357" style="fill: #c9c9c9"/>
    <line id="_Path_19" data-name="&lt;Path&gt;" x1="248.4267" y1="283.3447" x2="248.4267" y2="314.4197" style="fill: none;stroke: #bcbcbb;stroke-linecap: round;stroke-miterlimit: 10;stroke-width: 3px"/>
    <rect id="_Rectangle_18" data-name="&lt;Rectangle&gt;" x="244.791" y="293.9015" width="7.2715" height="9.9613" rx="3.6357" ry="3.6357" style="fill: #c9c9c9"/>
    <rect id="_Rectangle_19" data-name="&lt;Rectangle&gt;" x="219.2799" y="275.7034" width="74.0244" height="13.0803" rx="6.5402" ry="6.5402" style="fill: #474747"/>
    <rect id="_Rectangle_20" data-name="&lt;Rectangle&gt;" x="226.3005" y="308.9807" width="67.0038" height="13.0803" rx="6.5402" ry="6.5402" style="fill: #474747"/>
    <path d="M286.7639,283.7837H225.82a6.54,6.54,0,0,1-6.043-4.04,6.5219,6.5219,0,0,0-.4971,2.5h0a6.54,6.54,0,0,0,6.54,6.54h60.9438a6.54,6.54,0,0,0,6.5405-6.54h0a6.5131,6.5131,0,0,0-.4976-2.5A6.54,6.54,0,0,1,286.7639,283.7837Z" style="fill: #3f3f3f"/>
    <path d="M286.7639,317.061H232.8406a6.5407,6.5407,0,0,1-6.043-4.04,6.5394,6.5394,0,0,0,6.043,9.04h53.9233a6.5384,6.5384,0,0,0,6.043-9.04A6.54,6.54,0,0,1,286.7639,317.061Z" style="fill: #3f3f3f"/>
  </g>
  <g id="_Group_2" data-name="&lt;Group&gt;">
    <line id="_Path_20" data-name="&lt;Path&gt;" x1="140.4832" y1="373.9386" x2="160.6499" y2="349.2401" style="fill: none;stroke: #c9c9c9;stroke-linecap: round;stroke-miterlimit: 10;stroke-width: 5px"/>
    <line id="_Path_21" data-name="&lt;Path&gt;" x1="140.4832" y1="373.9386" x2="144.5788" y2="368.9227" style="fill: none;stroke: #3a3a3a;stroke-linecap: round;stroke-miterlimit: 10;stroke-width: 11px"/>
  </g>
  <g id="_Group_3" data-name="&lt;Group&gt;">
    <line id="_Path_22" data-name="&lt;Path&gt;" x1="257.4069" y1="373.9386" x2="237.2403" y2="349.2401" style="fill: none;stroke: #c9c9c9;stroke-linecap: round;stroke-miterlimit: 10;stroke-width: 5px"/>
    <line id="_Path_23" data-name="&lt;Path&gt;" x1="257.4069" y1="373.9386" x2="253.3114" y2="368.9227" style="fill: none;stroke: #3a3a3a;stroke-linecap: round;stroke-miterlimit: 10;stroke-width: 11px"/>
  </g>
  <g id="_Group_4" data-name="&lt;Group&gt;">
    <path d="M198.7327,375.4977a50.3613,50.3613,0,1,1,50.3613-50.3613A50.4181,50.4181,0,0,1,198.7327,375.4977Z" style="fill: #fff"/>
    <path d="M198.7327,282.2747a42.8617,42.8617,0,1,1-42.8618,42.8617,42.91,42.91,0,0,1,42.8618-42.8617m0-15a57.8617,57.8617,0,1,0,57.8618,57.8617,57.8618,57.8618,0,0,0-57.8618-57.8617Z" style="fill: #515151"/>
  </g>
  <g id="_Group_5" data-name="&lt;Group&gt;">
    <circle id="_Path_24" data-name="&lt;Path&gt;" cx="148.0632" cy="325.3084" r="5.1028" style="fill: #6d6d6d"/>
    <circle id="_Path_25" data-name="&lt;Path&gt;" cx="248.7197" cy="325.3084" r="5.1028" style="fill: #6d6d6d"/>
    <circle id="_Path_26" data-name="&lt;Path&gt;" cx="162.804" cy="360.8959" r="5.1028" transform="translate(-207.5077 220.8238) rotate(-45)" style="fill: #6d6d6d"/>
    <circle id="_Path_27" data-name="&lt;Path&gt;" cx="233.9789" cy="289.721" r="5.1028" transform="translate(-136.3329 250.3054) rotate(-45)" style="fill: #6d6d6d"/>
    <circle id="_Path_28" data-name="&lt;Path&gt;" cx="198.3915" cy="375.6367" r="5.1028" style="fill: #6d6d6d"/>
    <circle id="_Path_29" data-name="&lt;Path&gt;" cx="198.3915" cy="274.9802" r="5.1028" style="fill: #6d6d6d"/>
    <circle id="_Path_30" data-name="&lt;Path&gt;" cx="233.9789" cy="360.8959" r="5.1028" transform="translate(-186.6611 271.152) rotate(-45)" style="fill: #6d6d6d"/>
    <circle id="_Path_31" data-name="&lt;Path&gt;" cx="162.804" cy="289.721" r="5.1028" transform="translate(-157.1795 199.9771) rotate(-45)" style="fill: #6d6d6d"/>
  </g>
  <line id="_Path_32" data-name="&lt;Path&gt;" x1="316.2043" y1="189.2224" x2="316.2043" y2="368.9829" style="fill: none;stroke: #c9c9c9;stroke-linecap: round;stroke-miterlimit: 10;stroke-width: 4.98923342554548px"/>
  <line id="_Path_33" data-name="&lt;Path&gt;" x1="316.2043" y1="280.0774" x2="316.2043" y2="290.9237" style="fill: none;stroke: #ddd;stroke-linecap: round;stroke-miterlimit: 10;stroke-width: 5px"/>
  <line id="_Path_34" data-name="&lt;Path&gt;" x1="316.2043" y1="216.1444" x2="316.2043" y2="233.1547" style="fill: none;stroke: #b7b7b7;stroke-miterlimit: 10;stroke-width: 5px"/>
  <line id="_Path_35" data-name="&lt;Path&gt;" x1="316.2043" y1="242.2567" x2="316.2043" y2="256.9731" style="fill: none;stroke: #b7b7b7;stroke-miterlimit: 10;stroke-width: 5px"/>
  <line id="_Path_36" data-name="&lt;Path&gt;" x1="316.2043" y1="366.475" x2="316.2043" y2="373.4159" style="fill: none;stroke: #474747;stroke-linecap: round;stroke-miterlimit: 10;stroke-width: 11px"/>
  <rect id="_Rectangle_21" data-name="&lt;Rectangle&gt;" x="309.2234" y="193.5516" width="13.9617" height="21.9747" rx="6.2928" ry="6.2928" style="fill: #474747"/>
  <rect id="_Rectangle_22" data-name="&lt;Rectangle&gt;" x="309.2234" y="226.5731" width="13.9617" height="21.9747" rx="6.2928" ry="6.2928" style="fill: #c9c9c9"/>
  <path id="_Path_37" data-name="&lt;Path&gt;" d="M350.9229,220.054H281.4857c-2.1948,0-2.7756-3.5074-.7363-4.4466l11.7847-5.427c13.0186-5.9952,34.3217-5.9952,47.34,0l11.7847,5.427C353.6985,216.5466,353.1177,220.054,350.9229,220.054Z" style="fill: #ffce00"/>
  <circle id="_Path_38" data-name="&lt;Path&gt;" cx="306.2063" cy="212.869" r="2.7708" style="fill: #ffdd50"/>
  <circle id="_Path_39" data-name="&lt;Path&gt;" cx="316.8565" cy="212.4459" r="3.7565" style="fill: #fce68d"/>
  <path id="_Path_40" data-name="&lt;Path&gt;" d="M282.0541,225.3131h68.3a2.2209,2.2209,0,0,1,.7766,4.2514l-11.2567,4.6993c-13.0186,5.4349-34.3217,5.4349-47.34,0l-11.2567-4.6993A2.2209,2.2209,0,0,1,282.0541,225.3131Z" style="fill: #fa0"/>
  <path d="M351.6594,215.6074,339.8743,210.18c-8.1616-3.7586-19.5786-5.1587-30.17-4.2045a53.2831,53.2831,0,0,1,17.17,4.2045l11.7852,5.4271c2.0391.9391,1.458,4.4465-.7363,4.4465h13C353.1175,220.054,353.6985,216.5466,351.6594,215.6074Z" style="fill: #ffbc00"/>
  <path d="M350.3548,225.3131h-13a2.2209,2.2209,0,0,1,.7764,4.2514l-11.2568,4.6993a57.8067,57.8067,0,0,1-17.17,3.8116c10.5913.865,22.0083-.4043,30.17-3.8116l11.2568-4.6993A2.2209,2.2209,0,0,0,350.3548,225.3131Z" style="fill: #ef9900"/>
  <line id="_Path_41" data-name="&lt;Path&gt;" x1="296.0376" y1="368.9829" x2="316.2043" y2="344.2844" style="fill: none;stroke: #c9c9c9;stroke-linecap: round;stroke-miterlimit: 10;stroke-width: 5px"/>
  <line id="_Path_42" data-name="&lt;Path&gt;" x1="292.0376" y1="368.9829" x2="296.1332" y2="363.967" style="fill: none;stroke: #3a3a3a;stroke-linecap: round;stroke-miterlimit: 10;stroke-width: 11px"/>
  <line id="_Path_43" data-name="&lt;Path&gt;" x1="336.371" y1="368.9829" x2="316.2043" y2="344.2844" style="fill: none;stroke: #c9c9c9;stroke-linecap: round;stroke-miterlimit: 10;stroke-width: 5px"/>
  <line id="_Path_44" data-name="&lt;Path&gt;" x1="89.7673" y1="212.8644" x2="89.7673" y2="368.9829" style="fill: none;stroke: #c9c9c9;stroke-linecap: round;stroke-miterlimit: 10;stroke-width: 5px"/>
  <line id="_Path_45" data-name="&lt;Path&gt;" x1="89.8858" y1="207.4444" x2="89.8858" y2="224.4547" style="fill: none;stroke: #b7b7b7;stroke-miterlimit: 10;stroke-width: 5px"/>
  <line id="_Path_46" data-name="&lt;Path&gt;" x1="89.7674" y1="277.9682" x2="89.7674" y2="296.306" style="fill: none;stroke: #b7b7b7;stroke-miterlimit: 10;stroke-width: 5px"/>
  <rect x="87.1496" y="177.8061" width="5.2354" height="10.044" rx="2.6177" ry="2.6177" style="fill: #b7b7b7"/>
  <rect x="79.6496" y="181.8761" width="20.2354" height="4.2509" rx="2.1255" ry="2.1255" style="fill: #c9c9c9"/>
  <rect x="365.8772" y="139.1886" width="5.2354" height="10.044" rx="2.6177" ry="2.6177" style="fill: #b7b7b7"/>
  <rect x="358.3772" y="143.2586" width="20.2354" height="4.2509" rx="2.1255" ry="2.1255" style="fill: #c9c9c9"/>
  <rect id="_Rectangle_23" data-name="&lt;Rectangle&gt;" x="82.7865" y="185.0015" width="13.9617" height="21.9747" rx="6.2928" ry="6.2928" style="fill: #474747"/>
  <path id="_Path_47" data-name="&lt;Path&gt;" d="M145.4634,216.7286,34.3771,217.8851a3.2612,3.2612,0,0,1-1.3119-6.2791l18.697-7.7406c20.82-8.62,55.0328-8.9757,76.028-.7915l18.8541,7.35A3.2612,3.2612,0,0,1,145.4634,216.7286Z" style="fill: #ffce00"/>
  <path d="M146.6443,210.4236l-18.854-7.35c-12.6455-4.9293-30.084-6.7557-46.5049-5.5493,9.8569.73,19.248,2.5715,26.8872,5.5493l18.854,7.35a3.2612,3.2612,0,0,1-1.1812,6.3051l-92.665.9647a3.5,3.5,0,0,0,1.1968.1918l111.0859-1.1564A3.2612,3.2612,0,0,0,146.6443,210.4236Z" style="fill: #ffbc00"/>
  <line id="_Path_48" data-name="&lt;Path&gt;" x1="69.6007" y1="368.9829" x2="89.7673" y2="344.2844" style="fill: none;stroke: #c9c9c9;stroke-linecap: round;stroke-miterlimit: 10;stroke-width: 5px"/>
  <line id="_Path_49" data-name="&lt;Path&gt;" x1="109.934" y1="368.9829" x2="89.7673" y2="344.2844" style="fill: none;stroke: #c9c9c9;stroke-linecap: round;stroke-miterlimit: 10;stroke-width: 5px"/>
  <line id="_Path_50" data-name="&lt;Path&gt;" x1="376.2237" y1="220.3049" x2="376.2237" y2="367.4784" style="fill: none;stroke: #c9c9c9;stroke-linecap: round;stroke-miterlimit: 10;stroke-width: 5.23275235659099px"/>
  <line id="_Path_51" data-name="&lt;Path&gt;" x1="376.2237" y1="270.1552" x2="376.2237" y2="281.0015" style="fill: none;stroke: #ddd;stroke-linecap: round;stroke-miterlimit: 10;stroke-width: 5px"/>
  <line id="_Path_52" data-name="&lt;Path&gt;" x1="368.4949" y1="146.9338" x2="368.4949" y2="201.869" style="fill: none;stroke: #c9c9c9;stroke-linecap: round;stroke-miterlimit: 10;stroke-width: 5px"/>
  <line id="_Path_53" data-name="&lt;Path&gt;" x1="368.4949" y1="169.2122" x2="368.4949" y2="186.2224" style="fill: none;stroke: #b7b7b7;stroke-miterlimit: 10;stroke-width: 5px"/>
  <line id="_Path_54" data-name="&lt;Path&gt;" x1="376.2237" y1="289.2951" x2="376.2237" y2="306.3053" style="fill: none;stroke: #b7b7b7;stroke-miterlimit: 10;stroke-width: 5px"/>
  <rect id="_Rectangle_24" data-name="&lt;Rectangle&gt;" x="361.514" y="146.6937" width="13.9617" height="21.9747" rx="6.2928" ry="6.2928" style="fill: #474747"/>
  <path id="_Path_55" data-name="&lt;Path&gt;" d="M429.8367,178.7414H307.1531c-1.7722,0-2.1525-3.2226-.4606-3.9038l24.287-9.78c20.6335-8.3088,54.3974-8.3088,75.0309,0l24.287,9.78C431.9892,175.5189,431.6089,178.7414,429.8367,178.7414Z" style="fill: #ffce00"/>
  <path d="M430.2971,174.8376l-24.2866-9.78c-12.7568-5.1369-30.5308-7.0937-47.1191-5.8789,10.2427.75,20.0347,2.707,27.9116,5.8789l24.2871,9.78c1.6914.6813,1.3115,3.9038-.4609,3.9038h19.2075C431.6087,178.7414,431.989,175.5189,430.2971,174.8376Z" style="fill: #ffbc00"/>
  <line id="_Path_56" data-name="&lt;Path&gt;" x1="356.057" y1="368.9829" x2="376.2237" y2="344.2844" style="fill: none;stroke: #c9c9c9;stroke-linecap: round;stroke-miterlimit: 10;stroke-width: 5px"/>
  <line id="_Path_57" data-name="&lt;Path&gt;" x1="396.3903" y1="368.9829" x2="376.2237" y2="344.2844" style="fill: none;stroke: #c9c9c9;stroke-linecap: round;stroke-miterlimit: 10;stroke-width: 5px"/>
  <line id="_Path_58" data-name="&lt;Path&gt;" x1="336.371" y1="368.9829" x2="332.2754" y2="363.967" style="fill: none;stroke: #3a3a3a;stroke-linecap: round;stroke-miterlimit: 10;stroke-width: 11px"/>
  <line id="_Path_59" data-name="&lt;Path&gt;" x1="376.2237" y1="366.475" x2="376.2237" y2="373.4159" style="fill: none;stroke: #474747;stroke-linecap: round;stroke-miterlimit: 10;stroke-width: 11px"/>
  <line id="_Path_60" data-name="&lt;Path&gt;" x1="356.057" y1="368.9829" x2="360.1526" y2="363.967" style="fill: none;stroke: #3a3a3a;stroke-linecap: round;stroke-miterlimit: 10;stroke-width: 11px"/>
  <line id="_Path_61" data-name="&lt;Path&gt;" x1="396.3903" y1="368.9829" x2="392.2948" y2="363.967" style="fill: none;stroke: #3a3a3a;stroke-linecap: round;stroke-miterlimit: 10;stroke-width: 11px"/>
  <line id="_Path_62" data-name="&lt;Path&gt;" x1="89.8858" y1="366.475" x2="89.8858" y2="373.4159" style="fill: none;stroke: #474747;stroke-linecap: round;stroke-miterlimit: 10;stroke-width: 11px"/>
  <line id="_Path_63" data-name="&lt;Path&gt;" x1="69.7192" y1="368.9829" x2="73.8147" y2="363.967" style="fill: none;stroke: #3a3a3a;stroke-linecap: round;stroke-miterlimit: 10;stroke-width: 11px"/>
  <line id="_Path_64" data-name="&lt;Path&gt;" x1="110.0525" y1="368.9829" x2="105.9569" y2="363.967" style="fill: none;stroke: #3a3a3a;stroke-linecap: round;stroke-miterlimit: 10;stroke-width: 11px"/>
  <rect id="_Rectangle_25" data-name="&lt;Rectangle&gt;" x="369.2428" y="276.6361" width="13.9617" height="21.9747" rx="6.2928" ry="6.2928" style="fill: #c9c9c9"/>
  <line id="_Path_65" data-name="&lt;Path&gt;" x1="89.7673" y1="258.1552" x2="89.7673" y2="269.0015" style="fill: none;stroke: #ddd;stroke-linecap: round;stroke-miterlimit: 10;stroke-width: 5px"/>
  <rect id="_Rectangle_26" data-name="&lt;Rectangle&gt;" x="82.7865" y="266.6361" width="13.9617" height="21.9747" rx="6.2928" ry="6.2928" style="fill: #c9c9c9"/>
  <circle id="_Path_66" data-name="&lt;Path&gt;" cx="82.7865" cy="277.6235" r="4.4678" style="fill: #b7b7b7"/>
  <circle id="_Path_67" data-name="&lt;Path&gt;" cx="369.2428" cy="287.6235" r="4.4678" style="fill: #b7b7b7"/>
  <line id="_Path_68" data-name="&lt;Path&gt;" x1="376.2237" y1="215.2951" x2="376.2237" y2="232.3053" style="fill: none;stroke: #b7b7b7;stroke-miterlimit: 10;stroke-width: 5px"/>
  <rect id="_Rectangle_27" data-name="&lt;Rectangle&gt;" x="369.2428" y="202.6361" width="13.9617" height="21.9747" rx="6.2928" ry="6.2928" style="fill: #c9c9c9"/>
  <circle id="_Path_69" data-name="&lt;Path&gt;" cx="369.2428" cy="213.6235" r="4.4678" style="fill: #b7b7b7"/>
  <line id="_Path_70" data-name="&lt;Path&gt;" x1="316.2045" y1="298.4478" x2="316.2045" y2="315.4581" style="fill: none;stroke: #b7b7b7;stroke-miterlimit: 10;stroke-width: 5px"/>
  <rect id="_Rectangle_28" data-name="&lt;Rectangle&gt;" x="309.2236" y="285.7889" width="13.9617" height="21.9747" rx="6.2928" ry="6.2928" transform="translate(632.4089 593.5525) rotate(180)" style="fill: #c9c9c9"/>
  <circle id="_Path_71" data-name="&lt;Path&gt;" cx="323.1853" cy="296.7762" r="4.4678" style="fill: #b7b7b7"/>
  <circle id="_Path_72" data-name="&lt;Path&gt;" cx="66.19" cy="207.8516" r="3.4107" style="fill: #ffdd50"/>
  <circle id="_Path_73" data-name="&lt;Path&gt;" cx="78.5947" cy="206.4823" r="4.5782" style="fill: #fce68d"/>
  <circle id="_Path_74" data-name="&lt;Path&gt;" cx="352.6982" cy="168.7829" r="3.4107" style="fill: #ffdd50"/>
  <circle id="_Path_75" data-name="&lt;Path&gt;" cx="366.8601" cy="167.7829" r="4.9488" style="fill: #fce68d"/>
  <g id="_Group_6" data-name="&lt;Group&gt;">
    <circle cx="197.7327" cy="325.1364" r="35.6471" style="fill: #d2d3d1"/>
  </g>
  <g id="_Group_7" data-name="&lt;Group&gt;">
    <circle cx="197.7327" cy="325.1364" r="25.782" style="fill: #aeafae"/>
  </g>
  <line x1="368.538" y1="202.0638" x2="419.084" y2="252.6097" style="fill: none;stroke: #c9c9c9;stroke-linecap: round;stroke-miterlimit: 10;stroke-width: 5px"/>
  <line x1="413.2558" y1="246.7816" x2="428.2756" y2="261.8013" style="fill: none;stroke: #474747;stroke-linecap: round;stroke-miterlimit: 10;stroke-width: 11px"/>
  <g>
    <path d="M211.7683,326.328a4.3845,4.3845,0,0,1-.5269-2.483q.0366-.48.0371-.97a12.9235,12.9235,0,0,0-13.9224-12.8842,12.6933,12.6933,0,0,0-4.2837,1.1053l-.2739,3.3238,3.1616.9013-.7031,4.3592-1.1172-3.1616-2.6963-.479-.6719-3.6113a12.901,12.901,0,0,0-5.2944,11.4938,4.7813,4.7813,0,0,1-.5654,2.6017,7.2014,7.2014,0,0,0,3.6958,10.01,1.0347,1.0347,0,0,1,.6333,1.2177l-.0063.0253a1.1639,1.1639,0,0,0,1.1255,1.46h15.9922a1.1644,1.1644,0,0,0,1.1265-1.4605,1.0341,1.0341,0,0,1,.6416-1.2208,7.2082,7.2082,0,0,0,3.6479-10.2277Z" style="fill: #fff"/>
    <path d="M211.7683,326.328a4.3845,4.3845,0,0,1-.5269-2.483q.0366-.48.0371-.97a12.9235,12.9235,0,0,0-13.9224-12.8842,12.4444,12.4444,0,0,0-2.4971.4581,12.9165,12.9165,0,0,1,9.4194,12.4261q0,.49-.0371.97a4.3845,4.3845,0,0,0,.5269,2.483,7.2082,7.2082,0,0,1-3.6479,10.2277,1.0341,1.0341,0,0,0-.6416,1.2208,1.1644,1.1644,0,0,1-1.1265,1.4605h7a1.1644,1.1644,0,0,0,1.1265-1.4605,1.0341,1.0341,0,0,1,.6416-1.2208,7.2082,7.2082,0,0,0,3.6479-10.2277Z" style="fill: #e5e3e3"/>
    <path d="M190.9556,333.6647h-.2a3.1256,3.1256,0,0,1-3.1256-3.1256h0a4.5012,4.5012,0,0,1,4.5012-4.5012h0a3.1256,3.1256,0,0,1,3.1256,3.1256v.2A4.3016,4.3016,0,0,1,190.9556,333.6647Z" style="fill: #5e5e5e"/>
    <path d="M205.6388,333.6647h.2a3.1256,3.1256,0,0,0,3.1256-3.1256h0a4.5012,4.5012,0,0,0-4.5012-4.5012h0a3.1256,3.1256,0,0,0-3.1256,3.1256v.2A4.3016,4.3016,0,0,0,205.6388,333.6647Z" style="fill: #5e5e5e"/>
    <path d="M195.9821,336.2489h.98a.7737.7737,0,0,0,.6717-.39l.2949-.516a.4366.4366,0,0,1,.7548-.0057l.3148.532a.7737.7737,0,0,0,.6658.38h1.0529a.4367.4367,0,0,0,.3758-.6591l-2.4094-4.0716a.4366.4366,0,0,0-.7548.0058l-2.3262,4.0716A.4366.4366,0,0,0,195.9821,336.2489Z" style="fill: #5e5e5e"/>
  </g>
</svg>
