<svg id="9b38223b-0348-4e65-b77f-5293c19aca4f" data-name="Layer 1" xmlns="http://www.w3.org/2000/svg" xmlns:xlink="http://www.w3.org/1999/xlink" viewBox="0 0 528.148 420">
  <defs>
    <linearGradient id="acdc6cd5-755e-44ad-9f30-c4cd114da0b2" x1="286.91549" y1="174.18907" x2="286.91549" y2="161.35072" gradientUnits="userSpaceOnUse">
      <stop offset="0" stop-color="#3a3a3a" stop-opacity="0"/>
      <stop offset="0.24709" stop-color="#3a3a3a" stop-opacity="0.14343"/>
      <stop offset="0.63647" stop-color="#3a3a3a" stop-opacity="0.53387"/>
      <stop offset="1" stop-color="#3a3a3a"/>
    </linearGradient>
    <linearGradient id="12f270fe-678c-4840-af1c-37fda13b568a" x1="240.28076" y1="174.18907" x2="240.28076" y2="161.35072" xlink:href="#acdc6cd5-755e-44ad-9f30-c4cd114da0b2"/>
  </defs>
  <rect id="9588a429-ef02-4cf7-b003-ff852a936f42" data-name="&lt;Rectangle&gt;" x="104.7854" y="326.68083" width="29.85598" height="7.92031" rx="3.96015" ry="3.96015" opacity="0.08"/>
  <rect id="12c55d84-7d3f-4802-b19c-cae30e7f0a49" data-name="&lt;Rectangle&gt;" x="139.90368" y="326.68083" width="29.85598" height="7.92031" rx="3.96015" ry="3.96015" opacity="0.08"/>
  <rect id="7551edce-e126-4502-a82a-37491e495b8d" data-name="&lt;Rectangle&gt;" x="121.45257" y="338.62079" width="29.85598" height="7.92031" rx="3.96015" ry="3.96015" opacity="0.08"/>
  <rect id="77d2572c-1c63-41e7-80d7-695565fdd643" data-name="&lt;Rectangle&gt;" x="390.80995" y="255.5354" width="29.85598" height="7.92031" rx="3.96015" ry="3.96015" opacity="0.08"/>
  <rect id="a10b6fcb-5b4f-4ffc-899b-88fbb4142c6c" data-name="&lt;Rectangle&gt;" x="372.35884" y="267.47536" width="29.85598" height="7.92031" rx="3.96015" ry="3.96015" opacity="0.08"/>
  <line id="44a45108-8780-4a7c-919e-39a9768316d2" data-name="&lt;Path&gt;" x1="173.03412" y1="259.25821" x2="159.83538" y2="207.30769" fill="none" stroke="#d3987a" stroke-linecap="round" stroke-miterlimit="10" stroke-width="5"/>
  <g>
    <path d="M289.82,267.88013H238.21652a5.25941,5.25941,0,0,1-5.46344-4.75027l-2.10535-23.75614H297.3888l-2.10535,23.75614A5.25941,5.25941,0,0,1,289.82,267.88013Z" fill="#3a3a3a"/>
    <polygon points="290.9 291.374 237.137 291.374 234.869 240.827 293.168 240.827 290.9 291.374" fill="#3a3a3a"/>
    <path d="M274.3866,200.74873,264.01825,201.759l-10.36835-1.01025-17.90121,3.81849a11.432,11.432,0,0,0-8.99943,11.21179v27.87638a8.47311,8.47311,0,0,0,8.71082,8.21334h23.9834a4.67383,4.67383,0,0,0,3.56975-1.61563,1.33787,1.33787,0,0,1,2.01005,0,4.67386,4.67386,0,0,0,3.56974,1.61563h23.9834a8.47311,8.47311,0,0,0,8.71082-8.21334V215.779a11.432,11.432,0,0,0-8.99943-11.21179Z" fill="#3a3a3a"/>
    <path d="M253.35385,195.2724h21.32882a0,0,0,0,1,0,0v8.13433a8.467,8.467,0,0,1-8.467,8.467h-4.39483a8.467,8.467,0,0,1-8.467-8.467V195.2724A0,0,0,0,1,253.35385,195.2724Z" fill="#f9bfa2"/>
    <path d="M205.36625,240.998l-1.84854,6.77453a4.89861,4.89861,0,0,1-3.68123,3.49642l-21.32033,4.65349,2.29492,14.65466,35.43494-2.86976a5.383,5.383,0,0,0,4.75854-3.94824l4.81336-17.63824Z" fill="#feccae"/>
    <path d="M160.23872,257.63064l4.27194,14.004a3.99605,3.99605,0,0,0,4.81771,2.70409l15.62289-4.01887-.29712-15.7803-3.73743-3.20394a5.6039,5.6039,0,0,0-3.65148-1.34934l-10.12943.00764a3.996,3.996,0,0,0-2.50093.88178l-3.07793,2.47472A3.99605,3.99605,0,0,0,160.23872,257.63064Z" fill="#feccae"/>
    <path d="M245.36753,350.39326h-2.70483c-5.62095,0-10.17763-4.92871-10.17763-11.00858V309.47139a24.80037,24.80037,0,0,1,2.76132-11.41374l.615-1.18392h25.38828v36.34073C261.24964,342.702,254.139,350.39326,245.36753,350.39326Z" fill="#424242"/>
    <path d="M282.28468,350.39324h2.73088c5.67509,0,10.27566-4.92871,10.27566-11.00858V309.47137a24.60933,24.60933,0,0,0-2.78792-11.41374l-.62088-1.18392H266.2496v36.34073C266.2496,342.702,273.42875,350.39324,282.28468,350.39324Z" fill="#424242"/>
    <rect x="234.96873" y="289.40498" width="58.19919" height="7.46875" rx="1.25049" ry="1.25049" fill="#424242"/>
    <polyline points="317.155 214.557 294.241 220.043 300.899 245.316" fill="#3a3a3a"/>
    <polygon points="228.364 246.759 205.366 240.998 212.292 215.797 235.29 221.557 228.364 246.759" fill="#3a3a3a"/>
    <path d="M209.04251,228.49661l23.5285,5.89356,5.89356-23.5285-12.21335-3.197a18.20288,18.20288,0,0,0-8.12312.21074,12.78579,12.78579,0,0,0-8.13838,10.88141Z" fill="#3a3a3a"/>
    <path d="M320.26762,227.29167l-23.58891,5.64692-5.64692-23.58891,12.24615-3.06895a18.20288,18.20288,0,0,1,8.12047.29577,12.78579,12.78579,0,0,1,8.024,10.966Z" fill="#3a3a3a"/>
    <rect x="256.60502" y="296.87371" width="14.2263" height="22.94436" fill="#424242"/>
    <path id="5f1e2bd5-5af2-4de4-8728-5e32afc8b98a" data-name="&lt;Path&gt;" d="M263.64614,201.89006h-.09059c-8.20767,0-13.51142-4.87019-18.18587-10.88519-3.36187-4.326-7.36374-8.76143-7.36374-14.66441V157.05111a25.5496,25.5496,0,0,1,25.5496-25.5496h.09059a25.5496,25.5496,0,0,1,25.5496,25.5496v19.28935c0,5.903-4.00186,10.3384-7.36374,14.66441C277.15756,197.01988,271.85382,201.89006,263.64614,201.89006Z" fill="#feccae"/>
    <ellipse id="cc0700c2-601f-42d2-a6b9-07b27f35489b" data-name="&lt;Path&gt;" cx="278.90322" cy="172.65494" rx="1.2323" ry="2.91854" transform="translate(27.68423 383.57139) rotate(-71.77545)" fill="#f9bfa2"/>
    <ellipse id="b4a5e170-11d1-4e94-8364-34f5d66b9a38" data-name="&lt;Path&gt;" cx="247.57121" cy="172.65494" rx="2.91854" ry="1.2323" transform="translate(-41.57781 86.08662) rotate(-18.22455)" fill="#f9bfa2"/>
    <path id="3fcb661a-3d9e-4576-83a6-bf6b304a1d99" data-name="&lt;Path&gt;" d="M266.51949,192.18575H260.6824c-5.33316,0-11.83737-4.63818-13.27951-10.99623-.4935-2.17575-.11179-4.76437,2.44211-4.37593l9.53742,1.37032a30.4601,30.4601,0,0,0,8.763-.01439l9.222-1.35593c2.16377-.38844,2.93049,2.0169,2.49486,4.08653C278.4928,187.40634,271.93324,192.18575,266.51949,192.18575Z" fill="#fff"/>
    <path d="M263.52,175.67018h0a2.42591,2.42591,0,0,1-2.31012-2.40527l-.52468-9.952a2.45894,2.45894,0,0,1,2.31013-2.70189h1.04936a2.45894,2.45894,0,0,1,2.31013,2.70189l-.52468,9.952A2.42591,2.42591,0,0,1,263.52,175.67018Z" fill="#f9bfa2"/>
    <path d="M263.91381,171.8387l-3.51689-.48381a1.91516,1.91516,0,0,0-2.12351,1.65985h0a1.88568,1.88568,0,0,0,1.5718,2.1682l3.51689.48381a1.91516,1.91516,0,0,0,2.12351-1.65985h0A1.88568,1.88568,0,0,0,263.91381,171.8387Z" fill="#f9bfa2"/>
    <path d="M291.48,163.82256h-2.28429v10.02272h1.3027c1.96,0,3.64726-1.78327,4.03081-4.26006l.121-.78169C295.0494,166.22628,293.51949,163.82256,291.48,163.82256Z" fill="#f9bfa2"/>
    <path d="M235.71621,163.82256h2.28429v10.02272h-1.3027c-1.96,0-3.64726-1.78327-4.03081-4.26006l-.121-.78169C232.14685,166.22628,233.67676,163.82256,235.71621,163.82256Z" fill="#f9bfa2"/>
    <path id="68cdfb26-23da-4aed-8ef6-672e419acde2" data-name="&lt;Path&gt;" d="M269.814,185.2272H257.22606a.74835.74835,0,1,1,0-1.4967H269.814a.74835.74835,0,1,1,0,1.4967Z" fill="#ededed"/>
    <rect x="261.10943" y="195.2724" width="5.46794" height="2" rx="0.79577" ry="0.79577" fill="#f9bfa2"/>
    <g>
      <path id="344cd513-544d-43e5-afef-a48b06556e5d" data-name="&lt;Path&gt;" d="M270.95907,121.71578H256.23722c-10.07186,0-18.23672,10.57319-18.23672,21.14875v18.48619H242.561l.716-12.80893a2.67658,2.67658,0,0,1,3.72019-2.56669l10.62173,4.82263a14.40787,14.40787,0,0,0,11.95841,0L280.199,145.9751a2.67658,2.67658,0,0,1,3.72019,2.56669l.716,12.80892h4.56052V140.86448C289.19575,130.28895,281.03091,121.71578,270.95907,121.71578Z" fill="#3a3a3a"/>
      <path d="M264.98024,152.11479H263.0563a15.06133,15.06133,0,0,1-13.32465-8.04012l-.7836-1.48709a1.25389,1.25389,0,0,1,1.28493-1.82606l5.72559.80991a3.146,3.146,0,0,0,2.60543-.83226l3.5526-3.36912a2.76358,2.76358,0,0,1,3.80336,0l3.5526,3.36912a3.146,3.146,0,0,0,2.60543.83226l5.72559-.80991a1.25389,1.25389,0,0,1,1.28493,1.82606l-.7836,1.48709A15.06133,15.06133,0,0,1,264.98024,152.11479Z" fill="#333"/>
      <polygon points="289.196 174.189 285.379 174.189 284.635 161.351 289.196 161.351 289.196 174.189" fill="url(#acdc6cd5-755e-44ad-9f30-c4cd114da0b2)"/>
      <polygon points="238 174.189 241.817 174.189 242.561 161.351 238 161.351 238 174.189" fill="url(#12f270fe-678c-4840-af1c-37fda13b568a)"/>
    </g>
    <ellipse id="e7eadf03-02c9-4865-a66c-f370ab72aa5e" data-name="&lt;Path&gt;" cx="274.08494" cy="164.11161" rx="2.89662" ry="2.55218" fill="#5b5b5b"/>
    <ellipse id="3216ef0b-ed9a-4af3-9f97-dd9653d3801d" data-name="&lt;Path&gt;" cx="252.75612" cy="164.11161" rx="2.89662" ry="2.55218" fill="#5b5b5b"/>
    <rect x="268.96472" y="160.58046" width="10.24045" height="2.1875" rx="1.01041" ry="1.01041" transform="translate(-21.24162 43.16967) rotate(-8.67112)" fill="#5b5b5b"/>
    <rect x="247.63589" y="160.58046" width="10.24045" height="2.1875" rx="1.01041" ry="1.01041" transform="matrix(-0.98857, -0.15076, 0.15076, -0.98857, 478.24882, 359.60663)" fill="#5b5b5b"/>
    <path d="M325.92241,247.75211h-.00049l-2.10937-7.9212-20.50391,4.90845,4.3073,16.17536a1.65847,1.65847,0,0,1-.57559,1.729l-6.46169,5.09623,7.27832,13.503,19.34457-8.37349a6.57062,6.57062,0,0,0,3.70293-7.8516Z" fill="#feccae"/>
    <polyline points="300.899 245.316 324.265 241.546 317.155 214.557" fill="#3a3a3a"/>
    <line id="467edd75-5881-4087-972e-3f8a65a326c9" data-name="&lt;Path&gt;" x1="294.2508" y1="278.49717" x2="261.23362" y2="238.9417" fill="none" stroke="#d3987a" stroke-linecap="round" stroke-miterlimit="10" stroke-width="5"/>
    <path d="M281.07126,277.13548l8.68576,11.78637a3.99605,3.99605,0,0,0,5.44275.9481l13.3973-8.98545-5.52787-14.7834-4.59018-1.77873a5.6039,5.6039,0,0,0-3.89238-.05827l-9.5504,3.37569a3.99605,3.99605,0,0,0-2.06537,1.66327l-2.0798,3.35743A3.99605,3.99605,0,0,0,281.07126,277.13548Z" fill="#feccae"/>
  </g>
  <rect id="7fc05b30-c010-4d25-9aea-b2f2d091f1db" data-name="&lt;Rectangle&gt;" x="77.29883" y="381.34277" width="374" height="23.40078" rx="11.70038" ry="11.70038" fill="#686868"/>
  <g>
    <rect id="e82a4c6b-94cf-496e-b375-45e8c413abfd" data-name="&lt;Rectangle&gt;" x="155.96334" y="295.24664" width="52.74711" height="70.9994" fill="#fff"/>
    <line id="9998cefb-b838-450e-a537-5a5b58971041" data-name="&lt;Path&gt;" x1="166.17372" y1="295.58827" x2="166.17372" y2="362.13972" fill="none" stroke="#bcbcbb" stroke-linecap="round" stroke-miterlimit="10" stroke-width="3"/>
    <line id="903a42f5-d151-4547-a1bd-6f1698f93ca4" data-name="&lt;Path&gt;" x1="178.51595" y1="295.58827" x2="178.51595" y2="362.13972" fill="none" stroke="#bcbcbb" stroke-linecap="round" stroke-miterlimit="10" stroke-width="3"/>
    <rect id="f05dcaae-7930-4d9e-83ee-e299ced8e0b5" data-name="&lt;Rectangle&gt;" x="162.53798" y="308.34584" width="7.27148" height="9.96132" rx="3.63574" ry="3.63574" fill="#c9c9c9"/>
    <rect id="41fde2f2-230d-466c-9b3c-43c4b8090ad5" data-name="&lt;Rectangle&gt;" x="162.53798" y="336.61097" width="7.27148" height="9.96132" rx="3.63574" ry="3.63574" fill="#c9c9c9"/>
    <rect id="e6ffef5b-69fa-4ad7-9c15-30d40f8be3ea" data-name="&lt;Rectangle&gt;" x="150.48662" y="290.14767" width="64.6465" height="13.08032" rx="6.54015" ry="6.54015" fill="#474747"/>
    <rect id="2468c85b-0609-4d69-a16d-846512202d7e" data-name="&lt;Rectangle&gt;" x="150.48662" y="353.16572" width="64.6465" height="13.08032" rx="6.54015" ry="6.54015" fill="#474747"/>
  </g>
  <g id="1c05f162-7eee-437a-8b8b-b0dc0eb0d59c" data-name="&lt;Group&gt;">
    <line id="d3bbfdbf-d782-49c5-9711-d7b7e1783230" data-name="&lt;Path&gt;" x1="293.32923" y1="332.74634" x2="293.32923" y2="357.72873" fill="none" stroke="#c9c9c9" stroke-linecap="round" stroke-miterlimit="10" stroke-width="5"/>
    <line id="e596216b-9617-4acf-8110-6196902e4960" data-name="&lt;Path&gt;" x1="313.4959" y1="382.42725" x2="293.32923" y2="357.72873" fill="none" stroke="#c9c9c9" stroke-linecap="round" stroke-miterlimit="10" stroke-width="5"/>
    <line id="7a7b20f4-6f49-4fb7-a272-ea9de862489d" data-name="&lt;Path&gt;" x1="313.4959" y1="382.42725" x2="309.40033" y2="377.41132" fill="none" stroke="#3a3a3a" stroke-linecap="round" stroke-miterlimit="10" stroke-width="11"/>
  </g>
  <g>
    <rect id="90d10b8a-256f-48fd-8fdc-0cddd410fe31" data-name="&lt;Rectangle&gt;" x="266.27796" y="297.24664" width="55.06709" height="29.62651" fill="#fff"/>
    <line id="53cdbd6e-47f6-4eb3-aec1-dec4c6184907" data-name="&lt;Path&gt;" x1="310.87828" y1="296.789" x2="310.87828" y2="327.864" fill="none" stroke="#bcbcbb" stroke-linecap="round" stroke-miterlimit="10" stroke-width="3"/>
    <line id="871db4e9-c4b8-48db-92fe-be2489e21928" data-name="&lt;Path&gt;" x1="296.41942" y1="296.789" x2="296.41942" y2="327.864" fill="none" stroke="#bcbcbb" stroke-linecap="round" stroke-miterlimit="10" stroke-width="3"/>
    <rect id="d0c84198-10ed-4320-ad28-9916a0fe5e51" data-name="&lt;Rectangle&gt;" x="307.24254" y="307.34584" width="7.27148" height="9.96132" rx="3.63574" ry="3.63574" fill="#c9c9c9"/>
    <rect id="d5238290-37c8-45f4-babd-57cfbc71cee8" data-name="&lt;Rectangle&gt;" x="292.78368" y="307.34584" width="7.27148" height="9.96132" rx="3.63574" ry="3.63574" fill="#c9c9c9"/>
    <line id="eaaa253b-4c22-43bd-9ecd-5257b73f0784" data-name="&lt;Path&gt;" x1="282.50069" y1="296.789" x2="282.50069" y2="327.864" fill="none" stroke="#bcbcbb" stroke-linecap="round" stroke-miterlimit="10" stroke-width="3"/>
    <rect id="32e13a1f-3879-4615-8ba0-873afa63c23d" data-name="&lt;Rectangle&gt;" x="278.86496" y="307.34584" width="7.27148" height="9.96132" rx="3.63574" ry="3.63574" fill="#c9c9c9"/>
    <rect id="af313fe6-a95b-41c1-a28a-c121906ed1d1" data-name="&lt;Rectangle&gt;" x="253.35385" y="289.14767" width="74.02443" height="13.08032" rx="6.54015" ry="6.54015" fill="#474747"/>
    <rect id="99399c7f-90ad-47e4-ac02-103cbfb23b54" data-name="&lt;Rectangle&gt;" x="260.37447" y="322.425" width="67.00381" height="13.08032" rx="6.54015" ry="6.54015" fill="#474747"/>
  </g>
  <g id="6a4336ba-d990-427c-a3d5-11b203785573" data-name="&lt;Group&gt;">
    <line id="d260e2be-fe0d-4f23-a096-0cc382d3b858" data-name="&lt;Path&gt;" x1="174.55719" y1="387.38291" x2="194.72386" y2="362.68438" fill="none" stroke="#c9c9c9" stroke-linecap="round" stroke-miterlimit="10" stroke-width="5"/>
    <line id="41738bbe-371f-41bd-9382-8a8fa3e7866e" data-name="&lt;Path&gt;" x1="174.55719" y1="387.38291" x2="178.65276" y2="382.36698" fill="none" stroke="#3a3a3a" stroke-linecap="round" stroke-miterlimit="10" stroke-width="11"/>
  </g>
  <g id="c6e6bdef-345b-443d-b447-09ad9c9e1aaa" data-name="&lt;Group&gt;">
    <line id="d9d5d6ba-9e62-4130-9a8c-de35055c642f" data-name="&lt;Path&gt;" x1="291.48094" y1="387.38291" x2="271.31427" y2="362.68438" fill="none" stroke="#c9c9c9" stroke-linecap="round" stroke-miterlimit="10" stroke-width="5"/>
    <line id="306553c6-9f80-479c-ba91-6e3de6f42855" data-name="&lt;Path&gt;" x1="291.48094" y1="387.38291" x2="287.38537" y2="382.36698" fill="none" stroke="#3a3a3a" stroke-linecap="round" stroke-miterlimit="10" stroke-width="11"/>
  </g>
  <g id="e0ac8320-1eaf-4280-ba75-5fb533848ddd" data-name="&lt;Group&gt;">
    <path d="M232.80668,388.94205A50.36133,50.36133,0,1,1,283.168,338.58072,50.41811,50.41811,0,0,1,232.80668,388.94205Z" fill="#fff"/>
    <path d="M232.80668,295.719a42.86169,42.86169,0,1,1-42.86182,42.86169A42.91021,42.91021,0,0,1,232.80668,295.719m0-15a57.86169,57.86169,0,1,0,57.86182,57.86169A57.86182,57.86182,0,0,0,232.80668,280.719Z" fill="#515151"/>
  </g>
  <g id="a06b8a0a-110b-4f30-8abc-15984ecc3e6c" data-name="&lt;Group&gt;">
    <circle id="ede67d89-d320-437e-8008-7aaba0dd03ab" data-name="&lt;Path&gt;" cx="182.07658" cy="338.75275" r="5.04219" fill="#6d6d6d"/>
    <circle id="4b6abcd5-c50b-45db-934f-d304c3aa6a35" data-name="&lt;Path&gt;" cx="281.53674" cy="338.75275" r="5.04219" fill="#6d6d6d"/>
    <circle id="5d2af785-82e3-47db-af77-8544dbda29d7" data-name="&lt;Path&gt;" cx="196.64218" cy="373.91723" r="5.04219" transform="translate(-206.80424 248.56484) rotate(-45)" fill="#6d6d6d"/>
    <circle id="440d2067-8e7b-4864-9adf-96c45092ce1c" data-name="&lt;Path&gt;" cx="266.97113" cy="303.58827" r="5.04219" transform="translate(-136.47529 277.69604) rotate(-45)" fill="#6d6d6d"/>
    <circle id="46ea921e-7779-48ea-9bc8-06fd65f96be8" data-name="&lt;Path&gt;" cx="231.80665" cy="388.48283" r="5.04219" fill="#6d6d6d"/>
    <circle id="fd4aa461-19e8-4bd5-8971-e537f459078f" data-name="&lt;Path&gt;" cx="231.80665" cy="289.02267" r="5.04219" fill="#6d6d6d"/>
    <circle id="4e567ae4-b20f-4cd3-8f31-f1d62fefad13" data-name="&lt;Path&gt;" cx="266.97113" cy="373.91722" r="5.04219" transform="translate(-186.20537 298.29492) rotate(-45)" fill="#6d6d6d"/>
    <circle id="f914580a-5e88-4446-99c6-fef68527b183" data-name="&lt;Path&gt;" cx="196.64218" cy="303.58827" r="5.04219" transform="translate(-157.07416 227.96596) rotate(-45)" fill="#6d6d6d"/>
  </g>
  <line id="9236a694-7910-4520-9ccc-62450f0244ca" data-name="&lt;Path&gt;" x1="350.27828" y1="202.66675" x2="350.27828" y2="382.42725" fill="none" stroke="#c9c9c9" stroke-linecap="round" stroke-miterlimit="10" stroke-width="4.98923"/>
  <line id="038317c0-ed7e-4273-81c2-b7efa1418d87" data-name="&lt;Path&gt;" x1="350.27828" y1="293.52166" x2="350.27828" y2="304.36799" fill="none" stroke="#ddd" stroke-linecap="round" stroke-miterlimit="10" stroke-width="5"/>
  <line id="815b2957-266a-495d-a6e8-12b414b13191" data-name="&lt;Path&gt;" x1="350.27831" y1="229.58872" x2="350.27831" y2="246.59897" fill="none" stroke="#b7b7b7" stroke-miterlimit="10" stroke-width="5"/>
  <line id="deef67ed-cb23-485b-b13d-2fa3ee0ab125" data-name="&lt;Path&gt;" x1="350.27829" y1="255.70101" x2="350.27829" y2="270.41743" fill="none" stroke="#b7b7b7" stroke-miterlimit="10" stroke-width="5"/>
  <line id="e642c71f-74ad-4d96-ace9-a899b8e37daa" data-name="&lt;Path&gt;" x1="350.27828" y1="379.91929" x2="350.27828" y2="386.86022" fill="none" stroke="#474747" stroke-linecap="round" stroke-miterlimit="10" stroke-width="11"/>
  <rect id="fcffb5a2-d7b2-44e0-80b1-c2c77f5e6147" data-name="&lt;Rectangle&gt;" x="343.29743" y="206.99592" width="13.9617" height="21.97466" rx="6.29277" ry="6.29277" fill="#474747"/>
  <rect id="78e3ff86-0bbc-4ffb-b102-8712dfc78fbe" data-name="&lt;Rectangle&gt;" x="343.29743" y="240.01745" width="13.9617" height="21.97466" rx="6.29277" ry="6.29277" fill="#c9c9c9"/>
  <path id="10e55d47-91a1-4596-b949-ee902766eea9" data-name="&lt;Path&gt;" d="M384.99687,233.4983H315.5597c-2.19484,0-2.77563-3.50743-.7363-4.44657l11.78475-5.427c13.01858-5.99525,34.3217-5.99525,47.34028,0l11.78475,5.427C387.7725,229.99087,387.19171,233.4983,384.99687,233.4983Z" fill="#ffce00"/>
  <circle id="162d4d01-8696-43a8-a11d-a1f36d230ff8" data-name="&lt;Path&gt;" cx="340.28034" cy="226.31327" r="2.7708" fill="#ffdd50"/>
  <circle id="5b36fbcb-d1a2-4426-9b13-ab89bcdce01f" data-name="&lt;Path&gt;" cx="349.50749" cy="226.31327" r="2.7708" fill="#ffdd50"/>
  <path id="5166d072-b245-496b-b740-17f82b98d94c" data-name="&lt;Path&gt;" d="M316.12807,238.75742h68.30046a2.22087,2.22087,0,0,1,.77657,4.25139l-11.25666,4.69931c-13.01858,5.43485-34.3217,5.43485-47.34028,0l-11.25666-4.69931A2.22087,2.22087,0,0,1,316.12807,238.75742Z" fill="#fa0"/>
  <line id="f423245f-1541-4cc7-9de6-e00e40b2efe3" data-name="&lt;Path&gt;" x1="330.11162" y1="382.42725" x2="350.27828" y2="357.72873" fill="none" stroke="#c9c9c9" stroke-linecap="round" stroke-miterlimit="10" stroke-width="5"/>
  <line id="906bc35e-51f7-4e36-800c-4ae7fdf2b9ab" data-name="&lt;Path&gt;" x1="326.11162" y1="382.42725" x2="330.20719" y2="377.41132" fill="none" stroke="#3a3a3a" stroke-linecap="round" stroke-miterlimit="10" stroke-width="11"/>
  <line id="3d716152-d20b-47e6-a0ef-8d0b37c994fe" data-name="&lt;Path&gt;" x1="370.44495" y1="382.42725" x2="350.27828" y2="357.72873" fill="none" stroke="#c9c9c9" stroke-linecap="round" stroke-miterlimit="10" stroke-width="5"/>
  <line id="83060ff7-7153-4195-900d-8763e21d095d" data-name="&lt;Path&gt;" x1="123.84133" y1="226.30873" x2="123.84133" y2="382.42725" fill="none" stroke="#c9c9c9" stroke-linecap="round" stroke-miterlimit="10" stroke-width="5"/>
  <line id="0ec1cf72-4154-42d2-82a1-77c52156ff38" data-name="&lt;Path&gt;" x1="123.95983" y1="220.88872" x2="123.95983" y2="237.89897" fill="none" stroke="#b7b7b7" stroke-miterlimit="10" stroke-width="5"/>
  <line id="6e7b5c19-0eb0-4158-9e66-b7892a17dae7" data-name="&lt;Path&gt;" x1="123.8414" y1="291.41253" x2="123.84141" y2="309.75032" fill="none" stroke="#b7b7b7" stroke-miterlimit="10" stroke-width="5"/>
  <rect x="121.22362" y="191.2504" width="5.2354" height="10.044" rx="2.6177" ry="2.6177" fill="#b7b7b7"/>
  <rect x="113.72362" y="195.32036" width="20.2354" height="4.25093" rx="2.12547" ry="2.12547" fill="#c9c9c9"/>
  <rect x="399.95118" y="152.63294" width="5.2354" height="10.044" rx="2.6177" ry="2.6177" fill="#b7b7b7"/>
  <path d="M394.57665,156.7029h15.98447a2.12546,2.12546,0,0,1,2.12546,2.12546v0a2.12546,2.12546,0,0,1-2.12546,2.12546H394.57665a2.12546,2.12546,0,0,1-2.12546-2.12546v0a2.12547,2.12547,0,0,1,2.12547-2.12547Z" fill="#c9c9c9"/>
  <rect id="199e95da-cf2b-475c-9f07-7dd7ff3f2e4b" data-name="&lt;Rectangle&gt;" x="116.86048" y="198.44582" width="13.9617" height="21.97466" rx="6.29277" ry="6.29277" fill="#474747"/>
  <path id="32f904b1-40f3-4ebb-bbe2-638dd7b5e4e6" data-name="&lt;Path&gt;" d="M179.53735,230.17294,68.45112,231.32939a3.26115,3.26115,0,0,1-1.31193-6.27909l18.697-7.74055c20.82022-8.61956,55.03281-8.97572,76.028-.79148l18.85411,7.34963A3.26115,3.26115,0,0,1,179.53735,230.17294Z" fill="#ffce00"/>
  <line id="392cff6c-dce9-4701-9a18-f950204f4270" data-name="&lt;Path&gt;" x1="103.67466" y1="382.42725" x2="123.84133" y2="357.72873" fill="none" stroke="#c9c9c9" stroke-linecap="round" stroke-miterlimit="10" stroke-width="5"/>
  <line id="c995ee02-068a-48c1-986d-34cb8d3dd23d" data-name="&lt;Path&gt;" x1="144.00799" y1="382.42725" x2="123.84133" y2="357.72873" fill="none" stroke="#c9c9c9" stroke-linecap="round" stroke-miterlimit="10" stroke-width="5"/>
  <line id="52812de4-3a4a-40e2-8a36-0df845f7ba93" data-name="&lt;Path&gt;" x1="410.29768" y1="233.74921" x2="410.29768" y2="380.92272" fill="none" stroke="#c9c9c9" stroke-linecap="round" stroke-miterlimit="10" stroke-width="5.23275"/>
  <line id="86c0f309-dcbf-412f-983d-3d4b11dc4d6b" data-name="&lt;Path&gt;" x1="410.29768" y1="283.5995" x2="410.29768" y2="294.44583" fill="none" stroke="#ddd" stroke-linecap="round" stroke-miterlimit="10" stroke-width="5"/>
  <line id="6fad4d1b-fcc0-4ccb-8512-22a68eb93985" data-name="&lt;Path&gt;" x1="402.56888" y1="160.37806" x2="402.56888" y2="215.31327" fill="none" stroke="#c9c9c9" stroke-linecap="round" stroke-miterlimit="10" stroke-width="5"/>
  <line id="1f89955c-a069-49a8-b88a-b0afdd625997" data-name="&lt;Path&gt;" x1="402.56888" y1="182.65649" x2="402.56888" y2="199.66675" fill="none" stroke="#b7b7b7" stroke-miterlimit="10" stroke-width="5"/>
  <line id="9dd3aff0-5cb5-48de-af5d-c5cf10779011" data-name="&lt;Path&gt;" x1="410.29768" y1="302.73936" x2="410.29768" y2="319.74961" fill="none" stroke="#b7b7b7" stroke-miterlimit="10" stroke-width="5"/>
  <rect id="feaee17e-8fe4-4dce-9aef-d77e931eb2b5" data-name="&lt;Rectangle&gt;" x="395.58803" y="160.13802" width="13.9617" height="21.97466" rx="6.29277" ry="6.29277" fill="#474747"/>
  <path id="d268a758-e76e-41d2-8b5b-aaf91e4dfe89" data-name="&lt;Path&gt;" d="M463.91069,192.18575H341.22707c-1.77224,0-2.15248-3.22255-.46063-3.90383l24.287-9.78c20.63351-8.30879,54.39744-8.30879,75.03094,0l24.287,9.78C466.06318,188.9632,465.68293,192.18575,463.91069,192.18575Z" fill="#ffce00"/>
  <line id="284c7ac1-455e-401b-80b6-de42c354826b" data-name="&lt;Path&gt;" x1="390.13101" y1="382.42725" x2="410.29768" y2="357.72873" fill="none" stroke="#c9c9c9" stroke-linecap="round" stroke-miterlimit="10" stroke-width="5"/>
  <line id="4c28354e-97c4-435b-82cb-3b309e5ed2a3" data-name="&lt;Path&gt;" x1="430.46435" y1="382.42725" x2="410.29768" y2="357.72873" fill="none" stroke="#c9c9c9" stroke-linecap="round" stroke-miterlimit="10" stroke-width="5"/>
  <line id="b0ff24cb-616f-4315-bca2-95948fdc52f8" data-name="&lt;Path&gt;" x1="370.44495" y1="382.42725" x2="366.34938" y2="377.41132" fill="none" stroke="#3a3a3a" stroke-linecap="round" stroke-miterlimit="10" stroke-width="11"/>
  <line id="bdf9b74c-a38c-444a-89aa-0ed700b860f3" data-name="&lt;Path&gt;" x1="410.29768" y1="379.91929" x2="410.29768" y2="386.86022" fill="none" stroke="#474747" stroke-linecap="round" stroke-miterlimit="10" stroke-width="11"/>
  <line id="eb4f628f-8005-4541-8441-57f121b24829" data-name="&lt;Path&gt;" x1="390.13101" y1="382.42725" x2="394.22659" y2="377.41132" fill="none" stroke="#3a3a3a" stroke-linecap="round" stroke-miterlimit="10" stroke-width="11"/>
  <line id="8043037a-2a77-4614-81c6-37c016333fd3" data-name="&lt;Path&gt;" x1="430.46435" y1="382.42725" x2="426.36877" y2="377.41132" fill="none" stroke="#3a3a3a" stroke-linecap="round" stroke-miterlimit="10" stroke-width="11"/>
  <line id="f1f28ce7-f700-4a5d-b80e-c9110b7e800e" data-name="&lt;Path&gt;" x1="123.95983" y1="379.91929" x2="123.95983" y2="386.86022" fill="none" stroke="#474747" stroke-linecap="round" stroke-miterlimit="10" stroke-width="11"/>
  <line id="eded3005-4cc5-4857-858e-a0d9b7574edd" data-name="&lt;Path&gt;" x1="103.79316" y1="382.42725" x2="107.88873" y2="377.41132" fill="none" stroke="#3a3a3a" stroke-linecap="round" stroke-miterlimit="10" stroke-width="11"/>
  <line id="2bff2056-3322-4ce2-8cd2-c3227bc96ce8" data-name="&lt;Path&gt;" x1="144.12649" y1="382.42725" x2="140.03092" y2="377.41132" fill="none" stroke="#3a3a3a" stroke-linecap="round" stroke-miterlimit="10" stroke-width="11"/>
  <rect id="8ec04c9e-4017-4820-88ee-109993a93c8a" data-name="&lt;Rectangle&gt;" x="403.31683" y="290.08045" width="13.9617" height="21.97466" rx="6.29277" ry="6.29277" fill="#c9c9c9"/>
  <line id="e05ff083-fbd9-4a95-b768-40418b7dc3d4" data-name="&lt;Path&gt;" x1="123.84133" y1="271.5995" x2="123.84133" y2="282.44583" fill="none" stroke="#ddd" stroke-linecap="round" stroke-miterlimit="10" stroke-width="5"/>
  <rect id="610403dc-ebf9-43a5-8723-7628e313d062" data-name="&lt;Rectangle&gt;" x="116.86048" y="280.08045" width="13.9617" height="21.97466" rx="6.29277" ry="6.29277" fill="#c9c9c9"/>
  <circle id="5b460e69-a9c0-4bf6-9ca0-6e8eee6e789c" data-name="&lt;Path&gt;" cx="116.86047" cy="291.06778" r="4.46782" fill="#b7b7b7"/>
  <circle id="ca9039a1-516d-4827-b3dd-9ae5de0f5386" data-name="&lt;Path&gt;" cx="403.31682" cy="301.06778" r="4.46782" fill="#b7b7b7"/>
  <line id="36952163-780e-4aab-8b64-2aebd22d9323" data-name="&lt;Path&gt;" x1="410.29768" y1="228.73936" x2="410.29768" y2="245.74961" fill="none" stroke="#b7b7b7" stroke-miterlimit="10" stroke-width="5"/>
  <rect id="926d35fc-f3e0-4483-8b6c-49d2c8e6f3f6" data-name="&lt;Rectangle&gt;" x="403.31683" y="216.08045" width="13.9617" height="21.97466" rx="6.29277" ry="6.29277" fill="#c9c9c9"/>
  <circle id="925c6c56-0b8e-4128-b7d7-498f1577547e" data-name="&lt;Path&gt;" cx="403.31682" cy="227.06778" r="4.46782" fill="#b7b7b7"/>
  <line id="5b7946ff-a356-4cde-9e29-4d35d9ef6ad4" data-name="&lt;Path&gt;" x1="350.27846" y1="311.89211" x2="350.27846" y2="328.90236" fill="none" stroke="#b7b7b7" stroke-miterlimit="10" stroke-width="5"/>
  <rect id="80d1f275-5c5e-42f0-877f-d74470fa1673" data-name="&lt;Rectangle&gt;" x="343.29761" y="299.2332" width="13.9617" height="21.97466" rx="6.29277" ry="6.29277" transform="translate(700.55691 620.44106) rotate(180)" fill="#c9c9c9"/>
  <circle id="7bb11972-d4ca-4b86-87d8-d4b044c71aef" data-name="&lt;Path&gt;" cx="357.25931" cy="310.22053" r="4.46782" fill="#b7b7b7"/>
  <circle id="5cd2d07a-1163-4245-8ac1-7feff4721e87" data-name="&lt;Path&gt;" cx="100.26397" cy="221.29592" r="3.41068" fill="#ffdd50"/>
  <circle id="7137b05b-b492-405f-bf14-315d685735a3" data-name="&lt;Path&gt;" cx="111.29942" cy="221.29592" r="3.41068" fill="#ffdd50"/>
  <circle id="6f6d6653-55fb-49fe-8387-989abd6c61a3" data-name="&lt;Path&gt;" cx="386.77215" cy="182.2272" r="3.41068" fill="#ffdd50"/>
  <circle id="eded9752-9738-4481-979a-9899084048f7" data-name="&lt;Path&gt;" cx="398.13021" cy="182.2272" r="3.41068" fill="#ffdd50"/>
  <g id="7e83c4a0-e71a-46e1-9f24-1b4e6b83b30a" data-name="&lt;Group&gt;">
    <circle cx="231.80665" cy="338.58071" r="30.07117" fill="#f4f4f4"/>
  </g>
  <line x1="402.61202" y1="215.5081" x2="453.15795" y2="266.05403" fill="none" stroke="#c9c9c9" stroke-linecap="round" stroke-miterlimit="10" stroke-width="5"/>
  <line x1="447.32982" y1="260.2259" x2="462.34957" y2="275.24565" fill="none" stroke="#474747" stroke-linecap="round" stroke-miterlimit="10" stroke-width="11"/>
</svg>
