<svg id="b364624d-eeed-46ca-b49d-af484a955f3a" data-name="Layer 1" xmlns="http://www.w3.org/2000/svg" viewBox="0 0 470 470"><title>joaco - exports</title><g id="45d4c713-d58a-4346-9711-6801e5b21824" data-name="&lt;Group&gt;"><line id="80fda97f-7f4a-4bda-a3b6-8f00594b52bf" data-name="&lt;Path&gt;" x1="157.54" y1="250.06" x2="153.09" y2="213.2" fill="none" stroke="#d3987a" stroke-linecap="round" stroke-miterlimit="10" stroke-width="5"/><rect id="2ddf629c-b95a-482f-9c6a-02748a0694cf" data-name="&lt;Rectangle&gt;" x="209.85" y="298.41" width="21.27" height="54.26" fill="#5b5b5b"/><rect id="52a6d93e-38c8-48b4-b402-667a8dea0f17" data-name="&lt;Rectangle&gt;" x="209.85" y="288.24" width="50.3" height="10.17" fill="#3d3d3d"/><rect id="540e8ab6-9e0c-4639-9ae3-fccaa65083f3" data-name="&lt;Rectangle&gt;" x="238.88" y="298.41" width="21.27" height="54.26" fill="#5b5b5b"/><rect id="f1f02046-06ff-4f2a-925c-771fb66ac0f1" data-name="&lt;Rectangle&gt;" x="209.85" y="298.41" width="50.3" height="17.12" fill="#5b5b5b"/><path id="3a48deca-a59a-4070-86e3-0f9617a54c33" data-name="&lt;Rectangle&gt;" d="M247.39,344h18.29a5.6,5.6,0,0,1,5.6,5.6V361a0,0,0,0,1,0,0H247.39a8.51,8.51,0,0,1-8.51-8.51v0a8.51,8.51,0,0,1,8.51-8.51Z" transform="translate(510.16 704.93) rotate(180)" fill="#474747"/><path id="013d3930-b305-440c-bd8a-5cb69ce39467" data-name="&lt;Rectangle&gt;" d="M247.39,344h3a4.13,4.13,0,0,1,4.13,4.13V361a0,0,0,0,1,0,0h-7.08a8.51,8.51,0,0,1-8.51-8.51v0a8.51,8.51,0,0,1,8.51-8.51Z" transform="translate(493.35 704.93) rotate(180)" fill="#3d3d3d"/><path id="08b4f278-6a34-435a-990b-4347bbaedd32" data-name="&lt;Rectangle&gt;" d="M207.23,344h23.89a0,0,0,0,1,0,0v11.42a5.6,5.6,0,0,1-5.6,5.6H207.23a8.51,8.51,0,0,1-8.51-8.51v0A8.51,8.51,0,0,1,207.23,344Z" fill="#474747"/><path id="e6a57288-d97d-4555-b65d-d51144b65d41" data-name="&lt;Rectangle&gt;" d="M224,344h7.08a0,0,0,0,1,0,0v12.89A4.13,4.13,0,0,1,227,361h-3a8.51,8.51,0,0,1-8.51-8.51v0A8.51,8.51,0,0,1,224,344Z" fill="#3d3d3d"/><rect id="ab0fd7ee-33cf-4a4e-807b-e03840599369" data-name="&lt;Rectangle&gt;" x="209.85" y="227.49" width="50.3" height="60.75" fill="#474747"/><rect id="ab169c21-6c24-4869-afe0-a2560f1be05c" data-name="&lt;Rectangle&gt;" x="252.03" y="227.5" width="18.95" height="13.83" fill="#515151"/><g id="a05cdac2-78ec-4982-81ae-d3461778471d" data-name="&lt;Group&gt;"><rect id="376a3720-93bf-4faa-b999-f234f32fc788" data-name="&lt;Rectangle&gt;" x="263.48" y="229.39" width="19.36" height="60.5" rx="9.28" ry="9.28" transform="translate(-25.68 30.03) rotate(-6.01)" fill="#feccae"/><path id="09aa012a-2ab6-4417-9e3f-0897809a44f4" data-name="&lt;Path&gt;" d="M269.79,227.56l-9.63,1,3.15,29.91,19.26-2-2.14-20.28A9.68,9.68,0,0,0,269.79,227.56Z" fill="#515151"/></g><rect id="f2bd8183-f6e4-4748-b9cf-607843c3f1a5" data-name="&lt;Rectangle&gt;" x="201.04" y="227.5" width="16.87" height="13.83" transform="translate(418.96 468.83) rotate(-180)" fill="#515151"/><g id="f697195b-7451-4e92-8869-bcde3bd303cb" data-name="&lt;Group&gt;"><rect id="8bda6b0d-3e23-487f-aebf-4954d4f21be9" data-name="&lt;Rectangle&gt;" x="161.27" y="231.98" width="19.36" height="43.53" rx="9.68" ry="9.68" transform="translate(-134.8 264.87) rotate(-58.11)" fill="#feccae"/><rect id="8a2734c7-5e9e-4936-9be0-fed2efb78d4c" data-name="&lt;Rectangle&gt;" x="181.21" y="225.29" width="19.36" height="48.01" rx="9.68" ry="9.68" transform="translate(165.06 562.23) rotate(-137.84)" fill="#feccae"/><path id="4ba4c7f1-7546-49e5-af5d-de1001f0c6cf" data-name="&lt;Path&gt;" d="M208.36,230l7.18,6.5-20.19,22.3-14.35-13,13.69-15.12A9.68,9.68,0,0,1,208.36,230Z" fill="#515151"/></g><path id="a93463c0-9742-4f7a-bd3c-b5885f18b94f" data-name="&lt;Rectangle&gt;" d="M206.42,227.5h57.15a0,0,0,0,1,0,0v29.22a7.12,7.12,0,0,1-7.12,7.12H213.54a7.12,7.12,0,0,1-7.12-7.12V227.5A0,0,0,0,1,206.42,227.5Z" fill="#474747"/><path id="fd6c8f26-141b-45ba-8e13-149e52ca4f24" data-name="&lt;Path&gt;" d="M218.24,227.5a10.88,10.88,0,0,0-.12,1.55c0,7.44,7.56,13.48,16.88,13.48s16.88-6,16.88-13.48a10.9,10.9,0,0,0-.12-1.55H218.24Z" fill="#515151"/><path id="0a43d5db-aa96-4b7b-895a-781ac10f73ff" data-name="&lt;Rectangle&gt;" d="M223.4,221.64H246.6a0.46,0.46,0,0,1,.46.46v4.07A10.83,10.83,0,0,1,236.23,237h-2.46a10.83,10.83,0,0,1-10.83-10.83V222.1a0.46,0.46,0,0,1,.46-0.46Z" fill="#febd86"/><path id="c1fc5d9f-889f-4e3c-b5cf-dc8237f54f19" data-name="&lt;Rectangle&gt;" d="M227.59,157h14.82a20,20,0,0,1,20,20v23.3A23.76,23.76,0,0,1,238.61,224h-7.21a23.76,23.76,0,0,1-23.76-23.76V177a20,20,0,0,1,20-20Z" fill="#feccae"/><path id="14bc57fb-eee1-4810-a2b3-bdefe1040cdc" data-name="&lt;Path&gt;" d="M242.87,155.44H227.13a19.5,19.5,0,0,0-19.5,19.5v25.31a5.64,5.64,0,0,0,5.64-5.64V180.71a2.85,2.85,0,0,1,4-2.61L228.61,183a16.1,16.1,0,0,0,12.78,0l11.35-4.91a2.85,2.85,0,0,1,4,2.61V194.6a5.64,5.64,0,0,0,5.64,5.64V174.93A19.5,19.5,0,0,0,242.87,155.44Z" fill="#735448"/><path id="3e3d73b3-d66b-409a-8d3b-f2c03e5d33bd" data-name="&lt;Path&gt;" d="M238.08,212.79h-6.16a7.37,7.37,0,0,1-7.07-5.27,1.62,1.62,0,0,1,1.53-2.1h17.25a1.59,1.59,0,0,1,1.56,2A7.37,7.37,0,0,1,238.08,212.79Z" fill="#fff"/><ellipse id="48d0d4d0-2413-48b4-9929-cf17e507f61d" data-name="&lt;Path&gt;" cx="224.55" cy="197.25" rx="1.36" ry="2.48" transform="translate(-26.87 358.84) rotate(-74.03)" fill="#5b5b5b"/><ellipse id="246d881e-e2fc-42f5-8522-6a87568b9502" data-name="&lt;Path&gt;" cx="244.55" cy="197.25" rx="2.48" ry="1.36" transform="translate(-55.92 105.44) rotate(-21.9)" fill="#5b5b5b"/><path id="7e692e12-55fc-4ec0-a1c9-78b4835861c8" data-name="&lt;Path&gt;" d="M239.53,209.47H230.4a0.54,0.54,0,1,1,0-1.08h9.13A0.54,0.54,0,1,1,239.53,209.47Z" fill="#ededed"/><ellipse id="05252a56-7a25-4691-8f6c-27113ff50ee8" data-name="&lt;Path&gt;" cx="249.69" cy="202.58" rx="1.43" ry="3.38" transform="translate(-20.82 376.4) rotate(-71.78)" fill="#f9bfa2"/><ellipse id="84a9d413-6a38-4057-a5ce-f1156119979d" data-name="&lt;Path&gt;" cx="220.78" cy="202.58" rx="3.38" ry="1.43" transform="translate(-52.28 79.21) rotate(-18.22)" fill="#f9bfa2"/><path id="f2bb403a-f5e8-4d80-93ee-24ed069bfd36" data-name="&lt;Path&gt;" d="M242.87,155.44H227.13a19.5,19.5,0,0,0-19.5,19.5v25.31a5.64,5.64,0,0,0,5.64-5.64V180.71a2.85,2.85,0,0,1,4-2.61L228.61,183a16.1,16.1,0,0,0,12.78,0l11.35-4.91a2.85,2.85,0,0,1,4,2.61V194.6a5.64,5.64,0,0,0,5.64,5.64V174.93A19.5,19.5,0,0,0,242.87,155.44Z" fill="#3a3a3a"/><path id="32bf2391-4adb-471a-9bfc-a511c5cd59ea" data-name="&lt;Path&gt;" d="M214.51,172a1,1,0,0,1-.92-1.39,16.72,16.72,0,0,1,8.8-8.81,1,1,0,1,1,.78,1.84,14.7,14.7,0,0,0-7.74,7.74A1,1,0,0,1,214.51,172Z" fill="#ededed" opacity="0.1"/><line id="5587383f-995a-4af0-bde4-4c1096ad572e" data-name="&lt;Path&gt;" x1="263.58" y1="276.29" x2="241.01" y2="257.58" fill="none" stroke="#d3987a" stroke-linecap="round" stroke-miterlimit="10" stroke-width="5"/><rect id="cbb0b5c6-7701-42cb-89b6-fabfacf856c9" data-name="&lt;Rectangle&gt;" x="260.2" y="265.68" width="19.36" height="30.75" rx="9.68" ry="9.68" transform="translate(614.14 98.53) rotate(105.91)" fill="#feccae"/></g><rect id="62bc012f-bf8e-44d1-ae21-1c2fd0a5dc6f" data-name="&lt;Rectangle&gt;" x="201.04" y="288.24" width="80.31" height="72.73" fill="#939393"/><rect id="7f912f13-48b5-40f3-9c00-6aad660c97e5" data-name="&lt;Rectangle&gt;" x="65" y="352.59" width="340" height="21.27" rx="10.64" ry="10.64" opacity="0.05"/><rect id="a6034a11-fd1a-403e-bfac-642da2801b51" data-name="&lt;Rectangle&gt;" x="234.98" y="283.41" width="50.06" height="26.93" fill="#fff"/><line id="f78ca6d2-cdf5-4981-9939-573b37a889cf" data-name="&lt;Path&gt;" x1="275.53" y1="285.72" x2="275.53" y2="313.97" fill="none" stroke="#bcbcbb" stroke-linecap="round" stroke-miterlimit="10" stroke-width="3"/><line id="259fea02-77d9-4362-a3f3-e07ed740f71a" data-name="&lt;Path&gt;" x1="262.38" y1="285.72" x2="262.38" y2="313.97" fill="none" stroke="#bcbcbb" stroke-linecap="round" stroke-miterlimit="10" stroke-width="3"/><rect id="0b359dc8-359c-4234-b707-deeef6eec0ff" data-name="&lt;Rectangle&gt;" x="137.42" y="283.41" width="47.95" height="64.54" fill="#fff"/><line id="3fcab4fa-233a-477a-ac98-ad728204c7f8" data-name="&lt;Path&gt;" x1="146.7" y1="283.72" x2="146.7" y2="344.22" fill="none" stroke="#bcbcbb" stroke-linecap="round" stroke-miterlimit="10" stroke-width="3"/><rect id="ebaee4a6-0a5e-4379-9813-521874eccd7b" data-name="&lt;Rectangle&gt;" x="143.4" y="295.32" width="6.61" height="9.06" rx="3.31" ry="3.31" fill="#c9c9c9"/><rect id="eedce424-6bdd-49ce-8c7a-ed5e5a9b1f96" data-name="&lt;Rectangle&gt;" x="143.4" y="321.01" width="6.61" height="9.06" rx="3.31" ry="3.31" fill="#c9c9c9"/><rect id="561d1af7-5566-4567-a333-40b8381994f2" data-name="&lt;Rectangle&gt;" x="132.44" y="278.78" width="58.77" height="11.89" rx="5.95" ry="5.95" fill="#474747"/><rect id="efb823d3-c368-4b5b-944e-5923ea6c4087" data-name="&lt;Rectangle&gt;" x="132.44" y="336.06" width="58.77" height="11.89" rx="5.95" ry="5.95" fill="#474747"/><rect id="f6792ca8-3741-4ee7-8eef-ddfe0435c0c2" data-name="&lt;Rectangle&gt;" x="229.61" y="278.78" width="60.91" height="11.89" rx="5.95" ry="5.95" fill="#474747"/><g id="1e351d40-47d9-4f29-83cf-3e1e2f176241" data-name="&lt;Group&gt;"><line id="5e61a969-e617-4cf0-acb0-6595aad9b2c7" data-name="&lt;Path&gt;" x1="256.85" y1="314.97" x2="256.85" y2="332.94" fill="none" stroke="#c9c9c9" stroke-linecap="round" stroke-miterlimit="10" stroke-width="5"/><line id="117a2079-13a4-406d-b68d-c662450a0ed4" data-name="&lt;Path&gt;" x1="275.18" y1="355.39" x2="256.85" y2="332.94" fill="none" stroke="#c9c9c9" stroke-linecap="round" stroke-miterlimit="10" stroke-width="5"/><line id="85b2510c-f3b1-4144-b810-be80c83754c5" data-name="&lt;Path&gt;" x1="275.18" y1="355.39" x2="271.46" y2="350.83" fill="none" stroke="#3a3a3a" stroke-linecap="round" stroke-miterlimit="10" stroke-width="11"/></g><rect id="40a958cf-a03c-451c-a2b2-5bbbf82c93a0" data-name="&lt;Rectangle&gt;" x="229.61" y="309.03" width="60.91" height="11.89" rx="5.95" ry="5.95" fill="#474747"/><rect id="b7fdcf38-d556-49a0-89f6-11af0bee1bd0" data-name="&lt;Rectangle&gt;" x="272.22" y="295.32" width="6.61" height="9.06" rx="3.31" ry="3.31" fill="#c9c9c9"/><rect id="8ee734de-b986-4713-bfa5-659d51a5948c" data-name="&lt;Rectangle&gt;" x="259.08" y="295.32" width="6.61" height="9.06" rx="3.31" ry="3.31" fill="#c9c9c9"/><g id="cd0b8bbe-e217-4ecc-a172-98dedd903f60" data-name="&lt;Group&gt;"><line id="be06cf89-b981-4ecc-87ed-2d7205310931" data-name="&lt;Path&gt;" x1="153.42" y1="359.9" x2="171.75" y2="337.45" fill="none" stroke="#c9c9c9" stroke-linecap="round" stroke-miterlimit="10" stroke-width="5"/><line id="e1f4e94f-ebd9-4b71-9440-839953c3be55" data-name="&lt;Path&gt;" x1="153.42" y1="359.9" x2="157.14" y2="355.34" fill="none" stroke="#3a3a3a" stroke-linecap="round" stroke-miterlimit="10" stroke-width="11"/></g><g id="73ac1601-2ce9-4bdf-9457-ea0ee2d79038" data-name="&lt;Group&gt;"><line id="52a01b78-0a0f-4ced-ab92-96934f37a7ff" data-name="&lt;Path&gt;" x1="257.89" y1="359.9" x2="239.56" y2="337.45" fill="none" stroke="#c9c9c9" stroke-linecap="round" stroke-miterlimit="10" stroke-width="5"/><line id="6800d2a6-8a33-4a5b-b883-13754fb3bf39" data-name="&lt;Path&gt;" x1="257.89" y1="359.9" x2="254.17" y2="355.34" fill="none" stroke="#3a3a3a" stroke-linecap="round" stroke-miterlimit="10" stroke-width="11"/></g><g id="c9ef7f69-1c66-4da9-a274-119b9464cdd6" data-name="&lt;Group&gt;"><path id="b18a41c1-f690-4047-9c2c-12dbd7a811a2" data-name="&lt;Path&gt;" d="M205.46,360.63a45.1,45.1,0,1,1,45.1-45.1A45.15,45.15,0,0,1,205.46,360.63Z" fill="#fff"/><path id="4972a0a8-0a68-4c9e-9f75-01dcfcc18f1f" data-name="&lt;Compound Path&gt;" d="M205.46,277.93a37.6,37.6,0,1,1-37.6,37.6,37.64,37.64,0,0,1,37.6-37.6m0-15a52.6,52.6,0,1,0,52.6,52.6,52.6,52.6,0,0,0-52.6-52.6h0Z" fill="#515151"/></g><g id="da77956b-e1e0-43c9-a5a7-ad6eac2d89ff" data-name="&lt;Group&gt;"><circle id="a4c7ead3-ab1f-4f9a-9fb5-a413a03e4482" data-name="&lt;Path&gt;" cx="160.25" cy="315.69" r="4.58" fill="#686868"/><circle id="cd3e199a-8dce-42e1-83cd-ef0300aaa536" data-name="&lt;Path&gt;" cx="250.67" cy="315.69" r="4.58" fill="#686868"/><circle id="cdcfe9ab-721c-4001-9b42-5f8079d86d2f" data-name="&lt;Path&gt;" cx="173.49" cy="347.66" r="4.58" transform="translate(-195.02 224.51) rotate(-45)" fill="#686868"/><circle id="02580127-7b77-4d7e-8e45-f98c4c729ee7" data-name="&lt;Path&gt;" cx="237.43" cy="283.72" r="4.58" transform="translate(-131.08 250.99) rotate(-45)" fill="#686868"/><circle id="caac6384-badd-425c-81a2-882647e1cb2e" data-name="&lt;Path&gt;" cx="205.46" cy="360.9" r="4.58" fill="#686868"/><circle id="0d6ca461-ec1f-4c1a-84df-3405143dd247" data-name="&lt;Path&gt;" cx="205.46" cy="270.48" r="4.58" fill="#686868"/><circle id="9a769c3e-7692-405c-8821-6ea5b49a507d" data-name="&lt;Path&gt;" cx="237.43" cy="347.66" r="4.58" transform="translate(-176.29 269.71) rotate(-45)" fill="#686868"/><circle id="56ed01e1-1da0-4e11-b201-368336843771" data-name="&lt;Path&gt;" cx="173.49" cy="283.72" r="4.58" transform="translate(-149.81 205.78) rotate(-45)" fill="#686868"/></g><line id="8b429c05-485d-41a3-9ef8-20d74ac48adc" data-name="&lt;Path&gt;" x1="309.53" y1="207.47" x2="309.53" y2="355.39" fill="none" stroke="#c9c9c9" stroke-linecap="round" stroke-miterlimit="10" stroke-width="5"/><line id="ab085884-c669-4b91-bb7c-4db31e610757" data-name="&lt;Path&gt;" x1="309.53" y1="238.27" x2="309.53" y2="253.73" fill="none" stroke="#b7b7b7" stroke-miterlimit="10" stroke-width="5"/><line id="410e4c16-f7ef-46a8-82f3-8e260f6bcd31" data-name="&lt;Path&gt;" x1="309.53" y1="262.91" x2="309.53" y2="276.29" fill="none" stroke="#b7b7b7" stroke-miterlimit="10" stroke-width="5"/><line id="5818078a-15c6-4ddb-bc36-e8fd1f2ccc0e" data-name="&lt;Path&gt;" x1="309.53" y1="353.11" x2="309.53" y2="359.42" fill="none" stroke="#474747" stroke-linecap="round" stroke-miterlimit="10" stroke-width="11"/><rect id="d68694b1-325c-498e-8d51-d2871bbe6c37" data-name="&lt;Rectangle&gt;" x="303.18" y="218.64" width="12.69" height="19.98" rx="5.72" ry="5.72" fill="#474747"/><rect id="adf80fd4-882c-426a-af6b-e9a7b4901bd0" data-name="&lt;Rectangle&gt;" x="303.18" y="248.66" width="12.69" height="19.98" rx="5.72" ry="5.72" fill="#c9c9c9"/><path id="7320bcdc-3021-4712-b58c-3a2dd94e09a2" data-name="&lt;Path&gt;" d="M341.09,242.73H278c-2,0-2.52-3.19-.67-4L288,233.75c11.84-5.45,31.2-5.45,43,0l10.71,4.93C343.61,239.54,343.08,242.73,341.09,242.73Z" fill="#ffce00"/><path id="35be59b5-1928-4407-8210-b2a2545493b3" data-name="&lt;Path&gt;" d="M278.48,247.51h62.09a2,2,0,0,1,.71,3.86L331,255.65c-11.84,4.94-31.2,4.94-43,0l-10.23-4.27A2,2,0,0,1,278.48,247.51Z" fill="#fa0"/><line id="8cf10e64-ce19-4a35-a8f7-37fe49453370" data-name="&lt;Path&gt;" x1="291.19" y1="355.39" x2="309.53" y2="332.94" fill="none" stroke="#c9c9c9" stroke-linecap="round" stroke-miterlimit="10" stroke-width="5"/><line id="f9e2acac-4adc-4eb7-9c96-822388700259" data-name="&lt;Path&gt;" x1="291.19" y1="355.39" x2="294.92" y2="350.83" fill="none" stroke="#3a3a3a" stroke-linecap="round" stroke-miterlimit="10" stroke-width="11"/><line id="c6c0b8f3-c117-4777-b956-fceff67e36d2" data-name="&lt;Path&gt;" x1="327.86" y1="355.39" x2="309.53" y2="332.94" fill="none" stroke="#c9c9c9" stroke-linecap="round" stroke-miterlimit="10" stroke-width="5"/><line id="da129d68-247e-4cf7-ab33-fe83e6ccac55" data-name="&lt;Path&gt;" x1="107.31" y1="221.15" x2="107.31" y2="355.39" fill="none" stroke="#c9c9c9" stroke-linecap="round" stroke-miterlimit="10" stroke-width="5"/><line id="00d295ae-2223-4a0e-a89f-4e9af3c193e0" data-name="&lt;Path&gt;" x1="107.42" y1="221.27" x2="107.42" y2="236.73" fill="none" stroke="#b7b7b7" stroke-miterlimit="10" stroke-width="5"/><line id="24b566e3-d6fb-4e0d-99b3-a3b2ee4e4195" data-name="&lt;Path&gt;" x1="107.31" y1="281.74" x2="107.31" y2="298.41" fill="none" stroke="#b7b7b7" stroke-miterlimit="10" stroke-width="5"/><rect id="924fc6e3-e260-4a37-b313-ddc5fdd6a551" data-name="&lt;Rectangle&gt;" x="100.97" y="200.86" width="12.69" height="19.98" rx="5.72" ry="5.72" fill="#474747"/><path id="b590b0b5-2785-416b-98fb-68c66f861fe7" data-name="&lt;Path&gt;" d="M151.84,229.77l-88.78.92c-2.9,0-3.73-4.45-1.06-5.71l14.93-7c16.63-7.81,44-8.1,60.76-.63l15.08,6.7C155.47,225.24,154.74,229.74,151.84,229.77Z" fill="#ffce00"/><line id="68e7fcff-8429-4837-b6fb-d3eb53fa2552" data-name="&lt;Path&gt;" x1="88.98" y1="355.39" x2="107.31" y2="332.94" fill="none" stroke="#c9c9c9" stroke-linecap="round" stroke-miterlimit="10" stroke-width="5"/><line id="92f393de-974c-4f23-af6d-3cd801189800" data-name="&lt;Path&gt;" x1="125.64" y1="355.39" x2="107.31" y2="332.94" fill="none" stroke="#c9c9c9" stroke-linecap="round" stroke-miterlimit="10" stroke-width="5"/><line id="75cded96-ceb6-46c9-943d-1b207d18eaf7" data-name="&lt;Path&gt;" x1="364.09" y1="191.71" x2="364.09" y2="355.39" fill="none" stroke="#c9c9c9" stroke-linecap="round" stroke-miterlimit="10" stroke-width="5"/><line id="ff3f2dd5-fa24-4a5d-9ece-0c2e6403b451" data-name="&lt;Path&gt;" x1="364.09" y1="205.6" x2="364.09" y2="221.07" fill="none" stroke="#b7b7b7" stroke-miterlimit="10" stroke-width="5"/><line id="52ca7a59-8085-46a2-9764-502a7fcb3efc" data-name="&lt;Path&gt;" x1="364.09" y1="282.95" x2="364.09" y2="298.41" fill="none" stroke="#b7b7b7" stroke-miterlimit="10" stroke-width="5"/><rect id="57048cf1-7e4a-4283-9b0d-c8eba2ff2b93" data-name="&lt;Rectangle&gt;" x="357.74" y="185.13" width="12.69" height="19.98" rx="5.72" ry="5.72" fill="#474747"/><path id="b79e20dd-c400-424e-87b5-7f0c40b0656a" data-name="&lt;Path&gt;" d="M404.11,213.33h-80c-1.16,0-1.4-2.78-.3-3.37l15.84-8.43c13.46-7.17,35.49-7.17,48.95,0L404.41,210C405.51,210.55,405.26,213.33,404.11,213.33Z" fill="#ffce00"/><line id="c135ffb3-3f3e-4a11-bb22-50b5ae7790d3" data-name="&lt;Path&gt;" x1="345.76" y1="355.39" x2="364.09" y2="332.94" fill="none" stroke="#c9c9c9" stroke-linecap="round" stroke-miterlimit="10" stroke-width="5"/><line id="4cab1d56-ca4c-450f-b8cd-120723e44dd3" data-name="&lt;Path&gt;" x1="382.42" y1="355.39" x2="364.09" y2="332.94" fill="none" stroke="#c9c9c9" stroke-linecap="round" stroke-miterlimit="10" stroke-width="5"/><line id="37e1ee32-ab8b-4fc6-828a-51c819a7b8d4" data-name="&lt;Path&gt;" x1="327.86" y1="355.39" x2="324.14" y2="350.83" fill="none" stroke="#3a3a3a" stroke-linecap="round" stroke-miterlimit="10" stroke-width="11"/><line id="e07e451e-0959-4cf8-bf90-f7fb4e1ba0db" data-name="&lt;Path&gt;" x1="364.09" y1="353.11" x2="364.09" y2="359.42" fill="none" stroke="#474747" stroke-linecap="round" stroke-miterlimit="10" stroke-width="11"/><line id="5bc14fd9-32ec-4b49-a34f-4a9bfeece1d9" data-name="&lt;Path&gt;" x1="345.76" y1="355.39" x2="349.48" y2="350.83" fill="none" stroke="#3a3a3a" stroke-linecap="round" stroke-miterlimit="10" stroke-width="11"/><line id="3e0960d9-0246-4082-b9a7-457df50d2113" data-name="&lt;Path&gt;" x1="382.42" y1="355.39" x2="378.7" y2="350.83" fill="none" stroke="#3a3a3a" stroke-linecap="round" stroke-miterlimit="10" stroke-width="11"/><line id="85831b42-13d6-4c14-bae0-3c803a962010" data-name="&lt;Path&gt;" x1="107.42" y1="353.11" x2="107.42" y2="359.42" fill="none" stroke="#474747" stroke-linecap="round" stroke-miterlimit="10" stroke-width="11"/><line id="1d31661c-853e-42b9-beaf-6edd996c2e76" data-name="&lt;Path&gt;" x1="89.09" y1="355.39" x2="92.81" y2="350.83" fill="none" stroke="#3a3a3a" stroke-linecap="round" stroke-miterlimit="10" stroke-width="11"/><line id="e076f1a5-e5f7-4150-aed8-a6debb945dd6" data-name="&lt;Path&gt;" x1="125.75" y1="355.39" x2="122.03" y2="350.83" fill="none" stroke="#3a3a3a" stroke-linecap="round" stroke-miterlimit="10" stroke-width="11"/><rect id="b635f94f-c01b-4644-a32a-f513fc5a5512" data-name="&lt;Rectangle&gt;" x="357.74" y="271.44" width="12.69" height="19.98" rx="5.72" ry="5.72" fill="#c9c9c9"/><rect id="cb39d4cb-a2cb-4983-a97c-a46d50baecc3" data-name="&lt;Rectangle&gt;" x="100.97" y="271.44" width="12.69" height="19.98" rx="5.72" ry="5.72" fill="#c9c9c9"/><circle id="e49aff38-59c1-43e4-a7a3-475becb568ff" data-name="&lt;Path&gt;" cx="100.97" cy="281.43" r="4.06" fill="#b7b7b7"/><circle id="111cee85-6088-4d3a-9781-dd7335afac89" data-name="&lt;Path&gt;" cx="357.74" cy="281.43" r="4.06" fill="#b7b7b7"/><circle id="8e320316-f032-44ca-8ef6-dc3a84b40ceb" data-name="&lt;Path&gt;" cx="85.88" cy="221.64" r="3.1" fill="#ffdd50"/><circle id="0a92613b-a6b1-4ed8-b456-1de7c7b1a0f0" data-name="&lt;Path&gt;" cx="95.91" cy="221.64" r="3.1" fill="#ffdd50"/><circle id="d9608c91-9452-4042-8307-060271f42a29" data-name="&lt;Path&gt;" cx="349.48" cy="204.3" r="3.1" fill="#ffdd50"/><circle id="0223b84d-7ed3-4268-b0a7-5c77f87fd0a2" data-name="&lt;Path&gt;" cx="359.81" cy="204.3" r="3.1" fill="#ffdd50"/><g id="07512046-6429-4004-b6d1-890ab1cdb355" data-name="&lt;Group&gt;"><circle id="3ed70474-3915-4e78-997d-ec1c7ca2da62" data-name="&lt;Path&gt;" cx="205.46" cy="315.53" r="23.12" fill="#f4f4f4"/></g></svg>