<svg id="Layer_1" data-name="Layer 1" xmlns="http://www.w3.org/2000/svg" viewBox="0 0 460 420">
  <title>1</title>
  <rect id="_Rectangle_" data-name="&lt;Rectangle&gt;" x="97.6128" y="38.4279" width="29.856" height="7.9203" rx="3.9602" ry="3.9602" style="opacity: 0.08"/>
  <rect id="_Rectangle_2" data-name="&lt;Rectangle&gt;" x="131.2432" y="38.4279" width="29.856" height="7.9203" rx="3.9602" ry="3.9602" style="opacity: 0.08"/>
  <rect id="_Rectangle_3" data-name="&lt;Rectangle&gt;" x="113.7491" y="50.3678" width="29.856" height="7.9203" rx="3.9602" ry="3.9602" style="opacity: 0.08"/>
  <g>
    <g id="_Rectangle_4" data-name="&lt;Rectangle&gt;">
      <path d="M85.9027,60.7526H383.15a1.624,1.624,0,0,1,1.624,1.624v174.49a1.623,1.623,0,0,1-1.623,1.623H85.9027a1.623,1.623,0,0,1-1.623-1.623V62.3757A1.623,1.623,0,0,1,85.9027,60.7526Z" style="fill: #fff"/>
      <path d="M380.0213,65.5053V233.7377H89.032V65.5053H380.0213M383.15,56H85.9032a6.3764,6.3764,0,0,0-6.3765,6.3764v174.49a6.3765,6.3765,0,0,0,6.3765,6.3764H383.15a6.3764,6.3764,0,0,0,6.3765-6.3764V62.3764A6.3764,6.3764,0,0,0,383.15,56Z" style="fill: #a0a0a0"/>
    </g>
    <path id="_Rectangle_5" data-name="&lt;Rectangle&gt;" d="M73.5267,234.6034h322a0,0,0,0,1,0,0v6.2323a9.5779,9.5779,0,0,1-9.5779,9.5779H83.1046a9.5779,9.5779,0,0,1-9.5779-9.5779v-6.2323A0,0,0,0,1,73.5267,234.6034Z" style="opacity: 0.05"/>
    <rect id="_Rectangle_6" data-name="&lt;Rectangle&gt;" x="73.5267" y="230.6667" width="322" height="12.5763" rx="6.2882" ry="6.2882" style="fill: #c6c6c6"/>
    <path d="M389.2386,237.243H79.8148a6.2868,6.2868,0,0,1-5.5276-3.2882,6.2608,6.2608,0,0,0-.76,3h0a6.2881,6.2881,0,0,0,6.2881,6.2881H389.2386a6.2882,6.2882,0,0,0,6.2881-6.2881h0a6.2608,6.2608,0,0,0-.76-3A6.2866,6.2866,0,0,1,389.2386,237.243Z" style="fill: #bab9b9"/>
    <rect id="_Rectangle_7" data-name="&lt;Rectangle&gt;" x="73.5267" y="56" width="322" height="12.5763" rx="6.2882" ry="6.2882" style="fill: #b2b2b2"/>
    <rect id="_Rectangle_8" data-name="&lt;Rectangle&gt;" x="79.5267" y="68.5763" width="310" height="11.2792" style="opacity: 0.05"/>
    <g>
      <path d="M281.681,134.7341l-3.0117,8.4707h-9.35l15.624-43.042h11.5449l15.623,43.042h-10.165l-3.1367-8.4707Zm2.6348-7.3408h11.9219c-1.8828-5.6465-3.8281-11.2939-5.7725-16.8779h-.3135Z" style="fill: #474747"/>
      <path d="M330.3031,116.79c-3.7021,0-5.584,2.2588-5.584,3.7021v.502h-8.8467a6.1588,6.1588,0,0,1-.126-1.13c0-5.3955,5.71-9.3486,14.1172-9.3486h1.3174c9.2871,0,13.8047,4.0156,13.8047,9.9766V135.3c0,1.6309.94,2.2588,1.8193,2.2588a7.124,7.124,0,0,0,2.5723-.69v5.6465a11.1229,11.1229,0,0,1-5.5215,1.3184c-4.7686,0-7.0273-2.1338-7.4033-5.3965a13.612,13.612,0,0,1-10.793,5.3965c-5.1445,0-10.917-1.3184-10.917-9.35,0-9.2227,8.4072-10.792,21.2705-10.792v-2.1328C336.013,118.9226,334.57,116.79,330.3031,116.79Zm-6.0859,17.0039c0,2.8232,1.6309,3.7646,4.7061,3.7646,3.1367,0,7.09-2.7607,7.09-7.0273v-1.6943C328.2953,128.8366,324.2171,130.154,324.2171,133.7936Z" style="fill: #474747"/>
    </g>
    <g>
      <path d="M288.7367,166.85V164.864l6.82-2.5312c-2.2852-.8437-4.5527-1.67-6.82-2.5312v-2.0039l8.9473,3.4629v2.1621C294.6957,164.5651,291.725,165.7253,288.7367,166.85Z" style="fill: #a5a5a5"/>
      <path d="M308.5951,164.8112c1.67,0,2.4434-.8789,2.4434-2.76h2.4785a4.562,4.562,0,0,1-4.7988,4.9219h-.2461a4.9541,4.9541,0,0,1-5.2734-5.3437v-1.7227a5,5,0,0,1,5.2031-5.3437h.2461a4.554,4.554,0,0,1,4.8691,4.957h-2.584c0-1.8457-.8437-2.7949-2.3555-2.7949a2.4956,2.4956,0,0,0-2.5312,2.7949v2.4961A2.508,2.508,0,0,0,308.5951,164.8112Z" style="fill: #474747"/>
      <path d="M318.0843,158.694a3.3711,3.3711,0,0,1,2.4961-1.0547c1.7227,0,3.1465.9316,3.1465,2.8828v6.2754h-2.5664v-5.7129a1.4471,1.4471,0,0,0-1.4062-1.582,1.7282,1.7282,0,0,0-1.67,1.7754v5.52h-2.5664V154.1413h2.5664Z" style="fill: #474747"/>
      <path d="M328.61,154.1413v2.0215h-2.6016v-2.0215Zm-2.584,3.6738h2.5664v8.9824h-2.5664Z" style="fill: #474747"/>
      <path d="M333.0033,166.7976l-3.1465-8.9824h2.7246l1.9512,6.0117h.0879l1.9512-6.0117h2.4961l-3.1641,8.9824Z" style="fill: #474747"/>
      <path d="M344.6019,166.9733h-.2812a4.1642,4.1642,0,0,1-4.3945-4.4121v-.51a4.1642,4.1642,0,0,1,4.3945-4.4121h.2813a4.1642,4.1642,0,0,1,4.3945,4.4121v.51A4.1642,4.1642,0,0,1,344.6019,166.9733Zm-.1406-7.5762c-1.09,0-1.9336.7207-1.9336,2.1973v1.4238c0,1.4766.8438,2.1973,1.9336,2.1973s1.9336-.7207,1.9336-2.1973v-1.4238C346.3949,160.1179,345.5511,159.3972,344.4613,159.3972Z" style="fill: #474747"/>
      <path d="M315.766,174.3474c0-.8789-.7383-1.4238-1.9863-1.4238-1.3008,0-2.0391.457-2.0391,1.125,0,2.2852,6.8379.7559,6.8379,5.15,0,2.8652-2.0566,3.9727-4.9746,3.9727-2.584,0-4.8691-1.0723-4.8691-3.7266,0-.1406.0176-.2988.0176-.3867h2.5664c0,.0352-.0176.1934-.0176.2813,0,1.002.7734,1.67,2.2148,1.67,1.7754,0,2.3027-.6855,2.3027-1.3711,0-2.32-6.8027-.7031-6.8027-5.3086,0-2.4082,2.1621-3.5684,4.7109-3.5684,2.5137,0,4.5879,1.0723,4.5879,3.5332v.2109H315.766Z" style="fill: #474747"/>
      <path d="M324.3412,175.5954c-1.0371,0-1.5645.6328-1.5645,1.0371v.1406h-2.4785a1.7417,1.7417,0,0,1-.0352-.3164c0-1.5117,1.6-2.6191,3.9551-2.6191h.3691c2.6016,0,3.8672,1.125,3.8672,2.7949v4.1484c0,.457.2637.6328.51.6328a1.9974,1.9974,0,0,0,.7207-.1934v1.582a3.1173,3.1173,0,0,1-1.5469.3691c-1.3359,0-1.9687-.5977-2.0742-1.5117a3.8131,3.8131,0,0,1-3.0234,1.5117c-1.4414,0-3.0586-.3691-3.0586-2.6191,0-2.584,2.3555-3.0234,5.959-3.0234v-.5977C325.9408,176.1931,325.5365,175.5954,324.3412,175.5954Zm-1.7051,4.7637c0,.791.457,1.0547,1.3184,1.0547a2.0472,2.0472,0,0,0,1.9863-1.9687V178.97C323.7787,178.97,322.6361,179.34,322.6361,180.3591Z" style="fill: #474747"/>
      <path d="M333.1439,175.3317a3.4821,3.4821,0,0,1,2.8652-1.4941c1.7227,0,3.1465.9316,3.1465,2.8828v6.2754h-2.5664v-5.7129a1.4471,1.4471,0,0,0-1.4062-1.582,1.7282,1.7282,0,0,0-1.67,1.7754v5.52h-2.5664v-8.9824h1.916Z" style="fill: #474747"/>
      <path d="M343.055,180.2536c0,.8965.9668,1.16,1.8984,1.16.7734,0,1.8105-.1934,1.8105-.8789,0-1.7754-5.6953-.1758-5.6953-3.85,0-1.8984,1.8633-2.8477,3.9023-2.8477h.3516c1.8281,0,3.6211.9492,3.6211,2.4258a2.801,2.801,0,0,1-.0352.3867h-2.25c0-.7383-.6152-1.0547-1.6172-1.0547-.9668,0-1.6348.2988-1.6348.791,0,1.6348,5.73.0352,5.73,3.7617,0,2.2852-1.916,3.0234-3.99,3.0234h-.58c-2.1973,0-3.7793-1.0723-3.7793-2.6895,0-.1758.0176-.2812.0176-.3516h2.25Z" style="fill: #474747"/>
    </g>
    <g>
      <path d="M109.79,110.8493c-.125,0-.2422-.0029-.35-.0088a1.8077,1.8077,0,0,1-.248-.0254,2.4308,2.4308,0,0,1-.8555-.4355,1.9036,1.9036,0,0,1-.5635-.7266,1.6247,1.6247,0,0,1-.1543-.4365,2.3684,2.3684,0,0,1-.0342-.4014,2.6977,2.6977,0,0,1,.0518-.53c-.1025-.0684-.2109-.1426-.3252-.2217a.91.91,0,0,1-.2559-.2568,1.8984,1.8984,0,0,1-.4111-1.1621,1.76,1.76,0,0,1,.18-.7783,2.288,2.288,0,0,1,.4873-.6582c.0576-.0566.1621-.165.3164-.3242a6.1265,6.1265,0,0,0,.4189-.4795l.3418-.376c.1592-.1709.3223-.3447.4873-.5215s.3271-.3437.4873-.5039c.1816-.1592.3418-.2959.4785-.41a4.2609,4.2609,0,0,1,.3594-.2734,2.4326,2.4326,0,0,1,1.8457-.3418,1.7807,1.7807,0,0,1,1.3164,1.1113l-.0166-.0176a2.4983,2.4983,0,0,1,.11.2988,1.812,1.812,0,0,1,.0605.3c.1592-.1709.3018-.334.4268-.4873s.2393-.2939.3418-.4189l.2393-.2734a.2631.2631,0,0,0,.0518-.0684.2248.2248,0,0,0,.0342-.0518,2.2066,2.2066,0,0,1,.9316-.6582,1.82,1.82,0,0,1,1.0859-.06,1.7723,1.7723,0,0,1,.6924.376,2.459,2.459,0,0,1,.5215.6328,2.0565,2.0565,0,0,1,.2129.9316,3.5234,3.5234,0,0,1-.06.5215,1.3094,1.3094,0,0,1-.043.1621c-.0166.0518-.0312.1-.042.1455l-.1025.3252-.0176.0508a2.1182,2.1182,0,0,1,.6748.1885,1.7083,1.7083,0,0,1,.5732.4268,2,2,0,0,1,.4443,1.2314,1.8445,1.8445,0,0,1-.7012,1.4531l-.085.085q-.3589.3076-.7607.6152a10.19,10.19,0,0,1-.8467.582,3.8722,3.8722,0,0,1-1.9824.5977,2.947,2.947,0,0,1-.8213-.1191,1.8655,1.8655,0,0,1-.5723-.2314,1.6689,1.6689,0,0,1-.4531-.4014q-.2051.1714-.3936.3164t-.4268.2988h.0166a7.1058,7.1058,0,0,1-.752.4619c-.2393.125-.4678.2334-.6836.3242a2.73,2.73,0,0,1-.6152.1719A3.9575,3.9575,0,0,1,109.79,110.8493Z" style="fill: #dbdbdb"/>
      <path d="M127.1937,110.8493c-.125,0-.2422-.0029-.35-.0088a1.8077,1.8077,0,0,1-.248-.0254,2.4308,2.4308,0,0,1-.8555-.4355,1.9036,1.9036,0,0,1-.5635-.7266,1.6247,1.6247,0,0,1-.1543-.4365,2.3684,2.3684,0,0,1-.0342-.4014,2.6977,2.6977,0,0,1,.0518-.53c-.1025-.0684-.2109-.1426-.3252-.2217a.91.91,0,0,1-.2559-.2568,1.8984,1.8984,0,0,1-.4111-1.1621,1.76,1.76,0,0,1,.18-.7783,2.288,2.288,0,0,1,.4873-.6582c.0576-.0566.1621-.165.3164-.3242a6.1265,6.1265,0,0,0,.4189-.4795l.3418-.376c.1592-.1709.3223-.3447.4873-.5215s.3271-.3437.4873-.5039c.1816-.1592.3418-.2959.4785-.41a4.2609,4.2609,0,0,1,.3594-.2734,2.4326,2.4326,0,0,1,1.8457-.3418,1.7807,1.7807,0,0,1,1.3164,1.1113l-.0166-.0176a2.4983,2.4983,0,0,1,.11.2988,1.812,1.812,0,0,1,.0605.3c.1592-.1709.3018-.334.4268-.4873s.2393-.2939.3418-.4189l.2393-.2734a.2631.2631,0,0,0,.0518-.0684.2248.2248,0,0,0,.0342-.0518,2.2066,2.2066,0,0,1,.9316-.6582,1.82,1.82,0,0,1,1.0859-.06,1.7723,1.7723,0,0,1,.6924.376,2.459,2.459,0,0,1,.5215.6328,2.0565,2.0565,0,0,1,.2129.9316,3.5234,3.5234,0,0,1-.06.5215,1.3094,1.3094,0,0,1-.043.1621c-.0166.0518-.0312.1-.042.1455l-.1025.3252-.0176.0508a2.1182,2.1182,0,0,1,.6748.1885,1.7083,1.7083,0,0,1,.5732.4268,2,2,0,0,1,.4443,1.2314,1.8445,1.8445,0,0,1-.7012,1.4531l-.085.085q-.3589.3076-.7607.6152a10.19,10.19,0,0,1-.8467.582,3.8722,3.8722,0,0,1-1.9824.5977,2.947,2.947,0,0,1-.8213-.1191,1.8655,1.8655,0,0,1-.5723-.2314,1.6689,1.6689,0,0,1-.4531-.4014q-.2051.1714-.3936.3164t-.4268.2988h.0166a7.1058,7.1058,0,0,1-.752.4619c-.2393.125-.4678.2334-.6836.3242a2.73,2.73,0,0,1-.6152.1719A3.9575,3.9575,0,0,1,127.1937,110.8493Z" style="fill: #dbdbdb"/>
      <path d="M137.2962,109.2253a2.368,2.368,0,0,1-.4609-.0508,1.86,1.86,0,0,1-.7012-.3506,1.97,1.97,0,0,1-.4961-.59,1.6993,1.6993,0,0,1-1,.0762,1.62,1.62,0,0,1-.8975-.5381,1.5106,1.5106,0,0,1-.3418-.5811,1.7391,1.7391,0,0,1-.0771-.6582,1.7573,1.7573,0,0,1,.1709-.6328,1.8361,1.8361,0,0,1,.4023-.5381q.1875-.1538.4014-.3594c.1426-.1367.2939-.2842.4531-.4443q.41-.41.8633-.8291t.88-.7607c.1943-.1484.3789-.2793.5557-.3936a5.5021,5.5021,0,0,1,.5049-.29,2.6266,2.6266,0,0,1,1.7432-.2393,2.0285,2.0285,0,0,1,.8125.4609,2.1709,2.1709,0,0,1,.5381.7871,2.1394,2.1394,0,0,1-.0166,1.4355c-.0234.0576-.0459.1143-.0684.1709s-.0518.12-.0859.1885a1.749,1.749,0,0,1,.89.957,1.8117,1.8117,0,0,1,.1025.6836,1.7485,1.7485,0,0,1-.1543.6416,1.6564,1.6564,0,0,1-.3848.5293,1.6345,1.6345,0,0,1-.59.3506q-.5464.2051-.9824.3682t-.7441.2646c-.125.0459-.2334.085-.3242.1191s-.166.0635-.2227.0859c-.1143.0234-.2334.0518-.3594.0859A1.5522,1.5522,0,0,1,137.2962,109.2253Z" style="fill: #dbdbdb"/>
      <path d="M141.9974,109.2253a2.368,2.368,0,0,1-.4609-.0508,1.86,1.86,0,0,1-.7012-.3506,1.97,1.97,0,0,1-.4961-.59,1.6993,1.6993,0,0,1-1,.0762,1.62,1.62,0,0,1-.8975-.5381,1.5106,1.5106,0,0,1-.3418-.5811,1.7391,1.7391,0,0,1-.0771-.6582,1.7573,1.7573,0,0,1,.1709-.6328,1.8361,1.8361,0,0,1,.4023-.5381q.1875-.1538.4014-.3594c.1426-.1367.2939-.2842.4531-.4443q.41-.41.8633-.8291t.88-.7607c.1943-.1484.3789-.2793.5557-.3936a5.5021,5.5021,0,0,1,.5049-.29,2.6266,2.6266,0,0,1,1.7432-.2393,2.0285,2.0285,0,0,1,.8125.4609,2.1709,2.1709,0,0,1,.5381.7871,2.1394,2.1394,0,0,1-.0166,1.4355c-.0234.0576-.0459.1143-.0684.1709s-.0518.12-.0859.1885a1.749,1.749,0,0,1,.89.957,1.8117,1.8117,0,0,1,.1025.6836,1.7485,1.7485,0,0,1-.1543.6416,1.6564,1.6564,0,0,1-.3848.5293,1.6345,1.6345,0,0,1-.59.3506q-.5464.2051-.9824.3682t-.7441.2646c-.125.0459-.2334.085-.3242.1191s-.166.0635-.2227.0859c-.1143.0234-.2334.0518-.3594.0859A1.5522,1.5522,0,0,1,141.9974,109.2253Z" style="fill: #dbdbdb"/>
      <path d="M147.263,110.7468a2.6922,2.6922,0,0,1-.6494-.085,1.6588,1.6588,0,0,1-.6494-.3164,1.5556,1.5556,0,0,1-.4453-.5557,1.6141,1.6141,0,0,1-.1621-.4277,1.9017,1.9017,0,0,1-.043-.3848,2.525,2.525,0,0,1,.0176-.3164c.0107-.0908.0225-.165.0342-.2217s.0225-.1172.0342-.18a1.3877,1.3877,0,0,1,.0508-.1963,2.0253,2.0253,0,0,1-.2217.11,1.7982,1.7982,0,0,1-.2227.0771,1.7361,1.7361,0,0,1-.5811.1025,1.7116,1.7116,0,0,1-.9746-.2988,1.6282,1.6282,0,0,1-.6328-.8291,1.5867,1.5867,0,0,1-.0937-.667,1.8106,1.8106,0,0,1,.1621-.6328,1.8778,1.8778,0,0,1,.377-.5293,1.5069,1.5069,0,0,1,.5811-.3594c.0342-.0107.1-.04.1963-.085a3.99,3.99,0,0,0,.4189-.248q.2739-.18.6836-.5049t1.0088-.8369q.3413-.3076.6416-.582c.1992-.1816.373-.3418.5205-.4785s.2656-.248.3506-.333a.657.657,0,0,1,.1455-.1279,1.7,1.7,0,0,1,.7607-.4453,1.7378,1.7378,0,0,1,1.94.8721,2.14,2.14,0,0,1,.18.53,1.54,1.54,0,0,1-.06.7861c0,.0234-.0059.0371-.0176.043s-.0166.02-.0166.043a.2907.2907,0,0,0-.0264.085.3337.3337,0,0,1-.0254.0859,2.2531,2.2531,0,0,1-.0937.2559q-.06.1377-.1289.3252c-.0449.126-.0937.2627-.1445.41s-.1113.3018-.18.4619c.0225-.0117.0449-.0225.0684-.0342a.28.28,0,0,0,.0684-.0518,1.6963,1.6963,0,0,1,1.2734-.2393,1.7307,1.7307,0,0,1,.5986.2568,1.6377,1.6377,0,0,1,.47.4785,1.5454,1.5454,0,0,1,.2646.6328,1.7116,1.7116,0,0,1-.0078.6582,1.8286,1.8286,0,0,1-.2568.6064,1.5861,1.5861,0,0,1-.4785.4785q-.41.2739-.7783.5391t-.7432.5557c-.2852.2158-.55.416-.7949.5977a6.2516,6.2516,0,0,1-.7441.4785,4.0474,4.0474,0,0,1-.5127.248c-.1592.0625-.3193.1172-.4785.1631A3.1285,3.1285,0,0,1,147.263,110.7468Z" style="fill: #dbdbdb"/>
      <path d="M155.0072,109.738a1.6094,1.6094,0,0,1-1.0771-.376,1.6464,1.6464,0,0,1-.5645-.82,1.7257,1.7257,0,0,1-.0166-.9922.123.123,0,0,1,.0166-.0508.1271.1271,0,0,0,.0176-.0518.123.123,0,0,1,.0166-.0508,10.807,10.807,0,0,1-1.709.8545,1.71,1.71,0,0,1-1.3-.0508,1.8133,1.8133,0,0,1-.5293-.3848,1.6183,1.6183,0,0,1-.3594-.5732,1.429,1.429,0,0,1-.1113-.666,1.8872,1.8872,0,0,1,.1621-.6416,1.7755,1.7755,0,0,1,.3848-.5381,1.627,1.627,0,0,1,.5732-.3594,7.3512,7.3512,0,0,0,.9824-.4951,15.995,15.995,0,0,0,1.89-1.3506q.3589-.2915.6582-.5479t.5215-.4609c.1709-.16.33-.3076.4785-.4443a1.65,1.65,0,0,1,1.6406-.4277,1.5729,1.5729,0,0,1,.6162.3076,1.9246,1.9246,0,0,1,.4443.5127,1.7084,1.7084,0,0,1,.2393.9746,7.27,7.27,0,0,1-.1885,1.1455c-.0225.1143-.0488.2246-.0771.333s-.06.2256-.0937.3506a1.7324,1.7324,0,0,1,1.0088.2393,1.7525,1.7525,0,0,1,.7012.7861,1.6918,1.6918,0,0,1,.1367.6582,1.8709,1.8709,0,0,1-.1113.6416,1.6168,1.6168,0,0,1-.8975.94q-.564.2563-1.0342.4873t-.82.418c-.2344.126-.4189.2256-.5557.3a1.5976,1.5976,0,0,1-.2227.1113A1.7155,1.7155,0,0,1,155.0072,109.738Z" style="fill: #dbdbdb"/>
      <path d="M159.0072,110.8493c-.125,0-.2422-.0029-.35-.0088a1.8077,1.8077,0,0,1-.248-.0254,2.4308,2.4308,0,0,1-.8555-.4355,1.9036,1.9036,0,0,1-.5635-.7266,1.6247,1.6247,0,0,1-.1543-.4365,2.3684,2.3684,0,0,1-.0342-.4014,2.6977,2.6977,0,0,1,.0518-.53c-.1025-.0684-.2109-.1426-.3252-.2217a.91.91,0,0,1-.2559-.2568,1.8984,1.8984,0,0,1-.4111-1.1621,1.76,1.76,0,0,1,.18-.7783,2.288,2.288,0,0,1,.4873-.6582c.0576-.0566.1621-.165.3164-.3242a6.1265,6.1265,0,0,0,.4189-.4795l.3418-.376c.1592-.1709.3223-.3447.4873-.5215s.3271-.3437.4873-.5039c.1816-.1592.3418-.2959.4785-.41a4.2609,4.2609,0,0,1,.3594-.2734,2.4326,2.4326,0,0,1,1.8457-.3418,1.7807,1.7807,0,0,1,1.3164,1.1113l-.0166-.0176a2.4983,2.4983,0,0,1,.11.2988,1.812,1.812,0,0,1,.0605.3c.1592-.1709.3018-.334.4268-.4873s.2393-.2939.3418-.4189l.2393-.2734a.2631.2631,0,0,0,.0518-.0684.2248.2248,0,0,0,.0342-.0518,2.2066,2.2066,0,0,1,.9316-.6582,1.82,1.82,0,0,1,1.0859-.06,1.7723,1.7723,0,0,1,.6924.376,2.459,2.459,0,0,1,.5215.6328,2.0565,2.0565,0,0,1,.2129.9316,3.5234,3.5234,0,0,1-.06.5215,1.3094,1.3094,0,0,1-.043.1621c-.0166.0518-.0312.1-.042.1455l-.1025.3252-.0176.0508a2.1182,2.1182,0,0,1,.6748.1885,1.7083,1.7083,0,0,1,.5732.4268,2,2,0,0,1,.4443,1.2314,1.8445,1.8445,0,0,1-.7012,1.4531l-.085.085q-.3589.3076-.7607.6152a10.19,10.19,0,0,1-.8467.582,3.8722,3.8722,0,0,1-1.9824.5977,2.947,2.947,0,0,1-.8213-.1191,1.8655,1.8655,0,0,1-.5723-.2314,1.6689,1.6689,0,0,1-.4531-.4014q-.2051.1714-.3936.3164t-.4268.2988h.0166a7.1058,7.1058,0,0,1-.752.4619c-.2393.125-.4678.2334-.6836.3242a2.73,2.73,0,0,1-.6152.1719A3.9575,3.9575,0,0,1,159.0072,110.8493Z" style="fill: #dbdbdb"/>
      <path d="M172.8207,109.5671a1.9057,1.9057,0,0,1-.53-.085,1.6321,1.6321,0,0,1-.7344-.3848,1.7778,1.7778,0,0,1-.4619-.6758,1.9858,1.9858,0,0,1,.0166-1.47,5.3633,5.3633,0,0,1,.3076-.6836c.0234-.0459.0488-.0947.0771-.1455s.0605-.1055.0947-.1631c-.2627.1377-.52.2822-.77.4365s-.5078.2988-.77.4355q-.7017.4277-1.3418.7783t-1.1885.59a1.5229,1.5229,0,0,1-.6582.1533,1.7667,1.7667,0,0,1-.6406-.1191,1.7428,1.7428,0,0,1-.5557-.3506,1.6073,1.6073,0,0,1-.3848-.5557,1.5242,1.5242,0,0,1-.1543-.6582,1.7523,1.7523,0,0,1,.12-.6416,1.7217,1.7217,0,0,1,.3506-.5547,1.5853,1.5853,0,0,1,.5557-.3848q.3926-.189.9658-.5049t1.2217-.6924q.7529-.4438,1.582-.9141a16.1518,16.1518,0,0,1,1.6328-.8125,6.89,6.89,0,0,1,1.6924-.5977,4.9289,4.9289,0,0,1,1.0166-.1543,3.0855,3.0855,0,0,1,.915.1025,1.8577,1.8577,0,0,1,1.2822,1.1621,1.9069,1.9069,0,0,1,.0762,1.2656,6.1046,6.1046,0,0,1-.47,1.1621.7173.7173,0,0,1,.1113-.0254.26.26,0,0,0,.1113-.043,1.5421,1.5421,0,0,1,.6582-.0937,1.8452,1.8452,0,0,1,.6318.1621,1.6942,1.6942,0,0,1,.8809.958,1.7787,1.7787,0,0,1,.1025.6748,1.7123,1.7123,0,0,1-.1543.6328,1.6564,1.6564,0,0,1-.3848.5293,1.6345,1.6345,0,0,1-.59.3506q-.8027.2915-1.47.5215t-1.18.4023q-.7178.2051-1.1621.2988A3.9356,3.9356,0,0,1,172.8207,109.5671Z" style="fill: #dbdbdb"/>
      <path d="M178.17,110.8493c-.125,0-.2422-.0029-.35-.0088a1.8077,1.8077,0,0,1-.248-.0254,2.4308,2.4308,0,0,1-.8555-.4355,1.9036,1.9036,0,0,1-.5635-.7266,1.6247,1.6247,0,0,1-.1543-.4365,2.3684,2.3684,0,0,1-.0342-.4014,2.6977,2.6977,0,0,1,.0518-.53c-.1025-.0684-.2109-.1426-.3252-.2217a.91.91,0,0,1-.2559-.2568,1.8984,1.8984,0,0,1-.4111-1.1621,1.76,1.76,0,0,1,.18-.7783,2.288,2.288,0,0,1,.4873-.6582c.0576-.0566.1621-.165.3164-.3242a6.1265,6.1265,0,0,0,.4189-.4795l.3418-.376c.1592-.1709.3223-.3447.4873-.5215s.3271-.3437.4873-.5039c.1816-.1592.3418-.2959.4785-.41a4.2609,4.2609,0,0,1,.3594-.2734,2.4326,2.4326,0,0,1,1.8457-.3418,1.7807,1.7807,0,0,1,1.3164,1.1113l-.0166-.0176a2.4983,2.4983,0,0,1,.11.2988,1.812,1.812,0,0,1,.0605.3c.1592-.1709.3018-.334.4268-.4873s.2393-.2939.3418-.4189l.2393-.2734a.2631.2631,0,0,0,.0518-.0684.2248.2248,0,0,0,.0342-.0518,2.2066,2.2066,0,0,1,.9316-.6582,1.82,1.82,0,0,1,1.0859-.06,1.7723,1.7723,0,0,1,.6924.376,2.459,2.459,0,0,1,.5215.6328,2.0565,2.0565,0,0,1,.2129.9316,3.5234,3.5234,0,0,1-.06.5215,1.3094,1.3094,0,0,1-.043.1621c-.0166.0518-.0312.1-.042.1455l-.1025.3252-.0176.0508a2.1182,2.1182,0,0,1,.6748.1885,1.7083,1.7083,0,0,1,.5732.4268,2,2,0,0,1,.4443,1.2314,1.8445,1.8445,0,0,1-.7012,1.4531l-.085.085q-.3589.3076-.7607.6152a10.19,10.19,0,0,1-.8467.582,3.8722,3.8722,0,0,1-1.9824.5977,2.947,2.947,0,0,1-.8213-.1191,1.8655,1.8655,0,0,1-.5723-.2314,1.6689,1.6689,0,0,1-.4531-.4014q-.2051.1714-.3936.3164t-.4268.2988h.0166a7.1058,7.1058,0,0,1-.752.4619c-.2393.125-.4678.2334-.6836.3242a2.73,2.73,0,0,1-.6152.1719A3.9575,3.9575,0,0,1,178.17,110.8493Z" style="fill: #dbdbdb"/>
      <path d="M187.265,110.8493c-.125,0-.2422-.0029-.35-.0088a1.8077,1.8077,0,0,1-.248-.0254,2.4308,2.4308,0,0,1-.8555-.4355,1.9036,1.9036,0,0,1-.5635-.7266,1.6247,1.6247,0,0,1-.1543-.4365,2.3684,2.3684,0,0,1-.0342-.4014,2.6977,2.6977,0,0,1,.0518-.53c-.1025-.0684-.2109-.1426-.3252-.2217a.91.91,0,0,1-.2559-.2568,1.8984,1.8984,0,0,1-.4111-1.1621,1.76,1.76,0,0,1,.18-.7783,2.288,2.288,0,0,1,.4873-.6582c.0576-.0566.1621-.165.3164-.3242a6.1265,6.1265,0,0,0,.4189-.4795l.3418-.376c.1592-.1709.3223-.3447.4873-.5215s.3271-.3437.4873-.5039c.1816-.1592.3418-.2959.4785-.41a4.2609,4.2609,0,0,1,.3594-.2734,2.4326,2.4326,0,0,1,1.8457-.3418,1.7807,1.7807,0,0,1,1.3164,1.1113l-.0166-.0176a2.4983,2.4983,0,0,1,.11.2988,1.812,1.812,0,0,1,.0605.3c.1592-.1709.3018-.334.4268-.4873s.2393-.2939.3418-.4189L192,102.49a.2631.2631,0,0,0,.0518-.0684.2248.2248,0,0,0,.0342-.0518,2.2066,2.2066,0,0,1,.9316-.6582,1.82,1.82,0,0,1,1.0859-.06,1.7723,1.7723,0,0,1,.6924.376,2.459,2.459,0,0,1,.5215.6328,2.0565,2.0565,0,0,1,.2129.9316,3.5234,3.5234,0,0,1-.06.5215,1.3094,1.3094,0,0,1-.043.1621c-.0166.0518-.0312.1-.042.1455l-.1025.3252-.0176.0508a2.1182,2.1182,0,0,1,.6748.1885,1.7083,1.7083,0,0,1,.5732.4268,2,2,0,0,1,.4443,1.2314,1.8445,1.8445,0,0,1-.7012,1.4531l-.085.085q-.3589.3076-.7607.6152a10.19,10.19,0,0,1-.8467.582,3.8722,3.8722,0,0,1-1.9824.5977,2.947,2.947,0,0,1-.8213-.1191,1.8655,1.8655,0,0,1-.5723-.2314,1.6689,1.6689,0,0,1-.4531-.4014q-.2051.1714-.3936.3164t-.4268.2988h.0166a7.1058,7.1058,0,0,1-.752.4619c-.2393.125-.4678.2334-.6836.3242a2.73,2.73,0,0,1-.6152.1719A3.9575,3.9575,0,0,1,187.265,110.8493Z" style="fill: #dbdbdb"/>
      <path d="M204.6683,110.8493c-.125,0-.2422-.0029-.35-.0088a1.8077,1.8077,0,0,1-.248-.0254,2.4308,2.4308,0,0,1-.8555-.4355,1.9036,1.9036,0,0,1-.5635-.7266,1.6247,1.6247,0,0,1-.1543-.4365,2.3684,2.3684,0,0,1-.0342-.4014,2.6977,2.6977,0,0,1,.0518-.53c-.1025-.0684-.2109-.1426-.3252-.2217a.91.91,0,0,1-.2559-.2568,1.8984,1.8984,0,0,1-.4111-1.1621,1.76,1.76,0,0,1,.18-.7783,2.288,2.288,0,0,1,.4873-.6582c.0576-.0566.1621-.165.3164-.3242a6.1265,6.1265,0,0,0,.4189-.4795l.3418-.376c.1592-.1709.3223-.3447.4873-.5215s.3271-.3437.4873-.5039c.1816-.1592.3418-.2959.4785-.41a4.2609,4.2609,0,0,1,.3594-.2734,2.4326,2.4326,0,0,1,1.8457-.3418,1.7807,1.7807,0,0,1,1.3164,1.1113l-.0166-.0176a2.4983,2.4983,0,0,1,.11.2988,1.812,1.812,0,0,1,.0605.3c.1592-.1709.3018-.334.4268-.4873s.2393-.2939.3418-.4189l.2393-.2734a.2631.2631,0,0,0,.0518-.0684.2248.2248,0,0,0,.0342-.0518,2.2066,2.2066,0,0,1,.9316-.6582,1.82,1.82,0,0,1,1.0859-.06,1.7723,1.7723,0,0,1,.6924.376,2.459,2.459,0,0,1,.5215.6328,2.0565,2.0565,0,0,1,.2129.9316,3.5234,3.5234,0,0,1-.06.5215,1.3094,1.3094,0,0,1-.043.1621c-.0166.0518-.0312.1-.042.1455l-.1025.3252-.0176.0508a2.1182,2.1182,0,0,1,.6748.1885,1.7083,1.7083,0,0,1,.5732.4268,2,2,0,0,1,.4443,1.2314,1.8445,1.8445,0,0,1-.7012,1.4531l-.085.085q-.3589.3076-.7607.6152a10.19,10.19,0,0,1-.8467.582,3.8722,3.8722,0,0,1-1.9824.5977,2.947,2.947,0,0,1-.8213-.1191,1.8655,1.8655,0,0,1-.5723-.2314,1.6689,1.6689,0,0,1-.4531-.4014q-.2051.1714-.3936.3164t-.4268.2988h.0166a7.1058,7.1058,0,0,1-.752.4619c-.2393.125-.4678.2334-.6836.3242a2.73,2.73,0,0,1-.6152.1719A3.9575,3.9575,0,0,1,204.6683,110.8493Z" style="fill: #dbdbdb"/>
      <path d="M218.4818,109.5671a1.9057,1.9057,0,0,1-.53-.085,1.6321,1.6321,0,0,1-.7344-.3848,1.7778,1.7778,0,0,1-.4619-.6758,1.9858,1.9858,0,0,1,.0166-1.47,5.3633,5.3633,0,0,1,.3076-.6836c.0234-.0459.0488-.0947.0771-.1455s.0605-.1055.0947-.1631c-.2627.1377-.52.2822-.77.4365s-.5078.2988-.77.4355q-.7017.4277-1.3418.7783t-1.1885.59a1.5229,1.5229,0,0,1-.6582.1533,1.7667,1.7667,0,0,1-.6406-.1191,1.7428,1.7428,0,0,1-.5557-.3506,1.6073,1.6073,0,0,1-.3848-.5557,1.5242,1.5242,0,0,1-.1543-.6582,1.7523,1.7523,0,0,1,.12-.6416,1.7217,1.7217,0,0,1,.3506-.5547,1.5853,1.5853,0,0,1,.5557-.3848q.3926-.189.9658-.5049t1.2217-.6924q.7529-.4438,1.582-.9141a16.1518,16.1518,0,0,1,1.6328-.8125,6.89,6.89,0,0,1,1.6924-.5977,4.9289,4.9289,0,0,1,1.0166-.1543,3.0855,3.0855,0,0,1,.915.1025,1.8577,1.8577,0,0,1,1.2822,1.1621,1.9069,1.9069,0,0,1,.0762,1.2656,6.1046,6.1046,0,0,1-.47,1.1621.7173.7173,0,0,1,.1113-.0254.26.26,0,0,0,.1113-.043,1.5421,1.5421,0,0,1,.6582-.0937,1.8452,1.8452,0,0,1,.6318.1621,1.6942,1.6942,0,0,1,.8809.958,1.7787,1.7787,0,0,1,.1025.6748,1.7123,1.7123,0,0,1-.1543.6328,1.6564,1.6564,0,0,1-.3848.5293,1.6345,1.6345,0,0,1-.59.3506q-.8027.2915-1.47.5215t-1.18.4023q-.7178.2051-1.1621.2988A3.9356,3.9356,0,0,1,218.4818,109.5671Z" style="fill: #dbdbdb"/>
      <path d="M223.8314,110.8493c-.125,0-.2422-.0029-.35-.0088a1.8077,1.8077,0,0,1-.248-.0254,2.4308,2.4308,0,0,1-.8555-.4355,1.9036,1.9036,0,0,1-.5635-.7266,1.6247,1.6247,0,0,1-.1543-.4365,2.3684,2.3684,0,0,1-.0342-.4014,2.6977,2.6977,0,0,1,.0518-.53c-.1025-.0684-.2109-.1426-.3252-.2217a.91.91,0,0,1-.2559-.2568,1.8984,1.8984,0,0,1-.4111-1.1621,1.76,1.76,0,0,1,.18-.7783,2.288,2.288,0,0,1,.4873-.6582c.0576-.0566.1621-.165.3164-.3242a6.1265,6.1265,0,0,0,.4189-.4795l.3418-.376c.1592-.1709.3223-.3447.4873-.5215s.3271-.3437.4873-.5039c.1816-.1592.3418-.2959.4785-.41a4.2609,4.2609,0,0,1,.3594-.2734,2.4326,2.4326,0,0,1,1.8457-.3418,1.7807,1.7807,0,0,1,1.3164,1.1113l-.0166-.0176a2.4983,2.4983,0,0,1,.11.2988,1.812,1.812,0,0,1,.0605.3c.1592-.1709.3018-.334.4268-.4873s.2393-.2939.3418-.4189l.2393-.2734a.2631.2631,0,0,0,.0518-.0684.2248.2248,0,0,0,.0342-.0518,2.2066,2.2066,0,0,1,.9316-.6582,1.82,1.82,0,0,1,1.0859-.06,1.7723,1.7723,0,0,1,.6924.376,2.459,2.459,0,0,1,.5215.6328,2.0565,2.0565,0,0,1,.2129.9316,3.5234,3.5234,0,0,1-.06.5215,1.3094,1.3094,0,0,1-.043.1621c-.0166.0518-.0312.1-.042.1455l-.1025.3252-.0176.0508a2.1182,2.1182,0,0,1,.6748.1885,1.7083,1.7083,0,0,1,.5732.4268,2,2,0,0,1,.4443,1.2314,1.8445,1.8445,0,0,1-.7012,1.4531l-.085.085q-.3589.3076-.7607.6152a10.19,10.19,0,0,1-.8467.582,3.8722,3.8722,0,0,1-1.9824.5977,2.947,2.947,0,0,1-.8213-.1191,1.8655,1.8655,0,0,1-.5723-.2314,1.6689,1.6689,0,0,1-.4531-.4014q-.2051.1714-.3936.3164t-.4268.2988h.0166a7.1058,7.1058,0,0,1-.752.4619c-.2393.125-.4678.2334-.6836.3242a2.73,2.73,0,0,1-.6152.1719A3.9575,3.9575,0,0,1,223.8314,110.8493Z" style="fill: #dbdbdb"/>
      <path d="M232.9261,110.8493c-.125,0-.2422-.0029-.35-.0088a1.8077,1.8077,0,0,1-.248-.0254,2.4308,2.4308,0,0,1-.8555-.4355,1.9036,1.9036,0,0,1-.5635-.7266,1.6247,1.6247,0,0,1-.1543-.4365,2.3684,2.3684,0,0,1-.0342-.4014,2.6977,2.6977,0,0,1,.0518-.53c-.1025-.0684-.2109-.1426-.3252-.2217a.91.91,0,0,1-.2559-.2568,1.8984,1.8984,0,0,1-.4111-1.1621,1.76,1.76,0,0,1,.18-.7783,2.288,2.288,0,0,1,.4873-.6582c.0576-.0566.1621-.165.3164-.3242a6.1265,6.1265,0,0,0,.4189-.4795l.3418-.376c.1592-.1709.3223-.3447.4873-.5215s.3271-.3437.4873-.5039c.1816-.1592.3418-.2959.4785-.41a4.2609,4.2609,0,0,1,.3594-.2734,2.4326,2.4326,0,0,1,1.8457-.3418,1.7807,1.7807,0,0,1,1.3164,1.1113l-.0166-.0176a2.4983,2.4983,0,0,1,.11.2988,1.812,1.812,0,0,1,.0605.3c.1592-.1709.3018-.334.4268-.4873s.2393-.2939.3418-.4189l.2393-.2734a.2631.2631,0,0,0,.0518-.0684.2248.2248,0,0,0,.0342-.0518,2.2066,2.2066,0,0,1,.9316-.6582,1.82,1.82,0,0,1,1.0859-.06,1.7723,1.7723,0,0,1,.6924.376,2.459,2.459,0,0,1,.5215.6328,2.0565,2.0565,0,0,1,.2129.9316,3.5234,3.5234,0,0,1-.06.5215,1.3094,1.3094,0,0,1-.043.1621c-.0166.0518-.0312.1-.042.1455l-.1025.3252-.0176.0508a2.1182,2.1182,0,0,1,.6748.1885,1.7083,1.7083,0,0,1,.5732.4268,2,2,0,0,1,.4443,1.2314,1.8445,1.8445,0,0,1-.7012,1.4531l-.085.085q-.3589.3076-.7607.6152a10.19,10.19,0,0,1-.8467.582,3.8722,3.8722,0,0,1-1.9824.5977,2.947,2.947,0,0,1-.8213-.1191,1.8655,1.8655,0,0,1-.5723-.2314,1.6689,1.6689,0,0,1-.4531-.4014q-.2051.1714-.3936.3164t-.4268.2988h.0166a7.1058,7.1058,0,0,1-.752.4619c-.2393.125-.4678.2334-.6836.3242a2.73,2.73,0,0,1-.6152.1719A3.9575,3.9575,0,0,1,232.9261,110.8493Z" style="fill: #dbdbdb"/>
      <path d="M246.74,109.5671a1.9057,1.9057,0,0,1-.53-.085,1.6321,1.6321,0,0,1-.7344-.3848,1.7778,1.7778,0,0,1-.4619-.6758,1.9858,1.9858,0,0,1,.0166-1.47,5.3633,5.3633,0,0,1,.3076-.6836c.0234-.0459.0488-.0947.0771-.1455s.0605-.1055.0947-.1631c-.2627.1377-.52.2822-.77.4365s-.5078.2988-.77.4355q-.7017.4277-1.3418.7783t-1.1885.59a1.5229,1.5229,0,0,1-.6582.1533,1.7667,1.7667,0,0,1-.6406-.1191,1.7428,1.7428,0,0,1-.5557-.3506,1.6073,1.6073,0,0,1-.3848-.5557,1.5242,1.5242,0,0,1-.1543-.6582,1.7523,1.7523,0,0,1,.12-.6416,1.7217,1.7217,0,0,1,.3506-.5547,1.5853,1.5853,0,0,1,.5557-.3848q.3926-.189.9658-.5049t1.2217-.6924q.7529-.4438,1.582-.9141a16.1518,16.1518,0,0,1,1.6328-.8125,6.89,6.89,0,0,1,1.6924-.5977,4.9289,4.9289,0,0,1,1.0166-.1543,3.0855,3.0855,0,0,1,.915.1025,1.8577,1.8577,0,0,1,1.2822,1.1621,1.9069,1.9069,0,0,1,.0762,1.2656,6.1046,6.1046,0,0,1-.47,1.1621.7173.7173,0,0,1,.1113-.0254.26.26,0,0,0,.1113-.043,1.5421,1.5421,0,0,1,.6582-.0937,1.8452,1.8452,0,0,1,.6318.1621,1.6942,1.6942,0,0,1,.8809.958,1.7787,1.7787,0,0,1,.1025.6748,1.7123,1.7123,0,0,1-.1543.6328,1.6564,1.6564,0,0,1-.3848.5293,1.6345,1.6345,0,0,1-.59.3506q-.8027.2915-1.47.5215t-1.18.4023q-.7178.2051-1.1621.2988A3.9356,3.9356,0,0,1,246.74,109.5671Z" style="fill: #dbdbdb"/>
      <path d="M252.09,110.8493c-.125,0-.2422-.0029-.35-.0088a1.8077,1.8077,0,0,1-.248-.0254,2.4308,2.4308,0,0,1-.8555-.4355,1.9036,1.9036,0,0,1-.5635-.7266,1.6247,1.6247,0,0,1-.1543-.4365,2.3684,2.3684,0,0,1-.0342-.4014,2.6977,2.6977,0,0,1,.0518-.53c-.1025-.0684-.2109-.1426-.3252-.2217a.91.91,0,0,1-.2559-.2568,1.8984,1.8984,0,0,1-.4111-1.1621,1.76,1.76,0,0,1,.18-.7783,2.288,2.288,0,0,1,.4873-.6582c.0576-.0566.1621-.165.3164-.3242a6.1265,6.1265,0,0,0,.4189-.4795l.3418-.376c.1592-.1709.3223-.3447.4873-.5215s.3271-.3437.4873-.5039c.1816-.1592.3418-.2959.4785-.41a4.2609,4.2609,0,0,1,.3594-.2734,2.4326,2.4326,0,0,1,1.8457-.3418,1.7807,1.7807,0,0,1,1.3164,1.1113l-.0166-.0176a2.4983,2.4983,0,0,1,.11.2988,1.812,1.812,0,0,1,.0605.3c.1592-.1709.3018-.334.4268-.4873s.2393-.2939.3418-.4189l.2393-.2734a.2631.2631,0,0,0,.0518-.0684.2248.2248,0,0,0,.0342-.0518,2.2066,2.2066,0,0,1,.9316-.6582,1.82,1.82,0,0,1,1.0859-.06,1.7723,1.7723,0,0,1,.6924.376,2.459,2.459,0,0,1,.5215.6328,2.0565,2.0565,0,0,1,.2129.9316,3.5234,3.5234,0,0,1-.06.5215,1.3094,1.3094,0,0,1-.043.1621c-.0166.0518-.0312.1-.042.1455l-.1025.3252-.0176.0508a2.1182,2.1182,0,0,1,.6748.1885,1.7083,1.7083,0,0,1,.5732.4268,2,2,0,0,1,.4443,1.2314,1.8445,1.8445,0,0,1-.7012,1.4531l-.085.085q-.3589.3076-.7607.6152a10.19,10.19,0,0,1-.8467.582,3.8722,3.8722,0,0,1-1.9824.5977,2.947,2.947,0,0,1-.8213-.1191,1.8655,1.8655,0,0,1-.5723-.2314,1.6689,1.6689,0,0,1-.4531-.4014q-.2051.1714-.3936.3164t-.4268.2988h.0166a7.1058,7.1058,0,0,1-.752.4619c-.2393.125-.4678.2334-.6836.3242a2.73,2.73,0,0,1-.6152.1719A3.9575,3.9575,0,0,1,252.09,110.8493Z" style="fill: #dbdbdb"/>
      <path d="M114.5091,125.3249a1.9057,1.9057,0,0,1-.53-.085,1.6321,1.6321,0,0,1-.7344-.3848,1.7778,1.7778,0,0,1-.4619-.6758,1.9858,1.9858,0,0,1,.0166-1.47,5.3633,5.3633,0,0,1,.3076-.6836c.0234-.0459.0488-.0947.0771-.1455s.0605-.1055.0947-.1631c-.2627.1377-.52.2822-.77.4365s-.5078.2988-.77.4355q-.7017.4277-1.3418.7783t-1.1885.59a1.5229,1.5229,0,0,1-.6582.1533,1.7667,1.7667,0,0,1-.6406-.1191,1.7428,1.7428,0,0,1-.5557-.3506,1.6073,1.6073,0,0,1-.3848-.5557,1.5242,1.5242,0,0,1-.1543-.6582,1.7523,1.7523,0,0,1,.12-.6416,1.7217,1.7217,0,0,1,.3506-.5547,1.5853,1.5853,0,0,1,.5557-.3848q.3926-.189.9658-.5049t1.2217-.6924q.7529-.4438,1.582-.9141a16.1517,16.1517,0,0,1,1.6328-.8125,6.89,6.89,0,0,1,1.6924-.5977,4.9289,4.9289,0,0,1,1.0166-.1543,3.0855,3.0855,0,0,1,.915.1025,1.8577,1.8577,0,0,1,1.2822,1.1621,1.9069,1.9069,0,0,1,.0762,1.2656,6.1046,6.1046,0,0,1-.47,1.1621.7173.7173,0,0,1,.1113-.0254.26.26,0,0,0,.1113-.043,1.5421,1.5421,0,0,1,.6582-.0937,1.8452,1.8452,0,0,1,.6318.1621,1.6942,1.6942,0,0,1,.8809.958,1.7787,1.7787,0,0,1,.1025.6748,1.7123,1.7123,0,0,1-.1543.6328,1.6564,1.6564,0,0,1-.3848.5293,1.6345,1.6345,0,0,1-.59.3506q-.8027.2915-1.47.5215t-1.18.4023q-.7178.2051-1.1621.2988A3.9356,3.9356,0,0,1,114.5091,125.3249Z" style="fill: #dbdbdb"/>
      <path d="M119.86,126.6071c-.125,0-.2422-.0029-.35-.0088a1.8077,1.8077,0,0,1-.248-.0254,2.4308,2.4308,0,0,1-.8555-.4355,1.9036,1.9036,0,0,1-.5635-.7266,1.6247,1.6247,0,0,1-.1543-.4365,2.3684,2.3684,0,0,1-.0342-.4014,2.6977,2.6977,0,0,1,.0518-.53c-.1025-.0684-.2109-.1426-.3252-.2217a.91.91,0,0,1-.2559-.2568,1.8984,1.8984,0,0,1-.4111-1.1621,1.76,1.76,0,0,1,.18-.7783,2.288,2.288,0,0,1,.4873-.6582c.0576-.0566.1621-.165.3164-.3242a6.1265,6.1265,0,0,0,.4189-.4795l.3418-.376c.1592-.1709.3223-.3447.4873-.5215s.3271-.3437.4873-.5039c.1816-.1592.3418-.2959.4785-.41a4.2609,4.2609,0,0,1,.3594-.2734,2.4326,2.4326,0,0,1,1.8457-.3418,1.7807,1.7807,0,0,1,1.3164,1.1113l-.0166-.0176a2.4983,2.4983,0,0,1,.11.2988,1.812,1.812,0,0,1,.0605.3c.1592-.1709.3018-.334.4268-.4873s.2393-.2939.3418-.4189l.2393-.2734a.2631.2631,0,0,0,.0518-.0684.2248.2248,0,0,0,.0342-.0518,2.2066,2.2066,0,0,1,.9316-.6582,1.82,1.82,0,0,1,1.0859-.06,1.7723,1.7723,0,0,1,.6924.376,2.459,2.459,0,0,1,.5215.6328,2.0565,2.0565,0,0,1,.2129.9316,3.5234,3.5234,0,0,1-.06.5215,1.3094,1.3094,0,0,1-.043.1621c-.0166.0518-.0312.1-.042.1455l-.1025.3252-.0176.0508a2.1182,2.1182,0,0,1,.6748.1885,1.7083,1.7083,0,0,1,.5732.4268,2,2,0,0,1,.4443,1.2314,1.8445,1.8445,0,0,1-.7012,1.4531l-.085.085q-.3589.3076-.7607.6152a10.19,10.19,0,0,1-.8467.582,3.8722,3.8722,0,0,1-1.9824.5977,2.947,2.947,0,0,1-.8213-.1191,1.8655,1.8655,0,0,1-.5723-.2314,1.6689,1.6689,0,0,1-.4531-.4014q-.2051.1714-.3936.3164t-.4268.2988h.0166a7.1058,7.1058,0,0,1-.752.4619c-.2393.125-.4678.2334-.6836.3242a2.73,2.73,0,0,1-.6152.1719A3.9575,3.9575,0,0,1,119.86,126.6071Z" style="fill: #dbdbdb"/>
      <path d="M128.9544,126.6071c-.125,0-.2422-.0029-.35-.0088a1.8077,1.8077,0,0,1-.248-.0254,2.4308,2.4308,0,0,1-.8555-.4355,1.9036,1.9036,0,0,1-.5635-.7266,1.6247,1.6247,0,0,1-.1543-.4365,2.3684,2.3684,0,0,1-.0342-.4014,2.6977,2.6977,0,0,1,.0518-.53c-.1025-.0684-.2109-.1426-.3252-.2217a.91.91,0,0,1-.2559-.2568,1.8984,1.8984,0,0,1-.4111-1.1621,1.76,1.76,0,0,1,.18-.7783,2.288,2.288,0,0,1,.4873-.6582c.0576-.0566.1621-.165.3164-.3242a6.1265,6.1265,0,0,0,.4189-.4795l.3418-.376c.1592-.1709.3223-.3447.4873-.5215s.3271-.3437.4873-.5039c.1816-.1592.3418-.2959.4785-.41a4.2609,4.2609,0,0,1,.3594-.2734,2.4326,2.4326,0,0,1,1.8457-.3418,1.7807,1.7807,0,0,1,1.3164,1.1113l-.0166-.0176a2.4983,2.4983,0,0,1,.11.2988,1.812,1.812,0,0,1,.0605.3c.1592-.1709.3018-.334.4268-.4873s.2393-.2939.3418-.4189l.2393-.2734a.2631.2631,0,0,0,.0518-.0684.2248.2248,0,0,0,.0342-.0518,2.2066,2.2066,0,0,1,.9316-.6582,1.82,1.82,0,0,1,1.0859-.06,1.7723,1.7723,0,0,1,.6924.376,2.459,2.459,0,0,1,.5215.6328,2.0565,2.0565,0,0,1,.2129.9316,3.5234,3.5234,0,0,1-.06.5215,1.3094,1.3094,0,0,1-.043.1621c-.0166.0518-.0312.1-.042.1455l-.1025.3252-.0176.0508a2.1182,2.1182,0,0,1,.6748.1885,1.7083,1.7083,0,0,1,.5732.4268,2,2,0,0,1,.4443,1.2314,1.8445,1.8445,0,0,1-.7012,1.4531l-.085.085q-.3589.3076-.7607.6152a10.19,10.19,0,0,1-.8467.582,3.8722,3.8722,0,0,1-1.9824.5977,2.947,2.947,0,0,1-.8213-.1191,1.8655,1.8655,0,0,1-.5723-.2314,1.6689,1.6689,0,0,1-.4531-.4014q-.2051.1714-.3936.3164t-.4268.2988h.0166a7.1058,7.1058,0,0,1-.752.4619c-.2393.125-.4678.2334-.6836.3242a2.73,2.73,0,0,1-.6152.1719A3.9575,3.9575,0,0,1,128.9544,126.6071Z" style="fill: #dbdbdb"/>
      <path d="M138.0482,126.6071c-.125,0-.2422-.0029-.35-.0088a1.8077,1.8077,0,0,1-.248-.0254,2.4308,2.4308,0,0,1-.8555-.4355,1.9036,1.9036,0,0,1-.5635-.7266,1.6247,1.6247,0,0,1-.1543-.4365,2.3684,2.3684,0,0,1-.0342-.4014,2.6977,2.6977,0,0,1,.0518-.53c-.1025-.0684-.2109-.1426-.3252-.2217a.91.91,0,0,1-.2559-.2568,1.8984,1.8984,0,0,1-.4111-1.1621,1.76,1.76,0,0,1,.18-.7783,2.288,2.288,0,0,1,.4873-.6582c.0576-.0566.1621-.165.3164-.3242a6.1265,6.1265,0,0,0,.4189-.4795l.3418-.376c.1592-.1709.3223-.3447.4873-.5215s.3271-.3437.4873-.5039c.1816-.1592.3418-.2959.4785-.41a4.2609,4.2609,0,0,1,.3594-.2734,2.4326,2.4326,0,0,1,1.8457-.3418,1.7807,1.7807,0,0,1,1.3164,1.1113l-.0166-.0176a2.4983,2.4983,0,0,1,.11.2988,1.812,1.812,0,0,1,.0605.3c.1592-.1709.3018-.334.4268-.4873s.2393-.2939.3418-.4189l.2393-.2734a.2631.2631,0,0,0,.0518-.0684.2248.2248,0,0,0,.0342-.0518,2.2066,2.2066,0,0,1,.9316-.6582,1.82,1.82,0,0,1,1.0859-.06,1.7723,1.7723,0,0,1,.6924.376,2.459,2.459,0,0,1,.5215.6328,2.0565,2.0565,0,0,1,.2129.9316,3.5234,3.5234,0,0,1-.06.5215,1.3094,1.3094,0,0,1-.043.1621c-.0166.0518-.0312.1-.042.1455l-.1025.3252-.0176.0508a2.1182,2.1182,0,0,1,.6748.1885,1.7083,1.7083,0,0,1,.5732.4268,2,2,0,0,1,.4443,1.2314,1.8445,1.8445,0,0,1-.7012,1.4531l-.085.085q-.3589.3076-.7607.6152a10.19,10.19,0,0,1-.8467.582,3.8722,3.8722,0,0,1-1.9824.5977,2.947,2.947,0,0,1-.8213-.1191,1.8655,1.8655,0,0,1-.5723-.2314,1.6689,1.6689,0,0,1-.4531-.4014q-.2051.1714-.3936.3164t-.4268.2988h.0166a7.1058,7.1058,0,0,1-.752.4619c-.2393.125-.4678.2334-.6836.3242a2.73,2.73,0,0,1-.6152.1719A3.9575,3.9575,0,0,1,138.0482,126.6071Z" style="fill: #dbdbdb"/>
      <path d="M151.8617,125.3249a1.9057,1.9057,0,0,1-.53-.085,1.6321,1.6321,0,0,1-.7344-.3848,1.7778,1.7778,0,0,1-.4619-.6758,1.9858,1.9858,0,0,1,.0166-1.47,5.3633,5.3633,0,0,1,.3076-.6836c.0234-.0459.0488-.0947.0771-.1455s.0605-.1055.0947-.1631c-.2627.1377-.52.2822-.77.4365s-.5078.2988-.77.4355q-.7017.4277-1.3418.7783t-1.1885.59a1.5229,1.5229,0,0,1-.6582.1533,1.7667,1.7667,0,0,1-.6406-.1191,1.7428,1.7428,0,0,1-.5557-.3506,1.6073,1.6073,0,0,1-.3848-.5557,1.5242,1.5242,0,0,1-.1543-.6582,1.7523,1.7523,0,0,1,.12-.6416,1.7217,1.7217,0,0,1,.3506-.5547,1.5853,1.5853,0,0,1,.5557-.3848q.3926-.189.9658-.5049t1.2217-.6924q.7529-.4438,1.582-.9141a16.1518,16.1518,0,0,1,1.6328-.8125,6.89,6.89,0,0,1,1.6924-.5977,4.9289,4.9289,0,0,1,1.0166-.1543,3.0855,3.0855,0,0,1,.915.1025,1.8577,1.8577,0,0,1,1.2822,1.1621,1.9069,1.9069,0,0,1,.0762,1.2656,6.1046,6.1046,0,0,1-.47,1.1621.7173.7173,0,0,1,.1113-.0254.26.26,0,0,0,.1113-.043,1.5421,1.5421,0,0,1,.6582-.0937,1.8452,1.8452,0,0,1,.6318.1621,1.6942,1.6942,0,0,1,.8809.958,1.7787,1.7787,0,0,1,.1025.6748,1.7123,1.7123,0,0,1-.1543.6328,1.6564,1.6564,0,0,1-.3848.5293,1.6345,1.6345,0,0,1-.59.3506q-.8027.2915-1.47.5215t-1.18.4023q-.7178.2051-1.1621.2988A3.9356,3.9356,0,0,1,151.8617,125.3249Z" style="fill: #dbdbdb"/>
      <path d="M157.2123,126.6071c-.125,0-.2422-.0029-.35-.0088a1.8077,1.8077,0,0,1-.248-.0254,2.4308,2.4308,0,0,1-.8555-.4355,1.9036,1.9036,0,0,1-.5635-.7266,1.6247,1.6247,0,0,1-.1543-.4365,2.3684,2.3684,0,0,1-.0342-.4014,2.6977,2.6977,0,0,1,.0518-.53c-.1025-.0684-.2109-.1426-.3252-.2217a.91.91,0,0,1-.2559-.2568,1.8984,1.8984,0,0,1-.4111-1.1621,1.76,1.76,0,0,1,.18-.7783,2.288,2.288,0,0,1,.4873-.6582c.0576-.0566.1621-.165.3164-.3242a6.1265,6.1265,0,0,0,.4189-.4795l.3418-.376c.1592-.1709.3223-.3447.4873-.5215s.3271-.3437.4873-.5039c.1816-.1592.3418-.2959.4785-.41a4.2609,4.2609,0,0,1,.3594-.2734,2.4326,2.4326,0,0,1,1.8457-.3418,1.7807,1.7807,0,0,1,1.3164,1.1113l-.0166-.0176a2.4983,2.4983,0,0,1,.11.2988,1.812,1.812,0,0,1,.0605.3c.1592-.1709.3018-.334.4268-.4873s.2393-.2939.3418-.4189l.2393-.2734a.2631.2631,0,0,0,.0518-.0684.2248.2248,0,0,0,.0342-.0518,2.2066,2.2066,0,0,1,.9316-.6582,1.82,1.82,0,0,1,1.0859-.06,1.7723,1.7723,0,0,1,.6924.376,2.459,2.459,0,0,1,.5215.6328,2.0565,2.0565,0,0,1,.2129.9316,3.5234,3.5234,0,0,1-.06.5215,1.3094,1.3094,0,0,1-.043.1621c-.0166.0518-.0312.1-.042.1455l-.1025.3252-.0176.0508a2.1182,2.1182,0,0,1,.6748.1885,1.7083,1.7083,0,0,1,.5732.4268,2,2,0,0,1,.4443,1.2314,1.8445,1.8445,0,0,1-.7012,1.4531l-.085.085q-.3589.3076-.7607.6152a10.19,10.19,0,0,1-.8467.582,3.8722,3.8722,0,0,1-1.9824.5977,2.947,2.947,0,0,1-.8213-.1191,1.8655,1.8655,0,0,1-.5723-.2314,1.6689,1.6689,0,0,1-.4531-.4014q-.2051.1714-.3936.3164t-.4268.2988h.0166a7.1058,7.1058,0,0,1-.752.4619c-.2393.125-.4678.2334-.6836.3242a2.73,2.73,0,0,1-.6152.1719A3.9575,3.9575,0,0,1,157.2123,126.6071Z" style="fill: #dbdbdb"/>
      <path d="M166.307,126.6071c-.125,0-.2422-.0029-.35-.0088a1.8077,1.8077,0,0,1-.248-.0254,2.4308,2.4308,0,0,1-.8555-.4355,1.9036,1.9036,0,0,1-.5635-.7266,1.6247,1.6247,0,0,1-.1543-.4365,2.3684,2.3684,0,0,1-.0342-.4014,2.6977,2.6977,0,0,1,.0518-.53c-.1025-.0684-.2109-.1426-.3252-.2217a.91.91,0,0,1-.2559-.2568,1.8984,1.8984,0,0,1-.4111-1.1621,1.76,1.76,0,0,1,.18-.7783,2.288,2.288,0,0,1,.4873-.6582c.0576-.0566.1621-.165.3164-.3242a6.1265,6.1265,0,0,0,.4189-.4795l.3418-.376c.1592-.1709.3223-.3447.4873-.5215s.3271-.3437.4873-.5039c.1816-.1592.3418-.2959.4785-.41a4.2609,4.2609,0,0,1,.3594-.2734,2.4326,2.4326,0,0,1,1.8457-.3418,1.7807,1.7807,0,0,1,1.3164,1.1113l-.0166-.0176a2.4983,2.4983,0,0,1,.11.2988,1.812,1.812,0,0,1,.0605.3c.1592-.1709.3018-.334.4268-.4873s.2393-.2939.3418-.4189l.2393-.2734a.2631.2631,0,0,0,.0518-.0684.2248.2248,0,0,0,.0342-.0518,2.2066,2.2066,0,0,1,.9316-.6582,1.82,1.82,0,0,1,1.0859-.06,1.7723,1.7723,0,0,1,.6924.376,2.459,2.459,0,0,1,.5215.6328,2.0565,2.0565,0,0,1,.2129.9316,3.5234,3.5234,0,0,1-.06.5215,1.3094,1.3094,0,0,1-.043.1621c-.0166.0518-.0312.1-.042.1455l-.1025.3252-.0176.0508a2.1182,2.1182,0,0,1,.6748.1885,1.7083,1.7083,0,0,1,.5732.4268A2,2,0,0,1,176,122.402a1.8445,1.8445,0,0,1-.7012,1.4531l-.085.085q-.3589.3076-.7607.6152a10.19,10.19,0,0,1-.8467.582,3.8722,3.8722,0,0,1-1.9824.5977,2.947,2.947,0,0,1-.8213-.1191,1.8655,1.8655,0,0,1-.5723-.2314,1.6689,1.6689,0,0,1-.4531-.4014q-.2051.1714-.3936.3164t-.4268.2988h.0166a7.1058,7.1058,0,0,1-.752.4619c-.2393.125-.4678.2334-.6836.3242a2.73,2.73,0,0,1-.6152.1719A3.9575,3.9575,0,0,1,166.307,126.6071Z" style="fill: #dbdbdb"/>
      <path d="M180.12,125.3249a1.9057,1.9057,0,0,1-.53-.085,1.6321,1.6321,0,0,1-.7344-.3848,1.7778,1.7778,0,0,1-.4619-.6758,1.9858,1.9858,0,0,1,.0166-1.47,5.3633,5.3633,0,0,1,.3076-.6836c.0234-.0459.0488-.0947.0771-.1455s.0605-.1055.0947-.1631c-.2627.1377-.52.2822-.77.4365s-.5078.2988-.77.4355q-.7017.4277-1.3418.7783t-1.1885.59a1.5229,1.5229,0,0,1-.6582.1533,1.7667,1.7667,0,0,1-.6406-.1191,1.7428,1.7428,0,0,1-.5557-.3506,1.6073,1.6073,0,0,1-.3848-.5557,1.5242,1.5242,0,0,1-.1543-.6582,1.7523,1.7523,0,0,1,.12-.6416,1.7217,1.7217,0,0,1,.3506-.5547,1.5853,1.5853,0,0,1,.5557-.3848q.3926-.189.9658-.5049t1.2217-.6924q.7529-.4438,1.582-.9141a16.1518,16.1518,0,0,1,1.6328-.8125,6.89,6.89,0,0,1,1.6924-.5977,4.9289,4.9289,0,0,1,1.0166-.1543,3.0855,3.0855,0,0,1,.915.1025,1.8577,1.8577,0,0,1,1.2822,1.1621,1.9069,1.9069,0,0,1,.0762,1.2656,6.1046,6.1046,0,0,1-.47,1.1621.7173.7173,0,0,1,.1113-.0254.26.26,0,0,0,.1113-.043,1.5421,1.5421,0,0,1,.6582-.0937,1.8452,1.8452,0,0,1,.6318.1621,1.6942,1.6942,0,0,1,.8809.958,1.7787,1.7787,0,0,1,.1025.6748,1.7123,1.7123,0,0,1-.1543.6328,1.6564,1.6564,0,0,1-.3848.5293,1.6345,1.6345,0,0,1-.59.3506q-.8027.2915-1.47.5215t-1.18.4023q-.7178.2051-1.1621.2988A3.9356,3.9356,0,0,1,180.12,125.3249Z" style="fill: #dbdbdb"/>
      <path d="M185.47,126.6071c-.125,0-.2422-.0029-.35-.0088a1.8077,1.8077,0,0,1-.248-.0254,2.4308,2.4308,0,0,1-.8555-.4355,1.9036,1.9036,0,0,1-.5635-.7266,1.6247,1.6247,0,0,1-.1543-.4365,2.3684,2.3684,0,0,1-.0342-.4014,2.6977,2.6977,0,0,1,.0518-.53c-.1025-.0684-.2109-.1426-.3252-.2217a.91.91,0,0,1-.2559-.2568,1.8984,1.8984,0,0,1-.4111-1.1621,1.76,1.76,0,0,1,.18-.7783,2.288,2.288,0,0,1,.4873-.6582c.0576-.0566.1621-.165.3164-.3242a6.1265,6.1265,0,0,0,.4189-.4795l.3418-.376c.1592-.1709.3223-.3447.4873-.5215s.3271-.3437.4873-.5039c.1816-.1592.3418-.2959.4785-.41a4.2609,4.2609,0,0,1,.3594-.2734,2.4326,2.4326,0,0,1,1.8457-.3418,1.7807,1.7807,0,0,1,1.3164,1.1113l-.0166-.0176a2.4983,2.4983,0,0,1,.11.2988,1.812,1.812,0,0,1,.0605.3c.1592-.1709.3018-.334.4268-.4873s.2393-.2939.3418-.4189l.2393-.2734a.2631.2631,0,0,0,.0518-.0684.2248.2248,0,0,0,.0342-.0518,2.2066,2.2066,0,0,1,.9316-.6582,1.82,1.82,0,0,1,1.0859-.06,1.7723,1.7723,0,0,1,.6924.376,2.459,2.459,0,0,1,.5215.6328,2.0565,2.0565,0,0,1,.2129.9316,3.5234,3.5234,0,0,1-.06.5215,1.3094,1.3094,0,0,1-.043.1621c-.0166.0518-.0312.1-.042.1455l-.1025.3252-.0176.0508a2.1182,2.1182,0,0,1,.6748.1885,1.7083,1.7083,0,0,1,.5732.4268,2,2,0,0,1,.4443,1.2314,1.8445,1.8445,0,0,1-.7012,1.4531l-.085.085q-.3589.3076-.7607.6152a10.19,10.19,0,0,1-.8467.582,3.8722,3.8722,0,0,1-1.9824.5977,2.947,2.947,0,0,1-.8213-.1191,1.8655,1.8655,0,0,1-.5723-.2314,1.6689,1.6689,0,0,1-.4531-.4014q-.2051.1714-.3936.3164t-.4268.2988h.0166a7.1058,7.1058,0,0,1-.752.4619c-.2393.125-.4678.2334-.6836.3242a2.73,2.73,0,0,1-.6152.1719A3.9575,3.9575,0,0,1,185.47,126.6071Z" style="fill: #dbdbdb"/>
      <path d="M194.5648,126.6071c-.125,0-.2422-.0029-.35-.0088a1.8077,1.8077,0,0,1-.248-.0254,2.4308,2.4308,0,0,1-.8555-.4355,1.9036,1.9036,0,0,1-.5635-.7266,1.6247,1.6247,0,0,1-.1543-.4365,2.3684,2.3684,0,0,1-.0342-.4014,2.6977,2.6977,0,0,1,.0518-.53c-.1025-.0684-.2109-.1426-.3252-.2217a.91.91,0,0,1-.2559-.2568,1.8984,1.8984,0,0,1-.4111-1.1621,1.76,1.76,0,0,1,.18-.7783,2.288,2.288,0,0,1,.4873-.6582c.0576-.0566.1621-.165.3164-.3242a6.1265,6.1265,0,0,0,.4189-.4795l.3418-.376c.1592-.1709.3223-.3447.4873-.5215s.3271-.3437.4873-.5039c.1816-.1592.3418-.2959.4785-.41a4.2609,4.2609,0,0,1,.3594-.2734,2.4326,2.4326,0,0,1,1.8457-.3418,1.7807,1.7807,0,0,1,1.3164,1.1113l-.0166-.0176a2.4983,2.4983,0,0,1,.11.2988,1.812,1.812,0,0,1,.0605.3c.1592-.1709.3018-.334.4268-.4873s.2393-.2939.3418-.4189l.2393-.2734a.2631.2631,0,0,0,.0518-.0684.2248.2248,0,0,0,.0342-.0518,2.2066,2.2066,0,0,1,.9316-.6582,1.82,1.82,0,0,1,1.0859-.06,1.7723,1.7723,0,0,1,.6924.376,2.459,2.459,0,0,1,.5215.6328,2.0565,2.0565,0,0,1,.2129.9316,3.5234,3.5234,0,0,1-.06.5215,1.3094,1.3094,0,0,1-.043.1621c-.0166.0518-.0312.1-.042.1455l-.1025.3252-.0176.0508a2.1182,2.1182,0,0,1,.6748.1885,1.7083,1.7083,0,0,1,.5732.4268,2,2,0,0,1,.4443,1.2314,1.8445,1.8445,0,0,1-.7012,1.4531l-.085.085q-.3589.3076-.7607.6152a10.19,10.19,0,0,1-.8467.582,3.8722,3.8722,0,0,1-1.9824.5977,2.947,2.947,0,0,1-.8213-.1191,1.8655,1.8655,0,0,1-.5723-.2314,1.6689,1.6689,0,0,1-.4531-.4014q-.2051.1714-.3936.3164t-.4268.2988h.0166a7.1058,7.1058,0,0,1-.752.4619c-.2393.125-.4678.2334-.6836.3242a2.73,2.73,0,0,1-.6152.1719A3.9575,3.9575,0,0,1,194.5648,126.6071Z" style="fill: #dbdbdb"/>
      <path d="M203.66,126.6071c-.125,0-.2422-.0029-.35-.0088a1.8077,1.8077,0,0,1-.248-.0254,2.4308,2.4308,0,0,1-.8555-.4355,1.9036,1.9036,0,0,1-.5635-.7266,1.6247,1.6247,0,0,1-.1543-.4365,2.3684,2.3684,0,0,1-.0342-.4014,2.6977,2.6977,0,0,1,.0518-.53c-.1025-.0684-.2109-.1426-.3252-.2217a.91.91,0,0,1-.2559-.2568,1.8984,1.8984,0,0,1-.4111-1.1621,1.76,1.76,0,0,1,.18-.7783,2.288,2.288,0,0,1,.4873-.6582c.0576-.0566.1621-.165.3164-.3242a6.1265,6.1265,0,0,0,.4189-.4795l.3418-.376c.1592-.1709.3223-.3447.4873-.5215s.3271-.3437.4873-.5039c.1816-.1592.3418-.2959.4785-.41a4.2609,4.2609,0,0,1,.3594-.2734,2.4326,2.4326,0,0,1,1.8457-.3418,1.7807,1.7807,0,0,1,1.3164,1.1113l-.0166-.0176a2.4983,2.4983,0,0,1,.11.2988,1.812,1.812,0,0,1,.0605.3c.1592-.1709.3018-.334.4268-.4873s.2393-.2939.3418-.4189l.2393-.2734a.2631.2631,0,0,0,.0518-.0684.2248.2248,0,0,0,.0342-.0518,2.2066,2.2066,0,0,1,.9316-.6582,1.82,1.82,0,0,1,1.0859-.06,1.7723,1.7723,0,0,1,.6924.376,2.459,2.459,0,0,1,.5215.6328,2.0565,2.0565,0,0,1,.2129.9316,3.5234,3.5234,0,0,1-.06.5215,1.3094,1.3094,0,0,1-.043.1621c-.0166.0518-.0312.1-.042.1455l-.1025.3252-.0176.0508a2.1182,2.1182,0,0,1,.6748.1885,1.7083,1.7083,0,0,1,.5732.4268,2,2,0,0,1,.4443,1.2314,1.8445,1.8445,0,0,1-.7012,1.4531l-.085.085q-.3589.3076-.7607.6152a10.19,10.19,0,0,1-.8467.582,3.8722,3.8722,0,0,1-1.9824.5977,2.947,2.947,0,0,1-.8213-.1191,1.8655,1.8655,0,0,1-.5723-.2314,1.6689,1.6689,0,0,1-.4531-.4014q-.2051.1714-.3936.3164t-.4268.2988h.0166a7.1058,7.1058,0,0,1-.752.4619c-.2393.125-.4678.2334-.6836.3242a2.73,2.73,0,0,1-.6152.1719A3.9575,3.9575,0,0,1,203.66,126.6071Z" style="fill: #dbdbdb"/>
      <path d="M114.5091,141.0827a1.9057,1.9057,0,0,1-.53-.085,1.6321,1.6321,0,0,1-.7344-.3848,1.7778,1.7778,0,0,1-.4619-.6758,1.9858,1.9858,0,0,1,.0166-1.47,5.3633,5.3633,0,0,1,.3076-.6836c.0234-.0459.0488-.0947.0771-.1455s.0605-.1055.0947-.1631c-.2627.1377-.52.2822-.77.4365s-.5078.2988-.77.4355q-.7017.4277-1.3418.7783t-1.1885.59a1.5229,1.5229,0,0,1-.6582.1533,1.7667,1.7667,0,0,1-.6406-.1191,1.7428,1.7428,0,0,1-.5557-.3506,1.6073,1.6073,0,0,1-.3848-.5557,1.5242,1.5242,0,0,1-.1543-.6582,1.7523,1.7523,0,0,1,.12-.6416,1.7217,1.7217,0,0,1,.3506-.5547,1.5853,1.5853,0,0,1,.5557-.3848q.3926-.189.9658-.5049t1.2217-.6924q.7529-.4438,1.582-.9141a16.1517,16.1517,0,0,1,1.6328-.8125,6.89,6.89,0,0,1,1.6924-.5977,4.9289,4.9289,0,0,1,1.0166-.1543,3.0855,3.0855,0,0,1,.915.1025,1.8577,1.8577,0,0,1,1.2822,1.1621,1.9069,1.9069,0,0,1,.0762,1.2656,6.1046,6.1046,0,0,1-.47,1.1621.7173.7173,0,0,1,.1113-.0254.26.26,0,0,0,.1113-.043,1.5421,1.5421,0,0,1,.6582-.0937,1.8452,1.8452,0,0,1,.6318.1621,1.6942,1.6942,0,0,1,.8809.958,1.7787,1.7787,0,0,1,.1025.6748,1.7123,1.7123,0,0,1-.1543.6328,1.6564,1.6564,0,0,1-.3848.5293,1.6345,1.6345,0,0,1-.59.3506q-.8027.2915-1.47.5215t-1.18.4023q-.7178.2051-1.1621.2988A3.9356,3.9356,0,0,1,114.5091,141.0827Z" style="fill: #dbdbdb"/>
      <path d="M119.86,142.3649c-.125,0-.2422-.0029-.35-.0088a1.8077,1.8077,0,0,1-.248-.0254,2.4308,2.4308,0,0,1-.8555-.4355,1.9036,1.9036,0,0,1-.5635-.7266,1.6247,1.6247,0,0,1-.1543-.4365,2.3684,2.3684,0,0,1-.0342-.4014,2.6977,2.6977,0,0,1,.0518-.53c-.1025-.0684-.2109-.1426-.3252-.2217a.91.91,0,0,1-.2559-.2568,1.8984,1.8984,0,0,1-.4111-1.1621,1.76,1.76,0,0,1,.18-.7783,2.288,2.288,0,0,1,.4873-.6582c.0576-.0566.1621-.165.3164-.3242a6.1265,6.1265,0,0,0,.4189-.4795l.3418-.376c.1592-.1709.3223-.3447.4873-.5215s.3271-.3437.4873-.5039c.1816-.1592.3418-.2959.4785-.41a4.2609,4.2609,0,0,1,.3594-.2734,2.4326,2.4326,0,0,1,1.8457-.3418,1.7807,1.7807,0,0,1,1.3164,1.1113l-.0166-.0176a2.4983,2.4983,0,0,1,.11.2988,1.812,1.812,0,0,1,.0605.3c.1592-.1709.3018-.334.4268-.4873s.2393-.2939.3418-.4189l.2393-.2734a.2631.2631,0,0,0,.0518-.0684.2248.2248,0,0,0,.0342-.0518,2.2066,2.2066,0,0,1,.9316-.6582,1.82,1.82,0,0,1,1.0859-.06,1.7723,1.7723,0,0,1,.6924.376,2.459,2.459,0,0,1,.5215.6328,2.0565,2.0565,0,0,1,.2129.9316,3.5234,3.5234,0,0,1-.06.5215,1.3094,1.3094,0,0,1-.043.1621c-.0166.0518-.0312.1-.042.1455l-.1025.3252-.0176.0508a2.1182,2.1182,0,0,1,.6748.1885,1.7083,1.7083,0,0,1,.5732.4268,2,2,0,0,1,.4443,1.2314,1.8445,1.8445,0,0,1-.7012,1.4531l-.085.085q-.3589.3076-.7607.6152a10.19,10.19,0,0,1-.8467.582,3.8722,3.8722,0,0,1-1.9824.5977,2.947,2.947,0,0,1-.8213-.1191,1.8655,1.8655,0,0,1-.5723-.2314,1.6689,1.6689,0,0,1-.4531-.4014q-.2051.1714-.3936.3164t-.4268.2988h.0166a7.1058,7.1058,0,0,1-.752.4619c-.2393.125-.4678.2334-.6836.3242a2.73,2.73,0,0,1-.6152.1719A3.9575,3.9575,0,0,1,119.86,142.3649Z" style="fill: #dbdbdb"/>
      <path d="M128.9544,142.3649c-.125,0-.2422-.0029-.35-.0088a1.8077,1.8077,0,0,1-.248-.0254,2.4308,2.4308,0,0,1-.8555-.4355,1.9036,1.9036,0,0,1-.5635-.7266,1.6247,1.6247,0,0,1-.1543-.4365,2.3684,2.3684,0,0,1-.0342-.4014,2.6977,2.6977,0,0,1,.0518-.53c-.1025-.0684-.2109-.1426-.3252-.2217a.91.91,0,0,1-.2559-.2568,1.8984,1.8984,0,0,1-.4111-1.1621,1.76,1.76,0,0,1,.18-.7783,2.288,2.288,0,0,1,.4873-.6582c.0576-.0566.1621-.165.3164-.3242a6.1265,6.1265,0,0,0,.4189-.4795l.3418-.376c.1592-.1709.3223-.3447.4873-.5215s.3271-.3437.4873-.5039c.1816-.1592.3418-.2959.4785-.41a4.2609,4.2609,0,0,1,.3594-.2734,2.4326,2.4326,0,0,1,1.8457-.3418,1.7807,1.7807,0,0,1,1.3164,1.1113l-.0166-.0176a2.4983,2.4983,0,0,1,.11.2988,1.812,1.812,0,0,1,.0605.3c.1592-.1709.3018-.334.4268-.4873s.2393-.2939.3418-.4189l.2393-.2734a.2631.2631,0,0,0,.0518-.0684.2248.2248,0,0,0,.0342-.0518,2.2066,2.2066,0,0,1,.9316-.6582,1.82,1.82,0,0,1,1.0859-.06,1.7723,1.7723,0,0,1,.6924.376,2.459,2.459,0,0,1,.5215.6328,2.0565,2.0565,0,0,1,.2129.9316,3.5234,3.5234,0,0,1-.06.5215,1.3094,1.3094,0,0,1-.043.1621c-.0166.0518-.0312.1-.042.1455l-.1025.3252-.0176.0508a2.1182,2.1182,0,0,1,.6748.1885,1.7083,1.7083,0,0,1,.5732.4268,2,2,0,0,1,.4443,1.2314,1.8445,1.8445,0,0,1-.7012,1.4531l-.085.085q-.3589.3076-.7607.6152a10.19,10.19,0,0,1-.8467.582,3.8722,3.8722,0,0,1-1.9824.5977,2.947,2.947,0,0,1-.8213-.1191,1.8655,1.8655,0,0,1-.5723-.2314,1.6689,1.6689,0,0,1-.4531-.4014q-.2051.1714-.3936.3164t-.4268.2988h.0166a7.1058,7.1058,0,0,1-.752.4619c-.2393.125-.4678.2334-.6836.3242a2.73,2.73,0,0,1-.6152.1719A3.9575,3.9575,0,0,1,128.9544,142.3649Z" style="fill: #dbdbdb"/>
      <path d="M138.0482,142.3649c-.125,0-.2422-.0029-.35-.0088a1.8077,1.8077,0,0,1-.248-.0254,2.4308,2.4308,0,0,1-.8555-.4355,1.9036,1.9036,0,0,1-.5635-.7266,1.6247,1.6247,0,0,1-.1543-.4365,2.3684,2.3684,0,0,1-.0342-.4014,2.6977,2.6977,0,0,1,.0518-.53c-.1025-.0684-.2109-.1426-.3252-.2217a.91.91,0,0,1-.2559-.2568,1.8984,1.8984,0,0,1-.4111-1.1621,1.76,1.76,0,0,1,.18-.7783,2.288,2.288,0,0,1,.4873-.6582c.0576-.0566.1621-.165.3164-.3242a6.1265,6.1265,0,0,0,.4189-.4795l.3418-.376c.1592-.1709.3223-.3447.4873-.5215s.3271-.3437.4873-.5039c.1816-.1592.3418-.2959.4785-.41a4.2609,4.2609,0,0,1,.3594-.2734,2.4326,2.4326,0,0,1,1.8457-.3418,1.7807,1.7807,0,0,1,1.3164,1.1113l-.0166-.0176a2.4983,2.4983,0,0,1,.11.2988,1.812,1.812,0,0,1,.0605.3c.1592-.1709.3018-.334.4268-.4873s.2393-.2939.3418-.4189l.2393-.2734a.2631.2631,0,0,0,.0518-.0684.2248.2248,0,0,0,.0342-.0518,2.2066,2.2066,0,0,1,.9316-.6582,1.82,1.82,0,0,1,1.0859-.06,1.7723,1.7723,0,0,1,.6924.376,2.459,2.459,0,0,1,.5215.6328,2.0565,2.0565,0,0,1,.2129.9316,3.5234,3.5234,0,0,1-.06.5215,1.3094,1.3094,0,0,1-.043.1621c-.0166.0518-.0312.1-.042.1455l-.1025.3252-.0176.0508a2.1182,2.1182,0,0,1,.6748.1885,1.7083,1.7083,0,0,1,.5732.4268,2,2,0,0,1,.4443,1.2314,1.8445,1.8445,0,0,1-.7012,1.4531l-.085.085q-.3589.3076-.7607.6152a10.19,10.19,0,0,1-.8467.582,3.8722,3.8722,0,0,1-1.9824.5977,2.947,2.947,0,0,1-.8213-.1191,1.8655,1.8655,0,0,1-.5723-.2314,1.6689,1.6689,0,0,1-.4531-.4014q-.2051.1714-.3936.3164t-.4268.2988h.0166a7.1058,7.1058,0,0,1-.752.4619c-.2393.125-.4678.2334-.6836.3242a2.73,2.73,0,0,1-.6152.1719A3.9575,3.9575,0,0,1,138.0482,142.3649Z" style="fill: #dbdbdb"/>
      <path d="M151.8617,141.0827a1.9057,1.9057,0,0,1-.53-.085,1.6321,1.6321,0,0,1-.7344-.3848,1.7778,1.7778,0,0,1-.4619-.6758,1.9858,1.9858,0,0,1,.0166-1.47,5.3633,5.3633,0,0,1,.3076-.6836c.0234-.0459.0488-.0947.0771-.1455s.0605-.1055.0947-.1631c-.2627.1377-.52.2822-.77.4365s-.5078.2988-.77.4355q-.7017.4277-1.3418.7783t-1.1885.59a1.5229,1.5229,0,0,1-.6582.1533,1.7667,1.7667,0,0,1-.6406-.1191,1.7428,1.7428,0,0,1-.5557-.3506,1.6073,1.6073,0,0,1-.3848-.5557,1.5242,1.5242,0,0,1-.1543-.6582,1.7523,1.7523,0,0,1,.12-.6416,1.7217,1.7217,0,0,1,.3506-.5547,1.5853,1.5853,0,0,1,.5557-.3848q.3926-.189.9658-.5049t1.2217-.6924q.7529-.4438,1.582-.9141a16.1518,16.1518,0,0,1,1.6328-.8125,6.89,6.89,0,0,1,1.6924-.5977,4.9289,4.9289,0,0,1,1.0166-.1543,3.0855,3.0855,0,0,1,.915.1025,1.8577,1.8577,0,0,1,1.2822,1.1621,1.9069,1.9069,0,0,1,.0762,1.2656,6.1046,6.1046,0,0,1-.47,1.1621.7173.7173,0,0,1,.1113-.0254.26.26,0,0,0,.1113-.043,1.5421,1.5421,0,0,1,.6582-.0937,1.8452,1.8452,0,0,1,.6318.1621,1.6942,1.6942,0,0,1,.8809.958,1.7787,1.7787,0,0,1,.1025.6748,1.7123,1.7123,0,0,1-.1543.6328,1.6564,1.6564,0,0,1-.3848.5293,1.6345,1.6345,0,0,1-.59.3506q-.8027.2915-1.47.5215t-1.18.4023q-.7178.2051-1.1621.2988A3.9356,3.9356,0,0,1,151.8617,141.0827Z" style="fill: #dbdbdb"/>
      <path d="M157.2123,142.3649c-.125,0-.2422-.0029-.35-.0088a1.8077,1.8077,0,0,1-.248-.0254,2.4308,2.4308,0,0,1-.8555-.4355,1.9036,1.9036,0,0,1-.5635-.7266,1.6247,1.6247,0,0,1-.1543-.4365,2.3684,2.3684,0,0,1-.0342-.4014,2.6977,2.6977,0,0,1,.0518-.53c-.1025-.0684-.2109-.1426-.3252-.2217a.91.91,0,0,1-.2559-.2568,1.8984,1.8984,0,0,1-.4111-1.1621,1.76,1.76,0,0,1,.18-.7783,2.288,2.288,0,0,1,.4873-.6582c.0576-.0566.1621-.165.3164-.3242a6.1265,6.1265,0,0,0,.4189-.4795l.3418-.376c.1592-.1709.3223-.3447.4873-.5215s.3271-.3437.4873-.5039c.1816-.1592.3418-.2959.4785-.41a4.2609,4.2609,0,0,1,.3594-.2734,2.4326,2.4326,0,0,1,1.8457-.3418,1.7807,1.7807,0,0,1,1.3164,1.1113l-.0166-.0176a2.4983,2.4983,0,0,1,.11.2988,1.812,1.812,0,0,1,.0605.3c.1592-.1709.3018-.334.4268-.4873s.2393-.2939.3418-.4189l.2393-.2734a.2631.2631,0,0,0,.0518-.0684.2248.2248,0,0,0,.0342-.0518,2.2066,2.2066,0,0,1,.9316-.6582,1.82,1.82,0,0,1,1.0859-.06,1.7723,1.7723,0,0,1,.6924.376,2.459,2.459,0,0,1,.5215.6328,2.0565,2.0565,0,0,1,.2129.9316,3.5234,3.5234,0,0,1-.06.5215,1.3094,1.3094,0,0,1-.043.1621c-.0166.0518-.0312.1-.042.1455l-.1025.3252-.0176.0508a2.1182,2.1182,0,0,1,.6748.1885,1.7083,1.7083,0,0,1,.5732.4268,2,2,0,0,1,.4443,1.2314,1.8445,1.8445,0,0,1-.7012,1.4531l-.085.085q-.3589.3076-.7607.6152a10.19,10.19,0,0,1-.8467.582,3.8722,3.8722,0,0,1-1.9824.5977,2.947,2.947,0,0,1-.8213-.1191,1.8655,1.8655,0,0,1-.5723-.2314,1.6689,1.6689,0,0,1-.4531-.4014q-.2051.1714-.3936.3164t-.4268.2988h.0166a7.1058,7.1058,0,0,1-.752.4619c-.2393.125-.4678.2334-.6836.3242a2.73,2.73,0,0,1-.6152.1719A3.9575,3.9575,0,0,1,157.2123,142.3649Z" style="fill: #dbdbdb"/>
      <path d="M166.307,142.3649c-.125,0-.2422-.0029-.35-.0088a1.8077,1.8077,0,0,1-.248-.0254,2.4308,2.4308,0,0,1-.8555-.4355,1.9036,1.9036,0,0,1-.5635-.7266,1.6247,1.6247,0,0,1-.1543-.4365,2.3684,2.3684,0,0,1-.0342-.4014,2.6977,2.6977,0,0,1,.0518-.53c-.1025-.0684-.2109-.1426-.3252-.2217a.91.91,0,0,1-.2559-.2568,1.8984,1.8984,0,0,1-.4111-1.1621,1.76,1.76,0,0,1,.18-.7783,2.288,2.288,0,0,1,.4873-.6582c.0576-.0566.1621-.165.3164-.3242a6.1265,6.1265,0,0,0,.4189-.4795l.3418-.376c.1592-.1709.3223-.3447.4873-.5215s.3271-.3437.4873-.5039c.1816-.1592.3418-.2959.4785-.41a4.2609,4.2609,0,0,1,.3594-.2734,2.4326,2.4326,0,0,1,1.8457-.3418,1.7807,1.7807,0,0,1,1.3164,1.1113l-.0166-.0176a2.4983,2.4983,0,0,1,.11.2988,1.812,1.812,0,0,1,.0605.3c.1592-.1709.3018-.334.4268-.4873s.2393-.2939.3418-.4189l.2393-.2734a.2631.2631,0,0,0,.0518-.0684.2248.2248,0,0,0,.0342-.0518,2.2066,2.2066,0,0,1,.9316-.6582,1.82,1.82,0,0,1,1.0859-.06,1.7723,1.7723,0,0,1,.6924.376,2.459,2.459,0,0,1,.5215.6328,2.0565,2.0565,0,0,1,.2129.9316,3.5234,3.5234,0,0,1-.06.5215,1.3094,1.3094,0,0,1-.043.1621c-.0166.0518-.0312.1-.042.1455l-.1025.3252-.0176.0508a2.1182,2.1182,0,0,1,.6748.1885,1.7083,1.7083,0,0,1,.5732.4268A2,2,0,0,1,176,138.16a1.8445,1.8445,0,0,1-.7012,1.4531l-.085.085q-.3589.3076-.7607.6152a10.19,10.19,0,0,1-.8467.582,3.8722,3.8722,0,0,1-1.9824.5977,2.947,2.947,0,0,1-.8213-.1191,1.8655,1.8655,0,0,1-.5723-.2314,1.6689,1.6689,0,0,1-.4531-.4014q-.2051.1714-.3936.3164t-.4268.2988h.0166a7.1058,7.1058,0,0,1-.752.4619c-.2393.125-.4678.2334-.6836.3242a2.73,2.73,0,0,1-.6152.1719A3.9575,3.9575,0,0,1,166.307,142.3649Z" style="fill: #dbdbdb"/>
      <path d="M114.5091,156.8405a1.9057,1.9057,0,0,1-.53-.085,1.6321,1.6321,0,0,1-.7344-.3848,1.7778,1.7778,0,0,1-.4619-.6758,1.9858,1.9858,0,0,1,.0166-1.47,5.3633,5.3633,0,0,1,.3076-.6836c.0234-.0459.0488-.0947.0771-.1455s.0605-.1055.0947-.1631c-.2627.1377-.52.2822-.77.4365s-.5078.2988-.77.4355q-.7017.4277-1.3418.7783t-1.1885.59a1.5229,1.5229,0,0,1-.6582.1533,1.7667,1.7667,0,0,1-.6406-.1191,1.7428,1.7428,0,0,1-.5557-.3506,1.6073,1.6073,0,0,1-.3848-.5557,1.5242,1.5242,0,0,1-.1543-.6582,1.7523,1.7523,0,0,1,.12-.6416,1.7217,1.7217,0,0,1,.3506-.5547,1.5853,1.5853,0,0,1,.5557-.3848q.3926-.189.9658-.5049t1.2217-.6924q.7529-.4438,1.582-.9141a16.1517,16.1517,0,0,1,1.6328-.8125,6.89,6.89,0,0,1,1.6924-.5977,4.9289,4.9289,0,0,1,1.0166-.1543,3.0855,3.0855,0,0,1,.915.1025,1.8577,1.8577,0,0,1,1.2822,1.1621,1.9069,1.9069,0,0,1,.0762,1.2656,6.1046,6.1046,0,0,1-.47,1.1621.7173.7173,0,0,1,.1113-.0254.26.26,0,0,0,.1113-.043,1.5421,1.5421,0,0,1,.6582-.0937,1.8452,1.8452,0,0,1,.6318.1621,1.6942,1.6942,0,0,1,.8809.958,1.7787,1.7787,0,0,1,.1025.6748,1.7123,1.7123,0,0,1-.1543.6328,1.6564,1.6564,0,0,1-.3848.5293,1.6345,1.6345,0,0,1-.59.3506q-.8027.2915-1.47.5215t-1.18.4023q-.7178.2051-1.1621.2988A3.9356,3.9356,0,0,1,114.5091,156.8405Z" style="fill: #dbdbdb"/>
      <path d="M119.86,158.1227c-.125,0-.2422-.0029-.35-.0088a1.8077,1.8077,0,0,1-.248-.0254,2.4308,2.4308,0,0,1-.8555-.4355,1.9036,1.9036,0,0,1-.5635-.7266,1.6247,1.6247,0,0,1-.1543-.4365,2.3684,2.3684,0,0,1-.0342-.4014,2.6977,2.6977,0,0,1,.0518-.53c-.1025-.0684-.2109-.1426-.3252-.2217a.91.91,0,0,1-.2559-.2568,1.8984,1.8984,0,0,1-.4111-1.1621,1.76,1.76,0,0,1,.18-.7783,2.288,2.288,0,0,1,.4873-.6582c.0576-.0566.1621-.165.3164-.3242a6.1265,6.1265,0,0,0,.4189-.4795l.3418-.376c.1592-.1709.3223-.3447.4873-.5215s.3271-.3437.4873-.5039c.1816-.1592.3418-.2959.4785-.41a4.2609,4.2609,0,0,1,.3594-.2734,2.4326,2.4326,0,0,1,1.8457-.3418,1.7807,1.7807,0,0,1,1.3164,1.1113l-.0166-.0176a2.4983,2.4983,0,0,1,.11.2988,1.812,1.812,0,0,1,.0605.3c.1592-.1709.3018-.334.4268-.4873s.2393-.2939.3418-.4189l.2393-.2734a.2631.2631,0,0,0,.0518-.0684.2248.2248,0,0,0,.0342-.0518,2.2066,2.2066,0,0,1,.9316-.6582,1.82,1.82,0,0,1,1.0859-.06,1.7723,1.7723,0,0,1,.6924.376,2.459,2.459,0,0,1,.5215.6328,2.0565,2.0565,0,0,1,.2129.9316,3.5234,3.5234,0,0,1-.06.5215,1.3094,1.3094,0,0,1-.043.1621c-.0166.0518-.0312.1-.042.1455l-.1025.3252-.0176.0508a2.1182,2.1182,0,0,1,.6748.1885,1.7083,1.7083,0,0,1,.5732.4268,2,2,0,0,1,.4443,1.2314,1.8445,1.8445,0,0,1-.7012,1.4531l-.085.085q-.3589.3076-.7607.6152a10.19,10.19,0,0,1-.8467.582,3.8722,3.8722,0,0,1-1.9824.5977,2.947,2.947,0,0,1-.8213-.1191,1.8655,1.8655,0,0,1-.5723-.2314,1.6689,1.6689,0,0,1-.4531-.4014q-.2051.1714-.3936.3164t-.4268.2988h.0166a7.1058,7.1058,0,0,1-.752.4619c-.2393.125-.4678.2334-.6836.3242a2.73,2.73,0,0,1-.6152.1719A3.9575,3.9575,0,0,1,119.86,158.1227Z" style="fill: #dbdbdb"/>
      <path d="M128.9544,158.1227c-.125,0-.2422-.0029-.35-.0088a1.8077,1.8077,0,0,1-.248-.0254,2.4308,2.4308,0,0,1-.8555-.4355,1.9036,1.9036,0,0,1-.5635-.7266,1.6247,1.6247,0,0,1-.1543-.4365,2.3684,2.3684,0,0,1-.0342-.4014,2.6977,2.6977,0,0,1,.0518-.53c-.1025-.0684-.2109-.1426-.3252-.2217a.91.91,0,0,1-.2559-.2568,1.8984,1.8984,0,0,1-.4111-1.1621,1.76,1.76,0,0,1,.18-.7783,2.288,2.288,0,0,1,.4873-.6582c.0576-.0566.1621-.165.3164-.3242a6.1265,6.1265,0,0,0,.4189-.4795l.3418-.376c.1592-.1709.3223-.3447.4873-.5215s.3271-.3437.4873-.5039c.1816-.1592.3418-.2959.4785-.41a4.2609,4.2609,0,0,1,.3594-.2734,2.4326,2.4326,0,0,1,1.8457-.3418,1.7807,1.7807,0,0,1,1.3164,1.1113l-.0166-.0176a2.4983,2.4983,0,0,1,.11.2988,1.812,1.812,0,0,1,.0605.3c.1592-.1709.3018-.334.4268-.4873s.2393-.2939.3418-.4189l.2393-.2734a.2631.2631,0,0,0,.0518-.0684.2248.2248,0,0,0,.0342-.0518,2.2066,2.2066,0,0,1,.9316-.6582,1.82,1.82,0,0,1,1.0859-.06,1.7723,1.7723,0,0,1,.6924.376,2.459,2.459,0,0,1,.5215.6328,2.0565,2.0565,0,0,1,.2129.9316,3.5234,3.5234,0,0,1-.06.5215,1.3094,1.3094,0,0,1-.043.1621c-.0166.0518-.0312.1-.042.1455l-.1025.3252-.0176.0508a2.1182,2.1182,0,0,1,.6748.1885,1.7083,1.7083,0,0,1,.5732.4268,2,2,0,0,1,.4443,1.2314,1.8445,1.8445,0,0,1-.7012,1.4531l-.085.085q-.3589.3076-.7607.6152a10.19,10.19,0,0,1-.8467.582,3.8722,3.8722,0,0,1-1.9824.5977,2.947,2.947,0,0,1-.8213-.1191,1.8655,1.8655,0,0,1-.5723-.2314,1.6689,1.6689,0,0,1-.4531-.4014q-.2051.1714-.3936.3164t-.4268.2988h.0166a7.1058,7.1058,0,0,1-.752.4619c-.2393.125-.4678.2334-.6836.3242a2.73,2.73,0,0,1-.6152.1719A3.9575,3.9575,0,0,1,128.9544,158.1227Z" style="fill: #dbdbdb"/>
      <path d="M142.7669,156.8405a1.9057,1.9057,0,0,1-.53-.085,1.6321,1.6321,0,0,1-.7344-.3848,1.7778,1.7778,0,0,1-.4619-.6758,1.9858,1.9858,0,0,1,.0166-1.47,5.3633,5.3633,0,0,1,.3076-.6836c.0234-.0459.0488-.0947.0771-.1455s.0605-.1055.0947-.1631c-.2627.1377-.52.2822-.77.4365s-.5078.2988-.77.4355q-.7017.4277-1.3418.7783t-1.1885.59a1.5229,1.5229,0,0,1-.6582.1533,1.7667,1.7667,0,0,1-.6406-.1191,1.7428,1.7428,0,0,1-.5557-.3506,1.6073,1.6073,0,0,1-.3848-.5557,1.5242,1.5242,0,0,1-.1543-.6582,1.7523,1.7523,0,0,1,.12-.6416,1.7217,1.7217,0,0,1,.3506-.5547,1.5853,1.5853,0,0,1,.5557-.3848q.3926-.189.9658-.5049t1.2217-.6924q.7529-.4438,1.582-.9141a16.1517,16.1517,0,0,1,1.6328-.8125,6.89,6.89,0,0,1,1.6924-.5977,4.9289,4.9289,0,0,1,1.0166-.1543,3.0855,3.0855,0,0,1,.915.1025,1.8577,1.8577,0,0,1,1.2822,1.1621,1.9069,1.9069,0,0,1,.0762,1.2656,6.1046,6.1046,0,0,1-.47,1.1621.7173.7173,0,0,1,.1113-.0254.26.26,0,0,0,.1113-.043,1.5421,1.5421,0,0,1,.6582-.0937,1.8452,1.8452,0,0,1,.6318.1621,1.6942,1.6942,0,0,1,.8809.958,1.7787,1.7787,0,0,1,.1025.6748,1.7123,1.7123,0,0,1-.1543.6328,1.6564,1.6564,0,0,1-.3848.5293,1.6345,1.6345,0,0,1-.59.3506q-.8027.2915-1.47.5215t-1.18.4023q-.7178.2051-1.1621.2988A3.9356,3.9356,0,0,1,142.7669,156.8405Z" style="fill: #dbdbdb"/>
      <path d="M148.1175,158.1227c-.125,0-.2422-.0029-.35-.0088a1.8077,1.8077,0,0,1-.248-.0254,2.4308,2.4308,0,0,1-.8555-.4355,1.9036,1.9036,0,0,1-.5635-.7266,1.6247,1.6247,0,0,1-.1543-.4365,2.3684,2.3684,0,0,1-.0342-.4014,2.6977,2.6977,0,0,1,.0518-.53c-.1025-.0684-.2109-.1426-.3252-.2217a.91.91,0,0,1-.2559-.2568,1.8984,1.8984,0,0,1-.4111-1.1621,1.76,1.76,0,0,1,.18-.7783,2.288,2.288,0,0,1,.4873-.6582c.0576-.0566.1621-.165.3164-.3242a6.1265,6.1265,0,0,0,.4189-.4795l.3418-.376c.1592-.1709.3223-.3447.4873-.5215s.3271-.3437.4873-.5039c.1816-.1592.3418-.2959.4785-.41a4.2609,4.2609,0,0,1,.3594-.2734,2.4326,2.4326,0,0,1,1.8457-.3418,1.7807,1.7807,0,0,1,1.3164,1.1113l-.0166-.0176a2.4983,2.4983,0,0,1,.11.2988,1.812,1.812,0,0,1,.0605.3c.1592-.1709.3018-.334.4268-.4873s.2393-.2939.3418-.4189l.2393-.2734a.2631.2631,0,0,0,.0518-.0684.2248.2248,0,0,0,.0342-.0518,2.2066,2.2066,0,0,1,.9316-.6582,1.82,1.82,0,0,1,1.0859-.06,1.7723,1.7723,0,0,1,.6924.376,2.459,2.459,0,0,1,.5215.6328,2.0565,2.0565,0,0,1,.2129.9316,3.5234,3.5234,0,0,1-.06.5215,1.3094,1.3094,0,0,1-.043.1621c-.0166.0518-.0312.1-.042.1455l-.1025.3252-.0176.0508a2.1182,2.1182,0,0,1,.6748.1885,1.7083,1.7083,0,0,1,.5732.4268,2,2,0,0,1,.4443,1.2314,1.8445,1.8445,0,0,1-.7012,1.4531l-.085.085q-.3589.3076-.7607.6152a10.19,10.19,0,0,1-.8467.582,3.8722,3.8722,0,0,1-1.9824.5977,2.947,2.947,0,0,1-.8213-.1191,1.8655,1.8655,0,0,1-.5723-.2314,1.6689,1.6689,0,0,1-.4531-.4014q-.2051.1714-.3936.3164t-.4268.2988h.0166a7.1058,7.1058,0,0,1-.752.4619c-.2393.125-.4678.2334-.6836.3242a2.73,2.73,0,0,1-.6152.1719A3.9575,3.9575,0,0,1,148.1175,158.1227Z" style="fill: #dbdbdb"/>
      <path d="M157.2123,158.1227c-.125,0-.2422-.0029-.35-.0088a1.8077,1.8077,0,0,1-.248-.0254,2.4308,2.4308,0,0,1-.8555-.4355,1.9036,1.9036,0,0,1-.5635-.7266,1.6247,1.6247,0,0,1-.1543-.4365,2.3684,2.3684,0,0,1-.0342-.4014,2.6977,2.6977,0,0,1,.0518-.53c-.1025-.0684-.2109-.1426-.3252-.2217a.91.91,0,0,1-.2559-.2568,1.8984,1.8984,0,0,1-.4111-1.1621,1.76,1.76,0,0,1,.18-.7783,2.288,2.288,0,0,1,.4873-.6582c.0576-.0566.1621-.165.3164-.3242a6.1265,6.1265,0,0,0,.4189-.4795l.3418-.376c.1592-.1709.3223-.3447.4873-.5215s.3271-.3437.4873-.5039c.1816-.1592.3418-.2959.4785-.41a4.2609,4.2609,0,0,1,.3594-.2734,2.4326,2.4326,0,0,1,1.8457-.3418,1.7807,1.7807,0,0,1,1.3164,1.1113l-.0166-.0176a2.4983,2.4983,0,0,1,.11.2988,1.812,1.812,0,0,1,.0605.3c.1592-.1709.3018-.334.4268-.4873s.2393-.2939.3418-.4189l.2393-.2734a.2631.2631,0,0,0,.0518-.0684.2248.2248,0,0,0,.0342-.0518,2.2066,2.2066,0,0,1,.9316-.6582,1.82,1.82,0,0,1,1.0859-.06,1.7723,1.7723,0,0,1,.6924.376,2.459,2.459,0,0,1,.5215.6328,2.0565,2.0565,0,0,1,.2129.9316,3.5234,3.5234,0,0,1-.06.5215,1.3094,1.3094,0,0,1-.043.1621c-.0166.0518-.0312.1-.042.1455l-.1025.3252-.0176.0508a2.1182,2.1182,0,0,1,.6748.1885,1.7083,1.7083,0,0,1,.5732.4268,2,2,0,0,1,.4443,1.2314,1.8445,1.8445,0,0,1-.7012,1.4531l-.085.085q-.3589.3076-.7607.6152a10.19,10.19,0,0,1-.8467.582,3.8722,3.8722,0,0,1-1.9824.5977,2.947,2.947,0,0,1-.8213-.1191,1.8655,1.8655,0,0,1-.5723-.2314,1.6689,1.6689,0,0,1-.4531-.4014q-.2051.1714-.3936.3164t-.4268.2988h.0166a7.1058,7.1058,0,0,1-.752.4619c-.2393.125-.4678.2334-.6836.3242a2.73,2.73,0,0,1-.6152.1719A3.9575,3.9575,0,0,1,157.2123,158.1227Z" style="fill: #dbdbdb"/>
      <path d="M171.0257,156.8405a1.9057,1.9057,0,0,1-.53-.085,1.6321,1.6321,0,0,1-.7344-.3848,1.7778,1.7778,0,0,1-.4619-.6758,1.9858,1.9858,0,0,1,.0166-1.47,5.3633,5.3633,0,0,1,.3076-.6836c.0234-.0459.0488-.0947.0771-.1455s.0605-.1055.0947-.1631c-.2627.1377-.52.2822-.77.4365s-.5078.2988-.77.4355q-.7017.4277-1.3418.7783t-1.1885.59a1.5229,1.5229,0,0,1-.6582.1533,1.7667,1.7667,0,0,1-.6406-.1191,1.7428,1.7428,0,0,1-.5557-.3506,1.6073,1.6073,0,0,1-.3848-.5557,1.5242,1.5242,0,0,1-.1543-.6582,1.7523,1.7523,0,0,1,.12-.6416,1.7217,1.7217,0,0,1,.3506-.5547,1.5853,1.5853,0,0,1,.5557-.3848q.3926-.189.9658-.5049t1.2217-.6924q.7529-.4438,1.582-.9141a16.1518,16.1518,0,0,1,1.6328-.8125,6.89,6.89,0,0,1,1.6924-.5977,4.9289,4.9289,0,0,1,1.0166-.1543,3.0855,3.0855,0,0,1,.915.1025,1.8577,1.8577,0,0,1,1.2822,1.1621,1.9069,1.9069,0,0,1,.0762,1.2656,6.1046,6.1046,0,0,1-.47,1.1621.7173.7173,0,0,1,.1113-.0254.26.26,0,0,0,.1113-.043,1.5421,1.5421,0,0,1,.6582-.0937,1.8452,1.8452,0,0,1,.6318.1621,1.6942,1.6942,0,0,1,.8809.958,1.7787,1.7787,0,0,1,.1025.6748,1.7123,1.7123,0,0,1-.1543.6328,1.6564,1.6564,0,0,1-.3848.5293,1.6345,1.6345,0,0,1-.59.3506q-.8027.2915-1.47.5215t-1.18.4023q-.7178.2051-1.1621.2988A3.9356,3.9356,0,0,1,171.0257,156.8405Z" style="fill: #dbdbdb"/>
      <path d="M176.3753,158.1227c-.125,0-.2422-.0029-.35-.0088a1.8077,1.8077,0,0,1-.248-.0254,2.4308,2.4308,0,0,1-.8555-.4355,1.9036,1.9036,0,0,1-.5635-.7266,1.6247,1.6247,0,0,1-.1543-.4365,2.3684,2.3684,0,0,1-.0342-.4014,2.6977,2.6977,0,0,1,.0518-.53c-.1025-.0684-.2109-.1426-.3252-.2217a.91.91,0,0,1-.2559-.2568,1.8984,1.8984,0,0,1-.4111-1.1621,1.76,1.76,0,0,1,.18-.7783,2.288,2.288,0,0,1,.4873-.6582c.0576-.0566.1621-.165.3164-.3242a6.1265,6.1265,0,0,0,.4189-.4795l.3418-.376c.1592-.1709.3223-.3447.4873-.5215s.3271-.3437.4873-.5039c.1816-.1592.3418-.2959.4785-.41a4.2609,4.2609,0,0,1,.3594-.2734,2.4326,2.4326,0,0,1,1.8457-.3418,1.7807,1.7807,0,0,1,1.3164,1.1113l-.0166-.0176a2.4983,2.4983,0,0,1,.11.2988,1.812,1.812,0,0,1,.0605.3c.1592-.1709.3018-.334.4268-.4873s.2393-.2939.3418-.4189l.2393-.2734a.2631.2631,0,0,0,.0518-.0684.2248.2248,0,0,0,.0342-.0518,2.2066,2.2066,0,0,1,.9316-.6582,1.82,1.82,0,0,1,1.0859-.06,1.7723,1.7723,0,0,1,.6924.376,2.459,2.459,0,0,1,.5215.6328,2.0565,2.0565,0,0,1,.2129.9316,3.5234,3.5234,0,0,1-.06.5215,1.3094,1.3094,0,0,1-.043.1621c-.0166.0518-.0312.1-.042.1455l-.1025.3252-.0176.0508a2.1182,2.1182,0,0,1,.6748.1885,1.7083,1.7083,0,0,1,.5732.4268,2,2,0,0,1,.4443,1.2314,1.8445,1.8445,0,0,1-.7012,1.4531l-.085.085q-.3589.3076-.7607.6152a10.19,10.19,0,0,1-.8467.582,3.8722,3.8722,0,0,1-1.9824.5977,2.947,2.947,0,0,1-.8213-.1191,1.8655,1.8655,0,0,1-.5723-.2314,1.6689,1.6689,0,0,1-.4531-.4014q-.2051.1714-.3936.3164t-.4268.2988h.0166a7.1058,7.1058,0,0,1-.752.4619c-.2393.125-.4678.2334-.6836.3242a2.73,2.73,0,0,1-.6152.1719A3.9575,3.9575,0,0,1,176.3753,158.1227Z" style="fill: #dbdbdb"/>
      <path d="M109.79,173.8806c-.125,0-.2422-.0029-.35-.0088a1.8077,1.8077,0,0,1-.248-.0254,2.4308,2.4308,0,0,1-.8555-.4355,1.9036,1.9036,0,0,1-.5635-.7266,1.6247,1.6247,0,0,1-.1543-.4365,2.3684,2.3684,0,0,1-.0342-.4014,2.6977,2.6977,0,0,1,.0518-.53c-.1025-.0684-.2109-.1426-.3252-.2217a.91.91,0,0,1-.2559-.2568,1.8984,1.8984,0,0,1-.4111-1.1621,1.76,1.76,0,0,1,.18-.7783,2.288,2.288,0,0,1,.4873-.6582c.0576-.0566.1621-.165.3164-.3242a6.1265,6.1265,0,0,0,.4189-.4795l.3418-.376c.1592-.1709.3223-.3447.4873-.5215s.3271-.3437.4873-.5039c.1816-.1592.3418-.2959.4785-.41a4.2609,4.2609,0,0,1,.3594-.2734,2.4326,2.4326,0,0,1,1.8457-.3418,1.7807,1.7807,0,0,1,1.3164,1.1113l-.0166-.0176a2.4983,2.4983,0,0,1,.11.2988,1.812,1.812,0,0,1,.0605.3c.1592-.1709.3018-.334.4268-.4873s.2393-.2939.3418-.4189l.2393-.2734a.2631.2631,0,0,0,.0518-.0684.2248.2248,0,0,0,.0342-.0518,2.2066,2.2066,0,0,1,.9316-.6582,1.82,1.82,0,0,1,1.0859-.06,1.7723,1.7723,0,0,1,.6924.376,2.459,2.459,0,0,1,.5215.6328,2.0565,2.0565,0,0,1,.2129.9316,3.5234,3.5234,0,0,1-.06.5215,1.3094,1.3094,0,0,1-.043.1621c-.0166.0518-.0312.1-.042.1455l-.1025.3252-.0176.0508a2.1182,2.1182,0,0,1,.6748.1885,1.7083,1.7083,0,0,1,.5732.4268,2,2,0,0,1,.4443,1.2314,1.8445,1.8445,0,0,1-.7012,1.4531l-.085.085q-.3589.3076-.7607.6152a10.19,10.19,0,0,1-.8467.582,3.8722,3.8722,0,0,1-1.9824.5977,2.947,2.947,0,0,1-.8213-.1191,1.8655,1.8655,0,0,1-.5723-.2314,1.6689,1.6689,0,0,1-.4531-.4014q-.2051.1714-.3936.3164t-.4268.2988h.0166a7.1058,7.1058,0,0,1-.752.4619c-.2393.125-.4678.2334-.6836.3242a2.73,2.73,0,0,1-.6152.1719A3.9575,3.9575,0,0,1,109.79,173.8806Z" style="fill: #dbdbdb"/>
      <path d="M123.6039,172.5983a1.9057,1.9057,0,0,1-.53-.085,1.6321,1.6321,0,0,1-.7344-.3848,1.7778,1.7778,0,0,1-.4619-.6758,1.9858,1.9858,0,0,1,.0166-1.47,5.3633,5.3633,0,0,1,.3076-.6836c.0234-.0459.0488-.0947.0771-.1455s.0605-.1055.0947-.1631c-.2627.1377-.52.2822-.77.4365s-.5078.2988-.77.4355q-.7017.4277-1.3418.7783t-1.1885.59a1.5229,1.5229,0,0,1-.6582.1533,1.7667,1.7667,0,0,1-.6406-.1191,1.7428,1.7428,0,0,1-.5557-.3506,1.6073,1.6073,0,0,1-.3848-.5557,1.5242,1.5242,0,0,1-.1543-.6582,1.7523,1.7523,0,0,1,.12-.6416,1.7217,1.7217,0,0,1,.3506-.5547,1.5853,1.5853,0,0,1,.5557-.3848q.3926-.189.9658-.5049t1.2217-.6924q.7529-.4438,1.582-.9141a16.1518,16.1518,0,0,1,1.6328-.8125,6.89,6.89,0,0,1,1.6924-.5977,4.9289,4.9289,0,0,1,1.0166-.1543,3.0855,3.0855,0,0,1,.915.1025,1.8577,1.8577,0,0,1,1.2822,1.1621,1.9069,1.9069,0,0,1,.0762,1.2656,6.1046,6.1046,0,0,1-.47,1.1621.7173.7173,0,0,1,.1113-.0254.26.26,0,0,0,.1113-.043,1.5421,1.5421,0,0,1,.6582-.0937,1.8452,1.8452,0,0,1,.6318.1621,1.6942,1.6942,0,0,1,.8809.958,1.7787,1.7787,0,0,1,.1025.6748,1.7123,1.7123,0,0,1-.1543.6328,1.6564,1.6564,0,0,1-.3848.5293,1.6345,1.6345,0,0,1-.59.3506q-.8027.2915-1.47.5215t-1.18.4023q-.7178.2051-1.1621.2988A3.9356,3.9356,0,0,1,123.6039,172.5983Z" style="fill: #dbdbdb"/>
      <path d="M128.9544,173.8806c-.125,0-.2422-.0029-.35-.0088a1.8077,1.8077,0,0,1-.248-.0254,2.4308,2.4308,0,0,1-.8555-.4355,1.9036,1.9036,0,0,1-.5635-.7266,1.6247,1.6247,0,0,1-.1543-.4365,2.3684,2.3684,0,0,1-.0342-.4014,2.6977,2.6977,0,0,1,.0518-.53c-.1025-.0684-.2109-.1426-.3252-.2217a.91.91,0,0,1-.2559-.2568,1.8984,1.8984,0,0,1-.4111-1.1621,1.76,1.76,0,0,1,.18-.7783,2.288,2.288,0,0,1,.4873-.6582c.0576-.0566.1621-.165.3164-.3242a6.1265,6.1265,0,0,0,.4189-.4795l.3418-.376c.1592-.1709.3223-.3447.4873-.5215s.3271-.3437.4873-.5039c.1816-.1592.3418-.2959.4785-.41a4.2609,4.2609,0,0,1,.3594-.2734,2.4326,2.4326,0,0,1,1.8457-.3418,1.7807,1.7807,0,0,1,1.3164,1.1113l-.0166-.0176a2.4983,2.4983,0,0,1,.11.2988,1.812,1.812,0,0,1,.0605.3c.1592-.1709.3018-.334.4268-.4873s.2393-.2939.3418-.4189l.2393-.2734a.2631.2631,0,0,0,.0518-.0684.2248.2248,0,0,0,.0342-.0518,2.2066,2.2066,0,0,1,.9316-.6582,1.82,1.82,0,0,1,1.0859-.06,1.7723,1.7723,0,0,1,.6924.376,2.459,2.459,0,0,1,.5215.6328,2.0565,2.0565,0,0,1,.2129.9316,3.5234,3.5234,0,0,1-.06.5215,1.3094,1.3094,0,0,1-.043.1621c-.0166.0518-.0312.1-.042.1455l-.1025.3252-.0176.0508a2.1182,2.1182,0,0,1,.6748.1885,1.7083,1.7083,0,0,1,.5732.4268,2,2,0,0,1,.4443,1.2314,1.8445,1.8445,0,0,1-.7012,1.4531l-.085.085q-.3589.3076-.7607.6152a10.19,10.19,0,0,1-.8467.582,3.8722,3.8722,0,0,1-1.9824.5977,2.947,2.947,0,0,1-.8213-.1191,1.8655,1.8655,0,0,1-.5723-.2314,1.6689,1.6689,0,0,1-.4531-.4014q-.2051.1714-.3936.3164t-.4268.2988h.0166a7.1058,7.1058,0,0,1-.752.4619c-.2393.125-.4678.2334-.6836.3242a2.73,2.73,0,0,1-.6152.1719A3.9575,3.9575,0,0,1,128.9544,173.8806Z" style="fill: #dbdbdb"/>
      <path d="M138.0482,173.8806c-.125,0-.2422-.0029-.35-.0088a1.8077,1.8077,0,0,1-.248-.0254,2.4308,2.4308,0,0,1-.8555-.4355,1.9036,1.9036,0,0,1-.5635-.7266,1.6247,1.6247,0,0,1-.1543-.4365,2.3684,2.3684,0,0,1-.0342-.4014,2.6977,2.6977,0,0,1,.0518-.53c-.1025-.0684-.2109-.1426-.3252-.2217a.91.91,0,0,1-.2559-.2568,1.8984,1.8984,0,0,1-.4111-1.1621,1.76,1.76,0,0,1,.18-.7783,2.288,2.288,0,0,1,.4873-.6582c.0576-.0566.1621-.165.3164-.3242a6.1265,6.1265,0,0,0,.4189-.4795l.3418-.376c.1592-.1709.3223-.3447.4873-.5215s.3271-.3437.4873-.5039c.1816-.1592.3418-.2959.4785-.41a4.2609,4.2609,0,0,1,.3594-.2734,2.4326,2.4326,0,0,1,1.8457-.3418,1.7807,1.7807,0,0,1,1.3164,1.1113l-.0166-.0176a2.4983,2.4983,0,0,1,.11.2988,1.812,1.812,0,0,1,.0605.3c.1592-.1709.3018-.334.4268-.4873s.2393-.2939.3418-.4189l.2393-.2734a.2631.2631,0,0,0,.0518-.0684.2248.2248,0,0,0,.0342-.0518,2.2066,2.2066,0,0,1,.9316-.6582,1.82,1.82,0,0,1,1.0859-.06,1.7723,1.7723,0,0,1,.6924.376,2.459,2.459,0,0,1,.5215.6328,2.0565,2.0565,0,0,1,.2129.9316,3.5234,3.5234,0,0,1-.06.5215,1.3094,1.3094,0,0,1-.043.1621c-.0166.0518-.0312.1-.042.1455l-.1025.3252-.0176.0508a2.1182,2.1182,0,0,1,.6748.1885,1.7083,1.7083,0,0,1,.5732.4268,2,2,0,0,1,.4443,1.2314,1.8445,1.8445,0,0,1-.7012,1.4531l-.085.085q-.3589.3076-.7607.6152a10.19,10.19,0,0,1-.8467.582,3.8722,3.8722,0,0,1-1.9824.5977,2.947,2.947,0,0,1-.8213-.1191,1.8655,1.8655,0,0,1-.5723-.2314,1.6689,1.6689,0,0,1-.4531-.4014q-.2051.1714-.3936.3164t-.4268.2988h.0166a7.1058,7.1058,0,0,1-.752.4619c-.2393.125-.4678.2334-.6836.3242a2.73,2.73,0,0,1-.6152.1719A3.9575,3.9575,0,0,1,138.0482,173.8806Z" style="fill: #dbdbdb"/>
    </g>
    <line id="_Path_" data-name="&lt;Path&gt;" x1="348.7493" y1="196.6375" x2="337.0267" y2="196.6375" style="fill: none;stroke: #b2b2b2;stroke-linecap: round;stroke-miterlimit: 10;stroke-width: 2.5px"/>
    <circle id="_Path_2" data-name="&lt;Path&gt;" cx="347.5267" cy="139.6211" r="10.5" style="fill: none;stroke: #dbdbdb;stroke-miterlimit: 10;stroke-width: 2px"/>
    <circle id="_Path_3" data-name="&lt;Path&gt;" cx="285.9172" cy="100.3921" r="10.5" style="fill: none;stroke: #dbdbdb;stroke-miterlimit: 10;stroke-width: 2px"/>
    <circle id="_Path_4" data-name="&lt;Path&gt;" cx="274.4172" cy="140.6211" r="10.5" style="fill: none;stroke: #dbdbdb;stroke-miterlimit: 10;stroke-width: 2px"/>
    <path d="M389.2386,62.5763H79.8148a6.2865,6.2865,0,0,1-5.5275-3.2881,6.29,6.29,0,0,0,5.5275,9.2881H389.2386a6.29,6.29,0,0,0,5.5273-9.2881A6.2862,6.2862,0,0,1,389.2386,62.5763Z" style="fill: #bab9b9"/>
  </g>
  <rect id="_Rectangle_9" data-name="&lt;Rectangle&gt;" x="56.1968" y="347.7821" width="344.8242" height="3.5568" rx="1.7784" ry="1.7784" style="opacity: 0.08"/>
  <rect id="_Rectangle_10" data-name="&lt;Rectangle&gt;" x="169.0644" y="374.558" width="121.8713" height="16.7747" rx="8.3874" ry="8.3874" style="opacity: 0.05"/>
  <line id="_Path_5" data-name="&lt;Path&gt;" x1="319.8713" y1="257.0304" x2="347.2047" y2="204.1801" style="fill: none;stroke: #474747;stroke-linecap: round;stroke-miterlimit: 10;stroke-width: 3px"/>
  <rect id="_Rectangle_11" data-name="&lt;Rectangle&gt;" x="69.5267" y="306.6651" width="30.7667" height="24.85" rx="4.2335" ry="4.2335" style="opacity: 0.1"/>
  <circle id="_Path_6" data-name="&lt;Path&gt;" cx="84.91" cy="319.0901" r="7.1" style="opacity: 0.05"/>
  <rect id="_Rectangle_12" data-name="&lt;Rectangle&gt;" x="109.7601" y="306.6651" width="30.7667" height="24.85" rx="4.2335" ry="4.2335" style="opacity: 0.1"/>
  <circle id="_Path_7" data-name="&lt;Path&gt;" cx="125.1434" cy="319.0901" r="7.1" style="opacity: 0.05"/>
  <rect id="_Rectangle_13" data-name="&lt;Rectangle&gt;" x="371.165" y="307.5051" width="29.856" height="7.9203" rx="3.9602" ry="3.9602" style="opacity: 0.08"/>
  <rect id="_Rectangle_14" data-name="&lt;Rectangle&gt;" x="352.7139" y="319.445" width="29.856" height="7.9203" rx="3.9602" ry="3.9602" style="opacity: 0.08"/>
  <g>
    <path d="M110.5169,199.34h0a6.8494,6.8494,0,0,1,6.8494,6.8494v4.2087a0,0,0,0,1,0,0h0a6.8494,6.8494,0,0,1-6.8494-6.8494V199.34A0,0,0,0,1,110.5169,199.34Z" transform="translate(-72.7995 63.159) rotate(-23.7252)" style="fill: #81e259"/>
    <polygon points="120.083 201.617 117.847 201.617 118.559 215.215 120.083 215.215 120.083 201.617" style="fill: #565656"/>
    <path d="M105.18,218.3c0-4.6775,1.9395-8.8255,4.84-10.3213,3.0951-1.5962,5.3688-.002,9.2633-.002s4.9558-1.8051,8.2162-.6723c3.0827,1.071,5.8871,6.318,5.8871,10.9955,0,5.8469-4.4,14.046-8.7077,14.046-4.5965,0-3.33-1.233-5.3956-1.233-2.0018,0-.7759,1.2331-5.3956,1.2331C109.133,232.3458,105.18,224.1468,105.18,218.3Z" style="fill: #e55757"/>
    <ellipse cx="112.5408" cy="213.9539" rx="3.0233" ry="2.7279" transform="translate(-128.164 236.3803) rotate(-67.5783)" style="fill: #ed6e6e"/>
    <ellipse cx="110.1953" cy="219.6383" rx="1.4685" ry="1.325" transform="matrix(0.3814, -0.9244, 0.9244, 0.3814, -134.8695, 237.7284)" style="fill: #ed6e6e"/>
    <ellipse cx="114.8635" cy="220.144" rx="1.4685" ry="1.325" transform="translate(-132.4493 242.3565) rotate(-67.5783)" style="fill: #d65050"/>
  </g>
  <g>
    <path d="M363.6312,271.8236h0a0,0,0,0,1,0,0v20.9576a27.1231,27.1231,0,0,1-27.1231,27.1231h0a0,0,0,0,1,0,0V298.9467A27.1231,27.1231,0,0,1,363.6312,271.8236Z" transform="translate(-89.4552 165.8558) rotate(-23.7252)" style="fill: #5fb234"/>
    <path d="M346.751,312.3945c3.0821-7.24,5.6593-18.2872,4.1849-27.1823" style="fill: none;stroke: #59a52d;stroke-linecap: round;stroke-miterlimit: 10;stroke-width: 2px"/>
    <path d="M322.4718,290.724h0a31.6666,31.6666,0,0,1,31.6666,31.6666v14.537a0,0,0,0,1,0,0h0a31.6666,31.6666,0,0,1-31.6666-31.6666V290.724A0,0,0,0,1,322.4718,290.724Z" style="fill: #6ec943"/>
    <path d="M342.1431,329.172c-.8-7.8277-6.0458-18.7449-11.6354-25.82" style="fill: none;stroke: #5fb234;stroke-linecap: round;stroke-miterlimit: 10;stroke-width: 2px"/>
    <path d="M372.07,292.7511h0a0,0,0,0,1,0,0v17.4828a24.6666,24.6666,0,0,1-24.6666,24.6666h0a0,0,0,0,1,0,0V317.4177A24.6666,24.6666,0,0,1,372.07,292.7511Z" style="fill: #81e259"/>
    <path d="M355.4987,329.172c.8-7.8277,3.8832-18.7449,9.4728-25.82" style="fill: none;stroke: #6ec943;stroke-linecap: round;stroke-miterlimit: 10;stroke-width: 2px"/>
    <path d="M372.956,329.9006H323.1327v25.7425a17.2726,17.2726,0,0,0,17.2726,17.2726h15.278a17.2726,17.2726,0,0,0,17.2726-17.2726Z" style="fill: #fff"/>
    <rect x="318.6279" y="329.9006" width="58.8329" height="11.7456" style="fill: #f4f4f4"/>
    <g style="opacity: 0.07">
      <path d="M359.3136,329.9005V355.643a17.2727,17.2727,0,0,1-17.2727,17.2727h13.6423A17.2727,17.2727,0,0,0,372.956,355.643l.004-13.9861,4.5008-.0108V329.9006Z"/>
    </g>
    <line x1="358.3461" y1="316.2621" x2="365.7087" y2="311.4652" style="fill: none;stroke: #6ec943;stroke-linecap: round;stroke-miterlimit: 10;stroke-width: 2px"/>
    <line x1="356.4098" y1="323.4052" x2="352.7139" y2="316.8601" style="fill: none;stroke: #6ec943;stroke-linecap: round;stroke-miterlimit: 10;stroke-width: 2px"/>
    <line x1="339.5667" y1="306.1133" x2="337.9674" y2="315.4254" style="fill: none;stroke: #5fb234;stroke-linecap: round;stroke-miterlimit: 10;stroke-width: 2px"/>
    <line x1="340.7188" y1="322.6586" x2="334.8372" y2="320.1327" style="fill: none;stroke: #5fb234;stroke-linecap: round;stroke-miterlimit: 10;stroke-width: 2px"/>
    <line x1="345.2253" y1="290.9166" x2="350.8591" y2="297.4948" style="fill: none;stroke: #59a52d;stroke-linecap: round;stroke-miterlimit: 10;stroke-width: 2px"/>
  </g>
  <g>
    <path d="M256.8713,249.9221H202.3465c-.5341-11.9011-2.7635-9.5347-4.0028-19.75l-2.1053-23.7561h66.7411l-2.1053,23.7561C260.09,240.3577,258.7585,236.8337,256.8713,249.9221Z" style="fill: #3a3a3a"/>
    <polygon points="256.49 258.416 202.728 258.416 200.459 207.869 258.759 207.869 256.49 258.416" style="fill: #3a3a3a"/>
    <path d="M239.9772,167.02l-10.3683,1.0255L219.2405,167.02l-17.9012,3.8761a11.5668,11.5668,0,0,0-8.9994,11.3809v28.2967a8.53,8.53,0,0,0,8.7108,8.3372h23.9834a4.6449,4.6449,0,0,0,3.57-1.64,1.3248,1.3248,0,0,1,2.01,0,4.6449,4.6449,0,0,0,3.57,1.64H258.167a8.53,8.53,0,0,0,8.7108-8.3372V182.2768a11.5668,11.5668,0,0,0-8.9994-11.3809Z" style="fill: #3a3a3a"/>
    <ellipse cx="229.3684" cy="174.7051" rx="14.1832" ry="9.5171" style="fill: #424242"/>
    <path d="M218.9445,162.3144h21.3288a0,0,0,0,1,0,0v8.1343a8.467,8.467,0,0,1-8.467,8.467h-4.3948a8.467,8.467,0,0,1-8.467-8.467v-8.1343A0,0,0,0,1,218.9445,162.3144Z" style="fill: #f9bfa2"/>
    <polygon points="188.297 233.617 167.402 230.801 170.807 209.005 191.701 211.822 188.297 233.617" style="fill: #feccae"/>
    <polygon points="271.056 233.617 291.95 230.801 288.546 209.005 267.651 211.822 271.056 233.617" style="fill: #feccae"/>
    <polygon points="185.424 277.296 170.59 277.296 167.402 230.801 188.297 233.617 185.424 277.296" style="fill: #feccae"/>
    <path d="M186.564,295.617l-14.4963-2.0536a3.9961,3.9961,0,0,1-3.417-4.3413l1.5531-16.0566,15.6362-2.1482,3.7436,3.1967a5.6039,5.6039,0,0,1,1.8981,3.3987l1.56,10.0086a3.9961,3.9961,0,0,1-.4842,2.6072l-1.9687,3.4238A3.9961,3.9961,0,0,1,186.564,295.617Z" style="fill: #feccae"/>
    <path d="M219.6589,369.5427H201.6883v-56.902h12.514c6.3171,0,9.45,4.3529,10.2478,10.2229a20.6482,20.6482,0,0,1-.01,5.1375Z" style="fill: #424242"/>
    <path d="M210.9582,317.4352h-2.7048c-5.6209,0-10.1776-4.9287-10.1776-11.0086V276.5134A24.8,24.8,0,0,1,200.837,265.1l.615-1.1839H226.84v36.3407C226.84,309.744,219.73,317.4352,210.9582,317.4352Z" style="fill: #424242"/>
    <path d="M239.2986,369.5427h17.9707v-56.902h-12.514c-6.3171,0-9.45,4.3529-10.2478,10.2229a20.6482,20.6482,0,0,0,.01,5.1375Z" style="fill: #424242"/>
    <path d="M247.8753,317.4352h2.7309c5.6751,0,10.2757-4.9287,10.2757-11.0086V276.5133A24.6093,24.6093,0,0,0,258.0939,265.1l-.6209-1.1839H231.84v36.3407C231.84,309.744,239.0194,317.4352,247.8753,317.4352Z" style="fill: #424242"/>
    <path d="M180.2554,382.3334l36.2882,1.3805a4.3776,4.3776,0,0,0,4.2728-4.8362l-.9746-10.962h-24.59a12.658,12.658,0,0,0-11.2554,7.0358Z" style="fill: #3a3a3a"/>
    <polygon points="266.605 211.963 288.546 209.005 284.505 183.184 262.565 186.142 266.605 211.963" style="fill: #3a3a3a"/>
    <path d="M267.6511,211.8215l21.9563-2.96a1.5714,1.5714,0,0,0,1.3424-1.8015l-.5748-3.6552a1.5714,1.5714,0,0,0-1.7623-1.3132L266.52,205.07Z" style="fill: #3f3f3f"/>
    <polygon points="194.303 212.172 170.807 209.005 174.886 183.19 198.382 186.357 194.303 212.172" style="fill: #3a3a3a"/>
    <path d="M173.07,196.1724l24.038,3.24,3.24-24.038-12.4932-1.8187a18.2029,18.2029,0,0,0-8.0493,1.1129,12.7858,12.7858,0,0,0-6.8776,11.7191Z" style="fill: #3a3a3a"/>
    <path d="M286.2828,196.1724l-24.038,3.24-3.24-24.038,12.4932-1.8187a18.2029,18.2029,0,0,1,8.0493,1.1129,12.7858,12.7858,0,0,1,6.8776,11.7191Z" style="fill: #3a3a3a"/>
    <rect x="222.1956" y="263.9157" width="14.2263" height="22.9444" style="fill: #424242"/>
    <path d="M279.1106,382.8505l-36.55.8633a4.3776,4.3776,0,0,1-4.2728-4.8362l.9746-10.962h24.59a12.658,12.658,0,0,1,11.2554,7.0358Z" style="fill: #3a3a3a"/>
    <g>
      <line x1="171.9144" y1="242.5207" x2="178.9753" y2="241.8941" style="fill: none;stroke: #efb49a;stroke-linecap: round;stroke-miterlimit: 10"/>
      <line x1="172.0891" y1="247.1381" x2="179.1499" y2="246.5114" style="fill: none;stroke: #efb49a;stroke-linecap: round;stroke-miterlimit: 10"/>
      <line x1="172.2814" y1="251.7558" x2="179.3422" y2="251.1292" style="fill: none;stroke: #efb49a;stroke-linecap: round;stroke-miterlimit: 10"/>
    </g>
    <path d="M232.6725,170.3176a3.1006,3.1006,0,1,1-6.2011,0" style="fill: none;stroke: #efb49a;stroke-linecap: round;stroke-miterlimit: 10"/>
    <path d="M209.1236,367.9157H198.7689l-.3924-1.0714a4.8615,4.8615,0,0,1,4.565-6.5335h0a4.8615,4.8615,0,0,1,4.565,3.19Z" style="fill: #3a3a3a"/>
    <path d="M251.7454,367.9157H262.1l.3924-1.0714a4.8615,4.8615,0,0,0-4.565-6.5335h0a4.8615,4.8615,0,0,0-4.565,3.19Z" style="fill: #3a3a3a"/>
    <path d="M191.9541,211.8215l-21.9563-2.96a1.5714,1.5714,0,0,1-1.3424-1.8015l.5748-3.6552a1.5714,1.5714,0,0,1,1.7623-1.3132l22.0927,2.9779Z" style="fill: #3f3f3f"/>
    <polygon points="320.508 242.077 312.811 254.757 271.41 233.358 284.66 216.957 320.508 242.077" style="fill: #feccae"/>
    <path d="M336.7616,250.6081l-9.2772,11.3267a3.9961,3.9961,0,0,1-5.4841.6685l-12.92-9.6589,6.2768-14.4813,4.6751-1.5416a5.6039,5.6039,0,0,1,3.89.1409l9.3652,3.86a3.9961,3.9961,0,0,1,1.9776,1.7667l1.9054,3.4594A3.9961,3.9961,0,0,1,336.7616,250.6081Z" style="fill: #feccae"/>
    <g>
      <path id="_Path_8" data-name="&lt;Path&gt;" d="M229.7048,167.33h-.0866c-7.8437,0-12.9123-3.037-17.3794-9.4016-3.2128-4.5774-6.0372-9.2707-5.0372-15.5168l-1-20.4105c-1-14.9308,9.9317-27.0346,23.4166-27.0346h.0866c13.4849,0,24.4166,12.1038,23.4166,27.0346l-1,20.4105c1,6.2461-1.8244,10.9393-5.0372,15.5168C242.6171,164.2928,237.5486,167.33,229.7048,167.33Z" style="fill: #feccae"/>
      <path d="M242.5316,157.7719l7.9773-6,1-15.2332h0a8.9773,8.9773,0,0,0-8.9773,8.9773Z" style="fill: #f9bfa2"/>
      <path d="M216.829,157.7415l-7.9773-6-1-15.2332h0a8.9773,8.9773,0,0,1,8.9773,8.9773Z" style="fill: #f9bfa2"/>
      <path id="_Path_9" data-name="&lt;Path&gt;" d="M213.2444,134.7423c.1367.8728,1.761,1.29,3.628.9314s3.27-1.3566,3.133-2.2294-1.761-1.29-3.628-.9314S213.1077,133.87,213.2444,134.7423Z" style="fill: #f7afa4"/>
      <path id="_Path_10" data-name="&lt;Path&gt;" d="M245.6888,134.8986c-.1367.8728-1.761,1.29-3.628.9314s-3.27-1.3566-3.133-2.2294,1.761-1.29,3.628-.9314S245.8254,134.0258,245.6888,134.8986Z" style="fill: #f7afa4"/>
      <path d="M255.2993,124.9335h-2.183v10.6053h1.2449c1.8731,0,3.4855-1.8869,3.8521-4.5077l.1157-.8271C258.71,127.4769,257.2483,124.9335,255.2993,124.9335Z" style="fill: #f9bfa2"/>
      <path d="M204.0186,124.9335h2.183v10.6053h-1.2449c-1.8731,0-3.4855-1.8869-3.8521-4.5077l-.1157-.8271C200.6075,127.4769,202.07,124.9335,204.0186,124.9335Z" style="fill: #f9bfa2"/>
      <path d="M217.9412,100.7213a8.1874,8.1874,0,0,1-5.3163-10.15h0a7.9037,7.9037,0,0,1,9.8842-5.4591Z" style="fill: #424242"/>
      <g>
        <path id="_Path_11" data-name="&lt;Path&gt;" d="M236.6935,89.9024h-14.069c-9.6252,0-17.428,9.0715-17.428,20.2617v-1.9863l1,18.3726h3.3106l.7319-16.7278c0-2.1284,1.8749-3.5606,3.5552-2.7159l10.1507,5.1029a12.5623,12.5623,0,0,0,11.4281,0l10.1507-5.1029c1.68-.8447,3.5552.5875,3.5552,2.7159l.8175,16.7278h3.225l1-16.2564v-2.2462C254.1215,96.8576,246.3187,89.9024,236.6935,89.9024Z" style="fill: #3a3a3a"/>
        <polygon points="253.121 141.193 250.63 141.148 249.896 126.55 253.121 126.55 253.121 141.193" style="fill: #3a3a3a"/>
        <polygon points="206.196 141.193 208.693 141.148 209.507 126.55 206.196 126.55 206.196 141.193" style="fill: #3a3a3a"/>
      </g>
      <path d="M215.6484,83.6511l.0217,12.5817a5.7477,5.7477,0,0,0,1.6668,4.05l13.28,13.3014H215.6484c-6.698,0-12.1278-5.8081-12.1278-12.9727v-3.988C203.5205,89.4591,208.95,83.6511,215.6484,83.6511Z" style="fill: #3a3a3a"/>
      <polygon points="242.532 127.525 216.612 127.525 214.241 122.713 244.893 122.713 242.532 127.525" style="fill: #f9bfa2"/>
      <rect x="235.107" y="121.7024" width="9.7864" height="2.3146" rx="1.0104" ry="1.0104" style="fill: #3a3a3a"/>
      <rect x="214.2412" y="121.7024" width="9.7864" height="2.3146" rx="1.0104" ry="1.0104" style="fill: #3a3a3a"/>
      <path id="_Path_12" data-name="&lt;Path&gt;" d="M242.5316,127.6132c0-1.2539-5.5363-1.2539-5.5363,0a2.8227,2.8227,0,0,0,5.5363,0Z" style="fill: #3a3a3a"/>
      <path id="_Path_13" data-name="&lt;Path&gt;" d="M222.1486,127.6132c0-1.2539-5.5363-1.2539-5.5363,0a2.8227,2.8227,0,0,0,5.5363,0Z" style="fill: #3a3a3a"/>
      <path d="M229.5784,141.0093h0a2.93,2.93,0,0,1-2.7807-2.9139l-.6316-12.0566a2.9726,2.9726,0,0,1,2.7807-3.2733H230.21a2.9726,2.9726,0,0,1,2.7807,3.2733l-.6316,12.0566A2.93,2.93,0,0,1,229.5784,141.0093Z" style="fill: #efb49a"/>
      <rect x="224.6553" y="136.7628" width="7.1219" height="3.9104" rx="1.7435" ry="1.7435" transform="translate(18.2484 -26.3239) rotate(6.8758)" style="fill: #efb49a"/>
      <path d="M209.3916,94.1294s-1.749,13.7944,12.757,13.7944h5.1271" style="fill: none;stroke: #494949;stroke-linecap: round;stroke-miterlimit: 10;stroke-width: 1.5px"/>
      <path d="M216.6123,96.8658c1.934,5.6483,4.89,5.9726,12.7561,5.9726" style="fill: none;stroke: #424242;stroke-linecap: round;stroke-miterlimit: 10;stroke-width: 1.5px"/>
      <path d="M250.63,141.1477a13.2117,13.2117,0,0,1-2.8726,8.5924c-2.1575,2.8049-4.8326,5.1176-5.8287,1.4623l-1.5208-6.19c-.8018-2.3641-2.5684-3.7007-5.4956-3.548l-5.2513.0744-5.2513-.0744c-2.9272-.1526-4.8356,1.1839-5.6372,3.548l-1.42,6.015c-1.11,4.93-3.5682,1.2715-5.7876-1.2871-2.8681-3.3065-3.0944-5.5238-2.8727-8.5924h-2.4909V142.44c0,6.3356,2.908,11.0964,6.1909,15.74,4.3836,6.2,9.3423,9.1345,16.8266,9.5266v.0385c.1507,0,.2937-.0152.4425-.0193.1488.0041.2917.0189.4425.0193v-.0385c7.4843-.3921,12.443-3.3267,16.8266-9.5266,3.2829-4.6431,6.1909-9.4039,6.1909-15.74v-1.2928Z" style="fill: #3a3a3a"/>
      <path d="M226.2283,158.7276a1.817,1.817,0,1,1-3.6341,0" style="fill: none;stroke: #424242;stroke-linecap: round;stroke-miterlimit: 10"/>
      <path d="M232.4294,158.7276a3.1006,3.1006,0,0,1-6.2011,0" style="fill: none;stroke: #424242;stroke-linecap: round;stroke-miterlimit: 10"/>
      <path id="_Path_14" data-name="&lt;Path&gt;" d="M224.9965,147.895a5.2962,5.2962,0,0,0,8.6673-.147" style="fill: none;stroke: #feccae;stroke-linecap: round;stroke-miterlimit: 10;stroke-width: 4px"/>
      <path id="_Path_15" data-name="&lt;Path&gt;" d="M224.9965,147.895a5.2962,5.2962,0,0,0,8.6673-.147" style="fill: none;stroke: #eaa688;stroke-linecap: round;stroke-miterlimit: 10;stroke-width: 1.6px"/>
    </g>
    <path d="M256.8931,264.7858H202.34a1.5671,1.5671,0,0,1-1.4582-1.9067l1.6168-8.6719h54.1545l1.6959,8.6567A1.5682,1.5682,0,0,1,256.8931,264.7858Z" style="fill: #3a3a3a"/>
    <rect x="176.2803" y="380.4283" width="47.2692" height="5.0697" rx="2.5348" ry="2.5348" style="fill: #e8e7e6"/>
    <rect x="236.0891" y="380.4283" width="47.2692" height="5.0697" rx="2.5348" ry="2.5348" transform="translate(519.4473 765.9262) rotate(180)" style="fill: #e8e7e6"/>
  </g>
</svg>
