<svg id="89975842-e5ff-4763-8e9d-7805509e6132" data-name="Layer 1" xmlns="http://www.w3.org/2000/svg" xmlns:xlink="http://www.w3.org/1999/xlink" viewBox="0 0 528.15 480"><defs><linearGradient id="78a373ec-dcb1-4f50-afb3-def9fb1cd0e1" x1="274.91" y1="180.07" x2="274.91" y2="167.23" gradientUnits="userSpaceOnUse"><stop offset="0" stop-color="#3a3a3a" stop-opacity="0"/><stop offset="0.25" stop-color="#3a3a3a" stop-opacity="0.14"/><stop offset="0.64" stop-color="#3a3a3a" stop-opacity="0.53"/><stop offset="1" stop-color="#3a3a3a"/></linearGradient><linearGradient id="7915f195-7515-4652-99a0-f8cdf463e192" x1="228.28" y1="180.07" x2="228.28" y2="167.23" xlink:href="#78a373ec-dcb1-4f50-afb3-def9fb1cd0e1"/></defs><title>joaco - sitio web 2016 v02 - Export2</title><g id="ffadb85e-3014-4b85-81e5-43aaf8a0f257" data-name="&lt;Rectangle&gt;"><rect x="118.35" y="99.83" width="300.49" height="177.74" rx="1.62" ry="1.62" fill="#fff"/><path d="M414.1,104.58V272.81h-291V104.58h291m3.13-9.51H120a6.38,6.38,0,0,0-6.38,6.38V275.94a6.38,6.38,0,0,0,6.38,6.38H417.22a6.38,6.38,0,0,0,6.38-6.38V101.45a6.38,6.38,0,0,0-6.38-6.38Z" fill="#d1d1d1"/></g><path id="a58e3a6f-f118-45a1-bcf0-c8915825900a" data-name="&lt;Rectangle&gt;" d="M107.6,273.68h322a0,0,0,0,1,0,0v6.23a9.58,9.58,0,0,1-9.58,9.58H117.18a9.58,9.58,0,0,1-9.58-9.58v-6.23a0,0,0,0,1,0,0Z" opacity="0.05"/><rect id="e3a770aa-2368-495c-951a-0a898283c118" data-name="&lt;Rectangle&gt;" x="107.6" y="269.74" width="322" height="12.58" rx="6.29" ry="6.29" fill="#c6c6c6"/><rect id="18b6bafe-1589-4755-ba37-d7f4dd1033d1" data-name="&lt;Rectangle&gt;" x="107.6" y="95.07" width="322" height="12.58" rx="6.29" ry="6.29" fill="#b2b2b2"/><rect id="711448a6-b986-4b2a-9bb0-19b05b43caf8" data-name="&lt;Rectangle&gt;" x="113.6" y="107.65" width="310" height="11.28" opacity="0.05"/><path d="M315.76,173.81l-3,8.47h-9.35l15.62-43h11.54l15.62,43H336l-3.14-8.47Zm2.63-7.34h11.92c-1.88-5.65-3.83-11.29-5.77-16.88h-.31Z" fill="#474747"/><path d="M364.38,155.86c-3.7,0-5.58,2.26-5.58,3.7v.5h-8.85a6.16,6.16,0,0,1-.13-1.13c0-5.4,5.71-9.35,14.12-9.35h1.32c9.29,0,13.8,4,13.8,10v14.81c0,1.63.94,2.26,1.82,2.26a7.12,7.12,0,0,0,2.57-.69v5.65a11.12,11.12,0,0,1-5.52,1.32c-4.77,0-7-2.13-7.4-5.4a13.61,13.61,0,0,1-10.79,5.4c-5.14,0-10.92-1.32-10.92-9.35,0-9.22,8.41-10.79,21.27-10.79v-2.13C370.09,158,368.64,155.86,364.38,155.86Zm-6.09,17c0,2.82,1.63,3.76,4.71,3.76s7.09-2.76,7.09-7v-1.69C362.37,167.91,358.29,169.23,358.29,172.87Z" fill="#474747"/><path d="M322.81,205.92v-2l6.82-2.53c-2.29-.84-4.55-1.67-6.82-2.53v-2l8.95,3.46v2.16C328.77,203.64,325.8,204.8,322.81,205.92Z" fill="#a5a5a5"/><path d="M342.67,203.89c1.67,0,2.44-.88,2.44-2.76h2.48a4.56,4.56,0,0,1-4.8,4.92h-.25a5,5,0,0,1-5.27-5.34V199a5,5,0,0,1,5.2-5.34h.25a4.55,4.55,0,0,1,4.87,5H345c0-1.85-.84-2.79-2.36-2.79a2.5,2.5,0,0,0-2.53,2.79v2.5A2.51,2.51,0,0,0,342.67,203.89Z" fill="#474747"/><path d="M352.16,197.77a3.37,3.37,0,0,1,2.5-1.05c1.72,0,3.15.93,3.15,2.88v6.28h-2.57v-5.71a1.45,1.45,0,0,0-1.41-1.58,1.73,1.73,0,0,0-1.67,1.78v5.52h-2.57V193.22h2.57Z" fill="#474747"/><path d="M362.68,193.22v2h-2.6v-2Zm-2.58,3.67h2.57v9H360.1Z" fill="#474747"/><path d="M367.08,205.87l-3.15-9h2.72l2,6h.09l2-6h2.5l-3.16,9Z" fill="#474747"/><path d="M378.68,206h-.28a4.16,4.16,0,0,1-4.39-4.41v-.51a4.16,4.16,0,0,1,4.39-4.41h.28a4.16,4.16,0,0,1,4.39,4.41v.51A4.16,4.16,0,0,1,378.68,206Zm-.14-7.58c-1.09,0-1.93.72-1.93,2.2v1.42c0,1.48.84,2.2,1.93,2.2s1.93-.72,1.93-2.2v-1.42C380.47,199.19,379.63,198.47,378.54,198.47Z" fill="#474747"/><path d="M349.84,213.42c0-.88-.74-1.42-2-1.42s-2,.46-2,1.13c0,2.29,6.84.76,6.84,5.15,0,2.87-2.06,4-5,4-2.58,0-4.87-1.07-4.87-3.73,0-.14,0-.3,0-.39h2.57s0,.19,0,.28c0,1,.77,1.67,2.21,1.67,1.78,0,2.3-.69,2.3-1.37,0-2.32-6.8-.7-6.8-5.31,0-2.41,2.16-3.57,4.71-3.57s4.59,1.07,4.59,3.53v.21h-2.55Z" fill="#474747"/><path d="M358.42,214.67c-1,0-1.56.63-1.56,1v.14h-2.48a1.74,1.74,0,0,1,0-.32c0-1.51,1.6-2.62,4-2.62h.37c2.6,0,3.87,1.13,3.87,2.79v4.15c0,.46.26.63.51.63a2,2,0,0,0,.72-.19v1.58a3.12,3.12,0,0,1-1.55.37c-1.34,0-2-.6-2.07-1.51a3.81,3.81,0,0,1-3,1.51c-1.44,0-3.06-.37-3.06-2.62,0-2.58,2.36-3,6-3V216C360,215.27,359.61,214.67,358.42,214.67Zm-1.71,4.76c0,.79.46,1.05,1.32,1.05a2,2,0,0,0,2-2V218C357.85,218,356.71,218.41,356.71,219.43Z" fill="#474747"/><path d="M367.22,214.41a3.48,3.48,0,0,1,2.87-1.49c1.72,0,3.15.93,3.15,2.88v6.28h-2.57v-5.71a1.45,1.45,0,0,0-1.41-1.58,1.73,1.73,0,0,0-1.67,1.78v5.52H365v-9h1.92Z" fill="#474747"/><path d="M377.13,219.33c0,.9,1,1.16,1.9,1.16.77,0,1.81-.19,1.81-.88,0-1.78-5.7-.18-5.7-3.85,0-1.9,1.86-2.85,3.9-2.85h.35c1.83,0,3.62.95,3.62,2.43a2.8,2.8,0,0,1,0,.39h-2.25c0-.74-.62-1.05-1.62-1.05s-1.63.3-1.63.79c0,1.63,5.73,0,5.73,3.76,0,2.29-1.92,3-4,3h-.58c-2.2,0-3.78-1.07-3.78-2.69,0-.18,0-.28,0-.35h2.25Z" fill="#474747"/><path d="M143.86,149.92h-.35l-.25,0a2.43,2.43,0,0,1-.86-.44,1.9,1.9,0,0,1-.56-.73,1.62,1.62,0,0,1-.15-.44,2.37,2.37,0,0,1,0-.4,2.7,2.7,0,0,1,.05-.53l-.33-.22a.91.91,0,0,1-.26-.26,1.9,1.9,0,0,1-.41-1.16,1.76,1.76,0,0,1,.18-.78,2.29,2.29,0,0,1,.49-.66l.32-.32a6.13,6.13,0,0,0,.42-.48l.34-.38.49-.52.49-.5.48-.41a4.26,4.26,0,0,1,.36-.27,2.43,2.43,0,0,1,1.85-.34,1.78,1.78,0,0,1,1.32,1.11l0,0a2.5,2.5,0,0,1,.11.3,1.81,1.81,0,0,1,.06.3c.16-.17.3-.33.43-.49l.34-.42.24-.27.05-.07,0-.05a2.21,2.21,0,0,1,.93-.66,1.82,1.82,0,0,1,1.09-.06,1.77,1.77,0,0,1,.69.38,2.46,2.46,0,0,1,.52.63,2.06,2.06,0,0,1,.21.93,3.52,3.52,0,0,1-.06.52,1.31,1.31,0,0,1,0,.16l0,.15-.1.33,0,.05a2.12,2.12,0,0,1,.67.19,1.71,1.71,0,0,1,.57.43,2,2,0,0,1,.44,1.23,1.84,1.84,0,0,1-.7,1.45l-.08.08q-.36.31-.76.62a10.19,10.19,0,0,1-.85.58,3.87,3.87,0,0,1-2,.6,3,3,0,0,1-.82-.12,1.87,1.87,0,0,1-.57-.23,1.67,1.67,0,0,1-.45-.4l-.39.32-.43.3h0a7.11,7.11,0,0,1-.75.46c-.24.13-.47.23-.68.32a2.73,2.73,0,0,1-.62.17A4,4,0,0,1,143.86,149.92Z" fill="#dbdbdb"/><path d="M161.27,149.92h-.35l-.25,0a2.43,2.43,0,0,1-.86-.44,1.9,1.9,0,0,1-.56-.73,1.62,1.62,0,0,1-.15-.44,2.37,2.37,0,0,1,0-.4,2.7,2.7,0,0,1,.05-.53l-.33-.22a.91.91,0,0,1-.26-.26,1.9,1.9,0,0,1-.41-1.16,1.76,1.76,0,0,1,.18-.78,2.29,2.29,0,0,1,.49-.66l.32-.32a6.13,6.13,0,0,0,.42-.48l.34-.38.49-.52.49-.5.48-.41a4.26,4.26,0,0,1,.36-.27,2.43,2.43,0,0,1,1.85-.34,1.78,1.78,0,0,1,1.32,1.11l0,0a2.5,2.5,0,0,1,.11.3,1.81,1.81,0,0,1,.06.3c.16-.17.3-.33.43-.49l.34-.42.24-.27.05-.07,0-.05a2.21,2.21,0,0,1,.93-.66,1.82,1.82,0,0,1,1.09-.06,1.77,1.77,0,0,1,.69.38,2.46,2.46,0,0,1,.52.63,2.06,2.06,0,0,1,.21.93,3.52,3.52,0,0,1-.06.52,1.31,1.31,0,0,1,0,.16l0,.15-.1.33,0,.05a2.12,2.12,0,0,1,.67.19,1.71,1.71,0,0,1,.57.43,2,2,0,0,1,.44,1.23,1.84,1.84,0,0,1-.7,1.45l-.08.08q-.36.31-.76.62a10.19,10.19,0,0,1-.85.58,3.87,3.87,0,0,1-2,.6,3,3,0,0,1-.82-.12,1.87,1.87,0,0,1-.57-.23,1.67,1.67,0,0,1-.45-.4l-.39.32-.43.3h0a7.11,7.11,0,0,1-.75.46c-.24.13-.47.23-.68.32a2.73,2.73,0,0,1-.62.17A4,4,0,0,1,161.27,149.92Z" fill="#dbdbdb"/><path d="M171.37,148.3a2.37,2.37,0,0,1-.46-.05,1.86,1.86,0,0,1-.7-.35,2,2,0,0,1-.5-.59,1.7,1.7,0,0,1-1,.08,1.62,1.62,0,0,1-.9-.54,1.51,1.51,0,0,1-.34-.58,1.74,1.74,0,0,1-.08-.66,1.76,1.76,0,0,1,.17-.63,1.84,1.84,0,0,1,.4-.54l.4-.36.45-.44q.41-.41.86-.83t.88-.76c.19-.15.38-.28.56-.39a5.5,5.5,0,0,1,.5-.29,2.63,2.63,0,0,1,1.74-.24,2,2,0,0,1,.81.46,2.17,2.17,0,0,1,.54.79,2.14,2.14,0,0,1,0,1.44l-.07.17-.09.19a1.75,1.75,0,0,1,.89,1,1.81,1.81,0,0,1,.1.68,1.75,1.75,0,0,1-.15.64,1.66,1.66,0,0,1-.38.53,1.63,1.63,0,0,1-.59.35l-1,.37-.74.26-.32.12-.22.09-.36.09A1.55,1.55,0,0,1,171.37,148.3Z" fill="#dbdbdb"/><path d="M176.07,148.3a2.37,2.37,0,0,1-.46-.05,1.86,1.86,0,0,1-.7-.35,2,2,0,0,1-.5-.59,1.7,1.7,0,0,1-1,.08,1.62,1.62,0,0,1-.9-.54,1.51,1.51,0,0,1-.34-.58,1.74,1.74,0,0,1-.08-.66,1.76,1.76,0,0,1,.17-.63,1.84,1.84,0,0,1,.4-.54l.4-.36.45-.44q.41-.41.86-.83t.88-.76c.19-.15.38-.28.56-.39a5.5,5.5,0,0,1,.5-.29,2.63,2.63,0,0,1,1.74-.24,2,2,0,0,1,.81.46,2.17,2.17,0,0,1,.54.79,2.14,2.14,0,0,1,0,1.44l-.07.17-.09.19a1.75,1.75,0,0,1,.89,1,1.81,1.81,0,0,1,.1.68,1.75,1.75,0,0,1-.15.64,1.66,1.66,0,0,1-.38.53,1.63,1.63,0,0,1-.59.35l-1,.37-.74.26-.32.12-.22.09-.36.09A1.55,1.55,0,0,1,176.07,148.3Z" fill="#dbdbdb"/><path d="M181.34,149.82a2.69,2.69,0,0,1-.65-.08,1.66,1.66,0,0,1-.65-.32,1.56,1.56,0,0,1-.45-.56,1.61,1.61,0,0,1-.16-.43,1.9,1.9,0,0,1,0-.38,2.52,2.52,0,0,1,0-.32c0-.09,0-.17,0-.22l0-.18a1.39,1.39,0,0,1,.05-.2l-.22.11-.22.08a1.74,1.74,0,0,1-.58.1,1.71,1.71,0,0,1-1-.3,1.63,1.63,0,0,1-.63-.83,1.59,1.59,0,0,1-.09-.67A1.81,1.81,0,0,1,177,145a1.88,1.88,0,0,1,.38-.53,1.51,1.51,0,0,1,.58-.36l.2-.08a4,4,0,0,0,.42-.25q.27-.18.68-.5t1-.84l.64-.58.52-.48.35-.33a.66.66,0,0,1,.15-.13,1.7,1.7,0,0,1,.76-.45,1.74,1.74,0,0,1,1.94.87,2.14,2.14,0,0,1,.18.53,1.54,1.54,0,0,1-.06.79s0,0,0,0,0,0,0,0a.29.29,0,0,0,0,.08.33.33,0,0,1,0,.09,2.25,2.25,0,0,1-.09.26l-.13.33-.14.41c-.05.15-.11.3-.18.46l.07,0,.07-.05a1.7,1.7,0,0,1,1.27-.24,1.73,1.73,0,0,1,.6.26,1.64,1.64,0,0,1,.47.48,1.55,1.55,0,0,1,.26.63,1.71,1.71,0,0,1,0,.66,1.83,1.83,0,0,1-.26.61,1.59,1.59,0,0,1-.48.48l-.78.54-.74.56-.79.6a6.25,6.25,0,0,1-.74.48,4,4,0,0,1-.51.25l-.48.16A3.13,3.13,0,0,1,181.34,149.82Z" fill="#dbdbdb"/><path d="M189.08,148.81a1.61,1.61,0,0,1-1.08-.38,1.65,1.65,0,0,1-.56-.82,1.73,1.73,0,0,1,0-1,.12.12,0,0,1,0-.05.13.13,0,0,0,0-.05.12.12,0,0,1,0-.05,10.81,10.81,0,0,1-1.71.85,1.71,1.71,0,0,1-1.3-.05,1.81,1.81,0,0,1-.53-.38,1.62,1.62,0,0,1-.36-.57,1.43,1.43,0,0,1-.11-.67,1.89,1.89,0,0,1,.16-.64,1.78,1.78,0,0,1,.38-.54,1.63,1.63,0,0,1,.57-.36,7.35,7.35,0,0,0,1-.5,16,16,0,0,0,1.89-1.35l.66-.55.52-.46.48-.44a1.65,1.65,0,0,1,1.64-.43,1.57,1.57,0,0,1,.62.31,1.92,1.92,0,0,1,.44.51,1.71,1.71,0,0,1,.24,1,7.27,7.27,0,0,1-.19,1.15c0,.11,0,.22-.08.33l-.09.35a1.73,1.73,0,0,1,1,.24,1.75,1.75,0,0,1,.7.79,1.69,1.69,0,0,1,.14.66,1.87,1.87,0,0,1-.11.64,1.62,1.62,0,0,1-.9.94l-1,.49-.82.42-.56.3-.22.11A1.72,1.72,0,0,1,189.08,148.81Z" fill="#dbdbdb"/><path d="M193.08,149.92h-.35l-.25,0a2.43,2.43,0,0,1-.86-.44,1.9,1.9,0,0,1-.56-.73,1.62,1.62,0,0,1-.15-.44,2.37,2.37,0,0,1,0-.4,2.7,2.7,0,0,1,.05-.53l-.33-.22a.91.91,0,0,1-.26-.26,1.9,1.9,0,0,1-.41-1.16,1.76,1.76,0,0,1,.18-.78,2.29,2.29,0,0,1,.49-.66l.32-.32a6.13,6.13,0,0,0,.42-.48l.34-.38.49-.52.49-.5.48-.41a4.26,4.26,0,0,1,.36-.27,2.43,2.43,0,0,1,1.85-.34,1.78,1.78,0,0,1,1.32,1.11l0,0a2.5,2.5,0,0,1,.11.3,1.81,1.81,0,0,1,.06.3c.16-.17.3-.33.43-.49l.34-.42.24-.27.05-.07,0-.05a2.21,2.21,0,0,1,.93-.66,1.82,1.82,0,0,1,1.09-.06,1.77,1.77,0,0,1,.69.38,2.46,2.46,0,0,1,.52.63,2.06,2.06,0,0,1,.21.93,3.52,3.52,0,0,1-.06.52,1.31,1.31,0,0,1,0,.16l0,.15-.1.33,0,.05a2.12,2.12,0,0,1,.67.19,1.71,1.71,0,0,1,.57.43,2,2,0,0,1,.44,1.23,1.84,1.84,0,0,1-.7,1.45l-.08.08q-.36.31-.76.62a10.19,10.19,0,0,1-.85.58,3.87,3.87,0,0,1-2,.6,3,3,0,0,1-.82-.12,1.87,1.87,0,0,1-.57-.23,1.67,1.67,0,0,1-.45-.4l-.39.32-.43.3h0a7.11,7.11,0,0,1-.75.46c-.24.13-.47.23-.68.32a2.73,2.73,0,0,1-.62.17A4,4,0,0,1,193.08,149.92Z" fill="#dbdbdb"/><path d="M206.89,148.64a1.91,1.91,0,0,1-.53-.08,1.63,1.63,0,0,1-.73-.38,1.78,1.78,0,0,1-.46-.68,2,2,0,0,1,0-1.47,5.36,5.36,0,0,1,.31-.68l.08-.15.09-.16c-.26.14-.52.28-.77.44s-.51.3-.77.44q-.7.43-1.34.78t-1.19.59a1.52,1.52,0,0,1-.66.15,1.77,1.77,0,0,1-.64-.12,1.74,1.74,0,0,1-.56-.35,1.61,1.61,0,0,1-.38-.56,1.52,1.52,0,0,1-.15-.66,1.75,1.75,0,0,1,.12-.64,1.72,1.72,0,0,1,.35-.55,1.59,1.59,0,0,1,.56-.38q.39-.19,1-.5l1.22-.69,1.58-.91a16.15,16.15,0,0,1,1.63-.81,6.89,6.89,0,0,1,1.69-.6,4.93,4.93,0,0,1,1-.15,3.09,3.09,0,0,1,.92.1,1.86,1.86,0,0,1,1.28,1.16,1.91,1.91,0,0,1,.08,1.27,6.1,6.1,0,0,1-.47,1.16l.11,0a.26.26,0,0,0,.11,0A1.54,1.54,0,0,1,211,144a1.85,1.85,0,0,1,.63.16,1.69,1.69,0,0,1,.88,1,1.78,1.78,0,0,1,.1.67,1.71,1.71,0,0,1-.15.63,1.66,1.66,0,0,1-.38.53,1.63,1.63,0,0,1-.59.35l-1.47.52-1.18.4q-.72.21-1.16.3A3.94,3.94,0,0,1,206.89,148.64Z" fill="#dbdbdb"/><path d="M212.24,149.92h-.35l-.25,0a2.43,2.43,0,0,1-.86-.44,1.9,1.9,0,0,1-.56-.73,1.62,1.62,0,0,1-.15-.44,2.37,2.37,0,0,1,0-.4,2.7,2.7,0,0,1,.05-.53l-.33-.22a.91.91,0,0,1-.26-.26,1.9,1.9,0,0,1-.41-1.16,1.76,1.76,0,0,1,.18-.78,2.29,2.29,0,0,1,.49-.66l.32-.32a6.13,6.13,0,0,0,.42-.48l.34-.38.49-.52.49-.5.48-.41a4.26,4.26,0,0,1,.36-.27,2.43,2.43,0,0,1,1.85-.34,1.78,1.78,0,0,1,1.32,1.11l0,0a2.5,2.5,0,0,1,.11.3,1.81,1.81,0,0,1,.06.3c.16-.17.3-.33.43-.49l.34-.42.24-.27.05-.07,0-.05a2.21,2.21,0,0,1,.93-.66,1.82,1.82,0,0,1,1.09-.06,1.77,1.77,0,0,1,.69.38,2.46,2.46,0,0,1,.52.63,2.06,2.06,0,0,1,.21.93,3.52,3.52,0,0,1-.06.52,1.31,1.31,0,0,1,0,.16l0,.15-.1.33,0,.05a2.12,2.12,0,0,1,.67.19,1.71,1.71,0,0,1,.57.43,2,2,0,0,1,.44,1.23,1.84,1.84,0,0,1-.7,1.45l-.08.08q-.36.31-.76.62a10.19,10.19,0,0,1-.85.58,3.87,3.87,0,0,1-2,.6,3,3,0,0,1-.82-.12,1.87,1.87,0,0,1-.57-.23,1.67,1.67,0,0,1-.45-.4l-.39.32-.43.3h0a7.11,7.11,0,0,1-.75.46c-.24.13-.47.23-.68.32a2.73,2.73,0,0,1-.62.17A4,4,0,0,1,212.24,149.92Z" fill="#dbdbdb"/><path d="M221.34,149.92H221l-.25,0a2.43,2.43,0,0,1-.86-.44,1.9,1.9,0,0,1-.56-.73,1.62,1.62,0,0,1-.15-.44,2.37,2.37,0,0,1,0-.4,2.7,2.7,0,0,1,.05-.53l-.33-.22a.91.91,0,0,1-.26-.26,1.9,1.9,0,0,1-.41-1.16,1.76,1.76,0,0,1,.18-.78,2.29,2.29,0,0,1,.49-.66l.32-.32a6.13,6.13,0,0,0,.42-.48l.34-.38.49-.52.49-.5.48-.41a4.26,4.26,0,0,1,.36-.27,2.43,2.43,0,0,1,1.85-.34,1.78,1.78,0,0,1,1.32,1.11l0,0a2.5,2.5,0,0,1,.11.3,1.81,1.81,0,0,1,.06.3c.16-.17.3-.33.43-.49l.34-.42.24-.27.05-.07,0-.05a2.21,2.21,0,0,1,.93-.66,1.82,1.82,0,0,1,1.09-.06,1.77,1.77,0,0,1,.69.38,2.46,2.46,0,0,1,.52.63,2.06,2.06,0,0,1,.21.93,3.52,3.52,0,0,1-.06.52,1.31,1.31,0,0,1,0,.16l0,.15-.1.33,0,.05a2.12,2.12,0,0,1,.67.19,1.71,1.71,0,0,1,.57.43,2,2,0,0,1,.44,1.23,1.84,1.84,0,0,1-.7,1.45l-.08.08q-.36.31-.76.62a10.19,10.19,0,0,1-.85.58,3.87,3.87,0,0,1-2,.6,3,3,0,0,1-.82-.12,1.87,1.87,0,0,1-.57-.23,1.67,1.67,0,0,1-.45-.4l-.39.32-.43.3h0a7.11,7.11,0,0,1-.75.46c-.24.13-.47.23-.68.32a2.73,2.73,0,0,1-.62.17A4,4,0,0,1,221.34,149.92Z" fill="#dbdbdb"/><path d="M238.74,149.92h-.35l-.25,0a2.43,2.43,0,0,1-.86-.44,1.9,1.9,0,0,1-.56-.73,1.62,1.62,0,0,1-.15-.44,2.37,2.37,0,0,1,0-.4,2.7,2.7,0,0,1,.05-.53l-.33-.22a.91.91,0,0,1-.26-.26,1.9,1.9,0,0,1-.41-1.16,1.76,1.76,0,0,1,.18-.78,2.29,2.29,0,0,1,.49-.66l.32-.32a6.13,6.13,0,0,0,.42-.48l.34-.38.49-.52.49-.5.48-.41a4.26,4.26,0,0,1,.36-.27,2.43,2.43,0,0,1,1.85-.34,1.78,1.78,0,0,1,1.32,1.11l0,0a2.5,2.5,0,0,1,.11.3,1.81,1.81,0,0,1,.06.3c.16-.17.3-.33.43-.49l.34-.42.24-.27.05-.07,0-.05a2.21,2.21,0,0,1,.93-.66,1.82,1.82,0,0,1,1.09-.06,1.77,1.77,0,0,1,.69.38,2.46,2.46,0,0,1,.52.63,2.06,2.06,0,0,1,.21.93,3.52,3.52,0,0,1-.06.52,1.31,1.31,0,0,1,0,.16l0,.15-.1.33,0,.05a2.12,2.12,0,0,1,.67.19,1.71,1.71,0,0,1,.57.43,2,2,0,0,1,.44,1.23,1.84,1.84,0,0,1-.7,1.45l-.08.08q-.36.31-.76.62a10.19,10.19,0,0,1-.85.58,3.87,3.87,0,0,1-2,.6,3,3,0,0,1-.82-.12,1.87,1.87,0,0,1-.57-.23,1.67,1.67,0,0,1-.45-.4l-.39.32-.43.3h0a7.11,7.11,0,0,1-.75.46c-.24.13-.47.23-.68.32a2.73,2.73,0,0,1-.62.17A4,4,0,0,1,238.74,149.92Z" fill="#dbdbdb"/><path d="M252.56,148.64a1.91,1.91,0,0,1-.53-.08,1.63,1.63,0,0,1-.73-.38,1.78,1.78,0,0,1-.46-.68,2,2,0,0,1,0-1.47,5.36,5.36,0,0,1,.31-.68l.08-.15.09-.16c-.26.14-.52.28-.77.44s-.51.3-.77.44q-.7.43-1.34.78t-1.19.59a1.52,1.52,0,0,1-.66.15,1.77,1.77,0,0,1-.64-.12,1.74,1.74,0,0,1-.56-.35,1.61,1.61,0,0,1-.38-.56,1.52,1.52,0,0,1-.15-.66,1.75,1.75,0,0,1,.12-.64,1.72,1.72,0,0,1,.35-.55,1.59,1.59,0,0,1,.56-.38q.39-.19,1-.5l1.22-.69,1.58-.91a16.15,16.15,0,0,1,1.63-.81,6.89,6.89,0,0,1,1.69-.6,4.93,4.93,0,0,1,1-.15,3.09,3.09,0,0,1,.92.1,1.86,1.86,0,0,1,1.28,1.16,1.91,1.91,0,0,1,.08,1.27,6.1,6.1,0,0,1-.47,1.16l.11,0a.26.26,0,0,0,.11,0,1.54,1.54,0,0,1,.66-.09,1.85,1.85,0,0,1,.63.16,1.69,1.69,0,0,1,.88,1,1.78,1.78,0,0,1,.1.67,1.71,1.71,0,0,1-.15.63,1.66,1.66,0,0,1-.38.53,1.63,1.63,0,0,1-.59.35l-1.47.52-1.18.4q-.72.21-1.16.3A3.94,3.94,0,0,1,252.56,148.64Z" fill="#dbdbdb"/><path d="M257.91,149.92h-.35l-.25,0a2.43,2.43,0,0,1-.86-.44,1.9,1.9,0,0,1-.56-.73,1.62,1.62,0,0,1-.15-.44,2.37,2.37,0,0,1,0-.4,2.7,2.7,0,0,1,.05-.53l-.33-.22a.91.91,0,0,1-.26-.26,1.9,1.9,0,0,1-.41-1.16,1.76,1.76,0,0,1,.18-.78,2.29,2.29,0,0,1,.49-.66l.32-.32a6.13,6.13,0,0,0,.42-.48l.34-.38.49-.52.49-.5.48-.41a4.26,4.26,0,0,1,.36-.27,2.43,2.43,0,0,1,1.85-.34,1.78,1.78,0,0,1,1.32,1.11l0,0a2.5,2.5,0,0,1,.11.3,1.81,1.81,0,0,1,.06.3c.16-.17.3-.33.43-.49l.34-.42.24-.27.05-.07,0-.05a2.21,2.21,0,0,1,.93-.66,1.82,1.82,0,0,1,1.09-.06,1.77,1.77,0,0,1,.69.38,2.46,2.46,0,0,1,.52.63,2.06,2.06,0,0,1,.21.93,3.52,3.52,0,0,1-.06.52,1.31,1.31,0,0,1,0,.16l0,.15-.1.33,0,.05a2.12,2.12,0,0,1,.67.19,1.71,1.71,0,0,1,.57.43,2,2,0,0,1,.44,1.23,1.84,1.84,0,0,1-.7,1.45l-.08.08q-.36.31-.76.62a10.19,10.19,0,0,1-.85.58,3.87,3.87,0,0,1-2,.6,3,3,0,0,1-.82-.12,1.87,1.87,0,0,1-.57-.23,1.67,1.67,0,0,1-.45-.4l-.39.32-.43.3h0a7.11,7.11,0,0,1-.75.46c-.24.13-.47.23-.68.32a2.73,2.73,0,0,1-.62.17A4,4,0,0,1,257.91,149.92Z" fill="#dbdbdb"/><path d="M267,149.92h-.35l-.25,0a2.43,2.43,0,0,1-.86-.44,1.9,1.9,0,0,1-.56-.73,1.62,1.62,0,0,1-.15-.44,2.37,2.37,0,0,1,0-.4,2.7,2.7,0,0,1,.05-.53l-.33-.22a.91.91,0,0,1-.26-.26,1.9,1.9,0,0,1-.41-1.16,1.76,1.76,0,0,1,.18-.78,2.29,2.29,0,0,1,.49-.66l.32-.32a6.13,6.13,0,0,0,.42-.48l.34-.38.49-.52.49-.5.48-.41a4.26,4.26,0,0,1,.36-.27,2.43,2.43,0,0,1,1.85-.34,1.78,1.78,0,0,1,1.32,1.11l0,0a2.5,2.5,0,0,1,.11.3,1.81,1.81,0,0,1,.06.3c.16-.17.3-.33.43-.49l.34-.42.24-.27.05-.07,0-.05a2.21,2.21,0,0,1,.93-.66,1.82,1.82,0,0,1,1.09-.06,1.77,1.77,0,0,1,.69.38,2.46,2.46,0,0,1,.52.63,2.06,2.06,0,0,1,.21.93,3.52,3.52,0,0,1-.06.52,1.31,1.31,0,0,1,0,.16l0,.15-.1.33,0,.05a2.12,2.12,0,0,1,.67.19,1.71,1.71,0,0,1,.57.43,2,2,0,0,1,.44,1.23,1.84,1.84,0,0,1-.7,1.45l-.08.08q-.36.31-.76.62a10.19,10.19,0,0,1-.85.58,3.87,3.87,0,0,1-2,.6,3,3,0,0,1-.82-.12,1.87,1.87,0,0,1-.57-.23,1.67,1.67,0,0,1-.45-.4l-.39.32-.43.3h0a7.11,7.11,0,0,1-.75.46c-.24.13-.47.23-.68.32a2.73,2.73,0,0,1-.62.17A4,4,0,0,1,267,149.92Z" fill="#dbdbdb"/><path d="M280.81,148.64a1.91,1.91,0,0,1-.53-.08,1.63,1.63,0,0,1-.73-.38,1.78,1.78,0,0,1-.46-.68,2,2,0,0,1,0-1.47,5.36,5.36,0,0,1,.31-.68l.08-.15.09-.16c-.26.14-.52.28-.77.44s-.51.3-.77.44q-.7.43-1.34.78t-1.19.59a1.52,1.52,0,0,1-.66.15,1.77,1.77,0,0,1-.64-.12,1.74,1.74,0,0,1-.56-.35,1.61,1.61,0,0,1-.38-.56,1.52,1.52,0,0,1-.15-.66,1.75,1.75,0,0,1,.12-.64,1.72,1.72,0,0,1,.35-.55,1.59,1.59,0,0,1,.56-.38q.39-.19,1-.5l1.22-.69,1.58-.91a16.15,16.15,0,0,1,1.63-.81,6.89,6.89,0,0,1,1.69-.6,4.93,4.93,0,0,1,1-.15,3.09,3.09,0,0,1,.92.1,1.86,1.86,0,0,1,1.28,1.16,1.91,1.91,0,0,1,.08,1.27,6.1,6.1,0,0,1-.47,1.16l.11,0a.26.26,0,0,0,.11,0,1.54,1.54,0,0,1,.66-.09,1.85,1.85,0,0,1,.63.16,1.69,1.69,0,0,1,.88,1,1.78,1.78,0,0,1,.1.67,1.71,1.71,0,0,1-.15.63,1.66,1.66,0,0,1-.38.53,1.63,1.63,0,0,1-.59.35l-1.47.52-1.18.4q-.72.21-1.16.3A3.94,3.94,0,0,1,280.81,148.64Z" fill="#dbdbdb"/><path d="M286.16,149.92h-.35l-.25,0a2.43,2.43,0,0,1-.86-.44,1.9,1.9,0,0,1-.56-.73,1.62,1.62,0,0,1-.15-.44,2.37,2.37,0,0,1,0-.4,2.7,2.7,0,0,1,.05-.53l-.33-.22a.91.91,0,0,1-.26-.26,1.9,1.9,0,0,1-.41-1.16,1.76,1.76,0,0,1,.18-.78,2.29,2.29,0,0,1,.49-.66L284,144a6.13,6.13,0,0,0,.42-.48l.34-.38.49-.52.49-.5.48-.41a4.26,4.26,0,0,1,.36-.27,2.43,2.43,0,0,1,1.85-.34,1.78,1.78,0,0,1,1.32,1.11l0,0a2.5,2.5,0,0,1,.11.3,1.81,1.81,0,0,1,.06.3c.16-.17.3-.33.43-.49l.34-.42.24-.27.05-.07,0-.05a2.21,2.21,0,0,1,.93-.66,1.82,1.82,0,0,1,1.09-.06,1.77,1.77,0,0,1,.69.38,2.46,2.46,0,0,1,.52.63,2.06,2.06,0,0,1,.21.93,3.52,3.52,0,0,1-.06.52,1.31,1.31,0,0,1,0,.16l0,.15-.1.33,0,.05a2.12,2.12,0,0,1,.67.19,1.71,1.71,0,0,1,.57.43,2,2,0,0,1,.44,1.23,1.84,1.84,0,0,1-.7,1.45l-.08.08q-.36.31-.76.62a10.19,10.19,0,0,1-.85.58,3.87,3.87,0,0,1-2,.6,3,3,0,0,1-.82-.12,1.87,1.87,0,0,1-.57-.23,1.67,1.67,0,0,1-.45-.4l-.39.32-.43.3h0a7.11,7.11,0,0,1-.75.46c-.24.13-.47.23-.68.32a2.73,2.73,0,0,1-.62.17A4,4,0,0,1,286.16,149.92Z" fill="#dbdbdb"/><path d="M148.58,164.4a1.91,1.91,0,0,1-.53-.08,1.63,1.63,0,0,1-.73-.38,1.78,1.78,0,0,1-.46-.68,2,2,0,0,1,0-1.47,5.36,5.36,0,0,1,.31-.68l.08-.15.09-.16c-.26.14-.52.28-.77.44s-.51.3-.77.44q-.7.43-1.34.78t-1.19.59a1.52,1.52,0,0,1-.66.15,1.77,1.77,0,0,1-.64-.12,1.74,1.74,0,0,1-.56-.35,1.61,1.61,0,0,1-.38-.56,1.52,1.52,0,0,1-.15-.66,1.75,1.75,0,0,1,.12-.64,1.72,1.72,0,0,1,.35-.55,1.59,1.59,0,0,1,.56-.38q.39-.19,1-.5l1.22-.69,1.58-.91a16.15,16.15,0,0,1,1.63-.81,6.89,6.89,0,0,1,1.69-.6,4.93,4.93,0,0,1,1-.15,3.09,3.09,0,0,1,.92.1,1.86,1.86,0,0,1,1.28,1.16,1.91,1.91,0,0,1,.08,1.27,6.1,6.1,0,0,1-.47,1.16l.11,0a.26.26,0,0,0,.11,0,1.54,1.54,0,0,1,.66-.09,1.85,1.85,0,0,1,.63.16,1.69,1.69,0,0,1,.88,1,1.78,1.78,0,0,1,.1.67,1.71,1.71,0,0,1-.15.63,1.66,1.66,0,0,1-.38.53,1.63,1.63,0,0,1-.59.35l-1.47.52-1.18.4q-.72.21-1.16.3A3.94,3.94,0,0,1,148.58,164.4Z" fill="#dbdbdb"/><path d="M153.93,165.68h-.35l-.25,0a2.43,2.43,0,0,1-.86-.44,1.9,1.9,0,0,1-.56-.73,1.62,1.62,0,0,1-.15-.44,2.37,2.37,0,0,1,0-.4,2.7,2.7,0,0,1,.05-.53l-.33-.22a.91.91,0,0,1-.26-.26,1.9,1.9,0,0,1-.41-1.16,1.76,1.76,0,0,1,.18-.78,2.29,2.29,0,0,1,.49-.66l.32-.32a6.13,6.13,0,0,0,.42-.48l.34-.38.49-.52.49-.5.48-.41a4.26,4.26,0,0,1,.36-.27,2.43,2.43,0,0,1,1.85-.34,1.78,1.78,0,0,1,1.32,1.11l0,0a2.5,2.5,0,0,1,.11.3,1.81,1.81,0,0,1,.06.3c.16-.17.3-.33.43-.49l.34-.42.24-.27.05-.07,0-.05a2.21,2.21,0,0,1,.93-.66,1.82,1.82,0,0,1,1.09-.06,1.77,1.77,0,0,1,.69.38,2.46,2.46,0,0,1,.52.63,2.06,2.06,0,0,1,.21.93,3.52,3.52,0,0,1-.06.52,1.31,1.31,0,0,1,0,.16l0,.15-.1.33,0,.05a2.12,2.12,0,0,1,.67.19,1.71,1.71,0,0,1,.57.43,2,2,0,0,1,.44,1.23,1.84,1.84,0,0,1-.7,1.45l-.08.08q-.36.31-.76.62a10.19,10.19,0,0,1-.85.58,3.87,3.87,0,0,1-2,.6,3,3,0,0,1-.82-.12,1.87,1.87,0,0,1-.57-.23,1.67,1.67,0,0,1-.45-.4l-.39.32-.43.3h0a7.11,7.11,0,0,1-.75.46c-.24.13-.47.23-.68.32a2.73,2.73,0,0,1-.62.17A4,4,0,0,1,153.93,165.68Z" fill="#dbdbdb"/><path d="M163,165.68h-.35l-.25,0a2.43,2.43,0,0,1-.86-.44,1.9,1.9,0,0,1-.56-.73,1.62,1.62,0,0,1-.15-.44,2.37,2.37,0,0,1,0-.4,2.7,2.7,0,0,1,.05-.53l-.33-.22a.91.91,0,0,1-.26-.26,1.9,1.9,0,0,1-.41-1.16,1.76,1.76,0,0,1,.18-.78,2.29,2.29,0,0,1,.49-.66l.32-.32a6.13,6.13,0,0,0,.42-.48l.34-.38.49-.52.49-.5.48-.41a4.26,4.26,0,0,1,.36-.27,2.43,2.43,0,0,1,1.85-.34,1.78,1.78,0,0,1,1.32,1.11l0,0a2.5,2.5,0,0,1,.11.3,1.81,1.81,0,0,1,.06.3c.16-.17.3-.33.43-.49l.34-.42.24-.27.05-.07,0-.05a2.21,2.21,0,0,1,.93-.66,1.82,1.82,0,0,1,1.09-.06,1.77,1.77,0,0,1,.69.38,2.46,2.46,0,0,1,.52.63,2.06,2.06,0,0,1,.21.93,3.52,3.52,0,0,1-.06.52,1.31,1.31,0,0,1,0,.16l0,.15-.1.33,0,.05a2.12,2.12,0,0,1,.67.19,1.71,1.71,0,0,1,.57.43,2,2,0,0,1,.44,1.23,1.84,1.84,0,0,1-.7,1.45l-.08.08q-.36.31-.76.62a10.19,10.19,0,0,1-.85.58,3.87,3.87,0,0,1-2,.6,3,3,0,0,1-.82-.12,1.87,1.87,0,0,1-.57-.23,1.67,1.67,0,0,1-.45-.4l-.39.32-.43.3h0a7.11,7.11,0,0,1-.75.46c-.24.13-.47.23-.68.32a2.73,2.73,0,0,1-.62.17A4,4,0,0,1,163,165.68Z" fill="#dbdbdb"/><path d="M172.12,165.68h-.35l-.25,0a2.43,2.43,0,0,1-.86-.44,1.9,1.9,0,0,1-.56-.73A1.62,1.62,0,0,1,170,164a2.37,2.37,0,0,1,0-.4,2.7,2.7,0,0,1,.05-.53l-.33-.22a.91.91,0,0,1-.26-.26,1.9,1.9,0,0,1-.41-1.16,1.76,1.76,0,0,1,.18-.78,2.29,2.29,0,0,1,.49-.66l.32-.32a6.13,6.13,0,0,0,.42-.48l.34-.38.49-.52.49-.5.48-.41a4.26,4.26,0,0,1,.36-.27,2.43,2.43,0,0,1,1.85-.34,1.78,1.78,0,0,1,1.32,1.11l0,0a2.5,2.5,0,0,1,.11.3,1.81,1.81,0,0,1,.06.3c.16-.17.3-.33.43-.49l.34-.42.24-.27.05-.07,0-.05a2.21,2.21,0,0,1,.93-.66,1.82,1.82,0,0,1,1.09-.06,1.77,1.77,0,0,1,.69.38,2.46,2.46,0,0,1,.52.63,2.06,2.06,0,0,1,.21.93,3.52,3.52,0,0,1-.06.52,1.31,1.31,0,0,1,0,.16l0,.15-.1.33,0,.05a2.12,2.12,0,0,1,.67.19,1.71,1.71,0,0,1,.57.43,2,2,0,0,1,.44,1.23,1.84,1.84,0,0,1-.7,1.45L181,163q-.36.31-.76.62a10.19,10.19,0,0,1-.85.58,3.87,3.87,0,0,1-2,.6,3,3,0,0,1-.82-.12,1.87,1.87,0,0,1-.57-.23,1.67,1.67,0,0,1-.45-.4l-.39.32-.43.3h0a7.11,7.11,0,0,1-.75.46c-.24.13-.47.23-.68.32a2.73,2.73,0,0,1-.62.17A4,4,0,0,1,172.12,165.68Z" fill="#dbdbdb"/><path d="M185.94,164.4a1.91,1.91,0,0,1-.53-.08,1.63,1.63,0,0,1-.73-.38,1.78,1.78,0,0,1-.46-.68,2,2,0,0,1,0-1.47,5.36,5.36,0,0,1,.31-.68l.08-.15.09-.16c-.26.14-.52.28-.77.44s-.51.3-.77.44q-.7.43-1.34.78t-1.19.59a1.52,1.52,0,0,1-.66.15,1.77,1.77,0,0,1-.64-.12,1.74,1.74,0,0,1-.56-.35,1.61,1.61,0,0,1-.38-.56,1.52,1.52,0,0,1-.15-.66,1.75,1.75,0,0,1,.12-.64,1.72,1.72,0,0,1,.35-.55,1.59,1.59,0,0,1,.56-.38q.39-.19,1-.5l1.22-.69,1.58-.91a16.15,16.15,0,0,1,1.63-.81,6.89,6.89,0,0,1,1.69-.6,4.93,4.93,0,0,1,1-.15,3.09,3.09,0,0,1,.92.1,1.86,1.86,0,0,1,1.28,1.16,1.91,1.91,0,0,1,.08,1.27,6.1,6.1,0,0,1-.47,1.16l.11,0a.26.26,0,0,0,.11,0,1.54,1.54,0,0,1,.66-.09,1.85,1.85,0,0,1,.63.16,1.69,1.69,0,0,1,.88,1,1.78,1.78,0,0,1,.1.67,1.71,1.71,0,0,1-.15.63,1.66,1.66,0,0,1-.38.53,1.63,1.63,0,0,1-.59.35l-1.47.52-1.18.4q-.72.21-1.16.3A3.94,3.94,0,0,1,185.94,164.4Z" fill="#dbdbdb"/><path d="M191.29,165.68h-.35l-.25,0a2.43,2.43,0,0,1-.86-.44,1.9,1.9,0,0,1-.56-.73,1.62,1.62,0,0,1-.15-.44,2.37,2.37,0,0,1,0-.4,2.7,2.7,0,0,1,.05-.53l-.33-.22a.91.91,0,0,1-.26-.26,1.9,1.9,0,0,1-.41-1.16,1.76,1.76,0,0,1,.18-.78,2.29,2.29,0,0,1,.49-.66l.32-.32a6.13,6.13,0,0,0,.42-.48l.34-.38.49-.52.49-.5.48-.41a4.26,4.26,0,0,1,.36-.27,2.43,2.43,0,0,1,1.85-.34,1.78,1.78,0,0,1,1.32,1.11l0,0a2.5,2.5,0,0,1,.11.3,1.81,1.81,0,0,1,.06.3c.16-.17.3-.33.43-.49l.34-.42.24-.27.05-.07,0-.05a2.21,2.21,0,0,1,.93-.66,1.82,1.82,0,0,1,1.09-.06,1.77,1.77,0,0,1,.69.38,2.46,2.46,0,0,1,.52.63,2.06,2.06,0,0,1,.21.93,3.52,3.52,0,0,1-.06.52,1.31,1.31,0,0,1,0,.16l0,.15-.1.33,0,.05a2.12,2.12,0,0,1,.67.19,1.71,1.71,0,0,1,.57.43,2,2,0,0,1,.44,1.23,1.84,1.84,0,0,1-.7,1.45l-.08.08q-.36.31-.76.62a10.19,10.19,0,0,1-.85.58,3.87,3.87,0,0,1-2,.6,3,3,0,0,1-.82-.12,1.87,1.87,0,0,1-.57-.23,1.67,1.67,0,0,1-.45-.4l-.39.32-.43.3h0a7.11,7.11,0,0,1-.75.46c-.24.13-.47.23-.68.32a2.73,2.73,0,0,1-.62.17A4,4,0,0,1,191.29,165.68Z" fill="#dbdbdb"/><path d="M200.38,165.68H200l-.25,0a2.43,2.43,0,0,1-.86-.44,1.9,1.9,0,0,1-.56-.73,1.62,1.62,0,0,1-.15-.44,2.37,2.37,0,0,1,0-.4,2.7,2.7,0,0,1,.05-.53l-.33-.22a.91.91,0,0,1-.26-.26,1.9,1.9,0,0,1-.41-1.16,1.76,1.76,0,0,1,.18-.78,2.29,2.29,0,0,1,.49-.66l.32-.32a6.13,6.13,0,0,0,.42-.48l.34-.38.49-.52.49-.5.48-.41a4.26,4.26,0,0,1,.36-.27,2.43,2.43,0,0,1,1.85-.34,1.78,1.78,0,0,1,1.32,1.11l0,0a2.5,2.5,0,0,1,.11.3,1.81,1.81,0,0,1,.06.3c.16-.17.3-.33.43-.49l.34-.42.24-.27.05-.07,0-.05a2.21,2.21,0,0,1,.93-.66,1.82,1.82,0,0,1,1.09-.06,1.77,1.77,0,0,1,.69.38,2.46,2.46,0,0,1,.52.63,2.06,2.06,0,0,1,.21.93,3.52,3.52,0,0,1-.06.52,1.31,1.31,0,0,1,0,.16l0,.15-.1.33,0,.05a2.12,2.12,0,0,1,.67.19,1.71,1.71,0,0,1,.57.43,2,2,0,0,1,.44,1.23,1.84,1.84,0,0,1-.7,1.45l-.08.08q-.36.31-.76.62a10.19,10.19,0,0,1-.85.58,3.87,3.87,0,0,1-2,.6,3,3,0,0,1-.82-.12,1.87,1.87,0,0,1-.57-.23,1.67,1.67,0,0,1-.45-.4l-.39.32-.43.3h0a7.11,7.11,0,0,1-.75.46c-.24.13-.47.23-.68.32a2.73,2.73,0,0,1-.62.17A4,4,0,0,1,200.38,165.68Z" fill="#dbdbdb"/><path d="M214.19,164.4a1.91,1.91,0,0,1-.53-.08,1.63,1.63,0,0,1-.73-.38,1.78,1.78,0,0,1-.46-.68,2,2,0,0,1,0-1.47,5.36,5.36,0,0,1,.31-.68l.08-.15.09-.16c-.26.14-.52.28-.77.44s-.51.3-.77.44q-.7.43-1.34.78t-1.19.59a1.52,1.52,0,0,1-.66.15,1.77,1.77,0,0,1-.64-.12,1.74,1.74,0,0,1-.56-.35,1.61,1.61,0,0,1-.38-.56,1.52,1.52,0,0,1-.15-.66,1.75,1.75,0,0,1,.12-.64,1.72,1.72,0,0,1,.35-.55,1.59,1.59,0,0,1,.56-.38q.39-.19,1-.5l1.22-.69,1.58-.91a16.15,16.15,0,0,1,1.63-.81,6.89,6.89,0,0,1,1.69-.6,4.93,4.93,0,0,1,1-.15,3.09,3.09,0,0,1,.92.1,1.86,1.86,0,0,1,1.28,1.16,1.91,1.91,0,0,1,.08,1.27,6.1,6.1,0,0,1-.47,1.16l.11,0a.26.26,0,0,0,.11,0,1.54,1.54,0,0,1,.66-.09,1.85,1.85,0,0,1,.63.16,1.69,1.69,0,0,1,.88,1,1.78,1.78,0,0,1,.1.67,1.71,1.71,0,0,1-.15.63,1.66,1.66,0,0,1-.38.53,1.63,1.63,0,0,1-.59.35l-1.47.52-1.18.4q-.72.21-1.16.3A3.94,3.94,0,0,1,214.19,164.4Z" fill="#dbdbdb"/><path d="M219.54,165.68h-.35l-.25,0a2.43,2.43,0,0,1-.86-.44,1.9,1.9,0,0,1-.56-.73,1.62,1.62,0,0,1-.15-.44,2.37,2.37,0,0,1,0-.4,2.7,2.7,0,0,1,.05-.53l-.33-.22a.91.91,0,0,1-.26-.26,1.9,1.9,0,0,1-.41-1.16,1.76,1.76,0,0,1,.18-.78,2.29,2.29,0,0,1,.49-.66l.32-.32a6.13,6.13,0,0,0,.42-.48l.34-.38.49-.52.49-.5.48-.41a4.26,4.26,0,0,1,.36-.27,2.43,2.43,0,0,1,1.85-.34,1.78,1.78,0,0,1,1.32,1.11l0,0a2.5,2.5,0,0,1,.11.3,1.81,1.81,0,0,1,.06.3c.16-.17.3-.33.43-.49l.34-.42.24-.27.05-.07,0-.05a2.21,2.21,0,0,1,.93-.66,1.82,1.82,0,0,1,1.09-.06,1.77,1.77,0,0,1,.69.38,2.46,2.46,0,0,1,.52.63,2.06,2.06,0,0,1,.21.93,3.52,3.52,0,0,1-.06.52,1.31,1.31,0,0,1,0,.16l0,.15-.1.33,0,.05a2.12,2.12,0,0,1,.67.19,1.71,1.71,0,0,1,.57.43,2,2,0,0,1,.44,1.23,1.84,1.84,0,0,1-.7,1.45l-.08.08q-.36.31-.76.62a10.19,10.19,0,0,1-.85.58,3.87,3.87,0,0,1-2,.6,3,3,0,0,1-.82-.12,1.87,1.87,0,0,1-.57-.23,1.67,1.67,0,0,1-.45-.4l-.39.32-.43.3h0a7.11,7.11,0,0,1-.75.46c-.24.13-.47.23-.68.32a2.73,2.73,0,0,1-.62.17A4,4,0,0,1,219.54,165.68Z" fill="#dbdbdb"/><path d="M228.64,165.68h-.35l-.25,0a2.43,2.43,0,0,1-.86-.44,1.9,1.9,0,0,1-.56-.73,1.62,1.62,0,0,1-.15-.44,2.37,2.37,0,0,1,0-.4,2.7,2.7,0,0,1,.05-.53l-.33-.22a.91.91,0,0,1-.26-.26,1.9,1.9,0,0,1-.41-1.16,1.76,1.76,0,0,1,.18-.78,2.29,2.29,0,0,1,.49-.66l.32-.32a6.13,6.13,0,0,0,.42-.48l.34-.38.49-.52.49-.5.48-.41a4.26,4.26,0,0,1,.36-.27,2.43,2.43,0,0,1,1.85-.34,1.78,1.78,0,0,1,1.32,1.11l0,0a2.5,2.5,0,0,1,.11.3,1.81,1.81,0,0,1,.06.3c.16-.17.3-.33.43-.49l.34-.42.24-.27.05-.07,0-.05a2.21,2.21,0,0,1,.93-.66,1.82,1.82,0,0,1,1.09-.06,1.77,1.77,0,0,1,.69.38,2.46,2.46,0,0,1,.52.63,2.06,2.06,0,0,1,.21.93,3.52,3.52,0,0,1-.06.52,1.31,1.31,0,0,1,0,.16l0,.15-.1.33,0,.05a2.12,2.12,0,0,1,.67.19,1.71,1.71,0,0,1,.57.43,2,2,0,0,1,.44,1.23,1.84,1.84,0,0,1-.7,1.45l-.08.08q-.36.31-.76.62a10.19,10.19,0,0,1-.85.58,3.87,3.87,0,0,1-2,.6,3,3,0,0,1-.82-.12,1.87,1.87,0,0,1-.57-.23,1.67,1.67,0,0,1-.45-.4l-.39.32-.43.3h0a7.11,7.11,0,0,1-.75.46c-.24.13-.47.23-.68.32a2.73,2.73,0,0,1-.62.17A4,4,0,0,1,228.64,165.68Z" fill="#dbdbdb"/><path d="M237.73,165.68h-.35l-.25,0a2.43,2.43,0,0,1-.86-.44,1.9,1.9,0,0,1-.56-.73,1.62,1.62,0,0,1-.15-.44,2.37,2.37,0,0,1,0-.4,2.7,2.7,0,0,1,.05-.53l-.33-.22a.91.91,0,0,1-.26-.26,1.9,1.9,0,0,1-.41-1.16,1.76,1.76,0,0,1,.18-.78,2.29,2.29,0,0,1,.49-.66l.32-.32a6.13,6.13,0,0,0,.42-.48l.34-.38.49-.52.49-.5.48-.41a4.26,4.26,0,0,1,.36-.27,2.43,2.43,0,0,1,1.85-.34,1.78,1.78,0,0,1,1.32,1.11l0,0a2.5,2.5,0,0,1,.11.3,1.81,1.81,0,0,1,.06.3c.16-.17.3-.33.43-.49l.34-.42.24-.27.05-.07,0-.05a2.21,2.21,0,0,1,.93-.66,1.82,1.82,0,0,1,1.09-.06,1.77,1.77,0,0,1,.69.38,2.46,2.46,0,0,1,.52.63,2.06,2.06,0,0,1,.21.93,3.52,3.52,0,0,1-.06.52,1.31,1.31,0,0,1,0,.16l0,.15-.1.33,0,.05a2.12,2.12,0,0,1,.67.19,1.71,1.71,0,0,1,.57.43,2,2,0,0,1,.44,1.23,1.84,1.84,0,0,1-.7,1.45l-.08.08q-.36.31-.76.62a10.19,10.19,0,0,1-.85.58,3.87,3.87,0,0,1-2,.6,3,3,0,0,1-.82-.12,1.87,1.87,0,0,1-.57-.23,1.67,1.67,0,0,1-.45-.4l-.39.32-.43.3h0a7.11,7.11,0,0,1-.75.46c-.24.13-.47.23-.68.32a2.73,2.73,0,0,1-.62.17A4,4,0,0,1,237.73,165.68Z" fill="#dbdbdb"/><path d="M148.58,180.16a1.91,1.91,0,0,1-.53-.08,1.63,1.63,0,0,1-.73-.38,1.78,1.78,0,0,1-.46-.68,2,2,0,0,1,0-1.47,5.36,5.36,0,0,1,.31-.68l.08-.15.09-.16c-.26.14-.52.28-.77.44s-.51.3-.77.44q-.7.43-1.34.78t-1.19.59a1.52,1.52,0,0,1-.66.15,1.77,1.77,0,0,1-.64-.12,1.74,1.74,0,0,1-.56-.35,1.61,1.61,0,0,1-.38-.56,1.52,1.52,0,0,1-.15-.66,1.75,1.75,0,0,1,.12-.64,1.72,1.72,0,0,1,.35-.55,1.59,1.59,0,0,1,.56-.38q.39-.19,1-.5l1.22-.69,1.58-.91a16.15,16.15,0,0,1,1.63-.81,6.89,6.89,0,0,1,1.69-.6,4.93,4.93,0,0,1,1-.15,3.09,3.09,0,0,1,.92.1,1.86,1.86,0,0,1,1.28,1.16,1.91,1.91,0,0,1,.08,1.27,6.1,6.1,0,0,1-.47,1.16l.11,0a.26.26,0,0,0,.11,0,1.54,1.54,0,0,1,.66-.09,1.85,1.85,0,0,1,.63.16,1.69,1.69,0,0,1,.88,1,1.78,1.78,0,0,1,.1.67,1.71,1.71,0,0,1-.15.63,1.66,1.66,0,0,1-.38.53,1.63,1.63,0,0,1-.59.35l-1.47.52-1.18.4q-.72.21-1.16.3A3.94,3.94,0,0,1,148.58,180.16Z" fill="#dbdbdb"/><path d="M153.93,181.44h-.35l-.25,0a2.43,2.43,0,0,1-.86-.44,1.9,1.9,0,0,1-.56-.73,1.62,1.62,0,0,1-.15-.44,2.37,2.37,0,0,1,0-.4,2.7,2.7,0,0,1,.05-.53l-.33-.22a.91.91,0,0,1-.26-.26,1.9,1.9,0,0,1-.41-1.16,1.76,1.76,0,0,1,.18-.78,2.29,2.29,0,0,1,.49-.66l.32-.32a6.13,6.13,0,0,0,.42-.48l.34-.38.49-.52.49-.5.48-.41a4.26,4.26,0,0,1,.36-.27,2.43,2.43,0,0,1,1.85-.34,1.78,1.78,0,0,1,1.32,1.11l0,0a2.5,2.5,0,0,1,.11.3,1.81,1.81,0,0,1,.06.3c.16-.17.3-.33.43-.49l.34-.42.24-.27.05-.07,0-.05a2.21,2.21,0,0,1,.93-.66,1.82,1.82,0,0,1,1.09-.06,1.77,1.77,0,0,1,.69.38,2.46,2.46,0,0,1,.52.63,2.06,2.06,0,0,1,.21.93,3.52,3.52,0,0,1-.06.52,1.31,1.31,0,0,1,0,.16l0,.15-.1.33,0,.05a2.12,2.12,0,0,1,.67.19,1.71,1.71,0,0,1,.57.43,2,2,0,0,1,.44,1.23,1.84,1.84,0,0,1-.7,1.45l-.08.08q-.36.31-.76.62a10.19,10.19,0,0,1-.85.58,3.87,3.87,0,0,1-2,.6,3,3,0,0,1-.82-.12,1.87,1.87,0,0,1-.57-.23,1.67,1.67,0,0,1-.45-.4l-.39.32-.43.3h0a7.11,7.11,0,0,1-.75.46c-.24.13-.47.23-.68.32a2.73,2.73,0,0,1-.62.17A4,4,0,0,1,153.93,181.44Z" fill="#dbdbdb"/><path d="M163,181.44h-.35l-.25,0a2.43,2.43,0,0,1-.86-.44,1.9,1.9,0,0,1-.56-.73,1.62,1.62,0,0,1-.15-.44,2.37,2.37,0,0,1,0-.4,2.7,2.7,0,0,1,.05-.53l-.33-.22a.91.91,0,0,1-.26-.26,1.9,1.9,0,0,1-.41-1.16,1.76,1.76,0,0,1,.18-.78,2.29,2.29,0,0,1,.49-.66l.32-.32a6.13,6.13,0,0,0,.42-.48l.34-.38.49-.52.49-.5.48-.41a4.26,4.26,0,0,1,.36-.27,2.43,2.43,0,0,1,1.85-.34,1.78,1.78,0,0,1,1.32,1.11l0,0a2.5,2.5,0,0,1,.11.3,1.81,1.81,0,0,1,.06.3c.16-.17.3-.33.43-.49l.34-.42.24-.27.05-.07,0-.05a2.21,2.21,0,0,1,.93-.66,1.82,1.82,0,0,1,1.09-.06,1.77,1.77,0,0,1,.69.38,2.46,2.46,0,0,1,.52.63,2.06,2.06,0,0,1,.21.93,3.52,3.52,0,0,1-.06.52,1.31,1.31,0,0,1,0,.16l0,.15-.1.33,0,.05a2.12,2.12,0,0,1,.67.19,1.71,1.71,0,0,1,.57.43,2,2,0,0,1,.44,1.23,1.84,1.84,0,0,1-.7,1.45l-.08.08q-.36.31-.76.62a10.19,10.19,0,0,1-.85.58,3.87,3.87,0,0,1-2,.6,3,3,0,0,1-.82-.12,1.87,1.87,0,0,1-.57-.23,1.67,1.67,0,0,1-.45-.4l-.39.32-.43.3h0a7.11,7.11,0,0,1-.75.46c-.24.13-.47.23-.68.32a2.73,2.73,0,0,1-.62.17A4,4,0,0,1,163,181.44Z" fill="#dbdbdb"/><path d="M172.12,181.44h-.35l-.25,0a2.43,2.43,0,0,1-.86-.44,1.9,1.9,0,0,1-.56-.73,1.62,1.62,0,0,1-.15-.44,2.37,2.37,0,0,1,0-.4,2.7,2.7,0,0,1,.05-.53l-.33-.22a.91.91,0,0,1-.26-.26,1.9,1.9,0,0,1-.41-1.16,1.76,1.76,0,0,1,.18-.78,2.29,2.29,0,0,1,.49-.66l.32-.32a6.13,6.13,0,0,0,.42-.48l.34-.38.49-.52.49-.5.48-.41a4.26,4.26,0,0,1,.36-.27,2.43,2.43,0,0,1,1.85-.34,1.78,1.78,0,0,1,1.32,1.11l0,0a2.5,2.5,0,0,1,.11.3,1.81,1.81,0,0,1,.06.3c.16-.17.3-.33.43-.49l.34-.42.24-.27.05-.07,0-.05a2.21,2.21,0,0,1,.93-.66,1.82,1.82,0,0,1,1.09-.06,1.77,1.77,0,0,1,.69.38,2.46,2.46,0,0,1,.52.63,2.06,2.06,0,0,1,.21.93,3.52,3.52,0,0,1-.06.52,1.31,1.31,0,0,1,0,.16l0,.15-.1.33,0,.05a2.12,2.12,0,0,1,.67.19,1.71,1.71,0,0,1,.57.43,2,2,0,0,1,.44,1.23,1.84,1.84,0,0,1-.7,1.45l-.08.08q-.36.31-.76.62a10.19,10.19,0,0,1-.85.58,3.87,3.87,0,0,1-2,.6,3,3,0,0,1-.82-.12,1.87,1.87,0,0,1-.57-.23,1.67,1.67,0,0,1-.45-.4l-.39.32-.43.3h0a7.11,7.11,0,0,1-.75.46c-.24.13-.47.23-.68.32a2.73,2.73,0,0,1-.62.17A4,4,0,0,1,172.12,181.44Z" fill="#dbdbdb"/><path d="M185.94,180.16a1.91,1.91,0,0,1-.53-.08,1.63,1.63,0,0,1-.73-.38,1.78,1.78,0,0,1-.46-.68,2,2,0,0,1,0-1.47,5.36,5.36,0,0,1,.31-.68l.08-.15.09-.16c-.26.14-.52.28-.77.44s-.51.3-.77.44q-.7.43-1.34.78t-1.19.59a1.52,1.52,0,0,1-.66.15,1.77,1.77,0,0,1-.64-.12,1.74,1.74,0,0,1-.56-.35,1.61,1.61,0,0,1-.38-.56,1.52,1.52,0,0,1-.15-.66,1.75,1.75,0,0,1,.12-.64,1.72,1.72,0,0,1,.35-.55,1.59,1.59,0,0,1,.56-.38q.39-.19,1-.5l1.22-.69,1.58-.91a16.15,16.15,0,0,1,1.63-.81,6.89,6.89,0,0,1,1.69-.6,4.93,4.93,0,0,1,1-.15,3.09,3.09,0,0,1,.92.1,1.86,1.86,0,0,1,1.28,1.16,1.91,1.91,0,0,1,.08,1.27,6.1,6.1,0,0,1-.47,1.16l.11,0a.26.26,0,0,0,.11,0,1.54,1.54,0,0,1,.66-.09,1.85,1.85,0,0,1,.63.16,1.69,1.69,0,0,1,.88,1,1.78,1.78,0,0,1,.1.67,1.71,1.71,0,0,1-.15.63,1.66,1.66,0,0,1-.38.53,1.63,1.63,0,0,1-.59.35l-1.47.52-1.18.4q-.72.21-1.16.3A3.94,3.94,0,0,1,185.94,180.16Z" fill="#dbdbdb"/><path d="M191.29,181.44h-.35l-.25,0a2.43,2.43,0,0,1-.86-.44,1.9,1.9,0,0,1-.56-.73,1.62,1.62,0,0,1-.15-.44,2.37,2.37,0,0,1,0-.4,2.7,2.7,0,0,1,.05-.53l-.33-.22a.91.91,0,0,1-.26-.26,1.9,1.9,0,0,1-.41-1.16,1.76,1.76,0,0,1,.18-.78,2.29,2.29,0,0,1,.49-.66l.32-.32a6.13,6.13,0,0,0,.42-.48l.34-.38.49-.52.49-.5.48-.41a4.26,4.26,0,0,1,.36-.27,2.43,2.43,0,0,1,1.85-.34,1.78,1.78,0,0,1,1.32,1.11l0,0a2.5,2.5,0,0,1,.11.3,1.81,1.81,0,0,1,.06.3c.16-.17.3-.33.43-.49l.34-.42.24-.27.05-.07,0-.05a2.21,2.21,0,0,1,.93-.66,1.82,1.82,0,0,1,1.09-.06,1.77,1.77,0,0,1,.69.38,2.46,2.46,0,0,1,.52.63,2.06,2.06,0,0,1,.21.93,3.52,3.52,0,0,1-.06.52,1.31,1.31,0,0,1,0,.16l0,.15-.1.33,0,.05a2.12,2.12,0,0,1,.67.19,1.71,1.71,0,0,1,.57.43,2,2,0,0,1,.44,1.23,1.84,1.84,0,0,1-.7,1.45l-.08.08q-.36.31-.76.62a10.19,10.19,0,0,1-.85.58,3.87,3.87,0,0,1-2,.6,3,3,0,0,1-.82-.12,1.87,1.87,0,0,1-.57-.23,1.67,1.67,0,0,1-.45-.4l-.39.32-.43.3h0a7.11,7.11,0,0,1-.75.46c-.24.13-.47.23-.68.32a2.73,2.73,0,0,1-.62.17A4,4,0,0,1,191.29,181.44Z" fill="#dbdbdb"/><path d="M200.38,181.44H200l-.25,0a2.43,2.43,0,0,1-.86-.44,1.9,1.9,0,0,1-.56-.73,1.62,1.62,0,0,1-.15-.44,2.37,2.37,0,0,1,0-.4,2.7,2.7,0,0,1,.05-.53l-.33-.22a.91.91,0,0,1-.26-.26,1.9,1.9,0,0,1-.41-1.16,1.76,1.76,0,0,1,.18-.78,2.29,2.29,0,0,1,.49-.66l.32-.32a6.13,6.13,0,0,0,.42-.48l.34-.38.49-.52.49-.5.48-.41a4.26,4.26,0,0,1,.36-.27,2.43,2.43,0,0,1,1.85-.34,1.78,1.78,0,0,1,1.32,1.11l0,0a2.5,2.5,0,0,1,.11.3,1.81,1.81,0,0,1,.06.3c.16-.17.3-.33.43-.49l.34-.42.24-.27.05-.07,0-.05a2.21,2.21,0,0,1,.93-.66,1.82,1.82,0,0,1,1.09-.06,1.77,1.77,0,0,1,.69.38,2.46,2.46,0,0,1,.52.63,2.06,2.06,0,0,1,.21.93,3.52,3.52,0,0,1-.06.52,1.31,1.31,0,0,1,0,.16l0,.15-.1.33,0,.05a2.12,2.12,0,0,1,.67.19,1.71,1.71,0,0,1,.57.43,2,2,0,0,1,.44,1.23,1.84,1.84,0,0,1-.7,1.45l-.08.08q-.36.31-.76.62a10.19,10.19,0,0,1-.85.58,3.87,3.87,0,0,1-2,.6,3,3,0,0,1-.82-.12,1.87,1.87,0,0,1-.57-.23,1.67,1.67,0,0,1-.45-.4l-.39.32-.43.3h0a7.11,7.11,0,0,1-.75.46c-.24.13-.47.23-.68.32a2.73,2.73,0,0,1-.62.17A4,4,0,0,1,200.38,181.44Z" fill="#dbdbdb"/><path d="M148.58,195.91a1.91,1.91,0,0,1-.53-.08,1.63,1.63,0,0,1-.73-.38,1.78,1.78,0,0,1-.46-.68,2,2,0,0,1,0-1.47,5.36,5.36,0,0,1,.31-.68l.08-.15.09-.16c-.26.14-.52.28-.77.44s-.51.3-.77.44q-.7.43-1.34.78t-1.19.59a1.52,1.52,0,0,1-.66.15,1.77,1.77,0,0,1-.64-.12,1.74,1.74,0,0,1-.56-.35,1.61,1.61,0,0,1-.38-.56,1.52,1.52,0,0,1-.15-.66,1.75,1.75,0,0,1,.12-.64,1.72,1.72,0,0,1,.35-.55,1.59,1.59,0,0,1,.56-.38q.39-.19,1-.5l1.22-.69,1.58-.91a16.15,16.15,0,0,1,1.63-.81,6.89,6.89,0,0,1,1.69-.6,4.93,4.93,0,0,1,1-.15,3.09,3.09,0,0,1,.92.1,1.86,1.86,0,0,1,1.28,1.16,1.91,1.91,0,0,1,.08,1.27,6.1,6.1,0,0,1-.47,1.16l.11,0a.26.26,0,0,0,.11,0,1.54,1.54,0,0,1,.66-.09,1.85,1.85,0,0,1,.63.16,1.69,1.69,0,0,1,.88,1,1.78,1.78,0,0,1,.1.67,1.71,1.71,0,0,1-.15.63,1.66,1.66,0,0,1-.38.53,1.63,1.63,0,0,1-.59.35l-1.47.52-1.18.4q-.72.21-1.16.3A3.94,3.94,0,0,1,148.58,195.91Z" fill="#dbdbdb"/><path d="M153.93,197.2h-.35l-.25,0a2.43,2.43,0,0,1-.86-.44,1.9,1.9,0,0,1-.56-.73,1.62,1.62,0,0,1-.15-.44,2.37,2.37,0,0,1,0-.4,2.7,2.7,0,0,1,.05-.53l-.33-.22a.91.91,0,0,1-.26-.26,1.9,1.9,0,0,1-.41-1.16,1.76,1.76,0,0,1,.18-.78,2.29,2.29,0,0,1,.49-.66l.32-.32a6.13,6.13,0,0,0,.42-.48l.34-.38.49-.52.49-.5.48-.41a4.26,4.26,0,0,1,.36-.27,2.43,2.43,0,0,1,1.85-.34,1.78,1.78,0,0,1,1.32,1.11l0,0a2.5,2.5,0,0,1,.11.3,1.81,1.81,0,0,1,.06.3c.16-.17.3-.33.43-.49l.34-.42.24-.27.05-.07,0-.05a2.21,2.21,0,0,1,.93-.66,1.82,1.82,0,0,1,1.09-.06,1.77,1.77,0,0,1,.69.38,2.46,2.46,0,0,1,.52.63,2.06,2.06,0,0,1,.21.93,3.52,3.52,0,0,1-.06.52,1.31,1.31,0,0,1,0,.16l0,.15-.1.33,0,.05a2.12,2.12,0,0,1,.67.19,1.71,1.71,0,0,1,.57.43,2,2,0,0,1,.44,1.23,1.84,1.84,0,0,1-.7,1.45l-.08.08q-.36.31-.76.62a10.19,10.19,0,0,1-.85.58,3.87,3.87,0,0,1-2,.6,3,3,0,0,1-.82-.12,1.87,1.87,0,0,1-.57-.23,1.67,1.67,0,0,1-.45-.4l-.39.32-.43.3h0a7.11,7.11,0,0,1-.75.46c-.24.13-.47.23-.68.32a2.73,2.73,0,0,1-.62.17A4,4,0,0,1,153.93,197.2Z" fill="#dbdbdb"/><path d="M163,197.2h-.35l-.25,0a2.43,2.43,0,0,1-.86-.44A1.9,1.9,0,0,1,161,196a1.62,1.62,0,0,1-.15-.44,2.37,2.37,0,0,1,0-.4,2.7,2.7,0,0,1,.05-.53l-.33-.22a.91.91,0,0,1-.26-.26,1.9,1.9,0,0,1-.41-1.16,1.76,1.76,0,0,1,.18-.78,2.29,2.29,0,0,1,.49-.66l.32-.32a6.13,6.13,0,0,0,.42-.48l.34-.38.49-.52.49-.5.48-.41a4.26,4.26,0,0,1,.36-.27,2.43,2.43,0,0,1,1.85-.34,1.78,1.78,0,0,1,1.32,1.11l0,0a2.5,2.5,0,0,1,.11.3,1.81,1.81,0,0,1,.06.3c.16-.17.3-.33.43-.49l.34-.42.24-.27.05-.07,0-.05a2.21,2.21,0,0,1,.93-.66,1.82,1.82,0,0,1,1.09-.06,1.77,1.77,0,0,1,.69.38,2.46,2.46,0,0,1,.52.63,2.06,2.06,0,0,1,.21.93,3.52,3.52,0,0,1-.06.52,1.31,1.31,0,0,1,0,.16l0,.15-.1.33,0,.05a2.12,2.12,0,0,1,.67.19,1.71,1.71,0,0,1,.57.43,2,2,0,0,1,.44,1.23,1.84,1.84,0,0,1-.7,1.45l-.08.08q-.36.31-.76.62a10.19,10.19,0,0,1-.85.58,3.87,3.87,0,0,1-2,.6,3,3,0,0,1-.82-.12A1.87,1.87,0,0,1,167,196a1.67,1.67,0,0,1-.45-.4l-.39.32-.43.3h0a7.11,7.11,0,0,1-.75.46c-.24.13-.47.23-.68.32a2.73,2.73,0,0,1-.62.17A4,4,0,0,1,163,197.2Z" fill="#dbdbdb"/><path d="M176.84,195.91a1.91,1.91,0,0,1-.53-.08,1.63,1.63,0,0,1-.73-.38,1.78,1.78,0,0,1-.46-.68,2,2,0,0,1,0-1.47,5.36,5.36,0,0,1,.31-.68l.08-.15.09-.16c-.26.14-.52.28-.77.44s-.51.3-.77.44q-.7.43-1.34.78t-1.19.59a1.52,1.52,0,0,1-.66.15,1.77,1.77,0,0,1-.64-.12,1.74,1.74,0,0,1-.56-.35,1.61,1.61,0,0,1-.38-.56,1.52,1.52,0,0,1-.15-.66,1.75,1.75,0,0,1,.12-.64,1.72,1.72,0,0,1,.35-.55,1.59,1.59,0,0,1,.56-.38q.39-.19,1-.5l1.22-.69,1.58-.91a16.15,16.15,0,0,1,1.63-.81,6.89,6.89,0,0,1,1.69-.6,4.93,4.93,0,0,1,1-.15,3.09,3.09,0,0,1,.92.1,1.86,1.86,0,0,1,1.28,1.16,1.91,1.91,0,0,1,.08,1.27,6.1,6.1,0,0,1-.47,1.16l.11,0a.26.26,0,0,0,.11,0,1.54,1.54,0,0,1,.66-.09,1.85,1.85,0,0,1,.63.16,1.69,1.69,0,0,1,.88,1,1.78,1.78,0,0,1,.1.67,1.71,1.71,0,0,1-.15.63,1.66,1.66,0,0,1-.38.53,1.63,1.63,0,0,1-.59.35l-1.47.52-1.18.4q-.72.21-1.16.3A3.94,3.94,0,0,1,176.84,195.91Z" fill="#dbdbdb"/><path d="M182.19,197.2h-.35l-.25,0a2.43,2.43,0,0,1-.86-.44,1.9,1.9,0,0,1-.56-.73,1.62,1.62,0,0,1-.15-.44,2.37,2.37,0,0,1,0-.4,2.7,2.7,0,0,1,.05-.53l-.33-.22a.91.91,0,0,1-.26-.26A1.9,1.9,0,0,1,179,193a1.76,1.76,0,0,1,.18-.78,2.29,2.29,0,0,1,.49-.66l.32-.32a6.13,6.13,0,0,0,.42-.48l.34-.38.49-.52.49-.5.48-.41a4.26,4.26,0,0,1,.36-.27,2.43,2.43,0,0,1,1.85-.34,1.78,1.78,0,0,1,1.32,1.11l0,0a2.5,2.5,0,0,1,.11.3,1.81,1.81,0,0,1,.06.3c.16-.17.3-.33.43-.49l.34-.42.24-.27.05-.07,0-.05a2.21,2.21,0,0,1,.93-.66A1.82,1.82,0,0,1,189,188a1.77,1.77,0,0,1,.69.38,2.46,2.46,0,0,1,.52.63,2.06,2.06,0,0,1,.21.93,3.52,3.52,0,0,1-.06.52,1.31,1.31,0,0,1,0,.16l0,.15-.1.33,0,.05a2.12,2.12,0,0,1,.67.19,1.71,1.71,0,0,1,.57.43,2,2,0,0,1,.44,1.23,1.84,1.84,0,0,1-.7,1.45l-.08.08q-.36.31-.76.62a10.19,10.19,0,0,1-.85.58,3.87,3.87,0,0,1-2,.6,3,3,0,0,1-.82-.12,1.87,1.87,0,0,1-.57-.23,1.67,1.67,0,0,1-.45-.4l-.39.32-.43.3h0a7.11,7.11,0,0,1-.75.46c-.24.13-.47.23-.68.32a2.73,2.73,0,0,1-.62.17A4,4,0,0,1,182.19,197.2Z" fill="#dbdbdb"/><path d="M191.29,197.2h-.35l-.25,0a2.43,2.43,0,0,1-.86-.44,1.9,1.9,0,0,1-.56-.73,1.62,1.62,0,0,1-.15-.44,2.37,2.37,0,0,1,0-.4,2.7,2.7,0,0,1,.05-.53l-.33-.22a.91.91,0,0,1-.26-.26,1.9,1.9,0,0,1-.41-1.16,1.76,1.76,0,0,1,.18-.78,2.29,2.29,0,0,1,.49-.66l.32-.32a6.13,6.13,0,0,0,.42-.48l.34-.38.49-.52.49-.5.48-.41a4.26,4.26,0,0,1,.36-.27,2.43,2.43,0,0,1,1.85-.34,1.78,1.78,0,0,1,1.32,1.11l0,0a2.5,2.5,0,0,1,.11.3,1.81,1.81,0,0,1,.06.3c.16-.17.3-.33.43-.49l.34-.42.24-.27.05-.07,0-.05a2.21,2.21,0,0,1,.93-.66,1.82,1.82,0,0,1,1.09-.06,1.77,1.77,0,0,1,.69.38,2.46,2.46,0,0,1,.52.63,2.06,2.06,0,0,1,.21.93,3.52,3.52,0,0,1-.06.52,1.31,1.31,0,0,1,0,.16l0,.15-.1.33,0,.05a2.12,2.12,0,0,1,.67.19,1.71,1.71,0,0,1,.57.43A2,2,0,0,1,201,193a1.84,1.84,0,0,1-.7,1.45l-.08.08q-.36.31-.76.62a10.19,10.19,0,0,1-.85.58,3.87,3.87,0,0,1-2,.6,3,3,0,0,1-.82-.12,1.87,1.87,0,0,1-.57-.23,1.67,1.67,0,0,1-.45-.4l-.39.32-.43.3h0a7.11,7.11,0,0,1-.75.46c-.24.13-.47.23-.68.32a2.73,2.73,0,0,1-.62.17A4,4,0,0,1,191.29,197.2Z" fill="#dbdbdb"/><path d="M205.1,195.91a1.91,1.91,0,0,1-.53-.08,1.63,1.63,0,0,1-.73-.38,1.78,1.78,0,0,1-.46-.68,2,2,0,0,1,0-1.47,5.36,5.36,0,0,1,.31-.68l.08-.15.09-.16c-.26.14-.52.28-.77.44s-.51.3-.77.44q-.7.43-1.34.78t-1.19.59a1.52,1.52,0,0,1-.66.15,1.77,1.77,0,0,1-.64-.12,1.74,1.74,0,0,1-.56-.35,1.61,1.61,0,0,1-.38-.56,1.52,1.52,0,0,1-.15-.66,1.75,1.75,0,0,1,.12-.64,1.72,1.72,0,0,1,.35-.55,1.59,1.59,0,0,1,.56-.38q.39-.19,1-.5l1.22-.69,1.58-.91a16.15,16.15,0,0,1,1.63-.81,6.89,6.89,0,0,1,1.69-.6,4.93,4.93,0,0,1,1-.15,3.09,3.09,0,0,1,.92.1,1.86,1.86,0,0,1,1.28,1.16,1.91,1.91,0,0,1,.08,1.27,6.1,6.1,0,0,1-.47,1.16l.11,0a.26.26,0,0,0,.11,0,1.54,1.54,0,0,1,.66-.09,1.85,1.85,0,0,1,.63.16,1.69,1.69,0,0,1,.88,1,1.78,1.78,0,0,1,.1.67,1.71,1.71,0,0,1-.15.63,1.66,1.66,0,0,1-.38.53,1.63,1.63,0,0,1-.59.35l-1.47.52-1.18.4q-.72.21-1.16.3A3.94,3.94,0,0,1,205.1,195.91Z" fill="#dbdbdb"/><path d="M210.45,197.2h-.35l-.25,0a2.43,2.43,0,0,1-.86-.44,1.9,1.9,0,0,1-.56-.73,1.62,1.62,0,0,1-.15-.44,2.37,2.37,0,0,1,0-.4,2.7,2.7,0,0,1,.05-.53l-.33-.22a.91.91,0,0,1-.26-.26,1.9,1.9,0,0,1-.41-1.16,1.76,1.76,0,0,1,.18-.78,2.29,2.29,0,0,1,.49-.66l.32-.32a6.13,6.13,0,0,0,.42-.48l.34-.38.49-.52.49-.5.48-.41a4.26,4.26,0,0,1,.36-.27,2.43,2.43,0,0,1,1.85-.34,1.78,1.78,0,0,1,1.32,1.11l0,0a2.5,2.5,0,0,1,.11.3,1.81,1.81,0,0,1,.06.3c.16-.17.3-.33.43-.49l.34-.42.24-.27.05-.07,0-.05a2.21,2.21,0,0,1,.93-.66,1.82,1.82,0,0,1,1.09-.06,1.77,1.77,0,0,1,.69.38,2.46,2.46,0,0,1,.52.63,2.06,2.06,0,0,1,.21.93,3.52,3.52,0,0,1-.06.52,1.31,1.31,0,0,1,0,.16l0,.15-.1.33,0,.05a2.12,2.12,0,0,1,.67.19,1.71,1.71,0,0,1,.57.43,2,2,0,0,1,.44,1.23,1.84,1.84,0,0,1-.7,1.45l-.08.08q-.36.31-.76.62a10.19,10.19,0,0,1-.85.58,3.87,3.87,0,0,1-2,.6,3,3,0,0,1-.82-.12,1.87,1.87,0,0,1-.57-.23,1.67,1.67,0,0,1-.45-.4l-.39.32-.43.3h0a7.11,7.11,0,0,1-.75.46c-.24.13-.47.23-.68.32a2.73,2.73,0,0,1-.62.17A4,4,0,0,1,210.45,197.2Z" fill="#dbdbdb"/><path d="M143.86,213h-.35l-.25,0a2.43,2.43,0,0,1-.86-.44,1.9,1.9,0,0,1-.56-.73,1.62,1.62,0,0,1-.15-.44,2.37,2.37,0,0,1,0-.4,2.7,2.7,0,0,1,.05-.53l-.33-.22a.91.91,0,0,1-.26-.26,1.9,1.9,0,0,1-.41-1.16,1.76,1.76,0,0,1,.18-.78,2.29,2.29,0,0,1,.49-.66l.32-.32a6.13,6.13,0,0,0,.42-.48l.34-.38.49-.52.49-.5.48-.41a4.26,4.26,0,0,1,.36-.27,2.43,2.43,0,0,1,1.85-.34,1.78,1.78,0,0,1,1.32,1.11l0,0a2.5,2.5,0,0,1,.11.3,1.81,1.81,0,0,1,.06.3c.16-.17.3-.33.43-.49l.34-.42.24-.27.05-.07,0-.05a2.21,2.21,0,0,1,.93-.66,1.82,1.82,0,0,1,1.09-.06,1.77,1.77,0,0,1,.69.38,2.46,2.46,0,0,1,.52.63,2.06,2.06,0,0,1,.21.93,3.52,3.52,0,0,1-.06.52,1.31,1.31,0,0,1,0,.16l0,.15-.1.33,0,.05a2.12,2.12,0,0,1,.67.19,1.71,1.71,0,0,1,.57.43,2,2,0,0,1,.44,1.23,1.84,1.84,0,0,1-.7,1.45l-.08.08q-.36.31-.76.62a10.19,10.19,0,0,1-.85.58,3.87,3.87,0,0,1-2,.6,3,3,0,0,1-.82-.12,1.87,1.87,0,0,1-.57-.23,1.67,1.67,0,0,1-.45-.4l-.39.32-.43.3h0a7.11,7.11,0,0,1-.75.46c-.24.13-.47.23-.68.32a2.73,2.73,0,0,1-.62.17A4,4,0,0,1,143.86,213Z" fill="#dbdbdb"/><path d="M157.68,211.67a1.91,1.91,0,0,1-.53-.08,1.63,1.63,0,0,1-.73-.38,1.78,1.78,0,0,1-.46-.68,2,2,0,0,1,0-1.47,5.36,5.36,0,0,1,.31-.68l.08-.15.09-.16c-.26.14-.52.28-.77.44s-.51.3-.77.44q-.7.43-1.34.78t-1.19.59a1.52,1.52,0,0,1-.66.15,1.77,1.77,0,0,1-.64-.12,1.74,1.74,0,0,1-.56-.35,1.61,1.61,0,0,1-.38-.56,1.52,1.52,0,0,1-.15-.66,1.75,1.75,0,0,1,.12-.64,1.72,1.72,0,0,1,.35-.55,1.59,1.59,0,0,1,.56-.38q.39-.19,1-.5l1.22-.69,1.58-.91a16.15,16.15,0,0,1,1.63-.81,6.89,6.89,0,0,1,1.69-.6,4.93,4.93,0,0,1,1-.15,3.09,3.09,0,0,1,.92.1,1.86,1.86,0,0,1,1.28,1.16,1.91,1.91,0,0,1,.08,1.27,6.1,6.1,0,0,1-.47,1.16l.11,0a.26.26,0,0,0,.11,0,1.54,1.54,0,0,1,.66-.09,1.85,1.85,0,0,1,.63.16,1.69,1.69,0,0,1,.88,1,1.78,1.78,0,0,1,.1.67,1.71,1.71,0,0,1-.15.63,1.66,1.66,0,0,1-.38.53,1.63,1.63,0,0,1-.59.35l-1.47.52-1.18.4q-.72.21-1.16.3A3.94,3.94,0,0,1,157.68,211.67Z" fill="#dbdbdb"/><path d="M163,213h-.35l-.25,0a2.43,2.43,0,0,1-.86-.44,1.9,1.9,0,0,1-.56-.73,1.62,1.62,0,0,1-.15-.44,2.37,2.37,0,0,1,0-.4,2.7,2.7,0,0,1,.05-.53l-.33-.22a.91.91,0,0,1-.26-.26,1.9,1.9,0,0,1-.41-1.16,1.76,1.76,0,0,1,.18-.78,2.29,2.29,0,0,1,.49-.66l.32-.32a6.13,6.13,0,0,0,.42-.48l.34-.38.49-.52.49-.5.48-.41a4.26,4.26,0,0,1,.36-.27,2.43,2.43,0,0,1,1.85-.34,1.78,1.78,0,0,1,1.32,1.11l0,0a2.5,2.5,0,0,1,.11.3,1.81,1.81,0,0,1,.06.3c.16-.17.3-.33.43-.49l.34-.42.24-.27.05-.07,0-.05a2.21,2.21,0,0,1,.93-.66,1.82,1.82,0,0,1,1.09-.06,1.77,1.77,0,0,1,.69.38,2.46,2.46,0,0,1,.52.63,2.06,2.06,0,0,1,.21.93,3.52,3.52,0,0,1-.06.52,1.31,1.31,0,0,1,0,.16l0,.15-.1.33,0,.05a2.12,2.12,0,0,1,.67.19,1.71,1.71,0,0,1,.57.43,2,2,0,0,1,.44,1.23,1.84,1.84,0,0,1-.7,1.45l-.08.08q-.36.31-.76.62a10.19,10.19,0,0,1-.85.58,3.87,3.87,0,0,1-2,.6,3,3,0,0,1-.82-.12,1.87,1.87,0,0,1-.57-.23,1.67,1.67,0,0,1-.45-.4l-.39.32-.43.3h0a7.11,7.11,0,0,1-.75.46c-.24.13-.47.23-.68.32a2.73,2.73,0,0,1-.62.17A4,4,0,0,1,163,213Z" fill="#dbdbdb"/><path d="M172.12,213h-.35l-.25,0a2.43,2.43,0,0,1-.86-.44,1.9,1.9,0,0,1-.56-.73,1.62,1.62,0,0,1-.15-.44,2.37,2.37,0,0,1,0-.4,2.7,2.7,0,0,1,.05-.53l-.33-.22a.91.91,0,0,1-.26-.26,1.9,1.9,0,0,1-.41-1.16,1.76,1.76,0,0,1,.18-.78,2.29,2.29,0,0,1,.49-.66L170,207a6.13,6.13,0,0,0,.42-.48l.34-.38.49-.52.49-.5.48-.41a4.26,4.26,0,0,1,.36-.27,2.43,2.43,0,0,1,1.85-.34,1.78,1.78,0,0,1,1.32,1.11l0,0a2.5,2.5,0,0,1,.11.3,1.81,1.81,0,0,1,.06.3c.16-.17.3-.33.43-.49l.34-.42.24-.27.05-.07,0-.05a2.21,2.21,0,0,1,.93-.66,1.82,1.82,0,0,1,1.09-.06,1.77,1.77,0,0,1,.69.38,2.46,2.46,0,0,1,.52.63,2.06,2.06,0,0,1,.21.93,3.52,3.52,0,0,1-.06.52,1.31,1.31,0,0,1,0,.16l0,.15-.1.33,0,.05a2.12,2.12,0,0,1,.67.19,1.71,1.71,0,0,1,.57.43,2,2,0,0,1,.44,1.23,1.84,1.84,0,0,1-.7,1.45l-.08.08q-.36.31-.76.62a10.19,10.19,0,0,1-.85.58,3.87,3.87,0,0,1-2,.6,3,3,0,0,1-.82-.12,1.87,1.87,0,0,1-.57-.23,1.67,1.67,0,0,1-.45-.4l-.39.32-.43.3h0a7.11,7.11,0,0,1-.75.46c-.24.13-.47.23-.68.32a2.73,2.73,0,0,1-.62.17A4,4,0,0,1,172.12,213Z" fill="#dbdbdb"/><line id="0720c8a8-643a-4baf-b321-ebb8ddabb6ee" data-name="&lt;Path&gt;" x1="382.82" y1="235.71" x2="371.1" y2="235.71" fill="none" stroke="#b2b2b2" stroke-linecap="round" stroke-miterlimit="10" stroke-width="2.5"/><circle id="b7aa270c-d14e-4a1b-ae46-ca40e259ecb0" data-name="&lt;Path&gt;" cx="381.6" cy="178.7" r="10.5" fill="none" stroke="#dbdbdb" stroke-miterlimit="10" stroke-width="2"/><circle id="ff036841-8e00-40bc-84af-ee2895944a3e" data-name="&lt;Path&gt;" cx="319.99" cy="139.47" r="10.5" fill="none" stroke="#dbdbdb" stroke-miterlimit="10" stroke-width="2"/><circle id="18538b89-7ecb-440e-a2e1-b657667b5395" data-name="&lt;Path&gt;" cx="308.49" cy="179.7" r="10.5" fill="none" stroke="#dbdbdb" stroke-miterlimit="10" stroke-width="2"/><rect id="669b2dab-a732-45ff-8673-cf0ba1580daf" data-name="&lt;Rectangle&gt;" x="191.14" y="413.63" width="121.87" height="16.77" rx="8.39" ry="8.39" opacity="0.05"/><line id="4ec4d441-5cca-4312-a5fe-d7b6a3a41eae" data-name="&lt;Path&gt;" x1="342.95" y1="298.1" x2="370.28" y2="245.25" fill="none" stroke="#474747" stroke-linecap="round" stroke-miterlimit="10" stroke-width="3"/><rect id="eb3923d0-2d56-48c8-836d-44eb7fd7ec9f" data-name="&lt;Rectangle&gt;" x="103.6" y="308.62" width="30.77" height="24.85" rx="4.23" ry="4.23" opacity="0.05"/><circle id="e1f4c308-9b98-4c54-a237-1e696e2485ab" data-name="&lt;Path&gt;" cx="118.98" cy="321.05" r="7.1" opacity="0.05"/><rect id="1c2c81a2-2996-4c5b-aa0e-1915ad4096c8" data-name="&lt;Rectangle&gt;" x="143.83" y="308.62" width="30.77" height="24.85" rx="4.23" ry="4.23" opacity="0.05"/><circle id="9b471609-50fd-4fd6-aae1-95c1169d57e6" data-name="&lt;Path&gt;" cx="159.22" cy="321.05" r="7.1" opacity="0.05"/><path d="M277.82,273.76h-51.6a5.26,5.26,0,0,1-5.46-4.75l-2.11-23.76h66.74L283.28,269A5.26,5.26,0,0,1,277.82,273.76Z" fill="#3a3a3a"/><polygon points="278.9 297.25 225.14 297.25 222.87 246.71 281.17 246.71 278.9 297.25" fill="#3a3a3a"/><path d="M262.39,206.63l-10.37,1-10.37-1-17.9,3.82a11.43,11.43,0,0,0-9,11.21v27.88a8.47,8.47,0,0,0,8.71,8.21h24a4.67,4.67,0,0,0,3.57-1.62,1.34,1.34,0,0,1,2,0,4.67,4.67,0,0,0,3.57,1.62h24a8.47,8.47,0,0,0,8.71-8.21V221.66a11.43,11.43,0,0,0-9-11.21Z" fill="#3a3a3a"/><path d="M241.35,201.15h21.33a0,0,0,0,1,0,0v8.13a8.47,8.47,0,0,1-8.47,8.47h-4.39a8.47,8.47,0,0,1-8.47-8.47v-8.13A0,0,0,0,1,241.35,201.15Z" fill="#f9bfa2"/><polygon points="210.71 272.45 189.81 269.64 193.22 247.84 214.11 250.66 210.71 272.45" fill="#feccae"/><polygon points="293.46 272.45 314.36 269.64 310.95 247.84 290.06 250.66 293.46 272.45" fill="#feccae"/><polygon points="207.83 316.13 193 316.13 189.81 269.64 210.71 272.45 207.83 316.13" fill="#feccae"/><path d="M209,334.46l-14.5-2.05a4,4,0,0,1-3.42-4.34L192.61,312l15.64-2.15,3.74,3.2a5.6,5.6,0,0,1,1.9,3.4l1.56,10a4,4,0,0,1-.48,2.61l-2,3.42A4,4,0,0,1,209,334.46Z" fill="#feccae"/><polygon points="342.58 281.15 334.88 293.83 293.49 272.43 306.73 256.03 342.58 281.15" fill="#feccae"/><path d="M358.84,289.68,349.56,301a4,4,0,0,1-5.48.67L331.15,292l6.28-14.48,4.68-1.54a5.6,5.6,0,0,1,3.89.14l9.37,3.86a4,4,0,0,1,2,1.77l1.91,3.46A4,4,0,0,1,358.84,289.68Z" fill="#feccae"/><path d="M242.07,408.38h-18v-56.9h12.51c6.32,0,9.45,4.35,10.25,10.22a20.65,20.65,0,0,1,0,5.14Z" fill="#424242"/><path d="M233.37,356.27h-2.7c-5.62,0-10.18-4.93-10.18-11V315.35a24.8,24.8,0,0,1,2.76-11.41l.61-1.18h25.39v36.34C249.25,348.58,242.14,356.27,233.37,356.27Z" fill="#424242"/><path d="M261.71,408.38h18v-56.9H267.16c-6.32,0-9.45,4.35-10.25,10.22a20.65,20.65,0,0,0,0,5.14Z" fill="#424242"/><path d="M270.28,356.27H273c5.68,0,10.28-4.93,10.28-11V315.35a24.61,24.61,0,0,0-2.79-11.41l-.62-1.18H254.25v36.34C254.25,348.58,261.43,356.27,270.28,356.27Z" fill="#424242"/><rect x="222.97" y="295.29" width="58.2" height="7.47" rx="1.25" ry="1.25" fill="#424242"/><path d="M202.66,421.17,239,422.55a4.38,4.38,0,0,0,4.27-4.84l-1-11H217.66a12.66,12.66,0,0,0-11.26,7Z" fill="#3a3a3a"/><rect x="198.42" y="417.48" width="47.27" height="5.07" rx="2.53" ry="2.53" fill="#e8e7e6"/><polygon points="289.01 250.8 310.95 247.84 306.92 222.02 284.97 224.98 289.01 250.8" fill="#3a3a3a"/><polygon points="216.71 251.01 193.22 247.84 197.29 222.03 220.79 225.19 216.71 251.01" fill="#3a3a3a"/><path d="M195.48,235l24,3.24,3.24-24-12.49-1.82a18.2,18.2,0,0,0-8,1.11,12.79,12.79,0,0,0-6.88,11.72Z" fill="#3a3a3a"/><path d="M308.69,235l-24,3.24-3.24-24,12.49-1.82a18.2,18.2,0,0,1,8,1.11,12.79,12.79,0,0,1,6.88,11.72Z" fill="#3a3a3a"/><rect x="244.61" y="302.75" width="14.23" height="22.94" fill="#424242"/><path d="M301.52,421.69l-36.55.86a4.38,4.38,0,0,1-4.27-4.84l1-11h24.59a12.66,12.66,0,0,1,11.26,7Z" fill="#3a3a3a"/><rect x="258.23" y="417.48" width="47.27" height="5.07" rx="2.53" ry="2.53" transform="translate(563.73 840.03) rotate(180)" fill="#e8e7e6"/><path id="90ff8c56-5e9e-4ad3-8138-707c58d7b9a9" data-name="&lt;Path&gt;" d="M251.64,207.77h-.09c-8.21,0-13.51-4.87-18.19-10.89-3.36-4.33-7.36-8.76-7.36-14.66V162.93a25.55,25.55,0,0,1,25.55-25.55h.09a25.55,25.55,0,0,1,25.55,25.55v19.29c0,5.9-4,10.34-7.36,14.66C265.15,202.9,259.85,207.77,251.64,207.77Z" fill="#feccae"/><ellipse id="3b548468-8463-41aa-b470-87dccc82ea7f" data-name="&lt;Path&gt;" cx="262.26" cy="170.24" rx="2.9" ry="2.55" fill="#5b5b5b"/><ellipse id="74347ab3-c1b4-4faa-b77d-b761531884c2" data-name="&lt;Path&gt;" cx="240.93" cy="170.24" rx="2.9" ry="2.55" fill="#5b5b5b"/><ellipse id="9d1b02f3-58db-4238-8b90-a4879053cc1e" data-name="&lt;Path&gt;" cx="266.89" cy="182.4" rx="1.52" ry="3.59" transform="translate(10.17 378.85) rotate(-71.78)" fill="#f9bfa2"/><ellipse id="21ff115d-a748-4908-8643-e19b6d3d1fab" data-name="&lt;Path&gt;" cx="236.39" cy="182.4" rx="3.59" ry="1.52" transform="translate(-56.83 126.05) rotate(-26.78)" fill="#f9bfa2"/><path d="M251.6,183.68h0a2.91,2.91,0,0,1-2.91-2.75L248,169.58a2.91,2.91,0,0,1,2.91-3.08h1.32a2.91,2.91,0,0,1,2.91,3.08l-.66,11.36A2.91,2.91,0,0,1,251.6,183.68Z" fill="#f9bfa2"/><rect x="246.3" y="179.44" width="7.45" height="4.24" rx="2.12" ry="2.12" fill="#f9bfa2"/><path d="M279.47,169.7h-2.28v10h1.3c2,0,3.65-1.78,4-4.26l.12-.78C283,172.11,281.51,169.7,279.47,169.7Z" fill="#f9bfa2"/><path d="M223.72,169.7H226v10h-1.3c-2,0-3.65-1.78-4-4.26l-.12-.78C220.15,172.11,221.68,169.7,223.72,169.7Z" fill="#f9bfa2"/><rect x="258.64" y="162.7" width="10.24" height="2.19" rx="1.01" ry="1.01" fill="#5b5b5b"/><rect x="234.81" y="162.7" width="10.24" height="2.19" rx="1.01" ry="1.01" fill="#5b5b5b"/><rect x="249.28" y="200.15" width="5.47" height="2" rx="0.8" ry="0.8" fill="#f9bfa2"/><path id="e02e0e3b-279c-4226-9af6-40d4ab97b761" data-name="&lt;Path&gt;" d="M259,127.6H244.23c-10.07,0-18.24,10.57-18.24,21.15v18.49h4.56l.72-12.81a2.68,2.68,0,0,1,3.72-2.57l10.62,4.82a14.41,14.41,0,0,0,12,0l10.62-4.82a2.68,2.68,0,0,1,3.72,2.57l.72,12.81h4.56V146.74C277.19,136.17,269,127.6,259,127.6Z" fill="#3a3a3a"/><path d="M253,158h-1.92a15.06,15.06,0,0,1-13.32-8l-.78-1.49a1.25,1.25,0,0,1,1.28-1.83l5.73.81a3.15,3.15,0,0,0,2.61-.83l3.55-3.37a2.76,2.76,0,0,1,3.8,0l3.55,3.37a3.15,3.15,0,0,0,2.61.83l5.73-.81a1.25,1.25,0,0,1,1.28,1.83L266.3,150A15.06,15.06,0,0,1,253,158Z" fill="#333"/><polygon points="277.19 180.07 273.38 180.07 272.63 167.23 277.19 167.23 277.19 180.07" fill="url(#78a373ec-dcb1-4f50-afb3-def9fb1cd0e1)"/><polygon points="226 180.07 229.81 180.07 230.56 167.23 226 167.23 226 180.07" fill="url(#7915f195-7515-4652-99a0-f8cdf463e192)"/><path id="589a08d0-35c5-4a6a-84d3-6259c4af8cbc" data-name="&lt;Path&gt;" d="M245,189.56a7.46,7.46,0,0,0,12.21-.21" fill="none" stroke="#eaa688" stroke-linecap="round" stroke-miterlimit="10" stroke-width="1.6"/><rect id="ac487b85-88a7-45ef-8a88-007724750f26" data-name="&lt;Rectangle&gt;" x="370.88" y="330.37" width="29.86" height="7.92" rx="3.96" ry="3.96" opacity="0.08"/><rect id="1387549a-0783-4ee3-a50a-021279561c85" data-name="&lt;Rectangle&gt;" x="352.43" y="342.31" width="29.86" height="7.92" rx="3.96" ry="3.96" opacity="0.08"/><path d="M144.59,238.41h0a6.85,6.85,0,0,1,6.85,6.85v4.21a0,0,0,0,1,0,0h0a6.85,6.85,0,0,1-6.85-6.85v-4.21A0,0,0,0,1,144.59,238.41Z" transform="translate(-85.64 80.17) rotate(-23.73)" fill="#81e259"/><polygon points="154.16 240.69 151.92 240.69 152.63 254.29 154.16 254.29 154.16 240.69" fill="#565656"/><path d="M139.25,257.37c0-4.68,1.94-8.83,4.84-10.32,3.1-1.6,5.37,0,9.26,0s5-1.81,8.22-.67c3.08,1.07,5.89,6.32,5.89,11,0,5.85-4.4,14-8.71,14-4.6,0-3.33-1.23-5.4-1.23s-.78,1.23-5.4,1.23S139.25,263.22,139.25,257.37Z" fill="#e55757"/><ellipse cx="146.61" cy="253.03" rx="3.02" ry="2.73" transform="translate(-143.21 292.05) rotate(-67.58)" fill="#ed6e6e"/><ellipse cx="144.27" cy="258.71" rx="1.47" ry="1.33" transform="matrix(0.38, -0.92, 0.92, 0.38, -149.91, 293.4)" fill="#ed6e6e"/><ellipse cx="148.94" cy="259.22" rx="1.47" ry="1.33" transform="translate(-147.49 298.02) rotate(-67.58)" fill="#d65050"/></svg>