<svg id="fe1cca85-53be-4acf-8d63-1c90012773c5" data-name="Layer 1" xmlns="http://www.w3.org/2000/svg" viewBox="0 0 470 470"><title>joaco - exports</title><g id="d0996459-142e-4136-96cd-a763d1b7c5d3" data-name="&lt;Rectangle&gt;"><rect id="f13e74d9-b541-41ab-a137-bbdf343bcbd6" data-name="&lt;Path&gt;" x="79.28" y="85.75" width="320.49" height="177.74" rx="1.62" ry="1.62" fill="#fff"/><path id="06d4692d-c9c8-4520-8623-693ebe712b0b" data-name="&lt;Compound Path&gt;" d="M395,90.51V258.74H84V90.51H395M398.15,81H80.9a6.38,6.38,0,0,0-6.38,6.38V261.87a6.38,6.38,0,0,0,6.38,6.38H398.15a6.38,6.38,0,0,0,6.38-6.38V87.38A6.38,6.38,0,0,0,398.15,81h0Z" fill="#d1d1d1"/></g><path id="bdd49450-4094-45b2-8c46-5ef67d38e2a7" data-name="&lt;Rectangle&gt;" d="M68.53,259.6h342a0,0,0,0,1,0,0v6.23a9.58,9.58,0,0,1-9.58,9.58H78.1a9.58,9.58,0,0,1-9.58-9.58V259.6a0,0,0,0,1,0,0Z" opacity="0.05"/><rect id="5b960a53-890e-41aa-a229-71bf24b0ba49" data-name="&lt;Rectangle&gt;" x="68.53" y="255.67" width="342" height="12.58" rx="6.29" ry="6.29" fill="#c6c6c6"/><rect id="6ad432e5-9b40-4ea8-b357-4512504af88f" data-name="&lt;Rectangle&gt;" x="68.53" y="81" width="342" height="12.58" rx="6.29" ry="6.29" fill="#b2b2b2"/><rect id="9aa293d0-d56f-4578-893f-3a155bbafbd9" data-name="&lt;Rectangle&gt;" x="74.53" y="93.58" width="330" height="11.28" opacity="0.05"/><rect id="4a454889-0976-4611-b186-75c0af1c0597" data-name="&lt;Rectangle&gt;" x="174.06" y="352.59" width="121.87" height="16.77" rx="8.39" ry="8.39" opacity="0.05"/><g id="b970f67a-4d00-432b-8a0f-b8ecb5d630bc" data-name="&lt;Group&gt;"><path d="M295.68,159.73l-3,8.47h-9.35l15.62-43h11.54l15.62,43H315.95l-3.14-8.47H295.68Zm2.63-7.34h11.92c-1.88-5.65-3.83-11.29-5.77-16.88h-0.31Z" fill="#474747"/><path d="M344.3,141.79c-3.7,0-5.58,2.26-5.58,3.7V146h-8.85a6.15,6.15,0,0,1-.13-1.13c0-5.4,5.71-9.35,14.12-9.35h1.32c9.29,0,13.8,4,13.8,10V160.3c0,1.63.94,2.26,1.82,2.26a7.14,7.14,0,0,0,2.57-.69v5.65a11.13,11.13,0,0,1-5.52,1.32c-4.77,0-7-2.13-7.4-5.4a13.61,13.61,0,0,1-10.79,5.4c-5.14,0-10.92-1.32-10.92-9.35,0-9.22,8.41-10.79,21.27-10.79v-2.13C350,143.92,348.57,141.79,344.3,141.79Zm-6.09,17c0,2.82,1.63,3.76,4.71,3.76s7.09-2.76,7.09-7v-1.69C342.3,153.84,338.22,155.15,338.22,158.79Z" fill="#474747"/></g><g id="b3711068-650a-4921-b4fc-5093e06dce3e" data-name="&lt;Group&gt;"><path d="M302.74,191.85v-2l6.82-2.53c-2.29-.84-4.55-1.67-6.82-2.53v-2l8.95,3.46v2.16C308.7,189.57,305.73,190.73,302.74,191.85Z" fill="#a5a5a5"/><path d="M322.6,189.81c1.67,0,2.44-.88,2.44-2.76h2.48a4.56,4.56,0,0,1-4.8,4.92h-0.25a5,5,0,0,1-5.27-5.34v-1.72a5,5,0,0,1,5.2-5.34h0.25a4.55,4.55,0,0,1,4.87,5h-2.58c0-1.85-.84-2.79-2.36-2.79a2.5,2.5,0,0,0-2.53,2.79V187A2.51,2.51,0,0,0,322.6,189.81Z" fill="#474747"/><path d="M332.08,183.69a3.37,3.37,0,0,1,2.5-1.05c1.72,0,3.15.93,3.15,2.88v6.28h-2.57v-5.71a1.45,1.45,0,0,0-1.41-1.58,1.73,1.73,0,0,0-1.67,1.78v5.52h-2.57V179.14h2.57v4.55Z" fill="#474747"/><path d="M342.61,179.14v2H340v-2h2.6ZM340,182.82h2.57v9H340v-9Z" fill="#474747"/><path d="M347,191.8l-3.15-9h2.72l2,6h0.09l2-6h2.5l-3.16,9H347Z" fill="#474747"/><path d="M358.6,192h-0.28a4.16,4.16,0,0,1-4.39-4.41v-0.51a4.16,4.16,0,0,1,4.39-4.41h0.28a4.16,4.16,0,0,1,4.39,4.41v0.51A4.16,4.16,0,0,1,358.6,192Zm-0.14-7.58a1.92,1.92,0,0,0-1.93,2.2V188a1.95,1.95,0,1,0,3.87,0v-1.42A1.92,1.92,0,0,0,358.46,184.4Z" fill="#474747"/><path d="M329.77,199.35c0-.88-0.74-1.42-2-1.42s-2,.46-2,1.13c0,2.29,6.84.76,6.84,5.15,0,2.87-2.06,4-5,4-2.58,0-4.87-1.07-4.87-3.73,0-.14,0-0.3,0-0.39h2.57s0,0.19,0,.28c0,1,.77,1.67,2.21,1.67,1.78,0,2.3-.69,2.3-1.37,0-2.32-6.8-.7-6.8-5.31,0-2.41,2.16-3.57,4.71-3.57s4.59,1.07,4.59,3.53v0.21h-2.55v-0.16Z" fill="#474747"/><path d="M338.34,200.6a1.4,1.4,0,0,0-1.56,1v0.14H334.3a1.74,1.74,0,0,1,0-.32c0-1.51,1.6-2.62,4-2.62h0.37c2.6,0,3.87,1.13,3.87,2.79v4.15a0.54,0.54,0,0,0,.51.63,2,2,0,0,0,.72-0.19v1.58a3.12,3.12,0,0,1-1.55.37c-1.34,0-2-.6-2.07-1.51a3.81,3.81,0,0,1-3,1.51c-1.44,0-3.06-.37-3.06-2.62,0-2.58,2.36-3,6-3v-0.6C339.94,201.19,339.54,200.6,338.34,200.6Zm-1.71,4.76c0,0.79.46,1.05,1.32,1.05a2,2,0,0,0,2-2V204C337.78,204,336.64,204.34,336.64,205.36Z" fill="#474747"/><path d="M347.14,200.33a3.48,3.48,0,0,1,2.87-1.49c1.72,0,3.15.93,3.15,2.88V208h-2.57v-5.71a1.45,1.45,0,0,0-1.41-1.58,1.73,1.73,0,0,0-1.67,1.78V208h-2.57v-9h1.92Z" fill="#474747"/><path d="M357.06,205.25c0,0.9,1,1.16,1.9,1.16,0.77,0,1.81-.19,1.81-0.88,0-1.78-5.7-.18-5.7-3.85,0-1.9,1.86-2.85,3.9-2.85h0.35c1.83,0,3.62.95,3.62,2.43a2.8,2.8,0,0,1,0,.39h-2.25c0-.74-0.62-1.05-1.62-1.05s-1.63.3-1.63,0.79c0,1.63,5.73,0,5.73,3.76,0,2.29-1.92,3-4,3h-0.58c-2.2,0-3.78-1.07-3.78-2.69,0-.18,0-0.28,0-0.35h2.25v0.12Z" fill="#474747"/></g><g id="e498210d-52b6-4bf6-804e-715585647a15" data-name="&lt;Group&gt;"><path d="M106.79,135.85h-0.35l-0.25,0a2.44,2.44,0,0,1-.86-0.44,1.9,1.9,0,0,1-.56-0.73,1.62,1.62,0,0,1-.15-0.44,2.37,2.37,0,0,1,0-.4,2.7,2.7,0,0,1,.05-0.53l-0.33-.22a0.91,0.91,0,0,1-.26-0.26,1.9,1.9,0,0,1-.41-1.16,1.76,1.76,0,0,1,.18-0.78,2.28,2.28,0,0,1,.49-0.66l0.32-.32a6,6,0,0,0,.42-0.48l0.34-.38,0.49-.52,0.49-.5,0.48-.41,0.36-.27A2.43,2.43,0,0,1,109,127a1.78,1.78,0,0,1,1.32,1.11l0,0a2.5,2.5,0,0,1,.11.3,1.8,1.8,0,0,1,.06.3q0.24-.26.43-0.49l0.34-.42,0.24-.27,0.05-.07,0-.05a2.2,2.2,0,0,1,.93-0.66,1.82,1.82,0,0,1,1.09-.06,1.77,1.77,0,0,1,.69.38,2.46,2.46,0,0,1,.52.63,2.06,2.06,0,0,1,.21.93,3.52,3.52,0,0,1-.06.52,1.32,1.32,0,0,1,0,.16l0,0.15-0.1.33,0,0.05a2.1,2.1,0,0,1,.67.19,1.7,1.7,0,0,1,.57.43,2,2,0,0,1,.44,1.23,1.84,1.84,0,0,1-.7,1.45l-0.08.09q-0.36.31-.76,0.62a10.07,10.07,0,0,1-.85.58,3.87,3.87,0,0,1-2,.6,2.93,2.93,0,0,1-.82-0.12,1.85,1.85,0,0,1-.57-0.23,1.69,1.69,0,0,1-.45-0.4l-0.39.32-0.43.3h0a7.1,7.1,0,0,1-.75.46c-0.24.13-.47,0.23-0.68,0.32a2.73,2.73,0,0,1-.62.17A4,4,0,0,1,106.79,135.85Z" fill="#dbdbdb"/><path d="M124.19,135.85h-0.35l-0.25,0a2.44,2.44,0,0,1-.86-0.44,1.9,1.9,0,0,1-.56-0.73,1.62,1.62,0,0,1-.15-0.44,2.37,2.37,0,0,1,0-.4,2.7,2.7,0,0,1,.05-0.53l-0.33-.22a0.91,0.91,0,0,1-.26-0.26,1.9,1.9,0,0,1-.41-1.16,1.76,1.76,0,0,1,.18-0.78,2.28,2.28,0,0,1,.49-0.66l0.32-.32a6,6,0,0,0,.42-0.48l0.34-.38,0.49-.52,0.49-.5,0.48-.41,0.36-.27a2.43,2.43,0,0,1,1.85-.34,1.78,1.78,0,0,1,1.32,1.11l0,0a2.5,2.5,0,0,1,.11.3,1.8,1.8,0,0,1,.06.3q0.24-.26.43-0.49l0.34-.42,0.24-.27,0.05-.07,0-.05a2.2,2.2,0,0,1,.93-0.66,1.82,1.82,0,0,1,1.09-.06,1.77,1.77,0,0,1,.69.38,2.46,2.46,0,0,1,.52.63,2.06,2.06,0,0,1,.21.93,3.52,3.52,0,0,1-.06.52,1.32,1.32,0,0,1,0,.16l0,0.15-0.1.33,0,0.05a2.1,2.1,0,0,1,.67.19,1.7,1.7,0,0,1,.57.43,2,2,0,0,1,.44,1.23,1.84,1.84,0,0,1-.7,1.45l-0.08.09q-0.36.31-.76,0.62a10.07,10.07,0,0,1-.85.58,3.87,3.87,0,0,1-2,.6,2.93,2.93,0,0,1-.82-0.12,1.85,1.85,0,0,1-.57-0.23,1.69,1.69,0,0,1-.45-0.4l-0.39.32-0.43.3h0a7.1,7.1,0,0,1-.75.46c-0.24.13-.47,0.23-0.68,0.32a2.73,2.73,0,0,1-.62.17A4,4,0,0,1,124.19,135.85Z" fill="#dbdbdb"/><path d="M134.3,134.23a2.37,2.37,0,0,1-.46-0.05,1.85,1.85,0,0,1-.7-0.35,2,2,0,0,1-.5-0.59,1.7,1.7,0,0,1-1,.08,1.63,1.63,0,0,1-.9-0.54,1.51,1.51,0,0,1-.34-0.58,1.74,1.74,0,0,1-.08-0.66,1.75,1.75,0,0,1,.17-0.63,1.84,1.84,0,0,1,.4-0.54l0.4-.36,0.45-.44q0.41-.41.86-0.83t0.88-.76c0.19-.15.38-0.28,0.56-0.39a5.4,5.4,0,0,1,.5-0.29,2.63,2.63,0,0,1,1.74-.24,2,2,0,0,1,.81.46,2.17,2.17,0,0,1,.54.79,2.14,2.14,0,0,1,0,1.44l-0.07.17-0.09.19a1.75,1.75,0,0,1,.89,1,1.81,1.81,0,0,1,.1.68,1.75,1.75,0,0,1-.15.64,1.66,1.66,0,0,1-1,.88l-1,.37-0.74.26-0.32.12-0.22.09-0.36.09A1.55,1.55,0,0,1,134.3,134.23Z" fill="#dbdbdb"/><path d="M139,134.23a2.37,2.37,0,0,1-.46-0.05,1.85,1.85,0,0,1-.7-0.35,2,2,0,0,1-.5-0.59,1.7,1.7,0,0,1-1,.08,1.63,1.63,0,0,1-.9-0.54,1.51,1.51,0,0,1-.34-0.58,1.74,1.74,0,0,1-.08-0.66,1.75,1.75,0,0,1,.17-0.63,1.84,1.84,0,0,1,.4-0.54L136,130l0.45-.44q0.41-.41.86-0.83t0.88-.76c0.19-.15.38-0.28,0.56-0.39a5.4,5.4,0,0,1,.5-0.29A2.63,2.63,0,0,1,141,127a2,2,0,0,1,.81.46,2.17,2.17,0,0,1,.54.79,2.14,2.14,0,0,1,0,1.44l-0.07.17-0.09.19a1.75,1.75,0,0,1,.89,1,1.81,1.81,0,0,1,.1.68,1.75,1.75,0,0,1-.15.64,1.66,1.66,0,0,1-1,.88l-1,.37-0.74.26L140,134l-0.22.09-0.36.09A1.55,1.55,0,0,1,139,134.23Z" fill="#dbdbdb"/><path d="M144.26,135.75a2.69,2.69,0,0,1-.65-0.09,1.65,1.65,0,0,1-.65-0.32,1.55,1.55,0,0,1-.45-0.56,1.61,1.61,0,0,1-.16-0.43,1.91,1.91,0,0,1,0-.38,2.51,2.51,0,0,1,0-.32c0-.09,0-0.17,0-0.22l0-.18a1.39,1.39,0,0,1,.05-0.2l-0.22.11-0.22.08a1.74,1.74,0,0,1-.58.1,1.71,1.71,0,0,1-1-.3,1.63,1.63,0,0,1-.63-0.83,1.58,1.58,0,0,1-.09-0.67,1.81,1.81,0,0,1,.16-0.63,1.89,1.89,0,0,1,.38-0.53,1.51,1.51,0,0,1,.58-0.36L141,130a3.82,3.82,0,0,0,.42-0.25q0.27-.18.68-0.5t1-.84l0.64-.58,0.52-.48,0.35-.33a0.67,0.67,0,0,1,.15-0.13,1.7,1.7,0,0,1,.76-0.44,1.74,1.74,0,0,1,1.94.87,2.13,2.13,0,0,1,.18.53,1.54,1.54,0,0,1-.06.79,0,0,0,0,1,0,0,0,0,0,0,0,0,0,0.3,0.3,0,0,0,0,.09,0.33,0.33,0,0,1,0,.09,2.26,2.26,0,0,1-.09.26l-0.13.32-0.14.41q-0.08.22-.18,0.46l0.07,0,0.07-.05a1.7,1.7,0,0,1,1.27-.24,1.73,1.73,0,0,1,.6.26,1.64,1.64,0,0,1,.47.48,1.55,1.55,0,0,1,.26.63,1.71,1.71,0,0,1,0,.66,1.84,1.84,0,0,1-.26.61,1.6,1.6,0,0,1-.48.48l-0.78.54-0.74.56-0.79.6a6.31,6.31,0,0,1-.74.48,4.12,4.12,0,0,1-.51.25l-0.48.16A3.13,3.13,0,0,1,144.26,135.75Z" fill="#dbdbdb"/><path d="M152,134.74a1.61,1.61,0,0,1-1.08-.38,1.65,1.65,0,0,1-.56-0.82,1.72,1.72,0,0,1,0-1,0.12,0.12,0,0,1,0-.05,0.13,0.13,0,0,0,0-.05,0.12,0.12,0,0,1,0-.05,10.81,10.81,0,0,1-1.71.85,1.71,1.71,0,0,1-1.3-.05,1.8,1.8,0,0,1-.53-0.38,1.62,1.62,0,0,1-.36-0.57,1.43,1.43,0,0,1-.11-0.67,1.88,1.88,0,0,1,.16-0.64,1.78,1.78,0,0,1,.38-0.54,1.63,1.63,0,0,1,.57-0.36,7.31,7.31,0,0,0,1-.5,15.88,15.88,0,0,0,1.89-1.35l0.66-.55,0.52-.46,0.48-.44a1.65,1.65,0,0,1,1.64-.43,1.57,1.57,0,0,1,.62.31,1.91,1.91,0,0,1,.44.51,1.71,1.71,0,0,1,.24,1,7.27,7.27,0,0,1-.19,1.15c0,0.11,0,.23-0.08.33l-0.09.35a1.73,1.73,0,0,1,1,.24,1.75,1.75,0,0,1,.7.79,1.69,1.69,0,0,1,.14.66,1.87,1.87,0,0,1-.11.64,1.62,1.62,0,0,1-.34.56,1.6,1.6,0,0,1-.56.38l-1,.49-0.82.42-0.56.3-0.22.11A1.71,1.71,0,0,1,152,134.74Z" fill="#dbdbdb"/><path d="M156,135.85h-0.35l-0.25,0a2.44,2.44,0,0,1-.86-0.44,1.9,1.9,0,0,1-.56-0.73,1.62,1.62,0,0,1-.15-0.44,2.37,2.37,0,0,1,0-.4,2.7,2.7,0,0,1,.05-0.53l-0.33-.22a0.91,0.91,0,0,1-.26-0.26,1.9,1.9,0,0,1-.41-1.16,1.76,1.76,0,0,1,.18-0.78,2.28,2.28,0,0,1,.49-0.66l0.32-.32a6,6,0,0,0,.42-0.48l0.34-.38,0.49-.52,0.49-.5,0.48-.41,0.36-.27a2.43,2.43,0,0,1,1.85-.34,1.78,1.78,0,0,1,1.32,1.11l0,0a2.5,2.5,0,0,1,.11.3,1.8,1.8,0,0,1,.06.3q0.24-.26.43-0.49l0.34-.42,0.24-.27,0.05-.07,0-.05a2.2,2.2,0,0,1,.93-0.66,1.82,1.82,0,0,1,1.09-.06,1.77,1.77,0,0,1,.69.38,2.46,2.46,0,0,1,.52.63,2.06,2.06,0,0,1,.21.93,3.52,3.52,0,0,1-.06.52,1.32,1.32,0,0,1,0,.16l0,0.15-0.1.33,0,0.05a2.1,2.1,0,0,1,.67.19,1.7,1.7,0,0,1,.57.43,2,2,0,0,1,.44,1.23,1.84,1.84,0,0,1-.7,1.45l-0.08.09q-0.36.31-.76,0.62a10.07,10.07,0,0,1-.85.58,3.87,3.87,0,0,1-2,.6,2.93,2.93,0,0,1-.82-0.12,1.85,1.85,0,0,1-.57-0.23,1.69,1.69,0,0,1-.45-0.4l-0.39.32-0.43.3h0a7.1,7.1,0,0,1-.75.46c-0.24.13-.47,0.23-0.68,0.32a2.73,2.73,0,0,1-.62.17A4,4,0,0,1,156,135.85Z" fill="#dbdbdb"/><path d="M169.82,134.57a1.89,1.89,0,0,1-.53-0.09,1.63,1.63,0,0,1-.73-0.38,1.78,1.78,0,0,1-.46-0.68,2,2,0,0,1,0-1.47,5.42,5.42,0,0,1,.31-0.68l0.08-.15,0.09-.16q-0.39.21-.77,0.44t-0.77.44q-0.7.43-1.34,0.78t-1.19.59a1.52,1.52,0,0,1-.66.15,1.76,1.76,0,0,1-.64-0.12,1.73,1.73,0,0,1-.56-0.35,1.6,1.6,0,0,1-.38-0.56,1.52,1.52,0,0,1-.15-0.66,1.75,1.75,0,0,1,.12-0.64,1.72,1.72,0,0,1,.35-0.56,1.59,1.59,0,0,1,.56-0.38q0.39-.19,1-0.5l1.22-.69,1.58-.91a16,16,0,0,1,1.63-.81,6.87,6.87,0,0,1,1.69-.6,5,5,0,0,1,1-.15,3.09,3.09,0,0,1,.92.1,1.86,1.86,0,0,1,1.28,1.16,1.91,1.91,0,0,1,.08,1.27,6.12,6.12,0,0,1-.47,1.16l0.11,0,0.11,0a1.54,1.54,0,0,1,.66-0.09,1.85,1.85,0,0,1,.63.16,1.68,1.68,0,0,1,.53.38,1.7,1.7,0,0,1,.35.57,1.78,1.78,0,0,1,.1.67,1.71,1.71,0,0,1-.15.63,1.66,1.66,0,0,1-1,.88l-1.47.52-1.18.4q-0.72.21-1.16,0.3A3.9,3.9,0,0,1,169.82,134.57Z" fill="#dbdbdb"/><path d="M175.17,135.85h-0.35l-0.25,0a2.44,2.44,0,0,1-.86-0.44,1.9,1.9,0,0,1-.56-0.73,1.62,1.62,0,0,1-.15-0.44,2.37,2.37,0,0,1,0-.4,2.7,2.7,0,0,1,.05-0.53l-0.33-.22a0.91,0.91,0,0,1-.26-0.26,1.9,1.9,0,0,1-.41-1.16,1.76,1.76,0,0,1,.18-0.78,2.28,2.28,0,0,1,.49-0.66l0.32-.32a6,6,0,0,0,.42-0.48l0.34-.38,0.49-.52,0.49-.5,0.48-.41,0.36-.27a2.43,2.43,0,0,1,1.85-.34,1.78,1.78,0,0,1,1.32,1.11l0,0a2.5,2.5,0,0,1,.11.3,1.8,1.8,0,0,1,.06.3q0.24-.26.43-0.49l0.34-.42,0.24-.27,0.05-.07,0-.05a2.2,2.2,0,0,1,.93-0.66,1.82,1.82,0,0,1,1.09-.06,1.77,1.77,0,0,1,.69.38,2.46,2.46,0,0,1,.52.63,2.06,2.06,0,0,1,.21.93,3.52,3.52,0,0,1-.06.52,1.32,1.32,0,0,1,0,.16l0,0.15-0.1.33,0,0.05a2.1,2.1,0,0,1,.67.19,1.7,1.7,0,0,1,.57.43,2,2,0,0,1,.44,1.23,1.84,1.84,0,0,1-.7,1.45l-0.08.09q-0.36.31-.76,0.62a10.07,10.07,0,0,1-.85.58,3.87,3.87,0,0,1-2,.6,2.93,2.93,0,0,1-.82-0.12,1.85,1.85,0,0,1-.57-0.23,1.69,1.69,0,0,1-.45-0.4l-0.39.32-0.43.3h0a7.1,7.1,0,0,1-.75.46c-0.24.13-.47,0.23-0.68,0.32a2.73,2.73,0,0,1-.62.17A4,4,0,0,1,175.17,135.85Z" fill="#dbdbdb"/><path d="M184.27,135.85h-0.35l-0.25,0a2.44,2.44,0,0,1-.86-0.44,1.9,1.9,0,0,1-.56-0.73,1.62,1.62,0,0,1-.15-0.44,2.37,2.37,0,0,1,0-.4,2.7,2.7,0,0,1,.05-0.53l-0.33-.22a0.91,0.91,0,0,1-.26-0.26,1.9,1.9,0,0,1-.41-1.16,1.76,1.76,0,0,1,.18-0.78,2.28,2.28,0,0,1,.49-0.66l0.32-.32a6,6,0,0,0,.42-0.48l0.34-.38,0.49-.52,0.49-.5,0.48-.41,0.36-.27a2.43,2.43,0,0,1,1.85-.34,1.78,1.78,0,0,1,1.32,1.11l0,0a2.5,2.5,0,0,1,.11.3,1.8,1.8,0,0,1,.06.3q0.24-.26.43-0.49l0.34-.42,0.24-.27,0.05-.07,0-.05a2.2,2.2,0,0,1,.93-0.66,1.82,1.82,0,0,1,1.09-.06,1.77,1.77,0,0,1,.69.38,2.46,2.46,0,0,1,.52.63,2.06,2.06,0,0,1,.21.93,3.52,3.52,0,0,1-.06.52,1.32,1.32,0,0,1,0,.16l0,0.15-0.1.33,0,0.05a2.1,2.1,0,0,1,.67.19,1.7,1.7,0,0,1,.57.43,2,2,0,0,1,.44,1.23,1.84,1.84,0,0,1-.7,1.45l-0.08.09q-0.36.31-.76,0.62a10.07,10.07,0,0,1-.85.58,3.87,3.87,0,0,1-2,.6,2.93,2.93,0,0,1-.82-0.12,1.85,1.85,0,0,1-.57-0.23,1.69,1.69,0,0,1-.45-0.4l-0.39.32-0.43.3h0a7.1,7.1,0,0,1-.75.46c-0.24.13-.47,0.23-0.68,0.32a2.73,2.73,0,0,1-.62.17A4,4,0,0,1,184.27,135.85Z" fill="#dbdbdb"/><path d="M201.67,135.85h-0.35l-0.25,0a2.44,2.44,0,0,1-.86-0.44,1.9,1.9,0,0,1-.56-0.73,1.62,1.62,0,0,1-.15-0.44,2.37,2.37,0,0,1,0-.4,2.7,2.7,0,0,1,.05-0.53l-0.33-.22a0.91,0.91,0,0,1-.26-0.26,1.9,1.9,0,0,1-.41-1.16,1.76,1.76,0,0,1,.18-0.78,2.28,2.28,0,0,1,.49-0.66l0.32-.32a6,6,0,0,0,.42-0.48l0.34-.38,0.49-.52,0.49-.5,0.48-.41,0.36-.27a2.43,2.43,0,0,1,1.85-.34,1.78,1.78,0,0,1,1.32,1.11l0,0a2.5,2.5,0,0,1,.11.3,1.8,1.8,0,0,1,.06.3q0.24-.26.43-0.49l0.34-.42,0.24-.27,0.05-.07,0-.05a2.2,2.2,0,0,1,.93-0.66,1.82,1.82,0,0,1,1.09-.06,1.77,1.77,0,0,1,.69.38,2.46,2.46,0,0,1,.52.63,2.06,2.06,0,0,1,.21.93,3.52,3.52,0,0,1-.06.52,1.32,1.32,0,0,1,0,.16l0,0.15-0.1.33,0,0.05a2.1,2.1,0,0,1,.67.19,1.7,1.7,0,0,1,.57.43,2,2,0,0,1,.44,1.23,1.84,1.84,0,0,1-.7,1.45l-0.08.09q-0.36.31-.76,0.62a10.07,10.07,0,0,1-.85.58,3.87,3.87,0,0,1-2,.6,2.93,2.93,0,0,1-.82-0.12,1.85,1.85,0,0,1-.57-0.23,1.69,1.69,0,0,1-.45-0.4l-0.39.32-0.43.3h0a7.1,7.1,0,0,1-.75.46c-0.24.13-.47,0.23-0.68,0.32a2.73,2.73,0,0,1-.62.17A4,4,0,0,1,201.67,135.85Z" fill="#dbdbdb"/><path d="M215.48,134.57a1.89,1.89,0,0,1-.53-0.09,1.63,1.63,0,0,1-.73-0.38,1.78,1.78,0,0,1-.46-0.68,2,2,0,0,1,0-1.47,5.42,5.42,0,0,1,.31-0.68l0.08-.15,0.09-.16q-0.39.21-.77,0.44t-0.77.44q-0.7.43-1.34,0.78t-1.19.59a1.52,1.52,0,0,1-.66.15,1.76,1.76,0,0,1-.64-0.12,1.73,1.73,0,0,1-.56-0.35,1.6,1.6,0,0,1-.38-0.56,1.52,1.52,0,0,1-.15-0.66,1.75,1.75,0,0,1,.12-0.64,1.72,1.72,0,0,1,.35-0.56,1.59,1.59,0,0,1,.56-0.38q0.39-.19,1-0.5l1.22-.69,1.58-.91a16,16,0,0,1,1.63-.81,6.87,6.87,0,0,1,1.69-.6,5,5,0,0,1,1-.15,3.09,3.09,0,0,1,.92.1,1.86,1.86,0,0,1,1.28,1.16,1.91,1.91,0,0,1,.08,1.27,6.12,6.12,0,0,1-.47,1.16l0.11,0,0.11,0a1.54,1.54,0,0,1,.66-0.09,1.85,1.85,0,0,1,.63.16,1.68,1.68,0,0,1,.53.38,1.7,1.7,0,0,1,.35.57,1.78,1.78,0,0,1,.1.67,1.71,1.71,0,0,1-.15.63,1.66,1.66,0,0,1-1,.88l-1.47.52-1.18.4q-0.72.21-1.16,0.3A3.9,3.9,0,0,1,215.48,134.57Z" fill="#dbdbdb"/><path d="M220.83,135.85h-0.35l-0.25,0a2.44,2.44,0,0,1-.86-0.44,1.9,1.9,0,0,1-.56-0.73,1.62,1.62,0,0,1-.15-0.44,2.37,2.37,0,0,1,0-.4,2.7,2.7,0,0,1,.05-0.53l-0.33-.22a0.91,0.91,0,0,1-.26-0.26,1.9,1.9,0,0,1-.41-1.16,1.76,1.76,0,0,1,.18-0.78,2.28,2.28,0,0,1,.49-0.66l0.32-.32a6,6,0,0,0,.42-0.48l0.34-.38,0.49-.52,0.49-.5,0.48-.41,0.36-.27a2.43,2.43,0,0,1,1.85-.34,1.78,1.78,0,0,1,1.32,1.11l0,0a2.5,2.5,0,0,1,.11.3,1.8,1.8,0,0,1,.06.3q0.24-.26.43-0.49l0.34-.42,0.24-.27,0.05-.07,0-.05a2.2,2.2,0,0,1,.93-0.66,1.82,1.82,0,0,1,1.09-.06,1.77,1.77,0,0,1,.69.38,2.46,2.46,0,0,1,.52.63,2.06,2.06,0,0,1,.21.93,3.52,3.52,0,0,1-.06.52,1.32,1.32,0,0,1,0,.16l0,0.15-0.1.33,0,0.05a2.1,2.1,0,0,1,.67.19,1.7,1.7,0,0,1,.57.43,2,2,0,0,1,.44,1.23,1.84,1.84,0,0,1-.7,1.45l-0.08.09q-0.36.31-.76,0.62a10.07,10.07,0,0,1-.85.58,3.87,3.87,0,0,1-2,.6,2.93,2.93,0,0,1-.82-0.12,1.85,1.85,0,0,1-.57-0.23,1.69,1.69,0,0,1-.45-0.4l-0.39.32-0.43.3h0a7.1,7.1,0,0,1-.75.46c-0.24.13-.47,0.23-0.68,0.32a2.73,2.73,0,0,1-.62.17A4,4,0,0,1,220.83,135.85Z" fill="#dbdbdb"/><path d="M229.93,135.85h-0.35l-0.25,0a2.44,2.44,0,0,1-.86-0.44,1.9,1.9,0,0,1-.56-0.73,1.62,1.62,0,0,1-.15-0.44,2.37,2.37,0,0,1,0-.4,2.7,2.7,0,0,1,.05-0.53l-0.33-.22a0.91,0.91,0,0,1-.26-0.26,1.9,1.9,0,0,1-.41-1.16,1.76,1.76,0,0,1,.18-0.78,2.28,2.28,0,0,1,.49-0.66l0.32-.32a6,6,0,0,0,.42-0.48l0.34-.38,0.49-.52,0.49-.5,0.48-.41,0.36-.27a2.43,2.43,0,0,1,1.85-.34,1.78,1.78,0,0,1,1.32,1.11l0,0a2.5,2.5,0,0,1,.11.3,1.8,1.8,0,0,1,.06.3q0.24-.26.43-0.49l0.34-.42,0.24-.27,0.05-.07,0-.05a2.2,2.2,0,0,1,.93-0.66,1.82,1.82,0,0,1,1.09-.06,1.77,1.77,0,0,1,.69.38,2.46,2.46,0,0,1,.52.63,2.06,2.06,0,0,1,.21.93,3.52,3.52,0,0,1-.06.52,1.32,1.32,0,0,1,0,.16l0,0.15-0.1.33,0,0.05a2.1,2.1,0,0,1,.67.19,1.7,1.7,0,0,1,.57.43,2,2,0,0,1,.44,1.23,1.84,1.84,0,0,1-.7,1.45l-0.08.09q-0.36.31-.76,0.62a10.07,10.07,0,0,1-.85.58,3.87,3.87,0,0,1-2,.6,2.93,2.93,0,0,1-.82-0.12,1.85,1.85,0,0,1-.57-0.23,1.69,1.69,0,0,1-.45-0.4l-0.39.32-0.43.3h0a7.1,7.1,0,0,1-.75.46c-0.24.13-.47,0.23-0.68,0.32a2.73,2.73,0,0,1-.62.17A4,4,0,0,1,229.93,135.85Z" fill="#dbdbdb"/><path d="M243.74,134.57a1.89,1.89,0,0,1-.53-0.09,1.63,1.63,0,0,1-.73-0.38,1.78,1.78,0,0,1-.46-0.68,2,2,0,0,1,0-1.47,5.42,5.42,0,0,1,.31-0.68l0.08-.15,0.09-.16q-0.39.21-.77,0.44t-0.77.44q-0.7.43-1.34,0.78t-1.19.59a1.52,1.52,0,0,1-.66.15,1.76,1.76,0,0,1-.64-0.12,1.73,1.73,0,0,1-.56-0.35,1.6,1.6,0,0,1-.38-0.56,1.52,1.52,0,0,1-.15-0.66,1.75,1.75,0,0,1,.12-0.64,1.72,1.72,0,0,1,.35-0.56,1.59,1.59,0,0,1,.56-0.38q0.39-.19,1-0.5l1.22-.69,1.58-.91a16,16,0,0,1,1.63-.81,6.87,6.87,0,0,1,1.69-.6,5,5,0,0,1,1-.15,3.09,3.09,0,0,1,.92.1,1.86,1.86,0,0,1,1.28,1.16,1.91,1.91,0,0,1,.08,1.27,6.12,6.12,0,0,1-.47,1.16l0.11,0,0.11,0a1.54,1.54,0,0,1,.66-0.09,1.85,1.85,0,0,1,.63.16,1.68,1.68,0,0,1,.53.38,1.7,1.7,0,0,1,.35.57,1.78,1.78,0,0,1,.1.67,1.71,1.71,0,0,1-.15.63,1.66,1.66,0,0,1-1,.88l-1.47.52-1.18.4q-0.72.21-1.16,0.3A3.9,3.9,0,0,1,243.74,134.57Z" fill="#dbdbdb"/><path d="M249.09,135.85h-0.35l-0.25,0a2.44,2.44,0,0,1-.86-0.44,1.9,1.9,0,0,1-.56-0.73,1.62,1.62,0,0,1-.15-0.44,2.37,2.37,0,0,1,0-.4,2.7,2.7,0,0,1,.05-0.53l-0.33-.22a0.91,0.91,0,0,1-.26-0.26,1.9,1.9,0,0,1-.41-1.16,1.76,1.76,0,0,1,.18-0.78,2.28,2.28,0,0,1,.49-0.66l0.32-.32a6,6,0,0,0,.42-0.48l0.34-.38,0.49-.52,0.49-.5,0.48-.41,0.36-.27a2.43,2.43,0,0,1,1.85-.34,1.78,1.78,0,0,1,1.32,1.11l0,0a2.5,2.5,0,0,1,.11.3,1.8,1.8,0,0,1,.06.3q0.24-.26.43-0.49l0.34-.42,0.24-.27,0.05-.07,0-.05a2.2,2.2,0,0,1,.93-0.66,1.82,1.82,0,0,1,1.09-.06,1.77,1.77,0,0,1,.69.38,2.46,2.46,0,0,1,.52.63,2.06,2.06,0,0,1,.21.93,3.52,3.52,0,0,1-.06.52,1.32,1.32,0,0,1,0,.16l0,0.15-0.1.33,0,0.05a2.1,2.1,0,0,1,.67.19,1.7,1.7,0,0,1,.57.43,2,2,0,0,1,.44,1.23,1.84,1.84,0,0,1-.7,1.45l-0.08.09q-0.36.31-.76,0.62a10.07,10.07,0,0,1-.85.58,3.87,3.87,0,0,1-2,.6,2.93,2.93,0,0,1-.82-0.12,1.85,1.85,0,0,1-.57-0.23,1.69,1.69,0,0,1-.45-0.4l-0.39.32-0.43.3h0a7.1,7.1,0,0,1-.75.46c-0.24.13-.47,0.23-0.68,0.32a2.73,2.73,0,0,1-.62.17A4,4,0,0,1,249.09,135.85Z" fill="#dbdbdb"/><path d="M111.51,150.33a1.89,1.89,0,0,1-.53-0.09,1.63,1.63,0,0,1-.73-0.38,1.78,1.78,0,0,1-.46-0.68,2,2,0,0,1,0-1.47,5.42,5.42,0,0,1,.31-0.68l0.08-.15,0.09-.16q-0.39.21-.77,0.44t-0.77.44q-0.7.43-1.34,0.78t-1.19.59a1.52,1.52,0,0,1-.66.15,1.76,1.76,0,0,1-.64-0.12,1.73,1.73,0,0,1-.56-0.35,1.6,1.6,0,0,1-.38-0.56,1.52,1.52,0,0,1-.15-0.66,1.75,1.75,0,0,1,.12-0.64,1.72,1.72,0,0,1,.35-0.56,1.59,1.59,0,0,1,.56-0.38q0.39-.19,1-0.5l1.22-.69,1.58-.91a16,16,0,0,1,1.63-.81,6.87,6.87,0,0,1,1.69-.6,5,5,0,0,1,1-.15,3.09,3.09,0,0,1,.92.1,1.86,1.86,0,0,1,1.28,1.16,1.91,1.91,0,0,1,.08,1.27,6.12,6.12,0,0,1-.47,1.16l0.11,0,0.11,0a1.54,1.54,0,0,1,.66-0.09,1.85,1.85,0,0,1,.63.16,1.68,1.68,0,0,1,.53.38,1.7,1.7,0,0,1,.35.57,1.78,1.78,0,0,1,.1.67,1.71,1.71,0,0,1-.15.63,1.66,1.66,0,0,1-1,.88l-1.47.52-1.18.4q-0.72.21-1.16,0.3A3.9,3.9,0,0,1,111.51,150.33Z" fill="#dbdbdb"/><path d="M116.86,151.61h-0.35l-0.25,0a2.44,2.44,0,0,1-.86-0.44,1.9,1.9,0,0,1-.56-0.73,1.62,1.62,0,0,1-.15-0.44,2.37,2.37,0,0,1,0-.4,2.7,2.7,0,0,1,.05-0.53l-0.33-.22a0.91,0.91,0,0,1-.26-0.26,1.9,1.9,0,0,1-.41-1.16,1.76,1.76,0,0,1,.18-0.78,2.28,2.28,0,0,1,.49-0.66l0.32-.32a6,6,0,0,0,.42-0.48l0.34-.38,0.49-.52,0.49-.5,0.48-.41,0.36-.27a2.43,2.43,0,0,1,1.85-.34,1.78,1.78,0,0,1,1.32,1.11l0,0a2.5,2.5,0,0,1,.11.3,1.8,1.8,0,0,1,.06.3q0.24-.26.43-0.49l0.34-.42,0.24-.27,0.05-.07,0-.05a2.2,2.2,0,0,1,.93-0.66,1.82,1.82,0,0,1,1.09-.06,1.77,1.77,0,0,1,.69.38,2.46,2.46,0,0,1,.52.63,2.06,2.06,0,0,1,.21.93,3.52,3.52,0,0,1-.06.52,1.32,1.32,0,0,1,0,.16l0,0.15-0.1.33,0,0.05a2.1,2.1,0,0,1,.67.19,1.7,1.7,0,0,1,.57.43,2,2,0,0,1,.44,1.23,1.84,1.84,0,0,1-.7,1.45l-0.08.09q-0.36.31-.76,0.62a10.07,10.07,0,0,1-.85.58,3.87,3.87,0,0,1-2,.6,2.93,2.93,0,0,1-.82-0.12,1.85,1.85,0,0,1-.57-0.23,1.69,1.69,0,0,1-.45-0.4l-0.39.32-0.43.3h0a7.1,7.1,0,0,1-.75.46c-0.24.13-.47,0.23-0.68,0.32a2.73,2.73,0,0,1-.62.17A4,4,0,0,1,116.86,151.61Z" fill="#dbdbdb"/><path d="M126,151.61H125.6l-0.25,0a2.44,2.44,0,0,1-.86-0.44,1.9,1.9,0,0,1-.56-0.73,1.62,1.62,0,0,1-.15-0.44,2.37,2.37,0,0,1,0-.4,2.7,2.7,0,0,1,.05-0.53l-0.33-.22a0.91,0.91,0,0,1-.26-0.26,1.9,1.9,0,0,1-.41-1.16,1.76,1.76,0,0,1,.18-0.78,2.28,2.28,0,0,1,.49-0.66l0.32-.32a6,6,0,0,0,.42-0.48l0.34-.38,0.49-.52,0.49-.5,0.48-.41,0.36-.27a2.43,2.43,0,0,1,1.85-.34,1.78,1.78,0,0,1,1.32,1.11l0,0a2.5,2.5,0,0,1,.11.3,1.8,1.8,0,0,1,.06.3q0.24-.26.43-0.49l0.34-.42,0.24-.27,0.05-.07,0-.05a2.2,2.2,0,0,1,.93-0.66,1.82,1.82,0,0,1,1.09-.06,1.77,1.77,0,0,1,.69.38,2.46,2.46,0,0,1,.52.63,2.06,2.06,0,0,1,.21.93,3.52,3.52,0,0,1-.06.52,1.32,1.32,0,0,1,0,.16l0,0.15-0.1.33,0,0.05a2.1,2.1,0,0,1,.67.19,1.7,1.7,0,0,1,.57.43,2,2,0,0,1,.44,1.23,1.84,1.84,0,0,1-.7,1.45l-0.08.09q-0.36.31-.76,0.62a10.07,10.07,0,0,1-.85.58,3.87,3.87,0,0,1-2,.6,2.93,2.93,0,0,1-.82-0.12,1.85,1.85,0,0,1-.57-0.23,1.69,1.69,0,0,1-.45-0.4l-0.39.32-0.43.3h0a7.1,7.1,0,0,1-.75.46c-0.24.13-.47,0.23-0.68,0.32a2.73,2.73,0,0,1-.62.17A4,4,0,0,1,126,151.61Z" fill="#dbdbdb"/><path d="M135,151.61H134.7l-0.25,0a2.44,2.44,0,0,1-.86-0.44,1.9,1.9,0,0,1-.56-0.73,1.62,1.62,0,0,1-.15-0.44,2.37,2.37,0,0,1,0-.4,2.7,2.7,0,0,1,.05-0.53l-0.33-.22a0.91,0.91,0,0,1-.26-0.26,1.9,1.9,0,0,1-.41-1.16,1.76,1.76,0,0,1,.18-0.78,2.28,2.28,0,0,1,.49-0.66l0.32-.32a6,6,0,0,0,.42-0.48l0.34-.38,0.49-.52,0.49-.5,0.48-.41,0.36-.27a2.43,2.43,0,0,1,1.85-.34,1.78,1.78,0,0,1,1.32,1.11l0,0a2.5,2.5,0,0,1,.11.3,1.8,1.8,0,0,1,.06.3q0.24-.26.43-0.49l0.34-.42,0.24-.27,0.05-.07,0-.05a2.2,2.2,0,0,1,.93-0.66,1.82,1.82,0,0,1,1.09-.06,1.77,1.77,0,0,1,.69.38,2.46,2.46,0,0,1,.52.63,2.06,2.06,0,0,1,.21.93,3.52,3.52,0,0,1-.06.52,1.32,1.32,0,0,1,0,.16l0,0.15-0.1.33,0,0.05a2.1,2.1,0,0,1,.67.19,1.7,1.7,0,0,1,.57.43,2,2,0,0,1,.44,1.23,1.84,1.84,0,0,1-.7,1.45l-0.08.09q-0.36.31-.76,0.62a10.07,10.07,0,0,1-.85.58,3.87,3.87,0,0,1-2,.6,2.93,2.93,0,0,1-.82-0.12,1.85,1.85,0,0,1-.57-0.23,1.69,1.69,0,0,1-.45-0.4l-0.39.32-0.43.3h0a7.1,7.1,0,0,1-.75.46c-0.24.13-.47,0.23-0.68,0.32a2.73,2.73,0,0,1-.62.17A4,4,0,0,1,135,151.61Z" fill="#dbdbdb"/><path d="M148.86,150.33a1.89,1.89,0,0,1-.53-0.09,1.63,1.63,0,0,1-.73-0.38,1.78,1.78,0,0,1-.46-0.68,2,2,0,0,1,0-1.47,5.42,5.42,0,0,1,.31-0.68l0.08-.15,0.09-.16q-0.39.21-.77,0.44t-0.77.44q-0.7.43-1.34,0.78t-1.19.59a1.52,1.52,0,0,1-.66.15,1.76,1.76,0,0,1-.64-0.12,1.73,1.73,0,0,1-.56-0.35,1.6,1.6,0,0,1-.38-0.56,1.52,1.52,0,0,1-.15-0.66,1.75,1.75,0,0,1,.12-0.64,1.72,1.72,0,0,1,.35-0.56,1.59,1.59,0,0,1,.56-0.38q0.39-.19,1-0.5l1.22-.69,1.58-.91a16,16,0,0,1,1.63-.81,6.87,6.87,0,0,1,1.69-.6,5,5,0,0,1,1-.15,3.09,3.09,0,0,1,.92.1,1.86,1.86,0,0,1,1.28,1.16,1.91,1.91,0,0,1,.08,1.27,6.12,6.12,0,0,1-.47,1.16l0.11,0,0.11,0a1.54,1.54,0,0,1,.66-0.09,1.85,1.85,0,0,1,.63.16,1.68,1.68,0,0,1,.53.38,1.7,1.7,0,0,1,.35.57,1.78,1.78,0,0,1,.1.67,1.71,1.71,0,0,1-.15.63,1.66,1.66,0,0,1-1,.88l-1.47.52-1.18.4q-0.72.21-1.16,0.3A3.9,3.9,0,0,1,148.86,150.33Z" fill="#dbdbdb"/><path d="M154.21,151.61h-0.35l-0.25,0a2.44,2.44,0,0,1-.86-0.44,1.9,1.9,0,0,1-.56-0.73A1.62,1.62,0,0,1,152,150a2.37,2.37,0,0,1,0-.4,2.7,2.7,0,0,1,.05-0.53l-0.33-.22a0.91,0.91,0,0,1-.26-0.26,1.9,1.9,0,0,1-.41-1.16,1.76,1.76,0,0,1,.18-0.78,2.28,2.28,0,0,1,.49-0.66l0.32-.32a6,6,0,0,0,.42-0.48l0.34-.38,0.49-.52,0.49-.5,0.48-.41,0.36-.27a2.43,2.43,0,0,1,1.85-.34,1.78,1.78,0,0,1,1.32,1.11l0,0a2.5,2.5,0,0,1,.11.3,1.8,1.8,0,0,1,.06.3q0.24-.26.43-0.49l0.34-.42,0.24-.27,0.05-.07,0-.05a2.2,2.2,0,0,1,.93-0.66,1.82,1.82,0,0,1,1.09-.06,1.77,1.77,0,0,1,.69.38,2.46,2.46,0,0,1,.52.63,2.06,2.06,0,0,1,.21.93,3.52,3.52,0,0,1-.06.52,1.32,1.32,0,0,1,0,.16l0,0.15-0.1.33,0,0.05a2.1,2.1,0,0,1,.67.19,1.7,1.7,0,0,1,.57.43,2,2,0,0,1,.44,1.23,1.84,1.84,0,0,1-.7,1.45l-0.08.09q-0.36.31-.76,0.62a10.07,10.07,0,0,1-.85.58,3.87,3.87,0,0,1-2,.6,2.93,2.93,0,0,1-.82-0.12,1.85,1.85,0,0,1-.57-0.23,1.69,1.69,0,0,1-.45-0.4l-0.39.32-0.43.3h0a7.1,7.1,0,0,1-.75.46c-0.24.13-.47,0.23-0.68,0.32a2.73,2.73,0,0,1-.62.17A4,4,0,0,1,154.21,151.61Z" fill="#dbdbdb"/><path d="M163.31,151.61H163l-0.25,0a2.44,2.44,0,0,1-.86-0.44,1.9,1.9,0,0,1-.56-0.73,1.62,1.62,0,0,1-.15-0.44,2.37,2.37,0,0,1,0-.4,2.7,2.7,0,0,1,.05-0.53l-0.33-.22a0.91,0.91,0,0,1-.26-0.26,1.9,1.9,0,0,1-.41-1.16,1.76,1.76,0,0,1,.18-0.78,2.28,2.28,0,0,1,.49-0.66l0.32-.32a6,6,0,0,0,.42-0.48l0.34-.38,0.49-.52,0.49-.5,0.48-.41,0.36-.27a2.43,2.43,0,0,1,1.85-.34,1.78,1.78,0,0,1,1.32,1.11l0,0a2.5,2.5,0,0,1,.11.3,1.8,1.8,0,0,1,.06.3q0.24-.26.43-0.49l0.34-.42,0.24-.27,0.05-.07,0-.05a2.2,2.2,0,0,1,.93-0.66,1.82,1.82,0,0,1,1.09-.06,1.77,1.77,0,0,1,.69.38,2.46,2.46,0,0,1,.52.63,2.06,2.06,0,0,1,.21.93,3.52,3.52,0,0,1-.06.52,1.32,1.32,0,0,1,0,.16l0,0.15-0.1.33,0,0.05a2.1,2.1,0,0,1,.67.19,1.7,1.7,0,0,1,.57.43,2,2,0,0,1,.44,1.23,1.84,1.84,0,0,1-.7,1.45l-0.08.09q-0.36.31-.76,0.62a10.07,10.07,0,0,1-.85.58,3.87,3.87,0,0,1-2,.6,2.93,2.93,0,0,1-.82-0.12,1.85,1.85,0,0,1-.57-0.23,1.69,1.69,0,0,1-.45-0.4l-0.39.32-0.43.3h0a7.1,7.1,0,0,1-.75.46c-0.24.13-.47,0.23-0.68,0.32a2.73,2.73,0,0,1-.62.17A4,4,0,0,1,163.31,151.61Z" fill="#dbdbdb"/><path d="M177.12,150.33a1.89,1.89,0,0,1-.53-0.09,1.63,1.63,0,0,1-.73-0.38,1.78,1.78,0,0,1-.46-0.68,2,2,0,0,1,0-1.47,5.42,5.42,0,0,1,.31-0.68l0.08-.15,0.09-.16q-0.39.21-.77,0.44t-0.77.44q-0.7.43-1.34,0.78t-1.19.59a1.52,1.52,0,0,1-.66.15,1.76,1.76,0,0,1-.64-0.12,1.73,1.73,0,0,1-.56-0.35,1.6,1.6,0,0,1-.38-0.56,1.52,1.52,0,0,1-.15-0.66,1.75,1.75,0,0,1,.12-0.64,1.72,1.72,0,0,1,.35-0.56,1.59,1.59,0,0,1,.56-0.38q0.39-.19,1-0.5l1.22-.69,1.58-.91a16,16,0,0,1,1.63-.81,6.87,6.87,0,0,1,1.69-.6,5,5,0,0,1,1-.15,3.09,3.09,0,0,1,.92.1,1.86,1.86,0,0,1,1.28,1.16,1.91,1.91,0,0,1,.08,1.27,6.12,6.12,0,0,1-.47,1.16l0.11,0,0.11,0a1.54,1.54,0,0,1,.66-0.09,1.85,1.85,0,0,1,.63.16,1.68,1.68,0,0,1,.53.38,1.7,1.7,0,0,1,.35.57,1.78,1.78,0,0,1,.1.67,1.71,1.71,0,0,1-.15.63,1.66,1.66,0,0,1-1,.88l-1.47.52-1.18.4q-0.72.21-1.16,0.3A3.9,3.9,0,0,1,177.12,150.33Z" fill="#dbdbdb"/><path d="M182.47,151.61h-0.35l-0.25,0a2.44,2.44,0,0,1-.86-0.44,1.9,1.9,0,0,1-.56-0.73,1.62,1.62,0,0,1-.15-0.44,2.37,2.37,0,0,1,0-.4,2.7,2.7,0,0,1,.05-0.53l-0.33-.22a0.91,0.91,0,0,1-.26-0.26,1.9,1.9,0,0,1-.41-1.16,1.76,1.76,0,0,1,.18-0.78A2.28,2.28,0,0,1,180,146l0.32-.32a6,6,0,0,0,.42-0.48l0.34-.38,0.49-.52,0.49-.5,0.48-.41,0.36-.27a2.43,2.43,0,0,1,1.85-.34,1.78,1.78,0,0,1,1.32,1.11l0,0a2.5,2.5,0,0,1,.11.3,1.8,1.8,0,0,1,.06.3q0.24-.26.43-0.49l0.34-.42,0.24-.27,0.05-.07,0-.05a2.2,2.2,0,0,1,.93-0.66,1.82,1.82,0,0,1,1.09-.06,1.77,1.77,0,0,1,.69.38,2.46,2.46,0,0,1,.52.63,2.06,2.06,0,0,1,.21.93,3.52,3.52,0,0,1-.06.52,1.32,1.32,0,0,1,0,.16l0,0.15-0.1.33,0,0.05a2.1,2.1,0,0,1,.67.19,1.7,1.7,0,0,1,.57.43,2,2,0,0,1,.44,1.23,1.84,1.84,0,0,1-.7,1.45l-0.08.09q-0.36.31-.76,0.62a10.07,10.07,0,0,1-.85.58,3.87,3.87,0,0,1-2,.6,2.93,2.93,0,0,1-.82-0.12,1.85,1.85,0,0,1-.57-0.23,1.69,1.69,0,0,1-.45-0.4l-0.39.32-0.43.3h0a7.1,7.1,0,0,1-.75.46c-0.24.13-.47,0.23-0.68,0.32a2.73,2.73,0,0,1-.62.17A4,4,0,0,1,182.47,151.61Z" fill="#dbdbdb"/><path d="M191.56,151.61h-0.35l-0.25,0a2.44,2.44,0,0,1-.86-0.44,1.9,1.9,0,0,1-.56-0.73,1.62,1.62,0,0,1-.15-0.44,2.37,2.37,0,0,1,0-.4,2.7,2.7,0,0,1,.05-0.53l-0.33-.22a0.91,0.91,0,0,1-.26-0.26,1.9,1.9,0,0,1-.41-1.16,1.76,1.76,0,0,1,.18-0.78,2.28,2.28,0,0,1,.49-0.66l0.32-.32a6,6,0,0,0,.42-0.48l0.34-.38,0.49-.52,0.49-.5,0.48-.41,0.36-.27a2.43,2.43,0,0,1,1.85-.34,1.78,1.78,0,0,1,1.32,1.11l0,0a2.5,2.5,0,0,1,.11.3,1.8,1.8,0,0,1,.06.3q0.24-.26.43-0.49l0.34-.42,0.24-.27,0.05-.07,0-.05a2.2,2.2,0,0,1,.93-0.66,1.82,1.82,0,0,1,1.09-.06,1.77,1.77,0,0,1,.69.38,2.46,2.46,0,0,1,.52.63,2.06,2.06,0,0,1,.21.93,3.52,3.52,0,0,1-.06.52,1.32,1.32,0,0,1,0,.16l0,0.15-0.1.33,0,0.05a2.1,2.1,0,0,1,.67.19,1.7,1.7,0,0,1,.57.43,2,2,0,0,1,.44,1.23,1.84,1.84,0,0,1-.7,1.45l-0.08.09q-0.36.31-.76,0.62a10.07,10.07,0,0,1-.85.58,3.87,3.87,0,0,1-2,.6,2.93,2.93,0,0,1-.82-0.12,1.85,1.85,0,0,1-.57-0.23A1.69,1.69,0,0,1,195,150l-0.39.32-0.43.3h0a7.1,7.1,0,0,1-.75.46c-0.24.13-.47,0.23-0.68,0.32a2.73,2.73,0,0,1-.62.17A4,4,0,0,1,191.56,151.61Z" fill="#dbdbdb"/><path d="M200.66,151.61h-0.35l-0.25,0a2.44,2.44,0,0,1-.86-0.44,1.9,1.9,0,0,1-.56-0.73,1.62,1.62,0,0,1-.15-0.44,2.37,2.37,0,0,1,0-.4,2.7,2.7,0,0,1,.05-0.53l-0.33-.22a0.91,0.91,0,0,1-.26-0.26,1.9,1.9,0,0,1-.41-1.16,1.76,1.76,0,0,1,.18-0.78,2.28,2.28,0,0,1,.49-0.66l0.32-.32a6,6,0,0,0,.42-0.48l0.34-.38,0.49-.52,0.49-.5,0.48-.41,0.36-.27a2.43,2.43,0,0,1,1.85-.34,1.78,1.78,0,0,1,1.32,1.11l0,0a2.5,2.5,0,0,1,.11.3,1.8,1.8,0,0,1,.06.3q0.24-.26.43-0.49l0.34-.42,0.24-.27,0.05-.07,0-.05a2.2,2.2,0,0,1,.93-0.66,1.82,1.82,0,0,1,1.09-.06,1.77,1.77,0,0,1,.69.38,2.46,2.46,0,0,1,.52.63,2.06,2.06,0,0,1,.21.93,3.52,3.52,0,0,1-.06.52,1.32,1.32,0,0,1,0,.16l0,0.15-0.1.33,0,0.05a2.1,2.1,0,0,1,.67.19,1.7,1.7,0,0,1,.57.43,2,2,0,0,1,.44,1.23,1.84,1.84,0,0,1-.7,1.45l-0.08.09q-0.36.31-.76,0.62a10.07,10.07,0,0,1-.85.58,3.87,3.87,0,0,1-2,.6,2.93,2.93,0,0,1-.82-0.12,1.85,1.85,0,0,1-.57-0.23,1.69,1.69,0,0,1-.45-0.4l-0.39.32-0.43.3h0a7.1,7.1,0,0,1-.75.46c-0.24.13-.47,0.23-0.68,0.32a2.73,2.73,0,0,1-.62.17A4,4,0,0,1,200.66,151.61Z" fill="#dbdbdb"/><path d="M111.51,166.08A1.89,1.89,0,0,1,111,166a1.63,1.63,0,0,1-.73-0.38,1.78,1.78,0,0,1-.46-0.68,2,2,0,0,1,0-1.47,5.42,5.42,0,0,1,.31-0.68l0.08-.15,0.09-.16q-0.39.21-.77,0.44t-0.77.44q-0.7.43-1.34,0.78t-1.19.59a1.52,1.52,0,0,1-.66.15,1.76,1.76,0,0,1-.64-0.12,1.73,1.73,0,0,1-.56-0.35,1.6,1.6,0,0,1-.38-0.56,1.52,1.52,0,0,1-.15-0.66,1.75,1.75,0,0,1,.12-0.64,1.72,1.72,0,0,1,.35-0.56,1.59,1.59,0,0,1,.56-0.38q0.39-.19,1-0.5l1.22-.69,1.58-.91a16,16,0,0,1,1.63-.81,6.87,6.87,0,0,1,1.69-.6,5,5,0,0,1,1-.15,3.09,3.09,0,0,1,.92.1,1.86,1.86,0,0,1,1.28,1.16,1.91,1.91,0,0,1,.08,1.27,6.12,6.12,0,0,1-.47,1.16l0.11,0,0.11,0a1.54,1.54,0,0,1,.66-0.09,1.85,1.85,0,0,1,.63.16,1.68,1.68,0,0,1,.53.38,1.7,1.7,0,0,1,.35.57,1.78,1.78,0,0,1,.1.67,1.71,1.71,0,0,1-.15.63,1.66,1.66,0,0,1-1,.88l-1.47.52-1.18.4q-0.72.21-1.16,0.3A3.9,3.9,0,0,1,111.51,166.08Z" fill="#dbdbdb"/><path d="M116.86,167.37h-0.35l-0.25,0a2.44,2.44,0,0,1-.86-0.44,1.9,1.9,0,0,1-.56-0.73,1.62,1.62,0,0,1-.15-0.44,2.37,2.37,0,0,1,0-.4,2.7,2.7,0,0,1,.05-0.53l-0.33-.22a0.91,0.91,0,0,1-.26-0.26,1.9,1.9,0,0,1-.41-1.16,1.76,1.76,0,0,1,.18-0.78,2.28,2.28,0,0,1,.49-0.66l0.32-.32a6,6,0,0,0,.42-0.48l0.34-.38,0.49-.52,0.49-.5,0.48-.41,0.36-.27a2.43,2.43,0,0,1,1.85-.34,1.78,1.78,0,0,1,1.32,1.11l0,0a2.5,2.5,0,0,1,.11.3,1.8,1.8,0,0,1,.06.3q0.24-.26.43-0.49l0.34-.42,0.24-.27,0.05-.07,0-.05a2.2,2.2,0,0,1,.93-0.66,1.82,1.82,0,0,1,1.09-.06,1.77,1.77,0,0,1,.69.38,2.46,2.46,0,0,1,.52.63,2.06,2.06,0,0,1,.21.93,3.52,3.52,0,0,1-.06.52,1.32,1.32,0,0,1,0,.16l0,0.15-0.1.33,0,0.05a2.1,2.1,0,0,1,.67.19,1.7,1.7,0,0,1,.57.43,2,2,0,0,1,.44,1.23,1.84,1.84,0,0,1-.7,1.45l-0.08.09q-0.36.31-.76,0.62a10.07,10.07,0,0,1-.85.58,3.87,3.87,0,0,1-2,.6,2.93,2.93,0,0,1-.82-0.12,1.85,1.85,0,0,1-.57-0.23,1.69,1.69,0,0,1-.45-0.4l-0.39.32-0.43.3h0a7.1,7.1,0,0,1-.75.46c-0.24.13-.47,0.23-0.68,0.32a2.73,2.73,0,0,1-.62.17A4,4,0,0,1,116.86,167.37Z" fill="#dbdbdb"/><path d="M126,167.37H125.6l-0.25,0a2.44,2.44,0,0,1-.86-0.44,1.9,1.9,0,0,1-.56-0.73,1.62,1.62,0,0,1-.15-0.44,2.37,2.37,0,0,1,0-.4,2.7,2.7,0,0,1,.05-0.53l-0.33-.22a0.91,0.91,0,0,1-.26-0.26,1.9,1.9,0,0,1-.41-1.16,1.76,1.76,0,0,1,.18-0.78,2.28,2.28,0,0,1,.49-0.66l0.32-.32a6,6,0,0,0,.42-0.48l0.34-.38L125,160l0.49-.5,0.48-.41,0.36-.27a2.43,2.43,0,0,1,1.85-.34,1.78,1.78,0,0,1,1.32,1.11l0,0a2.5,2.5,0,0,1,.11.3,1.8,1.8,0,0,1,.06.3q0.24-.26.43-0.49l0.34-.42,0.24-.27,0.05-.07,0-.05a2.2,2.2,0,0,1,.93-0.66,1.82,1.82,0,0,1,1.09-.06,1.77,1.77,0,0,1,.69.38,2.46,2.46,0,0,1,.52.63,2.06,2.06,0,0,1,.21.93,3.52,3.52,0,0,1-.06.52,1.32,1.32,0,0,1,0,.16l0,0.15-0.1.33,0,0.05a2.1,2.1,0,0,1,.67.19,1.7,1.7,0,0,1,.57.43,2,2,0,0,1,.44,1.23,1.84,1.84,0,0,1-.7,1.45l-0.08.09q-0.36.31-.76,0.62a10.07,10.07,0,0,1-.85.58,3.87,3.87,0,0,1-2,.6,2.93,2.93,0,0,1-.82-0.12,1.85,1.85,0,0,1-.57-0.23,1.69,1.69,0,0,1-.45-0.4l-0.39.32-0.43.3h0a7.1,7.1,0,0,1-.75.46c-0.24.13-.47,0.23-0.68,0.32a2.73,2.73,0,0,1-.62.17A4,4,0,0,1,126,167.37Z" fill="#dbdbdb"/><path d="M135,167.37H134.7l-0.25,0a2.44,2.44,0,0,1-.86-0.44,1.9,1.9,0,0,1-.56-0.73,1.62,1.62,0,0,1-.15-0.44,2.37,2.37,0,0,1,0-.4,2.7,2.7,0,0,1,.05-0.53l-0.33-.22a0.91,0.91,0,0,1-.26-0.26,1.9,1.9,0,0,1-.41-1.16,1.76,1.76,0,0,1,.18-0.78,2.28,2.28,0,0,1,.49-0.66l0.32-.32a6,6,0,0,0,.42-0.48l0.34-.38,0.49-.52,0.49-.5,0.48-.41,0.36-.27a2.43,2.43,0,0,1,1.85-.34,1.78,1.78,0,0,1,1.32,1.11l0,0a2.5,2.5,0,0,1,.11.3,1.8,1.8,0,0,1,.06.3q0.24-.26.43-0.49l0.34-.42,0.24-.27,0.05-.07,0-.05a2.2,2.2,0,0,1,.93-0.66,1.82,1.82,0,0,1,1.09-.06,1.77,1.77,0,0,1,.69.38,2.46,2.46,0,0,1,.52.63,2.06,2.06,0,0,1,.21.93,3.52,3.52,0,0,1-.06.52,1.32,1.32,0,0,1,0,.16l0,0.15-0.1.33,0,0.05a2.1,2.1,0,0,1,.67.19,1.7,1.7,0,0,1,.57.43,2,2,0,0,1,.44,1.23,1.84,1.84,0,0,1-.7,1.45l-0.08.09q-0.36.31-.76,0.62a10.07,10.07,0,0,1-.85.58,3.87,3.87,0,0,1-2,.6,2.93,2.93,0,0,1-.82-0.12,1.85,1.85,0,0,1-.57-0.23,1.69,1.69,0,0,1-.45-0.4l-0.39.32-0.43.3h0a7.1,7.1,0,0,1-.75.46c-0.24.13-.47,0.23-0.68,0.32a2.73,2.73,0,0,1-.62.17A4,4,0,0,1,135,167.37Z" fill="#dbdbdb"/><path d="M148.86,166.08a1.89,1.89,0,0,1-.53-0.09,1.63,1.63,0,0,1-.73-0.38,1.78,1.78,0,0,1-.46-0.68,2,2,0,0,1,0-1.47,5.42,5.42,0,0,1,.31-0.68l0.08-.15,0.09-.16q-0.39.21-.77,0.44t-0.77.44q-0.7.43-1.34,0.78t-1.19.59a1.52,1.52,0,0,1-.66.15,1.76,1.76,0,0,1-.64-0.12,1.73,1.73,0,0,1-.56-0.35,1.6,1.6,0,0,1-.38-0.56,1.52,1.52,0,0,1-.15-0.66,1.75,1.75,0,0,1,.12-0.64,1.72,1.72,0,0,1,.35-0.56,1.59,1.59,0,0,1,.56-0.38q0.39-.19,1-0.5l1.22-.69,1.58-.91a16,16,0,0,1,1.63-.81,6.87,6.87,0,0,1,1.69-.6,5,5,0,0,1,1-.15,3.09,3.09,0,0,1,.92.1,1.86,1.86,0,0,1,1.28,1.16,1.91,1.91,0,0,1,.08,1.27,6.12,6.12,0,0,1-.47,1.16l0.11,0,0.11,0a1.54,1.54,0,0,1,.66-0.09,1.85,1.85,0,0,1,.63.16,1.68,1.68,0,0,1,.53.38,1.7,1.7,0,0,1,.35.57,1.78,1.78,0,0,1,.1.67,1.71,1.71,0,0,1-.15.63,1.66,1.66,0,0,1-1,.88l-1.47.52-1.18.4q-0.72.21-1.16,0.3A3.9,3.9,0,0,1,148.86,166.08Z" fill="#dbdbdb"/><path d="M154.21,167.37h-0.35l-0.25,0a2.44,2.44,0,0,1-.86-0.44,1.9,1.9,0,0,1-.56-0.73,1.62,1.62,0,0,1-.15-0.44,2.37,2.37,0,0,1,0-.4,2.7,2.7,0,0,1,.05-0.53l-0.33-.22a0.91,0.91,0,0,1-.26-0.26,1.9,1.9,0,0,1-.41-1.16,1.76,1.76,0,0,1,.18-0.78,2.28,2.28,0,0,1,.49-0.66l0.32-.32a6,6,0,0,0,.42-0.48l0.34-.38,0.49-.52,0.49-.5,0.48-.41,0.36-.27a2.43,2.43,0,0,1,1.85-.34,1.78,1.78,0,0,1,1.32,1.11l0,0a2.5,2.5,0,0,1,.11.3,1.8,1.8,0,0,1,.06.3q0.24-.26.43-0.49l0.34-.42,0.24-.27,0.05-.07,0-.05a2.2,2.2,0,0,1,.93-0.66,1.82,1.82,0,0,1,1.09-.06,1.77,1.77,0,0,1,.69.38,2.46,2.46,0,0,1,.52.63,2.06,2.06,0,0,1,.21.93,3.52,3.52,0,0,1-.06.52,1.32,1.32,0,0,1,0,.16l0,0.15-0.1.33,0,0.05a2.1,2.1,0,0,1,.67.19,1.7,1.7,0,0,1,.57.43,2,2,0,0,1,.44,1.23,1.84,1.84,0,0,1-.7,1.45l-0.08.09q-0.36.31-.76,0.62a10.07,10.07,0,0,1-.85.58,3.87,3.87,0,0,1-2,.6,2.93,2.93,0,0,1-.82-0.12,1.85,1.85,0,0,1-.57-0.23,1.69,1.69,0,0,1-.45-0.4l-0.39.32-0.43.3h0a7.1,7.1,0,0,1-.75.46c-0.24.13-.47,0.23-0.68,0.32a2.73,2.73,0,0,1-.62.17A4,4,0,0,1,154.21,167.37Z" fill="#dbdbdb"/><path d="M163.31,167.37H163l-0.25,0a2.44,2.44,0,0,1-.86-0.44,1.9,1.9,0,0,1-.56-0.73,1.62,1.62,0,0,1-.15-0.44,2.37,2.37,0,0,1,0-.4,2.7,2.7,0,0,1,.05-0.53l-0.33-.22a0.91,0.91,0,0,1-.26-0.26,1.9,1.9,0,0,1-.41-1.16,1.76,1.76,0,0,1,.18-0.78,2.28,2.28,0,0,1,.49-0.66l0.32-.32a6,6,0,0,0,.42-0.48l0.34-.38,0.49-.52,0.49-.5,0.48-.41,0.36-.27a2.43,2.43,0,0,1,1.85-.34,1.78,1.78,0,0,1,1.32,1.11l0,0a2.5,2.5,0,0,1,.11.3,1.8,1.8,0,0,1,.06.3q0.24-.26.43-0.49l0.34-.42L168,159l0.05-.07,0-.05a2.2,2.2,0,0,1,.93-0.66,1.82,1.82,0,0,1,1.09-.06,1.77,1.77,0,0,1,.69.38,2.46,2.46,0,0,1,.52.63,2.06,2.06,0,0,1,.21.93,3.52,3.52,0,0,1-.06.52,1.32,1.32,0,0,1,0,.16l0,0.15-0.1.33,0,0.05a2.1,2.1,0,0,1,.67.19,1.7,1.7,0,0,1,.57.43,2,2,0,0,1,.44,1.23,1.84,1.84,0,0,1-.7,1.45l-0.08.09q-0.36.31-.76,0.62a10.07,10.07,0,0,1-.85.58,3.87,3.87,0,0,1-2,.6,2.93,2.93,0,0,1-.82-0.12,1.85,1.85,0,0,1-.57-0.23,1.69,1.69,0,0,1-.45-0.4l-0.39.32-0.43.3h0a7.1,7.1,0,0,1-.75.46c-0.24.13-.47,0.23-0.68,0.32a2.73,2.73,0,0,1-.62.17A4,4,0,0,1,163.31,167.37Z" fill="#dbdbdb"/><path d="M177.12,166.08a1.89,1.89,0,0,1-.53-0.09,1.63,1.63,0,0,1-.73-0.38,1.78,1.78,0,0,1-.46-0.68,2,2,0,0,1,0-1.47,5.42,5.42,0,0,1,.31-0.68l0.08-.15,0.09-.16q-0.39.21-.77,0.44t-0.77.44q-0.7.43-1.34,0.78t-1.19.59a1.52,1.52,0,0,1-.66.15,1.76,1.76,0,0,1-.64-0.12,1.73,1.73,0,0,1-.56-0.35,1.6,1.6,0,0,1-.38-0.56,1.52,1.52,0,0,1-.15-0.66,1.75,1.75,0,0,1,.12-0.64,1.72,1.72,0,0,1,.35-0.56,1.59,1.59,0,0,1,.56-0.38q0.39-.19,1-0.5l1.22-.69,1.58-.91a16,16,0,0,1,1.63-.81,6.87,6.87,0,0,1,1.69-.6,5,5,0,0,1,1-.15,3.09,3.09,0,0,1,.92.1,1.86,1.86,0,0,1,1.28,1.16,1.91,1.91,0,0,1,.08,1.27,6.12,6.12,0,0,1-.47,1.16l0.11,0,0.11,0a1.54,1.54,0,0,1,.66-0.09,1.85,1.85,0,0,1,.63.16,1.68,1.68,0,0,1,.53.38,1.7,1.7,0,0,1,.35.57,1.78,1.78,0,0,1,.1.67,1.71,1.71,0,0,1-.15.63,1.66,1.66,0,0,1-1,.88l-1.47.52-1.18.4q-0.72.21-1.16,0.3A3.9,3.9,0,0,1,177.12,166.08Z" fill="#dbdbdb"/><path d="M182.47,167.37h-0.35l-0.25,0a2.44,2.44,0,0,1-.86-0.44,1.9,1.9,0,0,1-.56-0.73,1.62,1.62,0,0,1-.15-0.44,2.37,2.37,0,0,1,0-.4,2.7,2.7,0,0,1,.05-0.53l-0.33-.22a0.91,0.91,0,0,1-.26-0.26,1.9,1.9,0,0,1-.41-1.16,1.76,1.76,0,0,1,.18-0.78,2.28,2.28,0,0,1,.49-0.66l0.32-.32a6,6,0,0,0,.42-0.48l0.34-.38,0.49-.52,0.49-.5,0.48-.41,0.36-.27a2.43,2.43,0,0,1,1.85-.34A1.78,1.78,0,0,1,186,159.6l0,0a2.5,2.5,0,0,1,.11.3,1.8,1.8,0,0,1,.06.3q0.24-.26.43-0.49l0.34-.42,0.24-.27,0.05-.07,0-.05a2.2,2.2,0,0,1,.93-0.66,1.82,1.82,0,0,1,1.09-.06,1.77,1.77,0,0,1,.69.38,2.46,2.46,0,0,1,.52.63,2.06,2.06,0,0,1,.21.93,3.52,3.52,0,0,1-.06.52,1.32,1.32,0,0,1,0,.16l0,0.15-0.1.33,0,0.05a2.1,2.1,0,0,1,.67.19,1.7,1.7,0,0,1,.57.43,2,2,0,0,1,.44,1.23,1.84,1.84,0,0,1-.7,1.45l-0.08.09q-0.36.31-.76,0.62a10.07,10.07,0,0,1-.85.58,3.87,3.87,0,0,1-2,.6,2.93,2.93,0,0,1-.82-0.12,1.85,1.85,0,0,1-.57-0.23,1.69,1.69,0,0,1-.45-0.4l-0.39.32-0.43.3h0a7.1,7.1,0,0,1-.75.46c-0.24.13-.47,0.23-0.68,0.32a2.73,2.73,0,0,1-.62.17A4,4,0,0,1,182.47,167.37Z" fill="#dbdbdb"/><path d="M111.51,181.84a1.89,1.89,0,0,1-.53-0.09,1.63,1.63,0,0,1-.73-0.38,1.78,1.78,0,0,1-.46-0.68,2,2,0,0,1,0-1.47,5.42,5.42,0,0,1,.31-0.68l0.08-.15,0.09-.16q-0.39.21-.77,0.44t-0.77.44q-0.7.43-1.34,0.78t-1.19.59a1.52,1.52,0,0,1-.66.15,1.76,1.76,0,0,1-.64-0.12,1.73,1.73,0,0,1-.56-0.35,1.6,1.6,0,0,1-.38-0.56,1.52,1.52,0,0,1-.15-0.66,1.75,1.75,0,0,1,.12-0.64,1.72,1.72,0,0,1,.35-0.56,1.59,1.59,0,0,1,.56-0.38q0.39-.19,1-0.5l1.22-.69,1.58-.91a16,16,0,0,1,1.63-.81,6.87,6.87,0,0,1,1.69-.6,5,5,0,0,1,1-.15,3.09,3.09,0,0,1,.92.1,1.86,1.86,0,0,1,1.28,1.16,1.91,1.91,0,0,1,.08,1.27,6.12,6.12,0,0,1-.47,1.16l0.11,0,0.11,0a1.54,1.54,0,0,1,.66-0.09,1.85,1.85,0,0,1,.63.16,1.68,1.68,0,0,1,.53.38,1.7,1.7,0,0,1,.35.57,1.78,1.78,0,0,1,.1.67,1.71,1.71,0,0,1-.15.63,1.66,1.66,0,0,1-1,.88l-1.47.52-1.18.4q-0.72.21-1.16,0.3A3.9,3.9,0,0,1,111.51,181.84Z" fill="#dbdbdb"/><path d="M116.86,183.12h-0.35l-0.25,0a2.44,2.44,0,0,1-.86-0.44,1.9,1.9,0,0,1-.56-0.73,1.62,1.62,0,0,1-.15-0.44,2.37,2.37,0,0,1,0-.4,2.7,2.7,0,0,1,.05-0.53l-0.33-.22a0.91,0.91,0,0,1-.26-0.26,1.9,1.9,0,0,1-.41-1.16,1.76,1.76,0,0,1,.18-0.78,2.28,2.28,0,0,1,.49-0.66l0.32-.32a6,6,0,0,0,.42-0.48l0.34-.38,0.49-.52,0.49-.5,0.48-.41,0.36-.27a2.43,2.43,0,0,1,1.85-.34,1.78,1.78,0,0,1,1.32,1.11l0,0a2.5,2.5,0,0,1,.11.3,1.8,1.8,0,0,1,.06.3q0.24-.26.43-0.49l0.34-.42,0.24-.27,0.05-.07,0-.05a2.2,2.2,0,0,1,.93-0.66,1.82,1.82,0,0,1,1.09-.06,1.77,1.77,0,0,1,.69.38,2.46,2.46,0,0,1,.52.63,2.06,2.06,0,0,1,.21.93,3.52,3.52,0,0,1-.06.52,1.32,1.32,0,0,1,0,.16l0,0.15-0.1.33,0,0.05a2.1,2.1,0,0,1,.67.19,1.7,1.7,0,0,1,.57.43,2,2,0,0,1,.44,1.23,1.84,1.84,0,0,1-.7,1.45l-0.08.09q-0.36.31-.76,0.62a10.07,10.07,0,0,1-.85.58,3.87,3.87,0,0,1-2,.6,2.93,2.93,0,0,1-.82-0.12,1.85,1.85,0,0,1-.57-0.23,1.69,1.69,0,0,1-.45-0.4l-0.39.32-0.43.3h0a7.1,7.1,0,0,1-.75.46c-0.24.13-.47,0.23-0.68,0.32a2.73,2.73,0,0,1-.62.17A4,4,0,0,1,116.86,183.12Z" fill="#dbdbdb"/><path d="M126,183.12H125.6l-0.25,0a2.44,2.44,0,0,1-.86-0.44,1.9,1.9,0,0,1-.56-0.73,1.62,1.62,0,0,1-.15-0.44,2.37,2.37,0,0,1,0-.4,2.7,2.7,0,0,1,.05-0.53l-0.33-.22a0.91,0.91,0,0,1-.26-0.26,1.9,1.9,0,0,1-.41-1.16,1.76,1.76,0,0,1,.18-0.78,2.28,2.28,0,0,1,.49-0.66l0.32-.32a6,6,0,0,0,.42-0.48l0.34-.38,0.49-.52,0.49-.5,0.48-.41,0.36-.27a2.43,2.43,0,0,1,1.85-.34,1.78,1.78,0,0,1,1.32,1.11l0,0a2.5,2.5,0,0,1,.11.3,1.8,1.8,0,0,1,.06.3q0.24-.26.43-0.49l0.34-.42,0.24-.27,0.05-.07,0-.05a2.2,2.2,0,0,1,.93-0.66,1.82,1.82,0,0,1,1.09-.06,1.77,1.77,0,0,1,.69.38,2.46,2.46,0,0,1,.52.63,2.06,2.06,0,0,1,.21.93,3.52,3.52,0,0,1-.06.52,1.32,1.32,0,0,1,0,.16l0,0.15L134,177l0,0.05a2.1,2.1,0,0,1,.67.19,1.7,1.7,0,0,1,.57.43,2,2,0,0,1,.44,1.23,1.84,1.84,0,0,1-.7,1.45l-0.08.09q-0.36.31-.76,0.62a10.07,10.07,0,0,1-.85.58,3.87,3.87,0,0,1-2,.6,2.93,2.93,0,0,1-.82-0.12,1.85,1.85,0,0,1-.57-0.23,1.69,1.69,0,0,1-.45-0.4l-0.39.32-0.43.3h0a7.1,7.1,0,0,1-.75.46c-0.24.13-.47,0.23-0.68,0.32a2.73,2.73,0,0,1-.62.17A4,4,0,0,1,126,183.12Z" fill="#dbdbdb"/><path d="M139.77,181.84a1.89,1.89,0,0,1-.53-0.09,1.63,1.63,0,0,1-.73-0.38,1.78,1.78,0,0,1-.46-0.68,2,2,0,0,1,0-1.47,5.42,5.42,0,0,1,.31-0.68l0.08-.15,0.09-.16q-0.39.21-.77,0.44t-0.77.44q-0.7.43-1.34,0.78t-1.19.59a1.52,1.52,0,0,1-.66.15,1.76,1.76,0,0,1-.64-0.12,1.73,1.73,0,0,1-.56-0.35,1.6,1.6,0,0,1-.38-0.56,1.52,1.52,0,0,1-.15-0.66,1.75,1.75,0,0,1,.12-0.64,1.72,1.72,0,0,1,.35-0.56,1.59,1.59,0,0,1,.56-0.38q0.39-.19,1-0.5l1.22-.69,1.58-.91a16,16,0,0,1,1.63-.81,6.87,6.87,0,0,1,1.69-.6,5,5,0,0,1,1-.15,3.09,3.09,0,0,1,.92.1,1.86,1.86,0,0,1,1.28,1.16,1.91,1.91,0,0,1,.08,1.27,6.12,6.12,0,0,1-.47,1.16l0.11,0,0.11,0a1.54,1.54,0,0,1,.66-0.09,1.85,1.85,0,0,1,.63.16,1.68,1.68,0,0,1,.53.38,1.7,1.7,0,0,1,.35.57,1.78,1.78,0,0,1,.1.67,1.71,1.71,0,0,1-.15.63,1.66,1.66,0,0,1-1,.88l-1.47.52-1.18.4q-0.72.21-1.16,0.3A3.9,3.9,0,0,1,139.77,181.84Z" fill="#dbdbdb"/><path d="M145.12,183.12h-0.35l-0.25,0a2.44,2.44,0,0,1-.86-0.44,1.9,1.9,0,0,1-.56-0.73,1.62,1.62,0,0,1-.15-0.44,2.37,2.37,0,0,1,0-.4,2.7,2.7,0,0,1,.05-0.53l-0.33-.22a0.91,0.91,0,0,1-.26-0.26,1.9,1.9,0,0,1-.41-1.16,1.76,1.76,0,0,1,.18-0.78,2.28,2.28,0,0,1,.49-0.66l0.32-.32a6,6,0,0,0,.42-0.48l0.34-.38,0.49-.52,0.49-.5,0.48-.41,0.36-.27a2.43,2.43,0,0,1,1.85-.34,1.78,1.78,0,0,1,1.32,1.11l0,0a2.5,2.5,0,0,1,.11.3,1.8,1.8,0,0,1,.06.3q0.24-.26.43-0.49l0.34-.42,0.24-.27,0.05-.07,0-.05a2.2,2.2,0,0,1,.93-0.66,1.82,1.82,0,0,1,1.09-.06,1.77,1.77,0,0,1,.69.38,2.46,2.46,0,0,1,.52.63,2.06,2.06,0,0,1,.21.93,3.52,3.52,0,0,1-.06.52,1.32,1.32,0,0,1,0,.16l0,0.15-0.1.33,0,0.05a2.1,2.1,0,0,1,.67.19,1.7,1.7,0,0,1,.57.43,2,2,0,0,1,.44,1.23,1.84,1.84,0,0,1-.7,1.45l-0.08.09q-0.36.31-.76,0.62a10.07,10.07,0,0,1-.85.58,3.87,3.87,0,0,1-2,.6,2.93,2.93,0,0,1-.82-0.12,1.85,1.85,0,0,1-.57-0.23,1.69,1.69,0,0,1-.45-0.4l-0.39.32-0.43.3h0a7.1,7.1,0,0,1-.75.46c-0.24.13-.47,0.23-0.68,0.32a2.73,2.73,0,0,1-.62.17A4,4,0,0,1,145.12,183.12Z" fill="#dbdbdb"/><path d="M154.21,183.12h-0.35l-0.25,0a2.44,2.44,0,0,1-.86-0.44,1.9,1.9,0,0,1-.56-0.73,1.62,1.62,0,0,1-.15-0.44,2.37,2.37,0,0,1,0-.4,2.7,2.7,0,0,1,.05-0.53l-0.33-.22a0.91,0.91,0,0,1-.26-0.26,1.9,1.9,0,0,1-.41-1.16,1.76,1.76,0,0,1,.18-0.78,2.28,2.28,0,0,1,.49-0.66l0.32-.32a6,6,0,0,0,.42-0.48l0.34-.38,0.49-.52,0.49-.5,0.48-.41,0.36-.27a2.43,2.43,0,0,1,1.85-.34,1.78,1.78,0,0,1,1.32,1.11l0,0a2.5,2.5,0,0,1,.11.3,1.8,1.8,0,0,1,.06.3q0.24-.26.43-0.49l0.34-.42,0.24-.27,0.05-.07,0-.05A2.2,2.2,0,0,1,160,174a1.82,1.82,0,0,1,1.09-.06,1.77,1.77,0,0,1,.69.38,2.46,2.46,0,0,1,.52.63,2.06,2.06,0,0,1,.21.93,3.52,3.52,0,0,1-.06.52,1.32,1.32,0,0,1,0,.16l0,0.15-0.1.33,0,0.05a2.1,2.1,0,0,1,.67.19,1.7,1.7,0,0,1,.57.43,2,2,0,0,1,.44,1.23,1.84,1.84,0,0,1-.7,1.45l-0.08.09q-0.36.31-.76,0.62a10.07,10.07,0,0,1-.85.58,3.87,3.87,0,0,1-2,.6,2.93,2.93,0,0,1-.82-0.12,1.85,1.85,0,0,1-.57-0.23,1.69,1.69,0,0,1-.45-0.4l-0.39.32-0.43.3h0a7.1,7.1,0,0,1-.75.46c-0.24.13-.47,0.23-0.68,0.32a2.73,2.73,0,0,1-.62.17A4,4,0,0,1,154.21,183.12Z" fill="#dbdbdb"/><path d="M168,181.84a1.89,1.89,0,0,1-.53-0.09,1.63,1.63,0,0,1-.73-0.38,1.78,1.78,0,0,1-.46-0.68,2,2,0,0,1,0-1.47,5.42,5.42,0,0,1,.31-0.68l0.08-.15,0.09-.16q-0.39.21-.77,0.44t-0.77.44q-0.7.43-1.34,0.78t-1.19.59a1.52,1.52,0,0,1-.66.15,1.76,1.76,0,0,1-.64-0.12,1.73,1.73,0,0,1-.56-0.35,1.6,1.6,0,0,1-.38-0.56,1.52,1.52,0,0,1-.15-0.66,1.75,1.75,0,0,1,.12-0.64,1.72,1.72,0,0,1,.35-0.56,1.59,1.59,0,0,1,.56-0.38q0.39-.19,1-0.5l1.22-.69,1.58-.91a16,16,0,0,1,1.63-.81,6.87,6.87,0,0,1,1.69-.6,5,5,0,0,1,1-.15,3.09,3.09,0,0,1,.92.1,1.86,1.86,0,0,1,1.28,1.16,1.91,1.91,0,0,1,.08,1.27,6.12,6.12,0,0,1-.47,1.16l0.11,0,0.11,0a1.54,1.54,0,0,1,.66-0.09,1.85,1.85,0,0,1,.63.16,1.68,1.68,0,0,1,.53.38,1.7,1.7,0,0,1,.35.57,1.78,1.78,0,0,1,.1.67,1.71,1.71,0,0,1-.15.63,1.66,1.66,0,0,1-1,.88l-1.47.52-1.18.4q-0.72.21-1.16,0.3A3.9,3.9,0,0,1,168,181.84Z" fill="#dbdbdb"/><path d="M173.38,183.12H173l-0.25,0a2.44,2.44,0,0,1-.86-0.44,1.9,1.9,0,0,1-.56-0.73,1.62,1.62,0,0,1-.15-0.44,2.37,2.37,0,0,1,0-.4,2.7,2.7,0,0,1,.05-0.53l-0.33-.22a0.91,0.91,0,0,1-.26-0.26,1.9,1.9,0,0,1-.41-1.16,1.76,1.76,0,0,1,.18-0.78,2.28,2.28,0,0,1,.49-0.66l0.32-.32a6,6,0,0,0,.42-0.48l0.34-.38,0.49-.52,0.49-.5,0.48-.41,0.36-.27a2.43,2.43,0,0,1,1.85-.34,1.78,1.78,0,0,1,1.32,1.11l0,0a2.5,2.5,0,0,1,.11.3,1.8,1.8,0,0,1,.06.3q0.24-.26.43-0.49l0.34-.42,0.24-.27,0.05-.07,0-.05a2.2,2.2,0,0,1,.93-0.66,1.82,1.82,0,0,1,1.09-.06,1.77,1.77,0,0,1,.69.38,2.46,2.46,0,0,1,.52.63,2.06,2.06,0,0,1,.21.93,3.52,3.52,0,0,1-.06.52,1.32,1.32,0,0,1,0,.16l0,0.15-0.1.33,0,0.05a2.1,2.1,0,0,1,.67.19,1.7,1.7,0,0,1,.57.43,2,2,0,0,1,.44,1.23,1.84,1.84,0,0,1-.7,1.45l-0.08.09q-0.36.31-.76,0.62a10.07,10.07,0,0,1-.85.58,3.87,3.87,0,0,1-2,.6,2.93,2.93,0,0,1-.82-0.12,1.85,1.85,0,0,1-.57-0.23,1.69,1.69,0,0,1-.45-0.4l-0.39.32-0.43.3h0a7.1,7.1,0,0,1-.75.46c-0.24.13-.47,0.23-0.68,0.32a2.73,2.73,0,0,1-.62.17A4,4,0,0,1,173.38,183.12Z" fill="#dbdbdb"/><path d="M106.79,198.88h-0.35l-0.25,0a2.44,2.44,0,0,1-.86-0.44,1.9,1.9,0,0,1-.56-0.73,1.62,1.62,0,0,1-.15-0.44,2.37,2.37,0,0,1,0-.4,2.7,2.7,0,0,1,.05-0.53l-0.33-.22a0.91,0.91,0,0,1-.26-0.26,1.9,1.9,0,0,1-.41-1.16,1.76,1.76,0,0,1,.18-0.78,2.28,2.28,0,0,1,.49-0.66l0.32-.32a6,6,0,0,0,.42-0.48l0.34-.38,0.49-.52,0.49-.5,0.48-.41,0.36-.27A2.43,2.43,0,0,1,109,190a1.78,1.78,0,0,1,1.32,1.11l0,0a2.5,2.5,0,0,1,.11.3,1.8,1.8,0,0,1,.06.3q0.24-.26.43-0.49l0.34-.42,0.24-.27,0.05-.07,0-.05a2.2,2.2,0,0,1,.93-0.66,1.82,1.82,0,0,1,1.09-.06,1.77,1.77,0,0,1,.69.38,2.46,2.46,0,0,1,.52.63,2.06,2.06,0,0,1,.21.93,3.52,3.52,0,0,1-.06.52,1.32,1.32,0,0,1,0,.16l0,0.15-0.1.33,0,0.05a2.1,2.1,0,0,1,.67.19,1.7,1.7,0,0,1,.57.43,2,2,0,0,1,.44,1.23,1.84,1.84,0,0,1-.7,1.45l-0.08.09q-0.36.31-.76,0.62a10.07,10.07,0,0,1-.85.58,3.87,3.87,0,0,1-2,.6,2.93,2.93,0,0,1-.82-0.12,1.85,1.85,0,0,1-.57-0.23,1.69,1.69,0,0,1-.45-0.4l-0.39.32-0.43.3h0a7.1,7.1,0,0,1-.75.46c-0.24.13-.47,0.23-0.68,0.32a2.73,2.73,0,0,1-.62.17A4,4,0,0,1,106.79,198.88Z" fill="#dbdbdb"/><path d="M120.6,197.6a1.89,1.89,0,0,1-.53-0.09,1.63,1.63,0,0,1-.73-0.38,1.78,1.78,0,0,1-.46-0.68,2,2,0,0,1,0-1.47,5.42,5.42,0,0,1,.31-0.68l0.08-.15,0.09-.16q-0.39.21-.77,0.44t-0.77.44q-0.7.43-1.34,0.78t-1.19.59a1.52,1.52,0,0,1-.66.15,1.76,1.76,0,0,1-.64-0.12,1.73,1.73,0,0,1-.56-0.35,1.6,1.6,0,0,1-.38-0.56,1.52,1.52,0,0,1-.15-0.66,1.75,1.75,0,0,1,.12-0.64,1.72,1.72,0,0,1,.35-0.56,1.59,1.59,0,0,1,.56-0.38q0.39-.19,1-0.5l1.22-.69,1.58-.91a16,16,0,0,1,1.63-.81,6.87,6.87,0,0,1,1.69-.6,5,5,0,0,1,1-.15,3.09,3.09,0,0,1,.92.1,1.86,1.86,0,0,1,1.28,1.16,1.91,1.91,0,0,1,.08,1.27,6.12,6.12,0,0,1-.47,1.16l0.11,0,0.11,0a1.54,1.54,0,0,1,.66-0.09,1.85,1.85,0,0,1,.63.16,1.68,1.68,0,0,1,.53.38,1.7,1.7,0,0,1,.35.57,1.78,1.78,0,0,1,.1.67,1.71,1.71,0,0,1-.15.63,1.66,1.66,0,0,1-1,.88l-1.47.52-1.18.4q-0.72.21-1.16,0.3A3.9,3.9,0,0,1,120.6,197.6Z" fill="#dbdbdb"/><path d="M126,198.88H125.6l-0.25,0a2.44,2.44,0,0,1-.86-0.44,1.9,1.9,0,0,1-.56-0.73,1.62,1.62,0,0,1-.15-0.44,2.37,2.37,0,0,1,0-.4,2.7,2.7,0,0,1,.05-0.53l-0.33-.22a0.91,0.91,0,0,1-.26-0.26,1.9,1.9,0,0,1-.41-1.16,1.76,1.76,0,0,1,.18-0.78,2.28,2.28,0,0,1,.49-0.66l0.32-.32a6,6,0,0,0,.42-0.48l0.34-.38,0.49-.52,0.49-.5,0.48-.41,0.36-.27a2.43,2.43,0,0,1,1.85-.34,1.78,1.78,0,0,1,1.32,1.11l0,0a2.5,2.5,0,0,1,.11.3,1.8,1.8,0,0,1,.06.3q0.24-.26.43-0.49l0.34-.42,0.24-.27,0.05-.07,0-.05a2.2,2.2,0,0,1,.93-0.66,1.82,1.82,0,0,1,1.09-.06,1.77,1.77,0,0,1,.69.38,2.46,2.46,0,0,1,.52.63,2.06,2.06,0,0,1,.21.93,3.52,3.52,0,0,1-.06.52,1.32,1.32,0,0,1,0,.16l0,0.15-0.1.33,0,0.05a2.1,2.1,0,0,1,.67.19,1.7,1.7,0,0,1,.57.43,2,2,0,0,1,.44,1.23,1.84,1.84,0,0,1-.7,1.45l-0.08.09q-0.36.31-.76,0.62a10.07,10.07,0,0,1-.85.58,3.87,3.87,0,0,1-2,.6,2.93,2.93,0,0,1-.82-0.12,1.85,1.85,0,0,1-.57-0.23,1.69,1.69,0,0,1-.45-0.4l-0.39.32-0.43.3h0a7.1,7.1,0,0,1-.75.46c-0.24.13-.47,0.23-0.68,0.32a2.73,2.73,0,0,1-.62.17A4,4,0,0,1,126,198.88Z" fill="#dbdbdb"/><path d="M135,198.88H134.7l-0.25,0a2.44,2.44,0,0,1-.86-0.44,1.9,1.9,0,0,1-.56-0.73,1.62,1.62,0,0,1-.15-0.44,2.37,2.37,0,0,1,0-.4,2.7,2.7,0,0,1,.05-0.53l-0.33-.22a0.91,0.91,0,0,1-.26-0.26,1.9,1.9,0,0,1-.41-1.16,1.76,1.76,0,0,1,.18-0.78,2.28,2.28,0,0,1,.49-0.66l0.32-.32a6,6,0,0,0,.42-0.48l0.34-.38,0.49-.52,0.49-.5,0.48-.41,0.36-.27a2.43,2.43,0,0,1,1.85-.34,1.78,1.78,0,0,1,1.32,1.11l0,0a2.5,2.5,0,0,1,.11.3,1.8,1.8,0,0,1,.06.3q0.24-.26.43-0.49l0.34-.42,0.24-.27,0.05-.07,0-.05a2.2,2.2,0,0,1,.93-0.66,1.82,1.82,0,0,1,1.09-.06,1.77,1.77,0,0,1,.69.38,2.46,2.46,0,0,1,.52.63,2.06,2.06,0,0,1,.21.93,3.52,3.52,0,0,1-.06.52,1.32,1.32,0,0,1,0,.16l0,0.15-0.1.33,0,0.05a2.1,2.1,0,0,1,.67.19,1.7,1.7,0,0,1,.57.43,2,2,0,0,1,.44,1.23,1.84,1.84,0,0,1-.7,1.45l-0.08.09q-0.36.31-.76,0.62a10.07,10.07,0,0,1-.85.58,3.87,3.87,0,0,1-2,.6,2.93,2.93,0,0,1-.82-0.12,1.85,1.85,0,0,1-.57-0.23,1.69,1.69,0,0,1-.45-0.4l-0.39.32-0.43.3h0a7.1,7.1,0,0,1-.75.46c-0.24.13-.47,0.23-0.68,0.32a2.73,2.73,0,0,1-.62.17A4,4,0,0,1,135,198.88Z" fill="#dbdbdb"/></g><line id="7ac6507f-4efd-4760-90c7-d63d44abcbe1" data-name="&lt;Path&gt;" x1="308.86" y1="285.27" x2="336.19" y2="232.42" fill="none" stroke="#474747" stroke-linecap="round" stroke-miterlimit="10" stroke-width="3"/><g id="1ab82970-e1b7-47b3-a91f-c0afdb08194a" data-name="&lt;Group&gt;"><rect id="c12be34a-5c2d-4b8d-8adf-680bfd6fe203" data-name="&lt;Rectangle&gt;" x="209.85" y="298.41" width="21.27" height="54.26" fill="#5b5b5b"/><rect id="0472941a-908a-44a5-9c2e-deac88a4fb4a" data-name="&lt;Rectangle&gt;" x="209.85" y="288.24" width="50.3" height="10.17" fill="#3d3d3d"/><rect id="f312d9ff-da60-49c8-aac5-99b5c8598005" data-name="&lt;Rectangle&gt;" x="238.88" y="298.41" width="21.27" height="54.26" fill="#5b5b5b"/><rect id="0e531ee9-c063-4bad-902f-64a7ad10c3a9" data-name="&lt;Rectangle&gt;" x="209.85" y="298.41" width="50.3" height="17.12" fill="#5b5b5b"/><path id="3b9c32fb-4df7-48ac-90c4-4b3a62290c01" data-name="&lt;Rectangle&gt;" d="M247.39,344h18.29a5.6,5.6,0,0,1,5.6,5.6V361a0,0,0,0,1,0,0H247.39a8.51,8.51,0,0,1-8.51-8.51v0A8.51,8.51,0,0,1,247.39,344Z" transform="translate(510.16 704.93) rotate(180)" fill="#474747"/><path id="e01427d2-c9be-48dc-94b0-93299cb508ce" data-name="&lt;Rectangle&gt;" d="M247.39,344h3a4.13,4.13,0,0,1,4.13,4.13V361a0,0,0,0,1,0,0h-7.08a8.51,8.51,0,0,1-8.51-8.51v0a8.51,8.51,0,0,1,8.51-8.51Z" transform="translate(493.35 704.93) rotate(180)" fill="#3d3d3d"/><path id="d9fe40fe-3511-4a38-a71e-b403ec4cff87" data-name="&lt;Rectangle&gt;" d="M207.23,344h23.89a0,0,0,0,1,0,0v11.42a5.6,5.6,0,0,1-5.6,5.6H207.23a8.51,8.51,0,0,1-8.51-8.51v0A8.51,8.51,0,0,1,207.23,344Z" fill="#474747"/><path id="5c89268f-d13b-4467-be43-c57acbc6514d" data-name="&lt;Rectangle&gt;" d="M224,344h7.08a0,0,0,0,1,0,0v12.89A4.13,4.13,0,0,1,227,361h-3a8.51,8.51,0,0,1-8.51-8.51v0A8.51,8.51,0,0,1,224,344Z" fill="#3d3d3d"/><rect id="fb782a4e-62fb-4139-98ed-34588272c72e" data-name="&lt;Rectangle&gt;" x="209.85" y="227.49" width="50.3" height="60.75" fill="#474747"/><rect id="243fa103-5a46-45c3-9165-013ac97fd0fa" data-name="&lt;Rectangle&gt;" x="252.03" y="227.5" width="18.95" height="13.83" fill="#515151"/><g id="f7238086-503f-4beb-a0d0-be3c8b0f37fc" data-name="&lt;Group&gt;"><rect id="8f18e085-5355-4298-9995-c90f837e863e" data-name="&lt;Rectangle&gt;" x="288.24" y="260.59" width="19.36" height="43.53" rx="9.68" ry="9.68" transform="matrix(0.31, -0.95, 0.95, 0.31, -63.6, 476.74)" fill="#feccae"/><rect id="44550840-77ad-49e4-9ca0-3421ae7ab14e" data-name="&lt;Rectangle&gt;" x="268.8" y="228" width="19.36" height="60.5" rx="9.28" ry="9.28" transform="translate(-73.92 116.63) rotate(-20.95)" fill="#feccae"/><path id="e177146e-b092-4906-9942-73e7c12d9aa6" data-name="&lt;Path&gt;" d="M267,228.13l-9,3.46,10.75,28.09,18.08-6.92-7.29-19A9.68,9.68,0,0,0,267,228.13Z" fill="#515151"/></g><rect id="7a1879b7-8941-42f8-85ec-8c8e47283489" data-name="&lt;Rectangle&gt;" x="198.96" y="227.5" width="18.95" height="13.83" transform="translate(416.87 468.83) rotate(-180)" fill="#515151"/><g id="c7f99e76-83c0-4feb-9772-4f363a64d035" data-name="&lt;Group&gt;"><rect id="d3d6fdf5-a176-4128-9616-556c8ccb696a" data-name="&lt;Rectangle&gt;" x="183.53" y="271.71" width="19.36" height="43.53" rx="9.68" ry="9.68" transform="translate(354.64 605.57) rotate(-173.99)" fill="#feccae"/><rect id="2f244e02-017d-47fa-9afc-c9353d22ecc9" data-name="&lt;Rectangle&gt;" x="187.09" y="229.39" width="19.36" height="60.5" rx="9.28" ry="9.28" transform="translate(365.28 538.47) rotate(-173.99)" fill="#feccae"/><path id="062d68bd-f74e-4e02-8f60-0ee7a570cb4e" data-name="&lt;Path&gt;" d="M200.15,227.56l9.63,1-3.15,29.91-19.26-2,2.14-20.28A9.68,9.68,0,0,1,200.15,227.56Z" fill="#515151"/></g><path id="83c81cb4-6fde-4660-bd44-51506ad58c4b" data-name="&lt;Rectangle&gt;" d="M206.42,227.5h57.15a0,0,0,0,1,0,0v29.22a7.12,7.12,0,0,1-7.12,7.12H213.54a7.12,7.12,0,0,1-7.12-7.12V227.5A0,0,0,0,1,206.42,227.5Z" fill="#474747"/><path id="5a21c82d-4684-4149-9b86-14a18cb70b7d" data-name="&lt;Path&gt;" d="M218.24,227.5a10.88,10.88,0,0,0-.12,1.55c0,7.44,7.56,13.48,16.88,13.48s16.88-6,16.88-13.48a10.9,10.9,0,0,0-.12-1.55H218.24Z" fill="#515151"/><path id="9b0c8764-3f10-465f-83e5-cd13539b5ea4" data-name="&lt;Rectangle&gt;" d="M223.4,221.64H246.6a0.46,0.46,0,0,1,.46.46v4.07A10.83,10.83,0,0,1,236.23,237h-2.46a10.83,10.83,0,0,1-10.83-10.83V222.1A0.46,0.46,0,0,1,223.4,221.64Z" fill="#f9bfa2"/><path id="c19b8de4-030b-4e21-9bb5-5437ecc2532e" data-name="&lt;Rectangle&gt;" d="M227.59,157h14.82a20,20,0,0,1,20,20v23.3A23.76,23.76,0,0,1,238.61,224h-7.21a23.76,23.76,0,0,1-23.76-23.76V177A20,20,0,0,1,227.59,157Z" fill="#feccae"/><path id="4bc1a73a-e07a-40bb-b901-3bc529367fb6" data-name="&lt;Path&gt;" d="M242.87,155.44H227.13a19.5,19.5,0,0,0-19.5,19.5v25.31a5.64,5.64,0,0,0,5.64-5.64V180.71a2.85,2.85,0,0,1,4-2.61L228.61,183a16.1,16.1,0,0,0,12.78,0l11.35-4.91a2.85,2.85,0,0,1,4,2.61V194.6a5.64,5.64,0,0,0,5.64,5.64V174.93A19.5,19.5,0,0,0,242.87,155.44Z" fill="#473d3a"/><circle id="5ddf2698-bc95-4c13-b745-6376e865cb8e" data-name="&lt;Path&gt;" cx="224.55" cy="197" r="2.48" fill="#5b5b5b"/><circle id="62756711-dace-4765-b2cf-0d9c76fbc9f8" data-name="&lt;Path&gt;" cx="244.55" cy="197" r="2.48" fill="#5b5b5b"/><ellipse id="a1de4327-96ed-4bda-8017-0a32b09f2d1b" data-name="&lt;Path&gt;" cx="249.69" cy="202.58" rx="1.43" ry="3.38" transform="translate(-20.82 376.4) rotate(-71.78)" fill="#f9bfa2"/><ellipse id="b97c2619-ce4a-41ed-824b-b3692f7f186c" data-name="&lt;Path&gt;" cx="220.78" cy="202.58" rx="3.38" ry="1.43" transform="translate(-52.28 79.21) rotate(-18.22)" fill="#f9bfa2"/><path id="c14272ea-4726-490c-86c2-e7d129ac5083" data-name="&lt;Path&gt;" d="M214.51,172a1,1,0,0,1-.92-1.39,16.72,16.72,0,0,1,8.8-8.81,1,1,0,1,1,.78,1.84,14.7,14.7,0,0,0-7.74,7.74A1,1,0,0,1,214.51,172Z" fill="#ededed" opacity="0.1"/><path id="d29f79ca-2a33-4b6d-a5c8-e296c0a064c4" data-name="&lt;Path&gt;" d="M238.08,212.79h-6.16a7.37,7.37,0,0,1-7.07-5.27,1.62,1.62,0,0,1,1.53-2.1h17.25a1.59,1.59,0,0,1,1.56,2A7.37,7.37,0,0,1,238.08,212.79Z" fill="#fff"/><path id="e0a50b60-a002-429e-8434-c50e8bbc5603" data-name="&lt;Path&gt;" d="M239.53,209.47H230.4a0.54,0.54,0,1,1,0-1.08h9.13A0.54,0.54,0,1,1,239.53,209.47Z" fill="#ededed"/></g><rect id="eb285ea7-f6f0-4413-bd78-61c5b835fb81" data-name="&lt;Rectangle&gt;" x="74.53" y="294.55" width="30.77" height="24.85" rx="4.23" ry="4.23" opacity="0.05"/><circle id="e9a1984d-18a7-496f-9e86-61c7ce44b0cb" data-name="&lt;Path&gt;" cx="89.91" cy="306.97" r="7.1" opacity="0.05"/><rect id="0c13ed48-5a79-4e15-925c-6c9bb429dfb7" data-name="&lt;Rectangle&gt;" x="114.76" y="294.55" width="30.77" height="24.85" rx="4.23" ry="4.23" opacity="0.05"/><circle id="1b66fe10-0c19-4306-ad6e-3d5a9002afb0" data-name="&lt;Path&gt;" cx="130.14" cy="306.97" r="7.1" opacity="0.05"/><line id="24443922-7ce0-47ad-950c-ea8f3f804a65" data-name="&lt;Path&gt;" x1="362.75" y1="221.64" x2="351.03" y2="221.64" fill="none" stroke="#b2b2b2" stroke-linecap="round" stroke-miterlimit="10" stroke-width="2.5"/><circle id="e2c4c89a-f3ea-4e19-82d8-0ce44da20387" data-name="&lt;Path&gt;" cx="361.53" cy="164.62" r="10.5" fill="none" stroke="#dbdbdb" stroke-miterlimit="10" stroke-width="2"/><circle id="6d93f470-0c6c-4fe3-aee8-e770fa46d050" data-name="&lt;Path&gt;" cx="299.92" cy="125.39" r="10.5" fill="none" stroke="#dbdbdb" stroke-miterlimit="10" stroke-width="2"/><circle id="aefce378-1bcf-4ac8-bfff-332d967dcc8a" data-name="&lt;Path&gt;" cx="288.42" cy="165.62" r="10.5" fill="none" stroke="#dbdbdb" stroke-miterlimit="10" stroke-width="2"/></svg>