<svg id="648030f7-f45d-4e95-b7b0-d161ffe9a2bd" data-name="Layer 1" xmlns="http://www.w3.org/2000/svg" xmlns:xlink="http://www.w3.org/1999/xlink" viewBox="0 0 528.15 480"><defs><linearGradient id="79471ac9-e492-4ba2-b450-f293bcec580a" x1="286.99" y1="217.82" x2="286.99" y2="204.98" gradientUnits="userSpaceOnUse"><stop offset="0" stop-color="#3a3a3a" stop-opacity="0"/><stop offset="0.25" stop-color="#3a3a3a" stop-opacity="0.14"/><stop offset="0.64" stop-color="#3a3a3a" stop-opacity="0.53"/><stop offset="1" stop-color="#3a3a3a"/></linearGradient><linearGradient id="8b2b7222-60f4-4fd2-a3de-ddd0344e8d87" x1="240.36" y1="217.82" x2="240.36" y2="204.98" xlink:href="#79471ac9-e492-4ba2-b450-f293bcec580a"/><clipPath id="efbab84e-e473-4f90-9c9c-e3708f701dac"><rect id="d93b4d52-a429-4373-8d46-fd6012e6d925" data-name="&lt;Rectangle&gt;" x="103.6" y="298.9" width="320.95" height="108.17" fill="none"/></clipPath></defs><title>joaco - sitio web 2016 v02 - Export2</title><path d="M289.82,311.51h-51.6a5.26,5.26,0,0,1-5.46-4.75L230.65,283h66.74l-2.11,23.76A5.26,5.26,0,0,1,289.82,311.51Z" fill="#3a3a3a"/><polygon points="290.9 335 237.14 335 234.87 284.46 293.17 284.46 290.9 335" fill="#3a3a3a"/><path d="M274.39,244.38l-10.37,1-10.37-1-17.9,3.82a11.43,11.43,0,0,0-9,11.21v27.88a8.47,8.47,0,0,0,8.71,8.21h24a4.67,4.67,0,0,0,3.57-1.62,1.34,1.34,0,0,1,2,0,4.67,4.67,0,0,0,3.57,1.62h24a8.47,8.47,0,0,0,8.71-8.21V259.41a11.43,11.43,0,0,0-9-11.21Z" fill="#3a3a3a"/><path d="M253.35,238.9h21.33a0,0,0,0,1,0,0V247a8.47,8.47,0,0,1-8.47,8.47h-4.39a8.47,8.47,0,0,1-8.47-8.47V238.9A0,0,0,0,1,253.35,238.9Z" fill="#f9bfa2"/><polygon points="222.71 310.2 201.81 307.39 205.22 285.59 226.11 288.41 222.71 310.2" fill="#feccae"/><polygon points="305.46 310.2 326.36 307.39 322.95 285.59 302.06 288.41 305.46 310.2" fill="#feccae"/><polygon points="219.83 353.88 205 353.88 201.81 307.39 222.71 310.2 219.83 353.88" fill="#feccae"/><path d="M221,372.2l-14.5-2.05a4,4,0,0,1-3.42-4.34l1.55-16.06,15.64-2.15,3.74,3.2a5.6,5.6,0,0,1,1.9,3.4l1.56,10a4,4,0,0,1-.48,2.61l-2,3.42A4,4,0,0,1,221,372.2Z" fill="#feccae"/><polygon points="308.34 353.88 323.17 353.88 326.36 307.39 305.46 310.2 308.34 353.88" fill="#feccae"/><path d="M307.2,372.2l14.5-2.05a4,4,0,0,0,3.42-4.34l-1.55-16.06-15.64-2.15-3.74,3.2a5.6,5.6,0,0,0-1.9,3.4l-1.56,10a4,4,0,0,0,.48,2.61l2,3.42A4,4,0,0,0,307.2,372.2Z" fill="#feccae"/><path d="M245.37,394h-2.7c-5.62,0-10.18-4.93-10.18-11V353.1a24.8,24.8,0,0,1,2.76-11.41l.61-1.18h25.39v36.34C261.25,386.33,254.14,394,245.37,394Z" fill="#424242"/><path d="M282.28,394H285c5.68,0,10.28-4.93,10.28-11V353.1a24.61,24.61,0,0,0-2.79-11.41l-.62-1.18H266.25v36.34C266.25,386.33,273.43,394,282.28,394Z" fill="#424242"/><rect x="234.97" y="333.03" width="58.2" height="7.47" rx="1.25" ry="1.25" fill="#424242"/><polygon points="301.01 288.55 322.95 285.59 318.92 259.77 296.97 262.73 301.01 288.55" fill="#3a3a3a"/><polygon points="228.71 288.76 205.22 285.59 209.29 259.78 232.79 262.94 228.71 288.76" fill="#3a3a3a"/><path d="M207.48,272.76l24,3.24,3.24-24-12.49-1.82a18.2,18.2,0,0,0-8,1.11A12.79,12.79,0,0,0,207.34,263Z" fill="#3a3a3a"/><path d="M320.69,272.76l-24,3.24-3.24-24,12.49-1.82a18.2,18.2,0,0,1,8,1.11A12.79,12.79,0,0,1,320.83,263Z" fill="#3a3a3a"/><rect x="256.61" y="340.5" width="14.23" height="22.94" fill="#424242"/><path id="3db06723-f863-4520-86a4-fe1e9d2a1342" data-name="&lt;Path&gt;" d="M263.72,245.52h-.09c-8.21,0-13.51-4.87-18.19-10.89-3.36-4.33-7.36-8.76-7.36-14.66V200.68a25.55,25.55,0,0,1,25.55-25.55h.09a25.55,25.55,0,0,1,25.55,25.55V220c0,5.9-4,10.34-7.36,14.66C277.24,240.65,271.93,245.52,263.72,245.52Z" fill="#feccae"/><path id="835d69ff-bb56-4b59-9a82-cb429484396c" data-name="&lt;Path&gt;" d="M255.73,209a2.92,2.92,0,0,0-5.79,0" fill="none" stroke="#5b5b5b" stroke-linecap="round" stroke-miterlimit="10" stroke-width="1.6"/><ellipse id="ba109728-bbfd-444f-ae4b-db480887004e" data-name="&lt;Path&gt;" cx="278.98" cy="216.28" rx="1.23" ry="2.92" transform="translate(-13.7 413.63) rotate(-71.78)" fill="#f9bfa2"/><ellipse id="edf9316c-aa49-49d4-8035-c72b79899f32" data-name="&lt;Path&gt;" cx="247.65" cy="216.28" rx="2.92" ry="1.23" transform="translate(-55.22 88.3) rotate(-18.22)" fill="#f9bfa2"/><path id="1fe480fe-9abe-435f-8f55-b95c49619010" data-name="&lt;Path&gt;" d="M266.6,235.82h-5.84c-5.33,0-11.84-4.64-13.28-11-.49-2.18-.11-4.76,2.44-4.38l9.54,1.37a30.46,30.46,0,0,0,8.76,0l9.22-1.36c2.16-.39,2.93,2,2.49,4.09C278.57,231,272,235.82,266.6,235.82Z" fill="#fff"/><path d="M263.6,219.3h0a2.43,2.43,0,0,1-2.31-2.41l-.52-10a2.46,2.46,0,0,1,2.31-2.7h1a2.46,2.46,0,0,1,2.31,2.7l-.52,10A2.43,2.43,0,0,1,263.6,219.3Z" fill="#f9bfa2"/><path d="M264,215.47l-3.52-.48a1.92,1.92,0,0,0-2.12,1.66h0a1.89,1.89,0,0,0,1.57,2.17l3.52.48a1.92,1.92,0,0,0,2.12-1.66h0A1.89,1.89,0,0,0,264,215.47Z" fill="#f9bfa2"/><path d="M291.56,207.45h-2.28v10h1.3c2,0,3.65-1.78,4-4.26l.12-.78C295.13,209.86,293.6,207.45,291.56,207.45Z" fill="#f9bfa2"/><path d="M235.79,207.45h2.28v10h-1.3c-2,0-3.65-1.78-4-4.26l-.12-.78C232.22,209.86,233.75,207.45,235.79,207.45Z" fill="#f9bfa2"/><rect x="270.55" y="200.45" width="10.24" height="2.19" rx="1.01" ry="1.01" transform="translate(42.03 -47.5) rotate(10.66)" fill="#5b5b5b"/><path id="fcf62461-b94f-4f18-a7b8-3b55271cba82" data-name="&lt;Path&gt;" d="M277.06,209a2.92,2.92,0,0,0-5.79,0" fill="none" stroke="#5b5b5b" stroke-linecap="round" stroke-miterlimit="10" stroke-width="1.6"/><path id="f318d4a0-997e-4663-b9bf-68882550f267" data-name="&lt;Path&gt;" d="M269.89,228.86H257.3a.75.75,0,1,1,0-1.5h12.59a.75.75,0,1,1,0,1.5Z" fill="#ededed"/><rect x="246.71" y="200.13" width="10.24" height="2.19" rx="1.01" ry="1.01" transform="translate(536.54 352.41) rotate(169.34)" fill="#5b5b5b"/><rect x="261.19" y="238.9" width="5.47" height="2" rx="0.8" ry="0.8" fill="#f9bfa2"/><path id="8e750d5a-19f2-45c4-b603-e9a94464842e" data-name="&lt;Path&gt;" d="M271,165.35H256.32c-10.07,0-18.24,10.57-18.24,21.15V205h4.56l.72-12.81a2.68,2.68,0,0,1,3.72-2.57l10.62,4.82a14.41,14.41,0,0,0,12,0l10.62-4.82a2.68,2.68,0,0,1,3.72,2.57l.72,12.81h4.56V184.49C289.27,173.92,281.11,165.35,271,165.35Z" fill="#3a3a3a"/><path d="M265.06,195.74h-1.92a15.06,15.06,0,0,1-13.32-8l-.78-1.49a1.25,1.25,0,0,1,1.28-1.83l5.73.81a3.15,3.15,0,0,0,2.61-.83l3.55-3.37a2.76,2.76,0,0,1,3.8,0l3.55,3.37a3.15,3.15,0,0,0,2.61.83l5.73-.81a1.25,1.25,0,0,1,1.28,1.83l-.78,1.49A15.06,15.06,0,0,1,265.06,195.74Z" fill="#333"/><polygon points="289.27 217.82 285.46 217.82 284.71 204.98 289.27 204.98 289.27 217.82" fill="url(#79471ac9-e492-4ba2-b450-f293bcec580a)"/><polygon points="238.08 217.82 241.9 217.82 242.64 204.98 238.08 204.98 238.08 217.82" fill="url(#8b2b7222-60f4-4fd2-a3de-ddd0344e8d87)"/><g id="a0f6f2c0-4fe5-486d-a35e-503afb8c2e4e" data-name="&lt;Group&gt;"><rect id="413c64c6-8b67-446e-9941-eaee2a9dec07" data-name="&lt;Rectangle&gt;" x="91.65" y="399.41" width="344.84" height="16.77" rx="8.01" ry="8.01" opacity="0.08"/><rect id="43487ece-8c41-4096-8b2f-f84edf41bd06" data-name="&lt;Rectangle&gt;" x="103.6" y="298.9" width="320.95" height="108.17" fill="#b47860"/><g opacity="0.5"><g clip-path="url(#efbab84e-e473-4f90-9c9c-e3708f701dac)"><path d="M321.39,619.87c2.37-18.05,6.16-23.21-5.09-74.59S303,448.9,312.16,403.62s5.62-69.77,5.62-93" fill="none" stroke="#aa6f5b" stroke-linecap="round" stroke-linejoin="round" stroke-width="1.75"/><path d="M323.78,378.9c3-40.83,0-51.27,0-68.25" fill="none" stroke="#aa6f5b" stroke-linecap="round" stroke-linejoin="round" stroke-width="1.75"/><path d="M321.93,389.46s-7.69,41.11-8.28,65,1.48,53.61,8.28,90.27,10.06,32.22,4.44,76.38-4.92,55-5,69.44-3,16.11-2.13,31.94,4.59,13.61,4.51,31.11,0,41.06,0,41.06" fill="none" stroke="#aa6f5b" stroke-linecap="round" stroke-linejoin="round" stroke-width="1.75"/><path d="M330.51,310.66c1.59,26,3,55.09-5.38,101.33s-5.86,82.19,1.24,123,12.43,40,5.92,93.88-4.74,54.72-4.74,65,7.86,17,7.68,26.66-5.88,15.55-6,26.11.48,32.07,1.27,48" fill="none" stroke="#aa6f5b" stroke-linecap="round" stroke-linejoin="round" stroke-width="1.75"/><path d="M335.23,310.66s2.95,43.25,0,80.47-9.75,36.94-8.86,75.13,5,57.08,8.86,79,9.78,27.5,6.23,58.61-9.59,43.21-8.28,82.77c0,0-.2,12.13,3.65,21.29s4.24,16.3.3,28-3.55,26.2-3.35,31.76,1.47,27,1.47,27" fill="none" stroke="#aa6f5b" stroke-linecap="round" stroke-linejoin="round" stroke-width="1.75"/><path d="M341.35,310.66c1.19,12.4,2.47,65.47-2.86,99.63s-7.68,44.11-5.46,70.13c3.25,38.19,8.71,64,11.08,72.91s7.1,30,3.25,50.83-8,45.55-7.4,68.88,1,25.46,2.57,32.87,5.32,10.55,2.56,26.29.59,48.37,2,62.44" fill="none" stroke="#aa6f5b" stroke-linecap="round" stroke-linejoin="round" stroke-width="1.75"/><path d="M347.07,310.66c.69,12.41,3.25,49.31.44,75.89-1.38,13-8.14,49.58-9,63.47s2.07,43.33,4.05,58.33,11.33,53.89,11.93,75.27-5.62,30.83-7.59,52.22-.39,37.31,0,49.16,4.93,23.05,4.93,36-1.18,11.62-2,27,2.86,46.7,2.86,46.7" fill="none" stroke="#aa6f5b" stroke-linecap="round" stroke-linejoin="round" stroke-width="1.75"/><path d="M346.42,471.4a148.56,148.56,0,0,1,0-50.27" fill="none" stroke="#aa6f5b" stroke-linecap="round" stroke-linejoin="round" stroke-width="1.75"/><path d="M352.7,310.66a462.52,462.52,0,0,1,1.81,70.47c-2,37.57-9.24,55,1.87,93s8.74,67.22,7.56,85.55-8.28,42.5-4.14,88.61,10.81,40.83,7.1,88.61c-2.24,28.89,2.07,57.72,2.07,57.72" fill="none" stroke="#aa6f5b" stroke-linecap="round" stroke-linejoin="round" stroke-width="1.75"/><path d="M358,566.56c2.76-29.44-1.34-87.67-9.21-87.66-5.36,0-2.34,18.69,0,31.09" fill="none" stroke="#aa6f5b" stroke-linecap="round" stroke-linejoin="round" stroke-width="1.75"/><path d="M362.76,310.66c1.59,16.24,3.85,44.64,0,74.91s-8.45,60.83.21,90.55,11.33,53.05,6,99.72-4.44,59.16-1.48,82.77,8.28,39.16,5.62,82.77c0,0-2.69,19.67.72,53.28" fill="none" stroke="#aa6f5b" stroke-linecap="round" stroke-linejoin="round" stroke-width="1.75"/><path d="M369,310.66s3.85,50.75-1.48,84.08-3.25,59.44,1.48,76.66S379,498.89,379,528.89s-7.29,65.55-7.34,96.38,7.64,54.57,8.53,81.45-1.78,48.45-2.07,62.8a215,215,0,0,0,.89,25.13" fill="none" stroke="#aa6f5b" stroke-linecap="round" stroke-linejoin="round" stroke-width="1.75"/><path d="M396.19,421.12c-3.85-22.22-11.12-38.1-14.79-59.3S379.81,329,379,310.66" fill="none" stroke="#aa6f5b" stroke-linecap="round" stroke-linejoin="round" stroke-width="1.75"/><path d="M372.37,399.18a195.09,195.09,0,0,0,3.11-41.11c-.43-11.81-.71-36.73-1.64-47.42" fill="none" stroke="#aa6f5b" stroke-linecap="round" stroke-linejoin="round" stroke-width="1.75"/><path d="M379.47,381.12c.89,4.17,5.33,18.05,5.33,18.05" fill="none" stroke="#aa6f5b" stroke-linecap="round" stroke-linejoin="round" stroke-width="1.75"/><path d="M378.73,402.23c-5.33.56-11.24,12.78-8,42.5s10.06,41.39,13.31,41.66,10.95-35.55,10.36-50.55C393.54,413.61,384.06,401.68,378.73,402.23Z" fill="none" stroke="#aa6f5b" stroke-linecap="round" stroke-linejoin="round" stroke-width="1.75"/><path d="M382.35,428.62C381.24,432,383.47,452,386.54,452s4.32-40.28-6.15-39.16,1,56.94,1,56.94" fill="none" stroke="#aa6f5b" stroke-linecap="round" stroke-linejoin="round" stroke-width="1.75"/><path d="M395.48,473.62s-5.5,20.83-5.73,38.05-1.41,45.4-5.64,71.65c-3.47,21.5-6.32,43.14-1.24,87.23,6.37,55.29,3.85,59.16,3,79.72s0,44.39,0,44.39" fill="none" stroke="#aa6f5b" stroke-linecap="round" stroke-linejoin="round" stroke-width="1.75"/><path d="M399.15,446.26s1.48,35-1.78,52.45-1.48,42.13-4.73,62.68-7.17,44.72-5.51,84.16,7.34,56.11,6,82.22-.59,58.55,0,66.89" fill="none" stroke="#aa6f5b" stroke-linecap="round" stroke-linejoin="round" stroke-width="1.75"/><path d="M393.11,608.33c.17-13.05,4.56-41.39,4.56-41.39s8.28-64.72,6.21-115.83-12.56-60.17-16.75-88.37c-3.66-24.63-.4-36.82-1.3-52.09" fill="none" stroke="#aa6f5b" stroke-linecap="round" stroke-linejoin="round" stroke-width="1.75"/><path d="M390.09,334.18c0,7.7,1.48,19.45,3.75,30.6,4.59,22.64,10.8,32.62,13.9,71s1.79,61.77,0,84.27-6.42,62.22-8.1,76.11-5.82,30-2.56,58.61,7.17,31.66,7.14,60.27,1.15,79.66,1.15,79.66" fill="none" stroke="#aa6f5b" stroke-linecap="round" stroke-linejoin="round" stroke-width="1.75"/><path d="M404.21,596.13s10.22-72,10.22-111.13-2-66.66-11.14-103.88a378.3,378.3,0,0,1-10.18-70.47" fill="none" stroke="#aa6f5b" stroke-linecap="round" stroke-linejoin="round" stroke-width="1.75"/><path d="M399.48,310.66A379.52,379.52,0,0,0,408.22,375c7.69,33.33,11,71.11,11,92.77s-1.26,59.72,1,84.44,10.54,53.33,10.84,85.27-9.68,54.91-12.23,68.24c-2.67,14-2.56,58.74-1.58,88.92" fill="none" stroke="#aa6f5b" stroke-linecap="round" stroke-linejoin="round" stroke-width="1.75"/><path d="M405.36,310.66c.36,12.15,5.82,67.69,13.12,68.25s-1.38-44.23-1.18-68.25" fill="none" stroke="#aa6f5b" stroke-linecap="round" stroke-linejoin="round" stroke-width="1.75"/><path d="M411,315.76s2.55,31.29,6.1,49.63" fill="none" stroke="#aa6f5b" stroke-linecap="round" stroke-linejoin="round" stroke-width="1.75"/><path d="M418.87,412.77c.79-21.46-3.94-30.53-3.94-30.53" fill="none" stroke="#aa6f5b" stroke-linecap="round" stroke-linejoin="round" stroke-width="1.75"/><path d="M425.54,310.66s2.79,36.21.63,62.88-4.34,38.33-2.37,63.7,4.73,26.48,6.51,58.14-.39,38.15,2.37,61.11,6.31,59.26,5.72,76.85-6.71,46.29-9.47,72.4.28,50.92,1.82,68,1.34,21,1.34,21" fill="none" stroke="#aa6f5b" stroke-linecap="round" stroke-linejoin="round" stroke-width="1.75"/><path d="M433.76,614.72s-5-35.65-7.4-49.16A275.88,275.88,0,0,1,423,518.61c.38-12.68.8-43.79,0-58.05" fill="none" stroke="#aa6f5b" stroke-linecap="round" stroke-linejoin="round" stroke-width="1.75"/><path d="M432.09,310.66s2.86,41.76-1,75.5-.3,52.19,2.66,70.8,3.25,42.13,3,58.14,2.66,48.45,4.44,68.48S448.7,623,438.46,683a294.84,294.84,0,0,0-3.22,67.77c2.66,36.39,3.48,36.33,3.22,43.83" fill="none" stroke="#aa6f5b" stroke-linecap="round" stroke-linejoin="round" stroke-width="1.75"/><path d="M438.46,310.66s2.93,36,0,68.25-5.34,30.55-.28,67.35,3.87,52.91,4.16,72.36,9.47,74.44,9.17,111.66-5,43.33-8.13,67.77-3.71,34.16-2.82,51.66,4.38,31.89,3.82,44.94" fill="none" stroke="#aa6f5b" stroke-linecap="round" stroke-linejoin="round" stroke-width="1.75"/><path d="M441.75,425.84c-2.07-29.16,2.37-21.94,5.62-42.5S450,310.66,450,310.66" fill="none" stroke="#aa6f5b" stroke-linecap="round" stroke-linejoin="round" stroke-width="1.75"/><path d="M442.34,386.68c4.14-29.44,2-76,2-76" fill="none" stroke="#aa6f5b" stroke-linecap="round" stroke-linejoin="round" stroke-width="1.75"/><path d="M448.82,400.57c-3.14.69-3.81,4.72-3.07,18.33s4,21,5.78,20.83,5.61-1.53,5-17.78S452.76,399.7,448.82,400.57Z" fill="none" stroke="#aa6f5b" stroke-linecap="round" stroke-linejoin="round" stroke-width="1.75"/><path d="M449.59,421.19s.59,16,3,12.29S451,408.9,451,408.9" fill="none" stroke="#aa6f5b" stroke-linecap="round" stroke-linejoin="round" stroke-width="1.75"/><path d="M452.7,445.35c-1.66,8.27-2.51,15.08-6.07,14s-4.29-28.05-4.29-28.05" fill="none" stroke="#aa6f5b" stroke-linecap="round" stroke-linejoin="round" stroke-width="1.75"/><path d="M451,534.73s-5.15-33.05-2.22-55.83,12.76-27.5,13.05-53-7.69-31.39-7.1-56.52,2.37-58.67,2.37-58.67" fill="none" stroke="#aa6f5b" stroke-linecap="round" stroke-linejoin="round" stroke-width="1.75"/><path d="M464.24,310.66s-2.28,36.69-2.36,48.67a167.12,167.12,0,0,0,3,33.79c2.22,12.22,4.72,16.9,4.72,35.37s-5,30.83-10.5,47.36-3.55,38.61-2.07,55.55,4.29,41.52,5.92,68.47.59,58.47-1.18,75.83S453,710.13,450,717.21,445.3,731,448.26,745s9.76,15.55,13.46,28.89,2.51,20.78,2.51,20.78" fill="none" stroke="#aa6f5b" stroke-linecap="round" stroke-linejoin="round" stroke-width="1.75"/><path d="M470.55,310.66c0,15.45-2.95,26.54.14,62.14,3.77,43.59,7.46,41.39,4.2,73.47s-12.11,32.27-13,58,5.72,49.07,7.15,76,1.43,70.83,3.5,95.27,6.71,39.07,9.86,48.14,7.5,13,4.73,28.33-5.52,24.3-4.93,42.63" fill="none" stroke="#aa6f5b" stroke-linecap="round" stroke-linejoin="round" stroke-width="1.75"/><path d="M481.47,431.26c.54-20.68-2.67-46.46-3.87-69.3-1.18-22.56-.34-42.24-.94-51.3" fill="none" stroke="#aa6f5b" stroke-linecap="round" stroke-linejoin="round" stroke-width="1.75"/><path d="M473.11,477.41a17.08,17.08,0,0,1,1.71-7.68" fill="none" stroke="#aa6f5b" stroke-linecap="round" stroke-linejoin="round" stroke-width="1.75"/><path d="M486.87,687.08c-1.3-20.55-3.7-63.19-4.29-83.75s-6.71-51.66.39-70.74,9.07-33.89,8.48-43.7-7.69-9.63-10.95-15.92,1.08-27,1-36.29" fill="none" stroke="#aa6f5b" stroke-linecap="round" stroke-linejoin="round" stroke-width="1.75"/><path d="M498.21,671.34A380.89,380.89,0,0,0,495,626.46c-1.94-14.58-4.32-20.72-5.1-40.16s10.27-50.74,12.44-65.74,2.56-37,1.38-53.51-3-52.59-3.75-67.87-2.85-63.11.39-88.52" fill="none" stroke="#aa6f5b" stroke-linecap="round" stroke-linejoin="round" stroke-width="1.75"/><path d="M483.63,462c-.92,7.41,2.7,14.81,6.2,12.59s.25-27-1.83-45.92-2.66-45.55-3.84-65-.38-34.74-2-53.06" fill="none" stroke="#aa6f5b" stroke-linecap="round" stroke-linejoin="round" stroke-width="1.75"/><path d="M485.43,572.36A145.94,145.94,0,0,1,488,544.45c2.87-14.58,9.08-27.73,9.82-49.63s-1.63-48-2.81-60.77-2.61-53.57-3.32-72.09" fill="none" stroke="#aa6f5b" stroke-linecap="round" stroke-linejoin="round" stroke-width="1.75"/><path d="M490.08,310.66c1.61,13,1.61,44.92,1.61,44.92" fill="none" stroke="#aa6f5b" stroke-linecap="round" stroke-linejoin="round" stroke-width="1.75"/><path d="M507.29,310.66c-1.91,20.55-1.92,51.44-1.92,62.83s1,50.27,1.81,61.38,2.78,42.36,3.81,56.94-.15,30.41-1.33,42.91-8,28.75-9.17,39.86,4,28.61,5.18,40.14,2.22,39.72,3,54,1.92,31.8,4.24,42.5.64,18.75-.09,23.84-1.18,12.13,0,30.88.89,28.7.89,28.7" fill="none" stroke="#aa6f5b" stroke-linecap="round" stroke-linejoin="round" stroke-width="1.75"/><path d="M526.76,549.84a96.85,96.85,0,0,1-5.92-15.94c-4.93-18.7-6.51-99.62-6.81-118.51s-1.57-73.35-.39-104.73" fill="none" stroke="#aa6f5b" stroke-linecap="round" stroke-linejoin="round" stroke-width="1.75"/><path d="M526.76,528.81a138.23,138.23,0,0,1-2.47-18c-3.25-40.8-3-174.36-4-200.18" fill="none" stroke="#aa6f5b" stroke-linecap="round" stroke-linejoin="round" stroke-width="1.75"/><path d="M359.65,366.54c.84-16-.35-35.47-2.51-55.89" fill="none" stroke="#aa6f5b" stroke-linecap="round" stroke-linejoin="round" stroke-width="1.75"/><path d="M301.71,455.49c-.59,4.17-.59,13.33-.59,13.33.79,14.63,2.5,31.48,3.65,40.74s4.24,27.41,8,43.1,7.18,36.17,6.51,45.23c-.7,9.41-4.74,29.26-5.62,41.66s-1.54,28.15-1.28,36.66c.39,12.9-3.75,26.66-3.55,41.56.14,10.45,2.67,25.2,3.75,34.64s-.48,30.18-.59,42.24" fill="none" stroke="#aa6f5b" stroke-linecap="round" stroke-linejoin="round" stroke-width="1.75"/><path d="M312,370.8c1-15.62,0-60.15,0-60.15" fill="none" stroke="#aa6f5b" stroke-linecap="round" stroke-linejoin="round" stroke-width="1.75"/><path d="M307.46,400.49s2.83-11.75,1.05-21.58-2.11-68.25-2.11-68.25" fill="none" stroke="#aa6f5b" stroke-linecap="round" stroke-linejoin="round" stroke-width="1.75"/><path d="M303.78,367.79c-1.7-21-3.4-34.89-3.4-57.14" fill="none" stroke="#aa6f5b" stroke-linecap="round" stroke-linejoin="round" stroke-width="1.75"/><path d="M42.73,310.66c0,.07,2,48,2.27,93s1.18,108.51,5.92,127.86,10.13,21.94,9.8,43.15-7.43,17.41-4.77,50,7.1,37,9.47,85.09-2.37,41.61,0,84.94" fill="none" stroke="#aa6f5b" stroke-linecap="round" stroke-linejoin="round" stroke-width="1.75"/><path d="M50.19,370.8c1.88-21.11-.14-42.25-1.05-60.15" fill="none" stroke="#aa6f5b" stroke-linecap="round" stroke-linejoin="round" stroke-width="1.75"/><path d="M65.41,310.66c.68,8.54.2,38.62-.79,49.17s-5.13,15.92-5.09,27.59,4.9,15.18,6.57,25.74.8,24.07,0,54.14,5.23,102.15,4.05,128.83-6.8,28-6.8,45.11,8.58,52,9,80.7-1.33,52.58,0,72.7" fill="none" stroke="#aa6f5b" stroke-linecap="round" stroke-linejoin="round" stroke-width="1.75"/><path d="M65.11,601.82c.15,5.12-.67,20.54-4.4,20.54-2.55,0-1.38-17.14.8-25.34s3.34-11.88,3.62-25.21-1.64-44.3-2.24-56.52-3-36.53-2.18-61.66.48-31.25-1.18-39.72-6.1-13.75-6.1-24.58c0-17.08,3.89-24.06,4.88-33.75,1.79-17.41-1.17-33.53-1.48-44.92" fill="none" stroke="#aa6f5b" stroke-linecap="round" stroke-linejoin="round" stroke-width="1.75"/><path d="M58,533.34s-2.81-29.11-4-46.5-1.18-25.72-1.33-37.11,1.23-27-1.44-44" fill="none" stroke="#aa6f5b" stroke-linecap="round" stroke-linejoin="round" stroke-width="1.75"/><path d="M72.36,310.66c.45,9.86-.15,38.11-.9,50.2-.59,9.63-5.38,14.16-5.49,25.46-.15,15.56,6.92,15.92,7.91,23.52s-.79,64.06-.2,89.43,2.56,57.41,2.37,81.3-.93,33.7-3.62,41.11-8.81,22.76,3,52c10.06,25,8.16,50,8.36,72.22s.79,48.74.79,48.74" fill="none" stroke="#aa6f5b" stroke-linecap="round" stroke-linejoin="round" stroke-width="1.75"/><path d="M77,372.61c-4.34.19-5.92,6.48-6.11,13.8s2.56,15.18,6.11,15,6.51-6.39,6.41-13.52S82.37,372.38,77,372.61Z" fill="none" stroke="#aa6f5b" stroke-linecap="round" stroke-linejoin="round" stroke-width="1.75"/><path d="M76.06,378.72c-1.28,3-2.28,17.41,1.13,17.31s2.12-11.57,2.12-11.57" fill="none" stroke="#aa6f5b" stroke-linecap="round" stroke-linejoin="round" stroke-width="1.75"/><path d="M78.82,310.66c.06,16.94-2.35,46.65.73,53.39,4,8.81,8.34,11.34,8.34,23s-8.4,19-8.34,27.59S79,467.51,79,485.7s1.63,67.77,2.22,79.3,1.33,31.39-.59,43.47-8.2,21.67-7,38.61c1.57,21.37,10.15,29.44,12.17,38.47s3,31.94,3.2,42.36.91,66.75.91,66.75" fill="none" stroke="#aa6f5b" stroke-linecap="round" stroke-linejoin="round" stroke-width="1.75"/><path d="M84.54,310.66c.7,16.66-2.16,35.89.9,48.29,2.23,9.06,7.76,12.87,7.76,27s-7.08,21.94-7.38,35.49c-.23,10.76-.3,60.2-.3,81.31s3,104.44,5.72,112,7.1,12.41,7.69,31.85-5.31,28.52-5.32,37.4,0,23.94.93,44.45c1,20.2,1.82,52.07,1.43,66.14" fill="none" stroke="#aa6f5b" stroke-linecap="round" stroke-linejoin="round" stroke-width="1.75"/><path d="M91.59,427.51c.74-17.36,7-26.66,7.39-41.8s-2.85-16.79-6.54-30.14C88.7,342,90.34,331.3,90,310.66" fill="none" stroke="#aa6f5b" stroke-linecap="round" stroke-linejoin="round" stroke-width="1.75"/><path d="M91.74,436.68s-.59,38.61,0,56.25.59,62.91,1.48,78.74S95,601.8,98,612.91s6.21,16.94,6.51,34.72S100,676.94,99.88,690s-.15,25.69.89,44.16,2.66,45.08,2.66,60.5" fill="none" stroke="#aa6f5b" stroke-linecap="round" stroke-linejoin="round" stroke-width="1.75"/><path d="M99,560.37s-.63-45.37-1-61.11-1-32.4-1-51.66,4.14-37.78,6.51-50,3-25-2.76-38.15-4.93-42.69-4.73-48.8" fill="none" stroke="#aa6f5b" stroke-linecap="round" stroke-linejoin="round" stroke-width="1.75"/><path d="M102.29,451.48a187.43,187.43,0,0,1,5.92-45.73c4.15-15,3.6-34.33,0-49.21s-4.59-34-4.78-45.89" fill="none" stroke="#aa6f5b" stroke-linecap="round" stroke-linejoin="round" stroke-width="1.75"/><path d="M108.7,433.59s1.88-11.73,2.79-15.43,4.81-20,5-35-1.38-25.74-3.75-38S110,322.87,110,310.66" fill="none" stroke="#aa6f5b" stroke-linecap="round" stroke-linejoin="round" stroke-width="1.75"/><path d="M115.9,310.66c.2,8.15,1.18,29.18,3.16,44.36a229.1,229.1,0,0,1,1.78,43.7c-.79,15.92-6.11,32.78-11.24,45.74s-7.3,28.15-6.31,39.44,8.09,40.55,10.65,51.48,5.52,35.18,3.16,48.14-4.54,20.37-2.17,29.63,10.26,26.29,10.65,38.52,0,41.64,0,53.23,1.78,80,1.58,89.77" fill="none" stroke="#aa6f5b" stroke-linecap="round" stroke-linejoin="round" stroke-width="1.75"/><path d="M121.43,310.66c.2,10.93,1.78,32.32,3.35,48.25s3.35,32.41,1,50.74-11.4,37.4-14.28,49.81-3.27,28,1.85,49.81,9.27,39.63,9.86,55.37-5.37,33-5.05,41,11.17,26.37,12.74,37.85a142.94,142.94,0,0,1,1.38,20.37" fill="none" stroke="#aa6f5b" stroke-linecap="round" stroke-linejoin="round" stroke-width="1.75"/><path d="M133.66,310.66c-.39,6.3-5.31,10.15-4.54,27.51.63,14.07,3.75,25.28,4.14,49.21s-6.71,45.6-10.85,55.78a93.8,93.8,0,0,0-7.31,40.18c.6,17.22,6.32,35,9.87,50s5.13,31.85,3.35,46.48-5.78,23.7-4.17,30.18S136.81,632.4,137,642.77s1.38,29.26,1.58,46.85.2,30.37,0,43.89.79,45.59,1.18,61.15" fill="none" stroke="#aa6f5b" stroke-linecap="round" stroke-linejoin="round" stroke-width="1.75"/><path d="M132.28,445c-9.85,1.11-14,34.81-11.45,50.18s3.95,12.78,8.68,15.18,5.72,19.44,11.24,19.26,7.87-21.66,8.28-45C149.38,465.43,142.14,443.9,132.28,445Z" fill="none" stroke="#aa6f5b" stroke-linecap="round" stroke-linejoin="round" stroke-width="1.75"/><path d="M132.28,462.79c-2.75,26.29,3.25,53.14,8.47,53.14,4.34,0,1.8-64.92-7.1-64.44-8,.43-10.55,37.95-5.52,51.14" fill="none" stroke="#aa6f5b" stroke-linecap="round" stroke-linejoin="round" stroke-width="1.75"/><path d="M138.19,499.82a157.75,157.75,0,0,0-2-24.81" fill="none" stroke="#aa6f5b" stroke-linecap="round" stroke-linejoin="round" stroke-width="1.75"/><path d="M136.22,408.24c0,15.18-6.8,24.7-4.58,28.59s7.05,5.74,8.53,3.89-3.34-11.85-3.34-11.85" fill="none" stroke="#aa6f5b" stroke-linecap="round" stroke-linejoin="round" stroke-width="1.75"/><path d="M139.77,310.66c-.48,8.24-6.81,14.59-5.72,27.51,1,11.33,5.13,25.55,5.72,39.44s-1,30.17,3.94,53.69,11.44,32.41,10.85,61.3-3.75,33.15-7.5,43.52-5.14,19.26-2.86,34.63,12.53,31.48,13.71,46.29-5.33,27-4.93,35.55,1,36.66,1.38,56.48.79,68.18,1.58,85.59" fill="none" stroke="#aa6f5b" stroke-linecap="round" stroke-linejoin="round" stroke-width="1.75"/><path d="M160.68,492.78c0-11-1.33-28.05-4.29-41.3s-8-26.06-9.32-39.11,0-28.75-1.13-39.16-6.11-23.33-7.15-34.16,6.21-19.78,6.71-28.39" fill="none" stroke="#aa6f5b" stroke-linecap="round" stroke-linejoin="round" stroke-width="1.75"/><path d="M145,327.07c4-2,9.62,2.11,9.62,2.11-2.51-3.83-3-12-3.6-18.53" fill="none" stroke="#aa6f5b" stroke-linecap="round" stroke-linejoin="round" stroke-width="1.75"/><path d="M148.7,331c-4.59,0-6.8,3.47-6.21,8.54s3.55,9.24,7.2,8.54,5.23-1.81,6.12-6.94S152.59,331,148.7,331Z" fill="none" stroke="#aa6f5b" stroke-linecap="round" stroke-linejoin="round" stroke-width="1.75"/><path d="M145.93,338.16c0,3.38.25,7.13,3.87,6.57s3.33-8.33,0-10" fill="none" stroke="#aa6f5b" stroke-linecap="round" stroke-linejoin="round" stroke-width="1.75"/><path d="M150.62,355.83c1.33-3.75-4.44-3.75-4.68-2.08s2.61,5.28,3.22,10" fill="none" stroke="#aa6f5b" stroke-linecap="round" stroke-linejoin="round" stroke-width="1.75"/><path d="M163.49,685.55c-.74-12.36-.89-32.22,3.55-47.22a59.81,59.81,0,0,0,0-35.55c-2.66-9.17-7.25-21-9.69-37.5s1-20.28,4.66-34.16,4.88-35.83,3.7-52.91-4-28.33-7.65-44.44-4.92-24-5.08-33.15-.29-22,.31-30.46,5.77-20.69,7.4-30.58-3.44-18.92-4.73-28.91" fill="none" stroke="#aa6f5b" stroke-linecap="round" stroke-linejoin="round" stroke-width="1.75"/><path d="M158.9,364.83c12.88-34.93,4.33-40,4.25-52" fill="none" stroke="#aa6f5b" stroke-linecap="round" stroke-linejoin="round" stroke-width="1.75"/><path d="M168.74,323.35a102.23,102.23,0,0,1,1.41-12.7" fill="none" stroke="#aa6f5b" stroke-linecap="round" stroke-linejoin="round" stroke-width="1.75"/><path d="M168.07,461.94c-2.13-20.14-9.37-43.41-10-63.22s3.6-30.18,8.11-44.81,7.73-34.63,7.73-41.11" fill="none" stroke="#aa6f5b" stroke-linecap="round" stroke-linejoin="round" stroke-width="1.75"/><path d="M163.83,578.33c-2.56-13.33-3.55-28.52,3.35-48.7S172.71,472,172.71,472c-.39-27.78-9.47-56.11-10.18-73.51s5.44-35.18,9.19-46.66,5.23-27.69,6-41.21" fill="none" stroke="#aa6f5b" stroke-linecap="round" stroke-linejoin="round" stroke-width="1.75"/><path d="M178.63,472.85c-.79-19.93-4.34-26.18-7.3-45.34S167,385.94,172.51,367s12-33.19,11-54.16" fill="none" stroke="#aa6f5b" stroke-linecap="round" stroke-linejoin="round" stroke-width="1.75"/><path d="M191.65,310.66c0,9.28,0,14.78-6.51,36-5.91,19.29-11.83,42.4-10.45,62s8.09,47,8.88,61.66,2.56,34.63-4.93,59.26-5.92,38.7-3.55,54.62,7.3,30.37,7.1,47.12-.79,31.21-7.69,43.24-12,26.29-11.25,43.15c1,21.69,20.18,42.76,20.32,58.14.11,11.85-5.13,13.19-5.81,18.74" fill="none" stroke="#aa6f5b" stroke-linecap="round" stroke-linejoin="round" stroke-width="1.75"/><path d="M178.63,560.37c.2-7.59,2.56-19.26,4.93-27.78s5.33-27.78,5.83-50.37-8.79-70.74-9-80.82,4.14-27.13,9-45.12,8.17-33.41,7.58-45.63" fill="none" stroke="#aa6f5b" stroke-linecap="round" stroke-linejoin="round" stroke-width="1.75"/><path d="M203.68,310.66c0,10.55-1.93,22.88-7.3,42.88-4,14.89-9.35,31.29-9.41,46.11s5.72,43.89,7.27,67-2.59,51.65-2.59,59.63c0,10.37,4.85,21.48,3.71,38.89s-5.09,26.46-4.89,36.56,2.76,21.21,2.76,35.1-2.17,23.33,1,37.78c3.54,16,7.65,40,7.26,58.14s-5.92,42.07-4.54,61.89" fill="none" stroke="#aa6f5b" stroke-linecap="round" stroke-linejoin="round" stroke-width="1.75"/><path d="M210.83,310.66c-.13,19.11-6.72,35.9-10.9,52.69-3.62,14.57-7.58,31.8-6.51,42.4,1.36,13.5,5.92,45.14,6.31,67.1s.79,74.74.79,87.52-1.38,63.88-2,75.37.84,38,3,49.81,5.1,27,5.3,41.48-1.78,34.07-2.76,44.9a188.31,188.31,0,0,0-.39,22.72" fill="none" stroke="#aa6f5b" stroke-linecap="round" stroke-linejoin="round" stroke-width="1.75"/><path d="M198.86,405.75c-.2-9.26,2.5-19.06,4.42-30,1.57-8.94,7-29.88,8.59-39.91" fill="none" stroke="#aa6f5b" stroke-linecap="round" stroke-linejoin="round" stroke-width="1.75"/><path d="M211.76,490.56c0-19.44-3.75-28.7-6.11-43.33a186.43,186.43,0,0,1-1.78-39.81c.59-12,7.76-32.92,10.65-56.66,2.61-21.43,3.55-28.25,3.16-40.1" fill="none" stroke="#aa6f5b" stroke-linecap="round" stroke-linejoin="round" stroke-width="1.75"/><path d="M204.19,467.58c1.16,19.93,4.16,70.2,0,128" fill="none" stroke="#aa6f5b" stroke-linecap="round" stroke-linejoin="round" stroke-width="1.75"/><path d="M212.75,396c9-31.72,10.55-63.62,10.65-85.38" fill="none" stroke="#aa6f5b" stroke-linecap="round" stroke-linejoin="round" stroke-width="1.75"/><path d="M210.19,405.75a134.41,134.41,0,0,0,0,38.15c2.37,15.74,6.51,32.22,6.9,52.77s-.79,82-2.37,97-4.31,46.66-5.9,59.81.77,31.29,6.89,47,4.14,38.15,3.16,50.74-1.18,32.07-1.18,43.37" fill="none" stroke="#aa6f5b" stroke-linecap="round" stroke-linejoin="round" stroke-width="1.75"/><path d="M221.23,580.56c.79-14.44,1-80.55-.21-98.33s-5.7-33-6.87-53.14,4.91-33.15,9.45-50.37,4.34-58.8,4.54-68.06" fill="none" stroke="#aa6f5b" stroke-linecap="round" stroke-linejoin="round" stroke-width="1.75"/><path d="M233,310.66c0,14.72-.68,30.42-.68,45.63s-2.37,31.32-7.3,40.95-6.47,27-5,42.22,6.12,30.74,6.65,63.51,1.66,54.95,1.07,76.75-2.22,32.78-3.55,45-8.28,27.22-6.8,43.05,11.19,37.31,12.77,54.39-2.17,57.49-2,72.49" fill="none" stroke="#aa6f5b" stroke-linecap="round" stroke-linejoin="round" stroke-width="1.75"/><path d="M233.66,520.37c.2-6.85-.39-20-1.12-32s-.66-21.48,6.27-41.11,4.71-35.92,1.16-46.66-2-20.55-2-37.4,1-41,.64-52.51" fill="none" stroke="#aa6f5b" stroke-linecap="round" stroke-linejoin="round" stroke-width="1.75"/><path d="M243.33,367.79c-.59-20.55,1.17-41.31,1-57.14" fill="none" stroke="#aa6f5b" stroke-linecap="round" stroke-linejoin="round" stroke-width="1.75"/><path d="M243.33,377.24a83.24,83.24,0,0,0,3.74,25.55c4,13.05,1.92,30.14-2.37,42.77s-6.36,22.64-6.21,34.58,1.48,36.39.89,48.05.15,27.22-.3,42.08-2,35.69-2.63,47.77-.92,18.75,2,27.08,3.4,20.42-.44,34.44-.15,20.42,1.63,32.08a146.14,146.14,0,0,1,1.48,31.94c-.59,11.11-2.37,38-2.51,51.06" fill="none" stroke="#aa6f5b" stroke-linecap="round" stroke-linejoin="round" stroke-width="1.75"/><path d="M233.17,385.71s-.59,7.5,1,12.92" fill="none" stroke="#aa6f5b" stroke-linecap="round" stroke-linejoin="round" stroke-width="1.75"/><path d="M232.3,402.81c-5.19.86-7.57,9-8,21.22s3.81,22.17,6.27,21.53,6.9-4.16,7.2-20.26S236.07,402.19,232.3,402.81Z" fill="none" stroke="#aa6f5b" stroke-linecap="round" stroke-linejoin="round" stroke-width="1.75"/><path d="M232.9,426.72c.87-3.45,3.17-17-1.53-16.29s-3.08,22.44-.06,26.81" fill="none" stroke="#aa6f5b" stroke-linecap="round" stroke-linejoin="round" stroke-width="1.75"/><path d="M230.13,451.8s-.05-4.51-2.86-3.12,1.46,14.67,1.46,21.47" fill="none" stroke="#aa6f5b" stroke-linecap="round" stroke-linejoin="round" stroke-width="1.75"/><path d="M244.46,566.11s.83-16.48,1.23-38.89-2-48.7-1-60.55S253,445.94,255,422.79s-4.54-26.29-6.51-51.66.76-30.38.76-60.47" fill="none" stroke="#aa6f5b" stroke-linecap="round" stroke-linejoin="round" stroke-width="1.75"/><path d="M249.9,571.85c.46-10.74,2.3-34.44,1.91-55.92s-1.58-35.92,0-50,9.66-31.85,9.66-50.74-6.11-28.89-7.1-50.37,4.1-39.27,4.14-54.17" fill="none" stroke="#aa6f5b" stroke-linecap="round" stroke-linejoin="round" stroke-width="1.75"/><path d="M259,345.84c-.2,5.38.35,26.67,3.12,38.07" fill="none" stroke="#aa6f5b" stroke-linecap="round" stroke-linejoin="round" stroke-width="1.75"/><path d="M255.59,555c4.18-9.07,4.9-17.78,4.7-31.85s-3.16-35.55-1.58-55.57,8.48-42.75,8.88-62.75-3-31.11-3.94-52.4-.43-30.94-.79-41.77" fill="none" stroke="#aa6f5b" stroke-linecap="round" stroke-linejoin="round" stroke-width="1.75"/><path d="M271.92,310.66s.31,22.42,1.78,40.1c1.44,17.35,4.93,37.59,5.72,53.33s-3.75,29.07-7.3,48.33a170.46,170.46,0,0,0-1.42,52.4c1.93,16.11,1.22,25.74,0,41.29s-9,13-12.45,33.52,1.64,40.55,7,55.55,9.41,22.59,10.59,47.22-.79,33.33-1.58,54.07-2.37,45-2.37,58.18" fill="none" stroke="#aa6f5b" stroke-linecap="round" stroke-linejoin="round" stroke-width="1.75"/><path d="M255.84,567.22c7-9.63,10-25.55,10-43.52s-2.56-35.18-2-52.4,6.9-38.89,8.88-56.48-2.35-36.41-3.73-57.52-1.79-46.65-1.79-46.65" fill="none" stroke="#aa6f5b" stroke-linecap="round" stroke-linejoin="round" stroke-width="1.75"/><path d="M277.64,310.66c-.39,10.74.06,23.67,1.87,40.84,1.78,17,5.63,38.7,5.43,56.85s-4.34,36.48-8.49,53.33-.38,33.33,1,53.14-1.18,29.26-1,40.18,8.88,17,9.86,43.6S279,632,277.64,642.77s4.14,32,4.34,50.37-1.58,43.15-2.47,60-1.87,41.52-1.87,41.52" fill="none" stroke="#aa6f5b" stroke-linecap="round" stroke-linejoin="round" stroke-width="1.75"/><path d="M282.77,310.66s.26,17.42,1.89,38.25c1.6,20.51,5.81,46.66,6.2,65s-9.47,50.74-9.27,63.33,2.17,24.26,3.16,35-2,24.81-2,37.78,7.89,22.78,9.67,45.55-7.1,40.74-7.52,46.85-.17,20.74,1.49,41.85-.28,34.44-1.07,51.48S283,781,282.77,794.66" fill="none" stroke="#aa6f5b" stroke-linecap="round" stroke-linejoin="round" stroke-width="1.75"/><path d="M288.1,310.66c0,28.47,6.51,70.47,7.89,96.39s-5.13,37.78-6.9,55.74,2.37,37,2.56,47.77-2.56,23.89-2.76,36.95S298,578,298.55,597.59s-6.11,36.66-7.3,44.63-1.58,17.78,0,33.89,1.18,35.74,0,54.07-3,53.18-3.16,64.48" fill="none" stroke="#aa6f5b" stroke-linecap="round" stroke-linejoin="round" stroke-width="1.75"/><path d="M299.43,438.16c4-19.44,2.21-34.32,0-55.37-2.22-21.29-5.33-41-6.11-72.14" fill="none" stroke="#aa6f5b" stroke-linecap="round" stroke-linejoin="round" stroke-width="1.75"/><path d="M297.37,447.23c-1.38,7.59-3.94,16.3-2.76,27.78s5.2,32.22,4,45.37-3.63,23.15-2,32.68,8.11,23.4,7.51,48.69-7.1,39.08-7.5,44.87" fill="none" stroke="#aa6f5b" stroke-linecap="round" stroke-linejoin="round" stroke-width="1.75"/><path d="M126.07,322a95.55,95.55,0,0,0,1.08-11.35" fill="none" stroke="#aa6f5b" stroke-linecap="round" stroke-linejoin="round" stroke-width="1.75"/><path d="M252.77,323.35s.81-7.46.81-12.7" fill="none" stroke="#aa6f5b" stroke-linecap="round" stroke-linejoin="round" stroke-width="1.75"/></g></g><rect id="be1721d6-3d47-4dbd-bc28-dfea7460cb76" data-name="&lt;Rectangle&gt;" x="103.6" y="298.9" width="320.95" height="20.28" opacity="0.05"/><rect id="56be409c-2a87-4d58-a39a-5616a62a868a" data-name="&lt;Rectangle&gt;" x="91.65" y="298.9" width="344.84" height="11.41" rx="5.71" ry="5.71" fill="#b77d67"/><g opacity="0.05"><path id="80051867-a694-4ac7-b552-8d39408ff6cd" data-name="&lt;Path&gt;" d="M307.34,328.74h0c5.53,0,10,4.82,10,10.78v44.22c0,6-4.49,10.78-10,10.78h0c-5.53,0-10-4.82-10-10.78V339.52C297.32,333.57,301.8,328.74,307.34,328.74Z"/><path id="a852a05e-c1e7-4f91-80cd-080d1c897e4c" data-name="&lt;Path&gt;" d="M337.4,328.74h0c5.53,0,10,4.82,10,10.78v44.22c0,6-4.49,10.78-10,10.78h0c-5.53,0-10-4.82-10-10.78V339.52C327.38,333.57,331.87,328.74,337.4,328.74Z"/><path id="6f87439b-187d-4512-926e-946849f9b294" data-name="&lt;Path&gt;" d="M367.47,328.74h0c5.53,0,10,4.82,10,10.78v44.22c0,6-4.49,10.78-10,10.78h0c-5.53,0-10-4.82-10-10.78V339.52C357.45,333.57,361.93,328.74,367.47,328.74Z"/><path id="abfbe959-ec94-4a01-a63e-fb2418c8101c" data-name="&lt;Path&gt;" d="M397.53,328.74h0c5.53,0,10,4.82,10,10.78v44.22c0,6-4.49,10.78-10,10.78h0c-5.53,0-10-4.82-10-10.78V339.52C387.51,333.57,392,328.74,397.53,328.74Z"/><path id="5dab646c-7860-4f18-8c00-de91bec3203d" data-name="&lt;Path&gt;" d="M188.22,328.74h0c5.53,0,10,4.82,10,10.78v44.22c0,6-4.49,10.78-10,10.78h0c-5.53,0-10-4.82-10-10.78V339.52C178.2,333.57,182.68,328.74,188.22,328.74Z"/><path id="a1a629ac-7352-4b80-a16a-03abf36a0a36" data-name="&lt;Path&gt;" d="M218.28,328.74h0c5.53,0,10,4.82,10,10.78v44.22c0,6-4.49,10.78-10,10.78h0c-5.53,0-10-4.82-10-10.78V339.52C208.26,333.57,212.75,328.74,218.28,328.74Z"/><path id="a776558a-8497-43d7-8b71-e27b1d55606f" data-name="&lt;Path&gt;" d="M248.35,328.74h0c5.53,0,10,4.82,10,10.78v44.22c0,6-4.49,10.78-10,10.78h0c-5.53,0-10-4.82-10-10.78V339.52C238.33,333.57,242.81,328.74,248.35,328.74Z"/><path id="14de8caa-783a-4061-8ffa-4c3c168c034d" data-name="&lt;Path&gt;" d="M278.41,328.74h0c5.53,0,10,4.82,10,10.78v44.22c0,6-4.49,10.78-10,10.78h0c-5.53,0-10-4.82-10-10.78V339.52C268.39,333.57,272.88,328.74,278.41,328.74Z"/><path id="38306848-a06e-4cad-8067-f5fa9ed405d3" data-name="&lt;Path&gt;" d="M130.61,328.74h0c5.53,0,10,4.82,10,10.78v44.22c0,6-4.49,10.78-10,10.78h0c-5.53,0-10-4.82-10-10.78V339.52C120.59,333.57,125.08,328.74,130.61,328.74Z"/><path id="4cb61672-d796-4f98-9b82-38ed99ed2939" data-name="&lt;Path&gt;" d="M160.68,328.74h0c5.53,0,10,4.82,10,10.78v44.22c0,6-4.49,10.78-10,10.78h0c-5.53,0-10-4.82-10-10.78V339.52C150.66,333.57,155.14,328.74,160.68,328.74Z"/></g></g><g id="4b7d5294-90e8-4bea-98c5-d4433f5fe6de" data-name="&lt;Group&gt;"><rect id="23e6ecd0-c03b-4fc5-8514-e5729cfb8f73" data-name="&lt;Rectangle&gt;" x="111.98" y="217.07" width="120.67" height="81.83" rx="8.8" ry="8.8" fill="#e3e3e3"/><path id="94ace304-d262-477c-b102-0ea09bdaa802" data-name="&lt;Path&gt;" d="M180.57,258.74a7.74,7.74,0,0,1-3.91-7.13,7.86,7.86,0,0,1,.59-2.58,1.84,1.84,0,0,0-1-2.48h0a12.06,12.06,0,1,0,7.64,15.25v0a1.79,1.79,0,0,0-1.34-2.26A7.86,7.86,0,0,1,180.57,258.74Z" fill="#fff"/><g id="feebb83b-c72d-4d13-a937-0817087e229d" data-name="&lt;Group&gt;" opacity="0.3"><rect id="ec1fb4d6-418a-401d-9b5d-58c196f6b440" data-name="&lt;Rectangle&gt;" x="107.99" y="272.65" width="30.77" height="6.17" rx="3.08" ry="3.08" transform="translate(-152.35 399.11) rotate(-90)" fill="#fff"/><rect id="fdc43b2a-4b37-40a5-9587-ecb5debd5f19" data-name="&lt;Rectangle&gt;" x="120.1" y="248.97" width="6.55" height="6.17" rx="3.08" ry="3.08" transform="translate(-128.68 375.43) rotate(-90)" fill="#fff"/></g><path d="M223.76,217.07h-5.87a8.8,8.8,0,0,1,8.8,8.8V290.1a8.8,8.8,0,0,1-8.8,8.8h5.88a8.8,8.8,0,0,0,8.8-8.8V225.88A8.8,8.8,0,0,0,223.76,217.07Z" fill="#dbdbdb"/></g><g id="99596ef3-808e-41fe-a733-6b320f0059bc" data-name="&lt;Group&gt;"><rect id="9a9ae374-dd8f-4f27-9486-bb0ff112297f" data-name="&lt;Rectangle&gt;" x="118.24" y="113.8" width="40.03" height="36.64" transform="translate(9.94 -9.67) rotate(4.16)" fill="#ffbc00"/><rect id="4ef16bc0-acea-4491-bd2b-9452aaad44f9" data-name="&lt;Rectangle&gt;" x="119.29" y="113.84" width="40.03" height="7.77" transform="translate(8.9 -9.79) rotate(4.16)" fill="#fff" opacity="0.3"/></g><g id="811d2f8f-f151-43e3-8880-4eed4726e479" data-name="&lt;Group&gt;"><rect id="063399f9-6d58-4fe8-8658-61a25cc82c78" data-name="&lt;Rectangle&gt;" x="375.24" y="126.14" width="40.03" height="36.64" transform="translate(11.51 -28.27) rotate(4.16)" fill="#ffbc00"/><rect id="83014243-4b68-4118-9534-e016a13272c3" data-name="&lt;Rectangle&gt;" x="376.29" y="126.18" width="40.03" height="7.77" transform="translate(10.47 -28.39) rotate(4.16)" fill="#fff" opacity="0.3"/></g><g id="15b0a966-8b4d-4ef0-8ae5-aedd705f9577" data-name="&lt;Group&gt;"><rect id="5acbfdbd-3d80-4114-8bc3-9e9e48e7dd06" data-name="&lt;Rectangle&gt;" x="243.44" y="51.05" width="40.03" height="36.64" transform="translate(-7.61 42.05) rotate(-9)" fill="#ffbc00"/><rect id="4bb02962-ab9a-4cc9-a420-d7ca73ee0670" data-name="&lt;Rectangle&gt;" x="241.19" y="51.23" width="40.03" height="7.77" transform="translate(-5.4 41.52) rotate(-9)" fill="#fff" opacity="0.3"/></g><g id="648df762-3f86-4dc3-9710-b3846f573c5d" data-name="&lt;Group&gt;"><rect id="abbf2d19-9d7d-4ee2-9e56-2fbd8df8677e" data-name="&lt;Rectangle&gt;" x="184.28" y="94.56" width="40.03" height="36.64" transform="translate(8.6 -14.32) rotate(4.1)" fill="#fc982b"/><rect id="a5308227-5262-4830-8525-b130a4be18d5" data-name="&lt;Rectangle&gt;" x="185.31" y="94.6" width="40.03" height="7.77" transform="translate(7.57 -14.43) rotate(4.1)" fill="#fff" opacity="0.3"/></g><g id="9d319826-703a-4b1a-b49f-d890fdd15bcd" data-name="&lt;Group&gt;"><rect id="288e2812-bf07-4b92-a0ae-ecad14d01209" data-name="&lt;Rectangle&gt;" x="171.52" y="148.37" width="40.03" height="36.64" transform="translate(-6.81 8.16) rotate(-2.4)" fill="#fc982b"/><rect id="9c113697-2582-4c77-9214-00aec1f93439" data-name="&lt;Rectangle&gt;" x="170.92" y="148.38" width="40.03" height="7.77" transform="translate(-6.2 8.12) rotate(-2.4)" fill="#fff" opacity="0.3"/></g><g id="f609710b-36ff-42ee-b34a-115b8e2a172d" data-name="&lt;Group&gt;"><rect id="e815d6d7-7c2b-4565-8d8c-ea59d480ba08" data-name="&lt;Rectangle&gt;" x="247.31" y="108.54" width="40.03" height="36.64" fill="#ffb6f1"/><rect id="e14ecff2-5b77-4e79-8e0f-78204018e581" data-name="&lt;Rectangle&gt;" x="247.31" y="108.54" width="40.03" height="7.77" fill="#fff" opacity="0.3"/></g><g id="0eb8d526-1d72-4c0c-8387-c8670540a72a" data-name="&lt;Group&gt;"><rect id="c4575b89-0d11-4312-948a-b59fcf5fc314" data-name="&lt;Rectangle&gt;" x="326.65" y="177.59" width="40.03" height="36.64" transform="translate(24.62 -38.27) rotate(6.55)" fill="#ffb6f1"/><rect id="224d91e1-d104-48de-a750-35e1a8547ffe" data-name="&lt;Rectangle&gt;" x="328.29" y="177.69" width="40.03" height="7.77" transform="translate(22.99 -38.56) rotate(6.55)" fill="#fff" opacity="0.3"/></g><g id="b3bd14e4-3b1b-4a44-8ef3-7713601a930c" data-name="&lt;Group&gt;"><rect id="38ba5fa5-d78a-4973-bdae-b86db55ca869" data-name="&lt;Rectangle&gt;" x="313.42" y="109.99" width="40.03" height="36.64" transform="translate(-11.43 35) rotate(-5.91)" fill="#9be26d"/><rect id="c34a542a-cd03-4ea7-88a3-53317d22776e" data-name="&lt;Rectangle&gt;" x="311.93" y="110.06" width="40.03" height="7.77" transform="translate(-9.96 34.77) rotate(-5.91)" fill="#fff" opacity="0.3"/></g><g id="520a86e0-2665-49b7-a45c-6c76c67271eb" data-name="&lt;Group&gt;" opacity="0.1"><g id="8537e3c4-fd6e-4500-9a3c-498988c4e3d1" data-name="&lt;Group&gt;"><path id="0823d728-a679-4ea3-94c2-5ce383daa75a" data-name="&lt;Path&gt;" d="M135.07,159.18s1,19.53,26.09,17" fill="none" stroke="#000" stroke-linecap="round" stroke-miterlimit="10" stroke-width="2"/><g id="ba13ac21-38d6-4666-aee7-8f66099b2ce1" data-name="&lt;Group&gt;"><polygon id="9dccdc54-de78-4a30-ac12-17ec29e247a4" data-name="&lt;Path&gt;" points="157.59 181.3 156.7 180.49 160.71 176.13 156.07 172.46 156.81 171.52 162.46 175.99 157.59 181.3"/></g></g></g><g id="49fde133-a8ea-40c8-a0d5-ea97ab4c0414" data-name="&lt;Group&gt;" opacity="0.1"><path d="M324,96.59c-.71-5.37-4.93-25.56-27.86-23.15" fill="none" stroke="#000" stroke-linecap="round" stroke-miterlimit="10" stroke-width="2"/><polygon points="328.15 91.89 327.15 91.22 323.86 96.14 319.2 92.49 318.46 93.44 324.13 97.88 328.15 91.89"/></g><g id="df5879aa-9696-4853-8fc5-755fa6e0926d" data-name="&lt;Group&gt;" opacity="0.1"><g id="0af80ce1-8c21-43d5-9191-2cf555f46c18" data-name="&lt;Group&gt;"><path id="a20d37d0-0588-4a83-9c3e-48f371a700fe" data-name="&lt;Path&gt;" d="M377.81,199c4.46.27,19-.57,21.4-22.89" fill="none" stroke="#000" stroke-linecap="round" stroke-miterlimit="10" stroke-width="2"/><g id="561251db-3144-4842-a29d-e2b44409f936" data-name="&lt;Group&gt;"><polygon id="2b49a1b3-1065-4993-b5f7-6e0055f3780a" data-name="&lt;Path&gt;" points="381.72 203.85 382.55 202.98 378.28 198.89 382.67 194.93 381.87 194.03 376.52 198.86 381.72 203.85"/></g></g></g><rect id="b19c4b3d-64b5-4e40-8432-956bc17b7c58" data-name="&lt;Rectangle&gt;" x="342.13" y="235.87" width="32.46" height="54.25" rx="5.5" ry="5.5" fill="#e3e3e3"/><path d="M369.82,290.06l-.35,0Z" fill="#dbdbdb"/><path d="M342.19,285.35c0-.12,0-.23,0-.35Q342.17,285.17,342.19,285.35Z" fill="#dbdbdb"/><path d="M347.25,290.09l-.35,0Z" fill="#dbdbdb"/><path d="M369.09,235.87H347.64a5.5,5.5,0,0,0-5.5,5.5v3.53a5.31,5.31,0,0,1,5.31-5.31h21.83a5.31,5.31,0,0,1,5.31,5.31v-3.53A5.5,5.5,0,0,0,369.09,235.87Z" fill="#dbdbdb"/><path d="M374.57,285c0,.12,0,.23,0,.35Q374.56,285.17,374.57,285Z" fill="#dbdbdb"/><path id="158a9cb6-b8e7-4c9e-bfa8-b35988d6668a" data-name="&lt;Path&gt;" d="M362.45,253.56a4,4,0,0,1-1.5-5,.83.83,0,0,0-.42-1.14,5.7,5.7,0,0,0-4.15.15,6.09,6.09,0,0,0,.23,11.67,5.71,5.71,0,0,0,4-.38c2.35-1.08,3.32-2.38,3.74-3.72a.83.83,0,0,0-.64-1.06A4.08,4.08,0,0,1,362.45,253.56Z" fill="#fff"/><g id="771e6af9-7ed6-46fb-b792-5584b41113c5" data-name="&lt;Group&gt;" opacity="0.3"><rect id="7869f478-aa08-415d-8286-89e4f3e99f4d" data-name="&lt;Rectangle&gt;" x="339.53" y="273.18" width="18.91" height="3.79" rx="1.89" ry="1.89" transform="translate(73.91 624.05) rotate(-90)" fill="#fff"/><rect id="29828dfd-37a7-4115-b994-37e1bfa33dd3" data-name="&lt;Rectangle&gt;" x="346.97" y="258.62" width="4.02" height="3.79" rx="1.89" ry="1.89" transform="translate(88.46 609.5) rotate(-90)" fill="#fff"/></g><rect id="6920a1cd-4cf5-477c-9692-e44e5ed2155f" data-name="&lt;Rectangle&gt;" x="337.68" y="290.11" width="41.37" height="8.84" rx="1.93" ry="1.93" fill="#d1d1d1"/><g id="d99f0410-4297-4193-b161-070c53b93028" data-name="&lt;Group&gt;"><path id="be5a56f0-b093-4a95-99aa-146b4436797d" data-name="&lt;Rectangle&gt;" d="M286.79,280h6.94a10.15,10.15,0,0,1,10.15,10.15v8.79a0,0,0,0,1,0,0H276.64a0,0,0,0,1,0,0v-8.79A10.15,10.15,0,0,1,286.79,280Z" fill="#feccae"/><rect id="4d005390-abef-4bf5-99f7-ed784951c528" data-name="&lt;Rectangle&gt;" x="267.96" y="288.25" width="27.12" height="10.66" rx="4.84" ry="4.84" fill="#fff"/></g><rect id="9745a1c0-b222-4368-b3cf-ee6b75313991" data-name="&lt;Rectangle&gt;" x="418.84" y="255.33" width="29.86" height="7.92" rx="3.96" ry="3.96" opacity="0.05"/><rect id="c18a3d14-9f8b-40d0-ac0f-2cde551ce0bd" data-name="&lt;Rectangle&gt;" x="400.39" y="267.27" width="29.86" height="7.92" rx="3.96" ry="3.96" opacity="0.05"/><rect id="1a185b0e-c989-4610-b73d-ca69e19f3568" data-name="&lt;Rectangle&gt;" x="55.32" y="185.98" width="29.86" height="7.92" rx="3.96" ry="3.96" opacity="0.05"/><rect id="60ee5ff9-481c-4305-b3e3-aa8876adc0a2" data-name="&lt;Rectangle&gt;" x="90.44" y="185.98" width="29.86" height="7.92" rx="3.96" ry="3.96" opacity="0.05"/><rect id="dfca584a-1e4a-4f4c-9fba-deeaab662a36" data-name="&lt;Rectangle&gt;" x="71.99" y="197.92" width="29.86" height="7.92" rx="3.96" ry="3.96" opacity="0.05"/></svg>