<svg id="Layer_1" data-name="Layer 1" xmlns="http://www.w3.org/2000/svg" viewBox="0 0 460 420">
  <title>1</title>
  <g>
    <path d="M257.1951,301.5253H202.67c-.5341-11.9011-2.7635-9.5347-4.0028-19.75l-2.1053-23.7561h66.7411l-2.1053,23.7561C260.4139,291.961,259.0823,288.4369,257.1951,301.5253Z" style="fill: #3a3a3a"/>
    <polygon points="256.814 310.019 203.051 310.019 200.783 259.473 259.082 259.473 256.814 310.019" style="fill: #3a3a3a"/>
    <path d="M240.301,218.6231l-10.3683,1.0255-10.3683-1.0255-17.9012,3.8761a11.5668,11.5668,0,0,0-8.9994,11.3809v28.2967a8.53,8.53,0,0,0,8.7108,8.3372h23.9834a4.6449,4.6449,0,0,0,3.57-1.64,1.3248,1.3248,0,0,1,2.01,0,4.6449,4.6449,0,0,0,3.57,1.64h23.9834a8.53,8.53,0,0,0,8.7108-8.3372V233.88a11.5668,11.5668,0,0,0-8.9994-11.3809Z" style="fill: #3a3a3a"/>
    <ellipse cx="229.6922" cy="226.3083" rx="14.1832" ry="9.5171" style="fill: #424242"/>
    <path d="M219.2683,213.9176h21.3288a0,0,0,0,1,0,0v8.1343a8.467,8.467,0,0,1-8.467,8.467h-4.3948a8.467,8.467,0,0,1-8.467-8.467v-8.1343A0,0,0,0,1,219.2683,213.9176Z" style="fill: #f9bfa2"/>
    <polygon points="188.621 285.22 167.726 282.404 171.13 260.608 192.025 263.425 188.621 285.22" style="fill: #feccae"/>
    <polygon points="271.379 285.22 292.274 282.404 288.87 260.608 267.975 263.425 271.379 285.22" style="fill: #feccae"/>
    <polygon points="185.747 328.899 170.914 328.899 167.726 282.404 188.621 285.22 185.747 328.899" style="fill: #feccae"/>
    <path d="M186.8878,347.22l-14.4963-2.0536a3.9961,3.9961,0,0,1-3.417-4.3413l1.5531-16.0566,15.6362-2.1482,3.7436,3.1967a5.6039,5.6039,0,0,1,1.8981,3.3987l1.56,10.0086a3.9961,3.9961,0,0,1-.4842,2.6072l-1.9687,3.4238A3.9961,3.9961,0,0,1,186.8878,347.22Z" style="fill: #feccae"/>
    <polygon points="274.253 328.899 289.086 328.899 292.274 282.404 271.379 285.22 274.253 328.899" style="fill: #feccae"/>
    <path d="M273.1122,347.22l14.4963-2.0536a3.9961,3.9961,0,0,0,3.417-4.3413l-1.5531-16.0566-15.6362-2.1482-3.7436,3.1967a5.6039,5.6039,0,0,0-1.8981,3.3987l-1.56,10.0086a3.9961,3.9961,0,0,0,.4842,2.6072l1.9687,3.4238A3.9961,3.9961,0,0,0,273.1122,347.22Z" style="fill: #feccae"/>
    <path d="M211.282,369.0385h-2.7048c-5.6209,0-10.1776-4.9287-10.1776-11.0086V328.1166a24.8,24.8,0,0,1,2.7613-11.4137l.615-1.1839h25.3883V351.86C227.1641,361.3473,220.0534,369.0385,211.282,369.0385Z" style="fill: #424242"/>
    <path d="M248.1991,369.0384H250.93c5.6751,0,10.2757-4.9287,10.2757-11.0086V328.1166a24.6093,24.6093,0,0,0-2.7879-11.4137l-.6209-1.1839H232.164V351.86C232.164,361.3472,239.3432,369.0384,248.1991,369.0384Z" style="fill: #424242"/>
    <path d="M257.25,315.5189H202.6969a1.4871,1.4871,0,0,1-1.4582-1.7786l1.6168-8.089H257.01l1.6959,8.0749A1.4871,1.4871,0,0,1,257.25,315.5189Z" style="fill: #3a3a3a"/>
    <polygon points="266.929 263.566 288.87 260.608 284.829 234.788 262.889 237.745 266.929 263.566" style="fill: #3a3a3a"/>
    <path d="M267.9749,263.4248l21.9563-2.96a1.5714,1.5714,0,0,0,1.3424-1.8015l-.5748-3.6552a1.5714,1.5714,0,0,0-1.7623-1.3132l-22.0927,2.9779Z" style="fill: #3f3f3f"/>
    <polygon points="194.627 263.775 171.13 260.608 175.21 234.793 198.706 237.96 194.627 263.775" style="fill: #3a3a3a"/>
    <path d="M173.3934,247.7756l24.038,3.24,3.24-24.038-12.4932-1.8187a18.2029,18.2029,0,0,0-8.0493,1.1129,12.7858,12.7858,0,0,0-6.8776,11.7191Z" style="fill: #3a3a3a"/>
    <path d="M286.6066,247.7756l-24.038,3.24-3.24-24.038,12.4932-1.8187a18.2029,18.2029,0,0,1,8.0493,1.1129,12.7858,12.7858,0,0,1,6.8776,11.7191Z" style="fill: #3a3a3a"/>
    <rect x="222.5194" y="315.5189" width="14.2263" height="22.9444" style="fill: #424242"/>
    <g>
      <line x1="172.2382" y1="294.124" x2="179.2991" y2="293.4973" style="fill: none;stroke: #efb49a;stroke-linecap: round;stroke-miterlimit: 10"/>
      <line x1="172.4129" y1="298.7413" x2="179.4737" y2="298.1147" style="fill: none;stroke: #efb49a;stroke-linecap: round;stroke-miterlimit: 10"/>
      <line x1="172.6052" y1="303.3591" x2="179.666" y2="302.7325" style="fill: none;stroke: #efb49a;stroke-linecap: round;stroke-miterlimit: 10"/>
    </g>
    <g>
      <line x1="287.9005" y1="294.124" x2="280.8396" y2="293.4973" style="fill: none;stroke: #efb49a;stroke-linecap: round;stroke-miterlimit: 10"/>
      <line x1="287.7258" y1="298.7413" x2="280.665" y2="298.1147" style="fill: none;stroke: #efb49a;stroke-linecap: round;stroke-miterlimit: 10"/>
      <line x1="287.5335" y1="303.3591" x2="280.4726" y2="302.7325" style="fill: none;stroke: #efb49a;stroke-linecap: round;stroke-miterlimit: 10"/>
    </g>
    <path d="M232.9963,221.9208a3.1006,3.1006,0,0,1-6.2011,0" style="fill: none;stroke: #efb49a;stroke-linecap: round;stroke-miterlimit: 10"/>
    <path d="M192.2779,263.4248l-21.9563-2.96a1.5714,1.5714,0,0,1-1.3424-1.8015l.5748-3.6552a1.5714,1.5714,0,0,1,1.7623-1.3132l22.0927,2.9779Z" style="fill: #3f3f3f"/>
    <g>
      <path id="_Path_" data-name="&lt;Path&gt;" d="M230.0312,218.6232h-.0866c-7.8437,0-12.9123-3.037-17.3794-9.4016-3.2128-4.5774-6.0372-9.2707-5.0372-15.5168l-1-20.4105c-1-14.9308,9.9317-27.0346,23.4166-27.0346h.0866c13.4849,0,24.4166,12.1038,23.4166,27.0346l-1,20.4105c1,6.2461-1.8244,10.9393-5.0372,15.5168C242.9435,215.5861,237.875,218.6232,230.0312,218.6232Z" style="fill: #feccae"/>
      <path d="M242.8581,209.0653l7.9773-6,1-15.2332h0a8.9773,8.9773,0,0,0-8.9773,8.9773Z" style="fill: #f9bfa2"/>
      <path d="M217.1554,209.0348l-7.9773-6-1-15.2332h0a8.9773,8.9773,0,0,1,8.9773,8.9773Z" style="fill: #f9bfa2"/>
      <path id="_Path_2" data-name="&lt;Path&gt;" d="M213.5708,186.0357c.1367.8728,1.761,1.29,3.628.9314s3.27-1.3566,3.133-2.2294-1.761-1.29-3.628-.9314S213.4341,185.1629,213.5708,186.0357Z" style="fill: #f7afa4"/>
      <path id="_Path_3" data-name="&lt;Path&gt;" d="M246.0152,186.1919c-.1367.8728-1.761,1.29-3.628.9314s-3.27-1.3566-3.133-2.2294,1.761-1.29,3.628-.9314S246.1518,185.3191,246.0152,186.1919Z" style="fill: #f7afa4"/>
      <path d="M255.6257,176.2268h-2.183v10.6053h1.2449c1.8731,0,3.4855-1.8869,3.8521-4.5077l.1157-.8271C259.0368,178.77,257.5747,176.2268,255.6257,176.2268Z" style="fill: #f9bfa2"/>
      <path d="M204.345,176.2268h2.183v10.6053h-1.2449c-1.8731,0-3.4855-1.8869-3.8521-4.5077l-.1157-.8271C200.9339,178.77,202.396,176.2268,204.345,176.2268Z" style="fill: #f9bfa2"/>
      <path d="M218.2676,152.0146a8.1874,8.1874,0,0,1-5.3163-10.15h0a7.9037,7.9037,0,0,1,9.8842-5.4591Z" style="fill: #424242"/>
      <g>
        <path id="_Path_4" data-name="&lt;Path&gt;" d="M237.02,141.1957h-14.069c-9.6252,0-17.428,9.0715-17.428,20.2617v-1.9863l1,18.3726h3.3106l.7319-16.7278c0-2.1284,1.8749-3.5606,3.5552-2.7159l10.1507,5.1029a12.5623,12.5623,0,0,0,11.4281,0L245.85,158.4c1.68-.8447,3.5552.5875,3.5552,2.7159l.8175,16.7278h3.225l1-16.2564v-2.2462C254.4479,148.151,246.6451,141.1957,237.02,141.1957Z" style="fill: #3a3a3a"/>
        <polygon points="253.448 192.486 250.957 192.441 250.223 177.844 253.448 177.844 253.448 192.486" style="fill: #3a3a3a"/>
        <polygon points="206.523 192.486 209.019 192.441 209.833 177.844 206.523 177.844 206.523 192.486" style="fill: #3a3a3a"/>
      </g>
      <path d="M215.9748,134.9444l.0217,12.5817a5.7477,5.7477,0,0,0,1.6668,4.05l13.28,13.3014H215.9748c-6.698,0-12.1278-5.8081-12.1278-12.9727v-3.988C203.847,140.7525,209.2768,134.9444,215.9748,134.9444Z" style="fill: #3a3a3a"/>
      <path d="M242.8581,178.8179H216.9387l-2.1593-3.4329,8.8836-2.8658,3.0645,1.0246a9.9841,9.9841,0,0,0,6.3312,0l3.0658-1.0248,8.8128,2.9614Z" style="fill: #f9bfa2"/>
      <rect x="235.4334" y="172.9957" width="9.7864" height="2.3146" rx="1.0104" ry="1.0104" transform="translate(27.4571 -32.6627) rotate(8.2446)" style="fill: #3a3a3a"/>
      <path d="M229.9048,192.3027h0a2.93,2.93,0,0,1-2.7807-2.9139l-.6316-12.0566a2.9726,2.9726,0,0,1,2.7807-3.2733h1.2631a2.9726,2.9726,0,0,1,2.7807,3.2733l-.6316,12.0566A2.93,2.93,0,0,1,229.9048,192.3027Z" style="fill: #efb49a"/>
      <rect x="224.9817" y="188.0561" width="7.1219" height="3.9104" rx="1.7435" ry="1.7435" transform="translate(24.3915 -25.9941) rotate(6.8758)" style="fill: #efb49a"/>
      <path d="M209.718,145.4228s-1.749,13.7944,12.757,13.7944h5.1271" style="fill: none;stroke: #494949;stroke-linecap: round;stroke-miterlimit: 10;stroke-width: 1.5px"/>
      <path d="M216.9387,148.1591c1.934,5.6483,4.89,5.9726,12.7561,5.9726" style="fill: none;stroke: #424242;stroke-linecap: round;stroke-miterlimit: 10;stroke-width: 1.5px"/>
      <path d="M250.9569,192.441a13.2115,13.2115,0,0,1-2.8726,8.5923q-.1493.1941-.3017.3844a.9311.9311,0,0,1-1.603-.905,14.5491,14.5491,0,0,0,.6992-2.413,7.139,7.139,0,0,0-1.212-5.87,4.7719,4.7719,0,0,0-3.7436-1.7765h0a5.2947,5.2947,0,0,0-.9324.0842l-7.6985,1.2119a20.6,20.6,0,0,1-6.3411.0112l-8.0062-1.2316a5.769,5.769,0,0,0-.9134-.0735,4.8132,4.8132,0,0,0-3.8167,1.7876c-1.6251,2.0054-1.3554,4.723-1.05,6.1646a14.6951,14.6951,0,0,0,.5884,2.0334.9322.9322,0,0,1-1.5918.907q-.1353-.1591-.27-.3143c-2.8681-3.3064-3.0944-5.5237-2.8727-8.5923H206.528v1.2927c0,6.3357,2.908,11.0964,6.1909,15.74,4.3836,6.2,9.3423,9.1345,16.8266,9.5267v.0385c.1507,0,.2937-.0151.4425-.0193.1487.0042.2917.019.4425.0193V219c7.4843-.3922,12.4429-3.3268,16.8265-9.5267,3.2829-4.6431,6.1909-9.4038,6.1909-15.74V192.441Zm-9.41,1.3491a1.9972,1.9972,0,0,1,.3765-.0375c1.528,0,2.057,1.985,1.7178,3.71a12.3453,12.3453,0,0,1-1.618,4.0848l-1.288-5.2424a5.533,5.533,0,0,0-1.303-2.1825Zm-23.5151-.035a2.5653,2.5653,0,0,1,.4117.035l2.0235.3113a5.3254,5.3254,0,0,0-1.3671,2.2041l-1.2147,5.1443a12.1023,12.1023,0,0,1-1.4918-3.7266C216.0069,195.9,216.2593,193.7551,218.0313,193.7551Z" style="fill: #3a3a3a"/>
      <path d="M225.5547,211.021a1.817,1.817,0,1,1-3.6341,0" style="fill: none;stroke: #424242;stroke-linecap: round;stroke-miterlimit: 10"/>
      <path d="M231.7558,211.021a3.1006,3.1006,0,0,1-6.2011,0" style="fill: none;stroke: #424242;stroke-linecap: round;stroke-miterlimit: 10"/>
      <path id="_Path_5" data-name="&lt;Path&gt;" d="M232.44,207.6068h-4.9c-4.4769,0-9.9368-4.1689-11.1474-9.8836-.4143-1.9556-.0938-4.2823,2.05-3.9332l8.0061,1.2317a23.8985,23.8985,0,0,0,7.356-.0129l7.7413-1.2187c1.8164-.3491,2.46,1.8128,2.0943,3.673C242.4912,203.311,236.9848,207.6068,232.44,207.6068Z" style="fill: #fff"/>
      <path id="_Path_6" data-name="&lt;Path&gt;" d="M235.5749,201.3524H224.2606a.6726.6726,0,1,1,0-1.3453h11.3143a.6726.6726,0,1,1,0,1.3453Z" style="fill: #ededed"/>
      <path id="_Path_7" data-name="&lt;Path&gt;" d="M222.7826,180.3229a2.6965,2.6965,0,0,0-5.35,0" style="fill: none;stroke: #3a3a3a;stroke-linecap: round;stroke-miterlimit: 10;stroke-width: 1.47761615298211px"/>
      <path id="_Path_8" data-name="&lt;Path&gt;" d="M242.48,180.3229a2.6965,2.6965,0,0,0-5.35,0" style="fill: none;stroke: #3a3a3a;stroke-linecap: round;stroke-miterlimit: 10;stroke-width: 1.47761615298211px"/>
      <rect x="214.5676" y="172.9957" width="9.7864" height="2.3146" rx="1.0104" ry="1.0104" transform="translate(461.6268 315.0358) rotate(171.7554)" style="fill: #3a3a3a"/>
    </g>
  </g>
  <g id="_Group_" data-name="&lt;Group&gt;">
    <rect id="_Rectangle_" data-name="&lt;Rectangle&gt;" x="57.5782" y="374.3333" width="344.8436" height="16.7747" rx="8.012" ry="8.012" style="opacity: 0.08"/>
    <rect id="_Rectangle_2" data-name="&lt;Rectangle&gt;" x="69.5267" y="273.8307" width="320.9466" height="108.1693" style="fill: #b47860"/>
    <g style="opacity: 0.5">
      <path d="M348.8086,379.8405a6.2962,6.2962,0,0,0-3.7881-1.8232c-.0918,0-.1826.0049-.2715.0137a4.8692,4.8692,0,0,0-3.0937,2.0273A13.1739,13.1739,0,0,0,340.377,382H350.84A16.7125,16.7125,0,0,0,348.8086,379.8405Z" style="fill: none"/>
      <path d="M69.5269,347.3861v19.0948A64.6723,64.6723,0,0,0,69.5269,347.3861Z" style="fill: none"/>
      <path d="M199.7588,379.0065a1.61,1.61,0,0,0-1.0859-.4316,1.87,1.87,0,0,0-.3076.0264h-.001c-1.6045.2656-2.96,1.4135-4.053,3.3987h7.0669A6.3947,6.3947,0,0,0,199.7588,379.0065Z" style="fill: none"/>
      <path d="M390.4731,382v-4.7428q-.1729,2.3875-.3047,4.7428Z" style="fill: none"/>
      <path d="M70.2285,285.5661c.1738,10.4463,1.0234,30.2744,4.7588,45.6963,3.8877,16.05,3.8857,35.5381-.0068,49.6484-.0979.355-.1912.7271-.2871,1.0891h4.2a146.1941,146.1941,0,0,0,2.6528-23.9241c.19-14.4961-1.2236-24.8311-3.7314-37.7822-2.3115-11.9346-2.7637-21.7656-2.7637-34.7129a.875.875,0,0,1,1.75,0c0,12.8408.4473,22.583,2.7324,34.3809,2.5283,13.0625,3.9551,23.4912,3.7627,38.1377A147.2034,147.2034,0,0,1,80.6724,382h4.4038c.4009-2.8927.6765-5.6978.8105-8.4006a228.7782,228.7782,0,0,0-1.77-43.5459c-1.8682-14.3828-2.9316-34.8984-3.1631-44.4512a.8757.8757,0,0,1,.8535-.8965.8441.8441,0,0,1,.8965.8535c.23,9.5176,1.2891,29.9521,3.1494,44.27a230.5077,230.5077,0,0,1,1.7813,43.8564q-.1992,4.0184-.791,8.3147h4.2654c1.8374-16.6781.3369-31.8611-1.1238-46.5637l-.1514-1.5205c-1.4727-14.8594-3.1494-36.8447-3.3564-48.3193a.8749.8749,0,0,1,.8594-.8906h.0156a.8754.8754,0,0,1,.875.8594c.2061,11.4287,1.8789,33.3525,3.3486,48.1787l.15,1.52c1.4653,14.7381,2.97,29.9559,1.145,46.7366H97.06a128.0408,128.0408,0,0,0,1.2517-19.6848,275.23,275.23,0,0,0-2.5322-32.7139c-.6982-5.5762-1.3564-10.8428-1.6084-16.4717-.5205-11.6318,1.5244-17.418,3.0176-21.6436a21.6162,21.6162,0,0,0,1.52-5.96.8748.8748,0,0,1,1.7461.1094,23.21,23.21,0,0,1-1.6162,6.4336c-1.5254,4.3174-3.4238,9.69-2.9189,20.9824.249,5.56.9033,10.792,1.5967,16.333a276.6918,276.6918,0,0,1,2.5459,32.9014A129.6263,129.6263,0,0,1,98.8247,382h6.6414c-.43-6.7227-.4536-12.7786-.4719-18.4622-.0127-3.8535-.0244-7.4941-.1719-10.9678-.334-7.8252-1.7979-15.6768-3.2139-23.27-1.0732-5.7568-2.0879-11.1953-2.5049-16.1367-.6719-7.9619,1.4121-13.5078,3.25-18.3994,1.1748-3.1289,2.2852-6.083,2.47-9.2344a.8561.8561,0,0,1,.9238-.8223.875.875,0,0,1,.8232.9238c-.2,3.417-1.3555,6.4922-2.5781,9.748-1.7734,4.7188-3.7832,10.0684-3.1445,17.6377.41,4.8535,1.416,10.249,2.4814,15.9619,1.4268,7.6533,2.9023,15.5664,3.2412,23.5166.1494,3.5078.1611,7.165.1738,11.0371.0181,5.6833.041,11.7407.4761,18.467h4.498c-.2766-5.2712-.2573-10.7578-.2378-16.11a170.36,170.36,0,0,0-.4912-17.6611,120.4772,120.4772,0,0,0-3.4473-16.252c-1.5547-6.0322-3.1631-12.27-3.7031-17.9238-.6162-6.4473,1.5469-12.0879,3.6387-17.543,1.4727-3.8408,2.8633-7.4687,3.0645-10.9795a.8754.8754,0,1,1,1.748.1c-.2168,3.7832-1.6562,7.5342-3.1787,11.5068-2.02,5.2656-4.1074,10.7119-3.53,16.75.5273,5.5166,2.1172,11.6865,3.6563,17.6533a123.8364,123.8364,0,0,1,3.4922,16.499,171.46,171.46,0,0,1,.501,17.8564c-.02,5.3579-.04,10.8516.2388,16.1038h4.88c-.1809-2.1714-.2825-4.2756-.3223-6.4495-.2549-13.9336-.1553-23.92.3066-30.5312.3311-4.7432,2.0186-10.459,3.8047-16.5107a123.9516,123.9516,0,0,0,3.6016-14.1553c.9971-6.0605-.5908-11.7627-2.2715-17.8008a77.946,77.946,0,0,1-2.4668-10.8594.8754.8754,0,0,1,1.7363-.2246,76.68,76.68,0,0,0,2.416,10.6143c1.6582,5.9551,3.373,12.1133,2.3125,18.5537a125.2174,125.2174,0,0,1-3.6494,14.3672c-1.7588,5.958-3.42,11.585-3.7373,16.1367-.458,6.56-.5576,16.4971-.3027,30.3789.04,2.1818.1423,4.2937.3281,6.4807h3.6187c-.3057-2.8312-.5244-5.6174-.6128-8.3293-.57-17.5459,2.7148-27.9111,6.5176-39.9141.5332-1.6807,1.0781-3.4,1.627-5.1836,4.46-14.4961,7.6885-34.4639,7.6885-40.8506a.875.875,0,0,1,1.75,0c0,6.4932-3.2607,26.7236-7.7666,41.3652-.55,1.7881-1.0957,3.5117-1.63,5.1973-3.7549,11.85-6.998,22.083-6.4365,39.3291.0884,2.725.3088,5.53.6211,8.386h2.9253c-.4192-3.04-.7151-5.8878-.8218-8.5081-.6807-16.7344,4.9531-33.917,8.6807-45.2871l.5508-1.6826c3.916-11.9951,5.2891-29.14,5.9814-40.9922a.8745.8745,0,0,1,1.7461.1016c-.6973,11.9492-2.085,29.2451-6.0635,41.4336L137.93,328.75c-3.6885,11.251-9.2637,28.2529-8.5957,44.6719.1072,2.6277.4082,5.4983.8384,8.5784h3.9417c-.9729-15.6716.1787-28.9977,3.4846-40.3586,1.1338-3.8984,2.31-7.6016,3.4473-11.1836,4.4609-14.0459,8.3125-26.1768,7.5645-42.6953a.8749.8749,0,1,1,1.748-.08c.7627,16.83-3.1338,29.1-7.6445,43.3057-1.1338,3.5713-2.3066,7.2646-3.4355,11.1416-3.2571,11.1944-4.3843,24.3591-3.4111,39.87h3.7888c-.9758-19.8761,5.093-42.77,10.57-60.6467,6.4707-21.125,6.4707-26.6387,6.4707-35.7725a.875.875,0,0,1,1.75,0c0,9.2979,0,14.9092-6.5469,36.2842C146.4563,339.632,140.4221,362.3768,141.408,382h4.53c-.2832-2.4088-.4587-4.3376-.4844-5.6516-.2-10.2363,4.1514-27.2988,9.0186-45.3623,4.291-15.9277,8.1758-32.4482,7.5508-45.3633a.875.875,0,1,1,1.748-.084c.6367,13.1563-3.28,29.8369-7.6094,45.9023-4.832,17.9375-9.1543,34.8662-8.958,44.8721.0249,1.2805.2083,3.2412.499,5.6868h4.645c-.2119-2.7419-.3335-5.25-.3247-7.4358.0508-12.5273,3.7949-25.9775,7.417-38.9854.69-2.4785,1.373-4.9316,2.0205-7.3447,5.0947-18.9951,7.2686-31.751,7.2686-42.6533a.875.875,0,0,1,1.75,0c0,11.0645-2.1914,23.9561-7.3291,43.1064-.6484,2.418-1.333,4.877-2.0244,7.3613-3.5908,12.8955-7.3027,26.23-7.3525,38.5234-.009,2.1729.1145,4.68.33,7.428h4.5024c-.0449-.4248-.0881-.8386-.1279-1.2336-1.0391-10.27,2.5244-26.5928,6.5293-42.7031,1.0615-4.2676,2.3018-8.6182,3.501-12.8252,3.5752-12.541,7.2715-25.51,7.3711-39.6631a.875.875,0,1,1,1.75.0117c-.1016,14.3926-3.8311,27.4775-7.4385,40.1309-1.1953,4.1934-2.4307,8.5293-3.4844,12.7676-3.9678,15.957-7.5,32.1025-6.4883,42.1055.0454.4492.0947.9211.147,1.4094H168.95c.3318-5.8127,2.1147-13.5879,4.1836-22.5793a322.3758,322.3758,0,0,0,6.4492-33.8457l.44-3.623c2.24-18.377,3.0791-25.2529,2.71-36.3418a.8751.8751,0,0,1,.8447-.9043.9.9,0,0,1,.9043.8457c.373,11.2246-.47,18.1377-2.7217,36.6123l-.4414,3.6221a323.4036,323.4036,0,0,1-6.48,34.0273c-2.04,8.8644-3.7964,16.5315-4.1338,22.1868h4.3457c.0645-.4917.1292-.9788.1953-1.4446a.8749.8749,0,1,1,1.7324.2461c-.0549.3865-.1084.7939-.1621,1.1985h4.0024c1.1985-5.937,2.8708-11.5164,4.5942-17.24,1.0938-3.6309,2.2236-7.3848,3.2656-11.3389,3.92-14.8809,4.2842-48.416,4.4395-62.7354.0234-2.17.043-3.92.0684-5.123a.8848.8848,0,0,1,.8936-.8564.8756.8756,0,0,1,.8564.8936c-.0254,1.1992-.0449,2.9424-.0684,5.1045-.1562,14.3848-.5215,48.0713-4.498,63.1621-1.0488,3.9834-2.1836,7.7529-3.2812,11.3975-1.675,5.5636-3.3008,10.9885-4.4807,16.7366h4.0134a44.5685,44.5685,0,0,1,3.5054-10.2375c4.5088-8.8047,7.2012-23.9629,7.2012-40.5488,0-7.5937.1748-15.4053.3438-22.959.1689-7.5244.3438-15.3057.3359-22.6729a.8754.8754,0,0,1,.874-.876h.001a.8746.8746,0,0,1,.875.874c.0078,7.3887-.167,15.18-.3359,22.7139-.1689,7.5449-.3437,15.3457-.3437,22.92,0,16.85-2.7637,32.3066-7.3936,41.3457a42.0031,42.0031,0,0,0-3.24,9.4407h3.9324c1.42-3.0092,3.3208-4.7312,5.7017-5.1252h-.001a3.35,3.35,0,0,1,2.8242.8076A8.7809,8.7809,0,0,1,203.1748,382h3.605a64.5355,64.5355,0,0,0-1.7144-6.2317c-2.6924-8.1436-2.4912-15.6514-2.2129-26.041.0918-3.4443.1963-7.3477.1963-11.6377,0-7.2881.1934-15.958.3809-24.3428.249-11.1279.4834-21.6387.2607-28.1357a.8743.8743,0,0,1,.8438-.9043.8544.8544,0,0,1,.9043.8438c.2256,6.5469-.01,17.082-.2588,28.2354-.1875,8.375-.3809,17.0352-.3809,24.3037,0,4.3125-.1045,8.2295-.1973,11.6846-.2734,10.2129-.4707,17.5918,2.126,25.4453A66.3794,66.3794,0,0,1,208.5706,382h4.5911c-.28-1.3661-.6-2.7163-1.0015-4.0276a81.4082,81.4082,0,0,1-3.752-24.33c-.0078-.5527-.0156-1.0371-.0293-1.4521a.8765.8765,0,0,1,.8467-.9033.8476.8476,0,0,1,.9033.8467c.0137.4229.0205.918.0293,1.4834a79.7871,79.7871,0,0,0,3.6758,23.8438A45.9179,45.9179,0,0,1,214.948,382h5.0056a95.0151,95.0151,0,0,0-2.4253-12.0872,131.7749,131.7749,0,0,1-4.0225-23.7939,206.8538,206.8538,0,0,1-.125-32.8184c.4121-7.1475.8789-15.248.8789-27.72a.875.875,0,0,1,1.75,0c0,12.5225-.4687,20.6494-.8818,27.82a205.4918,205.4918,0,0,0,.1221,32.583,130.3334,130.3334,0,0,0,3.9775,23.51A94.9475,94.9475,0,0,1,221.7012,382h4.4106a137.2135,137.2135,0,0,0-2.8833-16.5051,140.9256,140.9256,0,0,1-3.8076-25.6992c-.58-12.64.94-24.1035,2.2832-34.2178a161.5271,161.5271,0,0,0,1.8584-20,.8742.8742,0,0,1,.875-.8721h.0029a.8754.8754,0,0,1,.8721.8779,162.8263,162.8263,0,0,1-1.874,20.2246c-1.332,10.042-2.8428,21.4229-2.27,33.9072a139.5536,139.5536,0,0,0,3.7686,25.4053A137.538,137.538,0,0,1,227.8716,382h4.6709c.0327-.7557.0786-1.5181.0933-2.2649.2246-11.4072-.7881-20.0059-1.8594-29.11-.8174-6.9414-1.6631-14.12-2.085-23.2354-.6182-13.34-.6318-22.2822-.6426-29.4668-.0068-4.4385-.0137-8.2725-.1475-12.3125a.8766.8766,0,0,1,.8457-.9043.91.91,0,0,1,.9033.8457c.1348,4.0684.1416,7.915.1484,12.3682.0107,7.168.0244,16.0879.6406,29.39.4189,9.0527,1.2607,16.1992,2.0742,23.11,1.0791,9.166,2.0986,17.8232,1.8721,29.3506-.0146.7358-.06,1.4861-.0918,2.23h3.9517c.1719-9.1583-.9463-18.7134-2.1216-28.7024-.7959-6.7559-1.6172-13.7422-2.0928-21.0088-1.3662-20.8887-1.7861-46.4385-1.79-46.6943a.8749.8749,0,0,1,.8613-.8887.9119.9119,0,0,1,.8887.8613c.0039.2549.4229,25.7627,1.7861,46.6084.4727,7.22,1.292,14.1836,2.084,20.918,1.1821,10.0409,2.3064,19.6475,2.1348,28.9065h4.5532c-.0081-.9749-.0291-1.954-.0786-2.9436-.4385-8.7549-1.749-19.1582-3.0156-29.22-1.0156-8.0625-2.0654-16.4-2.7021-24.084-1.4512-17.51-1.7754-39.9355-1.7783-40.16a.8755.8755,0,0,1,.8633-.8867.8892.8892,0,0,1,.8867.8633c.0029.2236.3262,22.59,1.7725,40.0391.6338,7.6465,1.6816,15.9648,2.6943,24.01,1.2705,10.0938,2.585,20.53,3.0273,29.3506.0513,1.02.0728,2.0283.0811,3.0315h3.6829c.0083-12.5725-1.8472-27.01-3.5061-39.8118-.7187-5.541-1.3965-10.7744-1.9111-15.6729a293.4115,293.4115,0,0,1-1.87-40.9668.899.899,0,0,1,.9063-.8418.8737.8737,0,0,1,.8418.9063,291.8552,291.8552,0,0,0,1.8623,40.7188c.5127,4.8779,1.1895,10.1016,1.9063,15.6318,1.665,12.8532,3.5283,27.35,3.5208,40.0364h3.8828c-.5837-9.61-1.8718-20.7072-3.1272-31.5139-1.0479-9.0156-2.1309-18.3389-2.7754-26.5879-1.61-20.6211-1.8867-38.13-1.89-38.3047a.8755.8755,0,0,1,.8623-.8877.8993.8993,0,0,1,.8877.8623c.0029.1738.2783,17.63,1.8838,38.1934.6426,8.2158,1.7236,17.5225,2.77,26.5225,1.2627,10.8693,2.5588,22.0325,3.1428,31.7161h3.6685c-.5557-10.4163-1.9363-23.4034-3.3992-37.1516-2.207-20.7578-4.49-42.2217-4.49-59.2676a.875.875,0,0,1,1.75,0c0,16.9531,2.2783,38.37,4.48,59.082,1.4668,13.7822,2.8506,26.8,3.4082,37.2656L262.79,382h3.88c-.34-6.7228-1.0635-13.696-1.8838-21.5393l-.2773-2.6533c-.5039-4.8428-1.043-9.5059-1.6133-14.4424-1.915-16.5674-3.8945-33.6982-4.501-57.7617a.8764.8764,0,0,1,.8525-.8975.85.85,0,0,1,.8975.8525c.6035,23.9854,2.5791,41.0771,4.4893,57.6064.5713,4.9414,1.11,9.6094,1.6152,14.4609l.2773,2.6523c.8271,7.9072,1.5564,14.9371,1.8975,21.7219h8.1q.3435-1.8138.707-3.6243c7.2451-35.7646,6.54-58.1816,5.918-77.96-.1621-5.1426-.3145-10-.3145-14.835a.875.875,0,0,1,1.75,0c0,4.8076.1523,9.6514.3135,14.78.625,19.873,1.334,42.3984-5.9521,78.3623-.2209,1.0909-.4312,2.1836-.6392,3.2766h5.6619c1.62-10.2383,2.9907-17.6042,3.0232-17.7776a.8753.8753,0,0,1,1.7207.3223c-.0322.1711-1.3752,7.3911-2.9722,17.4553h5.2856c7.6743-44.9566,5.9385-73.3785,4.5332-96.3655a.8737.8737,0,0,1,.8193-.9268.8886.8886,0,0,1,.9268.8193C298.7134,308.5547,300.45,337.0192,292.8,382h5.7061c.6648-4.5186,1.2766-9.7325,1.7742-16.0188,2.9072-36.73.0283-79.9092-.001-80.3408a.8747.8747,0,0,1,.8135-.9326.8848.8848,0,0,1,.9326.8135c.0293.4336,2.917,43.7412-.001,80.5986-.4917,6.2136-1.0937,11.3887-1.7485,15.88h3.7349c4.8286-34.4069,3.5254-84.5911,2.3984-96.3352a.8754.8754,0,0,1,.7871-.9551.8616.8616,0,0,1,.9551.7871c1.1289,11.7671,2.4346,61.9526-2.374,96.5032h3.8086c1.3318-8.4241,2.5027-16.0383,2.9883-20.6243,2.5723-24.3184.6-57.8779-.2432-72.208l-.2051-3.5381a.8754.8754,0,1,1,1.748-.0977l.2041,3.5332c.8447,14.373,2.8232,48.0332.2363,72.4941-.4846,4.5765-1.64,12.1016-2.9573,20.4407H317.33c.8376-7.9653,1.7017-16.2048,2.2327-25.9973a465.5794,465.5794,0,0,0-1.81-70.3193.8752.8752,0,1,1,1.7383-.2051,467.8057,467.8057,0,0,1,1.8193,70.62c-.53,9.7561-1.4248,18.3254-2.2212,25.9016h6.0447c.6345-5.6531,1.3555-11.2845,2.073-16.8782l.6055-4.7383c3.6973-29.1,1.77-56.5791-.0029-74.7178a.8752.8752,0,1,1,1.7422-.17c1.78,18.2227,3.7168,45.834-.0029,75.1084l-.6064,4.74c-.708,5.5205-1.4194,11.0779-2.0471,16.6555H330.86c.446-3.9978,1-8.15,1.6912-12.4768,5.248-32.85,1.51-83.37,1.4717-83.876a.8746.8746,0,0,1,1.7441-.1328c.0391.5088,3.793,51.2344-1.4873,84.2842-.6758,4.2295-1.2192,8.29-1.6592,12.2014h5.8279a15.0878,15.0878,0,0,1,1.845-3.04,6.5421,6.5421,0,0,1,4.2744-2.6689c1.6484-.1729,3.5078.5986,5.3867,2.2266A20.2665,20.2665,0,0,1,353.0654,382h5.13c-1.4116-5.5892-2.9595-10.8923-4.4839-16.0862a256.0824,256.0824,0,0,1-7.2539-29.0186c-2.4658-14.2236-2.3545-24.1152-2.2363-34.5889.0586-5.2041.1191-10.585-.1416-16.6885a.8745.8745,0,0,1,.8369-.9111.8541.8541,0,0,1,.9111.8369c.2627,6.15.2021,11.5557.1436,16.7822-.1172,10.3906-.2285,20.2051,2.2109,34.2705,1.8076,10.4219,4.4307,19.3613,7.209,28.8252C356.96,370.7663,358.5535,376.2259,360,382h3.5481c-1.5825-6.8485-3.3181-12.5454-4.9685-17.9553-2.499-8.1885-4.8584-15.9238-6.3916-26.2441-2.334-15.7129-1.8613-26.4883-1.4434-35.9961a154.15,154.15,0,0,0,.1406-16.1719.8746.8746,0,0,1,1.7461-.1035,155.1016,155.1016,0,0,1-.1387,16.3525c-.4141,9.4287-.8828,20.1143,1.4258,35.6611,1.5146,10.1924,3.8555,17.8662,6.335,25.9912,1.6931,5.5494,3.4753,11.3975,5.0925,18.4661h3.7859c-1.6958-9.1252-3.61-16.11-5.4907-22.9641-1.6084-5.8594-3.2705-11.918-4.7393-19.1533-2.3223-11.4424-3.7646-23.2344-3.7646-30.7725a.875.875,0,0,1,1.75,0c0,7.43,1.4287,19.0879,3.7295,30.4248,1.457,7.1768,3.1113,13.207,4.7119,19.0381,1.9141,6.9758,3.8635,14.0872,5.5845,23.427h2.9326c-1.4482-8.1859-3.2458-16.6709-5.481-25.74a382.8186,382.8186,0,0,1-10.207-70.6523.8758.8758,0,0,1,.8486-.9014.89.89,0,0,1,.9014.8486,380.7922,380.7922,0,0,0,10.1563,70.2871c2.2727,9.223,4.0962,17.8438,5.56,26.1584h3.6387c-1.5894-10.6448-3.57-21.4661-5.97-31.8625a383.961,383.961,0,0,1-8.76-64.5273.8751.8751,0,0,1,.8457-.9033c.01-.001.02-.001.03-.001a.8758.8758,0,0,1,.874.8457,381.8289,381.8289,0,0,0,8.7148,64.1924c2.429,10.5239,4.43,21.4822,6.0325,32.2561h2.9744c-.1445-16.8976-3.8872-24.3535-3.9287-24.4348a.8747.8747,0,0,1,1.5518-.8076c.18.3433,4,7.8823,4.13,25.2424h2.6577c.3323-6.0057.88-12.0183,1.519-18.9739.1711-1.86.353-3.8486.5386-5.9183v-83.277H69.5269v10.91A.8625.8625,0,0,1,70.2285,285.5661ZM345.21,355.195a.8688.8688,0,0,1,1.0381.6729c.8691,4.0771,5.2588,17.833,5.3027,17.9707a.8746.8746,0,1,1-1.666.5332c-.1826-.5693-4.4609-13.9775-5.3477-18.1387A.8746.8746,0,0,1,345.21,355.195Zm31.64-65.3818a.8635.8635,0,0,1,.9434.8008c.0254.3125,2.5879,31.457,6.0879,49.5313a.8753.8753,0,0,1-1.7187.332c-3.5176-18.1689-6.0879-49.4072-6.1133-49.7207A.8752.8752,0,0,1,376.85,289.8132Zm-5.5889-5.1074h.0254a.8761.8761,0,0,1,.875.85c.1846,6.293,1.6582,23.1289,3.9453,38.3691,4.1035,27.3389,7.6855,28.98,8.3623,29.0322a.7187.7187,0,0,0,.59-.2422c2.6387-2.6953,1.0313-19.1172-.5225-34.9971-1.1143-11.3838-2.2666-23.1543-2.1924-32.1436a.885.885,0,0,1,.8818-.8682.8755.8755,0,0,1,.8682.8818c-.0732,8.8975,1.0742,20.6211,2.1836,31.959,2.0166,20.6035,3.0254,33.335.0322,36.3926a2.4382,2.4382,0,0,1-1.7754.77c-.0654,0-.1318-.002-.1982-.0078-9.0654-.6895-13.7549-63.3242-13.9248-69.0947A.8764.8764,0,0,1,371.2607,284.7058ZM337.4355,373.93a195.937,195.937,0,0,0,3.0938-40.9014c-.1377-3.7666-.2617-8.9336-.3926-14.4043-.2881-12.0518-.6143-25.7109-1.249-32.9678a.8754.8754,0,1,1,1.7441-.1523c.6387,7.3115.9658,21.001,1.2549,33.0791.1309,5.4639.2539,10.626.3906,14.3809A197.8177,197.8177,0,0,1,339.15,374.28a.875.875,0,0,1-.8564.7.9017.9017,0,0,1-.1758-.0176A.8749.8749,0,0,1,337.4355,373.93Zm-14.4687-89.22a.874.874,0,0,1,.9629.7773c2.4561,23.1348,3.2793,41.46,2.5186,56.0254a.8752.8752,0,0,1-.873.8291c-.0156,0-.0312,0-.0469-.001a.8756.8756,0,0,1-.8281-.92c.7568-14.4717-.0654-32.707-2.5107-55.748A.8747.8747,0,0,1,322.9668,284.7106Zm-33.2637-.0049a.8748.8748,0,0,1,.875.875c0,5.1055.2813,9.7021.5791,14.57.6865,11.2246,1.541,25.1953-.5811,53.7422a.8754.8754,0,0,1-.8721.8105c-.0215,0-.0439-.001-.0654-.002a.8763.8763,0,0,1-.8086-.9375c2.1143-28.43,1.2637-42.334.58-53.5068-.2988-4.8945-.582-9.5186-.582-14.6768A.8748.8748,0,0,1,289.7031,284.7058Zm-11.834,0a.8615.8615,0,0,1,.8945.8555c.01.4463.9756,44.7461-.002,60.2207a.8749.8749,0,0,1-.8721.82c-.0186,0-.0371-.001-.0557-.002a.875.875,0,0,1-.8184-.9277c.9727-15.4023.0078-59.6279-.002-60.0723A.875.875,0,0,1,277.8691,284.7058Zm-5.5469,0h.0049a.875.875,0,0,1,.875.87c.0029.583.3535,58.4639,2.0957,68.1025,1.7871,9.8926-.9482,21.4512-1.0654,21.9385a.875.875,0,1,1-1.7012-.41c.0273-.1152,2.7656-11.6934,1.0439-21.2178-1.7686-9.7861-2.1094-66.0146-2.123-68.4033A.8748.8748,0,0,1,272.3223,284.7058Zm-6.0225,0a.8748.8748,0,0,1,.875.875c0,17.6885,1.1016,30.3486,2.377,45.0078.332,3.8125.6777,7.7891,1.0234,12.06a.8744.8744,0,0,1-.8018.9424c-.0234.002-.0479.0029-.0713.0029a.875.875,0,0,1-.8711-.8047c-.3457-4.2666-.6914-8.2393-1.0225-12.0488-1.2793-14.7-2.3838-27.3955-2.3838-45.1592A.8748.8748,0,0,1,266.3,284.7058Zm-40.457,36.09c-.1982,5.23.3564,26.5518,3.0986,37.8291a.8762.8762,0,0,1-.6436,1.0576.8959.8959,0,0,1-.208.0244.8767.8767,0,0,1-.85-.668c-2.7549-11.335-3.375-32.2666-3.1455-38.31a.8747.8747,0,1,1,1.748.0664Zm-7.2119-35.2129a.8754.8754,0,0,1,.873-.877h.002a.875.875,0,0,1,.875.873c.0088,5.2236-.8018,12.7178-.81,12.793a.8757.8757,0,0,1-.8691.78c-.0312,0-.0635-.002-.0957-.0049a.876.876,0,0,1-.7754-.9648C217.84,298.1081,218.64,290.7077,218.6309,285.5827Zm-9.7715,22.8457c.2959-8.2354.5752-16.0146.4893-22.8369a.8755.8755,0,0,1,.8643-.8857h.0107a.8751.8751,0,0,1,.875.8643c.0869,6.8643-.1934,14.6641-.4912,22.9219-.3984,11.0928-.8115,22.5625-.4785,34.2012a.8758.8758,0,0,1-.85.9h-.0254a.8748.8748,0,0,1-.875-.85C208.0449,331.0485,208.459,319.55,208.8594,308.4284Zm-7.8945,64.8691a.875.875,0,1,1-1.6758.5039c-1.6562-5.51-1.0957-12.9238-1.07-13.2363a.8747.8747,0,1,1,1.7441.1367C199.957,360.7761,199.4043,368.1061,200.9648,373.2976Zm-11.6338-88.5918a.8748.8748,0,0,1,.8711.8789c-.1533,32.9375-3.6484,60.9414-10.6836,85.6133a.8766.8766,0,0,1-.8418.6348.89.89,0,0,1-.24-.0332.8762.8762,0,0,1-.6016-1.082c6.9912-24.5156,10.4639-52.3652,10.6172-85.1406A.9078.9078,0,0,1,189.3311,284.7058Zm-10.666,26.21c-.8857,5.4629-2.8594,14.0371-4.7676,22.33-1.6006,6.9512-3.1113,13.5166-3.8271,17.5869-.51,2.9014-1.0762,5.73-1.624,8.4668-1.5068,7.5322-2.9307,14.6465-2.7871,21.36a.8756.8756,0,0,1-.8564.8936h-.0186a.8761.8761,0,0,1-.875-.8564c-.1465-6.9062,1.2949-14.1113,2.8213-21.74.5459-2.7266,1.11-5.5459,1.6172-8.4268.7227-4.1152,2.2393-10.7031,3.8438-17.6768,1.9023-8.2656,3.8691-16.8115,4.7471-22.2187a.8747.8747,0,0,1,1.7266.2813Zm-43.4531-25.501a.8752.8752,0,0,1,1.7188.3311,102.73,102.73,0,0,0-1.3906,12.5771.8752.8752,0,0,1-.873.8291c-.0156,0-.0312,0-.0469-.001a.875.875,0,0,1-.8281-.92A104.5928,104.5928,0,0,1,135.2119,285.4147Zm-6.1357,1.4326a.9114.9114,0,0,1,.8809.8691,38.547,38.547,0,0,0,1.2559,8.5586c1.791,7.9326,4.02,17.8037-5.5635,43.7832a.8765.8765,0,0,1-.8213.5723.888.888,0,0,1-.3027-.0537.8763.8763,0,0,1-.5186-1.124c9.4043-25.4932,7.33-34.6836,5.499-42.792a39.9583,39.9583,0,0,1-1.2988-8.9326A.8748.8748,0,0,1,129.0762,286.8474Zm-11.708,44.1992a.8747.8747,0,0,1-1.6484-.5859c.3994-1.124-.0713-1.52-.5264-1.7373a2.6466,2.6466,0,0,0-2.4795.1113,9.0381,9.0381,0,0,0,.9971,2.8047,24.02,24.02,0,0,1,2.2363,6.9189.8753.8753,0,0,1-1.7363.2227,22.5654,22.5654,0,0,0-2.0947-6.4229c-.7373-1.6348-1.27-2.8164-1.1221-3.8154a2.1153,2.1153,0,0,1,1.6074-1.6055,4.4255,4.4255,0,0,1,4.2559.8506A2.97,2.97,0,0,1,117.3682,331.0466Zm5.2158-14.8437c-.9717,5.623-2.8877,6.9063-6.8164,7.6543a5.1144,5.1144,0,0,1-.9541.0908,5.3308,5.3308,0,0,1-3.1787-1.0937c-2.1416-1.5723-3.6729-4.6729-4.0957-8.2959-.3613-3.1.251-5.6416,1.7725-7.3506a6.8584,6.8584,0,0,1,5.31-2.167,7.6227,7.6227,0,0,1,5.6406,2.9824A10.2013,10.2013,0,0,1,122.584,316.2028Zm-6.3672-28.8271-.1494-1.7168a.8746.8746,0,0,1,1.7422-.1562l.1514,1.7217c.53,6.1348,1.1318,13.0869,3.3086,16.4063a.875.875,0,0,1-1.2461,1.1875c-.0518-.0381-5.2363-3.7588-8.7119-2.0381a.8752.8752,0,0,1-.7773-1.5684c2.6563-1.3164,5.8359-.3223,8.001.72C117.1367,298.0036,116.6533,292.4216,116.2168,287.3757Zm-24.0137-1.7949a.875.875,0,0,1,1.75,0,94.8319,94.8319,0,0,1-1.0879,11.4863.8743.8743,0,0,1-.8633.7412.7838.7838,0,0,1-.1348-.0107.8737.8737,0,0,1-.73-.998A95.2994,95.2994,0,0,0,92.2031,285.5808Z" style="fill: none"/>
      <path d="M114.6211,306.7907a5.1032,5.1032,0,0,0-4.0029,1.58c-1.1621,1.3066-1.6387,3.4326-1.3408,5.9844.3623,3.1016,1.6621,5.8184,3.3926,7.0879a3.4592,3.4592,0,0,0,2.77.6953c3.1914-.6084,4.5752-1.3418,5.42-6.2344a8.4327,8.4327,0,0,0-1.9365-6.7539A5.9825,5.9825,0,0,0,114.6211,306.7907Zm4.4912,9.7793c-.35,2.2217-1.5645,3.7012-3.249,3.96a5.4736,5.4736,0,0,1-.8184.0645,3.4692,3.4692,0,0,1-2.3574-.8271c-1.5625-1.36-1.7412-4.02-1.7031-6.6895a.8534.8534,0,0,1,.8877-.8623.8749.8749,0,0,1,.8623.8877c-.0293,2.0156.0693,4.4443,1.1025,5.3438a2.0659,2.0659,0,0,0,1.7607.3525c1.2871-.1973,1.6777-1.8145,1.7852-2.501.3408-2.1611-.4-5.0283-2.0439-5.8516a.8748.8748,0,0,1,.7832-1.5645C118.5586,310.1022,119.5557,313.75,119.1123,316.57Z" style="fill: none"/>
      <path d="M73.2861,331.6745a172.0208,172.0208,0,0,1-3.7593-25.007V339.67c3.8325,12.4232,2.4812,24.01.7358,33.0274-.23,1.1858-.4783,2.4406-.7358,3.7394V382h3.3564c.1357-.5208.27-1.0475.41-1.554C77.1123,366.6,77.1094,347.4567,73.2861,331.6745Z" style="fill: none"/>
      <path d="M284.8975,300.361c-.1611-5.1289-.3135-9.9727-.3135-14.78a.875.875,0,0,0-1.75,0c0,4.835.1523,9.6924.3145,14.835.6221,19.7783,1.3271,42.1953-5.918,77.96q-.3666,1.81-.707,3.6243h1.7827c.208-1.093.4182-2.1857.6392-3.2766C286.2314,342.7595,285.5225,320.2341,284.8975,300.361Z" style="fill: #aa6f5b"/>
      <path d="M288.83,353.7643a.8763.8763,0,0,0,.8086.9375c.0215.001.0439.002.0654.002a.8754.8754,0,0,0,.8721-.8105c2.1221-28.5469,1.2676-42.5176.5811-53.7422-.2979-4.8682-.5791-9.4648-.5791-14.57a.875.875,0,0,0-1.75,0c0,5.1582.2832,9.7822.582,14.6768C290.0938,311.43,290.9443,325.3347,288.83,353.7643Z" style="fill: #aa6f5b"/>
      <path d="M288.0127,363.5231a.881.881,0,0,0-1.0215.6992c-.0325.1733-1.4028,7.5393-3.0232,17.7776H285.74c1.5969-10.0642,2.94-17.2842,2.9722-17.4553A.8755.8755,0,0,0,288.0127,363.5231Z" style="fill: #aa6f5b"/>
      <path d="M297.3047,285.527a.8886.8886,0,0,0-.9268-.8193.8737.8737,0,0,0-.8193.9268c1.4053,22.9869,3.1411,51.4089-4.5332,96.3655H292.8C300.45,337.0192,298.7134,308.5547,297.3047,285.527Z" style="fill: #aa6f5b"/>
      <path d="M302.0254,285.5212a.8848.8848,0,0,0-.9326-.8135.8747.8747,0,0,0-.8135.9326c.0293.4316,2.9082,43.61.001,80.3408-.4976,6.2863-1.1094,11.5-1.7742,16.0188h1.77c.6548-4.4915,1.2568-9.6665,1.7485-15.88C304.9424,329.2624,302.0547,285.9548,302.0254,285.5212Z" style="fill: #aa6f5b"/>
      <path d="M308.1514,285.4968a.8616.8616,0,0,0-.9551-.7871.8754.8754,0,0,0-.7871.9551c1.127,11.7441,2.43,61.9283-2.3984,96.3352h1.7666C310.5859,347.4493,309.28,297.2639,308.1514,285.4968Z" style="fill: #aa6f5b"/>
      <path d="M314.0781,289.0651l-.2041-3.5332a.8754.8754,0,1,0-1.748.0977l.2051,3.5381c.8428,14.33,2.8154,47.89.2432,72.208-.4856,4.5859-1.6565,12.2-2.9883,20.6243h1.7712c1.3176-8.3391,2.4727-15.8641,2.9573-20.4407C316.9014,337.0983,314.9229,303.4382,314.0781,289.0651Z" style="fill: #aa6f5b"/>
      <path d="M319.4912,285.4782a.8752.8752,0,1,0-1.7383.2051,465.5794,465.5794,0,0,1,1.81,70.3193c-.531,9.7925-1.395,18.032-2.2327,25.9973h1.76c.7964-7.5762,1.6917-16.1455,2.2212-25.9016A467.8057,467.8057,0,0,0,319.4912,285.4782Z" style="fill: #aa6f5b"/>
      <path d="M329.5488,360.6042c3.72-29.2744,1.7832-56.8857.0029-75.1084a.8752.8752,0,1,0-1.7422.17c1.7725,18.1387,3.7,45.6182.0029,74.7178l-.6055,4.7383c-.7175,5.5936-1.4385,11.2251-2.073,16.8782h1.7612c.6277-5.5776,1.3391-11.135,2.0471-16.6555Z" style="fill: #aa6f5b"/>
      <path d="M335.7666,285.5143a.8746.8746,0,0,0-1.7441.1328c.0381.5059,3.7764,51.0264-1.4717,83.876-.6914,4.3267-1.2451,8.479-1.6912,12.4768h1.76c.44-3.9113.9834-7.9719,1.6592-12.2014C339.56,336.7487,335.8057,286.0231,335.7666,285.5143Z" style="fill: #aa6f5b"/>
      <path d="M348.1826,336.5964c-2.4395-14.0654-2.3281-23.88-2.2109-34.2705.0586-5.2266.1191-10.6318-.1436-16.7822a.8541.8541,0,0,0-.9111-.8369.8745.8745,0,0,0-.8369.9111c.2607,6.1035.2,11.4844.1416,16.6885-.1182,10.4736-.2295,20.3652,2.2363,34.5889a256.0824,256.0824,0,0,0,7.2539,29.0186c1.5244,5.1938,3.0723,10.4969,4.4839,16.0862H360c-1.447-5.774-3.04-11.2336-4.6089-16.5784C352.6133,355.9577,349.99,347.0183,348.1826,336.5964Z" style="fill: #aa6f5b"/>
      <path d="M338.1182,374.9626a.9017.9017,0,0,0,.1758.0176.875.875,0,0,0,.8564-.7,197.8177,197.8177,0,0,0,3.127-41.3154c-.1367-3.7549-.26-8.917-.3906-14.3809-.2891-12.0781-.6162-25.7676-1.2549-33.0791a.8754.8754,0,1,0-1.7441.1523c.6348,7.2568.9609,20.916,1.249,32.9678.1309,5.4707.2549,10.6377.3926,14.4043a195.937,195.937,0,0,1-3.0937,40.9014A.8749.8749,0,0,0,338.1182,374.9626Z" style="fill: #aa6f5b"/>
      <path d="M349.8848,374.3718a.8746.8746,0,0,0,1.666-.5332c-.0439-.1377-4.4336-13.8936-5.3027-17.9707a.8747.8747,0,0,0-1.7109.3652C345.4238,360.3942,349.7021,373.8024,349.8848,374.3718Z" style="fill: #aa6f5b"/>
      <path d="M349.9541,378.5173c-1.8789-1.6279-3.7383-2.3994-5.3867-2.2266a6.5421,6.5421,0,0,0-4.2744,2.6689,15.0878,15.0878,0,0,0-1.845,3.04h1.929a13.1739,13.1739,0,0,1,1.2783-1.9417,4.8692,4.8692,0,0,1,3.0938-2.0273c.0889-.0088.18-.0137.2715-.0137a6.2962,6.2962,0,0,1,3.7881,1.8232A16.7125,16.7125,0,0,1,350.84,382h2.2256A20.2665,20.2665,0,0,0,349.9541,378.5173Z" style="fill: #aa6f5b"/>
      <path d="M353.9189,337.5427c-2.3086-15.5469-1.84-26.2324-1.4258-35.6611a155.1016,155.1016,0,0,0,.1387-16.3525.8746.8746,0,0,0-1.7461.1035,154.15,154.15,0,0,1-.1406,16.1719c-.418,9.5078-.8906,20.2832,1.4434,35.9961,1.5332,10.32,3.8926,18.0557,6.3916,26.2441,1.65,5.41,3.386,11.1068,4.9685,17.9553h1.7979c-1.6172-7.0686-3.3994-12.9166-5.0925-18.4661C357.7744,355.4089,355.4336,347.7351,353.9189,337.5427Z" style="fill: #aa6f5b"/>
      <path d="M360.6172,339.5349c-2.3008-11.3369-3.7295-22.9951-3.7295-30.4248a.875.875,0,0,0-1.75,0c0,7.5381,1.4424,19.33,3.7646,30.7725,1.4688,7.2354,3.1309,13.2939,4.7393,19.1533,1.88,6.8538,3.7949,13.8389,5.4907,22.9641h1.7813c-1.7209-9.34-3.67-16.4512-5.5845-23.427C363.7285,352.7419,362.0742,346.7116,360.6172,339.5349Z" style="fill: #aa6f5b"/>
      <path d="M359.9082,285.5544a.89.89,0,0,0-.9014-.8486.8758.8758,0,0,0-.8486.9014,382.8186,382.8186,0,0,0,10.207,70.6523c2.2351,9.07,4.0327,17.5546,5.481,25.74h1.7783c-1.4639-8.3147-3.2874-16.9354-5.56-26.1584A380.7922,380.7922,0,0,1,359.9082,285.5544Z" style="fill: #aa6f5b"/>
      <path d="M366.2832,285.5515a.8758.8758,0,0,0-.874-.8457c-.0107,0-.0205,0-.03.001a.8751.8751,0,0,0-.8457.9033,383.961,383.961,0,0,0,8.76,64.5273c2.4,10.3964,4.3809,21.2178,5.97,31.8625h1.7673c-1.6023-10.7739-3.6035-21.7322-6.0325-32.2561A381.8289,381.8289,0,0,1,366.2832,285.5515Z" style="fill: #aa6f5b"/>
      <path d="M384.3359,354.7009c.0664.0059.1328.0078.1982.0078a2.4382,2.4382,0,0,0,1.7754-.77c2.9932-3.0576,1.9844-15.7891-.0322-36.3926-1.1094-11.3379-2.2568-23.0615-2.1836-31.959a.8755.8755,0,0,0-.8682-.8818.885.885,0,0,0-.8818.8682c-.0742,8.9893,1.0781,20.76,2.1924,32.1436,1.5537,15.88,3.1611,32.3018.5225,34.9971a.7187.7187,0,0,1-.59.2422c-.6768-.0518-4.2588-1.6934-8.3623-29.0322-2.2871-15.24-3.7607-32.0762-3.9453-38.3691a.8761.8761,0,0,0-.875-.85h-.0254a.8764.8764,0,0,0-.85.9C370.5811,291.3767,375.2705,354.0114,384.3359,354.7009Z" style="fill: #aa6f5b"/>
      <path d="M383.0205,341.1862a.874.874,0,0,0,.86-1.041c-3.5-18.0742-6.0625-49.2187-6.0879-49.5312a.8635.8635,0,0,0-.9434-.8008.8752.8752,0,0,0-.8008.9434c.0254.3135,2.5957,31.5518,6.1133,49.7207A.8748.8748,0,0,0,383.0205,341.1862Z" style="fill: #aa6f5b"/>
      <path d="M380.45,356.3864a.8748.8748,0,0,0-.374,1.1787c.0415.0813,3.7842,7.5372,3.9287,24.4348h1.7529c-.13-17.36-3.95-24.8992-4.13-25.2424A.8715.8715,0,0,0,380.45,356.3864Z" style="fill: #aa6f5b"/>
      <path d="M388.4155,382h1.7529q.1315-2.3593.3047-4.7428V357.1077c-.1855,2.07-.3674,4.0581-.5386,5.9183C389.2959,369.9816,388.7478,375.9942,388.4155,382Z" style="fill: #aa6f5b"/>
      <path d="M324.7,341.4216a.8756.8756,0,0,0,.8281.92c.0156.001.0313.001.0469.001a.8752.8752,0,0,0,.873-.8291c.7607-14.5654-.0625-32.8906-2.5186-56.0254a.875.875,0,0,0-1.74.1855C324.6348,308.7145,325.457,326.95,324.7,341.4216Z" style="fill: #aa6f5b"/>
      <path d="M277.0156,345.6726a.875.875,0,0,0,.8184.9277c.0186.001.0371.002.0557.002a.8749.8749,0,0,0,.8721-.82c.9775-15.4746.0117-59.7744.002-60.2207a.8615.8615,0,0,0-.8945-.8555.875.875,0,0,0-.8555.8945C277.0234,286.0446,277.9883,330.27,277.0156,345.6726Z" style="fill: #aa6f5b"/>
      <path d="M272.5313,375.2067a.875.875,0,1,0,1.7012.41c.1172-.4873,2.8525-12.0459,1.0654-21.9385-1.7422-9.6387-2.0928-67.52-2.0957-68.1025a.875.875,0,0,0-.875-.87h-.0049a.8748.8748,0,0,0-.87.88c.0137,2.3887.3545,58.6172,2.123,68.4033C275.2969,363.5134,272.5586,375.0915,272.5313,375.2067Z" style="fill: #aa6f5b"/>
      <path d="M268.8311,342.7888a.875.875,0,0,0,.8711.8047c.0234,0,.0479-.001.0713-.0029a.8744.8744,0,0,0,.8018-.9424c-.3457-4.2705-.6914-8.2471-1.0234-12.06-1.2754-14.6592-2.377-27.3193-2.377-45.0078a.875.875,0,0,0-1.75,0c0,17.7637,1.1045,30.459,2.3838,45.1592C268.14,334.55,268.4854,338.5222,268.8311,342.7888Z" style="fill: #aa6f5b"/>
      <path d="M69.5269,339.67v7.7166a64.6723,64.6723,0,0,1,0,19.0948v9.9554c.2576-1.2988.5054-2.5536.7358-3.7394C72.0081,363.68,73.3594,352.0927,69.5269,339.67Z" style="fill: #aa6f5b"/>
      <path d="M74.9873,331.2624c-3.7354-15.4219-4.585-35.25-4.7588-45.6963a.8625.8625,0,0,0-.7017-.8258v21.9272a172.0208,172.0208,0,0,0,3.7593,25.007c3.8232,15.7822,3.8262,34.9258.0068,48.7715-.14.5065-.2739,1.0332-.41,1.554h1.81c.0959-.3621.1892-.7341.2871-1.0891C78.873,366.8,78.875,347.3122,74.9873,331.2624Z" style="fill: #aa6f5b"/>
      <path d="M79.5332,319.9616c-2.2852-11.7979-2.7324-21.54-2.7324-34.3809a.875.875,0,0,0-1.75,0c0,12.9473.4521,22.7783,2.7637,34.7129,2.5078,12.9512,3.9219,23.2861,3.7314,37.7822A146.1941,146.1941,0,0,1,78.8931,382h1.7793a147.2034,147.2034,0,0,0,2.6235-23.9006C83.4883,343.4528,82.0615,333.0241,79.5332,319.9616Z" style="fill: #aa6f5b"/>
      <path d="M85.8535,329.8288c-1.86-14.3174-2.9189-34.752-3.1494-44.27a.8441.8441,0,0,0-.8965-.8535.8757.8757,0,0,0-.8535.8965c.2314,9.5527,1.2949,30.0684,3.1631,44.4512a228.7782,228.7782,0,0,1,1.77,43.5459c-.134,2.7029-.41,5.5079-.8105,8.4006h1.7676q.5848-4.29.791-8.3147A230.5077,230.5077,0,0,0,85.8535,329.8288Z" style="fill: #aa6f5b"/>
      <path d="M91.7266,335.2634l-.15-1.52c-1.47-14.8262-3.1426-36.75-3.3486-48.1787a.8754.8754,0,0,0-.875-.8594h-.0156a.8749.8749,0,0,0-.8594.8906c.207,11.4746,1.8838,33.46,3.3564,48.3193l.1514,1.5205C91.446,350.1389,92.9465,365.3218,91.1091,382h1.7625C94.6968,365.2193,93.1919,350.0015,91.7266,335.2634Z" style="fill: #aa6f5b"/>
      <path d="M100.0615,362.2858a276.6918,276.6918,0,0,0-2.5459-32.9014c-.6934-5.541-1.3477-10.7734-1.5967-16.333-.5049-11.292,1.3936-16.665,2.9189-20.9824a23.21,23.21,0,0,0,1.6162-6.4336.8748.8748,0,0,0-1.7461-.1094,21.6162,21.6162,0,0,1-1.52,5.96c-1.4932,4.2256-3.5381,10.0117-3.0176,21.6436.252,5.6289.91,10.8955,1.6084,16.4717a275.23,275.23,0,0,1,2.5322,32.7139A128.0408,128.0408,0,0,1,97.06,382h1.7649A129.6263,129.6263,0,0,0,100.0615,362.2858Z" style="fill: #aa6f5b"/>
      <path d="M106.57,352.4958c-.3389-7.95-1.8145-15.8633-3.2412-23.5166-1.0654-5.7129-2.0713-11.1084-2.4814-15.9619-.6387-7.5693,1.3711-12.9189,3.1445-17.6377,1.2227-3.2559,2.3779-6.3311,2.5781-9.748a.875.875,0,0,0-.8232-.9238.8561.8561,0,0,0-.9238.8223c-.1846,3.1514-1.2949,6.1055-2.47,9.2344-1.8379,4.8916-3.9219,10.4375-3.25,18.3994.417,4.9414,1.4316,10.38,2.5049,16.1367,1.416,7.5928,2.88,15.4443,3.2139,23.27.1475,3.4736.1592,7.1143.1719,10.9678.0183,5.6836.042,11.74.4719,18.4622H107.22c-.4351-6.7263-.458-12.7837-.4761-18.467C106.7314,359.6608,106.72,356.0036,106.57,352.4958Z" style="fill: #aa6f5b"/>
      <path d="M113.23,365.8962a171.46,171.46,0,0,0-.501-17.8564,123.8364,123.8364,0,0,0-3.4922-16.499c-1.5391-5.9668-3.1289-12.1367-3.6562-17.6533-.5771-6.0381,1.5107-11.4844,3.53-16.75,1.5225-3.9727,2.9619-7.7236,3.1787-11.5068a.8754.8754,0,1,0-1.748-.1c-.2012,3.5107-1.5918,7.1387-3.0645,10.9795-2.0918,5.4551-4.2549,11.0957-3.6387,17.543.54,5.6543,2.1484,11.8916,3.7031,17.9238a120.4772,120.4772,0,0,1,3.4473,16.252A170.36,170.36,0,0,1,111.48,365.89c-.02,5.3518-.0388,10.8384.2378,16.11h1.751C113.19,376.7477,113.2107,371.2541,113.23,365.8962Z" style="fill: #aa6f5b"/>
      <path d="M110.5342,301.2116a.8752.8752,0,0,0,.7773,1.5684c3.4756-1.7207,8.66,2,8.7119,2.0381a.8751.8751,0,0,0,1.2461-1.1875c-2.1768-3.3193-2.7783-10.2715-3.3086-16.4062l-.1514-1.7217a.8746.8746,0,0,0-1.7422.1563l.1494,1.7168c.4365,5.0459.92,10.6279,2.3184,14.5557C116.37,300.8893,113.19,299.8952,110.5342,301.2116Z" style="fill: #aa6f5b"/>
      <path d="M114.6211,305.0407a6.8584,6.8584,0,0,0-5.31,2.167c-1.5215,1.709-2.1338,4.251-1.7725,7.3506.4229,3.623,1.9541,6.7236,4.0957,8.2959a5.3308,5.3308,0,0,0,3.1787,1.0938,5.1144,5.1144,0,0,0,.9541-.0908c3.9287-.748,5.8447-2.0312,6.8164-7.6543a10.2013,10.2013,0,0,0-2.3223-8.18A7.6227,7.6227,0,0,0,114.6211,305.0407Zm6.2383,10.8633c-.8447,4.8926-2.2285,5.626-5.42,6.2344a3.4592,3.4592,0,0,1-2.77-.6953c-1.73-1.27-3.03-3.9863-3.3926-7.0879-.2979-2.5518.1787-4.6777,1.3408-5.9844a5.1032,5.1032,0,0,1,4.0029-1.58,5.9825,5.9825,0,0,1,4.3018,2.3594A8.4327,8.4327,0,0,1,120.8594,315.904Z" style="fill: #aa6f5b"/>
      <path d="M116.1221,308.8825a.8748.8748,0,0,0-.7832,1.5645c1.6436.8232,2.3848,3.69,2.0439,5.8516-.1074.6865-.498,2.3037-1.7852,2.501a2.0659,2.0659,0,0,1-1.7607-.3525c-1.0332-.8994-1.1318-3.3281-1.1025-5.3437a.8749.8749,0,0,0-.8623-.8877.8534.8534,0,0,0-.8877.8623c-.0381,2.67.1406,5.3291,1.7031,6.6895a3.4692,3.4692,0,0,0,2.3574.8271,5.4736,5.4736,0,0,0,.8184-.0645c1.6846-.2588,2.8994-1.7383,3.249-3.96C119.5557,313.75,118.5586,310.1022,116.1221,308.8825Z" style="fill: #aa6f5b"/>
      <path d="M112.6016,326.9372a2.1153,2.1153,0,0,0-1.6074,1.6055c-.1475.999.3848,2.1807,1.1221,3.8154a22.5654,22.5654,0,0,1,2.0947,6.4229.8753.8753,0,0,0,1.7363-.2227,24.02,24.02,0,0,0-2.2363-6.9189,9.0381,9.0381,0,0,1-.9971-2.8047,2.6466,2.6466,0,0,1,2.4795-.1113c.4551.2178.9258.6133.5264,1.7373a.8747.8747,0,0,0,1.6484.5859,2.97,2.97,0,0,0-.5107-3.2588A4.4255,4.4255,0,0,0,112.6016,326.9372Z" style="fill: #aa6f5b"/>
      <path d="M120.08,345.14c.3174-4.5518,1.9785-10.1787,3.7373-16.1367a125.2174,125.2174,0,0,0,3.6494-14.3672c1.0605-6.44-.6543-12.5986-2.3125-18.5537a76.68,76.68,0,0,1-2.416-10.6143.8754.8754,0,0,0-1.7363.2246,77.946,77.946,0,0,0,2.4668,10.8594c1.6807,6.0381,3.2686,11.74,2.2715,17.8008a123.9516,123.9516,0,0,1-3.6016,14.1553c-1.7861,6.0518-3.4736,11.7676-3.8047,16.5107-.4619,6.6113-.5615,16.5977-.3066,30.5313.04,2.1738.1414,4.2781.3223,6.4495h1.7559c-.1858-2.187-.2883-4.299-.3281-6.4807C119.5225,361.6374,119.6221,351.7,120.08,345.14Z" style="fill: #aa6f5b"/>
      <path d="M124.0068,339.4528a.8763.8763,0,0,0,.5186,1.124.888.888,0,0,0,.3027.0537.8765.8765,0,0,0,.8213-.5723c9.583-25.9795,7.3545-35.8506,5.5635-43.7832a38.547,38.547,0,0,1-1.2559-8.5586.9114.9114,0,0,0-.8809-.8691.8748.8748,0,0,0-.8691.8809,39.9583,39.9583,0,0,0,1.2988,8.9326C131.3369,304.7692,133.4111,313.96,124.0068,339.4528Z" style="fill: #aa6f5b"/>
      <path d="M134.62,299.1511c.0156.001.0313.001.0469.001a.8752.8752,0,0,0,.873-.8291,102.73,102.73,0,0,1,1.3906-12.5771.8752.8752,0,0,0-1.7187-.3311,104.5928,104.5928,0,0,0-1.42,12.8164A.875.875,0,0,0,134.62,299.1511Z" style="fill: #aa6f5b"/>
      <path d="M131.2979,334.2849c.5342-1.6855,1.08-3.4092,1.63-5.1973,4.5059-14.6416,7.7666-34.8721,7.7666-41.3652a.875.875,0,0,0-1.75,0c0,6.3867-3.2285,26.3545-7.6885,40.8506-.5488,1.7832-1.0937,3.5029-1.627,5.1836-3.8027,12.0029-7.0879,22.3682-6.5176,39.9141.0884,2.7119.3071,5.4982.6128,8.3293h1.7583c-.3123-2.856-.5327-5.661-.6211-8.386C124.3,356.3679,127.543,346.1345,131.2979,334.2849Z" style="fill: #aa6f5b"/>
      <path d="M137.93,328.75l.5518-1.6846c3.9785-12.1885,5.3662-29.4844,6.0635-41.4336a.8745.8745,0,0,0-1.7461-.1016c-.6924,11.8525-2.0654,28.9971-5.9814,40.9922l-.5508,1.6826c-3.7275,11.37-9.3613,28.5527-8.6807,45.2871.1067,2.62.4026,5.4678.8218,8.5081h1.7646c-.43-3.08-.7312-5.9507-.8384-8.5784C128.666,357.0026,134.2412,340.0007,137.93,328.75Z" style="fill: #aa6f5b"/>
      <path d="M139.2783,342.13c1.1289-3.877,2.3018-7.57,3.4355-11.1416,4.5107-14.2061,8.4072-26.4756,7.6445-43.3057a.8749.8749,0,1,0-1.748.08c.748,16.5186-3.1035,28.6494-7.5645,42.6953-1.1377,3.582-2.3135,7.2852-3.4473,11.1836-3.3059,11.361-4.4575,24.687-3.4846,40.3586h1.7532C134.894,366.4887,136.0212,353.324,139.2783,342.13Z" style="fill: #aa6f5b"/>
      <path d="M151.8994,321.8649c6.5469-21.375,6.5469-26.9863,6.5469-36.2842a.875.875,0,0,0-1.75,0c0,9.1338,0,14.6475-6.4707,35.7725C144.749,339.23,138.68,362.1238,139.656,382h1.752C140.4221,362.3768,146.4563,339.632,151.8994,321.8649Z" style="fill: #aa6f5b"/>
      <path d="M156.1611,331.4411c4.3291-16.0654,8.2461-32.7461,7.6094-45.9023a.875.875,0,1,0-1.748.084c.625,12.915-3.26,29.4355-7.5508,45.3633-4.8672,18.0635-9.2187,35.126-9.0186,45.3623.0256,1.314.2012,3.2428.4844,5.6516h1.7646c-.2908-2.4456-.4741-4.4062-.499-5.6868C147.0068,366.3073,151.3291,349.3786,156.1611,331.4411Z" style="fill: #aa6f5b"/>
      <path d="M161.125,336.0485c.6914-2.4844,1.376-4.9434,2.0244-7.3613,5.1377-19.15,7.3291-32.042,7.3291-43.1064a.875.875,0,0,0-1.75,0c0,10.9023-2.1738,23.6582-7.2686,42.6533-.6475,2.4131-1.33,4.8662-2.0205,7.3447-3.6221,13.0078-7.3662,26.458-7.417,38.9854-.0088,2.1854.1128,4.6938.3247,7.4358h1.7549c-.2151-2.7478-.3386-5.2551-.33-7.428C153.8223,362.279,157.5342,348.944,161.125,336.0485Z" style="fill: #aa6f5b"/>
      <path d="M166.7051,338.4851c1.0537-4.2383,2.2891-8.5742,3.4844-12.7676,3.6074-12.6533,7.3369-25.7383,7.4385-40.1309a.875.875,0,1,0-1.75-.0117c-.1,14.1533-3.7959,27.1221-7.3711,39.6631-1.1992,4.207-2.4395,8.5576-3.501,12.8252-4.0049,16.11-7.5684,32.4336-6.5293,42.7031.04.395.083.8088.1279,1.2336h1.7593c-.0522-.4883-.1016-.96-.147-1.4094C159.2051,370.5876,162.7373,354.4421,166.7051,338.4851Z" style="fill: #aa6f5b"/>
      <path d="M176.9385,310.6345c-.8779,5.4072-2.8447,13.9531-4.7471,22.2188-1.6045,6.9736-3.1211,13.5615-3.8437,17.6768-.5068,2.8809-1.0713,5.7-1.6172,8.4268-1.5264,7.6289-2.9678,14.834-2.8213,21.74a.8761.8761,0,0,0,.875.8564h.0186a.8756.8756,0,0,0,.8564-.8936c-.1436-6.7139,1.28-13.8281,2.7871-21.36.5479-2.7363,1.1143-5.5654,1.624-8.4668.7158-4.07,2.2266-10.6357,3.8271-17.5869,1.9082-8.293,3.8818-16.8672,4.7676-22.33a.8747.8747,0,0,0-1.7266-.2812Z" style="fill: #aa6f5b"/>
      <path d="M181.3193,325.7858l.4414-3.6221c2.252-18.4746,3.0947-25.3877,2.7217-36.6123a.9.9,0,0,0-.9043-.8457.8751.8751,0,0,0-.8447.9043c.3691,11.0889-.47,17.9648-2.71,36.3418l-.44,3.623a322.3758,322.3758,0,0,1-6.4492,33.8457c-2.0688,8.9915-3.8518,16.7666-4.1836,22.5793h1.7549c.3374-5.6553,2.0942-13.3224,4.1338-22.1868A323.4036,323.4036,0,0,0,181.3193,325.7858Z" style="fill: #aa6f5b"/>
      <path d="M178.4365,371.8a.89.89,0,0,0,.24.0332.8766.8766,0,0,0,.8418-.6348c7.0352-24.6719,10.53-52.6758,10.6836-85.6133a.8748.8748,0,0,0-.8711-.8789.9078.9078,0,0,0-.8789.8711c-.1533,32.7754-3.626,60.625-10.6172,85.1406A.8762.8762,0,0,0,178.4365,371.8Z" style="fill: #aa6f5b"/>
      <path d="M176.2354,379.8122a.8779.8779,0,0,0-.9893.7432c-.0662.4658-.1309.9529-.1953,1.4446h1.7656c.0537-.4045.1072-.812.1621-1.1985A.8747.8747,0,0,0,176.2354,379.8122Z" style="fill: #aa6f5b"/>
      <path d="M190.37,353.8659c3.9766-15.0908,4.3418-48.7773,4.498-63.1621.0234-2.1621.043-3.9053.0684-5.1045a.8756.8756,0,0,0-.8564-.8936.8848.8848,0,0,0-.8936.8564c-.0254,1.2031-.0449,2.9531-.0684,5.123-.1553,14.3193-.52,47.8545-4.4395,62.7354-1.042,3.9541-2.1719,7.708-3.2656,11.3389-1.7234,5.7241-3.3958,11.3035-4.5942,17.24h1.7893c1.18-5.748,2.8057-11.173,4.4807-16.7366C188.1865,361.6188,189.3213,357.8493,190.37,353.8659Z" style="fill: #aa6f5b"/>
      <path d="M199.0781,331.2136c0-7.5742.1748-15.375.3438-22.92.1689-7.5342.3438-15.3252.3359-22.7139a.8746.8746,0,0,0-.875-.874h-.001a.8754.8754,0,0,0-.874.876c.0078,7.3672-.167,15.1484-.3359,22.6729-.1689,7.5537-.3437,15.3652-.3437,22.959,0,16.5859-2.6924,31.7441-7.2012,40.5488A44.5685,44.5685,0,0,0,186.6216,382h1.8235a42.0031,42.0031,0,0,1,3.24-9.4407C196.3145,363.52,199.0781,348.0632,199.0781,331.2136Z" style="fill: #aa6f5b"/>
      <path d="M204.6016,349.7741c.0928-3.4551.1973-7.3721.1973-11.6846,0-7.2686.1934-15.9287.3809-24.3037.249-11.1533.4844-21.6885.2588-28.2354a.8544.8544,0,0,0-.9043-.8437.8743.8743,0,0,0-.8437.9043c.2227,6.4971-.0117,17.0078-.2607,28.1357-.1875,8.3848-.3809,17.0547-.3809,24.3428,0,4.29-.1045,8.1934-.1963,11.6377-.2783,10.39-.4795,17.8975,2.2129,26.041A64.5355,64.5355,0,0,1,206.78,382h1.7908a66.3794,66.3794,0,0,0-1.843-6.7805C204.1309,367.3659,204.3281,359.987,204.6016,349.7741Z" style="fill: #aa6f5b"/>
      <path d="M209.2539,343.5935h.0254a.8758.8758,0,0,0,.85-.9c-.333-11.6387.08-23.1084.4785-34.2012.2979-8.2578.5781-16.0576.4912-22.9219a.8751.8751,0,0,0-.875-.8643h-.0107a.8755.8755,0,0,0-.8643.8857c.0859,6.8223-.1934,14.6016-.4893,22.8369-.4,11.1211-.8145,22.62-.48,34.3154A.8748.8748,0,0,0,209.2539,343.5935Z" style="fill: #aa6f5b"/>
      <path d="M210.1582,353.6169c-.0088-.5654-.0156-1.0605-.0293-1.4834a.8476.8476,0,0,0-.9033-.8467.8765.8765,0,0,0-.8467.9033c.0137.415.0215.8994.0293,1.4521a81.4082,81.4082,0,0,0,3.752,24.33c.4011,1.3113.7212,2.6615,1.0015,4.0276h1.7864a45.9179,45.9179,0,0,0-1.114-4.5393A79.7871,79.7871,0,0,1,210.1582,353.6169Z" style="fill: #aa6f5b"/>
      <path d="M199.1592,359.7614a.8691.8691,0,0,0-.94.8037c-.0254.3125-.5859,7.7266,1.07,13.2363a.875.875,0,0,0,1.6758-.5039c-1.5605-5.1914-1.0078-12.5215-1.002-12.5957A.8743.8743,0,0,0,199.1592,359.7614Z" style="fill: #aa6f5b"/>
      <path d="M198.0781,376.8747h.001c-2.3809.394-4.2812,2.1161-5.7017,5.1252h1.9338c1.0933-1.9852,2.4485-3.1331,4.053-3.3987h.001a1.87,1.87,0,0,1,.3076-.0264,1.61,1.61,0,0,1,1.0859.4316A6.3947,6.3947,0,0,1,201.3782,382h1.7966a8.7809,8.7809,0,0,0-2.2725-4.3176A3.35,3.35,0,0,0,198.0781,376.8747Z" style="fill: #aa6f5b"/>
      <path d="M215.25,345.9841a205.4918,205.4918,0,0,1-.1221-32.583c.4131-7.1709.8818-15.2979.8818-27.82a.875.875,0,0,0-1.75,0c0,12.4717-.4668,20.5723-.8789,27.72a206.8538,206.8538,0,0,0,.125,32.8184,131.7749,131.7749,0,0,0,4.0225,23.7939A95.0151,95.0151,0,0,1,219.9536,382h1.7476a94.9475,94.9475,0,0,0-2.4736-12.5061A130.3334,130.3334,0,0,1,215.25,345.9841Z" style="fill: #aa6f5b"/>
      <path d="M221.1689,339.7155c-.5732-12.4844.9375-23.8652,2.27-33.9072a162.8263,162.8263,0,0,0,1.874-20.2246.8754.8754,0,0,0-.8721-.8779h-.0029a.8742.8742,0,0,0-.875.8721,161.5271,161.5271,0,0,1-1.8584,20c-1.3428,10.1143-2.8633,21.5781-2.2832,34.2178a140.9256,140.9256,0,0,0,3.8076,25.6992A137.2135,137.2135,0,0,1,226.1118,382h1.76a137.538,137.538,0,0,0-2.9341-16.8792A139.5536,139.5536,0,0,1,221.1689,339.7155Z" style="fill: #aa6f5b"/>
      <path d="M224.0947,320.7292c-.2295,6.043.3906,26.9746,3.1455,38.31a.8767.8767,0,0,0,.85.668.8959.8959,0,0,0,.208-.0244.8762.8762,0,0,0,.6436-1.0576c-2.7422-11.2773-3.2969-32.5986-3.0986-37.8291a.8747.8747,0,1,0-1.748-.0664Z" style="fill: #aa6f5b"/>
      <path d="M232.5137,350.42c-.8135-6.9111-1.6553-14.0576-2.0742-23.11-.6162-13.3018-.63-22.2217-.6406-29.39-.0068-4.4531-.0137-8.3-.1484-12.3682a.91.91,0,0,0-.9033-.8457.8766.8766,0,0,0-.8457.9043c.1338,4.04.1406,7.874.1475,12.3125.0107,7.1846.0244,16.127.6426,29.4668.4219,9.1152,1.2676,16.2939,2.085,23.2354,1.0713,9.1045,2.084,17.7031,1.8594,29.11-.0146.7468-.0605,1.5092-.0933,2.2649h1.7515c.0317-.7437.0771-1.4939.0918-2.23C234.6123,368.2429,233.5928,359.5856,232.5137,350.42Z" style="fill: #aa6f5b"/>
      <path d="M243.1914,349.6179c-1.0127-8.0449-2.0605-16.3633-2.6943-24.01-1.4463-17.4492-1.77-39.8154-1.7725-40.0391a.8892.8892,0,0,0-.8867-.8633.8755.8755,0,0,0-.8633.8867c.0029.2246.3271,22.65,1.7783,40.16.6367,7.6836,1.6865,16.0215,2.7021,24.084,1.2666,10.0615,2.5771,20.4648,3.0156,29.22.05.99.0706,1.9688.0786,2.9436h1.75c-.0083-1.0032-.03-2.0114-.0811-3.0315C245.7764,370.1481,244.4619,359.7116,243.1914,349.6179Z" style="fill: #aa6f5b"/>
      <path d="M237.8613,353.0935c-.792-6.7344-1.6113-13.6982-2.084-20.918-1.3633-20.8457-1.7822-46.3535-1.7861-46.6084a.9119.9119,0,0,0-.8887-.8613.8749.8749,0,0,0-.8613.8887c.0039.2559.4238,25.8057,1.79,46.6943.4756,7.2666,1.2969,14.2529,2.0928,21.0088,1.1753,9.989,2.2935,19.5441,2.1216,28.7024h1.75C240.1677,372.7409,239.0435,363.1343,237.8613,353.0935Z" style="fill: #aa6f5b"/>
      <path d="M246.3057,326.3317a291.8552,291.8552,0,0,1-1.8623-40.7187.8737.8737,0,0,0-.8418-.9062.899.899,0,0,0-.9062.8418,293.4115,293.4115,0,0,0,1.87,40.9668c.5146,4.8984,1.1924,10.1318,1.9111,15.6729,1.6589,12.8021,3.5144,27.2393,3.5061,39.8118h1.75c.0076-12.686-1.8557-27.1832-3.5208-40.0364C247.4951,336.4333,246.8184,331.21,246.3057,326.3317Z" style="fill: #aa6f5b"/>
      <path d="M251.457,323.7614c-1.6055-20.5635-1.8809-38.02-1.8838-38.1934a.8993.8993,0,0,0-.8877-.8623.8755.8755,0,0,0-.8623.8877c.0029.1748.2793,17.6836,1.89,38.3047.6445,8.249,1.7275,17.5723,2.7754,26.5879,1.2554,10.8068,2.5435,21.9038,3.1272,31.5139h1.7539c-.584-9.6836-1.88-20.8467-3.1428-31.7161C253.1807,341.2839,252.1,331.9772,251.457,323.7614Z" style="fill: #aa6f5b"/>
      <path d="M259.3789,344.6628c-2.2021-20.7119-4.48-42.1289-4.48-59.082a.875.875,0,0,0-1.75,0c0,17.0459,2.2832,38.51,4.49,59.2676,1.4629,13.7482,2.8435,26.7354,3.3992,37.1516H262.79l-.0029-.0715C262.2295,371.4626,260.8457,358.445,259.3789,344.6628Z" style="fill: #aa6f5b"/>
      <path d="M266.249,357.6257c-.5049-4.8516-1.0439-9.52-1.6152-14.4609-1.91-16.5293-3.8857-33.6211-4.4893-57.6064a.85.85,0,0,0-.8975-.8525.8764.8764,0,0,0-.8525.8975c.6064,24.0635,2.5859,41.1943,4.501,57.7617.57,4.9365,1.1094,9.6,1.6133,14.4424l.2773,2.6533c.82,7.8433,1.5437,14.8165,1.8838,21.5393h1.7539c-.3411-6.7848-1.07-13.8147-1.8975-21.7219Z" style="fill: #aa6f5b"/>
      <path d="M91.8672,297.7976a.7838.7838,0,0,0,.1348.0107.8743.8743,0,0,0,.8633-.7412,94.8319,94.8319,0,0,0,1.0879-11.4863.875.875,0,0,0-1.75,0A95.2994,95.2994,0,0,1,91.1367,296.8.8737.8737,0,0,0,91.8672,297.7976Z" style="fill: #aa6f5b"/>
      <path d="M218.6064,299.1472c.0322.0029.0645.0049.0957.0049a.8757.8757,0,0,0,.8691-.78c.0078-.0752.8184-7.5693.81-12.793a.875.875,0,0,0-.875-.873h-.002a.8754.8754,0,0,0-.873.877c.0088,5.125-.791,12.5254-.8,12.6A.876.876,0,0,0,218.6064,299.1472Z" style="fill: #aa6f5b"/>
    </g>
    <rect id="_Rectangle_3" data-name="&lt;Rectangle&gt;" x="69.5267" y="273.8307" width="320.9466" height="20.2816" style="opacity: 0.05"/>
    <rect id="_Rectangle_4" data-name="&lt;Rectangle&gt;" x="57.5781" y="273.8307" width="344.8436" height="11.4123" rx="5.7061" ry="5.7061" style="fill: #b77d67"/>
    <path d="M396.7156,273.8307H63.2842a5.7061,5.7061,0,0,0-5.7061,5.7061h0a5.6721,5.6721,0,0,0,.8589,3,5.6967,5.6967,0,0,1,4.8472-2.7061H396.7156a5.6971,5.6971,0,0,1,4.8474,2.7061,5.6721,5.6721,0,0,0,.8589-3h0A5.7063,5.7063,0,0,0,396.7156,273.8307Z" style="fill: #c48c7a"/>
    <g style="opacity: 0.05">
      <path id="_Path_9" data-name="&lt;Path&gt;" d="M273.2644,303.6667h0c5.5341,0,10.02,4.8247,10.02,10.7762v44.2217c0,5.9515-4.4863,10.7762-10.02,10.7762h0c-5.5341,0-10.02-4.8247-10.02-10.7762V314.4429C263.244,308.4913,267.73,303.6667,273.2644,303.6667Z"/>
      <path id="_Path_10" data-name="&lt;Path&gt;" d="M303.33,303.6667h0c5.5341,0,10.02,4.8247,10.02,10.7762v44.2217c0,5.9515-4.4863,10.7762-10.02,10.7762h0c-5.5341,0-10.02-4.8247-10.02-10.7762V314.4429C293.3092,308.4913,297.7955,303.6667,303.33,303.6667Z"/>
      <path id="_Path_11" data-name="&lt;Path&gt;" d="M333.3949,303.6667h0c5.5341,0,10.02,4.8247,10.02,10.7762v44.2217c0,5.9515-4.4863,10.7762-10.02,10.7762h0c-5.5341,0-10.02-4.8247-10.02-10.7762V314.4429C323.3745,308.4913,327.8608,303.6667,333.3949,303.6667Z"/>
      <path id="_Path_12" data-name="&lt;Path&gt;" d="M363.46,303.6667h0c5.5341,0,10.02,4.8247,10.02,10.7762v44.2217c0,5.9515-4.4863,10.7762-10.02,10.7762h0c-5.5341,0-10.02-4.8247-10.02-10.7762V314.4429C353.44,308.4913,357.9261,303.6667,363.46,303.6667Z"/>
      <path id="_Path_13" data-name="&lt;Path&gt;" d="M154.142,303.6667h0c5.5341,0,10.02,4.8247,10.02,10.7762v44.2217c0,5.9515-4.4863,10.7762-10.02,10.7762h0c-5.5341,0-10.02-4.8247-10.02-10.7762V314.4429C144.1216,308.4913,148.6079,303.6667,154.142,303.6667Z"/>
      <path id="_Path_14" data-name="&lt;Path&gt;" d="M184.2073,303.6667h0c5.5341,0,10.02,4.8247,10.02,10.7762v44.2217c0,5.9515-4.4863,10.7762-10.02,10.7762h0c-5.5341,0-10.02-4.8247-10.02-10.7762V314.4429C174.1868,308.4913,178.6731,303.6667,184.2073,303.6667Z"/>
      <path id="_Path_15" data-name="&lt;Path&gt;" d="M214.2725,303.6667h0c5.5341,0,10.02,4.8247,10.02,10.7762v44.2217c0,5.9515-4.4863,10.7762-10.02,10.7762h0c-5.5341,0-10.02-4.8247-10.02-10.7762V314.4429C204.2521,308.4913,208.7384,303.6667,214.2725,303.6667Z"/>
      <path id="_Path_16" data-name="&lt;Path&gt;" d="M244.3378,303.6667h0c5.5341,0,10.02,4.8247,10.02,10.7762v44.2217c0,5.9515-4.4863,10.7762-10.02,10.7762h0c-5.5341,0-10.02-4.8247-10.02-10.7762V314.4429C234.3174,308.4913,238.8037,303.6667,244.3378,303.6667Z"/>
      <path id="_Path_17" data-name="&lt;Path&gt;" d="M96.54,303.6667h0c5.5341,0,10.02,4.8247,10.02,10.7762v44.2217c0,5.9515-4.4863,10.7762-10.02,10.7762h0c-5.5341,0-10.02-4.8247-10.02-10.7762V314.4429C86.5193,308.4913,91.0056,303.6667,96.54,303.6667Z"/>
      <path id="_Path_18" data-name="&lt;Path&gt;" d="M126.605,303.6667h0c5.5341,0,10.02,4.8247,10.02,10.7762v44.2217c0,5.9515-4.4863,10.7762-10.02,10.7762h0c-5.5341,0-10.02-4.8247-10.02-10.7762V314.4429C116.5846,308.4913,121.0709,303.6667,126.605,303.6667Z"/>
    </g>
  </g>
  <g id="_Group_2" data-name="&lt;Group&gt;">
    <rect id="_Rectangle_5" data-name="&lt;Rectangle&gt;" x="77.9106" y="192" width="120.6667" height="81.8307" rx="8.8011" ry="8.8011" style="fill: #e3e3e3"/>
    <g id="_Group_3" data-name="&lt;Group&gt;" style="opacity: 0.30000000000000004">
      <rect id="_Rectangle_6" data-name="&lt;Rectangle&gt;" x="73.9204" y="247.575" width="30.7653" height="6.1654" rx="3.0827" ry="3.0827" transform="translate(-161.3546 339.9608) rotate(-90)" style="fill: #fff"/>
      <rect id="_Rectangle_7" data-name="&lt;Rectangle&gt;" x="86.0292" y="223.8962" width="6.5478" height="6.1654" rx="3.0827" ry="3.0827" transform="translate(-137.6758 316.282) rotate(-90)" style="fill: #fff"/>
    </g>
    <path d="M189.6853,192H183.81a8.8011,8.8011,0,0,1,8.8011,8.801V265.03a8.8011,8.8011,0,0,1-8.8011,8.801h5.875a8.8011,8.8011,0,0,0,8.8011-8.801V200.801A8.8011,8.8011,0,0,0,189.6853,192Z" style="fill: #dbdbdb"/>
    <path id="_Path_19" data-name="&lt;Path&gt;" d="M146.2735,234.0891a6.6388,6.6388,0,0,1-3.2495-10.2463,10.4027,10.4027,0,1,0,5.2715,10.5847A6.6347,6.6347,0,0,1,146.2735,234.0891Z" style="fill: #b2b2b2"/>
    <path d="M134.986,229.6513a10.3163,10.3163,0,0,1,6.4592-6.5088c-.0374-.0129-.0718-.03-.1094-.0425a10.344,10.344,0,1,0,.0923,19.5883A10.3409,10.3409,0,0,1,134.986,229.6513Z" style="fill: #bfbfbf"/>
  </g>
  <g id="_Group_4" data-name="&lt;Group&gt;">
    <rect id="_Rectangle_8" data-name="&lt;Rectangle&gt;" x="84.1678" y="88.728" width="40.033" height="36.6409" transform="translate(8.034 -7.2706) rotate(4.157)" style="fill: #ffbc00"/>
    <rect id="_Rectangle_9" data-name="&lt;Rectangle&gt;" x="85.2143" y="88.766" width="40.033" height="7.7676" transform="translate(6.993 -7.3844) rotate(4.157)" style="fill: #fff;opacity: 0.30000000000000004"/>
  </g>
  <g id="_Group_5" data-name="&lt;Group&gt;">
    <rect id="_Rectangle_10" data-name="&lt;Rectangle&gt;" x="341.1678" y="101.0692" width="40.033" height="36.6409" transform="translate(9.6047 -25.868) rotate(4.157)" style="fill: #ffbc00"/>
    <rect id="_Rectangle_11" data-name="&lt;Rectangle&gt;" x="342.2143" y="101.1072" width="40.033" height="7.7676" transform="translate(8.5637 -25.9817) rotate(4.157)" style="fill: #fff;opacity: 0.30000000000000004"/>
  </g>
  <g id="_Group_6" data-name="&lt;Group&gt;">
    <rect id="_Rectangle_12" data-name="&lt;Rectangle&gt;" x="209.3709" y="25.9779" width="40.033" height="36.6409" transform="translate(-4.1052 36.416) rotate(-8.9967)" style="fill: #ffbc00"/>
    <rect id="_Rectangle_13" data-name="&lt;Rectangle&gt;" x="207.1133" y="26.1555" width="40.033" height="7.7676" transform="translate(-1.9032 35.8875) rotate(-8.9967)" style="fill: #fff;opacity: 0.30000000000000004"/>
  </g>
  <g id="_Group_7" data-name="&lt;Group&gt;">
    <rect id="_Rectangle_14" data-name="&lt;Rectangle&gt;" x="150.2057" y="69.4882" width="40.033" height="36.6409" transform="translate(6.7168 -11.9507) rotate(4.1017)" style="fill: #fc982b"/>
    <rect id="_Rectangle_15" data-name="&lt;Rectangle&gt;" x="151.2383" y="69.5252" width="40.033" height="7.7676" transform="translate(5.6894 -12.0614) rotate(4.1017)" style="fill: #fff;opacity: 0.30000000000000004"/>
  </g>
  <g id="_Group_8" data-name="&lt;Group&gt;">
    <rect id="_Rectangle_16" data-name="&lt;Rectangle&gt;" x="137.4505" y="123.2972" width="40.033" height="36.6409" transform="translate(-5.7861 6.7109) rotate(-2.3974)" style="fill: #fc982b"/>
    <rect id="_Rectangle_17" data-name="&lt;Rectangle&gt;" x="136.8466" y="123.3098" width="40.033" height="7.7676" transform="translate(-5.1833 6.673) rotate(-2.3974)" style="fill: #fff;opacity: 0.30000000000000004"/>
  </g>
  <g id="_Group_9" data-name="&lt;Group&gt;">
    <rect id="_Rectangle_18" data-name="&lt;Rectangle&gt;" x="213.238" y="83.4647" width="40.033" height="36.6409" style="fill: #ffb6f1"/>
    <rect id="_Rectangle_19" data-name="&lt;Rectangle&gt;" x="213.238" y="83.4647" width="40.033" height="7.7676" style="fill: #fff;opacity: 0.30000000000000004"/>
  </g>
  <g id="_Group_10" data-name="&lt;Group&gt;">
    <rect id="_Rectangle_20" data-name="&lt;Rectangle&gt;" x="292.5713" y="152.5175" width="40.033" height="36.6409" transform="translate(21.5337 -34.5501) rotate(6.5516)" style="fill: #ffb6f1"/>
    <rect id="_Rectangle_21" data-name="&lt;Rectangle&gt;" x="294.2185" y="152.6118" width="40.033" height="7.7676" transform="translate(19.908 -34.8317) rotate(6.5516)" style="fill: #fff;opacity: 0.30000000000000004"/>
  </g>
  <g id="_Group_11" data-name="&lt;Group&gt;">
    <rect id="_Rectangle_22" data-name="&lt;Rectangle&gt;" x="279.3456" y="84.9118" width="40.033" height="36.6409" transform="translate(-9.0348 31.3579) rotate(-5.9072)" style="fill: #9be26d"/>
    <rect id="_Rectangle_23" data-name="&lt;Rectangle&gt;" x="277.8598" y="84.9884" width="40.033" height="7.7676" transform="translate(-7.5648 31.1288) rotate(-5.9072)" style="fill: #fff;opacity: 0.30000000000000004"/>
  </g>
  <g id="_Group_12" data-name="&lt;Group&gt;" style="opacity: 0.1">
    <g id="_Group_13" data-name="&lt;Group&gt;">
      <path id="_Path_20" data-name="&lt;Path&gt;" d="M101,134.1056s1.0112,19.5315,26.0945,16.9629" style="fill: none;stroke: #000;stroke-linecap: round;stroke-miterlimit: 10;stroke-width: 2px"/>
      <g id="_Group_14" data-name="&lt;Group&gt;">
        <polygon id="_Path_21" data-name="&lt;Path&gt;" points="123.515 156.229 122.629 155.418 126.631 151.06 121.992 147.386 122.739 146.445 128.388 150.92 123.515 156.229"/>
      </g>
    </g>
  </g>
  <g id="_Group_15" data-name="&lt;Group&gt;" style="opacity: 0.1">
    <g>
      <path d="M289.9238,71.5152c-.7141-5.37-4.9321-25.5592-27.86-23.1459" style="fill: none;stroke: #000;stroke-linecap: round;stroke-miterlimit: 10;stroke-width: 2px"/>
      <polygon points="294.075 66.821 293.078 66.151 289.783 71.065 285.122 67.42 284.383 68.366 290.061 72.805 294.075 66.821"/>
    </g>
  </g>
  <g id="_Group_16" data-name="&lt;Group&gt;" style="opacity: 0.1">
    <g id="_Group_17" data-name="&lt;Group&gt;">
      <path id="_Path_22" data-name="&lt;Path&gt;" d="M343.7351,173.9249c4.4551.2737,19.0332-.5692,21.4014-22.8929" style="fill: none;stroke: #000;stroke-linecap: round;stroke-miterlimit: 10;stroke-width: 2px"/>
      <g id="_Group_18" data-name="&lt;Group&gt;">
        <polygon id="_Path_23" data-name="&lt;Path&gt;" points="347.646 178.774 348.478 177.907 344.205 173.815 348.599 169.851 347.794 168.96 342.443 173.788 347.646 178.774"/>
      </g>
    </g>
  </g>
  <rect id="_Rectangle_24" data-name="&lt;Rectangle&gt;" x="308.0598" y="210.7911" width="32.457" height="54.2492" rx="5.5042" ry="5.5042" style="fill: #e3e3e3"/>
  <g>
    <path d="M335.748,264.9856c-.1169.012-.2314.0309-.35.0353Q335.5746,265.0086,335.748,264.9856Z" style="fill: #dbdbdb"/>
    <path d="M308.1145,260.2714c-.012-.1168-.031-.2313-.0352-.35Q308.0914,260.0982,308.1145,260.2714Z" style="fill: #dbdbdb"/>
    <path d="M313.179,265.0209c-.1189-.0043-.2334-.0233-.35-.0353Q313.0022,265.0089,313.179,265.0209Z" style="fill: #dbdbdb"/>
    <path d="M335.0127,210.7911H313.564a5.5042,5.5042,0,0,0-5.5042,5.5042v3.5268a5.3122,5.3122,0,0,1,5.3123-5.3121h21.8325a5.3122,5.3122,0,0,1,5.3123,5.3121v-3.5268A5.5042,5.5042,0,0,0,335.0127,210.7911Z" style="fill: #dbdbdb"/>
    <path d="M340.4973,259.9213c-.0042.1189-.0232.2334-.0352.35Q340.4852,260.0978,340.4973,259.9213Z" style="fill: #dbdbdb"/>
  </g>
  <g id="_Group_19" data-name="&lt;Group&gt;" style="opacity: 0.30000000000000004">
    <rect id="_Rectangle_25" data-name="&lt;Rectangle&gt;" x="305.4511" y="248.1036" width="18.91" height="3.7896" rx="1.8948" ry="1.8948" transform="translate(64.9077 564.9045) rotate(-90)" style="fill: #fff"/>
    <rect id="_Rectangle_26" data-name="&lt;Rectangle&gt;" x="312.8938" y="233.5494" width="4.0247" height="3.7896" rx="1.8948" ry="1.8948" transform="translate(79.4619 550.3502) rotate(-90)" style="fill: #fff"/>
  </g>
  <rect id="_Rectangle_27" data-name="&lt;Rectangle&gt;" x="303.6053" y="265.0404" width="41.366" height="8.8428" rx="1.9257" ry="1.9257" style="fill: #d1d1d1"/>
  <path id="_Rectangle_28" data-name="&lt;Rectangle&gt;" d="M303.6053,269.4617h41.366a0,0,0,0,1,0,0v3.06a1.3617,1.3617,0,0,1-1.3617,1.3617H304.967a1.3617,1.3617,0,0,1-1.3617-1.3617v-3.06A0,0,0,0,1,303.6053,269.4617Z" style="fill: #c6c6c6"/>
  <g id="_Group_20" data-name="&lt;Group&gt;">
    <path id="_Rectangle_29" data-name="&lt;Rectangle&gt;" d="M252.7134,254.8962h6.9447a10.1461,10.1461,0,0,1,10.1461,10.1461v8.7884a0,0,0,0,1,0,0h-27.237a0,0,0,0,1,0,0v-8.7884a10.1461,10.1461,0,0,1,10.1461-10.1461Z" style="fill: #feccae"/>
    <rect id="_Rectangle_30" data-name="&lt;Rectangle&gt;" x="233.8874" y="263.1742" width="27.1159" height="10.6566" rx="4.8393" ry="4.8393" style="fill: #fff"/>
  </g>
  <rect id="_Rectangle_31" data-name="&lt;Rectangle&gt;" x="384.7708" y="230.2528" width="29.856" height="7.9203" rx="3.9602" ry="3.9602" style="opacity: 0.05"/>
  <rect id="_Rectangle_32" data-name="&lt;Rectangle&gt;" x="366.3197" y="242.1928" width="29.856" height="7.9203" rx="3.9602" ry="3.9602" style="opacity: 0.05"/>
  <rect id="_Rectangle_33" data-name="&lt;Rectangle&gt;" x="21.2461" y="160.9078" width="29.856" height="7.9203" rx="3.9602" ry="3.9602" style="opacity: 0.05"/>
  <rect id="_Rectangle_34" data-name="&lt;Rectangle&gt;" x="56.3644" y="160.9078" width="29.856" height="7.9203" rx="3.9602" ry="3.9602" style="opacity: 0.05"/>
  <rect id="_Rectangle_35" data-name="&lt;Rectangle&gt;" x="37.9133" y="172.8478" width="29.856" height="7.9203" rx="3.9602" ry="3.9602" style="opacity: 0.05"/>
  <path id="_Path_24" data-name="&lt;Path&gt;" d="M329.1988,228.8971a3.9632,3.9632,0,0,1-1.94-6.1167,6.21,6.21,0,1,0,3.1469,6.3187A3.9607,3.9607,0,0,1,329.1988,228.8971Z" style="fill: #b2b2b2"/>
  <path d="M322.46,226.2479a6.1585,6.1585,0,0,1,3.856-3.8855c-.0223-.0077-.0428-.0179-.0653-.0254a6.175,6.175,0,1,0,.0551,11.6936A6.1732,6.1732,0,0,1,322.46,226.2479Z" style="fill: #bfbfbf"/>
  <g style="opacity: 0.1">
    <path d="M286.5532,104.77c-.063,0-.1219-.0014-.1759-.0048a.9509.9509,0,0,1-.1247-.0125,1.2184,1.2184,0,0,1-.4294-.2188.9529.9529,0,0,1-.2839-.3656.7848.7848,0,0,1-.0769-.2188,1.1439,1.1439,0,0,1-.0173-.2022,1.3424,1.3424,0,0,1,.0256-.2659c-.0519-.0346-.106-.0713-.1634-.1115a.4731.4731,0,0,1-.1288-.1288.96.96,0,0,1-.2064-.5845.8785.8785,0,0,1,.0907-.3906,1.1436,1.1436,0,0,1,.2445-.331c.0291-.0284.0817-.0831.1593-.1634a3.13,3.13,0,0,0,.2105-.24l.1717-.1891q.1195-.1288.2445-.2618t.2452-.2535q.1371-.12.24-.2064a2.1116,2.1116,0,0,1,.1807-.1378,1.2262,1.2262,0,0,1,.9273-.1717.8964.8964,0,0,1,.662.5589l-.009-.009a1.3046,1.3046,0,0,1,.0561.15.916.916,0,0,1,.03.15c.08-.0859.1517-.1669.2147-.2445s.12-.1475.1724-.2105l.12-.1371a.1239.1239,0,0,0,.0256-.0346.0865.0865,0,0,0,.0173-.0256,1.1043,1.1043,0,0,1,.4681-.331.9139.9139,0,0,1,.5457-.03.8782.8782,0,0,1,.3483.1891,1.2159,1.2159,0,0,1,.2618.3179,1.0356,1.0356,0,0,1,.1073.4681,1.8031,1.8031,0,0,1-.03.2618.6678.6678,0,0,1-.0222.0817c-.0083.0256-.0152.05-.0215.0727l-.0512.1634-.0083.0256a1.0615,1.0615,0,0,1,.3393.0949.8534.8534,0,0,1,.2874.2147,1.003,1.003,0,0,1,.2237.6184.9257.9257,0,0,1-.3525.73l-.0429.0429q-.1807.1548-.3823.31a4.9494,4.9494,0,0,1-.4252.2922,1.95,1.95,0,0,1-.9965.3006,1.4617,1.4617,0,0,1-.412-.06.9419.9419,0,0,1-.2881-.1157.8619.8619,0,0,1-.2278-.2022c-.0686.0575-.1343.1108-.1974.1593s-.1343.0983-.2147.15h.0083a3.5613,3.5613,0,0,1-.3781.232c-.12.063-.2348.117-.3435.1627a1.34,1.34,0,0,1-.3089.0859A1.98,1.98,0,0,1,286.5532,104.77Z"/>
    <path d="M293.495,104.1254a.9378.9378,0,0,1-.2666-.0429.81.81,0,0,1-.3691-.1932.8923.8923,0,0,1-.232-.3393,1.0016,1.0016,0,0,1,.0083-.7389,2.7166,2.7166,0,0,1,.1551-.3435c.0111-.0229.0242-.0471.0381-.0727s.03-.0533.0478-.0817q-.1984.1028-.3871.2188t-.3864.2188q-.3521.215-.6745.3913t-.5969.2964a.7688.7688,0,0,1-.33.0776.8727.8727,0,0,1-.6018-.2368.7948.7948,0,0,1-.1932-.2791.7688.7688,0,0,1-.0776-.33.8956.8956,0,0,1,.06-.3227.8741.8741,0,0,1,.1766-.2791.7948.7948,0,0,1,.2791-.1932q.1974-.0945.4855-.2535t.6143-.3476q.3771-.2233.7943-.46a8.0586,8.0586,0,0,1,.8206-.4079,3.44,3.44,0,0,1,.85-.3006,2.492,2.492,0,0,1,.5111-.0776,1.5714,1.5714,0,0,1,.46.0512.9328.9328,0,0,1,.644.5845.9582.9582,0,0,1,.0388.6357,3.1178,3.1178,0,0,1-.2361.5845.27.27,0,0,1,.0554-.0132.13.13,0,0,0,.0561-.0215.7671.7671,0,0,1,.331-.0471.913.913,0,0,1,.3179.0817.8326.8326,0,0,1,.2659.1932.8461.8461,0,0,1,.1766.2874.9.9,0,0,1,.0512.3393.8613.8613,0,0,1-.0776.3179.8314.8314,0,0,1-.49.4425q-.4041.1465-.7389.2618t-.5928.2022c-.24.0686-.4349.1191-.5838.15A1.9411,1.9411,0,0,1,293.495,104.1254Z"/>
    <path d="M296.69,103.9536a1.1847,1.1847,0,0,1-.232-.0256.9333.9333,0,0,1-.3525-.1759.9815.9815,0,0,1-.2486-.2964.8622.8622,0,0,1-.5028.0388.8176.8176,0,0,1-.4508-.2708.7521.7521,0,0,1-.1717-.2922.8548.8548,0,0,1-.0388-.331.8751.8751,0,0,1,.0859-.3179.9182.9182,0,0,1,.2015-.27c.063-.0519.13-.1122.2022-.1807s.1475-.1434.2278-.223q.2057-.2067.4335-.4169t.4425-.3823c.097-.0748.19-.1406.2791-.1974a2.6277,2.6277,0,0,1,.2535-.1461,1.3217,1.3217,0,0,1,.876-.12,1.0181,1.0181,0,0,1,.4086.232,1.0931,1.0931,0,0,1,.27.3954,1.0767,1.0767,0,0,1-.0083.7216c-.0118.0284-.0229.0568-.0346.0859s-.0256.06-.0429.0942a.8771.8771,0,0,1,.4467.4813.8984.8984,0,0,1,.0519.3435.88.88,0,0,1-.0776.322.8314.8314,0,0,1-.49.4425c-.1835.0686-.3476.13-.4938.1849s-.2708.0983-.374.133c-.063.0229-.1177.0429-.1634.06s-.0831.0312-.1115.0429c-.0575.0118-.117.0256-.18.0429A.78.78,0,0,1,296.69,103.9536Z"/>
    <path d="M298.5455,104.77c-.063,0-.1219-.0014-.1759-.0048a.9509.9509,0,0,1-.1247-.0125,1.2184,1.2184,0,0,1-.4294-.2188.9529.9529,0,0,1-.2839-.3656.7848.7848,0,0,1-.0769-.2188,1.1439,1.1439,0,0,1-.0173-.2022,1.3424,1.3424,0,0,1,.0256-.2659c-.0519-.0346-.106-.0713-.1634-.1115a.4731.4731,0,0,1-.1288-.1288.96.96,0,0,1-.2064-.5845.8785.8785,0,0,1,.0907-.3906,1.1436,1.1436,0,0,1,.2445-.331c.0291-.0284.0817-.0831.1593-.1634a3.13,3.13,0,0,0,.2105-.24l.1717-.1891q.1195-.1288.2445-.2618t.2452-.2535q.1371-.12.24-.2064a2.1116,2.1116,0,0,1,.1807-.1378,1.2262,1.2262,0,0,1,.9273-.1717.8964.8964,0,0,1,.662.5589l-.009-.009a1.3046,1.3046,0,0,1,.0561.15.916.916,0,0,1,.03.15c.08-.0859.1517-.1669.2147-.2445s.12-.1475.1724-.2105l.12-.1371a.1239.1239,0,0,0,.0256-.0346.0865.0865,0,0,0,.0173-.0256,1.1043,1.1043,0,0,1,.4681-.331.9139.9139,0,0,1,.5457-.03.8782.8782,0,0,1,.3483.1891,1.2159,1.2159,0,0,1,.2618.3179,1.0356,1.0356,0,0,1,.1073.4681,1.8031,1.8031,0,0,1-.03.2618.6678.6678,0,0,1-.0222.0817c-.0083.0256-.0152.05-.0215.0727l-.0512.1634-.0083.0256a1.0615,1.0615,0,0,1,.3393.0949.8534.8534,0,0,1,.2874.2147,1.003,1.003,0,0,1,.2237.6184.9257.9257,0,0,1-.3525.73l-.0429.0429q-.1807.1548-.3823.31a4.9494,4.9494,0,0,1-.4252.2922,1.95,1.95,0,0,1-.9965.3006,1.4617,1.4617,0,0,1-.412-.06.9419.9419,0,0,1-.2881-.1157.8619.8619,0,0,1-.2278-.2022c-.0686.0575-.1343.1108-.1974.1593s-.1343.0983-.2147.15h.0083a3.5613,3.5613,0,0,1-.3781.232c-.12.063-.2348.117-.3435.1627a1.34,1.34,0,0,1-.3089.0859A1.98,1.98,0,0,1,298.5455,104.77Z"/>
    <path d="M305.4873,104.1254a.9378.9378,0,0,1-.2666-.0429.81.81,0,0,1-.3691-.1932.8923.8923,0,0,1-.232-.3393,1.0016,1.0016,0,0,1,.0083-.7389,2.7166,2.7166,0,0,1,.1551-.3435c.0111-.0229.0242-.0471.0381-.0727s.03-.0533.0478-.0817q-.1984.1028-.3871.2188t-.3864.2188q-.3521.215-.6745.3913t-.5969.2964a.7688.7688,0,0,1-.33.0776.8727.8727,0,0,1-.6018-.2368.7948.7948,0,0,1-.1932-.2791.7688.7688,0,0,1-.0776-.33.8956.8956,0,0,1,.06-.3227.8741.8741,0,0,1,.1766-.2791.7948.7948,0,0,1,.2791-.1932q.1974-.0945.4855-.2535t.6143-.3476q.3771-.2233.7943-.46a8.0586,8.0586,0,0,1,.8206-.4079,3.44,3.44,0,0,1,.85-.3006,2.492,2.492,0,0,1,.5111-.0776,1.5714,1.5714,0,0,1,.46.0512.9328.9328,0,0,1,.644.5845.9582.9582,0,0,1,.0388.6357,3.1178,3.1178,0,0,1-.2361.5845.27.27,0,0,1,.0554-.0132.13.13,0,0,0,.0561-.0215.7671.7671,0,0,1,.331-.0471.913.913,0,0,1,.3179.0817.8326.8326,0,0,1,.2659.1932.8461.8461,0,0,1,.1766.2874.9.9,0,0,1,.0512.3393.8613.8613,0,0,1-.0776.3179.8314.8314,0,0,1-.49.4425q-.4041.1465-.7389.2618t-.5928.2022c-.24.0686-.4349.1191-.5838.15A1.9411,1.9411,0,0,1,305.4873,104.1254Z"/>
    <path d="M308.6832,103.9536a1.1847,1.1847,0,0,1-.232-.0256.9333.9333,0,0,1-.3525-.1759.9815.9815,0,0,1-.2486-.2964.8622.8622,0,0,1-.5028.0388.8176.8176,0,0,1-.4508-.2708.7521.7521,0,0,1-.1717-.2922.8548.8548,0,0,1-.0388-.331.8751.8751,0,0,1,.0859-.3179.9182.9182,0,0,1,.2015-.27c.063-.0519.13-.1122.2022-.1807s.1475-.1434.2278-.223q.2057-.2067.4335-.4169t.4425-.3823c.097-.0748.19-.1406.2791-.1974a2.6277,2.6277,0,0,1,.2535-.1461,1.3217,1.3217,0,0,1,.876-.12,1.0181,1.0181,0,0,1,.4086.232,1.0931,1.0931,0,0,1,.27.3954,1.0767,1.0767,0,0,1-.0083.7216c-.0118.0284-.0229.0568-.0346.0859s-.0256.06-.0429.0942a.8771.8771,0,0,1,.4467.4813.8984.8984,0,0,1,.0519.3435.88.88,0,0,1-.0776.322.8314.8314,0,0,1-.49.4425c-.1835.0686-.3476.13-.4938.1849s-.2708.0983-.374.133c-.063.0229-.1177.0429-.1634.06s-.0831.0312-.1115.0429c-.0575.0118-.117.0256-.18.0429A.78.78,0,0,1,308.6832,103.9536Z"/>
  </g>
  <g style="opacity: 0.1">
    <path d="M289.9076,115.1353c-.0624.0088-.1209.0157-.1748.02a.9509.9509,0,0,1-.1252.0051,1.2184,1.2184,0,0,1-.4558-.1566.9529.9529,0,0,1-.3323-.3223.7848.7848,0,0,1-.1067-.2059,1.1439,1.1439,0,0,1-.0454-.1978,1.3424,1.3424,0,0,1-.0118-.2669c-.0563-.027-.1149-.0558-.1774-.0875a.4731.4731,0,0,1-.1456-.11.96.96,0,0,1-.2861-.55.8785.8785,0,0,1,.0352-.3994,1.1436,1.1436,0,0,1,.1957-.362c.0248-.0322.0693-.0937.1348-.1841a3.1294,3.1294,0,0,0,.1748-.2674l.1436-.2112q.1-.1443.2054-.2934t.2073-.2853c.0793-.0923.1492-.1715.2091-.238a2.1116,2.1116,0,0,1,.16-.1617,1.2262,1.2262,0,0,1,.8941-.3.8964.8964,0,0,1,.7337.4607l-.01-.0077a1.3046,1.3046,0,0,1,.0766.1409.916.916,0,0,1,.0505.1446c.0675-.0963.1268-.1865.1784-.2721s.0987-.1629.1413-.2326l.0994-.1525a.1239.1239,0,0,0,.0205-.0379.0865.0865,0,0,0,.0136-.0278,1.1043,1.1043,0,0,1,.4172-.3933.9139.9139,0,0,1,.5362-.1058.8782.8782,0,0,1,.3714.1385,1.2159,1.2159,0,0,1,.3037.2781,1.0356,1.0356,0,0,1,.1718.4485,1.8031,1.8031,0,0,1,.0071.2634.6678.6678,0,0,1-.0105.084c-.0046.0265-.0081.0515-.0111.075l-.0279.169-.0046.0265a1.0615,1.0615,0,0,1,.3493.0465.8534.8534,0,0,1,.3146.1724,1.003,1.003,0,0,1,.308.581.9257.9257,0,0,1-.2469.772l-.0365.0485q-.1573.1785-.3352.36a4.9494,4.9494,0,0,1-.38.3489,1.95,1.95,0,0,1-.9447.437,1.4617,1.4617,0,0,1-.4164-.002.9419.9419,0,0,1-.3014-.0742.8619.8619,0,0,1-.2539-.1683c-.06.0665-.1175.1285-.1731.1853s-.1193.1162-.1915.1788l.0082-.0012a3.5612,3.5612,0,0,1-.3419.2826c-.11.0792-.2161.1487-.3173.2092a1.34,1.34,0,0,1-.2938.1282A1.98,1.98,0,0,1,289.9076,115.1353Z"/>
    <path d="M296.6909,113.5256a.9378.9378,0,0,1-.27-.0052.81.81,0,0,1-.3925-.14.8923.8923,0,0,1-.2772-.3035,1.0016,1.0016,0,0,1-.0952-.7328,2.7166,2.7166,0,0,1,.1055-.3618c.0078-.0242.0174-.05.0275-.0773s.0227-.0571.0359-.0876q-.1821.13-.3527.2708t-.352.2707q-.3186.2622-.6131.4818t-.55.377a.7688.7688,0,0,1-.3162.123.8727.8727,0,0,1-.629-.15.7948.7948,0,0,1-.23-.2493.7688.7688,0,0,1-.123-.3162.8956.8956,0,0,1,.0145-.328.8741.8741,0,0,1,.1358-.301.7948.7948,0,0,1,.2493-.23q.1822-.1212.4452-.3189t.56-.43q.3421-.2739.7222-.5664a8.0585,8.0585,0,0,1,.7555-.5187,3.44,3.44,0,0,1,.8-.4166,2.492,2.492,0,0,1,.4952-.1483,1.5714,1.5714,0,0,1,.4625-.0136.9328.9328,0,0,1,.7195.4886.9582.9582,0,0,1,.1273.624,3.1178,3.1178,0,0,1-.152.6118.27.27,0,0,1,.053-.0208.13.13,0,0,0,.0525-.0291.7671.7671,0,0,1,.3212-.0929.913.913,0,0,1,.3262.0364.8326.8326,0,0,1,.29.1541.8461.8461,0,0,1,.2151.26.9.9,0,0,1,.0982.3288.8613.8613,0,0,1-.0323.3256.8314.8314,0,0,1-.4229.5067q-.38.2016-.695.3626t-.5587.2832c-.2283.1015-.414.1788-.557.23A1.9411,1.9411,0,0,1,296.6909,113.5256Z"/>
    <path d="M299.8307,112.9085a1.1847,1.1847,0,0,1-.2333.0071.9333.9333,0,0,1-.3736-.1249.9815.9815,0,0,1-.2876-.2587.8622.8622,0,0,1-.4924.1087.8176.8176,0,0,1-.4843-.205.7521.7521,0,0,1-.2109-.2653.8548.8548,0,0,1-.0847-.3223.8751.8751,0,0,1,.0406-.3268.9182.9182,0,0,1,.1618-.2956c.0551-.06.1132-.1293.1749-.2073s.126-.1626.1944-.2527q.1747-.2335.3709-.4734t.3847-.44c.0855-.0876.1689-.1658.2487-.2345a2.6277,2.6277,0,0,1,.2305-.18,1.3217,1.3217,0,0,1,.8506-.2419,1.0181,1.0181,0,0,1,.437.1725,1.0931,1.0931,0,0,1,.3227.3537,1.0767,1.0767,0,0,1,.0927.7157c-.0077.03-.0147.0594-.0223.09s-.0169.0632-.0293.0993a.8771.8771,0,0,1,.51.4141.8984.8984,0,0,1,.0995.3328.88.88,0,0,1-.0317.33.8314.8314,0,0,1-.4229.5067c-.1721.0936-.326.1776-.463.2522s-.2544.1353-.3517.184c-.0592.0314-.1106.059-.1534.0825s-.0779.0425-.1044.0581c-.0553.02-.1123.0417-.1723.0677A.78.78,0,0,1,299.8307,112.9085Z"/>
    <path d="M301.7819,113.4574c-.0624.0088-.1209.0157-.1748.02a.9509.9509,0,0,1-.1252.0051,1.2184,1.2184,0,0,1-.4558-.1566.9529.9529,0,0,1-.3323-.3223.7848.7848,0,0,1-.1067-.2059,1.1439,1.1439,0,0,1-.0454-.1978,1.3424,1.3424,0,0,1-.0118-.2669c-.0563-.027-.1149-.0558-.1774-.0875a.4731.4731,0,0,1-.1456-.11.96.96,0,0,1-.2861-.55.8785.8785,0,0,1,.0352-.3994,1.1436,1.1436,0,0,1,.1957-.362c.0248-.0322.0693-.0937.1348-.1841a3.13,3.13,0,0,0,.1748-.2674l.1436-.2112q.1-.1443.2054-.2934t.2073-.2853c.0793-.0923.1492-.1715.2091-.238a2.1116,2.1116,0,0,1,.16-.1617,1.2262,1.2262,0,0,1,.8941-.3.8964.8964,0,0,1,.7337.4607l-.01-.0077a1.3046,1.3046,0,0,1,.0766.1409.916.916,0,0,1,.0505.1446c.0675-.0963.1268-.1865.1784-.2721s.0987-.1629.1413-.2326l.0994-.1525a.1239.1239,0,0,0,.0205-.0379.0865.0865,0,0,0,.0136-.0278,1.1044,1.1044,0,0,1,.4172-.3933.914.914,0,0,1,.5362-.1058.8782.8782,0,0,1,.3714.1385,1.2159,1.2159,0,0,1,.3037.2781,1.0356,1.0356,0,0,1,.1718.4485,1.8031,1.8031,0,0,1,.0071.2634.6678.6678,0,0,1-.0105.084c-.0046.0265-.0081.0515-.0111.075l-.0279.169-.0046.0265a1.0615,1.0615,0,0,1,.3493.0465.8534.8534,0,0,1,.3146.1724,1.003,1.003,0,0,1,.308.581.9257.9257,0,0,1-.2469.772l-.0365.0485q-.1573.1785-.3352.36a4.9494,4.9494,0,0,1-.38.3489,1.95,1.95,0,0,1-.9447.437,1.4617,1.4617,0,0,1-.4164-.002.9419.9419,0,0,1-.3014-.0742.8619.8619,0,0,1-.2539-.1683c-.06.0665-.1175.1285-.1731.1853s-.1193.1162-.1915.1788l.0082-.0012a3.5613,3.5613,0,0,1-.3419.2826c-.11.0792-.2161.1487-.3173.2092a1.34,1.34,0,0,1-.2938.1282A1.98,1.98,0,0,1,301.7819,113.4574Z"/>
    <path d="M308.5652,111.8477a.9378.9378,0,0,1-.27-.0052.81.81,0,0,1-.3925-.14.8923.8923,0,0,1-.2772-.3035,1.0016,1.0016,0,0,1-.0952-.7328,2.7167,2.7167,0,0,1,.1055-.3618c.0078-.0242.0174-.05.0275-.0773s.0227-.0571.0359-.0876q-.1821.13-.3527.2708t-.352.2707q-.3186.2622-.6131.4818t-.55.377a.7688.7688,0,0,1-.3162.123.8727.8727,0,0,1-.629-.15.7948.7948,0,0,1-.23-.2493.7688.7688,0,0,1-.123-.3162.8956.8956,0,0,1,.0145-.328.8741.8741,0,0,1,.1358-.301.7948.7948,0,0,1,.2493-.23q.1822-.1212.4452-.3189t.56-.43q.3421-.2739.7222-.5664a8.0585,8.0585,0,0,1,.7555-.5187,3.44,3.44,0,0,1,.8-.4166,2.492,2.492,0,0,1,.4952-.1483,1.5714,1.5714,0,0,1,.4625-.0136.9328.9328,0,0,1,.7195.4886.9582.9582,0,0,1,.1273.624,3.1178,3.1178,0,0,1-.152.6118.27.27,0,0,1,.053-.0208.13.13,0,0,0,.0525-.0291.7671.7671,0,0,1,.3212-.0929.913.913,0,0,1,.3262.0364.8326.8326,0,0,1,.29.1541.8461.8461,0,0,1,.2151.26.9.9,0,0,1,.0982.3288.8613.8613,0,0,1-.0323.3256.8314.8314,0,0,1-.4229.5067q-.38.2016-.695.3626t-.5587.2832c-.2283.1015-.414.1788-.557.23A1.9411,1.9411,0,0,1,308.5652,111.8477Z"/>
    <path d="M311.7057,111.2305a1.1847,1.1847,0,0,1-.2333.0071.9333.9333,0,0,1-.3736-.1249.9815.9815,0,0,1-.2876-.2587.8622.8622,0,0,1-.4924.1087.8176.8176,0,0,1-.4843-.205.7521.7521,0,0,1-.2109-.2653.8548.8548,0,0,1-.0847-.3223.8751.8751,0,0,1,.0406-.3268.9182.9182,0,0,1,.1618-.2956c.0551-.06.1132-.1293.1749-.2073s.126-.1626.1944-.2527q.1747-.2335.3709-.4734t.3847-.44c.0855-.0876.1689-.1658.2487-.2345a2.6277,2.6277,0,0,1,.2305-.18,1.3217,1.3217,0,0,1,.8506-.2419,1.0181,1.0181,0,0,1,.437.1725,1.0931,1.0931,0,0,1,.3227.3537,1.0767,1.0767,0,0,1,.0927.7157c-.0077.03-.0147.0594-.0223.09s-.0169.0632-.0293.0993a.8771.8771,0,0,1,.51.4141.8984.8984,0,0,1,.0995.3328.88.88,0,0,1-.0317.33.8314.8314,0,0,1-.4229.5067c-.1721.0936-.326.1776-.463.2522s-.2544.1353-.3517.184c-.0592.0314-.1106.059-.1534.0825s-.0779.0425-.1044.0581c-.0553.02-.1123.0417-.1723.0677A.78.78,0,0,1,311.7057,111.2305Z"/>
  </g>
  <g style="opacity: 0.1">
    <path d="M145.9741,143.4454c-.0622-.01-.12-.02-.173-.0323a.9509.9509,0,0,1-.1212-.0318,1.2184,1.2184,0,0,1-.39-.2832.9529.9529,0,0,1-.2233-.4055.7848.7848,0,0,1-.0417-.2282,1.1439,1.1439,0,0,1,.0145-.2024,1.3424,1.3424,0,0,1,.0669-.2587c-.0459-.0423-.0935-.087-.144-.1357a.4731.4731,0,0,1-.1071-.1474.96.96,0,0,1-.1125-.61.8785.8785,0,0,1,.1506-.3716,1.1436,1.1436,0,0,1,.2932-.2888c.0332-.0235.0937-.0693.1829-.1365a3.1294,3.1294,0,0,0,.2455-.2045l.1992-.16q.1381-.1086.2824-.22t.2817-.212c.1028-.0651.1929-.12.27-.1663a2.1116,2.1116,0,0,1,.2-.1079,1.2262,1.2262,0,0,1,.9427-.0247.8964.8964,0,0,1,.5666.6555l-.0075-.01a1.3046,1.3046,0,0,1,.0319.1572.916.916,0,0,1,.0059.1531c.0928-.0723.1759-.1411.25-.2079s.1421-.1269.2032-.181l.14-.1167a.1239.1239,0,0,0,.0307-.03.0865.0865,0,0,0,.0211-.0226,1.1043,1.1043,0,0,1,.5141-.2538.9139.9139,0,0,1,.5437.0559.8782.8782,0,0,1,.3145.2412,1.2159,1.2159,0,0,1,.2089.3549,1.0356,1.0356,0,0,1,.0329.4792,1.8031,1.8031,0,0,1-.07.2539.6678.6678,0,0,1-.0347.0772c-.0122.024-.0228.0469-.0326.0685l-.0762.1534-.0122.024a1.0615,1.0615,0,0,1,.32.1467.8534.8534,0,0,1,.25.257,1.003,1.003,0,0,1,.1243.6458.9257.9257,0,0,1-.4622.6659l-.0491.0357q-.2027.1246-.4259.246a4.9494,4.9494,0,0,1-.4656.2222,1.95,1.95,0,0,1-1.0313.1411,1.4617,1.4617,0,0,1-.3976-.1239.9419.9419,0,0,1-.2665-.1592.8619.8619,0,0,1-.1934-.2353c-.0767.0461-.15.0884-.22.1265s-.1481.0761-.2355.1149l.0082.0013a3.5612,3.5612,0,0,1-.41.17c-.1282.0435-.25.0789-.3647.1071a1.34,1.34,0,0,1-.3185.0366A1.98,1.98,0,0,1,145.9741,143.4454Z"/>
    <path d="M152.9313,143.8933a.9378.9378,0,0,1-.2566-.0841.81.81,0,0,1-.3344-.2485.8923.8923,0,0,1-.1761-.3714,1.0016,1.0016,0,0,1,.1237-.7285,2.7167,2.7167,0,0,1,.2069-.315c.0145-.0208.0313-.0427.049-.0659s.0384-.0479.06-.0732q-.212.0706-.4166.1557t-.4159.1558q-.3814.1574-.7274.2811t-.6359.1995a.7688.7688,0,0,1-.3384.025.8727.8727,0,0,1-.5574-.328.7948.7948,0,0,1-.1472-.3058.7688.7688,0,0,1-.025-.3384.8956.8956,0,0,1,.11-.3093.8741.8741,0,0,1,.218-.2481.7948.7948,0,0,1,.3058-.1472q.21-.0625.5191-.1745t.661-.2474q.4073-.1617.8564-.33a8.0586,8.0586,0,0,1,.8743-.2746,3.44,3.44,0,0,1,.8869-.164,2.492,2.492,0,0,1,.5169.0033,1.5714,1.5714,0,0,1,.4462.1225.9328.9328,0,0,1,.5448.6779.9582.9582,0,0,1-.061.634,3.1178,3.1178,0,0,1-.3246.54.27.27,0,0,1,.0568-.0043.13.13,0,0,0,.0588-.0124.7671.7671,0,0,1,.3343.0052.913.913,0,0,1,.3012.13.8326.8326,0,0,1,.2325.2324.8461.8461,0,0,1,.13.3115.9.9,0,0,1-.0024.3432.8613.8613,0,0,1-.1263.3018.8314.8314,0,0,1-.5527.3606q-.422.0815-.7707.1431t-.6171.1071c-.2481.03-.4482.05-.6.0572A1.9411,1.9411,0,0,1,152.9313,143.8933Z"/>
    <path d="M156.1142,144.223a1.1847,1.1847,0,0,1-.2251-.0616.9333.9333,0,0,1-.3207-.2288.9815.9815,0,0,1-.1992-.3316.8622.8622,0,0,1-.5026-.04.8176.8176,0,0,1-.403-.3379.7521.7521,0,0,1-.124-.3155.8548.8548,0,0,1,.0134-.333.8751.8751,0,0,1,.1345-.3005.9182.9182,0,0,1,.2413-.2353c.07-.0415.1461-.09.228-.1469s.1681-.1185.26-.1846c.157-.1147.3216-.2289.4933-.344s.3374-.218.4968-.3084c.1074-.0587.21-.1091.3065-.1513a2.6277,2.6277,0,0,1,.2732-.1047,1.3217,1.3217,0,0,1,.8841.0179,1.0181,1.0181,0,0,1,.3673.293,1.0931,1.0931,0,0,1,.205.4328,1.0767,1.0767,0,0,1-.121.7114c-.0161.0262-.0314.0525-.0476.0794s-.0347.0555-.0571.0863a.8771.8771,0,0,1,.366.5452.8984.8984,0,0,1-.0024.3474.88.88,0,0,1-.1269.3059.8314.8314,0,0,1-.5527.3606c-.192.039-.3637.0743-.5166.1055s-.2828.0548-.39.0729c-.0658.0127-.123.024-.1708.034s-.087.0178-.1168.025c-.0586.0026-.12.007-.1846.0143A.78.78,0,0,1,156.1142,144.223Z"/>
    <path d="M157.8191,145.3194c-.0622-.01-.12-.02-.173-.0323a.9509.9509,0,0,1-.1212-.0318,1.2184,1.2184,0,0,1-.39-.2832.9529.9529,0,0,1-.2233-.4055.7848.7848,0,0,1-.0417-.2282,1.1439,1.1439,0,0,1,.0145-.2024,1.3424,1.3424,0,0,1,.0669-.2587c-.0459-.0423-.0935-.087-.144-.1357a.4731.4731,0,0,1-.1071-.1474.96.96,0,0,1-.1125-.61.8785.8785,0,0,1,.1506-.3716,1.1436,1.1436,0,0,1,.2932-.2888c.0332-.0235.0937-.0693.1829-.1365a3.13,3.13,0,0,0,.2455-.2045l.1992-.16q.1381-.1086.2824-.22t.2817-.212c.1028-.0651.1929-.12.27-.1663a2.1116,2.1116,0,0,1,.2-.1079,1.2262,1.2262,0,0,1,.9427-.0247.8964.8964,0,0,1,.5666.6555l-.0075-.01a1.3046,1.3046,0,0,1,.0319.1572.916.916,0,0,1,.0059.1531c.0928-.0723.1759-.1411.25-.2079s.1421-.1269.2032-.181l.14-.1167a.1239.1239,0,0,0,.0307-.03.0865.0865,0,0,0,.0211-.0226,1.1043,1.1043,0,0,1,.5141-.2538.914.914,0,0,1,.5437.0559.8782.8782,0,0,1,.3145.2412,1.2159,1.2159,0,0,1,.2089.3549,1.0356,1.0356,0,0,1,.0329.4792,1.8031,1.8031,0,0,1-.07.2539.6678.6678,0,0,1-.0347.0772c-.0122.024-.0228.0469-.0326.0685l-.0762.1534-.0122.024a1.0615,1.0615,0,0,1,.32.1467.8534.8534,0,0,1,.25.257,1.003,1.003,0,0,1,.1243.6458.9257.9257,0,0,1-.4622.6659l-.0491.0357q-.2027.1246-.4259.246a4.9494,4.9494,0,0,1-.4656.2222,1.95,1.95,0,0,1-1.0313.1411,1.4617,1.4617,0,0,1-.3976-.1239.9419.9419,0,0,1-.2665-.1592.8619.8619,0,0,1-.1934-.2353c-.0767.0461-.15.0884-.22.1265s-.1481.0761-.2355.1149l.0082.0013a3.5612,3.5612,0,0,1-.41.17c-.1282.0435-.25.0789-.3647.1071a1.34,1.34,0,0,1-.3185.0366A1.98,1.98,0,0,1,157.8191,145.3194Z"/>
    <path d="M164.7763,145.7674a.9378.9378,0,0,1-.2566-.0841.81.81,0,0,1-.3344-.2485.8923.8923,0,0,1-.1761-.3714,1.0016,1.0016,0,0,1,.1237-.7285,2.7166,2.7166,0,0,1,.2069-.315c.0145-.0208.0313-.0427.049-.0659s.0384-.0479.06-.0732q-.212.0706-.4166.1557t-.4159.1558q-.3814.1574-.7274.2811t-.6359.1995a.7688.7688,0,0,1-.3384.025.8727.8727,0,0,1-.5574-.328.7948.7948,0,0,1-.1472-.3058.7688.7688,0,0,1-.025-.3384.8956.8956,0,0,1,.11-.3093.8741.8741,0,0,1,.218-.2481.7948.7948,0,0,1,.3058-.1472q.21-.0625.5191-.1745t.661-.2474q.4073-.1617.8564-.33a8.0586,8.0586,0,0,1,.8743-.2746,3.44,3.44,0,0,1,.8869-.164,2.492,2.492,0,0,1,.5169.0033,1.5714,1.5714,0,0,1,.4462.1225.9328.9328,0,0,1,.5448.6779.9582.9582,0,0,1-.061.634,3.1178,3.1178,0,0,1-.3246.54.27.27,0,0,1,.0568-.0043.13.13,0,0,0,.0588-.0124.7671.7671,0,0,1,.3343.0052.913.913,0,0,1,.3012.13.8326.8326,0,0,1,.2325.2324.8461.8461,0,0,1,.13.3115.9.9,0,0,1-.0024.3432.8613.8613,0,0,1-.1263.3018.8314.8314,0,0,1-.5527.3606q-.422.0815-.7707.1431t-.6171.1071c-.2481.03-.4482.05-.6.0572A1.9411,1.9411,0,0,1,164.7763,145.7674Z"/>
    <path d="M167.96,146.0971a1.1847,1.1847,0,0,1-.2251-.0616.9333.9333,0,0,1-.3207-.2288.9815.9815,0,0,1-.1992-.3316.8622.8622,0,0,1-.5026-.04.8176.8176,0,0,1-.403-.3379.7521.7521,0,0,1-.124-.3155.8548.8548,0,0,1,.0134-.333.8751.8751,0,0,1,.1345-.3005.9182.9182,0,0,1,.2413-.2353c.07-.0415.1461-.09.228-.1469s.1681-.1185.26-.1846c.157-.1147.3216-.2289.4933-.344s.3374-.218.4968-.3084c.1074-.0587.21-.1091.3065-.1513a2.6277,2.6277,0,0,1,.2732-.1047,1.3217,1.3217,0,0,1,.8841.0179,1.0181,1.0181,0,0,1,.3673.293,1.0931,1.0931,0,0,1,.205.4328,1.0767,1.0767,0,0,1-.121.7114c-.0161.0262-.0314.0525-.0476.0794s-.0347.0555-.0571.0863a.8771.8771,0,0,1,.366.5452.8984.8984,0,0,1-.0024.3474.88.88,0,0,1-.1269.3059.8314.8314,0,0,1-.5527.3606c-.192.039-.3637.0743-.5166.1055s-.2828.0548-.39.0729c-.0658.0127-.123.024-.1708.034s-.087.0178-.1168.025c-.0586.0026-.12.007-.1846.0143A.78.78,0,0,1,167.96,146.0971Z"/>
  </g>
  <g style="opacity: 0.1">
    <path d="M146.557,151.6771c-.0628-.0049-.1214-.0108-.175-.0184a.9509.9509,0,0,1-.1233-.022,1.2184,1.2184,0,0,1-.4112-.2513.9529.9529,0,0,1-.2549-.3864.7848.7848,0,0,1-.06-.2241,1.1439,1.1439,0,0,1-.0017-.2029,1.3424,1.3424,0,0,1,.046-.2632c-.0491-.0385-.1-.0793-.1544-.1238a.4731.4731,0,0,1-.1185-.1384.96.96,0,0,1-.1607-.5986.8785.8785,0,0,1,.1205-.3824,1.1436,1.1436,0,0,1,.2692-.3112c.0312-.0261.0879-.0766.1714-.1507a3.13,3.13,0,0,0,.2284-.2234l.1858-.1753q.129-.1192.2639-.2422t.264-.2338c.0973-.073.1827-.1352.2555-.1872a2.1116,2.1116,0,0,1,.1908-.1235,1.2262,1.2262,0,0,1,.9378-.1.8964.8964,0,0,1,.617.6082l-.0083-.01a1.3046,1.3046,0,0,1,.0443.1542.916.916,0,0,1,.0181.1521c.0867-.0794.1641-.1547.2329-.2272s.1315-.1378.1881-.1966l.13-.1275a.1239.1239,0,0,0,.0282-.0325.0865.0865,0,0,0,.0192-.0242,1.1044,1.1044,0,0,1,.4923-.294.914.914,0,0,1,.5464.0124.8782.8782,0,0,1,.3327.2153,1.2159,1.2159,0,0,1,.2365.3371,1.0356,1.0356,0,0,1,.0709.475,1.8031,1.8031,0,0,1-.05.2587.6678.6678,0,0,1-.0284.08c-.01.0249-.019.0485-.027.0708l-.0637.159-.01.0249a1.0615,1.0615,0,0,1,.331.1207.8534.8534,0,0,1,.27.2362,1.003,1.003,0,0,1,.1754.6338.9257.9257,0,0,1-.4077.7006l-.0461.0395q-.1921.14-.405.2792a4.9494,4.9494,0,0,1-.4465.2586,1.95,1.95,0,0,1-1.0167.2229,1.4617,1.4617,0,0,1-.4062-.0918.9419.9419,0,0,1-.2783-.1375.8619.8619,0,0,1-.2116-.2192c-.0728.052-.1425.1-.2091.1436s-.1415.0877-.2256.1333l.0083.0006a3.5612,3.5612,0,0,1-.3949.2022c-.1243.0536-.2431.0986-.355.1358a1.34,1.34,0,0,1-.3146.0618A1.98,1.98,0,0,1,146.557,151.6771Z"/>
    <path d="M153.5278,151.5692a.9378.9378,0,0,1-.2625-.0634.81.81,0,0,1-.3531-.2211.8923.8923,0,0,1-.2052-.3562,1.0016,1.0016,0,0,1,.0652-.7361,2.7166,2.7166,0,0,1,.1811-.3305c.0128-.0219.0278-.0451.0436-.07s.0345-.0508.0539-.0778q-.2057.0872-.4028.1884t-.4021.1884q-.3677.1873-.7027.3381t-.618.25a.7688.7688,0,0,1-.3353.0519.8727.8727,0,0,1-.5818-.2825.7948.7948,0,0,1-.1711-.2931.7688.7688,0,0,1-.0519-.3353.8956.8956,0,0,1,.0849-.3171.8741.8741,0,0,1,.1976-.2646.7948.7948,0,0,1,.2931-.1711q.2041-.079.5035-.2153t.6392-.2993q.3932-.1936.8274-.3973a8.0585,8.0585,0,0,1,.85-.3434,3.44,3.44,0,0,1,.871-.2341,2.492,2.492,0,0,1,.5155-.0379,1.5714,1.5714,0,0,1,.4545.0865.9328.9328,0,0,1,.5971.6324.9582.9582,0,0,1-.01.6368,3.1178,3.1178,0,0,1-.28.5645.27.27,0,0,1,.0563-.0088.13.13,0,0,0,.0576-.0171.7671.7671,0,0,1,.3337-.0214.913.913,0,0,1,.3106.106.8326.8326,0,0,1,.25.2131.8461.8461,0,0,1,.1539.3.9.9,0,0,1,.0249.3423.8613.8613,0,0,1-.1018.3109.8314.8314,0,0,1-.5223.4035q-.4142.1149-.7569.2041t-.6066.1559c-.2449.05-.4428.0852-.5936.1048A1.9411,1.9411,0,0,1,153.5278,151.5692Z"/>
    <path d="M156.7268,151.6442a1.1847,1.1847,0,0,1-.2293-.0434.9333.9333,0,0,1-.3379-.2025.9815.9815,0,0,1-.225-.3147.8622.8622,0,0,1-.5043,0,.8176.8176,0,0,1-.4286-.3047.7521.7521,0,0,1-.1487-.3046.8548.8548,0,0,1-.0132-.333.8751.8751,0,0,1,.11-.31.9182.9182,0,0,1,.2217-.2537c.0668-.0469.1385-.1018.2155-.1646s.1581-.1316.2443-.2048c.1473-.1268.3023-.2538.4644-.3822s.3189-.2442.4707-.347c.1024-.0671.2007-.1255.2935-.1753a2.6277,2.6277,0,0,1,.264-.1262,1.3217,1.3217,0,0,1,.8827-.0526,1.0181,1.0181,0,0,1,.3895.2628,1.0931,1.0931,0,0,1,.2388.4151,1.0767,1.0767,0,0,1-.0639.7188c-.0139.0274-.0272.0549-.0411.0829s-.03.0581-.05.0906a.8771.8771,0,0,1,.4083.5143.8984.8984,0,0,1,.0253.3465.88.88,0,0,1-.1021.3151.8314.8314,0,0,1-.5223.4035c-.1883.0542-.3566.103-.5065.1463s-.2775.0772-.3831.1038c-.0646.0179-.1207.0337-.1676.0475s-.0853.0247-.1145.0342c-.0582.0073-.1187.0165-.1828.0289A.78.78,0,0,1,156.7268,151.6442Z"/>
  </g>
</svg>
