<svg id="99fd2db5-4fdc-43cb-b51d-ba0721596b4b" data-name="Layer 1" xmlns="http://www.w3.org/2000/svg" xmlns:xlink="http://www.w3.org/1999/xlink" viewBox="0 0 528.148 420">
  <defs>
    <linearGradient id="85bbf3c6-ddd1-4479-bf10-ec85b8913559" x1="286.99359" y1="206.50238" x2="286.99359" y2="193.66403" gradientUnits="userSpaceOnUse">
      <stop offset="0" stop-color="#3a3a3a" stop-opacity="0"/>
      <stop offset="0.24709" stop-color="#3a3a3a" stop-opacity="0.14343"/>
      <stop offset="0.63647" stop-color="#3a3a3a" stop-opacity="0.53387"/>
      <stop offset="1" stop-color="#3a3a3a"/>
    </linearGradient>
    <linearGradient id="31631ce3-42f8-4624-a305-f0bd64769abc" x1="240.35886" y1="206.50238" x2="240.35886" y2="193.66403" xlink:href="#85bbf3c6-ddd1-4479-bf10-ec85b8913559"/>
    <clipPath id="da55b594-2a0b-4cfc-b215-51bd86f824c7">
      <rect id="3dfae33d-8de8-4ee0-956b-3ac6746da10c" data-name="&lt;Rectangle&gt;" x="103.60072" y="287.58834" width="320.94656" height="108.16927" fill="none"/>
    </clipPath>
  </defs>
  <g>
    <path d="M289.82,300.19344H238.21652a5.25941,5.25941,0,0,1-5.46344-4.75027L230.64773,271.687H297.3888l-2.10535,23.75614A5.25941,5.25941,0,0,1,289.82,300.19344Z" fill="#3a3a3a"/>
    <polygon points="290.9 323.687 237.137 323.687 234.869 273.141 293.168 273.141 290.9 323.687" fill="#3a3a3a"/>
    <path d="M274.3866,233.062l-10.36835,1.01025L253.64991,233.062l-17.90121,3.81849a11.432,11.432,0,0,0-8.99943,11.21179v27.87638a8.47311,8.47311,0,0,0,8.71082,8.21334h23.9834a4.67383,4.67383,0,0,0,3.56975-1.61563,1.33787,1.33787,0,0,1,2.01005,0A4.67386,4.67386,0,0,0,268.593,284.182h23.9834a8.47311,8.47311,0,0,0,8.71082-8.21334V248.09231a11.432,11.432,0,0,0-8.99943-11.21179Z" fill="#3a3a3a"/>
    <path d="M253.35385,227.58571h21.32882a0,0,0,0,1,0,0V235.72a8.467,8.467,0,0,1-8.467,8.467h-4.39483a8.467,8.467,0,0,1-8.467-8.467v-8.13433A0,0,0,0,1,253.35385,227.58571Z" fill="#f9bfa2"/>
    <polygon points="222.706 298.888 201.811 296.072 205.216 274.276 226.111 277.093 222.706 298.888" fill="#feccae"/>
    <polygon points="305.465 298.888 326.36 296.072 322.955 274.276 302.06 277.093 305.465 298.888" fill="#feccae"/>
    <polygon points="219.833 342.567 205 342.567 201.811 296.072 222.706 298.888 219.833 342.567" fill="#feccae"/>
    <path d="M220.97342,360.88834l-14.49632-2.05365a3.99605,3.99605,0,0,1-3.417-4.34128l1.55312-16.05658,15.63623-2.14815,3.74365,3.19667a5.6039,5.6039,0,0,1,1.89808,3.39872l1.55978,10.00862a3.996,3.996,0,0,1-.48419,2.60725l-1.96867,3.42377A3.99605,3.99605,0,0,1,220.97342,360.88834Z" fill="#feccae"/>
    <polygon points="308.338 342.567 323.172 342.567 326.36 296.072 305.465 298.888 308.338 342.567" fill="#feccae"/>
    <path d="M307.19774,360.88834l14.49632-2.05365a3.99605,3.99605,0,0,0,3.417-4.34128l-1.55312-16.05658-15.63623-2.14815-3.74365,3.19667a5.6039,5.6039,0,0,0-1.89808,3.39872l-1.55979,10.00862a3.996,3.996,0,0,0,.48419,2.60725l1.96867,3.42377A3.99605,3.99605,0,0,0,307.19774,360.88834Z" fill="#feccae"/>
    <path d="M245.36753,382.70657h-2.70483c-5.62095,0-10.17763-4.92871-10.17763-11.00858V341.7847A24.80037,24.80037,0,0,1,235.2464,330.371l.615-1.18392h25.38828v36.34073C261.24964,375.01536,254.139,382.70657,245.36753,382.70657Z" fill="#424242"/>
    <path d="M282.28468,382.70655h2.73088c5.67509,0,10.27566-4.92871,10.27566-11.00858V341.78468a24.60933,24.60933,0,0,0-2.78792-11.41374l-.62088-1.18392H266.2496v36.34073C266.2496,375.01534,273.42875,382.70655,282.28468,382.70655Z" fill="#424242"/>
    <rect x="234.96873" y="321.71829" width="58.19919" height="7.46875" rx="1.25049" ry="1.25049" fill="#424242"/>
    <polygon points="301.014 277.234 322.955 274.276 318.915 248.456 296.974 251.413 301.014 277.234" fill="#3a3a3a"/>
    <polygon points="228.712 277.444 205.216 274.276 209.295 248.461 232.791 251.628 228.712 277.444" fill="#3a3a3a"/>
    <path d="M207.479,261.44371l24.038,3.24008,3.24008-24.038L222.264,238.827a18.20288,18.20288,0,0,0-8.04928,1.11291,12.78579,12.78579,0,0,0-6.87763,11.71907Z" fill="#3a3a3a"/>
    <path d="M320.69215,261.44371l-24.038,3.24008-3.24008-24.038L305.9072,238.827a18.20288,18.20288,0,0,1,8.04928,1.11291,12.78579,12.78579,0,0,1,6.87763,11.71907Z" fill="#3a3a3a"/>
    <rect x="256.60502" y="329.18702" width="14.2263" height="22.94436" fill="#424242"/>
    <path id="3319b568-0092-4eda-9984-e1582acfc2f0" data-name="&lt;Path&gt;" d="M263.72425,234.20337h-.09059c-8.20767,0-13.51142-4.87019-18.18587-10.88519-3.36187-4.326-7.36374-8.76143-7.36374-14.66441V189.36442a25.5496,25.5496,0,0,1,25.5496-25.5496h.09059a25.5496,25.5496,0,0,1,25.5496,25.5496v19.28935c0,5.903-4.00186,10.3384-7.36374,14.66441C277.23567,229.33319,271.93192,234.20337,263.72425,234.20337Z" fill="#feccae"/>
    <path id="dd6276b1-d289-44ec-8a75-3eac3f64bb85" data-name="&lt;Path&gt;" d="M255.73084,197.66841a2.91986,2.91986,0,0,0-5.79324,0" fill="none" stroke="#5b5b5b" stroke-linecap="round" stroke-miterlimit="10" stroke-width="1.6"/>
    <ellipse id="edbd9d35-3feb-41d4-885e-ba264bd0bddd" data-name="&lt;Path&gt;" cx="278.98132" cy="204.96825" rx="1.2323" ry="2.91854" transform="translate(-2.95451 405.85316) rotate(-71.77545)" fill="#f9bfa2"/>
    <ellipse id="38364b80-7757-479f-9a4f-6bb899d2171b" data-name="&lt;Path&gt;" cx="247.64931" cy="204.96825" rx="2.91854" ry="1.2323" transform="translate(-51.67963 87.73194) rotate(-18.22455)" fill="#f9bfa2"/>
    <path id="fb26729c-6a94-4c2b-b358-4696530fe70f" data-name="&lt;Path&gt;" d="M266.59759,224.49906H260.7605c-5.33316,0-11.83737-4.63818-13.27951-10.99623-.4935-2.17575-.11179-4.76437,2.44211-4.37593l9.53742,1.37032a30.4601,30.4601,0,0,0,8.763-.01439l9.222-1.35593c2.16377-.38844,2.93049,2.0169,2.49486,4.08653C278.5709,219.71965,272.01135,224.49906,266.59759,224.49906Z" fill="#fff"/>
    <path d="M263.59812,207.9835h0a2.42591,2.42591,0,0,1-2.31012-2.40527l-.52468-9.952a2.45894,2.45894,0,0,1,2.31013-2.70189h1.04936a2.45894,2.45894,0,0,1,2.31012,2.70189l-.52468,9.952A2.42591,2.42591,0,0,1,263.59812,207.9835Z" fill="#f9bfa2"/>
    <path d="M263.99191,204.152l-3.51689-.48381a1.91516,1.91516,0,0,0-2.12351,1.65985h0a1.88568,1.88568,0,0,0,1.5718,2.1682l3.51689.48381a1.91516,1.91516,0,0,0,2.12351-1.65985h0A1.88568,1.88568,0,0,0,263.99191,204.152Z" fill="#f9bfa2"/>
    <path d="M291.55814,196.13587h-2.28429v10.02272h1.3027c1.96,0,3.64726-1.78327,4.03081-4.26006l.121-.78169C295.1275,198.53959,293.59759,196.13587,291.55814,196.13587Z" fill="#f9bfa2"/>
    <path d="M235.79431,196.13587h2.28429v10.02272h-1.3027c-1.96,0-3.64726-1.78327-4.03081-4.26006l-.121-.78169C232.225,198.53959,233.75486,196.13587,235.79431,196.13587Z" fill="#f9bfa2"/>
    <rect x="270.54799" y="189.13726" width="10.24045" height="2.1875" rx="1.01041" ry="1.01041" transform="translate(39.9356 -47.69952) rotate(10.65738)" fill="#5b5b5b"/>
    <path id="35dd0b05-df88-4154-b8a1-d719192977e8" data-name="&lt;Path&gt;" d="M277.05966,197.66841a2.91986,2.91986,0,0,0-5.79324,0" fill="none" stroke="#5b5b5b" stroke-linecap="round" stroke-miterlimit="10" stroke-width="1.6"/>
    <path id="87236de6-e94b-4252-961b-c73c5b12adbd" data-name="&lt;Path&gt;" d="M269.89208,217.54052H257.30416a.74835.74835,0,1,1,0-1.4967h12.58792a.74835.74835,0,1,1,0,1.4967Z" fill="#ededed"/>
    <rect x="246.71399" y="188.81579" width="10.24045" height="2.1875" rx="1.01041" ry="1.01041" transform="translate(534.4455 329.97013) rotate(169.34262)" fill="#5b5b5b"/>
    <rect x="261.18753" y="227.58571" width="5.46794" height="2" rx="0.79577" ry="0.79577" fill="#f9bfa2"/>
    <g>
      <path id="c5ad0bef-5038-4104-b9a8-31f1ba61cc6c" data-name="&lt;Path&gt;" d="M271.03718,154.02909H256.31532c-10.07186,0-18.23672,10.57319-18.23672,21.14875V193.664h4.56052l.716-12.80893a2.67658,2.67658,0,0,1,3.72019-2.56669L257.697,183.111a14.40787,14.40787,0,0,0,11.95841,0l10.62169-4.82262a2.67658,2.67658,0,0,1,3.72019,2.56669l.716,12.80892h4.56052V173.1778C289.27385,162.60226,281.109,154.02909,271.03718,154.02909Z" fill="#3a3a3a"/>
      <path d="M265.05835,184.4281H263.1344a15.06133,15.06133,0,0,1-13.32465-8.04012l-.7836-1.48709a1.25389,1.25389,0,0,1,1.28493-1.82606l5.72559.80991a3.146,3.146,0,0,0,2.60543-.83226l3.5526-3.36912a2.76358,2.76358,0,0,1,3.80336,0l3.5526,3.36912a3.146,3.146,0,0,0,2.60543.83226l5.72559-.80991a1.25389,1.25389,0,0,1,1.28493,1.82606l-.7836,1.48709A15.06133,15.06133,0,0,1,265.05835,184.4281Z" fill="#333"/>
      <polygon points="289.274 206.502 285.457 206.502 284.713 193.664 289.274 193.664 289.274 206.502" fill="url(#85bbf3c6-ddd1-4479-bf10-ec85b8913559)"/>
      <polygon points="238.079 206.502 241.895 206.502 242.639 193.664 238.079 193.664 238.079 206.502" fill="url(#31631ce3-42f8-4624-a305-f0bd64769abc)"/>
    </g>
  </g>
  <g id="e5308e41-e928-4d78-9dec-2baa0347c00a" data-name="&lt;Group&gt;">
    <rect id="f5be8cf9-b61b-4dcd-827a-a9bfed4bb6ec" data-name="&lt;Rectangle&gt;" x="91.65216" y="388.09095" width="344.84359" height="16.77474" rx="8.01198" ry="8.01198" opacity="0.08"/>
    <rect id="93c380bf-a4dd-48d9-b761-36729e8af29c" data-name="&lt;Rectangle&gt;" x="103.60072" y="287.58834" width="320.94656" height="108.16927" fill="#b47860"/>
    <g opacity="0.5">
      <g clip-path="url(#da55b594-2a0b-4cfc-b215-51bd86f824c7)">
        <g>
          <g>
            <path d="M321.389,608.55771c2.36693-18.05433,6.15787-23.20845-5.08507-74.59383s-13.314-96.38227-4.14213-141.65695,5.62145-69.77357,5.62145-92.9682" fill="none" stroke="#aa6f5b" stroke-linecap="round" stroke-linejoin="round" stroke-width="1.75"/>
            <path d="M323.777,367.58641c3.0351-40.83053,0-51.27075,0-68.24768" fill="none" stroke="#aa6f5b" stroke-linecap="round" stroke-linejoin="round" stroke-width="1.75"/>
            <path d="M321.92543,378.14124s-7.69255,41.1083-8.28427,64.99555,1.47932,53.60742,8.28427,90.27157,10.05948,32.22,4.438,76.38365-4.91915,54.99622-4.97445,69.4397-3.014,16.11-2.12635,31.94226,4.5908,13.61017,4.51438,31.109,0,41.05579,0,41.05579" fill="none" stroke="#aa6f5b" stroke-linecap="round" stroke-linejoin="round" stroke-width="1.75"/>
            <path d="M330.50556,299.33874c1.59112,26.0116,2.98408,55.08758-5.3796,101.3321s-5.86333,82.18545,1.23747,123.016,12.4264,39.99725,5.91733,93.88245-4.74192,54.71848-4.73787,64.99555,7.86215,17.0359,7.6807,26.66483-5.88288,15.5545-5.9908,26.10932.48383,32.0749,1.27278,47.99977" fill="none" stroke="#aa6f5b" stroke-linecap="round" stroke-linejoin="round" stroke-width="1.75"/>
            <path d="M335.22668,299.33874s2.946,43.2494,0,80.46905-9.75085,36.94192-8.86325,75.13375,5.00428,57.07943,8.86325,79.02235,9.77635,27.49812,6.226,58.6071-9.59028,43.209-8.28427,82.7721c0,0-.19723,12.12875,3.649,21.29478s4.24072,16.29528.29585,27.96116-3.5504,26.2018-3.35315,31.757,1.46657,26.98275,1.46657,26.98275" fill="none" stroke="#aa6f5b" stroke-linecap="round" stroke-linejoin="round" stroke-width="1.75"/>
            <path d="M341.354,299.33874c1.19025,12.40143,2.46558,65.4701-2.86005,99.63443s-7.678,44.1095-5.46035,70.13325c3.25455,38.19163,8.7149,64.0242,11.08182,72.91247s7.1008,29.998,3.25455,50.82985-7.99178,45.55242-7.39837,68.88418,1.0015,25.46115,2.57265,32.86815,5.31883,10.55483,2.55742,26.29446.59172,48.37,1.97243,62.44322" fill="none" stroke="#aa6f5b" stroke-linecap="round" stroke-linejoin="round" stroke-width="1.75"/>
            <path d="M347.07411,299.33874c.69462,12.40922,3.2545,49.313.4438,75.88605-1.37527,13.0025-8.13635,49.57993-9.02395,63.46785s2.07108,43.33038,4.0503,58.32935,11.33477,53.88517,11.92652,75.2726-5.62147,30.83123-7.5939,52.21865-.3945,37.3123,0,49.1633,4.9311,23.054,4.9311,35.96976-1.18347,11.61962-1.97245,26.98885,2.86005,46.70359,2.86005,46.70359" fill="none" stroke="#aa6f5b" stroke-linecap="round" stroke-linejoin="round" stroke-width="1.75"/>
            <path d="M346.42116,460.08006a148.56071,148.56071,0,0,1,0-50.27432" fill="none" stroke="#aa6f5b" stroke-linecap="round" stroke-linejoin="round" stroke-width="1.75"/>
            <path d="M352.69558,299.33874a462.51714,462.51714,0,0,1,1.81475,70.46975c-2.04,37.5729-9.2443,54.99622,1.86715,93.04918s8.7445,67.2176,7.561,85.54967-8.28428,42.4971-4.14213,88.60505,10.80723,40.82808,7.1008,88.605c-2.241,28.8869,2.07108,57.72132,2.07108,57.72132" fill="none" stroke="#aa6f5b" stroke-linecap="round" stroke-linejoin="round" stroke-width="1.75"/>
            <path d="M362.755,299.33874c1.58687,16.24373,3.84632,44.63738,0,74.91307s-8.45143,60.83.2123,90.55015,11.32648,53.05192,6.00088,99.7154-4.438,59.1626-1.47935,82.77207,8.28428,39.164,5.62148,82.77211c0,0-2.69477,19.6684.72368,53.27719" fill="none" stroke="#aa6f5b" stroke-linecap="round" stroke-linejoin="round" stroke-width="1.75"/>
            <path d="M368.96826,299.33874s3.84625,50.74888-1.47935,84.07993-3.25453,59.44038,1.47935,76.6614,10.05945,27.49813,10.05945,57.49608-7.28915,65.55105-7.34293,96.38227,7.6388,54.56955,8.5264,81.44772-1.7752,48.45073-2.07108,62.80168a214.96638,214.96638,0,0,0,.8876,25.13092" fill="none" stroke="#aa6f5b" stroke-linecap="round" stroke-linejoin="round" stroke-width="1.75"/>
            <path d="M396.188,409.80574c-3.84625-22.2207-11.11547-38.09683-14.7933-59.3023-3.68517-21.24773-1.5837-32.83778-2.367-51.1647" fill="none" stroke="#aa6f5b" stroke-linecap="round" stroke-linejoin="round" stroke-width="1.75"/>
            <path d="M372.36668,387.86281a195.09032,195.09032,0,0,0,3.11062-41.1083c-.4306-11.80555-.7092-36.72667-1.64325-47.41577" fill="none" stroke="#aa6f5b" stroke-linecap="round" stroke-linejoin="round" stroke-width="1.75"/>
            <path d="M379.46636,369.80849c.8876,4.16637,5.3256,18.05433,5.3256,18.05433" fill="none" stroke="#aa6f5b" stroke-linecap="round" stroke-linejoin="round" stroke-width="1.75"/>
            <path d="M378.73186,390.91814c-5.3256.55552-11.243,12.7769-7.9884,42.4971s10.05945,41.38605,13.314,41.6638,10.94707-35.55313,10.35532-50.55207C393.53566,402.29379,384.05746,390.36264,378.73186,390.91814Z" fill="none" stroke="#aa6f5b" stroke-linecap="round" stroke-linejoin="round" stroke-width="1.75"/>
            <path d="M382.35213,417.30524c-1.1136,3.3331,1.11358,23.33173,4.18823,23.33173s4.322-40.275-6.14888-39.164,1.00317,56.94053,1.00317,56.94053" fill="none" stroke="#aa6f5b" stroke-linecap="round" stroke-linejoin="round" stroke-width="1.75"/>
            <path d="M393.10743,597.01511c.17392-13.05465,4.5599-41.38605,4.5599-41.38605s8.28425-64.71777,6.2132-115.82537-12.5631-60.17058-16.75263-88.3744c-3.65832-24.628-.3952-36.819-1.29525-52.09055" fill="none" stroke="#aa6f5b" stroke-linecap="round" stroke-linejoin="round" stroke-width="1.75"/>
            <path d="M390.08656,322.86726c0,7.70015,1.48472,19.44848,3.74767,30.5989,4.59388,22.63583,10.7961,32.62308,13.90258,70.95188s1.78515,61.77135,0,84.2698-6.4242,62.218-8.09893,76.1059-5.81682,29.998-2.5623,58.6071,7.17388,31.66447,7.13733,60.27363,1.14695,79.66427,1.14695,79.66427" fill="none" stroke="#aa6f5b" stroke-linecap="round" stroke-linejoin="round" stroke-width="1.75"/>
            <path d="M404.21291,584.81571s10.2202-71.96147,10.2202-111.12547-1.97245-66.66208-11.14432-103.88175a378.29818,378.29818,0,0,1-10.18135-70.46975" fill="none" stroke="#aa6f5b" stroke-linecap="round" stroke-linejoin="round" stroke-width="1.75"/>
            <path d="M399.48211,299.33874a379.51617,379.51617,0,0,0,8.73777,64.35905c7.69255,33.33105,11.04573,71.10625,11.04573,92.77143s-1.263,59.71812.99575,84.43865,10.54305,53.32967,10.83893,85.27193-9.6829,54.91093-12.22917,68.236c-2.67147,13.98056-2.56417,58.73973-1.57795,88.92293" fill="none" stroke="#aa6f5b" stroke-linecap="round" stroke-linejoin="round" stroke-width="1.75"/>
            <path d="M405.35986,299.33874c.3564,12.1535,5.8187,67.69215,13.11678,68.24768s-1.38072-44.2267-1.18347-68.24768" fill="none" stroke="#aa6f5b" stroke-linecap="round" stroke-linejoin="round" stroke-width="1.75"/>
            <path d="M410.99451,304.44261s2.551,31.29413,6.1014,49.6262" fill="none" stroke="#aa6f5b" stroke-linecap="round" stroke-linejoin="round" stroke-width="1.75"/>
            <path d="M418.87111,401.45039c.789-21.4574-3.94487-30.53087-3.94487-30.53087" fill="none" stroke="#aa6f5b" stroke-linecap="round" stroke-linejoin="round" stroke-width="1.75"/>
            <path d="M425.54391,299.33874s2.79493,36.21285.62525,62.8777-4.3394,38.3307-2.36692,63.6993,4.73388,26.47965,6.50907,58.14415-.3945,38.1455,2.36692,61.107,6.3118,59.2551,5.72008,76.84655-6.7063,46.29307-9.46775,72.4024.2779,50.92248,1.81552,67.95838,1.34042,20.96455,1.34042,20.96455" fill="none" stroke="#aa6f5b" stroke-linecap="round" stroke-linejoin="round" stroke-width="1.75"/>
            <path d="M432.08651,299.33874s2.8639,41.75583-.97977,75.50183-.30232,52.18623,2.65635,70.79605,3.25453,42.12678,2.95865,58.14415,2.6628,48.4535,4.438,68.48305c1.7752,20.0294,7.543,39.43673-2.6961,99.4684a294.83961,294.83961,0,0,0-3.22123,67.77313c2.6628,36.38639,3.4838,36.33392,3.22123,43.83339" fill="none" stroke="#aa6f5b" stroke-linecap="round" stroke-linejoin="round" stroke-width="1.75"/>
            <path d="M438.46363,299.33874s2.92537,36.03458,0,68.25113-5.33505,30.55-.284,67.35305,3.86765,52.911,4.16352,72.35513,9.46772,74.44035,9.17188,111.66-5.01615,43.33035-8.12955,67.77312-3.70513,34.16433-2.81752,51.66313,4.38178,31.88977,3.81817,44.94442" fill="none" stroke="#aa6f5b" stroke-linecap="round" stroke-linejoin="round" stroke-width="1.75"/>
            <path d="M441.75148,414.52764c-2.07108-29.16468,2.36692-21.94293,5.62145-42.49708s2.6628-72.69182,2.6628-72.69182" fill="none" stroke="#aa6f5b" stroke-linecap="round" stroke-linejoin="round" stroke-width="1.75"/>
            <path d="M442.34321,375.36366c4.14213-29.44242,2.043-76.02492,2.043-76.02492" fill="none" stroke="#aa6f5b" stroke-linecap="round" stroke-linejoin="round" stroke-width="1.75"/>
            <path d="M448.81941,389.25159c-3.1395.6944-3.8134,4.7219-3.07373,18.33208s3.9942,20.9708,5.7764,20.83193,5.61447-1.52768,5.02272-17.77658S452.76286,388.37939,448.81941,389.25159Z" fill="none" stroke="#aa6f5b" stroke-linecap="round" stroke-linejoin="round" stroke-width="1.75"/>
            <path d="M449.59193,409.87519s.59175,16.04055,2.95868,12.29083-1.5115-24.58165-1.5115-24.58165" fill="none" stroke="#aa6f5b" stroke-linecap="round" stroke-linejoin="round" stroke-width="1.75"/>
            <path d="M452.69856,434.03076c-1.65945,8.27275-2.51488,15.07785-6.06527,13.9668s-4.29008-28.05363-4.29008-28.05363" fill="none" stroke="#aa6f5b" stroke-linecap="round" stroke-linejoin="round" stroke-width="1.75"/>
            <path d="M451.03911,523.40906s-5.1455-33.0533-2.2197-55.83155,12.75515-27.49608,13.051-53.04987-7.69252-31.38673-7.1008-56.5239,2.36695-58.665,2.36695-58.665" fill="none" stroke="#aa6f5b" stroke-linecap="round" stroke-linejoin="round" stroke-width="1.75"/>
            <path d="M464.23736,299.33874s-2.2782,36.69278-2.3589,48.6657a167.11725,167.11725,0,0,0,2.9638,33.7931c2.219,12.2214,4.7207,16.89785,4.7207,35.3688s-5.02975,30.83123-10.50327,47.35787-3.5504,38.60845-2.07108,55.55175,4.29008,41.52492,5.91735,68.46753.59172,58.4682-1.18347,75.82813-8.72807,34.44207-11.68322,41.52493-4.73738,13.749-1.77873,27.77587,9.76362,15.5545,13.462,28.8869,2.51487,20.77942,2.51487,20.77942" fill="none" stroke="#aa6f5b" stroke-linecap="round" stroke-linejoin="round" stroke-width="1.75"/>
            <path d="M470.54918,299.33874c0,15.4491-2.94553,26.53675.13645,62.13618,3.77385,43.59157,7.45745,41.38685,4.20292,73.468s-12.11447,32.26632-13.0101,58.00525,5.72072,49.07072,7.1464,76.01333,1.4257,70.82847,3.49675,95.27125,6.70632,39.07136,9.86225,48.14488,7.49528,12.962,4.73388,28.3314-5.52287,24.29765-4.93115,42.62972" fill="none" stroke="#aa6f5b" stroke-linecap="round" stroke-linejoin="round" stroke-width="1.75"/>
            <path d="M481.46591,419.94394c.5362-20.68083-2.67023-46.46382-3.86518-69.30162-1.18037-22.558-.34233-42.24257-.937-51.30358" fill="none" stroke="#aa6f5b" stroke-linecap="round" stroke-linejoin="round" stroke-width="1.75"/>
            <path d="M498.20738,660.02226a380.89424,380.89424,0,0,0-3.2393-44.88337c-1.93937-14.58287-4.31795-20.71623-5.09792-40.15932s10.2657-50.73722,12.43537-65.7362,2.5642-37.03447,1.38074-53.51488-2.95866-52.58895-3.74766-67.86567-2.8522-63.1143.39452-88.52408" fill="none" stroke="#aa6f5b" stroke-linecap="round" stroke-linejoin="round" stroke-width="1.75"/>
            <path d="M483.63306,450.72884c-.92048,7.40693,2.69567,14.81385,6.19775,12.59177s.24558-27.03522-1.8332-45.92282-2.65508-45.55242-3.83855-64.99555-.38133-34.73658-1.97248-53.0635" fill="none" stroke="#aa6f5b" stroke-linecap="round" stroke-linejoin="round" stroke-width="1.75"/>
            <path d="M485.42646,561.04536a145.94414,145.94414,0,0,1,2.57115-27.91475c2.8678-14.58233,9.081-27.72955,9.82065-49.62625s-1.62725-47.98077-2.81072-60.77023-2.6108-53.57462-3.31933-72.09182" fill="none" stroke="#aa6f5b" stroke-linecap="round" stroke-linejoin="round" stroke-width="1.75"/>
            <path d="M490.07638,299.33874c1.61182,13.0495,1.61182,44.916,1.61182,44.916" fill="none" stroke="#aa6f5b" stroke-linecap="round" stroke-linejoin="round" stroke-width="1.75"/>
            <path d="M507.286,299.33874c-1.91,20.549-1.92314,51.44328-1.92314,62.83138s1.03553,50.27432,1.80856,61.38467,2.77738,42.35823,3.8129,56.94055-.14792,30.41458-1.3314,42.91372-7.9884,28.748-9.17187,39.85838,3.99421,28.60915,5.17768,40.13612,2.219,39.7195,2.95867,54.02408,1.92312,31.80337,4.23705,42.4971.64475,18.74871-.09492,23.841-1.18345,12.12875,0,30.87745.8876,28.69555.8876,28.69555" fill="none" stroke="#aa6f5b" stroke-linecap="round" stroke-linejoin="round" stroke-width="1.75"/>
            <path d="M526.764,538.52074a96.85072,96.85072,0,0,1-5.91742-15.945c-4.93113-18.7024-6.50908-99.62282-6.81005-118.51042s-1.5728-73.34505-.38935-104.72663" fill="none" stroke="#aa6f5b" stroke-linecap="round" stroke-linejoin="round" stroke-width="1.75"/>
            <path d="M526.764,517.49176a138.23054,138.23054,0,0,1-2.46563-17.96995c-3.25482-40.79683-2.98265-174.35667-4.04352-200.18308" fill="none" stroke="#aa6f5b" stroke-linecap="round" stroke-linejoin="round" stroke-width="1.75"/>
            <path d="M359.64843,355.22534c.83707-16.01745-.3474-35.472-2.51485-55.8866" fill="none" stroke="#aa6f5b" stroke-linecap="round" stroke-linejoin="round" stroke-width="1.75"/>
            <path d="M311.96243,359.48469c.9862-15.617,0-60.146,0-60.146" fill="none" stroke="#aa6f5b" stroke-linecap="round" stroke-linejoin="round" stroke-width="1.75"/>
            <path d="M307.45581,389.16954s2.83-11.75327,1.05482-21.578-2.10965-68.25283-2.10965-68.25283" fill="none" stroke="#aa6f5b" stroke-linecap="round" stroke-linejoin="round" stroke-width="1.75"/>
            <path d="M303.77676,356.47606c-1.70122-21.00137-3.40247-34.8893-3.40247-57.13733" fill="none" stroke="#aa6f5b" stroke-linecap="round" stroke-linejoin="round" stroke-width="1.75"/>
          </g>
          <g>
            <path d="M42.72563,299.33961c.00305.075,1.97263,48.00555,2.26828,92.96733.29585,44.99692,1.18345,108.5111,5.91732,127.86157s10.12882,21.943,9.79828,43.14517C60.379,584.516,53.27818,580.72,55.941,613.31026s7.1008,37.03453,9.46773,85.0868-2.36693,41.61133,0,84.94168" fill="none" stroke="#aa6f5b" stroke-linecap="round" stroke-linejoin="round" stroke-width="1.75"/>
            <path d="M50.19093,359.48469c1.87993-21.11055-.14222-42.24558-1.0549-60.146" fill="none" stroke="#aa6f5b" stroke-linecap="round" stroke-linejoin="round" stroke-width="1.75"/>
            <path d="M65.40871,299.33874c.68325,8.53593.1972,38.62-.789,49.1749s-5.12832,15.92487-5.09352,27.59072,4.89625,15.1841,6.56578,25.739.79608,24.07242,0,54.13982S71.326,558.12889,70.14258,584.81571s-6.80495,28.03165-6.80495,45.11383,8.58268,51.95795,9.02647,80.70451-1.33132,52.58007,0,72.70469" fill="none" stroke="#aa6f5b" stroke-linecap="round" stroke-linejoin="round" stroke-width="1.75"/>
            <path d="M65.11283,590.50636c.14795,5.12-.67033,20.53557-4.40333,20.53557-2.54953,0-1.38065-17.14373.8036-25.33763s3.33622-11.882,3.61593-25.21447-1.64345-44.3025-2.2352-56.5239-3.03725-36.52525-2.18432-61.66242.47877-31.24785-1.18333-39.7195-6.10023-13.749-6.10007-24.58165c.00015-17.08215,3.88665-24.06212,4.8818-33.74768,1.78835-17.40625-1.17032-33.533-1.47933-44.916" fill="none" stroke="#aa6f5b" stroke-linecap="round" stroke-linejoin="round" stroke-width="1.75"/>
            <path d="M58.012,522.02026s-2.81072-29.10852-3.9942-46.4965-1.18345-25.72078-1.3314-37.10887,1.2328-27.041-1.44055-43.97845" fill="none" stroke="#aa6f5b" stroke-linecap="round" stroke-linejoin="round" stroke-width="1.75"/>
            <path d="M72.36411,299.33874c.45443,9.85528-.15377,38.11215-.89647,50.19783-.59175,9.629-5.37568,14.16123-5.486,25.45677-.152,15.55863,6.92232,15.9248,7.90852,23.51685s-.78895,64.06063-.1972,89.43378,2.56413,57.408,2.36693,81.29528-.9334,33.70145-3.62262,41.1083-8.80653,22.76455,2.95795,52.03353c10.05945,25.027,8.15995,49.99778,8.35723,72.21781s.78893,48.73987.78893,48.73987" fill="none" stroke="#aa6f5b" stroke-linecap="round" stroke-linejoin="round" stroke-width="1.75"/>
            <path d="M77.04611,361.29054c-4.3394.18518-5.91733,6.48108-6.1146,13.79538s2.5642,15.18415,6.1146,14.99895,6.50907-6.38845,6.41048-13.5176S82.36623,361.06356,77.04611,361.29054Z" fill="none" stroke="#aa6f5b" stroke-linecap="round" stroke-linejoin="round" stroke-width="1.75"/>
            <path d="M76.05991,367.40121c-1.28213,2.9628-2.27593,17.40625,1.13038,17.31367s2.12417-11.5733,2.12417-11.5733" fill="none" stroke="#aa6f5b" stroke-linecap="round" stroke-linejoin="round" stroke-width="1.75"/>
            <path d="M78.82131,299.33874c.05865,16.93813-2.35377,46.6541.72962,53.38758,4.03437,8.81037,8.34365,11.34053,8.34365,22.96075s-8.403,18.98082-8.34365,27.59135-.53235,52.913-.53235,71.10622,1.62727,67.77313,2.219,79.30012,1.3314,31.38673-.59172,43.46925-8.19523,21.66883-6.95288,38.60845c1.5673,21.3721,10.14608,29.44242,12.1678,38.46957s3.0333,31.94226,3.1992,42.35823.90568,66.74847.90568,66.74847" fill="none" stroke="#aa6f5b" stroke-linecap="round" stroke-linejoin="round" stroke-width="1.75"/>
            <path d="M84.54138,299.33874c.70355,16.66038-2.15653,35.888.90075,48.29448,2.23243,9.05925,7.75935,12.86995,7.75935,27.03565s-7.0821,21.94335-7.378,35.49038c-.235,10.7582-.29585,60.1979-.29585,81.30757s2.95865,104.43728,5.72005,112.0294c2.7614,7.592,7.1008,12.4065,7.69255,31.8496s-5.31007,28.51653-5.3178,37.4048-.03713,23.93607.92912,44.44928c.95137,20.19677,1.82447,52.06565,1.43,66.13884" fill="none" stroke="#aa6f5b" stroke-linecap="round" stroke-linejoin="round" stroke-width="1.75"/>
            <path d="M91.59291,416.19419c.73967-17.35992,6.95287-26.66483,7.389-41.80268s-2.8496-16.78812-6.5376-30.13682c-3.74768-13.56475-2.10285-24.27432-2.47867-44.916" fill="none" stroke="#aa6f5b" stroke-linecap="round" stroke-linejoin="round" stroke-width="1.75"/>
            <path d="M98.98193,549.05549s-.63342-45.3673-1.00482-61.11152-1.00933-32.4006-1.00933-51.65857,4.14213-37.7752,6.50908-49.99658,2.95868-24.99828-2.7614-38.1455-4.93115-42.69387-4.73388-48.80457" fill="none" stroke="#aa6f5b" stroke-linecap="round" stroke-linejoin="round" stroke-width="1.75"/>
            <path d="M102.29338,440.16776a187.435,187.435,0,0,1,5.91735-45.73132c4.15042-15.0461,3.60412-34.3312,0-49.21042-3.60063-14.8647-4.586-34.03622-4.78315-45.88728" fill="none" stroke="#aa6f5b" stroke-linecap="round" stroke-linejoin="round" stroke-width="1.75"/>
            <path d="M108.69953,422.27281s1.87812-11.72635,2.78565-15.42985,4.8126-19.99863,5.0098-34.9976-1.38065-25.73892-3.7476-37.96033-2.74752-22.33008-2.7476-34.5463" fill="none" stroke="#aa6f5b" stroke-linecap="round" stroke-linejoin="round" stroke-width="1.75"/>
            <path d="M115.90326,299.33874c.19728,8.14763,1.18348,29.17625,3.15593,44.36043a229.09763,229.09763,0,0,1,1.7752,43.70067c-.789,15.9249-6.1146,32.77555-11.24292,45.73763s-7.29807,28.1462-6.3118,39.44175,8.087,40.55277,10.6512,51.478c2.56413,10.92507,5.5228,35.18273,3.15587,48.14475-2.36695,12.96218-4.5366,20.369-2.16967,29.6277,2.36693,9.25852,10.25675,26.29443,10.6512,38.51583s0,41.6406,0,53.2255,1.7752,79.95358,1.57792,89.76775" fill="none" stroke="#aa6f5b" stroke-linecap="round" stroke-linejoin="round" stroke-width="1.75"/>
            <path d="M121.42613,299.33874c.19728,10.92523,1.7752,32.32425,3.35313,48.24905s3.3532,32.4052.98628,50.73728-11.4004,37.4048-14.28035,49.81138-3.27445,27.96107,1.85395,49.81138,9.27047,39.62695,9.8622,55.36655c.59172,15.73975-5.3704,32.9958-5.05213,41.0333s11.16673,26.36957,12.74465,37.85018a142.93565,142.93565,0,0,1,1.38075,20.369" fill="none" stroke="#aa6f5b" stroke-linecap="round" stroke-linejoin="round" stroke-width="1.75"/>
            <path d="M133.65526,299.33874c-.39445,6.29588-5.31245,10.149-4.5366,27.5097.6288,14.07173,3.74767,25.27652,4.14215,49.20983s-6.70635,45.59855-10.84847,55.783a93.79625,93.79625,0,0,0-7.30768,40.18245c.6014,17.221,6.32147,34.9976,9.87188,49.99658s5.12833,31.84962,3.35312,46.47835-5.7775,23.702-4.1708,30.183,12.65235,22.40583,12.8496,32.77555,1.38067,29.25727,1.578,46.84857.19725,30.36836,0,43.88588c-.19728,13.5177.789,45.59257,1.18345,61.14707" fill="none" stroke="#aa6f5b" stroke-linecap="round" stroke-linejoin="round" stroke-width="1.75"/>
            <path d="M136.21946,396.92089c0,15.18415-6.80485,24.7027-4.57855,28.5913s7.05,5.74038,8.53425,3.88862-3.33948-11.851-3.33948-11.851" fill="none" stroke="#aa6f5b" stroke-linecap="round" stroke-linejoin="round" stroke-width="1.75"/>
            <path d="M139.76986,299.33874c-.48,8.23505-6.8102,14.59313-5.72,27.5097.9565,11.3342,5.12832,25.5538,5.72,39.44175s-.9862,30.16537,3.94487,53.69117,11.4402,32.414,10.84848,61.30093-3.74768,33.14593-7.49527,43.51558-5.13635,19.258-2.864,34.6272,12.529,31.47938,13.71242,46.2932-5.3256,27.0351-4.931,35.55313.9862,36.66415,1.38065,56.47753.789,68.18353,1.578,85.58983" fill="none" stroke="#aa6f5b" stroke-linecap="round" stroke-linejoin="round" stroke-width="1.75"/>
            <path d="M160.67781,481.46749c0-10.97147-1.3314-28.05363-4.29008-41.29973s-7.9884-26.05675-9.3198-39.11142,0-28.748-1.13428-39.164-6.11445-23.33173-7.15-34.16433,6.21322-19.78392,6.70628-28.3893" fill="none" stroke="#aa6f5b" stroke-linecap="round" stroke-linejoin="round" stroke-width="1.75"/>
            <path d="M144.99688,315.75309c3.9942-1.98242,9.61565,2.11453,9.61565,2.11453-2.51485-3.83263-3.01508-11.98913-3.59973-18.52888" fill="none" stroke="#aa6f5b" stroke-linecap="round" stroke-linejoin="round" stroke-width="1.75"/>
            <path d="M148.69521,319.673c-4.58593,0-6.80492,3.472-6.2132,8.54107s3.5504,9.23548,7.19512,8.54107,5.23128-1.80542,6.11888-6.94395S152.58668,319.673,148.69521,319.673Z" fill="none" stroke="#aa6f5b" stroke-linecap="round" stroke-linejoin="round" stroke-width="1.75"/>
            <path d="M145.93366,326.84844c-.04918,3.37943.24667,7.12918,3.871,6.57365s3.3285-8.33275,0-9.9993" fill="none" stroke="#aa6f5b" stroke-linecap="round" stroke-linejoin="round" stroke-width="1.75"/>
            <path d="M150.61833,344.51136c1.3314-3.74975-4.438-3.74975-4.68467-2.0832s2.61362,5.27742,3.21957,9.99932" fill="none" stroke="#aa6f5b" stroke-linecap="round" stroke-linejoin="round" stroke-width="1.75"/>
            <path d="M163.48856,674.232c-.73968-12.36025-.8876-32.22,3.5504-47.219a59.81021,59.81021,0,0,0,0-35.55313c-2.6628-9.166-7.24875-20.97078-9.69225-37.49743s.96417-20.27637,4.6625-34.16432,4.8818-35.83087,3.69835-52.913-3.99422-28.3314-7.64718-44.4414-4.9162-23.97017-5.0845-33.15168c-.17075-9.32025-.28648-21.98342.30525-30.45507s5.7694-20.693,7.39667-30.58492-3.43865-18.9183-4.73388-28.91335" fill="none" stroke="#aa6f5b" stroke-linecap="round" stroke-linejoin="round" stroke-width="1.75"/>
            <path d="M158.90261,353.51329c12.88458-34.92885,4.332-39.95175,4.25315-52.03345" fill="none" stroke="#aa6f5b" stroke-linecap="round" stroke-linejoin="round" stroke-width="1.75"/>
            <path d="M168.73976,312.03466a102.23413,102.23413,0,0,1,1.4058-12.69593" fill="none" stroke="#aa6f5b" stroke-linecap="round" stroke-linejoin="round" stroke-width="1.75"/>
            <path d="M168.07448,450.62094c-2.1303-20.1375-9.36915-43.4076-10.0141-63.2211s3.60362-30.183,8.10512-44.8117,7.72765-34.62727,7.72765-41.1083" fill="none" stroke="#aa6f5b" stroke-linecap="round" stroke-linejoin="round" stroke-width="1.75"/>
            <path d="M163.83368,567.01719c-2.56415-13.33243-3.5504-28.51652,3.3532-48.69885s5.5228-57.59018,5.5228-57.59018c-.39447-27.77587-9.46775-56.10728-10.17563-73.51345s5.44175-35.18277,9.18943-46.66345,5.23323-27.6949,6.02215-41.21253" fill="none" stroke="#aa6f5b" stroke-linecap="round" stroke-linejoin="round" stroke-width="1.75"/>
            <path d="M178.627,461.53831c-.78892-19.9292-4.33933-26.17878-7.298-45.34413s-4.3394-41.57125,1.18348-60.5514,11.99575-33.193,11.04567-54.163" fill="none" stroke="#aa6f5b" stroke-linecap="round" stroke-linejoin="round" stroke-width="1.75"/>
            <path d="M191.64516,299.33874c0,9.28,0,14.7783-6.50907,36.02768-5.91,19.2937-11.83468,42.4045-10.45393,62.03275s8.087,47.03385,8.876,61.66242,2.5642,34.6273-4.93115,59.25675-5.91732,38.69952-3.5504,54.6244,7.29808,30.3682,7.1008,47.12188-.78893,31.2061-7.69253,43.2422c-6.90353,12.03627-12.02247,26.2942-11.2503,43.14526.99363,21.68525,20.17563,42.75952,20.32358,58.1442.1139,11.85195-5.12835,13.1873-5.81252,18.74247" fill="none" stroke="#aa6f5b" stroke-linecap="round" stroke-linejoin="round" stroke-width="1.75"/>
            <path d="M178.627,549.05549c.19728-7.5921,2.5642-19.258,4.93115-27.77592s5.3256-27.77588,5.83218-50.3669-8.79085-70.73593-8.98812-80.8246,4.14215-27.131,8.98812-45.11675c4.84582-17.98583,8.17215-33.4112,7.58042-45.63258" fill="none" stroke="#aa6f5b" stroke-linecap="round" stroke-linejoin="round" stroke-width="1.75"/>
            <path d="M203.67708,299.33874c0,10.55482-1.93425,22.88168-7.29805,42.87908-3.99377,14.88972-9.348,31.2941-9.40787,46.108s5.72008,43.88588,7.2681,67.0324-2.5941,51.65453-2.5941,59.62558c0,10.36962,4.8467,21.48,3.70547,38.88615s-5.08615,26.45625-4.88895,36.55985,2.76148,21.214,2.76148,35.1019-2.16975,23.33173,1.02787,37.77517c3.544,16.00775,7.65085,39.99728,7.2564,58.14423s-5.91735,42.07419-4.53668,61.88769" fill="none" stroke="#aa6f5b" stroke-linecap="round" stroke-linejoin="round" stroke-width="1.75"/>
            <path d="M210.82723,299.33874c-.1348,19.11478-6.7239,35.90445-10.8978,52.6932-3.6228,14.57187-7.58073,31.80255-6.50907,42.4045,1.3649,13.5025,5.91733,45.1358,6.31188,67.10188s.78713,74.74028.788,87.51717-1.3798,63.8845-1.97153,75.36513.84165,37.96045,2.985,49.81142,5.102,27.03523,5.29925,41.4787-1.7752,34.06938-2.76147,44.90318a188.3109,188.3109,0,0,0-.39447,22.72482" fill="none" stroke="#aa6f5b" stroke-linecap="round" stroke-linejoin="round" stroke-width="1.75"/>
            <path d="M198.85778,394.43644c-.19728-9.25865,2.50242-19.0649,4.42485-29.99793,1.57108-8.93543,6.96572-29.87895,8.59328-39.90553" fill="none" stroke="#aa6f5b" stroke-linecap="round" stroke-linejoin="round" stroke-width="1.75"/>
            <path d="M211.76408,479.24541c0-19.4431-3.74758-28.7017-6.11452-43.33035a186.43384,186.43384,0,0,1-1.7752-39.812c.59172-12.03627,7.76455-32.91823,10.6512-56.6647,2.6053-21.43265,3.5504-28.24852,3.15588-40.09958" fill="none" stroke="#aa6f5b" stroke-linecap="round" stroke-linejoin="round" stroke-width="1.75"/>
            <path d="M212.75036,384.71529c9.04525-31.71738,10.54892-63.61535,10.6512-85.37655" fill="none" stroke="#aa6f5b" stroke-linecap="round" stroke-linejoin="round" stroke-width="1.75"/>
            <path d="M210.18616,394.43644a134.409,134.409,0,0,0,0,38.14552c2.367,15.73968,6.50907,32.22,6.90355,52.77415s-.78895,82.03145-2.367,97.03042-4.311,46.66348-5.90318,59.81063.77485,31.29425,6.88945,47.03385,4.14212,38.14558,3.15588,50.73723-1.18348,32.0749-1.18348,43.3705" fill="none" stroke="#aa6f5b" stroke-linecap="round" stroke-linejoin="round" stroke-width="1.75"/>
            <path d="M221.23183,569.23924c.789-14.44345.98628-80.55-.21322-98.32657s-5.70413-32.96073-6.86533-53.14447,4.90888-33.14593,9.44548-50.367,4.3394-58.8038,4.53668-68.06248" fill="none" stroke="#aa6f5b" stroke-linecap="round" stroke-linejoin="round" stroke-width="1.75"/>
            <path d="M232.95671,299.33874c.01445,14.716-.67912,30.42435-.67912,45.63258s-2.367,31.31817-7.29807,40.94718-6.47065,27.03517-5.01053,42.21932,6.12412,30.73865,6.65215,63.5142,1.66223,54.9499,1.0705,76.754-2.219,32.77555-3.5504,44.99692-8.28428,27.22035-6.80492,43.0526,11.1936,37.31163,12.77152,54.39406-2.16968,57.49022-1.9724,72.48919" fill="none" stroke="#aa6f5b" stroke-linecap="round" stroke-linejoin="round" stroke-width="1.75"/>
            <path d="M233.65823,509.05816c.19727-6.85132-.39447-19.99863-1.11773-32.0348s-.65747-21.48,6.26868-41.1083,4.71133-35.92345,1.16093-46.66348-1.97248-20.55412-1.97248-37.40485,1.03555-41.02725.64108-52.508" fill="none" stroke="#aa6f5b" stroke-linecap="round" stroke-linejoin="round" stroke-width="1.75"/>
            <path d="M243.32808,356.47606c-.58683-20.55415,1.1696-41.31078.96938-57.13733" fill="none" stroke="#aa6f5b" stroke-linecap="round" stroke-linejoin="round" stroke-width="1.75"/>
            <path d="M243.32808,365.91986a83.23738,83.23738,0,0,0,3.74283,25.5538c3.9942,13.05468,1.92312,30.13682-2.36693,42.77485s-6.36115,22.63732-6.2132,34.58095,1.47933,36.3864.8876,48.05228.14792,27.22035-.29588,42.08045-2.01327,35.692-2.6339,47.7745-.9165,18.7487,2.04217,27.08148,3.40245,20.41525-.4438,34.44207-.148,20.41525,1.62725,32.08113a146.13956,146.13956,0,0,1,1.47935,31.94225c-.59175,11.11035-2.367,38.04672-2.51487,51.05512" fill="none" stroke="#aa6f5b" stroke-linecap="round" stroke-linejoin="round" stroke-width="1.75"/>
            <path d="M233.16518,374.39151s-.59175,7.49948,1.03552,12.91577" fill="none" stroke="#aa6f5b" stroke-linecap="round" stroke-linejoin="round" stroke-width="1.75"/>
            <path d="M232.29521,391.49524c-5.1909.85985-7.5681,9.00438-8.0046,21.2153s3.80785,22.1746,6.2725,21.53343,6.90455-4.15668,7.19522-20.26465S236.06641,390.87061,232.29521,391.49524Z" fill="none" stroke="#aa6f5b" stroke-linecap="round" stroke-linejoin="round" stroke-width="1.75"/>
            <path d="M232.90116,415.402c.871-3.454,3.16987-17.018-1.52707-16.28633s-3.08363,22.43758-.06213,26.80955" fill="none" stroke="#aa6f5b" stroke-linecap="round" stroke-linejoin="round" stroke-width="1.75"/>
            <path d="M244.46148,554.79579s.83423-16.4804,1.2287-38.88622-1.97248-48.70033-.9862-60.5514,8.28428-20.73933,10.25665-43.88587-4.5366-26.2945-6.50905-51.66312.75685-30.385.75685-60.47043" fill="none" stroke="#aa6f5b" stroke-linecap="round" stroke-linejoin="round" stroke-width="1.75"/>
            <path d="M249.895,560.53609c.45718-10.73995,2.30423-34.44207,1.90977-55.922s-1.578-35.92345,0-49.99658,9.66493-31.84963,9.66493-50.73722-6.11453-28.8869-7.1008-50.367,4.09838-39.2733,4.14212-54.17455" fill="none" stroke="#aa6f5b" stroke-linecap="round" stroke-linejoin="round" stroke-width="1.75"/>
            <path d="M259.04276,334.51971c-.2045,5.37932.351,26.66855,3.12243,38.0692" fill="none" stroke="#aa6f5b" stroke-linecap="round" stroke-linejoin="round" stroke-width="1.75"/>
            <path d="M255.58561,543.68544c4.17535-9.0734,4.8979-17.77655,4.70062-31.84967s-3.15585-35.55312-1.57792-55.57487,8.48155-42.75173,8.876-62.75035-2.95865-31.109-3.94485-52.40377-.43065-30.9406-.789-41.768" fill="none" stroke="#aa6f5b" stroke-linecap="round" stroke-linejoin="round" stroke-width="1.75"/>
            <path d="M271.92371,299.33874s.309,22.41668,1.77523,40.09958c1.43872,17.35287,4.931,37.5919,5.72005,53.33157s-3.74768,29.072-7.29808,48.33a170.45558,170.45558,0,0,0-1.42175,52.40378c1.93142,16.11,1.22455,25.739,0,41.29347s-9.03217,12.962-12.45177,33.51618,1.6444,40.55277,7.03175,55.55175,9.406,22.59107,10.58945,47.219-.789,33.33106-1.57792,54.07046-2.367,45.03692-2.367,58.18422" fill="none" stroke="#aa6f5b" stroke-linecap="round" stroke-linejoin="round" stroke-width="1.75"/>
            <path d="M255.84268,555.90684c6.99657-9.62892,9.96642-25.5538,9.96642-43.51558s-2.5642-35.18273-1.97245-52.40375,6.9036-38.88622,8.876-56.47765-2.3538-36.41035-3.73445-57.52-1.78835-46.65113-1.78835-46.65113" fill="none" stroke="#aa6f5b" stroke-linecap="round" stroke-linejoin="round" stroke-width="1.75"/>
            <path d="M277.64378,299.33874c-.39445,10.74.06248,23.6666,1.86558,40.84213,1.78112,16.96573,5.6297,38.7011,5.4325,56.848s-4.3394,36.479-8.49245,53.32968-.38355,33.33105.9971,53.14448-1.18345,29.25723-.9862,40.18245,8.876,17.03593,9.86223,43.59553-7.298,33.43627-8.67875,44.17625,4.14215,32.03487,4.3394,50.36695-1.578,43.14511-2.47382,59.99588-1.86558,41.51869-1.86558,41.51869" fill="none" stroke="#aa6f5b" stroke-linecap="round" stroke-linejoin="round" stroke-width="1.75"/>
            <path d="M282.77211,299.33874s.25977,17.417,1.887,38.24893c1.602,20.5087,5.80552,46.66427,6.2,64.99635s-9.46772,50.73728-9.27052,63.329,2.16972,24.25758,3.15592,34.9976-1.97247,24.81315-1.97247,37.77517,7.88982,22.77622,9.665,45.55242-7.1008,40.7379-7.52315,46.8486-.1694,20.7394,1.48988,41.84907-.27853,34.44208-1.06752,51.47785c-.789,17.03593-2.367,45.2222-2.56423,58.925" fill="none" stroke="#aa6f5b" stroke-linecap="round" stroke-linejoin="round" stroke-width="1.75"/>
            <path d="M288.09773,299.33874c0,28.46513,6.50905,70.46975,7.8898,96.39388s-5.12835,37.77517-6.90355,55.73695,2.367,37.03445,2.56415,47.7745-2.56415,23.88725-2.7614,36.947,9.07328,30.45568,9.665,50.08405-6.1146,36.66415-7.29808,44.62653-1.57792,17.77655,0,33.88655,1.18348,35.73825,0,54.07033-2.95867,53.18457-3.15592,64.48017" fill="none" stroke="#aa6f5b" stroke-linecap="round" stroke-linejoin="round" stroke-width="1.75"/>
            <path d="M299.43283,426.84159c4.03695-19.4431,2.21-34.3182.01965-55.36737-2.216-21.29458-5.3256-41.03165-6.10932-72.13548" fill="none" stroke="#aa6f5b" stroke-linecap="round" stroke-linejoin="round" stroke-width="1.75"/>
            <path d="M126.07453,310.69131a95.5515,95.5515,0,0,0,1.07773-11.35258" fill="none" stroke="#aa6f5b" stroke-linecap="round" stroke-linejoin="round" stroke-width="1.75"/>
            <path d="M252.77486,312.03466s.81373-7.46082.80513-12.69593" fill="none" stroke="#aa6f5b" stroke-linecap="round" stroke-linejoin="round" stroke-width="1.75"/>
          </g>
        </g>
      </g>
    </g>
    <rect id="ab5dbb15-db79-4df9-be94-416045987076" data-name="&lt;Rectangle&gt;" x="103.60066" y="287.58834" width="320.94656" height="20.28158" opacity="0.05"/>
    <rect id="d2a81281-8ead-4684-947a-91c8cca20885" data-name="&lt;Rectangle&gt;" x="91.65213" y="287.58834" width="344.84363" height="11.41225" rx="5.70612" ry="5.70612" fill="#b77d67"/>
    <g opacity="0.05">
      <path id="a89e52e2-c6ad-4786-8868-a5170a9a7857" data-name="&lt;Path&gt;" d="M307.3384,317.42428h0c5.53413,0,10.02044,4.82468,10.02044,10.77622v44.22174c0,5.95154-4.4863,10.77622-10.02044,10.77622h0c-5.53413,0-10.02044-4.82468-10.02044-10.77622V328.2005C297.318,322.249,301.80426,317.42428,307.3384,317.42428Z"/>
      <path id="ebac94f1-33f9-4f2a-9bbb-7f73463511b0" data-name="&lt;Path&gt;" d="M337.40367,317.42428h0c5.53413,0,10.02044,4.82468,10.02044,10.77622v44.22174c0,5.95154-4.4863,10.77622-10.02044,10.77622h0c-5.53413,0-10.02044-4.82468-10.02044-10.77622V328.2005C327.38323,322.249,331.86953,317.42428,337.40367,317.42428Z"/>
      <path id="cfb60412-984d-4be6-8adf-27ad1cdea44a" data-name="&lt;Path&gt;" d="M367.46894,317.42428h0c5.53413,0,10.02044,4.82468,10.02044,10.77622v44.22174c0,5.95154-4.4863,10.77622-10.02044,10.77622h0c-5.53413,0-10.02044-4.82468-10.02044-10.77622V328.2005C357.4485,322.249,361.9348,317.42428,367.46894,317.42428Z"/>
      <path id="6e1ddb30-2d11-4040-918a-6c1729c032f5" data-name="&lt;Path&gt;" d="M397.5342,317.42428h0c5.53413,0,10.02044,4.82468,10.02044,10.77622v44.22174c0,5.95154-4.4863,10.77622-10.02044,10.77622h0c-5.53413,0-10.02044-4.82468-10.02044-10.77622V328.2005C387.51377,322.249,392.00007,317.42428,397.5342,317.42428Z"/>
      <path id="d66f42c5-4fc2-48db-a4aa-822847a2a1f7" data-name="&lt;Path&gt;" d="M188.216,317.42428h0c5.53413,0,10.02044,4.82468,10.02044,10.77622v44.22174c0,5.95154-4.4863,10.77622-10.02044,10.77622h0c-5.53413,0-10.02044-4.82468-10.02044-10.77622V328.2005C178.19556,322.249,182.68186,317.42428,188.216,317.42428Z"/>
      <path id="677b18c4-d5b2-4534-8a88-14f74d0e62cf" data-name="&lt;Path&gt;" d="M218.28127,317.42428h0c5.53413,0,10.02044,4.82468,10.02044,10.77622v44.22174c0,5.95154-4.4863,10.77622-10.02044,10.77622h0c-5.53413,0-10.02044-4.82468-10.02044-10.77622V328.2005C208.26083,322.249,212.74713,317.42428,218.28127,317.42428Z"/>
      <path id="931aa791-2ec9-40b1-9a58-1cfaefdece5f" data-name="&lt;Path&gt;" d="M248.34654,317.42428h0c5.53413,0,10.02044,4.82468,10.02044,10.77622v44.22174c0,5.95154-4.4863,10.77622-10.02044,10.77622h0c-5.53413,0-10.02044-4.82468-10.02044-10.77622V328.2005C238.3261,322.249,242.8124,317.42428,248.34654,317.42428Z"/>
      <path id="98827970-cc98-43dd-a09a-3a98f11625a2" data-name="&lt;Path&gt;" d="M278.41181,317.42428h0c5.53413,0,10.02044,4.82468,10.02044,10.77622v44.22174c0,5.95154-4.4863,10.77622-10.02044,10.77622h0c-5.53413,0-10.02044-4.82468-10.02044-10.77622V328.2005C268.39137,322.249,272.87767,317.42428,278.41181,317.42428Z"/>
      <path id="3ebff1c7-84c2-4c92-a1da-5b6e56c43169" data-name="&lt;Path&gt;" d="M130.61377,317.42428h0c5.53413,0,10.02044,4.82468,10.02044,10.77622v44.22174c0,5.95154-4.4863,10.77622-10.02044,10.77622h0c-5.53413,0-10.02044-4.82468-10.02044-10.77622V328.2005C120.59334,322.249,125.07964,317.42428,130.61377,317.42428Z"/>
      <path id="32475f1c-9b42-41e0-bc86-4a6e1c6bb5d2" data-name="&lt;Path&gt;" d="M160.679,317.42428h0c5.53413,0,10.02044,4.82468,10.02044,10.77622v44.22174c0,5.95154-4.4863,10.77622-10.02044,10.77622h0c-5.53413,0-10.02044-4.82468-10.02044-10.77622V328.2005C150.65861,322.249,155.14491,317.42428,160.679,317.42428Z"/>
    </g>
  </g>
  <g id="39ad5eee-d090-4a4c-87d3-53d2d256ca36" data-name="&lt;Group&gt;">
    <rect id="54421439-6bd8-48f1-b727-f8f3a2524821" data-name="&lt;Rectangle&gt;" x="111.98461" y="205.75761" width="120.66667" height="81.83073" rx="8.80106" ry="8.80106" fill="#e3e3e3"/>
    <path id="62e0e9f6-6be1-499b-bfdc-4f17f88a7e2a" data-name="&lt;Path&gt;" d="M180.5673,247.42765a7.74119,7.74119,0,0,1-3.91073-7.12977,7.85675,7.85675,0,0,1,.58563-2.57648,1.83509,1.83509,0,0,0-1.02652-2.48426l-.02082-.00695a12.059,12.059,0,1,0,7.63757,15.24805l.00673-.02031a1.79181,1.79181,0,0,0-1.34049-2.25666A7.864,7.864,0,0,1,180.5673,247.42765Z" fill="#fff"/>
    <g id="1a03d40f-4185-4a4d-9b8b-c7d1d6c8f1b7" data-name="&lt;Group&gt;" opacity="0.3">
      <rect id="c5beddeb-5a59-4950-b755-731a1b6c601c" data-name="&lt;Rectangle&gt;" x="107.99444" y="261.33259" width="30.76531" height="6.16543" rx="3.08271" ry="3.08271" transform="translate(-141.03821 387.7924) rotate(-90)" fill="#fff"/>
      <rect id="c7b28271-4d30-4f5d-a6b7-81e36eb0090d" data-name="&lt;Rectangle&gt;" x="120.10317" y="237.65382" width="6.54785" height="6.16543" rx="3.08271" ry="3.08271" transform="translate(-117.35944 364.11363) rotate(-90)" fill="#fff"/>
    </g>
    <path d="M223.7593,205.75762h-5.875a8.80111,8.80111,0,0,1,8.80115,8.801v64.22864a8.80111,8.80111,0,0,1-8.80115,8.801h5.875a8.80111,8.80111,0,0,0,8.80115-8.801V214.55864A8.80111,8.80111,0,0,0,223.7593,205.75762Z" fill="#dbdbdb"/>
  </g>
  <g id="9ea0e537-893f-422d-85b5-cb132f8589ee" data-name="&lt;Group&gt;">
    <rect id="8e05a0cb-9dab-490a-8aee-b7f8bb4b027b" data-name="&lt;Rectangle&gt;" x="118.24178" y="102.48565" width="40.03301" height="36.64093" transform="translate(9.1209 -9.70445) rotate(4.15699)" fill="#ffbc00"/>
    <rect id="fa0e6b90-1135-4143-b08f-b9877083e005" data-name="&lt;Rectangle&gt;" x="119.28828" y="102.52363" width="40.03301" height="7.76758" transform="translate(8.0799 -9.81819) rotate(4.15699)" fill="#fff" opacity="0.3"/>
  </g>
  <g id="d681c693-e8e4-458e-91a4-08fc08e32671" data-name="&lt;Group&gt;">
    <rect id="0f92624b-9d18-4776-900f-2b5aa49c1ce1" data-name="&lt;Rectangle&gt;" x="375.24178" y="114.82684" width="40.03301" height="36.64093" transform="translate(10.69163 -28.30177) rotate(4.15699)" fill="#ffbc00"/>
    <rect id="cef4103e-6374-4bcc-8904-8bc58b91e85c" data-name="&lt;Rectangle&gt;" x="376.28828" y="114.86482" width="40.03301" height="7.76758" transform="translate(9.65063 -28.41551) rotate(4.15699)" fill="#fff" opacity="0.3"/>
  </g>
  <g id="74be64ab-d654-46d8-97e9-fd0dc7ea2465" data-name="&lt;Group&gt;">
    <rect id="92577f58-5210-40e8-8a59-92181cf6eadf" data-name="&lt;Rectangle&gt;" x="243.44489" y="39.73553" width="40.03301" height="36.64093" transform="translate(-5.83738 41.91364) rotate(-8.99669)" fill="#ffbc00"/>
    <rect id="87a95dce-31a2-4ef0-b854-3d61ac1f1a3e" data-name="&lt;Rectangle&gt;" x="241.18733" y="39.91314" width="40.03301" height="7.76758" transform="translate(-3.63536 41.38518) rotate(-8.99669)" fill="#fff" opacity="0.3"/>
  </g>
  <g id="29506beb-d94d-48ee-9633-33cb7befa7cc" data-name="&lt;Group&gt;">
    <rect id="da6da821-af61-4fef-be41-875d6ee9e2b9" data-name="&lt;Rectangle&gt;" x="184.27968" y="83.24585" width="40.03301" height="36.64093" transform="translate(7.78808 -14.35267) rotate(4.10173)" fill="#fc982b"/>
    <rect id="7fff48da-1d8a-47e6-af34-595a6602621c" data-name="&lt;Rectangle&gt;" x="185.3123" y="83.28283" width="40.03301" height="7.76758" transform="translate(6.76075 -14.46341) rotate(4.10173)" fill="#fff" opacity="0.3"/>
  </g>
  <g id="00a70c13-b83e-4a5a-a0ee-b7340040e601" data-name="&lt;Group&gt;">
    <rect id="73d46e87-47c2-422d-b95e-839081a6c374" data-name="&lt;Rectangle&gt;" x="171.52448" y="137.05481" width="40.03301" height="36.64093" transform="translate(-6.33181 8.1483) rotate(-2.39742)" fill="#fc982b"/>
    <rect id="5c7389cf-7529-4d7a-af10-4f7e2a8b4d46" data-name="&lt;Rectangle&gt;" x="170.92058" y="137.06745" width="40.03301" height="7.76758" transform="translate(-5.72897 8.11041) rotate(-2.39742)" fill="#fff" opacity="0.3"/>
  </g>
  <g id="8df38198-a5b0-4995-9c1a-6215b4374ba8" data-name="&lt;Group&gt;">
    <rect id="e4bb6a6a-d83b-4528-aabc-92fd7cb551b1" data-name="&lt;Rectangle&gt;" x="247.31196" y="97.22227" width="40.03301" height="36.64093" fill="#ffb6f1"/>
    <rect id="23b1bd80-c2d0-4299-8a61-ca37ebdecfad" data-name="&lt;Rectangle&gt;" x="247.31196" y="97.22227" width="40.03301" height="7.76758" fill="#fff" opacity="0.3"/>
  </g>
  <g id="366f241b-2063-4020-b4c3-85d411ddbdff" data-name="&lt;Group&gt;">
    <rect id="8313949f-3ba4-4c6c-ae6b-67bf56fd703e" data-name="&lt;Rectangle&gt;" x="326.6453" y="166.27512" width="40.03301" height="36.64093" transform="translate(23.32595 -38.34805) rotate(6.55162)" fill="#ffb6f1"/>
    <rect id="fcb29de8-6847-4697-b262-2327deda977b" data-name="&lt;Rectangle&gt;" x="328.2925" y="166.3694" width="40.03301" height="7.76758" transform="translate(21.70026 -38.62965) rotate(6.55162)" fill="#fff" opacity="0.3"/>
  </g>
  <g id="82fddec8-beed-40b9-86d4-04c1267d77d9" data-name="&lt;Group&gt;">
    <rect id="cb88fb3d-8c64-434d-bed2-5817a1923b2d" data-name="&lt;Rectangle&gt;" x="313.41963" y="98.66939" width="40.03301" height="36.64093" transform="translate(-10.26976 34.93781) rotate(-5.90723)" fill="#9be26d"/>
    <rect id="bd25ef84-b498-4cc3-b160-f879315a2d08" data-name="&lt;Rectangle&gt;" x="311.93383" y="98.74605" width="40.03301" height="7.76758" transform="translate(-8.79975 34.70864) rotate(-5.90723)" fill="#fff" opacity="0.3"/>
  </g>
  <g id="16ea720a-b077-40db-80d5-0236a2d83905" data-name="&lt;Group&gt;" opacity="0.1">
    <g id="b8cd2997-3c25-45b1-abca-5c9e5bc21c19" data-name="&lt;Group&gt;">
      <path id="ccdad5e7-9e11-454d-908f-d1a275ef63ba" data-name="&lt;Path&gt;" d="M135.074,147.8632s1.01123,19.53146,26.09448,16.96292" fill="none" stroke="#000" stroke-linecap="round" stroke-miterlimit="10" stroke-width="2"/>
      <g id="9b198f9c-ecf0-4c45-b934-b0c9e9d70e7c" data-name="&lt;Group&gt;">
        <polygon id="8250d18c-d591-48e1-bdd8-1e27ff35c40a" data-name="&lt;Path&gt;" points="157.589 169.987 156.703 169.175 160.705 164.817 156.066 161.144 156.813 160.203 162.462 164.678 157.589 169.987"/>
      </g>
    </g>
  </g>
  <g id="6594bf65-47a4-4387-b955-17d86e8813b0" data-name="&lt;Group&gt;" opacity="0.1">
    <g>
      <path d="M323.99783,85.27282c-.71411-5.37006-4.93213-25.5592-27.85962-23.14594" fill="none" stroke="#000" stroke-linecap="round" stroke-miterlimit="10" stroke-width="2"/>
      <polygon points="328.149 80.578 327.152 79.908 323.857 84.823 319.196 81.177 318.457 82.124 324.135 86.563 328.149 80.578"/>
    </g>
  </g>
  <g id="f811f068-b3be-4cf6-bceb-bda35f8aecf3" data-name="&lt;Group&gt;" opacity="0.1">
    <g id="837ed4da-0008-40ea-ab55-2d529dd80add" data-name="&lt;Group&gt;">
      <path id="d305d271-d2cd-48e1-8e18-631a02097b05" data-name="&lt;Path&gt;" d="M377.80911,187.68254c4.45508.27368,19.0332-.56921,21.40137-22.89285" fill="none" stroke="#000" stroke-linecap="round" stroke-miterlimit="10" stroke-width="2"/>
      <g id="d1ab36f8-6240-45fc-a373-8e85d62d03c7" data-name="&lt;Group&gt;">
        <polygon id="dbff7cb8-3eeb-4185-8fd6-21547831966b" data-name="&lt;Path&gt;" points="381.72 192.531 382.552 191.665 378.279 187.573 382.673 183.609 381.868 182.718 376.517 187.546 381.72 192.531"/>
      </g>
    </g>
  </g>
  <rect id="ba76ef31-2d7a-438d-a333-d39d61624f37" data-name="&lt;Rectangle&gt;" x="342.13383" y="224.54874" width="32.457" height="54.24923" rx="5.50418" ry="5.50418" fill="#e3e3e3"/>
  <g>
    <path d="M369.822,278.74321c-.11694.012-.23145.03094-.35034.03528Q369.64858,278.76622,369.822,278.74321Z" fill="#dbdbdb"/>
    <path d="M342.1885,274.029c-.012-.11676-.031-.23126-.03516-.35016Q342.16543,273.85576,342.1885,274.029Z" fill="#dbdbdb"/>
    <path d="M347.253,278.77849c-.1189-.00433-.2334-.02325-.35034-.03528Q347.0762,278.76647,347.253,278.77849Z" fill="#dbdbdb"/>
    <path d="M369.0867,224.5487H347.638a5.50424,5.50424,0,0,0-5.50415,5.50421v3.52679a5.3122,5.3122,0,0,1,5.31226-5.31213h21.83252a5.3122,5.3122,0,0,1,5.31226,5.31213v-3.52679A5.50424,5.50424,0,0,0,369.0867,224.5487Z" fill="#dbdbdb"/>
    <path d="M374.57131,273.67888c-.00415.1189-.02319.2334-.03516.35016Q374.55923,273.85546,374.57131,273.67888Z" fill="#dbdbdb"/>
  </g>
  <path id="bdcb8792-a564-4de7-9347-bb4ba938b22e" data-name="&lt;Path&gt;" d="M362.45019,242.242a3.99987,3.99987,0,0,1-1.50328-5.00433.82945.82945,0,0,0-.42153-1.13917,5.69971,5.69971,0,0,0-4.15477.15045,6.0928,6.0928,0,0,0,.232,11.67424,5.70942,5.70942,0,0,0,4.0009-.37692c2.34921-1.07677,3.32283-2.37979,3.74091-3.72233a.834.834,0,0,0-.63759-1.058A4.08275,4.08275,0,0,1,362.45019,242.242Z" fill="#fff"/>
  <g id="d3faf517-032d-45a6-9f4a-252b89835c9a" data-name="&lt;Group&gt;" opacity="0.3">
    <rect id="07b277ca-748b-49f9-b3b9-e868bccc0fb2" data-name="&lt;Rectangle&gt;" x="339.52508" y="261.86121" width="18.91001" height="3.78961" rx="1.8948" ry="1.8948" transform="translate(85.22407 612.7361) rotate(-90)" fill="#fff"/>
    <rect id="c66f93ad-549f-4893-943b-6585d01c240e" data-name="&lt;Rectangle&gt;" x="346.96776" y="247.30696" width="4.02466" height="3.78961" rx="1.8948" ry="1.8948" transform="translate(99.77832 598.18186) rotate(-90)" fill="#fff"/>
  </g>
  <rect id="053b90c3-0d31-4c30-b03e-50af4f68d02f" data-name="&lt;Rectangle&gt;" x="337.67931" y="278.79796" width="41.36605" height="8.84278" rx="1.92572" ry="1.92572" fill="#d1d1d1"/>
  <g id="fcf78761-8354-42ee-8acd-46dcbe05e501" data-name="&lt;Group&gt;">
    <path id="23b3428e-53b4-4d25-a04f-bf39f6ce0bda" data-name="&lt;Rectangle&gt;" d="M286.78739,268.6538h6.94473a10.14614,10.14614,0,0,1,10.14614,10.14614v8.78841a0,0,0,0,1,0,0h-27.237a0,0,0,0,1,0,0v-8.78841a10.14614,10.14614,0,0,1,10.14614-10.14614Z" fill="#feccae"/>
    <rect id="720e6f6a-9966-448f-bab1-764fac5645d8" data-name="&lt;Rectangle&gt;" x="267.9614" y="276.93177" width="27.11594" height="10.65658" rx="4.8393" ry="4.8393" fill="#fff"/>
  </g>
  <rect id="725d1032-03e7-4c1c-a3e0-d8c81cf41364" data-name="&lt;Rectangle&gt;" x="418.84484" y="244.01046" width="29.85598" height="7.92031" rx="3.96015" ry="3.96015" opacity="0.05"/>
  <rect id="39c1bc94-8de2-4805-92f9-c9d08c817f28" data-name="&lt;Rectangle&gt;" x="400.39373" y="255.95042" width="29.85598" height="7.92031" rx="3.96015" ry="3.96015" opacity="0.05"/>
  <rect id="a33c68f6-272e-4eca-82d0-3e1b664da950" data-name="&lt;Rectangle&gt;" x="55.32011" y="174.66545" width="29.85598" height="7.92031" rx="3.96015" ry="3.96015" opacity="0.05"/>
  <rect id="eb1c1b0f-260f-4267-a2dd-92862db7c49a" data-name="&lt;Rectangle&gt;" x="90.43839" y="174.66545" width="29.85598" height="7.92031" rx="3.96015" ry="3.96015" opacity="0.05"/>
  <rect id="5848de9f-abf7-4dd9-a851-cf4d580833e1" data-name="&lt;Rectangle&gt;" x="71.98728" y="186.60541" width="29.85598" height="7.92031" rx="3.96015" ry="3.96015" opacity="0.05"/>
</svg>
