<svg id="Layer_1" data-name="Layer 1" xmlns="http://www.w3.org/2000/svg" viewBox="0 0 470 470"><defs><style>.cls-1,.cls-16,.cls-18,.cls-19,.cls-21,.cls-22{fill:none;stroke-miterlimit:10;}.cls-1{stroke:#d3987a;}.cls-1,.cls-16,.cls-18,.cls-19,.cls-22{stroke-linecap:round;}.cls-1,.cls-18,.cls-21{stroke-width:5px;}.cls-2{fill:#5b5b5b;}.cls-3{fill:#3d3d3d;}.cls-4{fill:#474747;}.cls-5{fill:#515151;}.cls-6{fill:#feccae;}.cls-7{fill:#febd86;}.cls-8{fill:#735448;}.cls-9{fill:#fff;}.cls-10,.cls-13{fill:#ededed;}.cls-11{fill:#f9bfa2;}.cls-12{fill:#3a3a3a;}.cls-13{opacity:0.1;}.cls-14{fill:#939393;}.cls-15{opacity:0.05;}.cls-16{stroke:#bcbcbb;stroke-width:3px;}.cls-17{fill:#c9c9c9;}.cls-18{stroke:#c9c9c9;}.cls-19{stroke:#3a3a3a;}.cls-19,.cls-22{stroke-width:11px;}.cls-20{fill:#686868;}.cls-21{stroke:#b7b7b7;}.cls-22{stroke:#474747;}.cls-23{fill:#ffce00;}.cls-24{fill:#fa0;}.cls-25{fill:#b7b7b7;}.cls-26{fill:#ffdd50;}.cls-27{fill:#f4f4f4;}</style></defs><title>slider</title><g id="_Group_" data-name="&lt;Group&gt;"><line id="_Path_" data-name="&lt;Path&gt;" class="cls-1" x1="157.54" y1="250.06" x2="153.09" y2="213.2"/><rect id="_Rectangle_" data-name="&lt;Rectangle&gt;" class="cls-2" x="209.85" y="298.41" width="21.27" height="54.26"/><rect id="_Rectangle_2" data-name="&lt;Rectangle&gt;" class="cls-3" x="209.85" y="288.24" width="50.3" height="10.17"/><rect id="_Rectangle_3" data-name="&lt;Rectangle&gt;" class="cls-2" x="238.88" y="298.41" width="21.27" height="54.26"/><rect id="_Rectangle_4" data-name="&lt;Rectangle&gt;" class="cls-2" x="209.85" y="298.41" width="50.3" height="17.12"/><path id="_Rectangle_5" data-name="&lt;Rectangle&gt;" class="cls-4" d="M247.39,344h18.29a5.6,5.6,0,0,1,5.6,5.6V361a0,0,0,0,1,0,0H247.39a8.51,8.51,0,0,1-8.51-8.51v0a8.51,8.51,0,0,1,8.51-8.51Z" transform="translate(510.16 704.93) rotate(180)"/><path id="_Rectangle_6" data-name="&lt;Rectangle&gt;" class="cls-3" d="M247.39,344h3a4.13,4.13,0,0,1,4.13,4.13V361a0,0,0,0,1,0,0h-7.08a8.51,8.51,0,0,1-8.51-8.51v0a8.51,8.51,0,0,1,8.51-8.51Z" transform="translate(493.35 704.93) rotate(180)"/><path id="_Rectangle_7" data-name="&lt;Rectangle&gt;" class="cls-4" d="M207.23,344h23.89a0,0,0,0,1,0,0v11.42a5.6,5.6,0,0,1-5.6,5.6H207.23a8.51,8.51,0,0,1-8.51-8.51v0A8.51,8.51,0,0,1,207.23,344Z"/><path id="_Rectangle_8" data-name="&lt;Rectangle&gt;" class="cls-3" d="M224,344h7.08a0,0,0,0,1,0,0v12.89A4.13,4.13,0,0,1,227,361h-3a8.51,8.51,0,0,1-8.51-8.51v0A8.51,8.51,0,0,1,224,344Z"/><rect id="_Rectangle_9" data-name="&lt;Rectangle&gt;" class="cls-4" x="209.85" y="227.49" width="50.3" height="60.75"/><rect id="_Rectangle_10" data-name="&lt;Rectangle&gt;" class="cls-5" x="252.03" y="227.5" width="18.95" height="13.83"/><g id="_Group_2" data-name="&lt;Group&gt;"><rect id="_Rectangle_11" data-name="&lt;Rectangle&gt;" class="cls-6" x="263.48" y="229.39" width="19.36" height="60.5" rx="9.28" ry="9.28" transform="translate(-25.68 30.03) rotate(-6.01)"/><path id="_Path_2" data-name="&lt;Path&gt;" class="cls-5" d="M269.79,227.56l-9.63,1,3.15,29.91,19.26-2-2.14-20.28A9.68,9.68,0,0,0,269.79,227.56Z"/></g><rect id="_Rectangle_12" data-name="&lt;Rectangle&gt;" class="cls-5" x="201.04" y="227.5" width="16.87" height="13.83" transform="translate(418.96 468.83) rotate(-180)"/><g id="_Group_3" data-name="&lt;Group&gt;"><rect id="_Rectangle_13" data-name="&lt;Rectangle&gt;" class="cls-6" x="161.27" y="231.98" width="19.36" height="43.53" rx="9.68" ry="9.68" transform="translate(-134.8 264.87) rotate(-58.11)"/><rect id="_Rectangle_14" data-name="&lt;Rectangle&gt;" class="cls-6" x="181.21" y="225.29" width="19.36" height="48.01" rx="9.68" ry="9.68" transform="translate(165.06 562.23) rotate(-137.84)"/><path id="_Path_3" data-name="&lt;Path&gt;" class="cls-5" d="M208.36,230l7.18,6.5-20.19,22.3-14.35-13,13.69-15.12A9.68,9.68,0,0,1,208.36,230Z"/></g><path id="_Rectangle_15" data-name="&lt;Rectangle&gt;" class="cls-4" d="M206.42,227.5h57.15a0,0,0,0,1,0,0v29.22a7.12,7.12,0,0,1-7.12,7.12H213.54a7.12,7.12,0,0,1-7.12-7.12V227.5A0,0,0,0,1,206.42,227.5Z"/><path id="_Path_4" data-name="&lt;Path&gt;" class="cls-5" d="M218.24,227.5a10.88,10.88,0,0,0-.12,1.55c0,7.44,7.56,13.48,16.88,13.48s16.88-6,16.88-13.48a10.9,10.9,0,0,0-.12-1.55H218.24Z"/><path id="_Rectangle_16" data-name="&lt;Rectangle&gt;" class="cls-7" d="M223.4,221.64H246.6a0.46,0.46,0,0,1,.46.46v4.07A10.83,10.83,0,0,1,236.23,237h-2.46a10.83,10.83,0,0,1-10.83-10.83V222.1a0.46,0.46,0,0,1,.46-0.46Z"/><path id="_Rectangle_17" data-name="&lt;Rectangle&gt;" class="cls-6" d="M227.59,157h14.82a20,20,0,0,1,20,20v23.3A23.76,23.76,0,0,1,238.61,224h-7.21a23.76,23.76,0,0,1-23.76-23.76V177a20,20,0,0,1,20-20Z"/><path id="_Path_5" data-name="&lt;Path&gt;" class="cls-8" d="M242.87,155.44H227.13a19.5,19.5,0,0,0-19.5,19.5v25.31a5.64,5.64,0,0,0,5.64-5.64V180.71a2.85,2.85,0,0,1,4-2.61L228.61,183a16.1,16.1,0,0,0,12.78,0l11.35-4.91a2.85,2.85,0,0,1,4,2.61V194.6a5.64,5.64,0,0,0,5.64,5.64V174.93A19.5,19.5,0,0,0,242.87,155.44Z"/><path id="_Path_6" data-name="&lt;Path&gt;" class="cls-9" d="M238.08,212.79h-6.16a7.37,7.37,0,0,1-7.07-5.27,1.62,1.62,0,0,1,1.53-2.1h17.25a1.59,1.59,0,0,1,1.56,2A7.37,7.37,0,0,1,238.08,212.79Z"/><ellipse id="_Path_7" data-name="&lt;Path&gt;" class="cls-2" cx="224.55" cy="197.25" rx="1.36" ry="2.48" transform="translate(-26.87 358.84) rotate(-74.03)"/><ellipse id="_Path_8" data-name="&lt;Path&gt;" class="cls-2" cx="244.55" cy="197.25" rx="2.48" ry="1.36" transform="translate(-55.92 105.44) rotate(-21.9)"/><path id="_Path_9" data-name="&lt;Path&gt;" class="cls-10" d="M239.53,209.47H230.4a0.54,0.54,0,1,1,0-1.08h9.13A0.54,0.54,0,1,1,239.53,209.47Z"/><ellipse id="_Path_10" data-name="&lt;Path&gt;" class="cls-11" cx="249.69" cy="202.58" rx="1.43" ry="3.38" transform="translate(-20.82 376.4) rotate(-71.78)"/><ellipse id="_Path_11" data-name="&lt;Path&gt;" class="cls-11" cx="220.78" cy="202.58" rx="3.38" ry="1.43" transform="translate(-52.28 79.21) rotate(-18.22)"/><path id="_Path_12" data-name="&lt;Path&gt;" class="cls-12" d="M242.87,155.44H227.13a19.5,19.5,0,0,0-19.5,19.5v25.31a5.64,5.64,0,0,0,5.64-5.64V180.71a2.85,2.85,0,0,1,4-2.61L228.61,183a16.1,16.1,0,0,0,12.78,0l11.35-4.91a2.85,2.85,0,0,1,4,2.61V194.6a5.64,5.64,0,0,0,5.64,5.64V174.93A19.5,19.5,0,0,0,242.87,155.44Z"/><path id="_Path_13" data-name="&lt;Path&gt;" class="cls-13" d="M214.51,172a1,1,0,0,1-.92-1.39,16.72,16.72,0,0,1,8.8-8.81,1,1,0,1,1,.78,1.84,14.7,14.7,0,0,0-7.74,7.74A1,1,0,0,1,214.51,172Z"/><line id="_Path_14" data-name="&lt;Path&gt;" class="cls-1" x1="263.58" y1="276.29" x2="241.01" y2="257.58"/><rect id="_Rectangle_18" data-name="&lt;Rectangle&gt;" class="cls-6" x="260.2" y="265.68" width="19.36" height="30.75" rx="9.68" ry="9.68" transform="translate(614.14 98.53) rotate(105.91)"/></g><rect id="_Rectangle_19" data-name="&lt;Rectangle&gt;" class="cls-14" x="201.04" y="288.24" width="80.31" height="72.73"/><rect id="_Rectangle_20" data-name="&lt;Rectangle&gt;" class="cls-15" x="65" y="352.59" width="340" height="21.27" rx="10.64" ry="10.64"/><rect id="_Rectangle_21" data-name="&lt;Rectangle&gt;" class="cls-9" x="234.98" y="283.41" width="50.06" height="26.93"/><line id="_Path_15" data-name="&lt;Path&gt;" class="cls-16" x1="275.53" y1="285.72" x2="275.53" y2="313.97"/><line id="_Path_16" data-name="&lt;Path&gt;" class="cls-16" x1="262.38" y1="285.72" x2="262.38" y2="313.97"/><rect id="_Rectangle_22" data-name="&lt;Rectangle&gt;" class="cls-9" x="137.42" y="283.41" width="47.95" height="64.54"/><line id="_Path_17" data-name="&lt;Path&gt;" class="cls-16" x1="146.7" y1="283.72" x2="146.7" y2="344.22"/><rect id="_Rectangle_23" data-name="&lt;Rectangle&gt;" class="cls-17" x="143.4" y="295.32" width="6.61" height="9.06" rx="3.31" ry="3.31"/><rect id="_Rectangle_24" data-name="&lt;Rectangle&gt;" class="cls-17" x="143.4" y="321.01" width="6.61" height="9.06" rx="3.31" ry="3.31"/><rect id="_Rectangle_25" data-name="&lt;Rectangle&gt;" class="cls-4" x="132.44" y="278.78" width="58.77" height="11.89" rx="5.95" ry="5.95"/><rect id="_Rectangle_26" data-name="&lt;Rectangle&gt;" class="cls-4" x="132.44" y="336.06" width="58.77" height="11.89" rx="5.95" ry="5.95"/><rect id="_Rectangle_27" data-name="&lt;Rectangle&gt;" class="cls-4" x="229.61" y="278.78" width="60.91" height="11.89" rx="5.95" ry="5.95"/><g id="_Group_4" data-name="&lt;Group&gt;"><line id="_Path_18" data-name="&lt;Path&gt;" class="cls-18" x1="256.85" y1="314.97" x2="256.85" y2="332.94"/><line id="_Path_19" data-name="&lt;Path&gt;" class="cls-18" x1="275.18" y1="355.39" x2="256.85" y2="332.94"/><line id="_Path_20" data-name="&lt;Path&gt;" class="cls-19" x1="275.18" y1="355.39" x2="271.46" y2="350.83"/></g><rect id="_Rectangle_28" data-name="&lt;Rectangle&gt;" class="cls-4" x="229.61" y="309.03" width="60.91" height="11.89" rx="5.95" ry="5.95"/><rect id="_Rectangle_29" data-name="&lt;Rectangle&gt;" class="cls-17" x="272.22" y="295.32" width="6.61" height="9.06" rx="3.31" ry="3.31"/><rect id="_Rectangle_30" data-name="&lt;Rectangle&gt;" class="cls-17" x="259.08" y="295.32" width="6.61" height="9.06" rx="3.31" ry="3.31"/><g id="_Group_5" data-name="&lt;Group&gt;"><line id="_Path_21" data-name="&lt;Path&gt;" class="cls-18" x1="153.42" y1="359.9" x2="171.75" y2="337.45"/><line id="_Path_22" data-name="&lt;Path&gt;" class="cls-19" x1="153.42" y1="359.9" x2="157.14" y2="355.34"/></g><g id="_Group_6" data-name="&lt;Group&gt;"><line id="_Path_23" data-name="&lt;Path&gt;" class="cls-18" x1="257.89" y1="359.9" x2="239.56" y2="337.45"/><line id="_Path_24" data-name="&lt;Path&gt;" class="cls-19" x1="257.89" y1="359.9" x2="254.17" y2="355.34"/></g><g id="_Group_7" data-name="&lt;Group&gt;"><path id="_Path_25" data-name="&lt;Path&gt;" class="cls-9" d="M205.46,360.63a45.1,45.1,0,1,1,45.1-45.1A45.15,45.15,0,0,1,205.46,360.63Z"/><path id="_Compound_Path_" data-name="&lt;Compound Path&gt;" class="cls-5" d="M205.46,277.93a37.6,37.6,0,1,1-37.6,37.6,37.64,37.64,0,0,1,37.6-37.6m0-15a52.6,52.6,0,1,0,52.6,52.6,52.6,52.6,0,0,0-52.6-52.6h0Z"/></g><g id="_Group_8" data-name="&lt;Group&gt;"><circle id="_Path_26" data-name="&lt;Path&gt;" class="cls-20" cx="160.25" cy="315.69" r="4.58"/><circle id="_Path_27" data-name="&lt;Path&gt;" class="cls-20" cx="250.67" cy="315.69" r="4.58"/><circle id="_Path_28" data-name="&lt;Path&gt;" class="cls-20" cx="173.49" cy="347.66" r="4.58" transform="translate(-195.02 224.51) rotate(-45)"/><circle id="_Path_29" data-name="&lt;Path&gt;" class="cls-20" cx="237.43" cy="283.72" r="4.58" transform="translate(-131.08 250.99) rotate(-45)"/><circle id="_Path_30" data-name="&lt;Path&gt;" class="cls-20" cx="205.46" cy="360.9" r="4.58"/><circle id="_Path_31" data-name="&lt;Path&gt;" class="cls-20" cx="205.46" cy="270.48" r="4.58"/><circle id="_Path_32" data-name="&lt;Path&gt;" class="cls-20" cx="237.43" cy="347.66" r="4.58" transform="translate(-176.29 269.71) rotate(-45)"/><circle id="_Path_33" data-name="&lt;Path&gt;" class="cls-20" cx="173.49" cy="283.72" r="4.58" transform="translate(-149.81 205.78) rotate(-45)"/></g><line id="_Path_34" data-name="&lt;Path&gt;" class="cls-18" x1="309.53" y1="207.47" x2="309.53" y2="355.39"/><line id="_Path_35" data-name="&lt;Path&gt;" class="cls-21" x1="309.53" y1="238.27" x2="309.53" y2="253.73"/><line id="_Path_36" data-name="&lt;Path&gt;" class="cls-21" x1="309.53" y1="262.91" x2="309.53" y2="276.29"/><line id="_Path_37" data-name="&lt;Path&gt;" class="cls-22" x1="309.53" y1="353.11" x2="309.53" y2="359.42"/><rect id="_Rectangle_31" data-name="&lt;Rectangle&gt;" class="cls-4" x="303.18" y="218.64" width="12.69" height="19.98" rx="5.72" ry="5.72"/><rect id="_Rectangle_32" data-name="&lt;Rectangle&gt;" class="cls-17" x="303.18" y="248.66" width="12.69" height="19.98" rx="5.72" ry="5.72"/><path id="_Path_38" data-name="&lt;Path&gt;" class="cls-23" d="M341.09,242.73H278c-2,0-2.52-3.19-.67-4L288,233.75c11.84-5.45,31.2-5.45,43,0l10.71,4.93C343.61,239.54,343.08,242.73,341.09,242.73Z"/><path id="_Path_39" data-name="&lt;Path&gt;" class="cls-24" d="M278.48,247.51h62.09a2,2,0,0,1,.71,3.86L331,255.65c-11.84,4.94-31.2,4.94-43,0l-10.23-4.27A2,2,0,0,1,278.48,247.51Z"/><line id="_Path_40" data-name="&lt;Path&gt;" class="cls-18" x1="291.19" y1="355.39" x2="309.53" y2="332.94"/><line id="_Path_41" data-name="&lt;Path&gt;" class="cls-19" x1="291.19" y1="355.39" x2="294.92" y2="350.83"/><line id="_Path_42" data-name="&lt;Path&gt;" class="cls-18" x1="327.86" y1="355.39" x2="309.53" y2="332.94"/><line id="_Path_43" data-name="&lt;Path&gt;" class="cls-18" x1="107.31" y1="221.15" x2="107.31" y2="355.39"/><line id="_Path_44" data-name="&lt;Path&gt;" class="cls-21" x1="107.42" y1="221.27" x2="107.42" y2="236.73"/><line id="_Path_45" data-name="&lt;Path&gt;" class="cls-21" x1="107.31" y1="281.74" x2="107.31" y2="298.41"/><rect id="_Rectangle_33" data-name="&lt;Rectangle&gt;" class="cls-4" x="100.97" y="200.86" width="12.69" height="19.98" rx="5.72" ry="5.72"/><path id="_Path_46" data-name="&lt;Path&gt;" class="cls-23" d="M151.84,229.77l-88.78.92c-2.9,0-3.73-4.45-1.06-5.71l14.93-7c16.63-7.81,44-8.1,60.76-.63l15.08,6.7C155.47,225.24,154.74,229.74,151.84,229.77Z"/><line id="_Path_47" data-name="&lt;Path&gt;" class="cls-18" x1="88.98" y1="355.39" x2="107.31" y2="332.94"/><line id="_Path_48" data-name="&lt;Path&gt;" class="cls-18" x1="125.64" y1="355.39" x2="107.31" y2="332.94"/><line id="_Path_49" data-name="&lt;Path&gt;" class="cls-18" x1="364.09" y1="191.71" x2="364.09" y2="355.39"/><line id="_Path_50" data-name="&lt;Path&gt;" class="cls-21" x1="364.09" y1="205.6" x2="364.09" y2="221.07"/><line id="_Path_51" data-name="&lt;Path&gt;" class="cls-21" x1="364.09" y1="282.95" x2="364.09" y2="298.41"/><rect id="_Rectangle_34" data-name="&lt;Rectangle&gt;" class="cls-4" x="357.74" y="185.13" width="12.69" height="19.98" rx="5.72" ry="5.72"/><path id="_Path_52" data-name="&lt;Path&gt;" class="cls-23" d="M404.11,213.33h-80c-1.16,0-1.4-2.78-.3-3.37l15.84-8.43c13.46-7.17,35.49-7.17,48.95,0L404.41,210C405.51,210.55,405.26,213.33,404.11,213.33Z"/><line id="_Path_53" data-name="&lt;Path&gt;" class="cls-18" x1="345.76" y1="355.39" x2="364.09" y2="332.94"/><line id="_Path_54" data-name="&lt;Path&gt;" class="cls-18" x1="382.42" y1="355.39" x2="364.09" y2="332.94"/><line id="_Path_55" data-name="&lt;Path&gt;" class="cls-19" x1="327.86" y1="355.39" x2="324.14" y2="350.83"/><line id="_Path_56" data-name="&lt;Path&gt;" class="cls-22" x1="364.09" y1="353.11" x2="364.09" y2="359.42"/><line id="_Path_57" data-name="&lt;Path&gt;" class="cls-19" x1="345.76" y1="355.39" x2="349.48" y2="350.83"/><line id="_Path_58" data-name="&lt;Path&gt;" class="cls-19" x1="382.42" y1="355.39" x2="378.7" y2="350.83"/><line id="_Path_59" data-name="&lt;Path&gt;" class="cls-22" x1="107.42" y1="353.11" x2="107.42" y2="359.42"/><line id="_Path_60" data-name="&lt;Path&gt;" class="cls-19" x1="89.09" y1="355.39" x2="92.81" y2="350.83"/><line id="_Path_61" data-name="&lt;Path&gt;" class="cls-19" x1="125.75" y1="355.39" x2="122.03" y2="350.83"/><rect id="_Rectangle_35" data-name="&lt;Rectangle&gt;" class="cls-17" x="357.74" y="271.44" width="12.69" height="19.98" rx="5.72" ry="5.72"/><rect id="_Rectangle_36" data-name="&lt;Rectangle&gt;" class="cls-17" x="100.97" y="271.44" width="12.69" height="19.98" rx="5.72" ry="5.72"/><circle id="_Path_62" data-name="&lt;Path&gt;" class="cls-25" cx="100.97" cy="281.43" r="4.06"/><circle id="_Path_63" data-name="&lt;Path&gt;" class="cls-25" cx="357.74" cy="281.43" r="4.06"/><circle id="_Path_64" data-name="&lt;Path&gt;" class="cls-26" cx="85.88" cy="221.64" r="3.1"/><circle id="_Path_65" data-name="&lt;Path&gt;" class="cls-26" cx="95.91" cy="221.64" r="3.1"/><circle id="_Path_66" data-name="&lt;Path&gt;" class="cls-26" cx="349.48" cy="204.3" r="3.1"/><circle id="_Path_67" data-name="&lt;Path&gt;" class="cls-26" cx="359.81" cy="204.3" r="3.1"/><g id="_Group_9" data-name="&lt;Group&gt;"><circle id="_Path_68" data-name="&lt;Path&gt;" class="cls-27" cx="205.46" cy="315.53" r="23.12"/></g></svg>