<svg id="Layer_1" data-name="Layer 1" xmlns="http://www.w3.org/2000/svg" viewBox="0 0 470 470"><defs><style>.cls-1{opacity:0.05;}.cls-2{opacity:0.5;}.cls-3{fill:none;stroke:#fff;stroke-linecap:round;stroke-miterlimit:10;stroke-width:5px;}.cls-4{fill:#fff;}.cls-5{fill:#5b5b5b;}.cls-6{fill:#3d3d3d;}.cls-7{fill:#474747;}.cls-8{fill:#515151;}.cls-9{fill:#feccae;}.cls-10{fill:#febd86;}.cls-11{fill:#735448;}.cls-12{fill:#f9bfa2;}.cls-13{fill:#473d3a;}.cls-14,.cls-15{fill:#ededed;}.cls-14{opacity:0.1;}</style></defs><title>slider</title><rect id="_Rectangle_" data-name="&lt;Rectangle&gt;" class="cls-1" x="174.06" y="352.59" width="121.87" height="16.77" rx="8.39" ry="8.39"/><g id="_Group_" data-name="&lt;Group&gt;" class="cls-2"><line id="_Path_" data-name="&lt;Path&gt;" class="cls-3" x1="123.19" y1="120.39" x2="287.68" y2="120.39"/><line id="_Path_2" data-name="&lt;Path&gt;" class="cls-3" x1="99.81" y1="112.62" x2="99.81" y2="217.35"/><line id="_Path_3" data-name="&lt;Path&gt;" class="cls-3" x1="340.15" y1="94.12" x2="340.15" y2="225.75"/><line id="_Path_4" data-name="&lt;Path&gt;" class="cls-3" x1="292.15" y1="120.39" x2="292.15" y2="173.21"/><line id="_Path_5" data-name="&lt;Path&gt;" class="cls-3" x1="99.81" y1="164.27" x2="112.11" y2="164.27"/><line id="_Path_6" data-name="&lt;Path&gt;" class="cls-3" x1="190.53" y1="96.59" x2="190.53" y2="120.39"/><line id="_Path_7" data-name="&lt;Path&gt;" class="cls-3" x1="99.81" y1="190.54" x2="112.11" y2="190.54"/><line id="_Path_8" data-name="&lt;Path&gt;" class="cls-3" x1="99.81" y1="216.81" x2="112.11" y2="216.81"/><rect id="_Rectangle_2" data-name="&lt;Rectangle&gt;" class="cls-4" x="82.53" y="104.86" width="46.83" height="31.07" rx="5.84" ry="5.84"/><rect id="_Rectangle_3" data-name="&lt;Rectangle&gt;" class="cls-4" x="170.65" y="65.74" width="69.41" height="36.14" rx="7.67" ry="7.67"/><rect id="_Rectangle_4" data-name="&lt;Rectangle&gt;" class="cls-4" x="112.11" y="156.5" width="46.83" height="15.54" rx="4.13" ry="4.13"/><rect id="_Rectangle_5" data-name="&lt;Rectangle&gt;" class="cls-4" x="112.11" y="209.05" width="46.83" height="15.54" rx="4.13" ry="4.13"/><rect id="_Rectangle_6" data-name="&lt;Rectangle&gt;" class="cls-4" x="112.11" y="182.77" width="46.83" height="15.54" rx="4.13" ry="4.13"/><line id="_Path_9" data-name="&lt;Path&gt;" class="cls-3" x1="340.15" y1="94.12" x2="352.45" y2="94.12"/><line id="_Path_10" data-name="&lt;Path&gt;" class="cls-3" x1="300.9" y1="120.39" x2="352.45" y2="120.39"/><line id="_Path_11" data-name="&lt;Path&gt;" class="cls-3" x1="340.15" y1="146.66" x2="352.45" y2="146.66"/><rect id="_Rectangle_7" data-name="&lt;Rectangle&gt;" class="cls-4" x="352.45" y="86.35" width="46.83" height="15.54" rx="4.13" ry="4.13"/><rect id="_Rectangle_8" data-name="&lt;Rectangle&gt;" class="cls-4" x="352.45" y="138.9" width="46.83" height="15.54" rx="4.13" ry="4.13"/><rect id="_Rectangle_9" data-name="&lt;Rectangle&gt;" class="cls-4" x="352.45" y="112.62" width="46.83" height="15.54" rx="4.13" ry="4.13"/><line id="_Path_12" data-name="&lt;Path&gt;" class="cls-3" x1="292.15" y1="173.21" x2="352.45" y2="173.21"/><line id="_Path_13" data-name="&lt;Path&gt;" class="cls-3" x1="340.15" y1="199.48" x2="352.45" y2="199.48"/><line id="_Path_14" data-name="&lt;Path&gt;" class="cls-3" x1="340.15" y1="225.75" x2="352.45" y2="225.75"/><rect id="_Rectangle_10" data-name="&lt;Rectangle&gt;" class="cls-4" x="352.45" y="165.44" width="46.83" height="15.54" rx="4.13" ry="4.13"/><rect id="_Rectangle_11" data-name="&lt;Rectangle&gt;" class="cls-4" x="352.45" y="217.99" width="46.83" height="15.54" rx="4.13" ry="4.13"/><rect id="_Rectangle_12" data-name="&lt;Rectangle&gt;" class="cls-4" x="352.45" y="191.71" width="46.83" height="15.54" rx="4.13" ry="4.13"/><circle id="_Path_15" data-name="&lt;Path&gt;" class="cls-4" cx="92.53" cy="76.17" r="10"/><circle id="_Path_16" data-name="&lt;Path&gt;" class="cls-4" cx="116.96" cy="76.17" r="10"/><circle id="_Path_17" data-name="&lt;Path&gt;" class="cls-4" cx="344.3" cy="61" r="6.36"/><circle id="_Path_18" data-name="&lt;Path&gt;" class="cls-4" cx="362.03" cy="61" r="6.36"/><circle id="_Path_19" data-name="&lt;Path&gt;" class="cls-4" cx="134.66" cy="245" r="6.36"/><circle id="_Path_20" data-name="&lt;Path&gt;" class="cls-4" cx="152.39" cy="245" r="6.36"/><circle id="_Path_21" data-name="&lt;Path&gt;" class="cls-4" cx="142.53" cy="76.17" r="10"/><circle id="_Path_22" data-name="&lt;Path&gt;" class="cls-4" cx="292.15" cy="120.39" r="32"/></g><g id="_Group_2" data-name="&lt;Group&gt;"><rect id="_Rectangle_13" data-name="&lt;Rectangle&gt;" class="cls-5" x="209.85" y="298.41" width="21.27" height="54.26"/><rect id="_Rectangle_14" data-name="&lt;Rectangle&gt;" class="cls-6" x="209.85" y="288.24" width="50.3" height="10.17"/><rect id="_Rectangle_15" data-name="&lt;Rectangle&gt;" class="cls-5" x="238.88" y="298.41" width="21.27" height="54.26"/><rect id="_Rectangle_16" data-name="&lt;Rectangle&gt;" class="cls-5" x="209.85" y="298.41" width="50.3" height="17.12"/><path id="_Rectangle_17" data-name="&lt;Rectangle&gt;" class="cls-7" d="M247.39,344h18.29a5.6,5.6,0,0,1,5.6,5.6V361a0,0,0,0,1,0,0H247.39a8.51,8.51,0,0,1-8.51-8.51v0a8.51,8.51,0,0,1,8.51-8.51Z" transform="translate(510.16 704.93) rotate(180)"/><path id="_Rectangle_18" data-name="&lt;Rectangle&gt;" class="cls-6" d="M247.39,344h3a4.13,4.13,0,0,1,4.13,4.13V361a0,0,0,0,1,0,0h-7.08a8.51,8.51,0,0,1-8.51-8.51v0A8.51,8.51,0,0,1,247.39,344Z" transform="translate(493.35 704.93) rotate(180)"/><path id="_Rectangle_19" data-name="&lt;Rectangle&gt;" class="cls-7" d="M207.23,344h23.89a0,0,0,0,1,0,0v11.42a5.6,5.6,0,0,1-5.6,5.6H207.23a8.51,8.51,0,0,1-8.51-8.51v0A8.51,8.51,0,0,1,207.23,344Z"/><path id="_Rectangle_20" data-name="&lt;Rectangle&gt;" class="cls-6" d="M224,344h7.08a0,0,0,0,1,0,0v12.89A4.13,4.13,0,0,1,227,361h-3a8.51,8.51,0,0,1-8.51-8.51v0A8.51,8.51,0,0,1,224,344Z"/><rect id="_Rectangle_21" data-name="&lt;Rectangle&gt;" class="cls-7" x="209.85" y="227.49" width="50.3" height="60.75"/><rect id="_Rectangle_22" data-name="&lt;Rectangle&gt;" class="cls-8" x="252.03" y="227.5" width="18.95" height="13.83"/><g id="_Group_3" data-name="&lt;Group&gt;"><rect id="_Rectangle_23" data-name="&lt;Rectangle&gt;" class="cls-9" x="267.05" y="271.71" width="19.36" height="43.53" rx="9.68" ry="9.68" transform="translate(-29.2 30.58) rotate(-6.01)"/><rect id="_Rectangle_24" data-name="&lt;Rectangle&gt;" class="cls-9" x="263.48" y="229.39" width="19.36" height="60.5" rx="9.28" ry="9.28" transform="translate(-25.68 30.03) rotate(-6.01)"/><path id="_Path_23" data-name="&lt;Path&gt;" class="cls-8" d="M269.79,227.56l-9.63,1,3.15,29.91,19.26-2-2.14-20.28A9.68,9.68,0,0,0,269.79,227.56Z"/></g><rect id="_Rectangle_25" data-name="&lt;Rectangle&gt;" class="cls-8" x="198.96" y="227.5" width="18.95" height="13.83" transform="translate(416.87 468.83) rotate(-180)"/><g id="_Group_4" data-name="&lt;Group&gt;"><rect id="_Rectangle_26" data-name="&lt;Rectangle&gt;" class="cls-9" x="183.53" y="271.71" width="19.36" height="43.53" rx="9.68" ry="9.68" transform="translate(354.64 605.57) rotate(-173.99)"/><rect id="_Rectangle_27" data-name="&lt;Rectangle&gt;" class="cls-9" x="187.09" y="229.39" width="19.36" height="60.5" rx="9.28" ry="9.28" transform="translate(365.28 538.47) rotate(-173.99)"/><path id="_Path_24" data-name="&lt;Path&gt;" class="cls-8" d="M200.15,227.56l9.63,1-3.15,29.91-19.26-2,2.14-20.28A9.68,9.68,0,0,1,200.15,227.56Z"/></g><path id="_Rectangle_28" data-name="&lt;Rectangle&gt;" class="cls-7" d="M206.42,227.5h57.15a0,0,0,0,1,0,0v29.22a7.12,7.12,0,0,1-7.12,7.12H213.54a7.12,7.12,0,0,1-7.12-7.12V227.5A0,0,0,0,1,206.42,227.5Z"/><path id="_Path_25" data-name="&lt;Path&gt;" class="cls-8" d="M218.24,227.5a10.88,10.88,0,0,0-.12,1.55c0,7.44,7.56,13.48,16.88,13.48s16.88-6,16.88-13.48a10.9,10.9,0,0,0-.12-1.55H218.24Z"/><path id="_Rectangle_29" data-name="&lt;Rectangle&gt;" class="cls-10" d="M223.4,221.64H246.6a0.46,0.46,0,0,1,.46.46v4.07A10.83,10.83,0,0,1,236.23,237h-2.46a10.83,10.83,0,0,1-10.83-10.83V222.1a0.46,0.46,0,0,1,.46-0.46Z"/><path id="_Rectangle_30" data-name="&lt;Rectangle&gt;" class="cls-9" d="M227.59,157h14.82a20,20,0,0,1,20,20v23.3A23.76,23.76,0,0,1,238.61,224h-7.21a23.76,23.76,0,0,1-23.76-23.76V177a20,20,0,0,1,20-20Z"/><path id="_Path_26" data-name="&lt;Path&gt;" class="cls-11" d="M242.87,155.44H227.13a19.5,19.5,0,0,0-19.5,19.5v25.31a5.64,5.64,0,0,0,5.64-5.64V180.71a2.85,2.85,0,0,1,4-2.61L228.61,183a16.1,16.1,0,0,0,12.78,0l11.35-4.91a2.85,2.85,0,0,1,4,2.61V194.6a5.64,5.64,0,0,0,5.64,5.64V174.93A19.5,19.5,0,0,0,242.87,155.44Z"/><circle id="_Path_27" data-name="&lt;Path&gt;" class="cls-5" cx="224.55" cy="197" r="2.48"/><circle id="_Path_28" data-name="&lt;Path&gt;" class="cls-5" cx="244.55" cy="197" r="2.48"/><ellipse id="_Path_29" data-name="&lt;Path&gt;" class="cls-12" cx="249.69" cy="202.58" rx="1.43" ry="3.38" transform="translate(-20.82 376.4) rotate(-71.78)"/><ellipse id="_Path_30" data-name="&lt;Path&gt;" class="cls-12" cx="220.78" cy="202.58" rx="3.38" ry="1.43" transform="translate(-52.28 79.21) rotate(-18.22)"/><path id="_Path_31" data-name="&lt;Path&gt;" class="cls-13" d="M242.87,155.44H227.13a19.5,19.5,0,0,0-19.5,19.5v25.31a5.64,5.64,0,0,0,5.64-5.64V180.71a2.85,2.85,0,0,1,4-2.61L228.61,183a16.1,16.1,0,0,0,12.78,0l11.35-4.91a2.85,2.85,0,0,1,4,2.61V194.6a5.64,5.64,0,0,0,5.64,5.64V174.93A19.5,19.5,0,0,0,242.87,155.44Z"/><path id="_Path_32" data-name="&lt;Path&gt;" class="cls-14" d="M214.51,172a1,1,0,0,1-.92-1.39,16.72,16.72,0,0,1,8.8-8.81,1,1,0,1,1,.78,1.84,14.7,14.7,0,0,0-7.74,7.74A1,1,0,0,1,214.51,172Z"/><path id="_Path_33" data-name="&lt;Path&gt;" class="cls-4" d="M238.08,212.79h-6.16a7.37,7.37,0,0,1-7.07-5.27,1.62,1.62,0,0,1,1.53-2.1h17.25a1.59,1.59,0,0,1,1.56,2A7.37,7.37,0,0,1,238.08,212.79Z"/><path id="_Path_34" data-name="&lt;Path&gt;" class="cls-15" d="M239.53,209.47H230.4a0.54,0.54,0,1,1,0-1.08h9.13A0.54,0.54,0,1,1,239.53,209.47Z"/></g></svg>