<svg id="Layer_1" data-name="Layer 1" xmlns="http://www.w3.org/2000/svg" viewBox="0 0 470 470"><defs><style>.cls-1{opacity:0.05;}.cls-13,.cls-2,.cls-22{fill:#fff;}.cls-12,.cls-2,.cls-26{opacity:0.1;}.cls-3{fill:#5b5b5b;}.cls-4{fill:#3d3d3d;}.cls-5{fill:#474747;}.cls-6{fill:#515151;}.cls-7{fill:#feccae;}.cls-8{fill:#febd86;}.cls-9{fill:#735448;}.cls-10{fill:#f9bfa2;}.cls-11{fill:#3a3a3a;}.cls-12,.cls-14{fill:#ededed;}.cls-15{opacity:0.08;}.cls-16{fill:#b47860;}.cls-17{fill:#aa6f5b;}.cls-18{fill:#b77d67;}.cls-19{fill:#e3e3e3;}.cls-20,.cls-22{opacity:0.3;}.cls-21{fill:#ffbc00;}.cls-23{fill:#fc982b;}.cls-24{fill:#ffb6f1;}.cls-25{fill:#9be26d;}.cls-27{fill:none;stroke:#000;stroke-linecap:round;stroke-miterlimit:10;stroke-width:2px;}.cls-28{fill:#d1d1d1;}</style></defs><title>slider</title><rect id="_Rectangle_" data-name="&lt;Rectangle&gt;" class="cls-1" x="24.67" y="327.92" width="30.77" height="24.85" rx="4.23" ry="4.23"/><circle id="_Path_" data-name="&lt;Path&gt;" class="cls-2" cx="40.06" cy="340.34" r="7.1"/><g id="_Group_" data-name="&lt;Group&gt;"><rect id="_Rectangle_2" data-name="&lt;Rectangle&gt;" class="cls-3" x="209.85" y="298.41" width="21.27" height="54.26"/><rect id="_Rectangle_3" data-name="&lt;Rectangle&gt;" class="cls-4" x="209.85" y="288.24" width="50.3" height="10.17"/><rect id="_Rectangle_4" data-name="&lt;Rectangle&gt;" class="cls-3" x="238.88" y="298.41" width="21.27" height="54.26"/><rect id="_Rectangle_5" data-name="&lt;Rectangle&gt;" class="cls-3" x="209.85" y="298.41" width="50.3" height="17.12"/><path id="_Rectangle_6" data-name="&lt;Rectangle&gt;" class="cls-5" d="M247.39,344h18.29a5.6,5.6,0,0,1,5.6,5.6V361a0,0,0,0,1,0,0H247.39a8.51,8.51,0,0,1-8.51-8.51v0A8.51,8.51,0,0,1,247.39,344Z" transform="translate(510.16 704.93) rotate(180)"/><path id="_Rectangle_7" data-name="&lt;Rectangle&gt;" class="cls-4" d="M247.39,344h3a4.13,4.13,0,0,1,4.13,4.13V361a0,0,0,0,1,0,0h-7.08a8.51,8.51,0,0,1-8.51-8.51v0A8.51,8.51,0,0,1,247.39,344Z" transform="translate(493.35 704.93) rotate(180)"/><path id="_Rectangle_8" data-name="&lt;Rectangle&gt;" class="cls-5" d="M207.23,344h23.89a0,0,0,0,1,0,0v11.42a5.6,5.6,0,0,1-5.6,5.6H207.23a8.51,8.51,0,0,1-8.51-8.51v0a8.51,8.51,0,0,1,8.51-8.51Z"/><path id="_Rectangle_9" data-name="&lt;Rectangle&gt;" class="cls-4" d="M224,344h7.08a0,0,0,0,1,0,0v12.89A4.13,4.13,0,0,1,227,361h-3a8.51,8.51,0,0,1-8.51-8.51v0A8.51,8.51,0,0,1,224,344Z"/><rect id="_Rectangle_10" data-name="&lt;Rectangle&gt;" class="cls-5" x="209.85" y="227.49" width="50.3" height="60.75"/><rect id="_Rectangle_11" data-name="&lt;Rectangle&gt;" class="cls-6" x="252.03" y="227.5" width="18.95" height="13.83"/><g id="_Group_2" data-name="&lt;Group&gt;"><rect id="_Rectangle_12" data-name="&lt;Rectangle&gt;" class="cls-7" x="267.05" y="271.71" width="19.36" height="43.53" rx="9.68" ry="9.68" transform="matrix(0.99, -0.1, 0.1, 0.99, -29.2, 30.58)"/><rect id="_Rectangle_13" data-name="&lt;Rectangle&gt;" class="cls-7" x="263.48" y="229.39" width="19.36" height="60.5" rx="9.28" ry="9.28" transform="translate(-25.68 30.03) rotate(-6.01)"/><path id="_Path_2" data-name="&lt;Path&gt;" class="cls-6" d="M269.79,227.56l-9.63,1,3.15,29.91,19.26-2-2.14-20.28A9.68,9.68,0,0,0,269.79,227.56Z"/></g><rect id="_Rectangle_14" data-name="&lt;Rectangle&gt;" class="cls-6" x="198.96" y="227.5" width="18.95" height="13.83" transform="translate(416.87 468.83) rotate(-180)"/><g id="_Group_3" data-name="&lt;Group&gt;"><rect id="_Rectangle_15" data-name="&lt;Rectangle&gt;" class="cls-7" x="183.53" y="271.71" width="19.36" height="43.53" rx="9.68" ry="9.68" transform="translate(354.64 605.57) rotate(-173.99)"/><rect id="_Rectangle_16" data-name="&lt;Rectangle&gt;" class="cls-7" x="187.09" y="229.39" width="19.36" height="60.5" rx="9.28" ry="9.28" transform="translate(365.28 538.47) rotate(-173.99)"/><path id="_Path_3" data-name="&lt;Path&gt;" class="cls-6" d="M200.15,227.56l9.63,1-3.15,29.91-19.26-2,2.14-20.28A9.68,9.68,0,0,1,200.15,227.56Z"/></g><path id="_Rectangle_17" data-name="&lt;Rectangle&gt;" class="cls-5" d="M206.42,227.5h57.15a0,0,0,0,1,0,0v29.22a7.12,7.12,0,0,1-7.12,7.12H213.54a7.12,7.12,0,0,1-7.12-7.12V227.5A0,0,0,0,1,206.42,227.5Z"/><path id="_Path_4" data-name="&lt;Path&gt;" class="cls-6" d="M218.24,227.5a10.88,10.88,0,0,0-.12,1.55c0,7.44,7.56,13.48,16.88,13.48s16.88-6,16.88-13.48a10.9,10.9,0,0,0-.12-1.55H218.24Z"/><path id="_Rectangle_18" data-name="&lt;Rectangle&gt;" class="cls-8" d="M223.4,221.64H246.6a0.46,0.46,0,0,1,.46.46v4.07A10.83,10.83,0,0,1,236.23,237h-2.46a10.83,10.83,0,0,1-10.83-10.83V222.1a0.46,0.46,0,0,1,.46-0.46Z"/><path id="_Rectangle_19" data-name="&lt;Rectangle&gt;" class="cls-7" d="M227.59,157h14.82a20,20,0,0,1,20,20v23.3A23.76,23.76,0,0,1,238.61,224h-7.21a23.76,23.76,0,0,1-23.76-23.76V177A20,20,0,0,1,227.59,157Z"/><path id="_Path_5" data-name="&lt;Path&gt;" class="cls-9" d="M242.87,155.44H227.13a19.5,19.5,0,0,0-19.5,19.5v25.31a5.64,5.64,0,0,0,5.64-5.64V180.71a2.85,2.85,0,0,1,4-2.61L228.61,183a16.1,16.1,0,0,0,12.78,0l11.35-4.91a2.85,2.85,0,0,1,4,2.61V194.6a5.64,5.64,0,0,0,5.64,5.64V174.93A19.5,19.5,0,0,0,242.87,155.44Z"/><circle id="_Path_6" data-name="&lt;Path&gt;" class="cls-3" cx="224.55" cy="197" r="2.48"/><circle id="_Path_7" data-name="&lt;Path&gt;" class="cls-3" cx="244.55" cy="197" r="2.48"/><ellipse id="_Path_8" data-name="&lt;Path&gt;" class="cls-10" cx="249.69" cy="202.58" rx="1.43" ry="3.38" transform="translate(-20.82 376.4) rotate(-71.78)"/><ellipse id="_Path_9" data-name="&lt;Path&gt;" class="cls-10" cx="220.78" cy="202.58" rx="3.38" ry="1.43" transform="translate(-52.28 79.21) rotate(-18.22)"/><path id="_Path_10" data-name="&lt;Path&gt;" class="cls-11" d="M242.87,155.44H227.13a19.5,19.5,0,0,0-19.5,19.5v25.31a5.64,5.64,0,0,0,5.64-5.64V180.71a2.85,2.85,0,0,1,4-2.61L228.61,183a16.1,16.1,0,0,0,12.78,0l11.35-4.91a2.85,2.85,0,0,1,4,2.61V194.6a5.64,5.64,0,0,0,5.64,5.64V174.93A19.5,19.5,0,0,0,242.87,155.44Z"/><path id="_Path_11" data-name="&lt;Path&gt;" class="cls-12" d="M214.51,172a1,1,0,0,1-.92-1.39,16.72,16.72,0,0,1,8.8-8.81,1,1,0,1,1,.78,1.84,14.7,14.7,0,0,0-7.74,7.74A1,1,0,0,1,214.51,172Z"/><path id="_Path_12" data-name="&lt;Path&gt;" class="cls-13" d="M238.08,212.79h-6.16a7.37,7.37,0,0,1-7.07-5.27,1.62,1.62,0,0,1,1.53-2.1h17.25a1.59,1.59,0,0,1,1.56,2A7.37,7.37,0,0,1,238.08,212.79Z"/><path id="_Path_13" data-name="&lt;Path&gt;" class="cls-14" d="M239.53,209.47H230.4a0.54,0.54,0,1,1,0-1.08h9.13A0.54,0.54,0,1,1,239.53,209.47Z"/></g><g id="_Group_4" data-name="&lt;Group&gt;"><rect id="_Rectangle_20" data-name="&lt;Rectangle&gt;" class="cls-15" x="46.04" y="375.33" width="377.91" height="16.77" rx="8.39" ry="8.39"/><rect id="_Rectangle_21" data-name="&lt;Rectangle&gt;" class="cls-16" x="74.53" y="274.83" width="320.95" height="108.17"/><rect id="_Rectangle_22" data-name="&lt;Rectangle&gt;" class="cls-17" x="74.53" y="274.83" width="320.95" height="20.28"/><rect id="_Rectangle_23" data-name="&lt;Rectangle&gt;" class="cls-18" x="62.58" y="274.83" width="344.84" height="11.41" rx="5.71" ry="5.71"/><path id="_Path_14" data-name="&lt;Path&gt;" class="cls-17" d="M278.26,304.67h0c5.53,0,10,4.82,10,10.78v44.22c0,6-4.49,10.78-10,10.78h0c-5.53,0-10-4.82-10-10.78V315.44C268.24,309.49,272.73,304.67,278.26,304.67Z"/><path id="_Path_15" data-name="&lt;Path&gt;" class="cls-17" d="M308.33,304.67h0c5.53,0,10,4.82,10,10.78v44.22c0,6-4.49,10.78-10,10.78h0c-5.53,0-10-4.82-10-10.78V315.44C298.31,309.49,302.8,304.67,308.33,304.67Z"/><path id="_Path_16" data-name="&lt;Path&gt;" class="cls-17" d="M338.39,304.67h0c5.53,0,10,4.82,10,10.78v44.22c0,6-4.49,10.78-10,10.78h0c-5.53,0-10-4.82-10-10.78V315.44C328.37,309.49,332.86,304.67,338.39,304.67Z"/><path id="_Path_17" data-name="&lt;Path&gt;" class="cls-17" d="M368.46,304.67h0c5.53,0,10,4.82,10,10.78v44.22c0,6-4.49,10.78-10,10.78h0c-5.53,0-10-4.82-10-10.78V315.44C358.44,309.49,362.93,304.67,368.46,304.67Z"/><path id="_Path_18" data-name="&lt;Path&gt;" class="cls-17" d="M159.14,304.67h0c5.53,0,10,4.82,10,10.78v44.22c0,6-4.49,10.78-10,10.78h0c-5.53,0-10-4.82-10-10.78V315.44C149.12,309.49,153.61,304.67,159.14,304.67Z"/><path id="_Path_19" data-name="&lt;Path&gt;" class="cls-17" d="M189.21,304.67h0c5.53,0,10,4.82,10,10.78v44.22c0,6-4.49,10.78-10,10.78h0c-5.53,0-10-4.82-10-10.78V315.44C179.19,309.49,183.67,304.67,189.21,304.67Z"/><path id="_Path_20" data-name="&lt;Path&gt;" class="cls-17" d="M219.27,304.67h0c5.53,0,10,4.82,10,10.78v44.22c0,6-4.49,10.78-10,10.78h0c-5.53,0-10-4.82-10-10.78V315.44C209.25,309.49,213.74,304.67,219.27,304.67Z"/><path id="_Path_21" data-name="&lt;Path&gt;" class="cls-17" d="M249.34,304.67h0c5.53,0,10,4.82,10,10.78v44.22c0,6-4.49,10.78-10,10.78h0c-5.53,0-10-4.82-10-10.78V315.44C239.32,309.49,243.8,304.67,249.34,304.67Z"/><path id="_Path_22" data-name="&lt;Path&gt;" class="cls-17" d="M101.54,304.67h0c5.53,0,10,4.82,10,10.78v44.22c0,6-4.49,10.78-10,10.78h0c-5.53,0-10-4.82-10-10.78V315.44C91.52,309.49,96,304.67,101.54,304.67Z"/><path id="_Path_23" data-name="&lt;Path&gt;" class="cls-17" d="M131.61,304.67h0c5.53,0,10,4.82,10,10.78v44.22c0,6-4.49,10.78-10,10.78h0c-5.53,0-10-4.82-10-10.78V315.44C121.58,309.49,126.07,304.67,131.61,304.67Z"/></g><g id="_Group_5" data-name="&lt;Group&gt;"><rect id="_Rectangle_24" data-name="&lt;Rectangle&gt;" class="cls-19" x="75.91" y="193" width="120.67" height="81.83" rx="8.8" ry="8.8"/><path id="_Path_24" data-name="&lt;Path&gt;" class="cls-13" d="M145.88,235.28a7.74,7.74,0,0,1-3.79-11.95,12.13,12.13,0,1,0,6.15,12.34A7.73,7.73,0,0,1,145.88,235.28Z"/><g id="_Group_6" data-name="&lt;Group&gt;" class="cls-20"><rect id="_Rectangle_25" data-name="&lt;Rectangle&gt;" class="cls-13" x="71.92" y="248.57" width="30.77" height="6.17" rx="3.08" ry="3.08" transform="translate(-164.35 338.96) rotate(-90)"/><rect id="_Rectangle_26" data-name="&lt;Rectangle&gt;" class="cls-13" x="84.03" y="224.9" width="6.55" height="6.17" rx="3.08" ry="3.08" transform="translate(-140.68 315.28) rotate(-90)"/></g></g><g id="_Group_7" data-name="&lt;Group&gt;"><rect id="_Rectangle_27" data-name="&lt;Rectangle&gt;" class="cls-21" x="89.17" y="89.73" width="40.03" height="36.64" transform="translate(8.12 -7.63) rotate(4.16)"/><rect id="_Rectangle_28" data-name="&lt;Rectangle&gt;" class="cls-22" x="90.21" y="89.77" width="40.03" height="7.77" transform="translate(7.08 -7.74) rotate(4.16)"/></g><g id="_Group_8" data-name="&lt;Group&gt;"><rect id="_Rectangle_29" data-name="&lt;Rectangle&gt;" class="cls-21" x="346.17" y="102.07" width="40.03" height="36.64" transform="translate(9.69 -26.23) rotate(4.16)"/><rect id="_Rectangle_30" data-name="&lt;Rectangle&gt;" class="cls-22" x="347.21" y="102.11" width="40.03" height="7.77" transform="translate(8.65 -26.34) rotate(4.16)"/></g><g id="_Group_9" data-name="&lt;Group&gt;"><rect id="_Rectangle_31" data-name="&lt;Rectangle&gt;" class="cls-21" x="214.37" y="36.98" width="40.03" height="36.64" transform="translate(-5.76 37.33) rotate(-9)"/><rect id="_Rectangle_32" data-name="&lt;Rectangle&gt;" class="cls-22" x="212.11" y="37.16" width="40.03" height="7.77" transform="translate(-3.56 36.8) rotate(-9)"/></g><g id="_Group_10" data-name="&lt;Group&gt;"><rect id="_Rectangle_33" data-name="&lt;Rectangle&gt;" class="cls-23" x="155.21" y="70.49" width="40.03" height="36.64" transform="translate(6.8 -12.31) rotate(4.1)"/><rect id="_Rectangle_34" data-name="&lt;Rectangle&gt;" class="cls-22" x="156.24" y="70.53" width="40.03" height="7.77" transform="translate(5.77 -12.42) rotate(4.1)"/></g><g id="_Group_11" data-name="&lt;Group&gt;"><rect id="_Rectangle_35" data-name="&lt;Rectangle&gt;" class="cls-23" x="142.45" y="124.3" width="40.03" height="36.64" transform="translate(-5.82 6.92) rotate(-2.4)"/><rect id="_Rectangle_36" data-name="&lt;Rectangle&gt;" class="cls-22" x="141.85" y="124.31" width="40.03" height="7.77" transform="translate(-5.22 6.88) rotate(-2.4)"/></g><g id="_Group_12" data-name="&lt;Group&gt;"><rect id="_Rectangle_37" data-name="&lt;Rectangle&gt;" class="cls-24" x="218.24" y="98.46" width="40.03" height="36.64"/><rect id="_Rectangle_38" data-name="&lt;Rectangle&gt;" class="cls-22" x="218.24" y="98.46" width="40.03" height="7.77"/></g><g id="_Group_13" data-name="&lt;Group&gt;"><rect id="_Rectangle_39" data-name="&lt;Rectangle&gt;" class="cls-24" x="297.57" y="159.52" width="40.03" height="36.64" transform="translate(22.37 -35.07) rotate(6.55)"/><rect id="_Rectangle_40" data-name="&lt;Rectangle&gt;" class="cls-22" x="299.22" y="159.61" width="40.03" height="7.77" transform="translate(20.74 -35.36) rotate(6.55)"/></g><g id="_Group_14" data-name="&lt;Group&gt;"><rect id="_Rectangle_41" data-name="&lt;Rectangle&gt;" class="cls-25" x="284.35" y="85.91" width="40.03" height="36.64" transform="translate(-9.11 31.88) rotate(-5.91)"/><rect id="_Rectangle_42" data-name="&lt;Rectangle&gt;" class="cls-22" x="282.86" y="85.99" width="40.03" height="7.77" transform="translate(-7.64 31.65) rotate(-5.91)"/></g><g id="_Group_15" data-name="&lt;Group&gt;" class="cls-26"><g id="_Group_16" data-name="&lt;Group&gt;"><path id="_Path_25" data-name="&lt;Path&gt;" class="cls-27" d="M106,135.11s1,19.53,26.09,17"/><g id="_Group_17" data-name="&lt;Group&gt;"><polygon id="_Path_26" data-name="&lt;Path&gt;" points="128.51 157.23 127.63 156.42 131.63 152.06 126.99 148.39 127.74 147.44 133.39 151.92 128.51 157.23"/></g></g></g><g id="_Group_18" data-name="&lt;Group&gt;" class="cls-26"><g id="_Group_19" data-name="&lt;Group&gt;"><path id="_Path_27" data-name="&lt;Path&gt;" class="cls-27" d="M294.92,72.51c-0.66-4.41-4.53-18.49-26.86-16.14"/><g id="_Group_20" data-name="&lt;Group&gt;"><polygon id="_Path_28" data-name="&lt;Path&gt;" points="298.85 67.67 297.83 67.04 294.72 72.08 289.92 68.61 289.22 69.58 295.06 73.81 298.85 67.67"/></g></g></g><g id="_Group_21" data-name="&lt;Group&gt;" class="cls-26"><g id="_Group_22" data-name="&lt;Group&gt;"><path id="_Path_29" data-name="&lt;Path&gt;" class="cls-27" d="M348.74,174.92c4.46,0.27,19-.57,21.4-22.89"/><g id="_Group_23" data-name="&lt;Group&gt;"><polygon id="_Path_30" data-name="&lt;Path&gt;" points="352.65 179.77 353.48 178.91 349.2 174.81 353.6 170.85 352.79 169.96 347.44 174.79 352.65 179.77"/></g></g></g><rect id="_Rectangle_43" data-name="&lt;Rectangle&gt;" class="cls-19" x="297.06" y="211.79" width="32.46" height="54.25" rx="5.5" ry="5.5"/><path id="_Path_31" data-name="&lt;Path&gt;" class="cls-13" d="M318.27,229.91a4,4,0,0,1-2-6.17,6.27,6.27,0,1,0,3.18,6.38A4,4,0,0,1,318.27,229.91Z"/><g id="_Group_24" data-name="&lt;Group&gt;" class="cls-20"><rect id="_Rectangle_44" data-name="&lt;Rectangle&gt;" class="cls-13" x="294.45" y="249.1" width="18.91" height="3.79" rx="1.89" ry="1.89" transform="translate(52.91 554.9) rotate(-90)"/><rect id="_Rectangle_45" data-name="&lt;Rectangle&gt;" class="cls-13" x="301.89" y="234.55" width="4.02" height="3.79" rx="1.89" ry="1.89" transform="translate(67.46 540.35) rotate(-90)"/></g><rect id="_Rectangle_46" data-name="&lt;Rectangle&gt;" class="cls-28" x="292.61" y="266.04" width="41.37" height="8.84" rx="1.93" ry="1.93"/><g id="_Group_25" data-name="&lt;Group&gt;"><path id="_Rectangle_47" data-name="&lt;Rectangle&gt;" class="cls-7" d="M252.83,253.52h5.71a10.76,10.76,0,0,1,10.76,10.76v10.55a0,0,0,0,1,0,0H242.07a0,0,0,0,1,0,0V264.28a10.76,10.76,0,0,1,10.76-10.76Z"/><rect id="_Rectangle_48" data-name="&lt;Rectangle&gt;" class="cls-13" x="233.39" y="264.17" width="27.12" height="10.66" rx="4.84" ry="4.84"/></g></svg>