<?xml version="1.0" encoding="utf-8"?>
<!-- Generator: Adobe Illustrator 19.0.0, SVG Export Plug-In . SVG Version: 6.00 Build 0)  -->
<svg version="1.1" id="Layer_1" xmlns="http://www.w3.org/2000/svg" xmlns:xlink="http://www.w3.org/1999/xlink" x="0px" y="0px"
	 viewBox="0 0 127.6 226" style="enable-background:new 0 0 127.6 226;" xml:space="preserve">
<style type="text/css">
	.st0{fill:#5B5B5B;}
	.st1{fill:#3D3D3D;}
	.st2{fill:#474747;}
	.st3{fill:#515151;}
	.st4{fill:#FECCAE;}
	.st5{fill:#FEBD86;}
	.st6{fill:#735448;}
	.st7{fill:#F9BFA2;}
	.st8{opacity:0.1;fill:#EDEDED;}
	.st9{fill:#FFFFFF;}
	.st10{fill:#EDEDED;}
</style>
<g id="XMLID_48_">
	<rect id="XMLID_90_" x="38.7" y="153.2" class="st0" width="21.3" height="54.3"/>
	<rect id="XMLID_83_" x="38.7" y="143" class="st1" width="50.3" height="10.2"/>
	<rect id="XMLID_82_" x="67.7" y="153.2" class="st0" width="21.3" height="54.3"/>
	<rect id="XMLID_81_" x="38.7" y="153.2" class="st0" width="50.3" height="17.1"/>
	<path id="XMLID_65_" class="st2" d="M73.3,215.8h18.3c4.7,0,8.5-3.8,8.5-8.5v0c0-4.7-3.8-8.5-8.5-8.5H67.7v11.4
		C67.7,213.3,70.2,215.8,73.3,215.8z"/>
	<path id="XMLID_64_" class="st1" d="M71.8,215.8h3c4.7,0,8.5-3.8,8.5-8.5v0c0-4.7-3.8-8.5-8.5-8.5h-7.1v12.9
		C67.7,213.9,69.6,215.8,71.8,215.8z"/>
	<path id="XMLID_69_" class="st2" d="M54.4,215.8H36.1c-4.7,0-8.5-3.8-8.5-8.5v0c0-4.7,3.8-8.5,8.5-8.5h23.9v11.4
		C59.9,213.3,57.4,215.8,54.4,215.8z"/>
	<path id="XMLID_68_" class="st1" d="M55.8,215.8h-3c-4.7,0-8.5-3.8-8.5-8.5v0c0-4.7,3.8-8.5,8.5-8.5h7.1v12.9
		C59.9,213.9,58.1,215.8,55.8,215.8z"/>
	<rect id="XMLID_49_" x="38.7" y="82.3" class="st2" width="50.3" height="60.8"/>
	<rect id="XMLID_53_" x="80.9" y="82.3" class="st3" width="19" height="13.8"/>
	<g id="XMLID_50_">
		<path id="XMLID_51_" class="st4" d="M107.8,169.9L107.8,169.9c-5.3,0.6-10.1-3.3-10.6-8.6l-2.5-24c-0.6-5.3,3.3-10.1,8.6-10.6l0,0
			c5.3-0.6,10.1,3.3,10.6,8.6l2.5,24C117,164.6,113.2,169.3,107.8,169.9z"/>
		<path id="XMLID_52_" class="st4" d="M105.6,144.5l-0.8,0.1c-5.1,0.5-9.7-3.2-10.2-8.3l-4.4-41.7c-0.5-5.1,3.2-9.7,8.3-10.2
			l0.8-0.1c5.1-0.5,9.7,3.2,10.2,8.3l4.4,41.7C114.4,139.4,110.7,143.9,105.6,144.5z"/>
		<path id="XMLID_289_" class="st3" d="M98.6,82.3l-9.6,1l3.1,29.9l19.3-2L109.3,91C108.7,85.6,103.9,81.8,98.6,82.3z"/>
	</g>
	<rect id="XMLID_59_" x="27.8" y="82.3" class="st3" width="19" height="13.8"/>
	<g id="XMLID_55_">
		<path id="XMLID_58_" class="st4" d="M19.8,169.9L19.8,169.9c5.3,0.6,10.1-3.3,10.6-8.6l2.5-24c0.6-5.3-3.3-10.1-8.6-10.6l0,0
			c-5.3-0.6-10.1,3.3-10.6,8.6l-2.5,24C10.6,164.6,14.4,169.3,19.8,169.9z"/>
		<path id="XMLID_57_" class="st4" d="M22,144.5l0.8,0.1c5.1,0.5,9.7-3.2,10.2-8.3l4.4-41.7c0.5-5.1-3.2-9.7-8.3-10.2l-0.8-0.1
			c-5.1-0.5-9.7,3.2-10.2,8.3l-4.4,41.7C13.2,139.4,16.9,143.9,22,144.5z"/>
		<path id="XMLID_56_" class="st3" d="M29,82.3l9.6,1l-3.1,29.9l-19.3-2L18.3,91C18.9,85.6,23.7,81.8,29,82.3z"/>
	</g>
	<path id="XMLID_54_" class="st2" d="M42.4,118.6h42.9c3.9,0,7.1-3.2,7.1-7.1V82.3H35.2v29.2C35.2,115.4,38.4,118.6,42.4,118.6z"/>
	<path id="XMLID_66_" class="st3" d="M47.1,82.3c-0.1,0.5-0.1,1-0.1,1.6c0,7.4,7.6,13.5,16.9,13.5c9.3,0,16.9-6,16.9-13.5
		c0-0.5,0-1-0.1-1.6H47.1z"/>
	<path id="XMLID_80_" class="st5" d="M65.1,91.8h-2.5c-6,0-10.8-4.8-10.8-10.8v-4.1c0-0.3,0.2-0.5,0.5-0.5h23.2
		c0.3,0,0.5,0.2,0.5,0.5V81C75.9,86.9,71,91.8,65.1,91.8z"/>
	<path id="XMLID_79_" class="st4" d="M67.4,78.8h-7.2c-13.1,0-23.8-10.6-23.8-23.8V31.8c0-11,8.9-20,20-20h14.8c11,0,20,8.9,20,20
		v23.3C91.2,68.2,80.6,78.8,67.4,78.8z"/>
	<path id="XMLID_78_" class="st6" d="M71.7,10.2H56c-10.8,0-19.5,8.7-19.5,19.5v0.1l0,25.2c3.1,0,5.6-2.5,5.6-5.6V35.5
		c0-2,2.1-3.4,4-2.6l11.4,4.9c4.1,1.8,8.7,1.8,12.8,0l11.4-4.9c1.9-0.8,4,0.6,4,2.6v13.9c0,3.1,2.5,5.6,5.6,5.6V29.8v-0.1
		C91.2,18.9,82.5,10.2,71.7,10.2z"/>
	<circle id="XMLID_61_" class="st0" cx="53.4" cy="51.8" r="2.5"/>
	<circle id="XMLID_62_" class="st0" cx="73.4" cy="51.8" r="2.5"/>

		<ellipse id="XMLID_369_" transform="matrix(0.9498 0.3127 -0.3127 0.9498 21.879 -21.6792)" class="st7" cx="78.5" cy="57.4" rx="3.4" ry="1.4"/>

		<ellipse id="XMLID_368_" transform="matrix(-0.9498 0.3127 -0.3127 -0.9498 114.6599 96.338)" class="st7" cx="49.6" cy="57.4" rx="3.4" ry="1.4"/>
	<path id="XMLID_438_" class="st6" d="M71.7,10.2H56c-10.8,0-19.5,8.7-19.5,19.5v0.1l0,25.2c3.1,0,5.6-2.5,5.6-5.6V35.5
		c0-2,2.1-3.4,4-2.6l11.4,4.9c4.1,1.8,8.7,1.8,12.8,0l11.4-4.9c1.9-0.8,4,0.6,4,2.6v13.9c0,3.1,2.5,5.6,5.6,5.6V29.8v-0.1
		C91.2,18.9,82.5,10.2,71.7,10.2z"/>
	<path id="XMLID_70_" class="st8" d="M43.3,26.8c-0.1,0-0.3,0-0.4-0.1c-0.5-0.2-0.7-0.8-0.5-1.3c1.7-3.9,4.9-7.1,8.8-8.8
		c0.5-0.2,1.1,0,1.3,0.5c0.2,0.5,0,1.1-0.5,1.3c-3.5,1.5-6.3,4.3-7.7,7.7C44.1,26.6,43.7,26.8,43.3,26.8z"/>
	<path id="XMLID_77_" class="st9" d="M66.9,67.6h-6.2c-3.3,0-6.2-2.2-7.1-5.3c-0.3-1,0.4-2.1,1.5-2.1h17.2c1,0,1.8,1,1.6,2
		C73.2,65.3,70.3,67.6,66.9,67.6z"/>
	<path id="XMLID_67_" class="st10" d="M68.4,64.2h-9.1c-0.3,0-0.5-0.2-0.5-0.5c0-0.3,0.2-0.5,0.5-0.5h9.1c0.3,0,0.5,0.2,0.5,0.5
		C68.9,64,68.7,64.2,68.4,64.2z"/>
</g>
</svg>



