<svg id="Layer_1" data-name="Layer 1" xmlns="http://www.w3.org/2000/svg" xmlns:xlink="http://www.w3.org/1999/xlink" viewBox="0 0 470 470"><defs><style>.cls-1{fill:#5b5b5b;}.cls-2{fill:#3d3d3d;}.cls-3{fill:#474747;}.cls-4{fill:#515151;}.cls-5{fill:#feccae;}.cls-6{fill:#febd86;}.cls-7{fill:#735448;}.cls-8{fill:#f9bfa2;}.cls-9{fill:#473d3a;}.cls-10,.cls-12{fill:#ededed;}.cls-10,.cls-14{opacity:0.1;}.cls-11,.cls-14,.cls-27{fill:#fff;}.cls-13{opacity:0.08;}.cls-15{fill:#58b1cc;}.cls-16{fill:#e5e5e5;}.cls-17{fill:#e6e8e8;}.cls-18{fill:#f2f2f2;}.cls-19,.cls-30{fill:none;}.cls-19{stroke:#e2e2e2;stroke-width:3px;}.cls-19,.cls-29{stroke-miterlimit:10;}.cls-20{fill:#b47860;}.cls-21{fill:#aa6f5b;}.cls-22{fill:#b77d67;}.cls-23{fill:#96d7ea;}.cls-24{fill:#b2e2ed;}.cls-25{fill:url(#linear-gradient);}.cls-26{fill:#ddd;}.cls-27{opacity:0.2;}.cls-28{fill:#cecece;}.cls-29{fill:#7dd4e2;stroke-width:6px;}.cls-29,.cls-30{stroke:#4b9caf;}.cls-30{stroke-linecap:round;stroke-linejoin:round;stroke-width:5px;}.cls-31{fill:url(#linear-gradient-2);}.cls-32{fill:#a06657;}.cls-33{fill:#e3e3e3;}.cls-34{opacity:0.3;}</style><linearGradient id="linear-gradient" x1="204.83" y1="51.37" x2="183.24" y2="72.97" gradientUnits="userSpaceOnUse"><stop offset="0" stop-color="#fff" stop-opacity="0"/><stop offset="0.17" stop-color="#fefefe" stop-opacity="0.01"/><stop offset="0.3" stop-color="#fdfdfd" stop-opacity="0.06"/><stop offset="0.43" stop-color="#fafafa" stop-opacity="0.14"/><stop offset="0.55" stop-color="#f7f7f7" stop-opacity="0.25"/><stop offset="0.67" stop-color="#f2f2f2" stop-opacity="0.39"/><stop offset="0.78" stop-color="#ececec" stop-opacity="0.56"/><stop offset="0.89" stop-color="#e5e5e5" stop-opacity="0.77"/><stop offset="1" stop-color="#ddd"/></linearGradient><linearGradient id="linear-gradient-2" x1="132.08" y1="252" x2="163.1" y2="252" gradientUnits="userSpaceOnUse"><stop offset="0.01" stop-color="#aa6f5b"/><stop offset="1" stop-color="#b57961"/></linearGradient></defs><title>slider</title><g id="_Group_" data-name="&lt;Group&gt;"><rect id="_Rectangle_" data-name="&lt;Rectangle&gt;" class="cls-1" x="209.85" y="298.41" width="21.27" height="54.26"/><rect id="_Rectangle_2" data-name="&lt;Rectangle&gt;" class="cls-2" x="209.85" y="288.24" width="50.3" height="10.17"/><rect id="_Rectangle_3" data-name="&lt;Rectangle&gt;" class="cls-1" x="238.88" y="298.41" width="21.27" height="54.26"/><rect id="_Rectangle_4" data-name="&lt;Rectangle&gt;" class="cls-1" x="209.85" y="298.41" width="50.3" height="17.12"/><path id="_Rectangle_5" data-name="&lt;Rectangle&gt;" class="cls-3" d="M247.39,344h18.29a5.6,5.6,0,0,1,5.6,5.6V361a0,0,0,0,1,0,0H247.39a8.51,8.51,0,0,1-8.51-8.51v0A8.51,8.51,0,0,1,247.39,344Z" transform="translate(510.16 704.93) rotate(180)"/><path id="_Rectangle_6" data-name="&lt;Rectangle&gt;" class="cls-2" d="M247.39,344h3a4.13,4.13,0,0,1,4.13,4.13V361a0,0,0,0,1,0,0h-7.08a8.51,8.51,0,0,1-8.51-8.51v0A8.51,8.51,0,0,1,247.39,344Z" transform="translate(493.35 704.93) rotate(180)"/><path id="_Rectangle_7" data-name="&lt;Rectangle&gt;" class="cls-3" d="M207.23,344h23.89a0,0,0,0,1,0,0v11.42a5.6,5.6,0,0,1-5.6,5.6H207.23a8.51,8.51,0,0,1-8.51-8.51v0a8.51,8.51,0,0,1,8.51-8.51Z"/><path id="_Rectangle_8" data-name="&lt;Rectangle&gt;" class="cls-2" d="M224,344h7.08a0,0,0,0,1,0,0v12.89A4.13,4.13,0,0,1,227,361h-3a8.51,8.51,0,0,1-8.51-8.51v0A8.51,8.51,0,0,1,224,344Z"/><rect id="_Rectangle_9" data-name="&lt;Rectangle&gt;" class="cls-3" x="209.85" y="227.49" width="50.3" height="60.75"/><rect id="_Rectangle_10" data-name="&lt;Rectangle&gt;" class="cls-4" x="252.03" y="227.5" width="18.95" height="13.83"/><g id="_Group_2" data-name="&lt;Group&gt;"><rect id="_Rectangle_11" data-name="&lt;Rectangle&gt;" class="cls-5" x="267.05" y="271.71" width="19.36" height="43.53" rx="9.68" ry="9.68" transform="translate(-29.2 30.58) rotate(-6.01)"/><rect id="_Rectangle_12" data-name="&lt;Rectangle&gt;" class="cls-5" x="263.48" y="229.39" width="19.36" height="60.5" rx="9.28" ry="9.28" transform="translate(-25.68 30.03) rotate(-6.01)"/><path id="_Path_" data-name="&lt;Path&gt;" class="cls-4" d="M269.79,227.56l-9.63,1,3.15,29.91,19.26-2-2.14-20.28A9.68,9.68,0,0,0,269.79,227.56Z"/></g><rect id="_Rectangle_13" data-name="&lt;Rectangle&gt;" class="cls-4" x="198.96" y="227.5" width="18.95" height="13.83" transform="translate(416.87 468.83) rotate(-180)"/><g id="_Group_3" data-name="&lt;Group&gt;"><rect id="_Rectangle_14" data-name="&lt;Rectangle&gt;" class="cls-5" x="183.53" y="271.71" width="19.36" height="43.53" rx="9.68" ry="9.68" transform="translate(354.64 605.57) rotate(-173.99)"/><rect id="_Rectangle_15" data-name="&lt;Rectangle&gt;" class="cls-5" x="187.09" y="229.39" width="19.36" height="60.5" rx="9.28" ry="9.28" transform="translate(365.28 538.47) rotate(-173.99)"/><path id="_Path_2" data-name="&lt;Path&gt;" class="cls-4" d="M200.15,227.56l9.63,1-3.15,29.91-19.26-2,2.14-20.28A9.68,9.68,0,0,1,200.15,227.56Z"/></g><path id="_Rectangle_16" data-name="&lt;Rectangle&gt;" class="cls-3" d="M206.42,227.5h57.15a0,0,0,0,1,0,0v29.22a7.12,7.12,0,0,1-7.12,7.12H213.54a7.12,7.12,0,0,1-7.12-7.12V227.5A0,0,0,0,1,206.42,227.5Z"/><path id="_Path_3" data-name="&lt;Path&gt;" class="cls-4" d="M218.24,227.5a10.88,10.88,0,0,0-.12,1.55c0,7.44,7.56,13.48,16.88,13.48s16.88-6,16.88-13.48a10.9,10.9,0,0,0-.12-1.55H218.24Z"/><path id="_Rectangle_17" data-name="&lt;Rectangle&gt;" class="cls-6" d="M223.4,221.64H246.6a0.46,0.46,0,0,1,.46.46v4.07A10.83,10.83,0,0,1,236.23,237h-2.46a10.83,10.83,0,0,1-10.83-10.83V222.1A0.46,0.46,0,0,1,223.4,221.64Z"/><path id="_Rectangle_18" data-name="&lt;Rectangle&gt;" class="cls-5" d="M227.59,157h14.82a20,20,0,0,1,20,20v23.3A23.76,23.76,0,0,1,238.61,224h-7.21a23.76,23.76,0,0,1-23.76-23.76V177A20,20,0,0,1,227.59,157Z"/><path id="_Path_4" data-name="&lt;Path&gt;" class="cls-7" d="M242.87,155.44H227.13a19.5,19.5,0,0,0-19.5,19.5v25.31a5.64,5.64,0,0,0,5.64-5.64V180.71a2.85,2.85,0,0,1,4-2.61L228.61,183a16.1,16.1,0,0,0,12.78,0l11.35-4.91a2.85,2.85,0,0,1,4,2.61V194.6a5.64,5.64,0,0,0,5.64,5.64V174.93A19.5,19.5,0,0,0,242.87,155.44Z"/><circle id="_Path_5" data-name="&lt;Path&gt;" class="cls-1" cx="224.55" cy="197" r="2.48"/><circle id="_Path_6" data-name="&lt;Path&gt;" class="cls-1" cx="244.55" cy="197" r="2.48"/><ellipse id="_Path_7" data-name="&lt;Path&gt;" class="cls-8" cx="249.69" cy="202.58" rx="1.43" ry="3.38" transform="translate(-20.82 376.4) rotate(-71.78)"/><ellipse id="_Path_8" data-name="&lt;Path&gt;" class="cls-8" cx="220.78" cy="202.58" rx="3.38" ry="1.43" transform="translate(-52.28 79.21) rotate(-18.22)"/><path id="_Path_9" data-name="&lt;Path&gt;" class="cls-9" d="M242.87,155.44H227.13a19.5,19.5,0,0,0-19.5,19.5v25.31a5.64,5.64,0,0,0,5.64-5.64V180.71a2.85,2.85,0,0,1,4-2.61L228.61,183a16.1,16.1,0,0,0,12.78,0l11.35-4.91a2.85,2.85,0,0,1,4,2.61V194.6a5.64,5.64,0,0,0,5.64,5.64V174.93A19.5,19.5,0,0,0,242.87,155.44Z"/><path id="_Path_10" data-name="&lt;Path&gt;" class="cls-10" d="M214.51,172a1,1,0,0,1-.92-1.39,16.72,16.72,0,0,1,8.8-8.81,1,1,0,1,1,.78,1.84,14.7,14.7,0,0,0-7.74,7.74A1,1,0,0,1,214.51,172Z"/><path id="_Path_11" data-name="&lt;Path&gt;" class="cls-11" d="M238.08,212.79h-6.16a7.37,7.37,0,0,1-7.07-5.27,1.62,1.62,0,0,1,1.53-2.1h17.25a1.59,1.59,0,0,1,1.56,2A7.37,7.37,0,0,1,238.08,212.79Z"/><path id="_Path_12" data-name="&lt;Path&gt;" class="cls-12" d="M239.53,209.47H230.4a0.54,0.54,0,1,1,0-1.08h9.13A0.54,0.54,0,1,1,239.53,209.47Z"/></g><rect id="_Rectangle_19" data-name="&lt;Rectangle&gt;" class="cls-13" x="46.04" y="375.33" width="377.91" height="16.77" rx="8.39" ry="8.39"/><polygon id="_Path_13" data-name="&lt;Path&gt;" class="cls-14" points="274.98 274.83 112.98 274.83 151.03 120.36 237.03 120.36 274.98 274.83"/><rect id="_Rectangle_20" data-name="&lt;Rectangle&gt;" class="cls-15" x="374.54" y="350.17" width="26" height="21" rx="3.58" ry="3.58"/><circle id="_Path_14" data-name="&lt;Path&gt;" class="cls-16" cx="387.54" cy="360.67" r="5.67"/><circle id="_Path_15" data-name="&lt;Path&gt;" class="cls-17" cx="82.33" cy="276.83" r="9.27"/><circle id="_Path_16" data-name="&lt;Path&gt;" class="cls-11" cx="92.65" cy="295.11" r="16.99"/><circle id="_Path_17" data-name="&lt;Path&gt;" class="cls-18" cx="74.5" cy="303.15" r="9.83"/><line id="_Path_18" data-name="&lt;Path&gt;" class="cls-19" x1="298" y1="360.67" x2="384" y2="360.67"/><rect id="_Rectangle_21" data-name="&lt;Rectangle&gt;" class="cls-20" x="106" y="274.83" width="258" height="108.17"/><rect id="_Rectangle_22" data-name="&lt;Rectangle&gt;" class="cls-21" x="106" y="274.83" width="258" height="20.28"/><rect id="_Rectangle_23" data-name="&lt;Rectangle&gt;" class="cls-22" x="98.25" y="274.83" width="273.5" height="11.41" rx="5.71" ry="5.71"/><path id="_Path_19" data-name="&lt;Path&gt;" class="cls-23" d="M276.21,155.82l0.09-.09-0.74-.74a17,17,0,0,0-2-2l-10.91-10.91L251.74,153a17,17,0,0,0-2,2l-0.74.74,0.09,0.09A16.91,16.91,0,1,0,276.21,155.82Z"/><circle id="_Path_20" data-name="&lt;Path&gt;" class="cls-24" cx="262.66" cy="166.42" r="10.13"/><circle id="_Path_21" data-name="&lt;Path&gt;" class="cls-11" cx="272.19" cy="163.72" r="3.77"/><rect id="_Rectangle_24" data-name="&lt;Rectangle&gt;" class="cls-25" x="191.27" y="43.33" width="5.53" height="37.67"/><circle id="_Path_22" data-name="&lt;Path&gt;" class="cls-11" cx="193.98" cy="117.11" r="12.23"/><path id="_Path_23" data-name="&lt;Path&gt;" class="cls-26" d="M237,120.36H151l6-22.77A20.73,20.73,0,0,1,177,82.11h34A20.73,20.73,0,0,1,231.08,97.6Z"/><rect id="_Rectangle_25" data-name="&lt;Rectangle&gt;" class="cls-27" x="161.46" y="106.57" width="30.77" height="6.17" rx="3.08" ry="3.08"/><rect id="_Rectangle_26" data-name="&lt;Rectangle&gt;" class="cls-27" x="197.25" y="106.57" width="6.55" height="6.17" rx="3.08" ry="3.08"/><path id="_Rectangle_27" data-name="&lt;Rectangle&gt;" class="cls-11" d="M311.17,238.69h32.5a0,0,0,0,1,0,0V254.4A15.59,15.59,0,0,1,328.08,270h-1.32a15.59,15.59,0,0,1-15.59-15.59V238.69A0,0,0,0,1,311.17,238.69Z"/><path id="_Rectangle_28" data-name="&lt;Rectangle&gt;" class="cls-16" d="M306.33,267.93H348.5a0,0,0,0,1,0,0v0a6.9,6.9,0,0,1-6.9,6.9H313.23a6.9,6.9,0,0,1-6.9-6.9v0a0,0,0,0,1,0,0Z"/><path id="_Rectangle_29" data-name="&lt;Rectangle&gt;" class="cls-16" d="M343.67,243.87h8.56a0,0,0,0,1,0,0v3.25a8.14,8.14,0,0,1-8.14,8.14h-0.42a0,0,0,0,1,0,0V243.87A0,0,0,0,1,343.67,243.87Z"/><rect id="_Rectangle_30" data-name="&lt;Rectangle&gt;" class="cls-28" x="182.65" y="76.33" width="22.77" height="5.78"/><g id="_Group_4" data-name="&lt;Group&gt;"><circle id="_Path_24" data-name="&lt;Path&gt;" class="cls-29" cx="341.24" cy="155.03" r="26.42"/><polyline id="_Path_25" data-name="&lt;Path&gt;" class="cls-30" points="341.24 146.5 341.24 155.61 348.55 163.56"/></g><path id="_Rectangle_31" data-name="&lt;Rectangle&gt;" class="cls-31" d="M137.43,229.16h20.31a5.35,5.35,0,0,1,5.35,5.35v40.32a0,0,0,0,1,0,0h-31a0,0,0,0,1,0,0V234.52A5.35,5.35,0,0,1,137.43,229.16Z"/><polygon id="_Path_26" data-name="&lt;Path&gt;" class="cls-32" points="127.17 274.83 147.59 274.83 147.59 251.96 141.24 251.96 127.17 274.83"/><rect id="_Rectangle_32" data-name="&lt;Rectangle&gt;" class="cls-4" x="62.67" y="304.97" width="43.33" height="78.03"/><path id="_Rectangle_33" data-name="&lt;Rectangle&gt;" class="cls-3" d="M63,305h43a0,0,0,0,1,0,0v14a0,0,0,0,1,0,0H63a4.34,4.34,0,0,1-4.34-4.34v-5.31A4.34,4.34,0,0,1,63,305Z"/><rect id="_Rectangle_34" data-name="&lt;Rectangle&gt;" class="cls-33" x="174.67" y="193" width="120.67" height="81.83" rx="8.8" ry="8.8"/><path id="_Path_27" data-name="&lt;Path&gt;" class="cls-11" d="M244.63,235.28a7.74,7.74,0,0,1-3.79-11.95A12.13,12.13,0,1,0,247,235.68,7.73,7.73,0,0,1,244.63,235.28Z"/><g id="_Group_5" data-name="&lt;Group&gt;" class="cls-34"><rect id="_Rectangle_35" data-name="&lt;Rectangle&gt;" class="cls-11" x="170.68" y="248.57" width="30.77" height="6.17" rx="3.08" ry="3.08" transform="translate(-65.6 437.72) rotate(-90)"/><rect id="_Rectangle_36" data-name="&lt;Rectangle&gt;" class="cls-11" x="182.79" y="224.9" width="6.55" height="6.17" rx="3.08" ry="3.08" transform="translate(-41.92 414.04) rotate(-90)"/></g><rect id="_Rectangle_37" data-name="&lt;Rectangle&gt;" class="cls-3" x="70.75" y="326" width="9.83" height="48.33" rx="4.92" ry="4.92"/><rect id="_Rectangle_38" data-name="&lt;Rectangle&gt;" class="cls-3" x="88.5" y="326" width="9.83" height="48.33" rx="4.92" ry="4.92"/></svg>