<svg id="f575bc93-1e74-4943-8474-89b0d3675852" data-name="Layer 1" xmlns="http://www.w3.org/2000/svg" xmlns:xlink="http://www.w3.org/1999/xlink" viewBox="0 0 528.148 420">
  <defs>
    <linearGradient id="dc2910ad-cda9-4fcf-882d-8125c0b05f93" x1="263.96518" y1="177.59666" x2="263.96518" y2="155.98801" gradientUnits="userSpaceOnUse">
      <stop offset="0" stop-color="#e55757" stop-opacity="0"/>
      <stop offset="1" stop-color="#e55757"/>
    </linearGradient>
    <linearGradient id="4474210c-b34f-4976-b49b-31929497b04d" x1="286.95121" y1="187.41816" x2="286.95121" y2="174.57982" gradientUnits="userSpaceOnUse">
      <stop offset="0" stop-color="#3a3a3a" stop-opacity="0"/>
      <stop offset="0.24709" stop-color="#3a3a3a" stop-opacity="0.14343"/>
      <stop offset="0.63647" stop-color="#3a3a3a" stop-opacity="0.53387"/>
      <stop offset="1" stop-color="#3a3a3a"/>
    </linearGradient>
    <linearGradient id="c8c63914-7bd9-471b-8393-56521e66cbfa" x1="240.31648" y1="187.41816" x2="240.31648" y2="174.57982" xlink:href="#4474210c-b34f-4976-b49b-31929497b04d"/>
    <clipPath id="db2a14b7-4f40-47c5-abfc-bcf5fbedd57a">
      <rect id="31f20d4a-6c20-4a57-972b-a4a221ed497b" data-name="&lt;Rectangle&gt;" x="139.074" y="268.90473" width="258" height="128.16927" fill="none"/>
    </clipPath>
    <linearGradient id="6ba5589a-6c3a-42c3-91cc-2316004c903c" x1="240.04117" y1="36.74111" x2="206.17746" y2="70.60481" gradientUnits="userSpaceOnUse">
      <stop offset="0" stop-color="#fff" stop-opacity="0"/>
      <stop offset="0.16705" stop-color="#fefefe" stop-opacity="0.01482"/>
      <stop offset="0.30493" stop-color="#fdfdfd" stop-opacity="0.0611"/>
      <stop offset="0.4325" stop-color="#fafafa" stop-opacity="0.13908"/>
      <stop offset="0.55385" stop-color="#f7f7f7" stop-opacity="0.24892"/>
      <stop offset="0.67084" stop-color="#f2f2f2" stop-opacity="0.39079"/>
      <stop offset="0.78451" stop-color="#ececec" stop-opacity="0.56484"/>
      <stop offset="0.89334" stop-color="#e5e5e5" stop-opacity="0.76686"/>
      <stop offset="1" stop-color="#ddd"/>
    </linearGradient>
    <linearGradient id="e5fb6cb3-551d-4e12-bd43-7827cc53430b" x1="161.15735" y1="246.07163" x2="192.17297" y2="246.07163" gradientUnits="userSpaceOnUse">
      <stop offset="0.0051" stop-color="#aa6f5b"/>
      <stop offset="1" stop-color="#b57961"/>
    </linearGradient>
  </defs>
  <rect id="fc038f41-0911-42c7-a6a1-c02e3869fc56" data-name="&lt;Rectangle&gt;" x="145.17803" y="152.22267" width="29.85598" height="7.92031" rx="3.96015" ry="3.96015" opacity="0.05"/>
  <rect id="8245d3d4-bba2-4229-b8d5-acdab497d08a" data-name="&lt;Rectangle&gt;" x="180.29631" y="152.22267" width="29.85598" height="7.92031" rx="3.96015" ry="3.96015" opacity="0.05"/>
  <rect id="0e56cbed-d597-4a8e-aed6-f6447e1ff9f7" data-name="&lt;Rectangle&gt;" x="161.8452" y="164.16263" width="29.85598" height="7.92031" rx="3.96015" ry="3.96015" opacity="0.05"/>
  <g>
    <path d="M289.82,281.50983H238.21652a5.25941,5.25941,0,0,1-5.46344-4.75027l-2.10535-23.75614H297.3888l-2.10535,23.75614A5.25941,5.25941,0,0,1,289.82,281.50983Z" fill="#3a3a3a"/>
    <polygon points="290.9 305.003 237.137 305.003 234.869 254.457 293.168 254.457 290.9 305.003" fill="#3a3a3a"/>
    <path d="M274.3866,214.37842l-10.36835,1.01025-10.36835-1.01025-17.90121,3.81849a11.432,11.432,0,0,0-8.99943,11.21179v27.87638a8.47311,8.47311,0,0,0,8.71082,8.21334h23.9834a4.67383,4.67383,0,0,0,3.56975-1.61563,1.33787,1.33787,0,0,1,2.01005,0,4.67386,4.67386,0,0,0,3.56974,1.61563h23.9834a8.47311,8.47311,0,0,0,8.71082-8.21334V229.4087a11.432,11.432,0,0,0-8.99943-11.21179Z" fill="#3a3a3a"/>
    <path d="M253.35385,208.9021h21.32882a0,0,0,0,1,0,0v8.13433a8.467,8.467,0,0,1-8.467,8.467h-4.39483a8.467,8.467,0,0,1-8.467-8.467V208.9021A0,0,0,0,1,253.35385,208.9021Z" fill="#f9bfa2"/>
    <polygon points="222.706 280.205 201.811 277.388 205.216 255.593 226.111 258.409 222.706 280.205" fill="#feccae"/>
    <polygon points="305.465 280.205 326.36 277.388 322.955 255.593 302.06 258.409 305.465 280.205" fill="#feccae"/>
    <polygon points="219.833 323.883 205 323.883 201.811 277.388 222.706 280.205 219.833 323.883" fill="#feccae"/>
    <path d="M220.97342,342.20473l-14.49632-2.05365a3.99605,3.99605,0,0,1-3.417-4.34128l1.55312-16.05658,15.63623-2.14815,3.74365,3.19667a5.6039,5.6039,0,0,1,1.89808,3.39872l1.55978,10.00862a3.996,3.996,0,0,1-.48419,2.60725l-1.96867,3.42377A3.99605,3.99605,0,0,1,220.97342,342.20473Z" fill="#feccae"/>
    <polygon points="308.338 323.883 323.172 323.883 326.36 277.388 305.465 280.205 308.338 323.883" fill="#feccae"/>
    <path d="M307.19774,342.20473l14.49632-2.05365a3.99605,3.99605,0,0,0,3.417-4.34128l-1.55312-16.05658-15.63623-2.14815-3.74365,3.19667a5.6039,5.6039,0,0,0-1.89808,3.39872l-1.55979,10.00862a3.996,3.996,0,0,0,.48419,2.60725l1.96867,3.42377A3.99605,3.99605,0,0,0,307.19774,342.20473Z" fill="#feccae"/>
    <path d="M245.36753,364.023h-2.70483c-5.62095,0-10.17763-4.92871-10.17763-11.00858V323.10109a24.80037,24.80037,0,0,1,2.76132-11.41374l.615-1.18392h25.38828v36.34073C261.24964,356.33174,254.139,364.023,245.36753,364.023Z" fill="#424242"/>
    <path d="M282.28468,364.02293h2.73088c5.67509,0,10.27566-4.92871,10.27566-11.00858V323.10107a24.60933,24.60933,0,0,0-2.78792-11.41374l-.62088-1.18392H266.2496v36.34073C266.2496,356.33172,273.42875,364.02293,282.28468,364.02293Z" fill="#424242"/>
    <rect x="234.96873" y="303.03467" width="58.19919" height="7.46875" rx="1.25049" ry="1.25049" fill="#424242"/>
    <polygon points="301.014 258.55 322.955 255.593 318.915 229.772 296.974 232.73 301.014 258.55" fill="#3a3a3a"/>
    <polygon points="228.712 258.76 205.216 255.593 209.295 229.777 232.791 232.944 228.712 258.76" fill="#3a3a3a"/>
    <path d="M207.479,242.7601l24.038,3.24008,3.24008-24.038L222.264,220.14343a18.20288,18.20288,0,0,0-8.04928,1.11291,12.78579,12.78579,0,0,0-6.87763,11.71907Z" fill="#3a3a3a"/>
    <path d="M320.69215,242.7601l-24.038,3.24008-3.24008-24.038,12.49315-1.81874a18.20288,18.20288,0,0,1,8.04928,1.11291,12.78579,12.78579,0,0,1,6.87763,11.71907Z" fill="#3a3a3a"/>
    <rect x="256.60502" y="310.5034" width="14.2263" height="22.94436" fill="#424242"/>
    <g>
      <path id="22cb01b5-3933-47db-9a07-a26a2b03a177" data-name="&lt;Path&gt;" d="M263.67642,215.11916h-.09059c-8.20767,0-13.51142-4.87019-18.18586-10.88519-3.36187-4.326-7.36374-8.76143-7.36374-14.66441V170.28021a25.5496,25.5496,0,0,1,25.5496-25.5496h.09059a25.5496,25.5496,0,0,1,25.5496,25.5496v19.28935c0,5.903-4.00186,10.3384-7.36374,14.66441C277.18784,210.249,271.88409,215.11916,263.67642,215.11916Z" fill="#feccae"/>
      <rect x="239.97914" y="155.98801" width="47.97207" height="21.60865" fill="url(#dc2910ad-cda9-4fcf-882d-8125c0b05f93)"/>
      <ellipse id="64319fec-9dff-4c3e-ac06-61e40534e864" data-name="&lt;Path&gt;" cx="276.04949" cy="188.74416" rx="1.51586" ry="3.5901" transform="translate(60.40434 444.33142) rotate(-84.20657)" fill="#f9bfa2"/>
      <path d="M263.63113,194.785h0a2.91464,2.91464,0,0,1-2.90972-2.74536l-.66086-11.35911a2.91464,2.91464,0,0,1,2.90972-3.08392H264.292a2.91464,2.91464,0,0,1,2.90972,3.08392l-.66086,11.35911A2.91464,2.91464,0,0,1,263.63113,194.785Z" fill="#f9bfa2"/>
      <rect x="258.3336" y="190.54677" width="7.45239" height="4.23828" rx="2.11914" ry="2.11914" fill="#f9bfa2"/>
      <path d="M291.51576,178.80817h-2.28429v10.02272h1.3027c1.96,0,3.64726-1.78327,4.03081-4.26006l.121-.78169C295.08512,181.21189,293.55521,178.80817,291.51576,178.80817Z" fill="#f9bfa2"/>
      <path d="M235.75194,178.80817h2.28429v10.02272h-1.3027c-1.96,0-3.64726-1.78327-4.03081-4.26006l-.121-.78169C232.18258,181.21189,233.71249,178.80817,235.75194,178.80817Z" fill="#f9bfa2"/>
      <ellipse id="3c42a1be-f1d1-4bc1-a641-b83bcaadf731" data-name="&lt;Path&gt;" cx="251.12136" cy="188.74416" rx="3.5901" ry="1.51586" transform="translate(-17.76959 26.31279) rotate(-5.79343)" fill="#f9bfa2"/>
      <rect x="260.89715" y="206.25801" width="5.46794" height="2" rx="0.79577" ry="0.79577" fill="#f9bfa2"/>
      <g>
        <path id="1d9937b1-c9da-45cc-8f7a-0f1d1708a3f8" data-name="&lt;Path&gt;" d="M270.9948,134.94487H256.27294c-10.07186,0-18.23672,10.57319-18.23672,21.14875v18.48619h4.56052l.716-12.80893a2.67658,2.67658,0,0,1,3.72019-2.56669l10.62173,4.82263a14.40787,14.40787,0,0,0,11.95841,0l10.62169-4.82262a2.67658,2.67658,0,0,1,3.72019,2.56669l.716,12.80892h4.56052V154.09358C289.23147,143.518,281.06663,134.94487,270.9948,134.94487Z" fill="#3a3a3a"/>
        <path d="M265.016,165.34388H263.092a15.06133,15.06133,0,0,1-13.32465-8.04012l-.7836-1.48709a1.25389,1.25389,0,0,1,1.28493-1.82606l5.72559.80991a3.146,3.146,0,0,0,2.60543-.83226l3.5526-3.36912a2.76358,2.76358,0,0,1,3.80336,0l3.5526,3.36912a3.146,3.146,0,0,0,2.60543.83226l5.72559-.80991a1.25389,1.25389,0,0,1,1.28493,1.82606l-.7836,1.48709A15.06133,15.06133,0,0,1,265.016,165.34388Z" fill="#333"/>
        <polygon points="289.231 187.418 285.415 187.418 284.671 174.58 289.231 174.58 289.231 187.418" fill="url(#4474210c-b34f-4976-b49b-31929497b04d)"/>
        <polygon points="238.036 187.418 241.853 187.418 242.597 174.58 238.036 174.58 238.036 187.418" fill="url(#c8c63914-7bd9-471b-8393-56521e66cbfa)"/>
      </g>
      <ellipse id="dcb53e3c-db5d-433f-a9c9-54e179470754" data-name="&lt;Path&gt;" cx="274.29826" cy="181.34071" rx="2.89662" ry="2.55218" fill="#5b5b5b"/>
      <ellipse id="732faf1d-59f9-4dd0-bf1d-c78a279e8b82" data-name="&lt;Path&gt;" cx="252.96943" cy="181.34071" rx="2.89662" ry="2.55218" fill="#5b5b5b"/>
      <rect x="269.17803" y="177.80955" width="10.24045" height="2.1875" rx="1.01041" ry="1.01041" transform="translate(-23.83669 43.39876) rotate(-8.67112)" fill="#5b5b5b"/>
      <rect x="247.84921" y="177.80955" width="10.24045" height="2.1875" rx="1.01041" ry="1.01041" transform="translate(476.07551 393.90005) rotate(-171.32888)" fill="#5b5b5b"/>
      <path id="8b06bea0-26d4-4b0d-9ebf-d936d1246ba9" data-name="&lt;Path&gt;" d="M267.92706,202.02481a5.29622,5.29622,0,0,0-8.66731.147" fill="none" stroke="#eaa688" stroke-linecap="round" stroke-miterlimit="10" stroke-width="1.6"/>
    </g>
  </g>
  <rect id="871254d9-ae51-4f2b-ab10-41564d0a3526" data-name="&lt;Rectangle&gt;" x="82.51095" y="388.68663" width="344.82422" height="16.77474" rx="8.17326" ry="8.17326" opacity="0.08"/>
  <polygon id="9bfbdcea-c68a-4350-b24d-6021792d2728" data-name="&lt;Path&gt;" points="304.05 271.905 142.05 271.905 180.109 117.437 266.109 117.437 304.05 271.905" fill="#fff" opacity="0.1"/>
  <circle id="2c278f3b-53dd-4f59-8262-914de1bdda78" data-name="&lt;Path&gt;" cx="115.40513" cy="290.90252" r="9.26879" fill="#e6e8e8"/>
  <circle id="913df6f8-5e5e-459b-b9d3-a6bc2b226b4b" data-name="&lt;Path&gt;" cx="125.7268" cy="309.1863" r="16.98613" fill="#fff"/>
  <circle id="5a29b07c-7462-4142-8147-5981621ce855" data-name="&lt;Path&gt;" cx="107.574" cy="317.22486" r="9.83333" fill="#f2f2f2"/>
  <rect id="8bc57391-ef86-4833-850d-512ea13c27c6" data-name="&lt;Rectangle&gt;" x="405.2693" y="338.24347" width="21" height="21" rx="3.21522" ry="3.21522" opacity="0.08"/>
  <circle id="eb7149f7-9387-49f0-8e2e-9733d8cfb69f" data-name="&lt;Path&gt;" cx="415.90135" cy="348.74346" r="5.66946" fill="#e5e5e5"/>
  <line id="efaab59a-c525-4699-b662-c4887c52e36b" data-name="&lt;Path&gt;" x1="326.35969" y1="348.74347" x2="412.35969" y2="348.74347" fill="none" stroke="#e2e2e2" stroke-miterlimit="10" stroke-width="4"/>
  <rect id="6b1634ca-7e9f-490d-8796-a8bed8ed1504" data-name="&lt;Rectangle&gt;" x="139.074" y="268.90473" width="258" height="128.16927" fill="#b47860"/>
  <g opacity="0.5">
    <g clip-path="url(#db2a14b7-4f40-47c5-abfc-bcf5fbedd57a)">
      <g>
        <g>
          <path d="M321.389,589.8741c2.36693-18.05432,6.15787-23.20845-5.08507-74.59383S302.99,418.898,312.16183,373.62333s5.62145-69.77358,5.62145-92.9682" fill="none" stroke="#aa6f5b" stroke-linecap="round" stroke-linejoin="round" stroke-width="1.75"/>
          <path d="M323.777,348.9028c3.0351-40.83053,0-51.27075,0-68.24768" fill="none" stroke="#aa6f5b" stroke-linecap="round" stroke-linejoin="round" stroke-width="1.75"/>
          <path d="M321.92543,359.45763s-7.69255,41.1083-8.28427,64.99555,1.47932,53.60743,8.28427,90.27157,10.05948,32.22,4.438,76.38365-4.91915,54.99623-4.97445,69.4397-3.014,16.11-2.12635,31.94226,4.5908,13.61017,4.51438,31.109,0,41.05579,0,41.05579" fill="none" stroke="#aa6f5b" stroke-linecap="round" stroke-linejoin="round" stroke-width="1.75"/>
          <path d="M330.50556,280.65513c1.59112,26.0116,2.98408,55.08758-5.3796,101.3321s-5.86333,82.18545,1.23747,123.016,12.4264,39.99725,5.91733,93.88245-4.74192,54.71847-4.73787,64.99555,7.86215,17.0359,7.6807,26.66483-5.88288,15.5545-5.9908,26.10932.48383,32.0749,1.27278,47.99977" fill="none" stroke="#aa6f5b" stroke-linecap="round" stroke-linejoin="round" stroke-width="1.75"/>
          <path d="M335.22668,280.65513s2.946,43.2494,0,80.469-9.75085,36.94193-8.86325,75.13375,5.00428,57.07943,8.86325,79.02235,9.77635,27.49813,6.226,58.6071-9.59028,43.209-8.28427,82.7721c0,0-.19723,12.12875,3.649,21.29477s4.24072,16.29528.29585,27.96116-3.5504,26.2018-3.35315,31.757,1.46657,26.98275,1.46657,26.98275" fill="none" stroke="#aa6f5b" stroke-linecap="round" stroke-linejoin="round" stroke-width="1.75"/>
          <path d="M341.354,280.65513c1.19025,12.40143,2.46558,65.4701-2.86005,99.63443s-7.678,44.1095-5.46035,70.13325c3.25455,38.19162,8.7149,64.0242,11.08182,72.91248s7.1008,29.99795,3.25455,50.82985-7.99178,45.55242-7.39837,68.88418,1.0015,25.46115,2.57265,32.86815,5.31883,10.55483,2.55742,26.29446.59172,48.37,1.97243,62.44322" fill="none" stroke="#aa6f5b" stroke-linecap="round" stroke-linejoin="round" stroke-width="1.75"/>
          <path d="M347.07411,280.65513c.69462,12.40922,3.2545,49.313.4438,75.88605-1.37527,13.0025-8.13635,49.57993-9.02395,63.46785s2.07108,43.33038,4.0503,58.32935,11.33477,53.88518,11.92652,75.2726-5.62147,30.83122-7.5939,52.21865-.3945,37.3123,0,49.1633,4.9311,23.054,4.9311,35.96976-1.18347,11.61962-1.97245,26.98885,2.86005,46.70359,2.86005,46.70359" fill="none" stroke="#aa6f5b" stroke-linecap="round" stroke-linejoin="round" stroke-width="1.75"/>
          <path d="M346.42116,441.39645a148.56071,148.56071,0,0,1,0-50.27433" fill="none" stroke="#aa6f5b" stroke-linecap="round" stroke-linejoin="round" stroke-width="1.75"/>
          <path d="M352.69558,280.65513a462.51714,462.51714,0,0,1,1.81475,70.46975c-2.04,37.5729-9.2443,54.99623,1.86715,93.04918s8.7445,67.2176,7.561,85.54967-8.28428,42.4971-4.14213,88.60505,10.80723,40.82808,7.1008,88.605c-2.241,28.8869,2.07108,57.72132,2.07108,57.72132" fill="none" stroke="#aa6f5b" stroke-linecap="round" stroke-linejoin="round" stroke-width="1.75"/>
          <path d="M362.755,280.65513c1.58687,16.24372,3.84632,44.63738,0,74.91307s-8.45143,60.83.2123,90.55015,11.32648,53.05192,6.00088,99.7154-4.438,59.1626-1.47935,82.77207,8.28428,39.164,5.62148,82.77211c0,0-2.69477,19.6684.72368,53.27719" fill="none" stroke="#aa6f5b" stroke-linecap="round" stroke-linejoin="round" stroke-width="1.75"/>
          <path d="M368.96826,280.65513s3.84625,50.74888-1.47935,84.07993-3.25453,59.44038,1.47935,76.6614,10.05945,27.49812,10.05945,57.49607-7.28915,65.55105-7.34293,96.38228,7.6388,54.56955,8.5264,81.44772-1.7752,48.45073-2.07108,62.80168a214.96638,214.96638,0,0,0,.8876,25.13092" fill="none" stroke="#aa6f5b" stroke-linecap="round" stroke-linejoin="round" stroke-width="1.75"/>
          <path d="M396.188,391.12213c-3.84625-22.2207-11.11547-38.09682-14.7933-59.3023-3.68517-21.24773-1.5837-32.83777-2.367-51.1647" fill="none" stroke="#aa6f5b" stroke-linecap="round" stroke-linejoin="round" stroke-width="1.75"/>
          <path d="M372.36668,369.1792a195.09032,195.09032,0,0,0,3.11062-41.1083c-.4306-11.80555-.7092-36.72667-1.64325-47.41577" fill="none" stroke="#aa6f5b" stroke-linecap="round" stroke-linejoin="round" stroke-width="1.75"/>
          <path d="M379.46636,351.12488c.8876,4.16638,5.3256,18.05433,5.3256,18.05433" fill="none" stroke="#aa6f5b" stroke-linecap="round" stroke-linejoin="round" stroke-width="1.75"/>
          <path d="M378.73186,372.23453c-5.3256.55552-11.243,12.7769-7.9884,42.4971s10.05945,41.38605,13.314,41.6638,10.94707-35.55312,10.35532-50.55207C393.53566,383.61018,384.05746,371.679,378.73186,372.23453Z" fill="none" stroke="#aa6f5b" stroke-linecap="round" stroke-linejoin="round" stroke-width="1.75"/>
          <path d="M382.35213,398.62163c-1.1136,3.3331,1.11358,23.33173,4.18823,23.33173s4.322-40.275-6.14888-39.164,1.00317,56.94052,1.00317,56.94052" fill="none" stroke="#aa6f5b" stroke-linecap="round" stroke-linejoin="round" stroke-width="1.75"/>
          <path d="M399.14666,416.2593s1.47933,35.0439-1.7752,52.45008-1.47933,42.12677-4.73388,62.6809-7.17253,44.71918-5.5094,84.1609,7.33665,56.10728,5.97925,82.21658-.59172,58.55462,0,66.88737" fill="none" stroke="#aa6f5b" stroke-linecap="round" stroke-linejoin="round" stroke-width="1.75"/>
          <path d="M393.10743,578.3315c.17392-13.05465,4.5599-41.386,4.5599-41.386s8.28425-64.71778,6.2132-115.82538-12.5631-60.17057-16.75263-88.3744c-3.65832-24.628-.3952-36.819-1.29525-52.09055" fill="none" stroke="#aa6f5b" stroke-linecap="round" stroke-linejoin="round" stroke-width="1.75"/>
          <path d="M390.08656,304.18365c0,7.70015,1.48472,19.44847,3.74767,30.5989,4.59388,22.63583,10.7961,32.62307,13.90258,70.95187s1.78515,61.77135,0,84.2698-6.4242,62.218-8.09893,76.1059-5.81682,29.99795-2.5623,58.6071,7.17388,31.66448,7.13733,60.27363,1.14695,79.66427,1.14695,79.66427" fill="none" stroke="#aa6f5b" stroke-linecap="round" stroke-linejoin="round" stroke-width="1.75"/>
          <path d="M404.21291,566.1321s10.2202-71.96148,10.2202-111.12548-1.97245-66.66207-11.14432-103.88175a378.29818,378.29818,0,0,1-10.18135-70.46975" fill="none" stroke="#aa6f5b" stroke-linecap="round" stroke-linejoin="round" stroke-width="1.75"/>
          <path d="M399.48211,280.65513a379.51617,379.51617,0,0,0,8.73777,64.35905c7.69255,33.33105,11.04573,71.10625,11.04573,92.77142s-1.263,59.71812.99575,84.43865,10.54305,53.32968,10.83893,85.27193-9.6829,54.91093-12.22917,68.236c-2.67147,13.98056-2.56417,58.73973-1.57795,88.92292" fill="none" stroke="#aa6f5b" stroke-linecap="round" stroke-linejoin="round" stroke-width="1.75"/>
          <path d="M405.35986,280.65513c.3564,12.1535,5.8187,67.69215,13.11678,68.24768s-1.38072-44.2267-1.18347-68.24768" fill="none" stroke="#aa6f5b" stroke-linecap="round" stroke-linejoin="round" stroke-width="1.75"/>
          <path d="M410.99451,285.759s2.551,31.29413,6.1014,49.6262" fill="none" stroke="#aa6f5b" stroke-linecap="round" stroke-linejoin="round" stroke-width="1.75"/>
          <path d="M418.87111,382.76678c.789-21.4574-3.94487-30.53087-3.94487-30.53087" fill="none" stroke="#aa6f5b" stroke-linecap="round" stroke-linejoin="round" stroke-width="1.75"/>
          <path d="M425.54391,280.65513s2.79493,36.21285.62525,62.8777-4.3394,38.3307-2.36692,63.6993,4.73388,26.47965,6.50907,58.14415-.3945,38.1455,2.36692,61.107,6.3118,59.2551,5.72008,76.84655-6.7063,46.29308-9.46775,72.4024.2779,50.92248,1.81552,67.95838,1.34042,20.96455,1.34042,20.96455" fill="none" stroke="#aa6f5b" stroke-linecap="round" stroke-linejoin="round" stroke-width="1.75"/>
          <path d="M432.08651,280.65513s2.8639,41.75583-.97977,75.50183-.30232,52.18622,2.65635,70.796,3.25453,42.12678,2.95865,58.14415,2.6628,48.4535,4.438,68.483,7.543,39.43673-2.6961,99.4684a294.83961,294.83961,0,0,0-3.22123,67.77313c2.6628,36.38639,3.4838,36.33392,3.22123,43.83339" fill="none" stroke="#aa6f5b" stroke-linecap="round" stroke-linejoin="round" stroke-width="1.75"/>
          <path d="M438.46363,280.65513s2.92537,36.03458,0,68.25113-5.33505,30.55-.284,67.35305,3.86765,52.911,4.16352,72.35512,9.46772,74.44035,9.17188,111.66-5.01615,43.33035-8.12955,67.77313-3.70513,34.16433-2.81752,51.66313,4.38178,31.88977,3.81817,44.94442" fill="none" stroke="#aa6f5b" stroke-linecap="round" stroke-linejoin="round" stroke-width="1.75"/>
          <path d="M441.75148,395.844c-2.07108-29.16467,2.36692-21.94293,5.62145-42.49707s2.6628-72.69182,2.6628-72.69182" fill="none" stroke="#aa6f5b" stroke-linecap="round" stroke-linejoin="round" stroke-width="1.75"/>
          <path d="M442.34321,356.68005c4.14213-29.44243,2.043-76.02492,2.043-76.02492" fill="none" stroke="#aa6f5b" stroke-linecap="round" stroke-linejoin="round" stroke-width="1.75"/>
          <path d="M448.81941,370.568c-3.1395.6944-3.8134,4.7219-3.07373,18.33208s3.9942,20.9708,5.7764,20.83192,5.61447-1.52767,5.02272-17.77657S452.76286,369.69578,448.81941,370.568Z" fill="none" stroke="#aa6f5b" stroke-linecap="round" stroke-linejoin="round" stroke-width="1.75"/>
          <path d="M449.59193,391.19158s.59175,16.04055,2.95868,12.29082-1.5115-24.58165-1.5115-24.58165" fill="none" stroke="#aa6f5b" stroke-linecap="round" stroke-linejoin="round" stroke-width="1.75"/>
          <path d="M452.69856,415.34715c-1.65945,8.27275-2.51488,15.07785-6.06527,13.9668s-4.29008-28.05362-4.29008-28.05362" fill="none" stroke="#aa6f5b" stroke-linecap="round" stroke-linejoin="round" stroke-width="1.75"/>
          <path d="M451.03911,504.72545s-5.1455-33.0533-2.2197-55.83155,12.75515-27.49607,13.051-53.04987-7.69252-31.38673-7.1008-56.5239,2.36695-58.665,2.36695-58.665" fill="none" stroke="#aa6f5b" stroke-linecap="round" stroke-linejoin="round" stroke-width="1.75"/>
          <path d="M464.23736,280.65513s-2.2782,36.69277-2.3589,48.6657a167.11725,167.11725,0,0,0,2.9638,33.7931c2.219,12.2214,4.7207,16.89785,4.7207,35.3688s-5.02975,30.83122-10.50327,47.35787-3.5504,38.60845-2.07108,55.55175,4.29008,41.52492,5.91735,68.46752.59172,58.4682-1.18347,75.82813-8.72807,34.44208-11.68322,41.52493-4.73738,13.749-1.77873,27.77587,9.76362,15.5545,13.462,28.8869,2.51487,20.77942,2.51487,20.77942" fill="none" stroke="#aa6f5b" stroke-linecap="round" stroke-linejoin="round" stroke-width="1.75"/>
          <path d="M470.54918,280.65513c0,15.4491-2.94553,26.53675.13645,62.13617,3.77385,43.59158,7.45745,41.38685,4.20292,73.468s-12.11447,32.26632-13.0101,58.00525,5.72072,49.07073,7.1464,76.01333,1.4257,70.82848,3.49675,95.27125,6.70632,39.07136,9.86225,48.14488,7.49528,12.962,4.73388,28.3314-5.52287,24.29765-4.93115,42.62972" fill="none" stroke="#aa6f5b" stroke-linecap="round" stroke-linejoin="round" stroke-width="1.75"/>
          <path d="M481.46591,401.26033c.5362-20.68083-2.67023-46.46383-3.86518-69.30162-1.18037-22.558-.34233-42.24258-.937-51.30358" fill="none" stroke="#aa6f5b" stroke-linecap="round" stroke-linejoin="round" stroke-width="1.75"/>
          <path d="M486.87118,657.07733c-1.2968-20.55415-3.69832-63.19133-4.29-83.74547s-6.70635-51.66313.39445-70.7359,9.07328-33.88657,8.48155-43.7007-7.69255-9.629-10.94707-15.9248,1.0848-27.03523.9558-36.29383" fill="none" stroke="#aa6f5b" stroke-linecap="round" stroke-linejoin="round" stroke-width="1.75"/>
          <path d="M498.20738,641.33865a380.89424,380.89424,0,0,0-3.2393-44.88337c-1.93937-14.58288-4.31795-20.71623-5.09792-40.15933s10.2657-50.73722,12.43537-65.7362,2.5642-37.03447,1.38074-53.51488-2.95866-52.589-3.74766-67.86568-2.8522-63.1143.39452-88.52407" fill="none" stroke="#aa6f5b" stroke-linecap="round" stroke-linejoin="round" stroke-width="1.75"/>
          <path d="M483.63306,432.04523c-.92048,7.40693,2.69567,14.81385,6.19775,12.59177s.24558-27.03523-1.8332-45.92282-2.65508-45.55243-3.83855-64.99555-.38133-34.73657-1.97248-53.0635" fill="none" stroke="#aa6f5b" stroke-linecap="round" stroke-linejoin="round" stroke-width="1.75"/>
          <path d="M485.42646,542.36175a145.94414,145.94414,0,0,1,2.57115-27.91475c2.8678-14.58233,9.081-27.72955,9.82065-49.62625S496.191,416.84,495.00753,404.05053s-2.6108-53.57462-3.31933-72.09182" fill="none" stroke="#aa6f5b" stroke-linecap="round" stroke-linejoin="round" stroke-width="1.75"/>
          <path d="M490.07638,280.65513c1.61182,13.0495,1.61182,44.916,1.61182,44.916" fill="none" stroke="#aa6f5b" stroke-linecap="round" stroke-linejoin="round" stroke-width="1.75"/>
          <path d="M507.286,280.65513c-1.91,20.549-1.92314,51.44328-1.92314,62.83137s1.03553,50.27433,1.80856,61.38468,2.77738,42.35823,3.8129,56.94055-.14792,30.41457-1.3314,42.91373-7.9884,28.748-9.17187,39.85838,3.99421,28.60915,5.17768,40.13612,2.219,39.7195,2.95867,54.02407,1.92312,31.80338,4.23705,42.4971.64475,18.74871-.09492,23.841-1.18345,12.12875,0,30.87745.8876,28.69555.8876,28.69555" fill="none" stroke="#aa6f5b" stroke-linecap="round" stroke-linejoin="round" stroke-width="1.75"/>
          <path d="M526.764,519.83713a96.85072,96.85072,0,0,1-5.91742-15.945c-4.93113-18.7024-6.50908-99.62283-6.81005-118.51042s-1.5728-73.34505-.38935-104.72663" fill="none" stroke="#aa6f5b" stroke-linecap="round" stroke-linejoin="round" stroke-width="1.75"/>
          <path d="M526.764,498.80815a138.23054,138.23054,0,0,1-2.46563-17.97c-3.25482-40.79682-2.98265-174.35667-4.04352-200.18307" fill="none" stroke="#aa6f5b" stroke-linecap="round" stroke-linejoin="round" stroke-width="1.75"/>
          <path d="M359.64843,336.54173c.83707-16.01745-.3474-35.472-2.51485-55.8866" fill="none" stroke="#aa6f5b" stroke-linecap="round" stroke-linejoin="round" stroke-width="1.75"/>
          <path d="M311.96243,340.80108c.9862-15.617,0-60.146,0-60.146" fill="none" stroke="#aa6f5b" stroke-linecap="round" stroke-linejoin="round" stroke-width="1.75"/>
          <path d="M307.45581,370.48593s2.83-11.75328,1.05482-21.578-2.10965-68.25283-2.10965-68.25283" fill="none" stroke="#aa6f5b" stroke-linecap="round" stroke-linejoin="round" stroke-width="1.75"/>
          <path d="M303.77676,337.79245c-1.70122-21.00137-3.40247-34.8893-3.40247-57.13732" fill="none" stroke="#aa6f5b" stroke-linecap="round" stroke-linejoin="round" stroke-width="1.75"/>
        </g>
        <g>
          <path d="M42.72563,280.656c.00305.075,1.97263,48.00555,2.26828,92.96733.29585,44.99692,1.18345,108.5111,5.91732,127.86157s10.12882,21.943,9.79828,43.14518-7.43133,17.4063-4.76853,49.99658,7.1008,37.03452,9.46773,85.0868-2.36693,41.61133,0,84.94168" fill="none" stroke="#aa6f5b" stroke-linecap="round" stroke-linejoin="round" stroke-width="1.75"/>
          <path d="M50.19093,340.80108c1.87993-21.11055-.14222-42.24558-1.0549-60.146" fill="none" stroke="#aa6f5b" stroke-linecap="round" stroke-linejoin="round" stroke-width="1.75"/>
          <path d="M65.40871,280.65513c.68325,8.53593.1972,38.62-.789,49.1749s-5.12832,15.92488-5.09352,27.59073,4.89625,15.1841,6.56578,25.73895.79608,24.07243,0,54.13983S71.326,539.44528,70.14258,566.1321c-1.18348,26.68667-6.80495,28.03165-6.80495,45.11383s8.58268,51.95795,9.02647,80.70451-1.33132,52.58007,0,72.70469" fill="none" stroke="#aa6f5b" stroke-linecap="round" stroke-linejoin="round" stroke-width="1.75"/>
          <path d="M65.11283,571.82275c.14795,5.12-.67033,20.53557-4.40333,20.53557-2.54953,0-1.38065-17.14373.8036-25.33763s3.33622-11.88205,3.61593-25.21447-1.64345-44.3025-2.2352-56.5239-3.03725-36.52525-2.18432-61.66243.47877-31.24785-1.18333-39.7195-6.10023-13.74905-6.10007-24.58165c.00015-17.08215,3.88665-24.06213,4.8818-33.74768,1.78835-17.40625-1.17032-33.533-1.47933-44.916" fill="none" stroke="#aa6f5b" stroke-linecap="round" stroke-linejoin="round" stroke-width="1.75"/>
          <path d="M58.012,503.33665s-2.81072-29.10853-3.9942-46.4965-1.18345-25.72078-1.3314-37.10888,1.2328-27.041-1.44055-43.97845" fill="none" stroke="#aa6f5b" stroke-linecap="round" stroke-linejoin="round" stroke-width="1.75"/>
          <path d="M72.36411,280.65513c.45443,9.85528-.15377,38.11215-.89647,50.19783-.59175,9.629-5.37568,14.16123-5.486,25.45677-.152,15.55863,6.92232,15.9248,7.90852,23.51685s-.78895,64.06063-.1972,89.43378,2.56413,57.408,2.36693,81.29527-.9334,33.70145-3.62262,41.1083-8.80653,22.76455,2.95795,52.03353c10.05945,25.027,8.15995,49.99778,8.35723,72.21781s.78893,48.73987.78893,48.73987" fill="none" stroke="#aa6f5b" stroke-linecap="round" stroke-linejoin="round" stroke-width="1.75"/>
          <path d="M77.04611,342.60693c-4.3394.18518-5.91733,6.48108-6.1146,13.79538s2.5642,15.18415,6.1146,14.99895,6.50907-6.38845,6.41048-13.5176S82.36623,342.38,77.04611,342.60693Z" fill="none" stroke="#aa6f5b" stroke-linecap="round" stroke-linejoin="round" stroke-width="1.75"/>
          <path d="M76.05991,348.7176c-1.28213,2.9628-2.27593,17.40625,1.13038,17.31367s2.12417-11.5733,2.12417-11.5733" fill="none" stroke="#aa6f5b" stroke-linecap="round" stroke-linejoin="round" stroke-width="1.75"/>
          <path d="M78.82131,280.65513c.05865,16.93813-2.35377,46.6541.72962,53.38758,4.03437,8.81037,8.34365,11.34052,8.34365,22.96075s-8.403,18.98083-8.34365,27.59135-.53235,52.913-.53235,71.10622,1.62727,67.77312,2.219,79.30013,1.3314,31.38672-.59172,43.46925-8.19523,21.66882-6.95288,38.60845c1.5673,21.3721,10.14608,29.44242,12.1678,38.46957s3.0333,31.94226,3.1992,42.35823.90568,66.74847.90568,66.74847" fill="none" stroke="#aa6f5b" stroke-linecap="round" stroke-linejoin="round" stroke-width="1.75"/>
          <path d="M84.54138,280.65513c.70355,16.66037-2.15653,35.888.90075,48.29447,2.23243,9.05925,7.75935,12.87,7.75935,27.03565s-7.0821,21.94335-7.378,35.49037c-.235,10.7582-.29585,60.1979-.29585,81.30758s2.95865,104.43727,5.72005,112.0294,7.1008,12.4065,7.69255,31.8496-5.31007,28.51653-5.3178,37.4048-.03713,23.93607.92912,44.44928c.95137,20.19677,1.82447,52.06565,1.43,66.13884" fill="none" stroke="#aa6f5b" stroke-linecap="round" stroke-linejoin="round" stroke-width="1.75"/>
          <path d="M91.59291,397.51058c.73967-17.35993,6.95287-26.66483,7.389-41.80268s-2.8496-16.78812-6.5376-30.13682c-3.74768-13.56475-2.10285-24.27433-2.47867-44.916" fill="none" stroke="#aa6f5b" stroke-linecap="round" stroke-linejoin="round" stroke-width="1.75"/>
          <path d="M91.74086,406.67663s-.59175,38.60845,0,56.24613.59172,62.91235,1.47933,78.7446,1.7752,30.13682,4.73387,41.24717,6.2132,16.9388,6.50908,34.71753-4.438,29.30587-4.586,42.36052-.14793,25.69268.8876,44.16363,2.6628,45.08332,2.6628,60.49892" fill="none" stroke="#aa6f5b" stroke-linecap="round" stroke-linejoin="round" stroke-width="1.75"/>
          <path d="M98.98193,530.37188s-.63342-45.3673-1.00482-61.11153-1.00933-32.4006-1.00933-51.65858,4.14213-37.7752,6.50908-49.99657,2.95868-24.99828-2.7614-38.1455-4.93115-42.69387-4.73388-48.80457" fill="none" stroke="#aa6f5b" stroke-linecap="round" stroke-linejoin="round" stroke-width="1.75"/>
          <path d="M102.29338,421.48415a187.435,187.435,0,0,1,5.91735-45.73133c4.15042-15.0461,3.60412-34.3312,0-49.21042-3.60063-14.8647-4.586-34.03622-4.78315-45.88727" fill="none" stroke="#aa6f5b" stroke-linecap="round" stroke-linejoin="round" stroke-width="1.75"/>
          <path d="M108.69953,403.5892s1.87812-11.72635,2.78565-15.42985,4.8126-19.99863,5.0098-34.9976-1.38065-25.73892-3.7476-37.96033-2.74752-22.33007-2.7476-34.5463" fill="none" stroke="#aa6f5b" stroke-linecap="round" stroke-linejoin="round" stroke-width="1.75"/>
          <path d="M115.90326,280.65513c.19728,8.14763,1.18348,29.17625,3.15593,44.36043a229.09763,229.09763,0,0,1,1.7752,43.70067c-.789,15.9249-6.1146,32.77555-11.24292,45.73762s-7.29807,28.1462-6.3118,39.44175,8.087,40.55277,10.6512,51.478c2.56413,10.92507,5.5228,35.18273,3.15587,48.14475s-4.5366,20.369-2.16967,29.6277,10.25675,26.29443,10.6512,38.51583,0,41.6406,0,53.2255,1.7752,79.95358,1.57792,89.76775" fill="none" stroke="#aa6f5b" stroke-linecap="round" stroke-linejoin="round" stroke-width="1.75"/>
          <path d="M121.42613,280.65513c.19728,10.92523,1.7752,32.32425,3.35313,48.24905s3.3532,32.4052.98628,50.73728-11.4004,37.4048-14.28035,49.81138-3.27445,27.96107,1.85395,49.81138,9.27047,39.627,9.8622,55.36655-5.3704,32.9958-5.05213,41.0333,11.16673,26.36958,12.74465,37.85018a142.93565,142.93565,0,0,1,1.38075,20.369" fill="none" stroke="#aa6f5b" stroke-linecap="round" stroke-linejoin="round" stroke-width="1.75"/>
          <path d="M133.65526,280.65513c-.39445,6.29588-5.31245,10.149-4.5366,27.5097.6288,14.07173,3.74767,25.27652,4.14215,49.20982s-6.70635,45.59855-10.84847,55.783a93.79625,93.79625,0,0,0-7.30768,40.18245c.6014,17.221,6.32147,34.9976,9.87188,49.99658s5.12833,31.84963,3.35312,46.47835c-1.7752,14.62857-5.7775,23.702-4.1708,30.183s12.65235,22.40582,12.8496,32.77555,1.38067,29.25728,1.578,46.84857c.19725,17.59145.19725,30.36836,0,43.88588-.19728,13.5177.789,45.59257,1.18345,61.14707" fill="none" stroke="#aa6f5b" stroke-linecap="round" stroke-linejoin="round" stroke-width="1.75"/>
          <path d="M132.28248,415.00938c-9.85433,1.11105-14.0123,34.8124-11.44933,50.18178s3.9461,12.7769,8.68,15.1841,5.72012,19.4431,11.24292,19.258,7.87045-21.6567,8.28428-44.9969C149.381,435.42613,142.13681,413.89835,132.28248,415.00938Z" fill="none" stroke="#aa6f5b" stroke-linecap="round" stroke-linejoin="round" stroke-width="1.75"/>
          <path d="M136.21946,378.23728c0,15.18415-6.80485,24.7027-4.57855,28.5913s7.05,5.74037,8.53425,3.88862-3.33948-11.851-3.33948-11.851" fill="none" stroke="#aa6f5b" stroke-linecap="round" stroke-linejoin="round" stroke-width="1.75"/>
          <path d="M139.76986,280.65513c-.48,8.23505-6.8102,14.59312-5.72,27.5097.9565,11.3342,5.12832,25.5538,5.72,39.44175s-.9862,30.16537,3.94487,53.69117,11.4402,32.414,10.84848,61.30093-3.74768,33.14592-7.49527,43.51558-5.13635,19.258-2.864,34.6272,12.529,31.47938,13.71242,46.2932-5.3256,27.0351-4.931,35.55312.9862,36.66415,1.38065,56.47753.789,68.18353,1.578,85.58983" fill="none" stroke="#aa6f5b" stroke-linecap="round" stroke-linejoin="round" stroke-width="1.75"/>
          <path d="M160.67781,462.78388c0-10.97147-1.3314-28.05363-4.29008-41.29973s-7.9884-26.05675-9.3198-39.11142,0-28.748-1.13428-39.164-6.11445-23.33173-7.15-34.16433,6.21322-19.78393,6.70628-28.3893" fill="none" stroke="#aa6f5b" stroke-linecap="round" stroke-linejoin="round" stroke-width="1.75"/>
          <path d="M144.99688,297.06948c3.9942-1.98243,9.61565,2.11453,9.61565,2.11453-2.51485-3.83263-3.01508-11.98913-3.59973-18.52888" fill="none" stroke="#aa6f5b" stroke-linecap="round" stroke-linejoin="round" stroke-width="1.75"/>
          <path d="M148.69521,300.98943c-4.58593,0-6.80492,3.472-6.2132,8.54108s3.5504,9.23548,7.19512,8.54107,5.23128-1.80543,6.11888-6.94395S152.58668,300.98943,148.69521,300.98943Z" fill="none" stroke="#aa6f5b" stroke-linecap="round" stroke-linejoin="round" stroke-width="1.75"/>
          <path d="M145.93366,308.16483c-.04918,3.37942.24667,7.12917,3.871,6.57365s3.3285-8.33275,0-9.9993" fill="none" stroke="#aa6f5b" stroke-linecap="round" stroke-linejoin="round" stroke-width="1.75"/>
          <path d="M150.61833,325.82775c1.3314-3.74975-4.438-3.74975-4.68467-2.0832s2.61362,5.27742,3.21957,9.99932" fill="none" stroke="#aa6f5b" stroke-linecap="round" stroke-linejoin="round" stroke-width="1.75"/>
          <path d="M163.48856,655.54842c-.73968-12.36025-.8876-32.22,3.5504-47.219a59.81021,59.81021,0,0,0,0-35.55312c-2.6628-9.166-7.24875-20.97078-9.69225-37.49743s.96417-20.27638,4.6625-34.16433,4.8818-35.83087,3.69835-52.913-3.99422-28.3314-7.64718-44.4414-4.9162-23.97017-5.0845-33.15168c-.17075-9.32025-.28648-21.98343.30525-30.45508s5.7694-20.693,7.39667-30.58492-3.43865-18.9183-4.73388-28.91335" fill="none" stroke="#aa6f5b" stroke-linecap="round" stroke-linejoin="round" stroke-width="1.75"/>
          <path d="M158.90261,334.82968c12.88458-34.92885,4.332-39.95175,4.25315-52.03345" fill="none" stroke="#aa6f5b" stroke-linecap="round" stroke-linejoin="round" stroke-width="1.75"/>
          <path d="M168.73976,293.35105a102.23413,102.23413,0,0,1,1.4058-12.69592" fill="none" stroke="#aa6f5b" stroke-linecap="round" stroke-linejoin="round" stroke-width="1.75"/>
          <path d="M168.07448,431.93733c-2.1303-20.1375-9.36915-43.4076-10.0141-63.2211s3.60362-30.183,8.10512-44.8117,7.72765-34.62727,7.72765-41.1083" fill="none" stroke="#aa6f5b" stroke-linecap="round" stroke-linejoin="round" stroke-width="1.75"/>
          <path d="M163.83368,548.33358c-2.56415-13.33242-3.5504-28.51652,3.3532-48.69885s5.5228-57.59017,5.5228-57.59017c-.39447-27.77588-9.46775-56.10728-10.17563-73.51345s5.44175-35.18277,9.18943-46.66345,5.23323-27.6949,6.02215-41.21253" fill="none" stroke="#aa6f5b" stroke-linecap="round" stroke-linejoin="round" stroke-width="1.75"/>
          <path d="M178.627,442.8547c-.78892-19.9292-4.33933-26.17877-7.298-45.34412s-4.3394-41.57125,1.18348-60.5514,11.99575-33.193,11.04567-54.163" fill="none" stroke="#aa6f5b" stroke-linecap="round" stroke-linejoin="round" stroke-width="1.75"/>
          <path d="M191.64516,280.65513c0,9.28,0,14.7783-6.50907,36.02767-5.91,19.2937-11.83468,42.4045-10.45393,62.03275s8.087,47.03385,8.876,61.66242,2.5642,34.6273-4.93115,59.25675-5.91732,38.69952-3.5504,54.6244,7.29808,30.3682,7.1008,47.12187-.78893,31.2061-7.69253,43.2422c-6.90353,12.03628-12.02247,26.2942-11.2503,43.14526.99363,21.68525,20.17563,42.75952,20.32358,58.1442.1139,11.85195-5.12835,13.1873-5.81252,18.74247" fill="none" stroke="#aa6f5b" stroke-linecap="round" stroke-linejoin="round" stroke-width="1.75"/>
          <path d="M178.627,530.37188c.19728-7.5921,2.5642-19.258,4.93115-27.77593s5.3256-27.77588,5.83218-50.3669-8.79085-70.73592-8.98812-80.8246,4.14215-27.131,8.98812-45.11675c4.84582-17.98582,8.17215-33.4112,7.58042-45.63257" fill="none" stroke="#aa6f5b" stroke-linecap="round" stroke-linejoin="round" stroke-width="1.75"/>
          <path d="M203.67708,280.65513c0,10.55482-1.93425,22.88168-7.29805,42.87908-3.99377,14.88972-9.348,31.2941-9.40787,46.108s5.72008,43.88588,7.2681,67.0324-2.5941,51.65452-2.5941,59.62557c0,10.36963,4.8467,21.48,3.70547,38.88615s-5.08615,26.45625-4.88895,36.55985,2.76148,21.214,2.76148,35.1019-2.16975,23.33173,1.02787,37.77517c3.544,16.00775,7.65085,39.99728,7.2564,58.14423s-5.91735,42.07419-4.53668,61.88769" fill="none" stroke="#aa6f5b" stroke-linecap="round" stroke-linejoin="round" stroke-width="1.75"/>
          <path d="M210.82723,280.65513c-.1348,19.11478-6.7239,35.90445-10.8978,52.6932-3.6228,14.57188-7.58073,31.80255-6.50907,42.4045,1.3649,13.5025,5.91733,45.1358,6.31188,67.10188s.78713,74.74028.788,87.51718-1.3798,63.8845-1.97153,75.36512.84165,37.96045,2.985,49.81142,5.102,27.03523,5.29925,41.4787-1.7752,34.06938-2.76147,44.90318a188.3109,188.3109,0,0,0-.39447,22.72482" fill="none" stroke="#aa6f5b" stroke-linecap="round" stroke-linejoin="round" stroke-width="1.75"/>
          <path d="M198.85778,375.75283c-.19728-9.25865,2.50242-19.0649,4.42485-29.99792,1.57108-8.93543,6.96572-29.879,8.59328-39.90553" fill="none" stroke="#aa6f5b" stroke-linecap="round" stroke-linejoin="round" stroke-width="1.75"/>
          <path d="M211.76408,460.5618c0-19.4431-3.74758-28.7017-6.11452-43.33035a186.43384,186.43384,0,0,1-1.7752-39.812c.59172-12.03627,7.76455-32.91823,10.6512-56.6647,2.6053-21.43265,3.5504-28.24853,3.15588-40.09958" fill="none" stroke="#aa6f5b" stroke-linecap="round" stroke-linejoin="round" stroke-width="1.75"/>
          <path d="M212.75036,366.03168c9.04525-31.71738,10.54892-63.61535,10.6512-85.37655" fill="none" stroke="#aa6f5b" stroke-linecap="round" stroke-linejoin="round" stroke-width="1.75"/>
          <path d="M210.18616,375.75283a134.409,134.409,0,0,0,0,38.14553c2.367,15.73968,6.50907,32.22,6.90355,52.77415s-.78895,82.03145-2.367,97.03043-4.311,46.66347-5.90318,59.81062.77485,31.29425,6.88945,47.03385,4.14212,38.14558,3.15588,50.73722-1.18348,32.0749-1.18348,43.3705" fill="none" stroke="#aa6f5b" stroke-linecap="round" stroke-linejoin="round" stroke-width="1.75"/>
          <path d="M221.23183,550.55563c.789-14.44345.98628-80.55-.21322-98.32657s-5.70413-32.96072-6.86533-53.14447,4.90888-33.14592,9.44548-50.367,4.3394-58.8038,4.53668-68.06248" fill="none" stroke="#aa6f5b" stroke-linecap="round" stroke-linejoin="round" stroke-width="1.75"/>
          <path d="M232.95671,280.65513c.01445,14.716-.67912,30.42435-.67912,45.63257s-2.367,31.31818-7.29807,40.94718-6.47065,27.03518-5.01053,42.21933,6.12412,30.73865,6.65215,63.5142,1.66223,54.9499,1.0705,76.754-2.219,32.77555-3.5504,44.99693-8.28428,27.22035-6.80492,43.0526,11.1936,37.31162,12.77152,54.39406-2.16968,57.49022-1.9724,72.48919" fill="none" stroke="#aa6f5b" stroke-linecap="round" stroke-linejoin="round" stroke-width="1.75"/>
          <path d="M233.65823,490.37455c.19727-6.85132-.39447-19.99863-1.11773-32.0348s-.65747-21.48,6.26868-41.1083,4.71133-35.92345,1.16093-46.66348-1.97248-20.55412-1.97248-37.40485,1.03555-41.02725.64108-52.508" fill="none" stroke="#aa6f5b" stroke-linecap="round" stroke-linejoin="round" stroke-width="1.75"/>
          <path d="M243.32808,337.79245c-.58683-20.55415,1.1696-41.31077.96938-57.13732" fill="none" stroke="#aa6f5b" stroke-linecap="round" stroke-linejoin="round" stroke-width="1.75"/>
          <path d="M243.32808,347.23625a83.23738,83.23738,0,0,0,3.74283,25.5538c3.9942,13.05467,1.92312,30.13682-2.36693,42.77485s-6.36115,22.63732-6.2132,34.58095,1.47933,36.3864.8876,48.05228.14792,27.22035-.29588,42.08045-2.01327,35.692-2.6339,47.7745-.9165,18.7487,2.04217,27.08147,3.40245,20.41525-.4438,34.44208-.148,20.41525,1.62725,32.08113A146.13956,146.13956,0,0,1,241.15358,713.6c-.59175,11.11035-2.367,38.04672-2.51487,51.05512" fill="none" stroke="#aa6f5b" stroke-linecap="round" stroke-linejoin="round" stroke-width="1.75"/>
          <path d="M233.16518,355.7079s-.59175,7.49948,1.03552,12.91577" fill="none" stroke="#aa6f5b" stroke-linecap="round" stroke-linejoin="round" stroke-width="1.75"/>
          <path d="M232.29521,372.81163c-5.1909.85985-7.5681,9.00437-8.0046,21.2153s3.80785,22.1746,6.2725,21.53343,6.90455-4.15668,7.19522-20.26465S236.06641,372.187,232.29521,372.81163Z" fill="none" stroke="#aa6f5b" stroke-linecap="round" stroke-linejoin="round" stroke-width="1.75"/>
          <path d="M232.90116,396.7184c.871-3.454,3.16987-17.01795-1.52707-16.28632s-3.08363,22.43757-.06213,26.80955" fill="none" stroke="#aa6f5b" stroke-linecap="round" stroke-linejoin="round" stroke-width="1.75"/>
          <path d="M230.13253,421.79915s-.05315-4.51358-2.8639-3.1248,1.45855,14.6671,1.45855,21.4722" fill="none" stroke="#aa6f5b" stroke-linecap="round" stroke-linejoin="round" stroke-width="1.75"/>
          <path d="M244.46148,536.11218s.83423-16.4804,1.2287-38.88622-1.97248-48.70033-.9862-60.5514,8.28428-20.73933,10.25665-43.88587-4.5366-26.2945-6.50905-51.66313.75685-30.385.75685-60.47042" fill="none" stroke="#aa6f5b" stroke-linecap="round" stroke-linejoin="round" stroke-width="1.75"/>
          <path d="M249.895,541.85248c.45718-10.74,2.30423-34.44208,1.90977-55.92205s-1.578-35.92345,0-49.99658,9.66493-31.84963,9.66493-50.73723-6.11453-28.8869-7.1008-50.36695,4.09838-39.2733,4.14212-54.17455" fill="none" stroke="#aa6f5b" stroke-linecap="round" stroke-linejoin="round" stroke-width="1.75"/>
          <path d="M259.04276,315.8361c-.2045,5.37932.351,26.66855,3.12243,38.0692" fill="none" stroke="#aa6f5b" stroke-linecap="round" stroke-linejoin="round" stroke-width="1.75"/>
          <path d="M255.58561,525.00183c4.17535-9.0734,4.8979-17.77655,4.70062-31.84968s-3.15585-35.55313-1.57792-55.57488,8.48155-42.75172,8.876-62.75035-2.95865-31.109-3.94485-52.40377-.43065-30.9406-.789-41.768" fill="none" stroke="#aa6f5b" stroke-linecap="round" stroke-linejoin="round" stroke-width="1.75"/>
          <path d="M271.92371,280.65513s.309,22.41668,1.77523,40.09958c1.43872,17.35287,4.931,37.5919,5.72005,53.33157s-3.74768,29.072-7.29808,48.33a170.45558,170.45558,0,0,0-1.42175,52.40378c1.93142,16.11,1.22455,25.739,0,41.29348s-9.03217,12.962-12.45177,33.51617,1.6444,40.55277,7.03175,55.55175,9.406,22.59108,10.58945,47.219-.789,33.33106-1.57792,54.07046-2.367,45.03692-2.367,58.18422" fill="none" stroke="#aa6f5b" stroke-linecap="round" stroke-linejoin="round" stroke-width="1.75"/>
          <path d="M255.84268,537.22322c6.99657-9.62892,9.96642-25.5538,9.96642-43.51557s-2.5642-35.18273-1.97245-52.40375,6.9036-38.88623,8.876-56.47765-2.3538-36.41035-3.73445-57.52-1.78835-46.65112-1.78835-46.65112" fill="none" stroke="#aa6f5b" stroke-linecap="round" stroke-linejoin="round" stroke-width="1.75"/>
          <path d="M277.64378,280.65513c-.39445,10.74.06248,23.6666,1.86558,40.84213,1.78112,16.96572,5.6297,38.7011,5.4325,56.848s-4.3394,36.479-8.49245,53.32967-.38355,33.33105.9971,53.14448-1.18345,29.25723-.9862,40.18245,8.876,17.03592,9.86223,43.59552-7.298,33.43628-8.67875,44.17625,4.14215,32.03488,4.3394,50.36695-1.578,43.14511-2.47382,59.99588-1.86558,41.51869-1.86558,41.51869" fill="none" stroke="#aa6f5b" stroke-linecap="round" stroke-linejoin="round" stroke-width="1.75"/>
          <path d="M282.77211,280.65513s.25977,17.417,1.887,38.24892c1.602,20.5087,5.80552,46.66428,6.2,64.99635s-9.46772,50.73728-9.27052,63.329,2.16972,24.25757,3.15592,34.9976-1.97247,24.81315-1.97247,37.77517,7.88982,22.77623,9.665,45.55243-7.1008,40.7379-7.52315,46.8486-.1694,20.7394,1.48988,41.84908-.27853,34.44208-1.06752,51.47785c-.789,17.03593-2.367,45.2222-2.56423,58.925" fill="none" stroke="#aa6f5b" stroke-linecap="round" stroke-linejoin="round" stroke-width="1.75"/>
          <path d="M288.09773,280.65513c0,28.46513,6.50905,70.46975,7.8898,96.39387s-5.12835,37.77518-6.90355,55.737,2.367,37.03445,2.56415,47.7745-2.56415,23.88725-2.7614,36.94705,9.07328,30.45567,9.665,50.084-6.1146,36.66415-7.29808,44.62653-1.57792,17.77655,0,33.88655,1.18348,35.73825,0,54.07033-2.95867,53.18457-3.15592,64.48017" fill="none" stroke="#aa6f5b" stroke-linecap="round" stroke-linejoin="round" stroke-width="1.75"/>
          <path d="M299.43283,408.158c4.03695-19.4431,2.21-34.3182.01965-55.36738-2.216-21.29458-5.3256-41.03165-6.10932-72.13547" fill="none" stroke="#aa6f5b" stroke-linecap="round" stroke-linejoin="round" stroke-width="1.75"/>
          <path d="M297.36826,417.23145c-1.38073,7.59205-3.94493,16.2952-2.76148,27.77587s5.20218,32.22,3.98177,45.36723-3.62587,23.14655-2.02857,32.683,8.10628,23.4009,7.51455,48.6886c-.59175,25.28785-7.1008,39.08315-7.49527,44.86985" fill="none" stroke="#aa6f5b" stroke-linecap="round" stroke-linejoin="round" stroke-width="1.75"/>
          <path d="M126.07453,292.0077a95.5515,95.5515,0,0,0,1.07773-11.35258" fill="none" stroke="#aa6f5b" stroke-linecap="round" stroke-linejoin="round" stroke-width="1.75"/>
          <path d="M252.77486,293.35105s.81373-7.46082.80513-12.69592" fill="none" stroke="#aa6f5b" stroke-linecap="round" stroke-linejoin="round" stroke-width="1.75"/>
        </g>
      </g>
    </g>
  </g>
  <rect id="7b363afd-ac92-43ed-a5cc-ef81d8e82e21" data-name="&lt;Rectangle&gt;" x="139.07402" y="268.90473" width="258" height="20.28158" opacity="0.05"/>
  <rect id="87939dd3-5777-401c-b568-0fadd6148a9d" data-name="&lt;Rectangle&gt;" x="131.324" y="268.90473" width="273.5" height="11.41225" rx="5.70612" ry="5.70612" fill="#b77d67"/>
  <g>
    <path id="3b93b265-d5b2-4790-9a23-de7176d14d2c" data-name="&lt;Path&gt;" d="M305.28443,136.75969l.09279-.09279-.7432-.7432a16.99355,16.99355,0,0,0-1.99143-1.99134L291.73031,123.02,280.818,133.93237a16.99355,16.99355,0,0,0-1.99143,1.99134l-.7432.7432.09279.09279a16.90778,16.90778,0,1,0,27.10825,0Z" fill="#96d7ea"/>
    <circle id="547c8910-89ad-4263-9808-c238f51f40da" data-name="&lt;Path&gt;" cx="291.73445" cy="147.36136" r="10.12761" fill="#b2e2ed"/>
    <circle id="e17233f8-8e44-41b0-9dca-26fec11f9222" data-name="&lt;Path&gt;" cx="301.26677" cy="144.65548" r="3.76779" fill="#fff"/>
  </g>
  <rect id="1eb7cc71-e846-430c-ba9c-dbbb30a81d00" data-name="&lt;Rectangle&gt;" x="220.34457" y="22.574" width="5.52949" height="62.19792" fill="url(#6ba5589a-6c3a-42c3-91cc-2316004c903c)"/>
  <circle id="755af2e8-a3e2-45bd-8c8c-5434c4abdca4" data-name="&lt;Path&gt;" cx="223.05017" cy="114.18222" r="12.22511" fill="#fff"/>
  <path id="1923b03a-d3a8-44f0-b12b-10ec0e25475f" data-name="&lt;Path&gt;" d="M266.10931,117.43668h-86l5.95195-22.76692A20.72667,20.72667,0,0,1,206.114,79.18548h33.99063a20.72667,20.72667,0,0,1,20.05274,15.48429Z" fill="#ddd"/>
  <rect id="434fa6f9-ed78-4c19-a137-e416fa1b2035" data-name="&lt;Rectangle&gt;" x="190.53235" y="103.64752" width="30.76531" height="6.16543" rx="3.08271" ry="3.08271" fill="#fff" opacity="0.2"/>
  <rect id="b0ac2054-11bc-4ed2-9d8e-15f9d0f3623b" data-name="&lt;Rectangle&gt;" x="226.31985" y="103.64752" width="6.54785" height="6.16543" rx="3.08271" ry="3.08271" fill="#fff" opacity="0.2"/>
  <path id="6573bc4c-fe31-48b6-98e5-29db169daeeb" data-name="&lt;Rectangle&gt;" d="M340.24068,232.76556h32.5a0,0,0,0,1,0,0v15.70549a15.59039,15.59039,0,0,1-15.59039,15.59039h-1.31921a15.59039,15.59039,0,0,1-15.59039-15.59039V232.76556A0,0,0,0,1,340.24068,232.76556Z" fill="#f4f4f4"/>
  <path id="2fc53021-169d-48c0-9d41-cc2a4992d578" data-name="&lt;Rectangle&gt;" d="M335.40735,262.00362H377.574a0,0,0,0,1,0,0v0a6.9011,6.9011,0,0,1-6.9011,6.9011H342.30845a6.9011,6.9011,0,0,1-6.9011-6.9011v0A0,0,0,0,1,335.40735,262.00362Z" fill="#e5e5e5"/>
  <path id="1489840c-b890-4b5c-81ce-db56f1215772" data-name="&lt;Rectangle&gt;" d="M372.74068,237.94668h8.5625a0,0,0,0,1,0,0v3.24884a8.13846,8.13846,0,0,1-8.13846,8.13846h-.424a0,0,0,0,1,0,0v-11.3873A0,0,0,0,1,372.74068,237.94668Z" fill="#e5e5e5"/>
  <rect id="cabdcab5-8c32-4520-b0c1-cce18621df1d" data-name="&lt;Rectangle&gt;" x="211.72196" y="73.40733" width="22.77471" height="5.77814" fill="#cecece"/>
  <g id="882dfd35-958f-4d6e-b48d-0b5543bb0605" data-name="&lt;Group&gt;">
    <circle id="7ee3fbc4-6f67-4ca4-9dc1-313e6424cd4c" data-name="&lt;Path&gt;" cx="370.31315" cy="149.10462" r="26.41667" fill="#fff" stroke="#4b9caf" stroke-miterlimit="10" stroke-width="5"/>
    <circle id="1029395f-12d5-4e2c-a585-c8d3c33682e9" data-name="&lt;Path&gt;" cx="370.31315" cy="149.10462" r="18.38443" fill="#edebeb"/>
    <circle id="a37e93d7-07c2-4a47-9efc-38e78676f52c" data-name="&lt;Path&gt;" cx="370.31315" cy="149.10462" r="8.12098" fill="#e2e0e0"/>
    <line id="9a57fbb8-60f0-404f-8712-8a9ec9a8a07f" data-name="&lt;Path&gt;" x1="370.31315" y1="149.68336" x2="377.62475" y2="157.6348" fill="none" stroke="#4b9caf" stroke-linecap="round" stroke-linejoin="round" stroke-width="4"/>
    <line id="2f5099c8-8e6b-4835-82c5-b9a743ab4557" data-name="&lt;Path&gt;" x1="370.31315" y1="140.57444" x2="370.31315" y2="149.68336" fill="none" stroke="#4b9caf" stroke-linecap="round" stroke-linejoin="round" stroke-width="4"/>
  </g>
  <path id="f6632fa9-b3bf-4f65-a1c1-6aa3d2220521" data-name="&lt;Rectangle&gt;" d="M166.50836,223.23854H186.822a5.351,5.351,0,0,1,5.351,5.351v40.31518a0,0,0,0,1,0,0H161.15735a0,0,0,0,1,0,0V228.58954A5.351,5.351,0,0,1,166.50836,223.23854Z" fill="url(#e5fb6cb3-551d-4e12-bd43-7827cc53430b)"/>
  <polygon id="c4cea3a3-7ae0-4398-a8fc-cac088afdeb3" data-name="&lt;Path&gt;" points="156.241 268.905 176.665 268.905 176.665 246.031 170.313 246.031 156.241 268.905" fill="#a06657"/>
  <rect id="4e1b10f3-4ca7-40b0-8a2d-2b2fbcc1f5ef" data-name="&lt;Rectangle&gt;" x="95.74067" y="319.04719" width="43.33333" height="78.02681" fill="#515151"/>
  <path id="2d8cf823-02dd-4c8d-9ce7-f977e948af6b" data-name="&lt;Rectangle&gt;" d="M96.09776,319.04719H139.074a0,0,0,0,1,0,0v13.99817a0,0,0,0,1,0,0H96.09776a4.34408,4.34408,0,0,1-4.34408-4.34408v-5.31a4.34408,4.34408,0,0,1,4.34408-4.34408Z" fill="#474747"/>
  <rect id="f5cb4d7f-6764-45f8-b40a-fea7c35e55f5" data-name="&lt;Rectangle&gt;" x="203.74068" y="187.074" width="120.66667" height="81.83073" rx="8.80106" ry="8.80106" fill="#e3e3e3"/>
  <path d="M315.60629,187.074h-5.875a8.80111,8.80111,0,0,1,8.80115,8.801v64.22864a8.80111,8.80111,0,0,1-8.80115,8.801h5.875a8.80111,8.80111,0,0,0,8.80115-8.801V195.875A8.80111,8.80111,0,0,0,315.60629,187.074Z" fill="#dbdbdb"/>
  <path id="7715ae20-2dd5-4030-a4da-9cacf17601cf" data-name="&lt;Path&gt;" d="M273.70729,229.35774a7.7395,7.7395,0,0,1-3.78823-11.94505,12.12739,12.12739,0,1,0,6.14549,12.33961A7.73467,7.73467,0,0,1,273.70729,229.35774Z" fill="#fff"/>
  <g id="1f240ab7-460b-4a7c-b40e-9865582a4b0c" data-name="&lt;Group&gt;" opacity="0.3">
    <rect id="1cdbc876-4a05-42b6-bb0b-d2fef9867609" data-name="&lt;Rectangle&gt;" x="199.75051" y="242.64898" width="30.76531" height="6.16543" rx="3.08271" ry="3.08271" transform="translate(-30.59853 460.86486) rotate(-90)" fill="#fff"/>
    <rect id="2526606d-58e4-4ade-b893-6262c3c2d6ac" data-name="&lt;Rectangle&gt;" x="211.85924" y="218.97021" width="6.54785" height="6.16543" rx="3.08271" ry="3.08271" transform="translate(-6.91976 437.18609) rotate(-90)" fill="#fff"/>
  </g>
  <rect id="b77b3462-4e53-499b-9461-9d9c9daf9595" data-name="&lt;Rectangle&gt;" x="103.824" y="340.074" width="9.83333" height="48.33333" rx="4.91666" ry="4.91666" fill="#474747"/>
  <rect id="f1c1485a-4fd0-43ed-9d24-2c88b82381ab" data-name="&lt;Rectangle&gt;" x="121.574" y="340.074" width="9.83333" height="48.33333" rx="4.91666" ry="4.91666" fill="#474747"/>
  <g id="4f4fe43d-abb1-418a-9fe9-9bebb9ccfc98" data-name="&lt;Group&gt;">
    <rect id="617a6930-323f-427b-b3a1-c7c8fcc73c40" data-name="&lt;Rectangle&gt;" x="342.35369" y="246.42822" width="9.11708" height="4.03151" rx="2.01575" ry="2.01575" transform="translate(98.46826 595.35619) rotate(-90)" fill="#fff"/>
    <rect id="98cb4064-119a-411e-8538-00f584c1fdc3" data-name="&lt;Rectangle&gt;" x="344.77145" y="237.44494" width="4.28156" height="4.03151" rx="2.01575" ry="2.01575" transform="translate(107.45154 586.37292) rotate(-90)" fill="#fff"/>
  </g>
  <path d="M356.49068,195.38685s-6.69455,6.51109,0,14.73588,0,15.20411,0,15.20411" fill="none" stroke="#000" stroke-linecap="round" stroke-miterlimit="10" stroke-width="2.5" opacity="0.05"/>
  <path d="M365.77711,196.47019s-6.69455,6.2755,0,14.20269,0,14.654,0,14.654" fill="none" stroke="#000" stroke-linecap="round" stroke-miterlimit="10" stroke-width="2.5" opacity="0.05"/>
  <path d="M348.96942,222.87843a10.29749,10.29749,0,0,1-1.76517,2.33274" fill="none" stroke="#000" stroke-linecap="round" stroke-miterlimit="10" stroke-width="2.5" opacity="0.05"/>
  <path d="M347.20425,198.77617s-6.69455,5.74886,0,13.0108" fill="none" stroke="#000" stroke-linecap="round" stroke-miterlimit="10" stroke-width="2.5" opacity="0.05"/>
</svg>
