<svg id="9e7ddc45-06cb-4a8f-be29-07935148d17c" data-name="Layer 1" xmlns="http://www.w3.org/2000/svg" xmlns:xlink="http://www.w3.org/1999/xlink" viewBox="0 0 528.148 420">
  <defs>
    <linearGradient id="e77795f5-59f5-4a21-8126-171ee23196d7" x1="286.91276" y1="206.50237" x2="286.91276" y2="193.66403" gradientUnits="userSpaceOnUse">
      <stop offset="0" stop-color="#3a3a3a" stop-opacity="0"/>
      <stop offset="0.24709" stop-color="#3a3a3a" stop-opacity="0.14343"/>
      <stop offset="0.63647" stop-color="#3a3a3a" stop-opacity="0.53387"/>
      <stop offset="1" stop-color="#3a3a3a"/>
    </linearGradient>
    <linearGradient id="8a62750d-a8b5-4ae0-a4db-a7b4fdb3a5bd" x1="240.27803" y1="206.50237" x2="240.27803" y2="193.66403" xlink:href="#e77795f5-59f5-4a21-8126-171ee23196d7"/>
    <clipPath id="035c2b8c-f181-4c6d-854d-2170730fb5d4">
      <path d="M393.07414,381.14379V287.58831H135.07389v93.7088a14.86061,14.86061,0,0,0-11.468,14.46045h281.6665A14.86033,14.86033,0,0,0,393.07414,381.14379Z" fill="none"/>
    </clipPath>
    <linearGradient id="456f3ce2-51dd-4407-9cfa-3bc959c82e3d" x1="162.60587" y1="281.08739" x2="162.60587" y2="267.42428" xlink:href="#e77795f5-59f5-4a21-8126-171ee23196d7"/>
  </defs>
  <rect id="5ce38843-e538-4917-b12a-b2fb5cda3b16" data-name="&lt;Rectangle&gt;" x="103.75712" y="388.09095" width="320.63369" height="16.77474" rx="8.38736" ry="8.38736" opacity="0.08"/>
  <circle cx="323.79485" cy="176.60792" r="7.82018" fill="#fff"/>
  <circle cx="302.46743" cy="171.19982" r="4.55519" fill="#fff"/>
  <circle cx="313.59243" cy="163.81481" r="3.08959" fill="#fff"/>
  <circle cx="367.35587" cy="171.19982" r="3.08959" fill="#fff"/>
  <circle cx="347.07063" cy="160.72522" r="13.07142" fill="#fff"/>
  <circle cx="340.36262" cy="56.17211" r="7.95801" fill="#fff"/>
  <circle cx="438.31881" cy="186.82484" r="8.91616" fill="#fff"/>
  <g>
    <path d="M289.82,300.19344H238.21652a5.25941,5.25941,0,0,1-5.46344-4.75027L230.64773,271.687H297.3888l-2.10535,23.75614A5.25941,5.25941,0,0,1,289.82,300.19344Z" fill="#3a3a3a"/>
    <polygon points="290.9 323.687 237.137 323.687 234.869 273.141 293.168 273.141 290.9 323.687" fill="#3a3a3a"/>
    <path d="M274.3866,233.062l-10.36835,1.01025L253.64991,233.062l-17.90121,3.81849a11.432,11.432,0,0,0-8.99943,11.21179v27.87638a8.47311,8.47311,0,0,0,8.71082,8.21334h23.9834a4.67383,4.67383,0,0,0,3.56975-1.61563,1.33787,1.33787,0,0,1,2.01005,0A4.67386,4.67386,0,0,0,268.593,284.182h23.9834a8.47311,8.47311,0,0,0,8.71082-8.21334V248.09231a11.432,11.432,0,0,0-8.99943-11.21179Z" fill="#3a3a3a"/>
    <path d="M253.35385,227.58571h21.32882a0,0,0,0,1,0,0V235.72a8.467,8.467,0,0,1-8.467,8.467h-4.39483a8.467,8.467,0,0,1-8.467-8.467v-8.13433A0,0,0,0,1,253.35385,227.58571Z" fill="#f9bfa2"/>
    <polygon points="222.706 298.888 201.811 296.072 205.216 274.276 226.111 277.093 222.706 298.888" fill="#feccae"/>
    <polygon points="305.465 298.888 326.36 296.072 322.955 274.276 302.06 277.093 305.465 298.888" fill="#feccae"/>
    <polygon points="219.833 342.567 205 342.567 201.811 296.072 222.706 298.888 219.833 342.567" fill="#feccae"/>
    <path d="M220.97342,360.88834l-14.49632-2.05365a3.99605,3.99605,0,0,1-3.417-4.34128l1.55312-16.05658,15.63623-2.14815,3.74365,3.19667a5.6039,5.6039,0,0,1,1.89808,3.39872l1.55978,10.00862a3.996,3.996,0,0,1-.48419,2.60725l-1.96867,3.42377A3.99605,3.99605,0,0,1,220.97342,360.88834Z" fill="#feccae"/>
    <polygon points="308.338 342.567 323.172 342.567 326.36 296.072 305.465 298.888 308.338 342.567" fill="#feccae"/>
    <path d="M307.19774,360.88834l14.49632-2.05365a3.99605,3.99605,0,0,0,3.417-4.34128l-1.55312-16.05658-15.63623-2.14815-3.74365,3.19667a5.6039,5.6039,0,0,0-1.89808,3.39872l-1.55979,10.00862a3.996,3.996,0,0,0,.48419,2.60725l1.96867,3.42377A3.99605,3.99605,0,0,0,307.19774,360.88834Z" fill="#feccae"/>
    <path d="M245.36753,382.70657h-2.70483c-5.62095,0-10.17763-4.92871-10.17763-11.00858V341.7847A24.80037,24.80037,0,0,1,235.2464,330.371l.615-1.18392h25.38828v36.34073C261.24964,375.01536,254.139,382.70657,245.36753,382.70657Z" fill="#424242"/>
    <path d="M282.28468,382.70655h2.73088c5.67509,0,10.27566-4.92871,10.27566-11.00858V341.78468a24.60933,24.60933,0,0,0-2.78792-11.41374l-.62088-1.18392H266.2496v36.34073C266.2496,375.01534,273.42875,382.70655,282.28468,382.70655Z" fill="#424242"/>
    <rect x="234.96873" y="321.71829" width="58.19919" height="7.46875" rx="1.25049" ry="1.25049" fill="#424242"/>
    <polygon points="301.014 277.234 322.955 274.276 318.915 248.456 296.974 251.413 301.014 277.234" fill="#3a3a3a"/>
    <polygon points="228.712 277.444 205.216 274.276 209.295 248.461 232.791 251.628 228.712 277.444" fill="#3a3a3a"/>
    <path d="M207.479,261.44371l24.038,3.24008,3.24008-24.038L222.264,238.827a18.20288,18.20288,0,0,0-8.04928,1.11291,12.78579,12.78579,0,0,0-6.87763,11.71907Z" fill="#3a3a3a"/>
    <path d="M320.69215,261.44371l-24.038,3.24008-3.24008-24.038L305.9072,238.827a18.20288,18.20288,0,0,1,8.04928,1.11291,12.78579,12.78579,0,0,1,6.87763,11.71907Z" fill="#3a3a3a"/>
    <rect x="256.60502" y="329.18702" width="14.2263" height="22.94436" fill="#424242"/>
    <path id="6121e040-aa42-40e1-816a-cc87faf6b8c1" data-name="&lt;Path&gt;" d="M263.638,234.20337h-.09059c-8.20767,0-13.51142-4.87019-18.18587-10.88519-3.36187-4.326-7.36374-8.76143-7.36374-14.66441V189.36442a25.5496,25.5496,0,0,1,25.5496-25.5496h.09059a25.5496,25.5496,0,0,1,25.5496,25.5496v19.28935c0,5.903-4.00186,10.3384-7.36374,14.66441C277.14939,229.33318,271.84565,234.20337,263.638,234.20337Z" fill="#feccae"/>
    <ellipse id="7368abe0-7004-4919-871f-d2537069b919" data-name="&lt;Path&gt;" cx="274.25709" cy="198.42492" rx="2.89662" ry="2.55218" fill="#5b5b5b"/>
    <ellipse id="1b6bb4d2-0b4d-4d8a-99ff-bad40f0588e6" data-name="&lt;Path&gt;" cx="252.92826" cy="198.42492" rx="2.89662" ry="2.55218" fill="#5b5b5b"/>
    <ellipse id="fbc1e2cc-b27a-477b-be23-5d679c858e57" data-name="&lt;Path&gt;" cx="276.01104" cy="204.82837" rx="1.51586" ry="3.5901" transform="translate(44.36772 458.7538) rotate(-84.20657)" fill="#f9bfa2"/>
    <path id="9408746d-de32-406d-8430-ab388e684493" data-name="&lt;Path&gt;" d="M266.88664,219.67235h-6.58792a.74835.74835,0,1,1,0-1.4967h6.58792a.74835.74835,0,1,1,0,1.4967Z" fill="#eaa688"/>
    <path d="M263.59268,211.86926h0a2.91464,2.91464,0,0,1-2.90972-2.74535l-.66086-11.35911a2.91464,2.91464,0,0,1,2.90972-3.08392h1.32172a2.91464,2.91464,0,0,1,2.90972,3.08392l-.66086,11.35911A2.91464,2.91464,0,0,1,263.59268,211.86926Z" fill="#f9bfa2"/>
    <rect x="258.29515" y="207.63098" width="7.45239" height="4.23828" rx="2.11914" ry="2.11914" fill="#f9bfa2"/>
    <path d="M291.47731,197.89238H289.193V207.9151h1.3027c1.96,0,3.64726-1.78327,4.03081-4.26006l.121-.78169C295.04667,200.2961,293.51676,197.89238,291.47731,197.89238Z" fill="#f9bfa2"/>
    <path d="M235.71349,197.89238h2.28429V207.9151h-1.3027c-1.96,0-3.64726-1.78327-4.03081-4.26006l-.121-.78169C232.14413,200.2961,233.674,197.89238,235.71349,197.89238Z" fill="#f9bfa2"/>
    <rect x="270.64203" y="194.89376" width="10.24045" height="2.1875" rx="1.01041" ry="1.01041" fill="#5b5b5b"/>
    <rect x="246.80804" y="194.89376" width="10.24045" height="2.1875" rx="1.01041" ry="1.01041" fill="#5b5b5b"/>
    <ellipse id="3f6a44c1-8536-422b-a3ac-597c39793670" data-name="&lt;Path&gt;" cx="251.08292" cy="204.82837" rx="3.5901" ry="1.51586" transform="translate(-19.39336 26.39106) rotate(-5.79343)" fill="#f9bfa2"/>
    <rect x="260.85871" y="225.34222" width="5.46794" height="2" rx="0.79577" ry="0.79577" fill="#f9bfa2"/>
    <g>
      <path id="ce7bdd1a-9cd3-46aa-b292-dc5bbb7126b7" data-name="&lt;Path&gt;" d="M270.95635,154.02908H256.23449c-10.07186,0-18.23672,10.57319-18.23672,21.14875V193.664h4.56052l.716-12.80893a2.67658,2.67658,0,0,1,3.72019-2.56669l10.62173,4.82263a14.40787,14.40787,0,0,0,11.95841,0l10.62169-4.82262a2.67658,2.67658,0,0,1,3.72019,2.56669l.716,12.80892H289.193V173.17779C289.193,162.60225,281.02818,154.02908,270.95635,154.02908Z" fill="#3a3a3a"/>
      <path d="M264.97752,184.42809h-1.92395a15.06133,15.06133,0,0,1-13.32465-8.04012l-.7836-1.48709a1.25389,1.25389,0,0,1,1.28493-1.82606l5.72559.80991a3.146,3.146,0,0,0,2.60543-.83226l3.5526-3.36912a2.76358,2.76358,0,0,1,3.80336,0l3.5526,3.36912a3.146,3.146,0,0,0,2.60543.83226l5.72559-.80991a1.25389,1.25389,0,0,1,1.28493,1.82606l-.7836,1.48709A15.06133,15.06133,0,0,1,264.97752,184.42809Z" fill="#333"/>
      <polygon points="289.193 206.502 285.376 206.502 284.633 193.664 289.193 193.664 289.193 206.502" fill="url(#e77795f5-59f5-4a21-8126-171ee23196d7)"/>
      <polygon points="237.998 206.502 241.815 206.502 242.558 193.664 237.998 193.664 237.998 206.502" fill="url(#8a62750d-a8b5-4ae0-a4db-a7b4fdb3a5bd)"/>
    </g>
  </g>
  <path d="M393.07414,381.14379V287.58831H135.07389v93.7088a14.86061,14.86061,0,0,0-11.468,14.46045h281.6665A14.86033,14.86033,0,0,0,393.07414,381.14379Z" fill="#b47860"/>
  <g opacity="0.5">
    <g clip-path="url(#035c2b8c-f181-4c6d-854d-2170730fb5d4)">
      <g>
        <g>
          <path d="M321.389,608.55771c2.36693-18.05432,6.15787-23.20845-5.08507-74.59382s-13.314-96.38228-4.14213-141.657,5.62145-69.77357,5.62145-92.9682" fill="none" stroke="#aa6f5b" stroke-linecap="round" stroke-linejoin="round" stroke-width="1.75"/>
          <path d="M323.777,367.58641c3.0351-40.83052,0-51.27075,0-68.24767" fill="none" stroke="#aa6f5b" stroke-linecap="round" stroke-linejoin="round" stroke-width="1.75"/>
          <path d="M321.92543,378.14124s-7.69255,41.1083-8.28427,64.99555,1.47932,53.60742,8.28427,90.27158,10.05948,32.22,4.438,76.38365-4.91915,54.99622-4.97445,69.4397-3.014,16.11-2.12635,31.94226,4.5908,13.61017,4.51438,31.109,0,41.05579,0,41.05579" fill="none" stroke="#aa6f5b" stroke-linecap="round" stroke-linejoin="round" stroke-width="1.75"/>
          <path d="M330.50556,299.33874c1.59112,26.0116,2.98408,55.08757-5.3796,101.3321s-5.86333,82.18545,1.23747,123.016,12.4264,39.99725,5.91733,93.88245-4.74192,54.71848-4.73787,64.99555,7.86215,17.0359,7.6807,26.66483-5.88288,15.5545-5.9908,26.10932.48383,32.0749,1.27278,47.99977" fill="none" stroke="#aa6f5b" stroke-linecap="round" stroke-linejoin="round" stroke-width="1.75"/>
          <path d="M335.22668,299.33874s2.946,43.2494,0,80.469-9.75085,36.94193-8.86325,75.13375,5.00428,57.07942,8.86325,79.02235,9.77635,27.49812,6.226,58.6071-9.59028,43.209-8.28427,82.7721c0,0-.19723,12.12875,3.649,21.29477s4.24072,16.29528.29585,27.96116-3.5504,26.2018-3.35315,31.757,1.46657,26.98275,1.46657,26.98275" fill="none" stroke="#aa6f5b" stroke-linecap="round" stroke-linejoin="round" stroke-width="1.75"/>
          <path d="M341.354,299.33874c1.19025,12.40142,2.46558,65.4701-2.86005,99.63442s-7.678,44.1095-5.46035,70.13325c3.25455,38.19162,8.7149,64.0242,11.08182,72.91247s7.1008,29.998,3.25455,50.82985-7.99178,45.55243-7.39837,68.88418,1.0015,25.46115,2.57265,32.86815,5.31883,10.55483,2.55742,26.29446.59172,48.37,1.97243,62.44322" fill="none" stroke="#aa6f5b" stroke-linecap="round" stroke-linejoin="round" stroke-width="1.75"/>
          <path d="M347.07411,299.33874c.69462,12.40922,3.2545,49.313.4438,75.88605-1.37527,13.0025-8.13635,49.57992-9.02395,63.46785s2.07108,43.33037,4.0503,58.32935,11.33477,53.88518,11.92652,75.2726-5.62147,30.83123-7.5939,52.21865-.3945,37.3123,0,49.1633,4.9311,23.054,4.9311,35.96976-1.18347,11.61962-1.97245,26.98885,2.86005,46.70359,2.86005,46.70359" fill="none" stroke="#aa6f5b" stroke-linecap="round" stroke-linejoin="round" stroke-width="1.75"/>
          <path d="M346.42116,460.08006a148.56071,148.56071,0,0,1,0-50.27432" fill="none" stroke="#aa6f5b" stroke-linecap="round" stroke-linejoin="round" stroke-width="1.75"/>
          <path d="M352.69558,299.33874a462.51714,462.51714,0,0,1,1.81475,70.46975c-2.04,37.5729-9.2443,54.99622,1.86715,93.04918s8.7445,67.2176,7.561,85.54968-8.28428,42.4971-4.14213,88.60505,10.80723,40.82808,7.1008,88.605c-2.241,28.8869,2.07108,57.72132,2.07108,57.72132" fill="none" stroke="#aa6f5b" stroke-linecap="round" stroke-linejoin="round" stroke-width="1.75"/>
          <path d="M362.755,299.33874c1.58687,16.24372,3.84632,44.63737,0,74.91307s-8.45143,60.83.2123,90.55015,11.32648,53.05193,6.00088,99.7154-4.438,59.1626-1.47935,82.77208,8.28428,39.164,5.62148,82.77211c0,0-2.69477,19.6684.72368,53.27719" fill="none" stroke="#aa6f5b" stroke-linecap="round" stroke-linejoin="round" stroke-width="1.75"/>
          <path d="M368.96826,299.33874s3.84625,50.74888-1.47935,84.07993-3.25453,59.44037,1.47935,76.6614,10.05945,27.49813,10.05945,57.49608-7.28915,65.551-7.34293,96.38227,7.6388,54.56955,8.5264,81.44772-1.7752,48.45073-2.07108,62.80168a214.96638,214.96638,0,0,0,.8876,25.13092" fill="none" stroke="#aa6f5b" stroke-linecap="round" stroke-linejoin="round" stroke-width="1.75"/>
          <path d="M396.188,409.80574c-3.84625-22.2207-11.11547-38.09683-14.7933-59.3023-3.68517-21.24773-1.5837-32.83778-2.367-51.1647" fill="none" stroke="#aa6f5b" stroke-linecap="round" stroke-linejoin="round" stroke-width="1.75"/>
          <path d="M372.36668,387.86281a195.09032,195.09032,0,0,0,3.11062-41.1083c-.4306-11.80555-.7092-36.72667-1.64325-47.41577" fill="none" stroke="#aa6f5b" stroke-linecap="round" stroke-linejoin="round" stroke-width="1.75"/>
          <path d="M379.46636,369.80849c.8876,4.16638,5.3256,18.05433,5.3256,18.05433" fill="none" stroke="#aa6f5b" stroke-linecap="round" stroke-linejoin="round" stroke-width="1.75"/>
          <path d="M378.73186,390.91814c-5.3256.55553-11.243,12.7769-7.9884,42.4971s10.05945,41.386,13.314,41.6638,10.94707-35.55313,10.35532-50.55207C393.53566,402.29379,384.05746,390.36264,378.73186,390.91814Z" fill="none" stroke="#aa6f5b" stroke-linecap="round" stroke-linejoin="round" stroke-width="1.75"/>
          <path d="M382.35213,417.30524c-1.1136,3.3331,1.11358,23.33173,4.18823,23.33173s4.322-40.275-6.14888-39.164,1.00317,56.94052,1.00317,56.94052" fill="none" stroke="#aa6f5b" stroke-linecap="round" stroke-linejoin="round" stroke-width="1.75"/>
          <path d="M393.10743,597.01511c.17392-13.05465,4.5599-41.386,4.5599-41.386s8.28425-64.71778,6.2132-115.82537-12.5631-60.17057-16.75263-88.3744c-3.65832-24.628-.3952-36.819-1.29525-52.09055" fill="none" stroke="#aa6f5b" stroke-linecap="round" stroke-linejoin="round" stroke-width="1.75"/>
          <path d="M390.08656,322.86726c0,7.70015,1.48472,19.44847,3.74767,30.5989,4.59388,22.63583,10.7961,32.62308,13.90258,70.95188s1.78515,61.77135,0,84.2698-6.4242,62.218-8.09893,76.1059-5.81682,29.99795-2.5623,58.6071,7.17388,31.66448,7.13733,60.27363,1.14695,79.66427,1.14695,79.66427" fill="none" stroke="#aa6f5b" stroke-linecap="round" stroke-linejoin="round" stroke-width="1.75"/>
          <path d="M404.21291,584.81571s10.2202-71.96147,10.2202-111.12547-1.97245-66.66208-11.14432-103.88175a378.29818,378.29818,0,0,1-10.18135-70.46975" fill="none" stroke="#aa6f5b" stroke-linecap="round" stroke-linejoin="round" stroke-width="1.75"/>
          <path d="M399.48211,299.33874a379.51617,379.51617,0,0,0,8.73777,64.359c7.69255,33.33105,11.04573,71.10625,11.04573,92.77143s-1.263,59.71812.99575,84.43865,10.54305,53.32968,10.83893,85.27193-9.6829,54.91093-12.22917,68.236c-2.67147,13.98056-2.56417,58.73973-1.57795,88.92292" fill="none" stroke="#aa6f5b" stroke-linecap="round" stroke-linejoin="round" stroke-width="1.75"/>
          <path d="M405.35986,299.33874c.3564,12.1535,5.8187,67.69215,13.11678,68.24767s-1.38072-44.2267-1.18347-68.24767" fill="none" stroke="#aa6f5b" stroke-linecap="round" stroke-linejoin="round" stroke-width="1.75"/>
          <path d="M410.99451,304.44261s2.551,31.29413,6.1014,49.6262" fill="none" stroke="#aa6f5b" stroke-linecap="round" stroke-linejoin="round" stroke-width="1.75"/>
          <path d="M418.87111,401.45039c.789-21.4574-3.94487-30.53088-3.94487-30.53088" fill="none" stroke="#aa6f5b" stroke-linecap="round" stroke-linejoin="round" stroke-width="1.75"/>
          <path d="M425.54391,299.33874s2.79493,36.21285.62525,62.8777-4.3394,38.3307-2.36692,63.6993,4.73388,26.47965,6.50907,58.14415-.3945,38.1455,2.36692,61.107,6.3118,59.2551,5.72008,76.84655-6.7063,46.29307-9.46775,72.4024.2779,50.92248,1.81552,67.95838,1.34042,20.96455,1.34042,20.96455" fill="none" stroke="#aa6f5b" stroke-linecap="round" stroke-linejoin="round" stroke-width="1.75"/>
          <path d="M432.08651,299.33874s2.8639,41.75582-.97977,75.50183-.30232,52.18622,2.65635,70.796,3.25453,42.12678,2.95865,58.14415,2.6628,48.4535,4.438,68.483,7.543,39.43673-2.6961,99.4684a294.83961,294.83961,0,0,0-3.22123,67.77313c2.6628,36.38639,3.4838,36.33392,3.22123,43.83339" fill="none" stroke="#aa6f5b" stroke-linecap="round" stroke-linejoin="round" stroke-width="1.75"/>
          <path d="M438.46363,299.33874s2.92537,36.03457,0,68.25113-5.33505,30.55-.284,67.35305,3.86765,52.911,4.16352,72.35512,9.46772,74.44035,9.17188,111.66-5.01615,43.33035-8.12955,67.77313-3.70513,34.16433-2.81752,51.66313,4.38178,31.88977,3.81817,44.94442" fill="none" stroke="#aa6f5b" stroke-linecap="round" stroke-linejoin="round" stroke-width="1.75"/>
          <path d="M441.75148,414.52764c-2.07108-29.16467,2.36692-21.94293,5.62145-42.49707s2.6628-72.69182,2.6628-72.69182" fill="none" stroke="#aa6f5b" stroke-linecap="round" stroke-linejoin="round" stroke-width="1.75"/>
          <path d="M442.34321,375.36366c4.14213-29.44243,2.043-76.02492,2.043-76.02492" fill="none" stroke="#aa6f5b" stroke-linecap="round" stroke-linejoin="round" stroke-width="1.75"/>
          <path d="M448.81941,389.25159c-3.1395.6944-3.8134,4.7219-3.07373,18.33207s3.9942,20.9708,5.7764,20.83193,5.61447-1.52767,5.02272-17.77657S452.76286,388.37939,448.81941,389.25159Z" fill="none" stroke="#aa6f5b" stroke-linecap="round" stroke-linejoin="round" stroke-width="1.75"/>
          <path d="M449.59193,409.87519s.59175,16.04055,2.95868,12.29082-1.5115-24.58165-1.5115-24.58165" fill="none" stroke="#aa6f5b" stroke-linecap="round" stroke-linejoin="round" stroke-width="1.75"/>
          <path d="M452.69856,434.03076c-1.65945,8.27275-2.51488,15.07785-6.06527,13.9668s-4.29008-28.05363-4.29008-28.05363" fill="none" stroke="#aa6f5b" stroke-linecap="round" stroke-linejoin="round" stroke-width="1.75"/>
          <path d="M451.03911,523.40906s-5.1455-33.0533-2.2197-55.83155,12.75515-27.49607,13.051-53.04987-7.69252-31.38673-7.1008-56.5239,2.36695-58.665,2.36695-58.665" fill="none" stroke="#aa6f5b" stroke-linecap="round" stroke-linejoin="round" stroke-width="1.75"/>
          <path d="M464.23736,299.33874s-2.2782,36.69277-2.3589,48.6657a167.11725,167.11725,0,0,0,2.9638,33.7931c2.219,12.2214,4.7207,16.89785,4.7207,35.3688s-5.02975,30.83123-10.50327,47.35788-3.5504,38.60845-2.07108,55.55175,4.29008,41.52492,5.91735,68.46752.59172,58.4682-1.18347,75.82813-8.72807,34.44208-11.68322,41.52493-4.73738,13.749-1.77873,27.77587,9.76362,15.5545,13.462,28.8869,2.51487,20.77942,2.51487,20.77942" fill="none" stroke="#aa6f5b" stroke-linecap="round" stroke-linejoin="round" stroke-width="1.75"/>
          <path d="M470.54918,299.33874c0,15.4491-2.94553,26.53675.13645,62.13617,3.77385,43.59157,7.45745,41.38685,4.20292,73.468s-12.11447,32.26632-13.0101,58.00525,5.72072,49.07072,7.1464,76.01332,1.4257,70.82848,3.49675,95.27125,6.70632,39.07136,9.86225,48.14488,7.49528,12.962,4.73388,28.3314-5.52287,24.29765-4.93115,42.62972" fill="none" stroke="#aa6f5b" stroke-linecap="round" stroke-linejoin="round" stroke-width="1.75"/>
          <path d="M481.46591,419.94394c.5362-20.68082-2.67023-46.46382-3.86518-69.30162-1.18037-22.558-.34233-42.24257-.937-51.30357" fill="none" stroke="#aa6f5b" stroke-linecap="round" stroke-linejoin="round" stroke-width="1.75"/>
          <path d="M498.20738,660.02226a380.89424,380.89424,0,0,0-3.2393-44.88337c-1.93937-14.58287-4.31795-20.71623-5.09792-40.15932s10.2657-50.73722,12.43537-65.7362,2.5642-37.03448,1.38074-53.51488-2.95866-52.589-3.74766-67.86568-2.8522-63.1143.39452-88.52407" fill="none" stroke="#aa6f5b" stroke-linecap="round" stroke-linejoin="round" stroke-width="1.75"/>
          <path d="M483.63306,450.72884c-.92048,7.40693,2.69567,14.81385,6.19775,12.59178s.24558-27.03523-1.8332-45.92282-2.65508-45.55243-3.83855-64.99555-.38133-34.73658-1.97248-53.0635" fill="none" stroke="#aa6f5b" stroke-linecap="round" stroke-linejoin="round" stroke-width="1.75"/>
          <path d="M485.42646,561.04536a145.94414,145.94414,0,0,1,2.57115-27.91475c2.8678-14.58232,9.081-27.72955,9.82065-49.62625s-1.62725-47.98077-2.81072-60.77022-2.6108-53.57463-3.31933-72.09183" fill="none" stroke="#aa6f5b" stroke-linecap="round" stroke-linejoin="round" stroke-width="1.75"/>
          <path d="M490.07638,299.33874c1.61182,13.0495,1.61182,44.916,1.61182,44.916" fill="none" stroke="#aa6f5b" stroke-linecap="round" stroke-linejoin="round" stroke-width="1.75"/>
          <path d="M507.286,299.33874c-1.91,20.549-1.92314,51.44327-1.92314,62.83137s1.03553,50.27433,1.80856,61.38468,2.77738,42.35823,3.8129,56.94055-.14792,30.41458-1.3314,42.91373-7.9884,28.748-9.17187,39.85838,3.99421,28.60915,5.17768,40.13612,2.219,39.7195,2.95867,54.02408,1.92312,31.80337,4.23705,42.4971.64475,18.74871-.09492,23.841-1.18345,12.12875,0,30.87746.8876,28.69554.8876,28.69554" fill="none" stroke="#aa6f5b" stroke-linecap="round" stroke-linejoin="round" stroke-width="1.75"/>
          <path d="M526.764,538.52074a96.85072,96.85072,0,0,1-5.91742-15.94495c-4.93113-18.7024-6.50908-99.62283-6.81005-118.51042s-1.5728-73.34505-.38935-104.72663" fill="none" stroke="#aa6f5b" stroke-linecap="round" stroke-linejoin="round" stroke-width="1.75"/>
          <path d="M526.764,517.49176a138.23054,138.23054,0,0,1-2.46563-17.97c-3.25482-40.79683-2.98265-174.35667-4.04352-200.18307" fill="none" stroke="#aa6f5b" stroke-linecap="round" stroke-linejoin="round" stroke-width="1.75"/>
          <path d="M359.64843,355.22534c.83707-16.01745-.3474-35.472-2.51485-55.8866" fill="none" stroke="#aa6f5b" stroke-linecap="round" stroke-linejoin="round" stroke-width="1.75"/>
          <path d="M311.96243,359.48469c.9862-15.61695,0-60.14595,0-60.14595" fill="none" stroke="#aa6f5b" stroke-linecap="round" stroke-linejoin="round" stroke-width="1.75"/>
          <path d="M307.45581,389.16954s2.83-11.75328,1.05482-21.578-2.10965-68.25282-2.10965-68.25282" fill="none" stroke="#aa6f5b" stroke-linecap="round" stroke-linejoin="round" stroke-width="1.75"/>
          <path d="M303.77676,356.47606c-1.70122-21.00137-3.40247-34.8893-3.40247-57.13732" fill="none" stroke="#aa6f5b" stroke-linecap="round" stroke-linejoin="round" stroke-width="1.75"/>
        </g>
        <g>
          <path d="M42.72563,299.33961c.00305.075,1.97263,48.00555,2.26828,92.96732.29585,44.99693,1.18345,108.5111,5.91732,127.86158s10.12882,21.943,9.79828,43.14517C60.379,584.516,53.27818,580.72,55.941,613.31026s7.1008,37.03453,9.46773,85.0868-2.36693,41.61133,0,84.94167" fill="none" stroke="#aa6f5b" stroke-linecap="round" stroke-linejoin="round" stroke-width="1.75"/>
          <path d="M50.19093,359.48469c1.87993-21.11055-.14222-42.24557-1.0549-60.14595" fill="none" stroke="#aa6f5b" stroke-linecap="round" stroke-linejoin="round" stroke-width="1.75"/>
          <path d="M65.40871,299.33874c.68325,8.53592.1972,38.62-.789,49.1749s-5.12832,15.92487-5.09352,27.59073,4.89625,15.1841,6.56578,25.73895.79608,24.07243,0,54.13982S71.326,558.12889,70.14258,584.81571s-6.80495,28.03165-6.80495,45.11383,8.58268,51.95795,9.02647,80.70451-1.33132,52.58007,0,72.70469" fill="none" stroke="#aa6f5b" stroke-linecap="round" stroke-linejoin="round" stroke-width="1.75"/>
          <path d="M65.11283,590.50636c.14795,5.12-.67033,20.53557-4.40333,20.53557-2.54953,0-1.38065-17.14373.8036-25.33763s3.33622-11.88205,3.61593-25.21447-1.64345-44.3025-2.2352-56.5239-3.03725-36.52525-2.18432-61.66242.47877-31.24785-1.18333-39.7195S53.426,388.835,53.42611,378.00236c.00015-17.08215,3.88665-24.06212,4.8818-33.74767,1.78835-17.40625-1.17032-33.533-1.47933-44.916" fill="none" stroke="#aa6f5b" stroke-linecap="round" stroke-linejoin="round" stroke-width="1.75"/>
          <path d="M58.012,522.02026s-2.81072-29.10853-3.9942-46.4965-1.18345-25.72078-1.3314-37.10888,1.2328-27.041-1.44055-43.97845" fill="none" stroke="#aa6f5b" stroke-linecap="round" stroke-linejoin="round" stroke-width="1.75"/>
          <path d="M72.36411,299.33874c.45443,9.85528-.15377,38.11215-.89647,50.19782-.59175,9.629-5.37568,14.16123-5.486,25.45677-.152,15.55863,6.92232,15.9248,7.90852,23.51685s-.78895,64.06063-.1972,89.43377,2.56413,57.408,2.36693,81.29528-.9334,33.70145-3.62262,41.1083-8.80653,22.76455,2.95795,52.03352c10.05945,25.027,8.15995,49.99778,8.35723,72.21781s.78893,48.73987.78893,48.73987" fill="none" stroke="#aa6f5b" stroke-linecap="round" stroke-linejoin="round" stroke-width="1.75"/>
          <path d="M77.04611,361.29054c-4.3394.18518-5.91733,6.48107-6.1146,13.79537s2.5642,15.18415,6.1146,14.999,6.50907-6.38845,6.41048-13.5176S82.36623,361.06356,77.04611,361.29054Z" fill="none" stroke="#aa6f5b" stroke-linecap="round" stroke-linejoin="round" stroke-width="1.75"/>
          <path d="M76.05991,367.40121c-1.28213,2.9628-2.27593,17.40625,1.13038,17.31367s2.12417-11.5733,2.12417-11.5733" fill="none" stroke="#aa6f5b" stroke-linecap="round" stroke-linejoin="round" stroke-width="1.75"/>
          <path d="M78.82131,299.33874c.05865,16.93812-2.35377,46.6541.72962,53.38757,4.03437,8.81038,8.34365,11.34053,8.34365,22.96075s-8.403,18.98082-8.34365,27.59135-.53235,52.913-.53235,71.10622,1.62727,67.77312,2.219,79.30013,1.3314,31.38672-.59172,43.46925-8.19523,21.66882-6.95288,38.60845c1.5673,21.3721,10.14608,29.44243,12.1678,38.46958s3.0333,31.94226,3.1992,42.35823.90568,66.74847.90568,66.74847" fill="none" stroke="#aa6f5b" stroke-linecap="round" stroke-linejoin="round" stroke-width="1.75"/>
          <path d="M84.54138,299.33874c.70355,16.66037-2.15653,35.888.90075,48.29447,2.23243,9.05925,7.75935,12.87,7.75935,27.03565s-7.0821,21.94335-7.378,35.49037c-.235,10.7582-.29585,60.1979-.29585,81.30757s2.95865,104.43728,5.72005,112.0294c2.7614,7.592,7.1008,12.4065,7.69255,31.8496s-5.31007,28.51653-5.3178,37.4048-.03713,23.93608.92912,44.44928c.95137,20.19677,1.82447,52.06565,1.43,66.13884" fill="none" stroke="#aa6f5b" stroke-linecap="round" stroke-linejoin="round" stroke-width="1.75"/>
          <path d="M91.59291,416.19419c.73967-17.35992,6.95287-26.66482,7.389-41.80267s-2.8496-16.78813-6.5376-30.13682c-3.74768-13.56475-2.10285-24.27433-2.47867-44.916" fill="none" stroke="#aa6f5b" stroke-linecap="round" stroke-linejoin="round" stroke-width="1.75"/>
          <path d="M98.98193,549.05549s-.63342-45.3673-1.00482-61.11153-1.00933-32.4006-1.00933-51.65857,4.14213-37.7752,6.50908-49.99658,2.95868-24.99827-2.7614-38.1455-4.93115-42.69387-4.73388-48.80457" fill="none" stroke="#aa6f5b" stroke-linecap="round" stroke-linejoin="round" stroke-width="1.75"/>
          <path d="M102.29338,440.16776a187.435,187.435,0,0,1,5.91735-45.73133c4.15042-15.0461,3.60412-34.3312,0-49.21042-3.60063-14.8647-4.586-34.03622-4.78315-45.88727" fill="none" stroke="#aa6f5b" stroke-linecap="round" stroke-linejoin="round" stroke-width="1.75"/>
          <path d="M108.69953,422.27281s1.87812-11.72635,2.78565-15.42985,4.8126-19.99863,5.0098-34.9976-1.38065-25.73892-3.7476-37.96033-2.74752-22.33007-2.7476-34.5463" fill="none" stroke="#aa6f5b" stroke-linecap="round" stroke-linejoin="round" stroke-width="1.75"/>
          <path d="M115.90326,299.33874c.19728,8.14763,1.18348,29.17625,3.15593,44.36042a229.09763,229.09763,0,0,1,1.7752,43.70068c-.789,15.9249-6.1146,32.77555-11.24292,45.73762s-7.29807,28.1462-6.3118,39.44175,8.087,40.55277,10.6512,51.478,5.5228,35.18273,3.15587,48.14475-4.5366,20.369-2.16967,29.6277c2.36693,9.25852,10.25675,26.29442,10.6512,38.51582s0,41.6406,0,53.2255,1.7752,79.95358,1.57792,89.76775" fill="none" stroke="#aa6f5b" stroke-linecap="round" stroke-linejoin="round" stroke-width="1.75"/>
          <path d="M121.42613,299.33874c.19728,10.92523,1.7752,32.32425,3.35313,48.24905s3.3532,32.4052.98628,50.73727-11.4004,37.4048-14.28035,49.81138-3.27445,27.96107,1.85395,49.81138,9.27047,39.627,9.8622,55.36655-5.3704,32.9958-5.05213,41.0333,11.16673,26.36957,12.74465,37.85017a142.93565,142.93565,0,0,1,1.38075,20.369" fill="none" stroke="#aa6f5b" stroke-linecap="round" stroke-linejoin="round" stroke-width="1.75"/>
          <path d="M133.65526,299.33874c-.39445,6.29587-5.31245,10.149-4.5366,27.5097.6288,14.07172,3.74767,25.27652,4.14215,49.20982s-6.70635,45.59855-10.84847,55.783a93.79625,93.79625,0,0,0-7.30768,40.18245c.6014,17.22105,6.32147,34.9976,9.87188,49.99658s5.12833,31.84962,3.35312,46.47835c-1.7752,14.62857-5.7775,23.702-4.1708,30.183s12.65235,22.40583,12.8496,32.77555,1.38067,29.25728,1.578,46.84858.19725,30.36836,0,43.88588c-.19728,13.5177.789,45.59257,1.18345,61.14707" fill="none" stroke="#aa6f5b" stroke-linecap="round" stroke-linejoin="round" stroke-width="1.75"/>
          <path d="M136.21946,396.92089c0,15.18415-6.80485,24.7027-4.57855,28.5913s7.05,5.74037,8.53425,3.88862-3.33948-11.851-3.33948-11.851" fill="none" stroke="#aa6f5b" stroke-linecap="round" stroke-linejoin="round" stroke-width="1.75"/>
          <path d="M139.76986,299.33874c-.48,8.23505-6.8102,14.59312-5.72,27.5097.9565,11.3342,5.12832,25.5538,5.72,39.44175s-.9862,30.16538,3.94487,53.69118,11.4402,32.414,10.84848,61.30092-3.74768,33.14592-7.49527,43.51558-5.13635,19.258-2.864,34.6272,12.529,31.47938,13.71242,46.2932-5.3256,27.0351-4.931,35.55313.9862,36.66415,1.38065,56.47753.789,68.18353,1.578,85.58982" fill="none" stroke="#aa6f5b" stroke-linecap="round" stroke-linejoin="round" stroke-width="1.75"/>
          <path d="M160.67781,481.46749c0-10.97147-1.3314-28.05363-4.29008-41.29972s-7.9884-26.05675-9.3198-39.11142,0-28.748-1.13428-39.164-6.11445-23.33173-7.15-34.16433,6.21322-19.78393,6.70628-28.3893" fill="none" stroke="#aa6f5b" stroke-linecap="round" stroke-linejoin="round" stroke-width="1.75"/>
          <path d="M144.99688,315.75309c3.9942-1.98243,9.61565,2.11452,9.61565,2.11452-2.51485-3.83263-3.01508-11.98913-3.59973-18.52887" fill="none" stroke="#aa6f5b" stroke-linecap="round" stroke-linejoin="round" stroke-width="1.75"/>
          <path d="M148.69521,319.673c-4.58593,0-6.80492,3.472-6.2132,8.54107s3.5504,9.23548,7.19512,8.54108,5.23128-1.80543,6.11888-6.944S152.58668,319.673,148.69521,319.673Z" fill="none" stroke="#aa6f5b" stroke-linecap="round" stroke-linejoin="round" stroke-width="1.75"/>
          <path d="M145.93366,326.84844c-.04918,3.37942.24667,7.12917,3.871,6.57365s3.3285-8.33275,0-9.9993" fill="none" stroke="#aa6f5b" stroke-linecap="round" stroke-linejoin="round" stroke-width="1.75"/>
          <path d="M150.61833,344.51136c1.3314-3.74975-4.438-3.74975-4.68467-2.0832s2.61362,5.27742,3.21957,9.99932" fill="none" stroke="#aa6f5b" stroke-linecap="round" stroke-linejoin="round" stroke-width="1.75"/>
          <path d="M163.48856,674.232c-.73968-12.36025-.8876-32.22,3.5504-47.219a59.81021,59.81021,0,0,0,0-35.55313c-2.6628-9.166-7.24875-20.97078-9.69225-37.49743s.96417-20.27638,4.6625-34.16432,4.8818-35.83087,3.69835-52.913-3.99422-28.3314-7.64718-44.4414-4.9162-23.97018-5.0845-33.15168c-.17075-9.32025-.28648-21.98343.30525-30.45508s5.7694-20.693,7.39667-30.58492-3.43865-18.9183-4.73388-28.91335" fill="none" stroke="#aa6f5b" stroke-linecap="round" stroke-linejoin="round" stroke-width="1.75"/>
          <path d="M158.90261,353.51329c12.88458-34.92885,4.332-39.95175,4.25315-52.03345" fill="none" stroke="#aa6f5b" stroke-linecap="round" stroke-linejoin="round" stroke-width="1.75"/>
          <path d="M168.73976,312.03466a102.23413,102.23413,0,0,1,1.4058-12.69592" fill="none" stroke="#aa6f5b" stroke-linecap="round" stroke-linejoin="round" stroke-width="1.75"/>
          <path d="M168.07448,450.62094c-2.1303-20.1375-9.36915-43.4076-10.0141-63.2211s3.60362-30.18305,8.10512-44.8117,7.72765-34.62727,7.72765-41.1083" fill="none" stroke="#aa6f5b" stroke-linecap="round" stroke-linejoin="round" stroke-width="1.75"/>
          <path d="M163.83368,567.01719c-2.56415-13.33242-3.5504-28.51652,3.3532-48.69885s5.5228-57.59017,5.5228-57.59017c-.39447-27.77587-9.46775-56.10727-10.17563-73.51345s5.44175-35.18277,9.18943-46.66345,5.23323-27.6949,6.02215-41.21252" fill="none" stroke="#aa6f5b" stroke-linecap="round" stroke-linejoin="round" stroke-width="1.75"/>
          <path d="M178.627,461.53831c-.78892-19.9292-4.33933-26.17877-7.298-45.34413s-4.3394-41.57125,1.18348-60.5514,11.99575-33.193,11.04567-54.16295" fill="none" stroke="#aa6f5b" stroke-linecap="round" stroke-linejoin="round" stroke-width="1.75"/>
          <path d="M191.64516,299.33874c0,9.28,0,14.7783-6.50907,36.02767-5.91,19.2937-11.83468,42.4045-10.45393,62.03275s8.087,47.03385,8.876,61.66242,2.5642,34.6273-4.93115,59.25675-5.91732,38.69952-3.5504,54.6244,7.29808,30.3682,7.1008,47.12188-.78893,31.2061-7.69253,43.2422c-6.90353,12.03628-12.02247,26.2942-11.2503,43.14526.99363,21.68525,20.17563,42.75952,20.32358,58.1442.1139,11.85195-5.12835,13.1873-5.81252,18.74247" fill="none" stroke="#aa6f5b" stroke-linecap="round" stroke-linejoin="round" stroke-width="1.75"/>
          <path d="M178.627,549.05549c.19728-7.5921,2.5642-19.258,4.93115-27.77593s5.3256-27.77587,5.83218-50.3669-8.79085-70.73593-8.98812-80.8246,4.14215-27.131,8.98812-45.11675c4.84582-17.98582,8.17215-33.4112,7.58042-45.63257" fill="none" stroke="#aa6f5b" stroke-linecap="round" stroke-linejoin="round" stroke-width="1.75"/>
          <path d="M203.67708,299.33874c0,10.55482-1.93425,22.88167-7.29805,42.87908-3.99377,14.88972-9.348,31.2941-9.40787,46.10795s5.72008,43.88588,7.2681,67.0324-2.5941,51.65452-2.5941,59.62558c0,10.36962,4.8467,21.48,3.70547,38.88615s-5.08615,26.45625-4.88895,36.55985,2.76148,21.214,2.76148,35.1019-2.16975,23.33173,1.02787,37.77517c3.544,16.00775,7.65085,39.99728,7.2564,58.14423s-5.91735,42.07419-4.53668,61.88769" fill="none" stroke="#aa6f5b" stroke-linecap="round" stroke-linejoin="round" stroke-width="1.75"/>
          <path d="M210.82723,299.33874c-.1348,19.11478-6.7239,35.90445-10.8978,52.6932-3.6228,14.57187-7.58073,31.80255-6.50907,42.4045,1.3649,13.5025,5.91733,45.1358,6.31188,67.10188s.78713,74.74028.788,87.51718-1.3798,63.8845-1.97153,75.36513.84165,37.96045,2.985,49.81142,5.102,27.03523,5.29925,41.4787-1.7752,34.06938-2.76147,44.90318a188.3109,188.3109,0,0,0-.39447,22.72482" fill="none" stroke="#aa6f5b" stroke-linecap="round" stroke-linejoin="round" stroke-width="1.75"/>
          <path d="M198.85778,394.43644c-.19728-9.25865,2.50242-19.0649,4.42485-29.99793,1.57108-8.93542,6.96572-29.87895,8.59328-39.90552" fill="none" stroke="#aa6f5b" stroke-linecap="round" stroke-linejoin="round" stroke-width="1.75"/>
          <path d="M211.76408,479.24541c0-19.4431-3.74758-28.7017-6.11452-43.33035a186.43384,186.43384,0,0,1-1.7752-39.812c.59172-12.03627,7.76455-32.91823,10.6512-56.6647,2.6053-21.43265,3.5504-28.24852,3.15588-40.09957" fill="none" stroke="#aa6f5b" stroke-linecap="round" stroke-linejoin="round" stroke-width="1.75"/>
          <path d="M212.75036,384.71529c9.04525-31.71738,10.54892-63.61535,10.6512-85.37655" fill="none" stroke="#aa6f5b" stroke-linecap="round" stroke-linejoin="round" stroke-width="1.75"/>
          <path d="M210.18616,394.43644a134.409,134.409,0,0,0,0,38.14553c2.367,15.73967,6.50907,32.22,6.90355,52.77415s-.78895,82.03145-2.367,97.03043-4.311,46.66347-5.90318,59.81062c-1.5921,13.1473.77485,31.29425,6.88945,47.03385s4.14212,38.14558,3.15588,50.73722-1.18348,32.0749-1.18348,43.3705" fill="none" stroke="#aa6f5b" stroke-linecap="round" stroke-linejoin="round" stroke-width="1.75"/>
          <path d="M221.23183,569.23924c.789-14.44345.98628-80.55-.21322-98.32658s-5.70413-32.96072-6.86533-53.14447,4.90888-33.14592,9.44548-50.367,4.3394-58.8038,4.53668-68.06248" fill="none" stroke="#aa6f5b" stroke-linecap="round" stroke-linejoin="round" stroke-width="1.75"/>
          <path d="M232.95671,299.33874c.01445,14.716-.67912,30.42435-.67912,45.63257s-2.367,31.31817-7.29807,40.94718-6.47065,27.03517-5.01053,42.21932,6.12412,30.73865,6.65215,63.5142,1.66223,54.9499,1.0705,76.75395-2.219,32.77555-3.5504,44.99693-8.28428,27.22035-6.80492,43.0526,11.1936,37.31163,12.77152,54.39406-2.16968,57.49022-1.9724,72.48919" fill="none" stroke="#aa6f5b" stroke-linecap="round" stroke-linejoin="round" stroke-width="1.75"/>
          <path d="M233.65823,509.05816c.19727-6.85133-.39447-19.99863-1.11773-32.0348s-.65747-21.48,6.26868-41.1083,4.71133-35.92345,1.16093-46.66348-1.97248-20.55412-1.97248-37.40485,1.03555-41.02725.64108-52.508" fill="none" stroke="#aa6f5b" stroke-linecap="round" stroke-linejoin="round" stroke-width="1.75"/>
          <path d="M243.32808,356.47606c-.58683-20.55415,1.1696-41.31077.96938-57.13732" fill="none" stroke="#aa6f5b" stroke-linecap="round" stroke-linejoin="round" stroke-width="1.75"/>
          <path d="M243.32808,365.91986a83.23738,83.23738,0,0,0,3.74283,25.5538c3.9942,13.05467,1.92312,30.13682-2.36693,42.77485s-6.36115,22.63733-6.2132,34.581,1.47933,36.3864.8876,48.05227.14792,27.22035-.29588,42.08045-2.01327,35.692-2.6339,47.7745-.9165,18.7487,2.04217,27.08147,3.40245,20.41525-.4438,34.44208-.148,20.41525,1.62725,32.08113a146.13956,146.13956,0,0,1,1.47935,31.94225c-.59175,11.11035-2.367,38.04672-2.51487,51.05512" fill="none" stroke="#aa6f5b" stroke-linecap="round" stroke-linejoin="round" stroke-width="1.75"/>
          <path d="M233.16518,374.39151s-.59175,7.49947,1.03552,12.91577" fill="none" stroke="#aa6f5b" stroke-linecap="round" stroke-linejoin="round" stroke-width="1.75"/>
          <path d="M232.29521,391.49524c-5.1909.85985-7.5681,9.00437-8.0046,21.2153s3.80785,22.1746,6.2725,21.53342,6.90455-4.15668,7.19522-20.26465S236.06641,390.87061,232.29521,391.49524Z" fill="none" stroke="#aa6f5b" stroke-linecap="round" stroke-linejoin="round" stroke-width="1.75"/>
          <path d="M232.90116,415.402c.871-3.454,3.16987-17.01795-1.52707-16.28632s-3.08363,22.43757-.06213,26.80955" fill="none" stroke="#aa6f5b" stroke-linecap="round" stroke-linejoin="round" stroke-width="1.75"/>
          <path d="M244.46148,554.79579s.83423-16.4804,1.2287-38.88623-1.97248-48.70032-.9862-60.5514,8.28428-20.73933,10.25665-43.88588-4.5366-26.2945-6.50905-51.66312.75685-30.385.75685-60.47042" fill="none" stroke="#aa6f5b" stroke-linecap="round" stroke-linejoin="round" stroke-width="1.75"/>
          <path d="M249.895,560.53609c.45718-10.74,2.30423-34.44207,1.90977-55.92205s-1.578-35.92345,0-49.99657,9.66493-31.84963,9.66493-50.73723-6.11453-28.8869-7.1008-50.36695,4.09838-39.2733,4.14212-54.17455" fill="none" stroke="#aa6f5b" stroke-linecap="round" stroke-linejoin="round" stroke-width="1.75"/>
          <path d="M259.04276,334.51971c-.2045,5.37932.351,26.66855,3.12243,38.0692" fill="none" stroke="#aa6f5b" stroke-linecap="round" stroke-linejoin="round" stroke-width="1.75"/>
          <path d="M255.58561,543.68544c4.17535-9.0734,4.8979-17.77655,4.70062-31.84967s-3.15585-35.55313-1.57792-55.57488,8.48155-42.75173,8.876-62.75035-2.95865-31.109-3.94485-52.40377-.43065-30.9406-.789-41.768" fill="none" stroke="#aa6f5b" stroke-linecap="round" stroke-linejoin="round" stroke-width="1.75"/>
          <path d="M271.92371,299.33874s.309,22.41668,1.77523,40.09957c1.43872,17.35288,4.931,37.5919,5.72005,53.33158s-3.74768,29.072-7.29808,48.33a170.45558,170.45558,0,0,0-1.42175,52.40378c1.93142,16.11,1.22455,25.739,0,41.29348s-9.03217,12.962-12.45177,33.51617,1.6444,40.55277,7.03175,55.55175,9.406,22.59107,10.58945,47.219-.789,33.33106-1.57792,54.07046-2.367,45.03692-2.367,58.18422" fill="none" stroke="#aa6f5b" stroke-linecap="round" stroke-linejoin="round" stroke-width="1.75"/>
          <path d="M255.84268,555.90684c6.99657-9.62892,9.96642-25.5538,9.96642-43.51558s-2.5642-35.18273-1.97245-52.40375,6.9036-38.88623,8.876-56.47765-2.3538-36.41035-3.73445-57.52-1.78835-46.65112-1.78835-46.65112" fill="none" stroke="#aa6f5b" stroke-linecap="round" stroke-linejoin="round" stroke-width="1.75"/>
          <path d="M277.64378,299.33874c-.39445,10.74.06248,23.6666,1.86558,40.84213,1.78112,16.96572,5.6297,38.7011,5.4325,56.848s-4.3394,36.479-8.49245,53.32968-.38355,33.33105.9971,53.14448-1.18345,29.25722-.9862,40.18245,8.876,17.03593,9.86223,43.59552-7.298,33.43628-8.67875,44.17625,4.14215,32.03488,4.3394,50.367-1.578,43.14511-2.47382,59.99588-1.86558,41.51869-1.86558,41.51869" fill="none" stroke="#aa6f5b" stroke-linecap="round" stroke-linejoin="round" stroke-width="1.75"/>
          <path d="M282.77211,299.33874s.25977,17.417,1.887,38.24892c1.602,20.5087,5.80552,46.66427,6.2,64.99635s-9.46772,50.73728-9.27052,63.329,2.16972,24.25757,3.15592,34.9976-1.97247,24.81315-1.97247,37.77518,7.88982,22.77622,9.665,45.55242-7.1008,40.7379-7.52315,46.8486-.1694,20.7394,1.48988,41.84907-.27853,34.44208-1.06752,51.47785c-.789,17.03593-2.367,45.2222-2.56423,58.925" fill="none" stroke="#aa6f5b" stroke-linecap="round" stroke-linejoin="round" stroke-width="1.75"/>
          <path d="M288.09773,299.33874c0,28.46513,6.50905,70.46975,7.8898,96.39387s-5.12835,37.77517-6.90355,55.73695,2.367,37.03445,2.56415,47.7745-2.56415,23.88725-2.7614,36.947,9.07328,30.45568,9.665,50.084-6.1146,36.66415-7.29808,44.62653-1.57792,17.77655,0,33.88655,1.18348,35.73825,0,54.07033-2.95867,53.18457-3.15592,64.48017" fill="none" stroke="#aa6f5b" stroke-linecap="round" stroke-linejoin="round" stroke-width="1.75"/>
          <path d="M299.43283,426.84159c4.03695-19.4431,2.21-34.3182.01965-55.36737-2.216-21.29458-5.3256-41.03165-6.10932-72.13547" fill="none" stroke="#aa6f5b" stroke-linecap="round" stroke-linejoin="round" stroke-width="1.75"/>
          <path d="M126.07453,310.69131a95.5515,95.5515,0,0,0,1.07773-11.35258" fill="none" stroke="#aa6f5b" stroke-linecap="round" stroke-linejoin="round" stroke-width="1.75"/>
          <path d="M252.77486,312.03466s.81373-7.46082.80513-12.69592" fill="none" stroke="#aa6f5b" stroke-linecap="round" stroke-linejoin="round" stroke-width="1.75"/>
        </g>
      </g>
    </g>
  </g>
  <rect id="06bbcf2d-7a28-4d4b-89a1-30da9448ca61" data-name="&lt;Rectangle&gt;" x="135.07397" y="299.0006" width="258" height="8.86932" opacity="0.05"/>
  <rect id="42756973-0e2c-4db6-873a-40802d782538" data-name="&lt;Rectangle&gt;" x="314.11605" y="272.40318" width="25.48873" height="15.18516" fill="#feccae"/>
  <path id="430ff33e-3c5c-44ad-a214-c080d8a3e08f" data-name="&lt;Rectangle&gt;" d="M340.99653,268.33834h5.95273a9.97758,9.97758,0,0,1,9.97758,9.97758v9.27242a0,0,0,0,1,0,0H331.019a0,0,0,0,1,0,0v-9.27242A9.97758,9.97758,0,0,1,340.99653,268.33834Z" fill="#feccae"/>
  <line id="3823a9a4-bcc2-414a-83f4-f82479c6b11a" data-name="&lt;Path&gt;" x1="339.60478" y1="287.58834" x2="352.52797" y2="247.17434" fill="none" stroke="#515151" stroke-linecap="round" stroke-miterlimit="10" stroke-width="5"/>
  <rect id="20313af0-9832-44d6-a512-44308db9b6db" data-name="&lt;Rectangle&gt;" x="80.05477" y="98.85443" width="99.10221" height="101.0417" rx="7.59794" ry="7.59794" opacity="0.08"/>
  <rect id="bced1499-5ddc-4055-8a82-9b83067c9ebf" data-name="&lt;Rectangle&gt;" x="91.95725" y="110.98985" width="75.29724" height="76.77085" fill="#ad87c6"/>
  <circle id="c5ef645e-8255-4275-99a3-a69dfa0aa5ba" data-name="&lt;Path&gt;" cx="138.89754" cy="132.75761" r="9.08333" opacity="0.05"/>
  <path id="136de889-2837-43b1-9a59-9e8e57821032" data-name="&lt;Path&gt;" d="M91.95725,152.75761l12.41017-11.08833a5.0566,5.0566,0,0,1,6.71465-.0209l17.77431,15.68322a4.39149,4.39149,0,0,0,5.62715.15352l7.36474-5.81595a5.0566,5.0566,0,0,1,5.76023-.35264l19.646,11.94108V187.7607H91.95725Z" opacity="0.08"/>
  <g id="79aef36e-874b-42fe-9c99-1a6f48894398" data-name="&lt;Group&gt;">
    <rect id="570368f4-f053-47ab-b83c-b8309f9fa4e2" data-name="&lt;Rectangle&gt;" x="203.74062" y="205.75761" width="120.66667" height="81.83073" rx="8.80106" ry="8.80106" fill="#e3e3e3"/>
    <path id="a212a84a-8ba5-429f-9152-fb065e87836c" data-name="&lt;Path&gt;" d="M272.32331,247.42765a7.74119,7.74119,0,0,1-3.91073-7.12977,7.85183,7.85183,0,0,1,.60316-2.61827,1.79164,1.79164,0,0,0-1.0011-2.428l-.06377-.02143a12.059,12.059,0,1,0,7.63757,15.24805l.00673-.02031a1.79181,1.79181,0,0,0-1.34049-2.25666A7.864,7.864,0,0,1,272.32331,247.42765Z" fill="#fff"/>
    <g id="0c4ad61e-4e6b-427d-a438-146b41127f1a" data-name="&lt;Group&gt;" opacity="0.3">
      <rect id="98c92834-5072-4004-89d3-c278d246e0db" data-name="&lt;Rectangle&gt;" x="199.75045" y="261.33259" width="30.76531" height="6.16543" rx="3.08271" ry="3.08271" transform="translate(-49.28221 479.54841) rotate(-90)" fill="#fff"/>
      <rect id="d126eaee-2744-4b98-9514-f5f33a181ce2" data-name="&lt;Rectangle&gt;" x="211.85918" y="237.65382" width="6.54785" height="6.16543" rx="3.08271" ry="3.08271" transform="translate(-25.60343 455.86964) rotate(-90)" fill="#fff"/>
    </g>
    <path d="M315.83961,205.75762h-5.875a8.80111,8.80111,0,0,1,8.80115,8.801v64.22864a8.80111,8.80111,0,0,1-8.80115,8.801h5.875a8.80111,8.80111,0,0,0,8.80115-8.801V214.55864A8.80111,8.80111,0,0,0,315.83961,205.75762Z" fill="#dbdbdb"/>
  </g>
  <polygon id="330921e4-fabf-4894-bca2-e5d2ff226691" data-name="&lt;Path&gt;" points="128.273 187.761 138.273 187.761 160.939 111.222 150.939 111.222 128.273 187.761" fill="#fff" opacity="0.1"/>
  <polygon id="b569429f-1336-4783-8aa1-8c41c166893e" data-name="&lt;Path&gt;" points="96.273 187.761 119.273 187.761 141.939 111.222 118.939 111.222 96.273 187.761" fill="#fff" opacity="0.1"/>
  <line id="f3d2878b-a025-4450-a2f5-c04250823098" data-name="&lt;Path&gt;" x1="161.79289" y1="278.63559" x2="174.71609" y2="238.22159" fill="none" stroke="#5e5e5e" stroke-linecap="round" stroke-miterlimit="10" stroke-width="5"/>
  <line id="2dc214f7-f9e6-4760-b590-c07ba9556c10" data-name="&lt;Path&gt;" x1="159.88809" y1="276.47396" x2="157.69771" y2="234.10059" fill="none" stroke="#5e5e5e" stroke-linecap="round" stroke-miterlimit="10" stroke-width="5"/>
  <path id="3f78f640-1791-4c0c-90b1-1f19ff2e9d5f" data-name="&lt;Rectangle&gt;" d="M149.60587,261.09094h26a0,0,0,0,1,0,0v19.23068a7.26671,7.26671,0,0,1-7.26671,7.26671H156.87259a7.26671,7.26671,0,0,1-7.26671-7.26671V261.09094a0,0,0,0,1,0,0Z" fill="#474747"/>
  <rect id="6a6b3a44-edac-46e5-8487-cc04230fe166" data-name="&lt;Rectangle&gt;" x="389.27253" y="236.7442" width="29.85598" height="7.92031" rx="3.96015" ry="3.96015" opacity="0.05"/>
  <rect id="6b8b5117-52ec-4dcb-b0e4-cbff57b560f2" data-name="&lt;Rectangle&gt;" x="424.39081" y="236.7442" width="29.85598" height="7.92031" rx="3.96015" ry="3.96015" opacity="0.05"/>
  <rect id="1ee4b5df-507a-491e-9c49-2a9705b00763" data-name="&lt;Rectangle&gt;" x="405.93971" y="248.68416" width="29.85598" height="7.92031" rx="3.96015" ry="3.96015" opacity="0.05"/>
  <rect id="cdf41f0a-5926-4393-9c54-e6f2296a3eff" data-name="&lt;Rectangle&gt;" x="75.64211" y="300.74172" width="29.85598" height="7.92031" rx="3.96015" ry="3.96015" opacity="0.05"/>
  <rect id="0fb62e23-e6da-4350-8af3-964e08b47f77" data-name="&lt;Rectangle&gt;" x="57.191" y="312.68168" width="29.85598" height="7.92031" rx="3.96015" ry="3.96015" opacity="0.05"/>
  <path d="M508.42619,147.8665A264.8696,264.8696,0,0,0,432.88273,47.677c-.05225.02722-.10693.05035-.15869.07776-.249-.28113-.51172-.54926-.76758-.82373q-5.50928-4.468-11.25928-8.64105A42.58937,42.58937,0,0,0,358.269,74.233a32.61456,32.61456,0,1,0,9.97119,64.44171,38.225,38.225,0,0,0,69.70313,20.05743,38.22738,38.22738,0,0,0,70.48291-10.8656Z" fill="#fff"/>
  <ellipse cx="422.94624" cy="127.14092" rx="20.73299" ry="6.26287" opacity="0.05"/>
  <g>
    <circle cx="422.94624" cy="103.27236" r="23.86856" fill="#ea4c89"/>
    <path d="M422.94624,127.14092a23.86856,23.86856,0,1,1,23.86856-23.86856A23.8769,23.8769,0,0,1,422.94624,127.14092Zm.5573-27.41169a74.83479,74.83479,0,0,1-20.91444,2.89069,4.49569,4.49569,0,0,0-.03172.65244,20.34981,20.34981,0,0,0,5.22408,13.6107c5.55936-9.91352,16.56482-13.45665,16.56482-13.45665.27638-.09062.5573-.154.80649-.2492C424.65438,102.0309,424.09708,100.88007,423.50354,99.72923Zm-9.26107-14.8884a20.43141,20.43141,0,0,0-11.25012,14.236,76.99376,76.99376,0,0,0,18.83478-2.48744A123.682,123.682,0,0,0,414.24246,84.84083Zm12.31034,21.72547c-.03172,0-.09515.03172-.12686.03172,0,0-12.08833,4.22729-16.003,12.74077-.18577-.154-.46668-.33981-.46668-.33981a20.40888,20.40888,0,0,0,20.94616,3.04474A86.04234,86.04234,0,0,0,426.5528,106.56629Zm-8.54973-23.06207a.11717.11717,0,0,1,.06343-.02719C418.03479,83.477,418.03479,83.477,418.00307,83.50422Zm4.94317-.62073a20.46643,20.46643,0,0,0-4.8163.59354,99.75724,99.75724,0,0,1,7.64356,11.87085c7.67527-2.859,10.566-7.272,10.62939-7.36718A20.24321,20.24321,0,0,0,422.94624,82.8835Zm15.75833,7.43061c-.06343.0589-3.32565,4.78459-11.377,8.07852.46668.96507.93336,1.95733,1.36832,2.95412.154.33981.28091.71134.435,1.05569a47.69353,47.69353,0,0,1,14.20424.65244A20.436,20.436,0,0,0,438.70457,90.3141Zm-8.33225,15.28712a90.91057,90.91057,0,0,1,3.97809,14.5803,20.47486,20.47486,0,0,0,8.7355-13.67866A30.31235,30.31235,0,0,0,430.37232,105.60122Z" fill="#c32361"/>
  </g>
  <g opacity="0.1">
    <line x1="389.6327" y1="70.71805" x2="400.91238" y2="75.35629" fill="none" stroke="#000" stroke-linecap="round" stroke-miterlimit="10" stroke-width="2"/>
    <line x1="397.59166" y1="67.39732" x2="392.95342" y2="78.67701" fill="none" stroke="#000" stroke-linecap="round" stroke-miterlimit="10" stroke-width="2"/>
  </g>
  <g opacity="0.1">
    <line x1="458.9797" y1="106.10807" x2="463.37586" y2="110.50422" fill="none" stroke="#000" stroke-linecap="round" stroke-miterlimit="10" stroke-width="2"/>
    <line x1="463.37586" y1="106.10807" x2="458.9797" y2="110.50422" fill="none" stroke="#000" stroke-linecap="round" stroke-miterlimit="10" stroke-width="2"/>
  </g>
  <g opacity="0.1">
    <line x1="383.92242" y1="86.82952" x2="388.50317" y2="91.41027" fill="none" stroke="#000" stroke-linecap="round" stroke-miterlimit="10" stroke-width="2"/>
    <line x1="388.50317" y1="86.82952" x2="383.92242" y2="91.41027" fill="none" stroke="#000" stroke-linecap="round" stroke-miterlimit="10" stroke-width="2"/>
  </g>
  <rect x="149.60587" y="261.09094" width="26" height="6.33333" fill="#686868"/>
  <rect x="149.60587" y="267.42428" width="26" height="13.66311" fill="url(#456f3ce2-51dd-4407-9cfa-3bc959c82e3d)"/>
  <rect id="ec0c70c8-64af-481c-b549-14a3d42ad1f8" data-name="&lt;Path&gt;" x="149.60587" y="319.7308" width="68.66667" height="61.16114" rx="7.01341" ry="7.01341" opacity="0.05"/>
  <rect id="a5561d54-d814-42b5-9265-4315ae454831" data-name="&lt;Path&gt;" x="229.27254" y="319.7308" width="68.66667" height="61.16114" rx="7.01341" ry="7.01341" opacity="0.05"/>
  <rect id="b98bd303-490e-4c0f-bbaa-56dcec85d9ce" data-name="&lt;Path&gt;" x="308.93921" y="319.7308" width="68.66667" height="61.16114" rx="7.01341" ry="7.01341" opacity="0.05"/>
  <rect id="4864af93-622d-4dd0-86c8-d0c7de52d195" data-name="&lt;Rectangle&gt;" x="127.32395" y="287.58834" width="273.5" height="11.41225" rx="5.70612" ry="5.70612" fill="#b77d67"/>
</svg>
