<svg id="1c10ece9-f975-4eaa-aa0d-7b1d174d6b1d" data-name="Layer 1" xmlns="http://www.w3.org/2000/svg" xmlns:xlink="http://www.w3.org/1999/xlink" viewBox="0 0 528.148 420">
  <defs>
    <linearGradient id="1764b0f8-7780-4c1b-83ba-fefce5453258" x1="285.91276" y1="154.06947" x2="285.91276" y2="141.23113" gradientUnits="userSpaceOnUse">
      <stop offset="0" stop-color="#3a3a3a" stop-opacity="0"/>
      <stop offset="0.24709" stop-color="#3a3a3a" stop-opacity="0.14343"/>
      <stop offset="0.63647" stop-color="#3a3a3a" stop-opacity="0.53387"/>
      <stop offset="1" stop-color="#3a3a3a"/>
    </linearGradient>
    <linearGradient id="4af8b339-fbf8-413a-9b74-09c7f09c624f" x1="239.27803" y1="154.06947" x2="239.27803" y2="141.23113" xlink:href="#1764b0f8-7780-4c1b-83ba-fefce5453258"/>
  </defs>
  <g>
    <g>
      <g id="c1d05a2f-9d9b-4b11-9cb2-fb5013a82175" data-name="&lt;Rectangle&gt;">
        <path d="M107.45038,69.82663H424.69745a1.624,1.624,0,0,1,1.624,1.624V245.93991a1.624,1.624,0,0,1-1.624,1.624H107.45038a1.623,1.623,0,0,1-1.623-1.623V71.44968A1.623,1.623,0,0,1,107.45038,69.82663Z" fill="#fff"/>
        <path d="M421.56855,74.57926V242.81174H110.57929V74.57926H421.56855m3.12891-9.50525H107.45038a6.37633,6.37633,0,0,0-6.37634,6.3764V245.94058a6.37637,6.37637,0,0,0,6.37634,6.3764H424.69745a6.3764,6.3764,0,0,0,6.37646-6.3764V71.45041a6.37636,6.37636,0,0,0-6.37646-6.3764Z" fill="#d1d1d1"/>
      </g>
      <path id="55a2a3b6-f64f-4072-ab94-eb4c76d9418c" data-name="&lt;Rectangle&gt;" d="M95.074,243.6774h342a0,0,0,0,1,0,0v6.2323a9.57789,9.57789,0,0,1-9.57789,9.57789H104.65189A9.57789,9.57789,0,0,1,95.074,249.9097v-6.2323A0,0,0,0,1,95.074,243.6774Z" opacity="0.05"/>
      <rect id="be622387-1eee-419f-a45d-519b136e380a" data-name="&lt;Rectangle&gt;" x="95.074" y="239.74067" width="342" height="12.57632" rx="6.28815" ry="6.28815" fill="#c6c6c6"/>
      <rect id="7c5c9c18-f739-47f4-9fb6-b7ca97bf2ab8" data-name="&lt;Rectangle&gt;" x="95.074" y="65.07399" width="342" height="12.57632" rx="6.28815" ry="6.28815" fill="#b2b2b2"/>
      <rect id="b684445f-a0fd-4999-9201-64d88d1960cd" data-name="&lt;Rectangle&gt;" x="101.074" y="77.65032" width="330" height="11.27915" opacity="0.05"/>
      <g>
        <path d="M323.2283,143.80808l-3.01172,8.4707H310.867l15.624-43.042h11.54492l15.623,43.042h-10.165l-3.13672-8.4707Zm2.63477-7.34082h11.92188c-1.88281-5.64648-3.82812-11.29395-5.77246-16.87793H331.699Z" fill="#474747"/>
        <path d="M371.85037,125.86374c-3.70215,0-5.584,2.25879-5.584,3.70215v.502H357.4197a6.15884,6.15884,0,0,1-.126-1.12988c0-5.39551,5.71-9.34863,14.11719-9.34863h1.31738c9.28711,0,13.80469,4.01563,13.80469,9.97656v14.80762c0,1.63086.94043,2.25879,1.81934,2.25879a7.124,7.124,0,0,0,2.57227-.69043v5.64648a11.12293,11.12293,0,0,1-5.52148,1.31836c-4.76855,0-7.02734-2.13379-7.40332-5.39648a13.612,13.612,0,0,1-10.793,5.39648c-5.14453,0-10.917-1.31836-10.917-9.34961,0-9.22266,8.40723-10.792,21.27051-10.792v-2.13281C377.56033,127.99655,376.117,125.86374,371.85037,125.86374Zm-6.08594,17.00391c0,2.82324,1.63086,3.76465,4.70605,3.76465,3.13672,0,7.08984-2.76074,7.08984-7.02734v-1.69434C369.84255,137.91062,365.76443,139.228,365.76443,142.86765Z" fill="#474747"/>
      </g>
      <g>
        <path d="M330.284,175.92429V173.938l6.82031-2.53125c-2.28516-.84375-4.55273-1.66992-6.82031-2.53125v-2.00391l8.94727,3.46289v2.16211C336.24294,173.63913,333.27224,174.79929,330.284,175.92429Z" fill="#a5a5a5"/>
        <path d="M350.14236,173.88522c1.66992,0,2.44336-.87891,2.44336-2.75977h2.47852a4.562,4.562,0,0,1-4.79883,4.92188h-.24609a4.95406,4.95406,0,0,1-5.27344-5.34375v-1.72266a5.0002,5.0002,0,0,1,5.20313-5.34375h.24609a4.554,4.554,0,0,1,4.86914,4.957h-2.584c0-1.8457-.84375-2.79492-2.35547-2.79492a2.49562,2.49562,0,0,0-2.53125,2.79492v2.49609A2.508,2.508,0,0,0,350.14236,173.88522Z" fill="#474747"/>
        <path d="M359.63162,167.768a3.37106,3.37106,0,0,1,2.49609-1.05469c1.72266,0,3.14648.93164,3.14648,2.88281v6.27539h-2.56641v-5.71289a1.44714,1.44714,0,0,0-1.40625-1.582,1.72817,1.72817,0,0,0-1.66992,1.77539v5.51953h-2.56641V163.2153h2.56641Z" fill="#474747"/>
        <path d="M370.157,163.2153v2.02148h-2.60156V163.2153Zm-2.584,3.67383h2.56641v8.98242H367.573Z" fill="#474747"/>
        <path d="M374.55056,175.87155l-3.14648-8.98242h2.72461l1.95117,6.01172h.08789l1.95117-6.01172H380.615l-3.16406,8.98242Z" fill="#474747"/>
        <path d="M386.14919,176.04733h-.28125a4.16423,4.16423,0,0,1-4.39453-4.41211v-.50977a4.16423,4.16423,0,0,1,4.39453-4.41211h.28125a4.16423,4.16423,0,0,1,4.39453,4.41211v.50977A4.16423,4.16423,0,0,1,386.14919,176.04733Zm-.14062-7.57617c-1.08984,0-1.93359.7207-1.93359,2.19727v1.42383c0,1.47656.84375,2.19727,1.93359,2.19727s1.93359-.7207,1.93359-2.19727v-1.42383C387.94216,169.19187,387.09841,168.47116,386.00857,168.47116Z" fill="#474747"/>
        <path d="M357.31326,183.42136c0-.87891-.73828-1.42383-1.98633-1.42383-1.30078,0-2.03906.457-2.03906,1.125,0,2.28516,6.83789.75586,6.83789,5.15039,0,2.86523-2.05664,3.97266-4.97461,3.97266-2.584,0-4.86914-1.07227-4.86914-3.72656,0-.14062.01758-.29883.01758-.38672H352.866c0,.03516-.01758.19336-.01758.28125,0,1.002.77344,1.66992,2.21484,1.66992,1.77539,0,2.30273-.68555,2.30273-1.37109,0-2.32031-6.80273-.70312-6.80273-5.30859,0-2.4082,2.16211-3.56836,4.71094-3.56836,2.51367,0,4.58789,1.07227,4.58789,3.5332v.21094h-2.54883Z" fill="#474747"/>
        <path d="M365.88845,184.6694c-1.03711,0-1.56445.63281-1.56445,1.03711v.14063h-2.47852a1.74166,1.74166,0,0,1-.03516-.31641c0-1.51172,1.59961-2.61914,3.95508-2.61914h.36914c2.60156,0,3.86719,1.125,3.86719,2.79492V189.855c0,.457.26367.63281.50977.63281a1.99741,1.99741,0,0,0,.7207-.19336v1.582a3.11729,3.11729,0,0,1-1.54687.36914c-1.33594,0-1.96875-.59766-2.07422-1.51172a3.81311,3.81311,0,0,1-3.02344,1.51172c-1.44141,0-3.05859-.36914-3.05859-2.61914,0-2.584,2.35547-3.02344,5.959-3.02344v-.59766C367.48806,185.26706,367.08376,184.6694,365.88845,184.6694Zm-1.70508,4.76367c0,.791.457,1.05469,1.31836,1.05469a2.04717,2.04717,0,0,0,1.98633-1.96875v-.47461C365.326,188.0444,364.18337,188.41354,364.18337,189.43308Z" fill="#474747"/>
        <path d="M374.69119,184.40573a3.48207,3.48207,0,0,1,2.86523-1.49414c1.72266,0,3.14648.93164,3.14648,2.88281v6.27539H378.1365V186.3569a1.44714,1.44714,0,0,0-1.40625-1.582,1.72817,1.72817,0,0,0-1.66992,1.77539v5.51953h-2.56641v-8.98242h1.916Z" fill="#474747"/>
        <path d="M384.60232,189.32761c0,.89648.9668,1.16016,1.89844,1.16016.77344,0,1.81055-.19336,1.81055-.87891,0-1.77539-5.69531-.17578-5.69531-3.84961,0-1.89844,1.86328-2.84766,3.90234-2.84766h.35156c1.82813,0,3.62109.94922,3.62109,2.42578a2.801,2.801,0,0,1-.03516.38672h-2.25c0-.73828-.61523-1.05469-1.61719-1.05469-.9668,0-1.63477.29883-1.63477.791,0,1.63477,5.73047.03516,5.73047,3.76172,0,2.28516-1.916,3.02344-3.99023,3.02344H386.114c-2.19727,0-3.7793-1.07227-3.7793-2.68945,0-.17578.01758-.28125.01758-.35156h2.25Z" fill="#474747"/>
      </g>
      <g>
        <path d="M131.33767,119.92331c-.125,0-.24219-.00293-.34961-.00879a1.80771,1.80771,0,0,1-.248-.02539,2.43079,2.43079,0,0,1-.85547-.43555,1.90365,1.90365,0,0,1-.56348-.72656,1.62472,1.62472,0,0,1-.1543-.43652,2.36845,2.36845,0,0,1-.03418-.40137,2.6977,2.6977,0,0,1,.05176-.53027c-.10254-.06836-.21094-.14258-.3252-.22168a.91046.91046,0,0,1-.25586-.25684,1.89838,1.89838,0,0,1-.41113-1.16211,1.7598,1.7598,0,0,1,.17969-.77832,2.288,2.288,0,0,1,.4873-.6582c.05762-.05664.16211-.165.31641-.32422a6.12655,6.12655,0,0,0,.41895-.47949l.3418-.376c.15918-.1709.32227-.34473.4873-.52148q.24756-.26367.4873-.50391c.18164-.15918.3418-.2959.47852-.41016a4.261,4.261,0,0,1,.35938-.27344,2.43259,2.43259,0,0,1,1.8457-.3418,1.78075,1.78075,0,0,1,1.31641,1.11133l-.0166-.01758a2.49827,2.49827,0,0,1,.11035.29883,1.812,1.812,0,0,1,.06055.2998c.15918-.1709.30176-.334.42676-.4873.126-.1543.23926-.29395.3418-.41895l.23926-.27344a.26306.26306,0,0,0,.05176-.06836.22481.22481,0,0,0,.03418-.05176,2.20662,2.20662,0,0,1,.93164-.6582,1.82018,1.82018,0,0,1,1.08594-.05957,1.77225,1.77225,0,0,1,.69238.376,2.459,2.459,0,0,1,.52148.63281,2.05647,2.05647,0,0,1,.21289.93164,3.52339,3.52339,0,0,1-.05957.52148,1.30936,1.30936,0,0,1-.043.16211c-.0166.05176-.03125.09961-.042.14551l-.10254.3252-.01758.05078a2.11822,2.11822,0,0,1,.6748.18848,1.70827,1.70827,0,0,1,.57324.42676,1.99957,1.99957,0,0,1,.44434,1.23145,1.8445,1.8445,0,0,1-.70117,1.45313l-.085.085q-.35889.30762-.76074.61523a10.18967,10.18967,0,0,1-.84668.582,3.87222,3.87222,0,0,1-1.98242.59766,2.947,2.947,0,0,1-.82129-.11914,1.86552,1.86552,0,0,1-.57227-.23145,1.669,1.669,0,0,1-.45312-.40137q-.20508.17139-.39355.31641-.1875.145-.42676.29883h.0166a7.10584,7.10584,0,0,1-.752.46191c-.23926.125-.46777.2334-.68359.32422a2.73021,2.73021,0,0,1-.61523.17188A3.95747,3.95747,0,0,1,131.33767,119.92331Z" fill="#dbdbdb"/>
        <path d="M148.741,119.92331c-.125,0-.24219-.00293-.34961-.00879a1.80771,1.80771,0,0,1-.248-.02539,2.43079,2.43079,0,0,1-.85547-.43555,1.90365,1.90365,0,0,1-.56348-.72656,1.62472,1.62472,0,0,1-.1543-.43652,2.36845,2.36845,0,0,1-.03418-.40137,2.6977,2.6977,0,0,1,.05176-.53027c-.10254-.06836-.21094-.14258-.3252-.22168a.91046.91046,0,0,1-.25586-.25684,1.89838,1.89838,0,0,1-.41113-1.16211,1.7598,1.7598,0,0,1,.17969-.77832,2.288,2.288,0,0,1,.4873-.6582c.05762-.05664.16211-.165.31641-.32422a6.12655,6.12655,0,0,0,.41895-.47949l.3418-.376c.15918-.1709.32227-.34473.4873-.52148q.24756-.26367.4873-.50391c.18164-.15918.3418-.2959.47852-.41016a4.26091,4.26091,0,0,1,.35938-.27344,2.43259,2.43259,0,0,1,1.8457-.3418,1.78075,1.78075,0,0,1,1.31641,1.11133l-.0166-.01758a2.49827,2.49827,0,0,1,.11035.29883,1.812,1.812,0,0,1,.06055.2998c.15918-.1709.30176-.334.42676-.4873.126-.1543.23926-.29395.3418-.41895l.23926-.27344a.26306.26306,0,0,0,.05176-.06836.22481.22481,0,0,0,.03418-.05176,2.20662,2.20662,0,0,1,.93164-.6582,1.82018,1.82018,0,0,1,1.08594-.05957,1.77225,1.77225,0,0,1,.69238.376,2.459,2.459,0,0,1,.52148.63281,2.05647,2.05647,0,0,1,.21289.93164,3.52339,3.52339,0,0,1-.05957.52148,1.30936,1.30936,0,0,1-.043.16211c-.0166.05176-.03125.09961-.042.14551l-.10254.3252-.01758.05078a2.11822,2.11822,0,0,1,.6748.18848,1.70827,1.70827,0,0,1,.57324.42676,1.99957,1.99957,0,0,1,.44434,1.23145,1.8445,1.8445,0,0,1-.70117,1.45313l-.085.085q-.35889.30762-.76074.61523a10.18967,10.18967,0,0,1-.84668.582,3.87222,3.87222,0,0,1-1.98242.59766,2.947,2.947,0,0,1-.82129-.11914,1.86552,1.86552,0,0,1-.57227-.23145,1.669,1.669,0,0,1-.45312-.40137q-.20508.17139-.39355.31641-.1875.145-.42676.29883h.0166a7.10584,7.10584,0,0,1-.752.46191c-.23926.125-.46777.2334-.68359.32422a2.73022,2.73022,0,0,1-.61523.17188A3.95747,3.95747,0,0,1,148.741,119.92331Z" fill="#dbdbdb"/>
        <path d="M158.84353,118.29929a2.368,2.368,0,0,1-.46094-.05078,1.86018,1.86018,0,0,1-.70117-.35059,1.96957,1.96957,0,0,1-.49609-.58984,1.69933,1.69933,0,0,1-1,.07617,1.61976,1.61976,0,0,1-.89746-.53809,1.51064,1.51064,0,0,1-.3418-.58105,1.73914,1.73914,0,0,1-.07715-.6582,1.75728,1.75728,0,0,1,.1709-.63281,1.83612,1.83612,0,0,1,.40234-.53809q.1875-.15381.40137-.35937c.14258-.13672.29395-.28418.45313-.44434q.41016-.41016.86328-.8291.45264-.41895.87988-.76074c.19434-.14844.37891-.2793.55566-.39355a5.50214,5.50214,0,0,1,.50488-.29,2.62658,2.62658,0,0,1,1.74316-.23926,2.0285,2.0285,0,0,1,.8125.46094,2.17089,2.17089,0,0,1,.53809.78711,2.13936,2.13936,0,0,1-.0166,1.43555c-.02344.05762-.0459.11426-.06836.1709-.02344.05762-.05176.12012-.08594.18848a1.749,1.749,0,0,1,.88965.957,1.81173,1.81173,0,0,1,.10254.68359,1.74847,1.74847,0,0,1-.1543.6416,1.65644,1.65644,0,0,1-.38477.5293,1.63447,1.63447,0,0,1-.58984.35059q-.54639.20508-.98242.36816-.43652.1626-.74414.26465c-.125.0459-.2334.085-.32422.11914-.0918.03418-.166.06348-.22266.08594-.11426.02344-.2334.05176-.35937.08594A1.55221,1.55221,0,0,1,158.84353,118.29929Z" fill="#dbdbdb"/>
        <path d="M163.5447,118.29929a2.368,2.368,0,0,1-.46094-.05078,1.86018,1.86018,0,0,1-.70117-.35059,1.96957,1.96957,0,0,1-.49609-.58984,1.69933,1.69933,0,0,1-1,.07617,1.61976,1.61976,0,0,1-.89746-.53809,1.51064,1.51064,0,0,1-.3418-.58105,1.73914,1.73914,0,0,1-.07715-.6582,1.75728,1.75728,0,0,1,.1709-.63281,1.83613,1.83613,0,0,1,.40234-.53809q.1875-.15381.40137-.35937c.14258-.13672.29395-.28418.45313-.44434q.41016-.41016.86328-.8291.45264-.41895.87988-.76074c.19434-.14844.37891-.2793.55566-.39355a5.50214,5.50214,0,0,1,.50488-.29,2.62658,2.62658,0,0,1,1.74316-.23926,2.0285,2.0285,0,0,1,.8125.46094,2.17089,2.17089,0,0,1,.53809.78711,2.13936,2.13936,0,0,1-.0166,1.43555c-.02344.05762-.0459.11426-.06836.1709-.02344.05762-.05176.12012-.08594.18848a1.749,1.749,0,0,1,.88965.957,1.81173,1.81173,0,0,1,.10254.68359,1.74847,1.74847,0,0,1-.1543.6416,1.65644,1.65644,0,0,1-.38477.5293,1.63447,1.63447,0,0,1-.58984.35059q-.54639.20508-.98242.36816-.43652.1626-.74414.26465c-.125.0459-.2334.085-.32422.11914-.0918.03418-.166.06348-.22266.08594-.11426.02344-.2334.05176-.35937.08594A1.55221,1.55221,0,0,1,163.5447,118.29929Z" fill="#dbdbdb"/>
        <path d="M168.81033,119.82077a2.69217,2.69217,0,0,1-.64941-.085,1.65881,1.65881,0,0,1-.64941-.31641,1.55557,1.55557,0,0,1-.44531-.55566,1.61408,1.61408,0,0,1-.16211-.42773,1.90175,1.90175,0,0,1-.043-.38477,2.525,2.525,0,0,1,.01758-.31641c.01074-.09082.02246-.165.03418-.22168.01074-.05664.02246-.11719.03418-.17969a1.38768,1.38768,0,0,1,.05078-.19629,2.0253,2.0253,0,0,1-.22168.11035,1.79824,1.79824,0,0,1-.22266.07715,1.73606,1.73606,0,0,1-.58105.10254,1.71161,1.71161,0,0,1-.97461-.29883,1.62823,1.62823,0,0,1-.63281-.8291,1.58672,1.58672,0,0,1-.09375-.667,1.81061,1.81061,0,0,1,.16211-.63281,1.87781,1.87781,0,0,1,.377-.5293,1.507,1.507,0,0,1,.58105-.35937c.03418-.01074.09961-.04.19629-.085a3.9897,3.9897,0,0,0,.41895-.248q.27393-.18018.68359-.50488.41016-.32373,1.00879-.83691.34131-.30762.6416-.582c.19922-.18164.373-.3418.52051-.47852q.22266-.20508.35059-.333a.657.657,0,0,1,.14551-.12793,1.70016,1.70016,0,0,1,.76074-.44531,1.73779,1.73779,0,0,1,1.94043.87207,2.13989,2.13989,0,0,1,.17969.53027,1.53968,1.53968,0,0,1-.05957.78613c0,.02344-.00586.03711-.01758.043s-.0166.01953-.0166.043a.29072.29072,0,0,0-.02637.085.3337.3337,0,0,1-.02539.08594,2.25313,2.25313,0,0,1-.09375.25586q-.06006.1377-.12891.3252c-.04492.126-.09375.2627-.14453.41016-.05176.14844-.11133.30176-.17969.46191.02246-.01172.04492-.02246.06836-.03418a.2803.2803,0,0,0,.06836-.05176,1.6963,1.6963,0,0,1,1.27344-.23926,1.73074,1.73074,0,0,1,.59863.25684,1.63773,1.63773,0,0,1,.46973.47852,1.54543,1.54543,0,0,1,.26465.63281,1.71159,1.71159,0,0,1-.00781.6582,1.82864,1.82864,0,0,1-.25684.60645,1.58608,1.58608,0,0,1-.47852.47852q-.41016.27393-.77832.53906-.36768.26514-.74316.55566c-.28516.21582-.5498.416-.79492.59766a6.25165,6.25165,0,0,1-.74414.47852,4.04745,4.04745,0,0,1-.5127.248c-.15918.0625-.31934.11719-.47852.16309A3.12851,3.12851,0,0,1,168.81033,119.82077Z" fill="#dbdbdb"/>
        <path d="M176.55447,118.812a1.60942,1.60942,0,0,1-1.07715-.376,1.6464,1.6464,0,0,1-.56445-.82031,1.72568,1.72568,0,0,1-.0166-.99219.123.123,0,0,1,.0166-.05078.1271.1271,0,0,0,.01758-.05176.123.123,0,0,1,.0166-.05078,10.807,10.807,0,0,1-1.709.85449,1.70972,1.70972,0,0,1-1.2998-.05078,1.81332,1.81332,0,0,1-.5293-.38477,1.61832,1.61832,0,0,1-.35937-.57324,1.429,1.429,0,0,1-.11133-.666,1.88715,1.88715,0,0,1,.16211-.6416,1.77549,1.77549,0,0,1,.38477-.53809,1.627,1.627,0,0,1,.57324-.35937,7.35119,7.35119,0,0,0,.98242-.49512,15.995,15.995,0,0,0,1.88965-1.35059q.35889-.2915.6582-.54785.29883-.25635.52148-.46094c.1709-.16016.33008-.30762.47852-.44434a1.64953,1.64953,0,0,1,1.64063-.42773,1.57291,1.57291,0,0,1,.61621.30762,1.92456,1.92456,0,0,1,.44434.5127,1.70836,1.70836,0,0,1,.23926.97461,7.26991,7.26991,0,0,1-.18848,1.14551c-.02246.11426-.04883.22461-.07715.333s-.05957.22559-.09375.35059a1.73241,1.73241,0,0,1,1.00879.23926,1.75255,1.75255,0,0,1,.70117.78613,1.69184,1.69184,0,0,1,.13672.6582,1.87087,1.87087,0,0,1-.11133.6416,1.61684,1.61684,0,0,1-.89746.94043q-.564.25635-1.03418.4873-.47021.23-.82031.418c-.23437.126-.41895.22559-.55566.2998a1.59757,1.59757,0,0,1-.22266.11133A1.71554,1.71554,0,0,1,176.55447,118.812Z" fill="#dbdbdb"/>
        <path d="M180.55447,119.92331c-.125,0-.24219-.00293-.34961-.00879a1.8077,1.8077,0,0,1-.248-.02539,2.43079,2.43079,0,0,1-.85547-.43555,1.90365,1.90365,0,0,1-.56348-.72656,1.62472,1.62472,0,0,1-.1543-.43652,2.36844,2.36844,0,0,1-.03418-.40137,2.6977,2.6977,0,0,1,.05176-.53027c-.10254-.06836-.21094-.14258-.3252-.22168a.91046.91046,0,0,1-.25586-.25684,1.89838,1.89838,0,0,1-.41113-1.16211,1.7598,1.7598,0,0,1,.17969-.77832,2.288,2.288,0,0,1,.4873-.6582c.05762-.05664.16211-.165.31641-.32422a6.12653,6.12653,0,0,0,.41895-.47949l.3418-.376c.15918-.1709.32227-.34473.4873-.52148q.24756-.26367.4873-.50391c.18164-.15918.3418-.2959.47852-.41016a4.261,4.261,0,0,1,.35938-.27344,2.43259,2.43259,0,0,1,1.8457-.3418,1.78075,1.78075,0,0,1,1.31641,1.11133l-.0166-.01758a2.49826,2.49826,0,0,1,.11035.29883,1.812,1.812,0,0,1,.06055.2998c.15918-.1709.30176-.334.42676-.4873.126-.1543.23926-.29395.3418-.41895l.23926-.27344a.26306.26306,0,0,0,.05176-.06836.22481.22481,0,0,0,.03418-.05176,2.20662,2.20662,0,0,1,.93164-.6582,1.82018,1.82018,0,0,1,1.08594-.05957,1.77225,1.77225,0,0,1,.69238.376,2.459,2.459,0,0,1,.52148.63281,2.05647,2.05647,0,0,1,.21289.93164,3.52341,3.52341,0,0,1-.05957.52148,1.30936,1.30936,0,0,1-.043.16211c-.0166.05176-.03125.09961-.042.14551l-.10254.3252-.01758.05078a2.11822,2.11822,0,0,1,.6748.18848,1.70827,1.70827,0,0,1,.57324.42676,1.99957,1.99957,0,0,1,.44434,1.23145,1.8445,1.8445,0,0,1-.70117,1.45313l-.085.085q-.35889.30762-.76074.61523a10.18967,10.18967,0,0,1-.84668.582,3.87222,3.87222,0,0,1-1.98242.59766,2.947,2.947,0,0,1-.82129-.11914,1.86552,1.86552,0,0,1-.57227-.23145,1.669,1.669,0,0,1-.45312-.40137q-.20508.17139-.39355.31641-.1875.145-.42676.29883h.0166a7.10585,7.10585,0,0,1-.752.46191c-.23926.125-.46777.2334-.68359.32422a2.73021,2.73021,0,0,1-.61523.17188A3.95746,3.95746,0,0,1,180.55447,119.92331Z" fill="#dbdbdb"/>
        <path d="M194.36794,118.64108a1.9057,1.9057,0,0,1-.53027-.085,1.63207,1.63207,0,0,1-.73437-.38477,1.7778,1.7778,0,0,1-.46191-.67578,1.98578,1.98578,0,0,1,.0166-1.46973,5.36334,5.36334,0,0,1,.30762-.68359c.02344-.0459.04883-.09473.07715-.14551.02832-.05176.06055-.10547.09473-.16309-.2627.1377-.51953.28223-.76953.43652q-.37646.23-.76953.43555-.70166.42773-1.3418.77832-.6416.3501-1.18848.58984a1.5229,1.5229,0,0,1-.6582.15332,1.7667,1.7667,0,0,1-.64062-.11914,1.74277,1.74277,0,0,1-.55566-.35059,1.6073,1.6073,0,0,1-.38477-.55566,1.52425,1.52425,0,0,1-.1543-.6582,1.75233,1.75233,0,0,1,.12012-.6416,1.72175,1.72175,0,0,1,.35059-.55469,1.58532,1.58532,0,0,1,.55566-.38477q.39258-.189.96582-.50488.57275-.31641,1.22168-.69238.75293-.44385,1.582-.91406a16.15175,16.15175,0,0,1,1.63281-.8125,6.89015,6.89015,0,0,1,1.69238-.59766,4.92886,4.92886,0,0,1,1.0166-.1543,3.08549,3.08549,0,0,1,.915.10254,1.8577,1.8577,0,0,1,1.28223,1.16211,1.90687,1.90687,0,0,1,.07617,1.26563,6.1046,6.1046,0,0,1-.46973,1.16211.71727.71727,0,0,1,.11133-.02539.25992.25992,0,0,0,.11133-.043,1.54207,1.54207,0,0,1,.6582-.09375,1.84525,1.84525,0,0,1,.63184.16211,1.69424,1.69424,0,0,1,.88086.958,1.77868,1.77868,0,0,1,.10254.6748,1.71228,1.71228,0,0,1-.1543.63281,1.65644,1.65644,0,0,1-.38477.5293,1.63447,1.63447,0,0,1-.58984.35059q-.80273.2915-1.46973.52148-.6665.23145-1.17969.40234-.71777.20508-1.16211.29883A3.93562,3.93562,0,0,1,194.36794,118.64108Z" fill="#dbdbdb"/>
        <path d="M199.71755,119.92331c-.125,0-.24219-.00293-.34961-.00879a1.80771,1.80771,0,0,1-.248-.02539,2.43079,2.43079,0,0,1-.85547-.43555,1.90365,1.90365,0,0,1-.56348-.72656,1.62472,1.62472,0,0,1-.1543-.43652,2.36845,2.36845,0,0,1-.03418-.40137,2.6977,2.6977,0,0,1,.05176-.53027c-.10254-.06836-.21094-.14258-.3252-.22168a.91046.91046,0,0,1-.25586-.25684,1.89838,1.89838,0,0,1-.41113-1.16211,1.7598,1.7598,0,0,1,.17969-.77832,2.288,2.288,0,0,1,.4873-.6582c.05762-.05664.16211-.165.31641-.32422a6.12655,6.12655,0,0,0,.41895-.47949l.3418-.376c.15918-.1709.32227-.34473.4873-.52148q.24756-.26367.4873-.50391c.18164-.15918.3418-.2959.47852-.41016a4.26091,4.26091,0,0,1,.35938-.27344,2.43259,2.43259,0,0,1,1.8457-.3418,1.78075,1.78075,0,0,1,1.31641,1.11133l-.0166-.01758a2.49827,2.49827,0,0,1,.11035.29883,1.812,1.812,0,0,1,.06055.2998c.15918-.1709.30176-.334.42676-.4873.126-.1543.23926-.29395.3418-.41895l.23926-.27344a.26306.26306,0,0,0,.05176-.06836.22481.22481,0,0,0,.03418-.05176,2.20662,2.20662,0,0,1,.93164-.6582,1.82018,1.82018,0,0,1,1.08594-.05957,1.77225,1.77225,0,0,1,.69238.376,2.459,2.459,0,0,1,.52148.63281,2.05647,2.05647,0,0,1,.21289.93164,3.52339,3.52339,0,0,1-.05957.52148,1.30936,1.30936,0,0,1-.043.16211c-.0166.05176-.03125.09961-.042.14551l-.10254.3252-.01758.05078a2.11822,2.11822,0,0,1,.6748.18848,1.70827,1.70827,0,0,1,.57324.42676,1.99957,1.99957,0,0,1,.44434,1.23145,1.8445,1.8445,0,0,1-.70117,1.45313l-.085.085q-.35889.30762-.76074.61523a10.18967,10.18967,0,0,1-.84668.582,3.87222,3.87222,0,0,1-1.98242.59766,2.947,2.947,0,0,1-.82129-.11914,1.86552,1.86552,0,0,1-.57227-.23145,1.669,1.669,0,0,1-.45312-.40137q-.20508.17139-.39355.31641-.1875.145-.42676.29883h.0166a7.10584,7.10584,0,0,1-.752.46191c-.23926.125-.46777.2334-.68359.32422a2.73022,2.73022,0,0,1-.61523.17188A3.95747,3.95747,0,0,1,199.71755,119.92331Z" fill="#dbdbdb"/>
        <path d="M208.81228,119.92331c-.125,0-.24219-.00293-.34961-.00879a1.8077,1.8077,0,0,1-.248-.02539,2.43079,2.43079,0,0,1-.85547-.43555,1.90365,1.90365,0,0,1-.56348-.72656,1.62472,1.62472,0,0,1-.1543-.43652,2.36844,2.36844,0,0,1-.03418-.40137,2.6977,2.6977,0,0,1,.05176-.53027c-.10254-.06836-.21094-.14258-.3252-.22168a.91046.91046,0,0,1-.25586-.25684,1.89838,1.89838,0,0,1-.41113-1.16211,1.7598,1.7598,0,0,1,.17969-.77832,2.288,2.288,0,0,1,.4873-.6582c.05762-.05664.16211-.165.31641-.32422a6.12653,6.12653,0,0,0,.41895-.47949l.3418-.376c.15918-.1709.32227-.34473.4873-.52148q.24756-.26367.4873-.50391c.18164-.15918.3418-.2959.47852-.41016a4.261,4.261,0,0,1,.35938-.27344,2.43259,2.43259,0,0,1,1.8457-.3418,1.78075,1.78075,0,0,1,1.31641,1.11133l-.0166-.01758a2.49826,2.49826,0,0,1,.11035.29883,1.812,1.812,0,0,1,.06055.2998c.15918-.1709.30176-.334.42676-.4873.126-.1543.23926-.29395.3418-.41895l.23926-.27344a.26306.26306,0,0,0,.05176-.06836.22481.22481,0,0,0,.03418-.05176,2.20662,2.20662,0,0,1,.93164-.6582,1.82018,1.82018,0,0,1,1.08594-.05957,1.77225,1.77225,0,0,1,.69238.376,2.459,2.459,0,0,1,.52148.63281,2.05647,2.05647,0,0,1,.21289.93164,3.52341,3.52341,0,0,1-.05957.52148,1.30936,1.30936,0,0,1-.043.16211c-.0166.05176-.03125.09961-.042.14551l-.10254.3252-.01758.05078a2.11822,2.11822,0,0,1,.6748.18848,1.70827,1.70827,0,0,1,.57324.42676,1.99957,1.99957,0,0,1,.44434,1.23145,1.8445,1.8445,0,0,1-.70117,1.45313l-.085.085q-.35889.30762-.76074.61523a10.18967,10.18967,0,0,1-.84668.582,3.87222,3.87222,0,0,1-1.98242.59766,2.947,2.947,0,0,1-.82129-.11914,1.86552,1.86552,0,0,1-.57227-.23145,1.669,1.669,0,0,1-.45312-.40137q-.20508.17139-.39355.31641-.1875.145-.42676.29883h.0166a7.10585,7.10585,0,0,1-.752.46191c-.23926.125-.46777.2334-.68359.32422a2.73021,2.73021,0,0,1-.61523.17188A3.95746,3.95746,0,0,1,208.81228,119.92331Z" fill="#dbdbdb"/>
        <path d="M226.2156,119.92331c-.125,0-.24219-.00293-.34961-.00879a1.8077,1.8077,0,0,1-.248-.02539,2.43079,2.43079,0,0,1-.85547-.43555,1.90365,1.90365,0,0,1-.56348-.72656,1.62472,1.62472,0,0,1-.1543-.43652,2.36844,2.36844,0,0,1-.03418-.40137,2.6977,2.6977,0,0,1,.05176-.53027c-.10254-.06836-.21094-.14258-.3252-.22168a.91046.91046,0,0,1-.25586-.25684,1.89838,1.89838,0,0,1-.41113-1.16211,1.7598,1.7598,0,0,1,.17969-.77832,2.288,2.288,0,0,1,.4873-.6582c.05762-.05664.16211-.165.31641-.32422a6.12653,6.12653,0,0,0,.41895-.47949l.3418-.376c.15918-.1709.32227-.34473.4873-.52148q.24756-.26367.4873-.50391c.18164-.15918.3418-.2959.47852-.41016a4.261,4.261,0,0,1,.35938-.27344,2.43259,2.43259,0,0,1,1.8457-.3418,1.78075,1.78075,0,0,1,1.31641,1.11133l-.0166-.01758a2.49826,2.49826,0,0,1,.11035.29883,1.812,1.812,0,0,1,.06055.2998c.15918-.1709.30176-.334.42676-.4873.126-.1543.23926-.29395.3418-.41895l.23926-.27344a.26306.26306,0,0,0,.05176-.06836.22481.22481,0,0,0,.03418-.05176,2.20662,2.20662,0,0,1,.93164-.6582,1.82018,1.82018,0,0,1,1.08594-.05957,1.77225,1.77225,0,0,1,.69238.376,2.459,2.459,0,0,1,.52148.63281,2.05647,2.05647,0,0,1,.21289.93164,3.5234,3.5234,0,0,1-.05957.52148,1.30936,1.30936,0,0,1-.043.16211c-.0166.05176-.03125.09961-.042.14551l-.10254.3252-.01758.05078a2.11822,2.11822,0,0,1,.6748.18848,1.70827,1.70827,0,0,1,.57324.42676,1.99957,1.99957,0,0,1,.44434,1.23145,1.8445,1.8445,0,0,1-.70117,1.45313l-.085.085q-.35889.30762-.76074.61523a10.18967,10.18967,0,0,1-.84668.582,3.87222,3.87222,0,0,1-1.98242.59766,2.947,2.947,0,0,1-.82129-.11914,1.86552,1.86552,0,0,1-.57227-.23145,1.669,1.669,0,0,1-.45312-.40137q-.20508.17139-.39355.31641-.1875.145-.42676.29883h.0166a7.10584,7.10584,0,0,1-.752.46191c-.23926.125-.46777.2334-.68359.32422a2.73021,2.73021,0,0,1-.61523.17188A3.95747,3.95747,0,0,1,226.2156,119.92331Z" fill="#dbdbdb"/>
        <path d="M240.02908,118.64108a1.9057,1.9057,0,0,1-.53027-.085,1.63207,1.63207,0,0,1-.73437-.38477,1.7778,1.7778,0,0,1-.46191-.67578,1.98578,1.98578,0,0,1,.0166-1.46973,5.36334,5.36334,0,0,1,.30762-.68359c.02344-.0459.04883-.09473.07715-.14551.02832-.05176.06055-.10547.09473-.16309-.2627.1377-.51953.28223-.76953.43652q-.37646.23-.76953.43555-.70166.42773-1.3418.77832-.6416.3501-1.18848.58984a1.5229,1.5229,0,0,1-.6582.15332,1.7667,1.7667,0,0,1-.64062-.11914,1.74277,1.74277,0,0,1-.55566-.35059,1.6073,1.6073,0,0,1-.38477-.55566,1.52425,1.52425,0,0,1-.1543-.6582,1.75233,1.75233,0,0,1,.12012-.6416,1.72175,1.72175,0,0,1,.35059-.55469,1.58532,1.58532,0,0,1,.55566-.38477q.39258-.189.96582-.50488.57275-.31641,1.22168-.69238.75293-.44385,1.582-.91406a16.15175,16.15175,0,0,1,1.63281-.8125,6.89015,6.89015,0,0,1,1.69238-.59766,4.92886,4.92886,0,0,1,1.0166-.1543,3.08549,3.08549,0,0,1,.915.10254,1.8577,1.8577,0,0,1,1.28223,1.16211,1.90687,1.90687,0,0,1,.07617,1.26563,6.10461,6.10461,0,0,1-.46973,1.16211.71726.71726,0,0,1,.11133-.02539.25992.25992,0,0,0,.11133-.043,1.54207,1.54207,0,0,1,.6582-.09375,1.84525,1.84525,0,0,1,.63184.16211,1.69424,1.69424,0,0,1,.88086.958,1.77868,1.77868,0,0,1,.10254.6748,1.71227,1.71227,0,0,1-.1543.63281,1.65644,1.65644,0,0,1-.38477.5293,1.63447,1.63447,0,0,1-.58984.35059q-.80273.2915-1.46973.52148-.6665.23145-1.17969.40234-.71777.20508-1.16211.29883A3.93562,3.93562,0,0,1,240.02908,118.64108Z" fill="#dbdbdb"/>
        <path d="M245.37869,119.92331c-.125,0-.24219-.00293-.34961-.00879a1.80771,1.80771,0,0,1-.248-.02539,2.43079,2.43079,0,0,1-.85547-.43555,1.90365,1.90365,0,0,1-.56348-.72656,1.62472,1.62472,0,0,1-.1543-.43652,2.36845,2.36845,0,0,1-.03418-.40137,2.69771,2.69771,0,0,1,.05176-.53027c-.10254-.06836-.21094-.14258-.3252-.22168a.91046.91046,0,0,1-.25586-.25684,1.89838,1.89838,0,0,1-.41113-1.16211,1.7598,1.7598,0,0,1,.17969-.77832,2.288,2.288,0,0,1,.4873-.6582c.05762-.05664.16211-.165.31641-.32422a6.12653,6.12653,0,0,0,.41895-.47949l.3418-.376c.15918-.1709.32227-.34473.4873-.52148q.24756-.26367.4873-.50391c.18164-.15918.3418-.2959.47852-.41016a4.26091,4.26091,0,0,1,.35938-.27344,2.43259,2.43259,0,0,1,1.8457-.3418,1.78075,1.78075,0,0,1,1.31641,1.11133l-.0166-.01758a2.49826,2.49826,0,0,1,.11035.29883,1.812,1.812,0,0,1,.06055.2998c.15918-.1709.30176-.334.42676-.4873.126-.1543.23926-.29395.3418-.41895l.23926-.27344a.26306.26306,0,0,0,.05176-.06836.22481.22481,0,0,0,.03418-.05176,2.20662,2.20662,0,0,1,.93164-.6582,1.82018,1.82018,0,0,1,1.08594-.05957,1.77225,1.77225,0,0,1,.69238.376,2.459,2.459,0,0,1,.52148.63281,2.05647,2.05647,0,0,1,.21289.93164,3.5234,3.5234,0,0,1-.05957.52148,1.30936,1.30936,0,0,1-.043.16211c-.0166.05176-.03125.09961-.042.14551l-.10254.3252-.01758.05078a2.11822,2.11822,0,0,1,.6748.18848,1.70827,1.70827,0,0,1,.57324.42676,1.99957,1.99957,0,0,1,.44434,1.23145,1.8445,1.8445,0,0,1-.70117,1.45313l-.085.085q-.35889.30762-.76074.61523a10.18967,10.18967,0,0,1-.84668.582,3.87222,3.87222,0,0,1-1.98242.59766,2.947,2.947,0,0,1-.82129-.11914,1.86552,1.86552,0,0,1-.57227-.23145,1.669,1.669,0,0,1-.45312-.40137q-.20508.17139-.39355.31641-.1875.145-.42676.29883h.0166a7.10584,7.10584,0,0,1-.752.46191c-.23926.125-.46777.2334-.68359.32422a2.73022,2.73022,0,0,1-.61523.17188A3.95747,3.95747,0,0,1,245.37869,119.92331Z" fill="#dbdbdb"/>
        <path d="M254.47341,119.92331c-.125,0-.24219-.00293-.34961-.00879a1.8077,1.8077,0,0,1-.248-.02539,2.43079,2.43079,0,0,1-.85547-.43555,1.90365,1.90365,0,0,1-.56348-.72656,1.62472,1.62472,0,0,1-.1543-.43652,2.36844,2.36844,0,0,1-.03418-.40137,2.6977,2.6977,0,0,1,.05176-.53027c-.10254-.06836-.21094-.14258-.3252-.22168a.91046.91046,0,0,1-.25586-.25684,1.89838,1.89838,0,0,1-.41113-1.16211,1.7598,1.7598,0,0,1,.17969-.77832,2.288,2.288,0,0,1,.4873-.6582c.05762-.05664.16211-.165.31641-.32422a6.12653,6.12653,0,0,0,.41895-.47949l.3418-.376c.15918-.1709.32227-.34473.4873-.52148q.24756-.26367.4873-.50391c.18164-.15918.3418-.2959.47852-.41016a4.261,4.261,0,0,1,.35938-.27344,2.43259,2.43259,0,0,1,1.8457-.3418,1.78075,1.78075,0,0,1,1.31641,1.11133l-.0166-.01758a2.49826,2.49826,0,0,1,.11035.29883,1.812,1.812,0,0,1,.06055.2998c.15918-.1709.30176-.334.42676-.4873.126-.1543.23926-.29395.3418-.41895l.23926-.27344a.26306.26306,0,0,0,.05176-.06836.22481.22481,0,0,0,.03418-.05176,2.20662,2.20662,0,0,1,.93164-.6582,1.82018,1.82018,0,0,1,1.08594-.05957,1.77225,1.77225,0,0,1,.69238.376,2.459,2.459,0,0,1,.52148.63281,2.05647,2.05647,0,0,1,.21289.93164,3.5234,3.5234,0,0,1-.05957.52148,1.30936,1.30936,0,0,1-.043.16211c-.0166.05176-.03125.09961-.042.14551l-.10254.3252-.01758.05078a2.11822,2.11822,0,0,1,.6748.18848,1.70827,1.70827,0,0,1,.57324.42676,1.99957,1.99957,0,0,1,.44434,1.23145,1.8445,1.8445,0,0,1-.70117,1.45313l-.085.085q-.35889.30762-.76074.61523a10.18967,10.18967,0,0,1-.84668.582,3.87222,3.87222,0,0,1-1.98242.59766,2.947,2.947,0,0,1-.82129-.11914,1.86552,1.86552,0,0,1-.57227-.23145,1.669,1.669,0,0,1-.45312-.40137q-.20508.17139-.39355.31641-.1875.145-.42676.29883h.0166a7.10584,7.10584,0,0,1-.752.46191c-.23926.125-.46777.2334-.68359.32422a2.73021,2.73021,0,0,1-.61523.17188A3.95747,3.95747,0,0,1,254.47341,119.92331Z" fill="#dbdbdb"/>
        <path d="M268.28689,118.64108a1.9057,1.9057,0,0,1-.53027-.085,1.63207,1.63207,0,0,1-.73437-.38477,1.7778,1.7778,0,0,1-.46191-.67578,1.98578,1.98578,0,0,1,.0166-1.46973,5.36334,5.36334,0,0,1,.30762-.68359c.02344-.0459.04883-.09473.07715-.14551.02832-.05176.06055-.10547.09473-.16309-.2627.1377-.51953.28223-.76953.43652q-.37646.23-.76953.43555-.70166.42773-1.3418.77832-.6416.3501-1.18848.58984a1.5229,1.5229,0,0,1-.6582.15332,1.7667,1.7667,0,0,1-.64062-.11914,1.74277,1.74277,0,0,1-.55566-.35059,1.6073,1.6073,0,0,1-.38477-.55566,1.52425,1.52425,0,0,1-.1543-.6582,1.75233,1.75233,0,0,1,.12012-.6416,1.72175,1.72175,0,0,1,.35059-.55469,1.58532,1.58532,0,0,1,.55566-.38477q.39258-.189.96582-.50488.57275-.31641,1.22168-.69238.75293-.44385,1.582-.91406a16.15175,16.15175,0,0,1,1.63281-.8125,6.89015,6.89015,0,0,1,1.69238-.59766,4.92886,4.92886,0,0,1,1.0166-.1543,3.08549,3.08549,0,0,1,.915.10254,1.8577,1.8577,0,0,1,1.28223,1.16211,1.90687,1.90687,0,0,1,.07617,1.26563,6.10461,6.10461,0,0,1-.46973,1.16211.71726.71726,0,0,1,.11133-.02539.25992.25992,0,0,0,.11133-.043,1.54207,1.54207,0,0,1,.6582-.09375,1.84525,1.84525,0,0,1,.63184.16211,1.69424,1.69424,0,0,1,.88086.958,1.77868,1.77868,0,0,1,.10254.6748,1.71227,1.71227,0,0,1-.1543.63281,1.65644,1.65644,0,0,1-.38477.5293,1.63447,1.63447,0,0,1-.58984.35059q-.80273.2915-1.46973.52148-.6665.23145-1.17969.40234-.71777.20508-1.16211.29883A3.93562,3.93562,0,0,1,268.28689,118.64108Z" fill="#dbdbdb"/>
        <path d="M273.63748,119.92331c-.125,0-.24219-.00293-.34961-.00879a1.8077,1.8077,0,0,1-.248-.02539,2.43079,2.43079,0,0,1-.85547-.43555,1.90365,1.90365,0,0,1-.56348-.72656,1.62472,1.62472,0,0,1-.1543-.43652,2.36844,2.36844,0,0,1-.03418-.40137,2.6977,2.6977,0,0,1,.05176-.53027c-.10254-.06836-.21094-.14258-.3252-.22168a.91046.91046,0,0,1-.25586-.25684,1.89838,1.89838,0,0,1-.41113-1.16211,1.7598,1.7598,0,0,1,.17969-.77832,2.288,2.288,0,0,1,.4873-.6582c.05762-.05664.16211-.165.31641-.32422a6.12653,6.12653,0,0,0,.41895-.47949l.3418-.376c.15918-.1709.32227-.34473.4873-.52148q.24756-.26367.4873-.50391c.18164-.15918.3418-.2959.47852-.41016a4.261,4.261,0,0,1,.35938-.27344,2.43259,2.43259,0,0,1,1.8457-.3418,1.78075,1.78075,0,0,1,1.31641,1.11133l-.0166-.01758a2.49826,2.49826,0,0,1,.11035.29883,1.812,1.812,0,0,1,.06055.2998c.15918-.1709.30176-.334.42676-.4873.126-.1543.23926-.29395.3418-.41895l.23926-.27344a.26306.26306,0,0,0,.05176-.06836.22481.22481,0,0,0,.03418-.05176,2.20662,2.20662,0,0,1,.93164-.6582,1.82018,1.82018,0,0,1,1.08594-.05957,1.77225,1.77225,0,0,1,.69238.376,2.459,2.459,0,0,1,.52148.63281,2.05647,2.05647,0,0,1,.21289.93164,3.5234,3.5234,0,0,1-.05957.52148,1.30936,1.30936,0,0,1-.043.16211c-.0166.05176-.03125.09961-.042.14551l-.10254.3252-.01758.05078a2.11822,2.11822,0,0,1,.6748.18848,1.70827,1.70827,0,0,1,.57324.42676,1.99957,1.99957,0,0,1,.44434,1.23145,1.8445,1.8445,0,0,1-.70117,1.45313l-.085.085q-.35889.30762-.76074.61523a10.18967,10.18967,0,0,1-.84668.582,3.87222,3.87222,0,0,1-1.98242.59766,2.947,2.947,0,0,1-.82129-.11914,1.86552,1.86552,0,0,1-.57227-.23145,1.669,1.669,0,0,1-.45312-.40137q-.20508.17139-.39355.31641-.1875.145-.42676.29883h.0166a7.10584,7.10584,0,0,1-.752.46191c-.23926.125-.46777.2334-.68359.32422a2.73021,2.73021,0,0,1-.61523.17188A3.95747,3.95747,0,0,1,273.63748,119.92331Z" fill="#dbdbdb"/>
        <path d="M136.05642,134.3989a1.9057,1.9057,0,0,1-.53027-.085,1.63206,1.63206,0,0,1-.73437-.38477,1.7778,1.7778,0,0,1-.46191-.67578,1.98578,1.98578,0,0,1,.0166-1.46973,5.36333,5.36333,0,0,1,.30762-.68359c.02344-.0459.04883-.09473.07715-.14551.02832-.05176.06055-.10547.09473-.16309-.2627.1377-.51953.28223-.76953.43652q-.37646.23-.76953.43555-.70166.42773-1.3418.77832-.6416.3501-1.18848.58984a1.5229,1.5229,0,0,1-.6582.15332,1.7667,1.7667,0,0,1-.64062-.11914,1.74277,1.74277,0,0,1-.55566-.35059,1.6073,1.6073,0,0,1-.38477-.55566,1.52425,1.52425,0,0,1-.1543-.6582,1.75233,1.75233,0,0,1,.12012-.6416,1.72175,1.72175,0,0,1,.35059-.55469,1.58532,1.58532,0,0,1,.55566-.38477q.39258-.189.96582-.50488.57275-.31641,1.22168-.69238.75293-.44385,1.582-.91406a16.15175,16.15175,0,0,1,1.63281-.8125,6.89015,6.89015,0,0,1,1.69238-.59766,4.92886,4.92886,0,0,1,1.0166-.1543,3.08549,3.08549,0,0,1,.915.10254,1.8577,1.8577,0,0,1,1.28223,1.16211,1.90688,1.90688,0,0,1,.07617,1.26563,6.10461,6.10461,0,0,1-.46973,1.16211.71727.71727,0,0,1,.11133-.02539.25992.25992,0,0,0,.11133-.043,1.54207,1.54207,0,0,1,.6582-.09375,1.84525,1.84525,0,0,1,.63184.16211,1.69424,1.69424,0,0,1,.88086.958,1.77868,1.77868,0,0,1,.10254.6748,1.71228,1.71228,0,0,1-.1543.63281,1.65644,1.65644,0,0,1-.38477.5293,1.63447,1.63447,0,0,1-.58984.35059q-.80273.2915-1.46973.52148-.6665.23145-1.17969.40234-.71777.20508-1.16211.29883A3.93562,3.93562,0,0,1,136.05642,134.3989Z" fill="#dbdbdb"/>
        <path d="M141.407,135.68112c-.125,0-.24219-.00293-.34961-.00879a1.80771,1.80771,0,0,1-.248-.02539,2.43079,2.43079,0,0,1-.85547-.43555,1.90365,1.90365,0,0,1-.56348-.72656,1.62472,1.62472,0,0,1-.1543-.43652,2.36845,2.36845,0,0,1-.03418-.40137,2.6977,2.6977,0,0,1,.05176-.53027c-.10254-.06836-.21094-.14258-.3252-.22168a.91046.91046,0,0,1-.25586-.25684,1.89838,1.89838,0,0,1-.41113-1.16211,1.7598,1.7598,0,0,1,.17969-.77832,2.288,2.288,0,0,1,.4873-.6582c.05762-.05664.16211-.165.31641-.32422a6.12653,6.12653,0,0,0,.41895-.47949l.3418-.376c.15918-.1709.32227-.34473.4873-.52148q.24756-.26367.4873-.50391c.18164-.15918.3418-.2959.47852-.41016a4.26091,4.26091,0,0,1,.35938-.27344,2.43259,2.43259,0,0,1,1.8457-.3418,1.78075,1.78075,0,0,1,1.31641,1.11133l-.0166-.01758a2.49827,2.49827,0,0,1,.11035.29883,1.812,1.812,0,0,1,.06055.2998c.15918-.1709.30176-.334.42676-.4873.126-.1543.23926-.29395.3418-.41895l.23926-.27344a.26306.26306,0,0,0,.05176-.06836.22481.22481,0,0,0,.03418-.05176,2.20662,2.20662,0,0,1,.93164-.6582,1.82018,1.82018,0,0,1,1.08594-.05957,1.77225,1.77225,0,0,1,.69238.376,2.459,2.459,0,0,1,.52148.63281,2.05647,2.05647,0,0,1,.21289.93164,3.52341,3.52341,0,0,1-.05957.52148,1.30937,1.30937,0,0,1-.043.16211c-.0166.05176-.03125.09961-.042.14551l-.10254.3252-.01758.05078a2.11822,2.11822,0,0,1,.6748.18848,1.70827,1.70827,0,0,1,.57324.42676,1.99957,1.99957,0,0,1,.44434,1.23145,1.8445,1.8445,0,0,1-.70117,1.45313l-.085.085q-.35889.30762-.76074.61523a10.18966,10.18966,0,0,1-.84668.582,3.87222,3.87222,0,0,1-1.98242.59766,2.947,2.947,0,0,1-.82129-.11914,1.86552,1.86552,0,0,1-.57227-.23145,1.669,1.669,0,0,1-.45312-.40137q-.20508.17139-.39355.31641-.1875.145-.42676.29883h.0166a7.10585,7.10585,0,0,1-.752.46191c-.23926.125-.46777.2334-.68359.32422a2.73022,2.73022,0,0,1-.61523.17188A3.95747,3.95747,0,0,1,141.407,135.68112Z" fill="#dbdbdb"/>
        <path d="M150.50173,135.68112c-.125,0-.24219-.00293-.34961-.00879a1.80771,1.80771,0,0,1-.248-.02539,2.43079,2.43079,0,0,1-.85547-.43555,1.90365,1.90365,0,0,1-.56348-.72656,1.62472,1.62472,0,0,1-.1543-.43652,2.36845,2.36845,0,0,1-.03418-.40137,2.6977,2.6977,0,0,1,.05176-.53027c-.10254-.06836-.21094-.14258-.3252-.22168a.91046.91046,0,0,1-.25586-.25684,1.89838,1.89838,0,0,1-.41113-1.16211,1.7598,1.7598,0,0,1,.17969-.77832,2.288,2.288,0,0,1,.4873-.6582c.05762-.05664.16211-.165.31641-.32422a6.12655,6.12655,0,0,0,.41895-.47949l.3418-.376c.15918-.1709.32227-.34473.4873-.52148q.24756-.26367.4873-.50391c.18164-.15918.3418-.2959.47852-.41016a4.261,4.261,0,0,1,.35938-.27344,2.43259,2.43259,0,0,1,1.8457-.3418,1.78075,1.78075,0,0,1,1.31641,1.11133l-.0166-.01758a2.49827,2.49827,0,0,1,.11035.29883,1.812,1.812,0,0,1,.06055.2998c.15918-.1709.30176-.334.42676-.4873.126-.1543.23926-.29395.3418-.41895l.23926-.27344a.26306.26306,0,0,0,.05176-.06836.22481.22481,0,0,0,.03418-.05176,2.20662,2.20662,0,0,1,.93164-.6582,1.82018,1.82018,0,0,1,1.08594-.05957,1.77225,1.77225,0,0,1,.69238.376,2.459,2.459,0,0,1,.52148.63281,2.05647,2.05647,0,0,1,.21289.93164,3.52339,3.52339,0,0,1-.05957.52148,1.30936,1.30936,0,0,1-.043.16211c-.0166.05176-.03125.09961-.042.14551l-.10254.3252-.01758.05078a2.11822,2.11822,0,0,1,.6748.18848,1.70827,1.70827,0,0,1,.57324.42676,1.99957,1.99957,0,0,1,.44434,1.23145,1.8445,1.8445,0,0,1-.70117,1.45313l-.085.085q-.35889.30762-.76074.61523a10.18967,10.18967,0,0,1-.84668.582,3.87222,3.87222,0,0,1-1.98242.59766,2.947,2.947,0,0,1-.82129-.11914,1.86552,1.86552,0,0,1-.57227-.23145,1.669,1.669,0,0,1-.45312-.40137q-.20508.17139-.39355.31641-.1875.145-.42676.29883h.0166a7.10584,7.10584,0,0,1-.752.46191c-.23926.125-.46777.2334-.68359.32422a2.73021,2.73021,0,0,1-.61523.17188A3.95747,3.95747,0,0,1,150.50173,135.68112Z" fill="#dbdbdb"/>
        <path d="M159.59548,135.68112c-.125,0-.24219-.00293-.34961-.00879a1.80771,1.80771,0,0,1-.248-.02539,2.43079,2.43079,0,0,1-.85547-.43555,1.90365,1.90365,0,0,1-.56348-.72656,1.62472,1.62472,0,0,1-.1543-.43652,2.36845,2.36845,0,0,1-.03418-.40137,2.6977,2.6977,0,0,1,.05176-.53027c-.10254-.06836-.21094-.14258-.3252-.22168a.91046.91046,0,0,1-.25586-.25684A1.89838,1.89838,0,0,1,156.45,131.476a1.7598,1.7598,0,0,1,.17969-.77832,2.288,2.288,0,0,1,.4873-.6582c.05762-.05664.16211-.165.31641-.32422a6.12655,6.12655,0,0,0,.41895-.47949l.3418-.376c.15918-.1709.32227-.34473.4873-.52148q.24756-.26367.4873-.50391c.18164-.15918.3418-.2959.47852-.41016a4.261,4.261,0,0,1,.35938-.27344,2.43259,2.43259,0,0,1,1.8457-.3418,1.78075,1.78075,0,0,1,1.31641,1.11133l-.0166-.01758a2.49827,2.49827,0,0,1,.11035.29883,1.812,1.812,0,0,1,.06055.2998c.15918-.1709.30176-.334.42676-.4873.126-.1543.23926-.29395.3418-.41895l.23926-.27344a.26306.26306,0,0,0,.05176-.06836.22481.22481,0,0,0,.03418-.05176,2.20662,2.20662,0,0,1,.93164-.6582,1.82018,1.82018,0,0,1,1.08594-.05957,1.77225,1.77225,0,0,1,.69238.376,2.459,2.459,0,0,1,.52148.63281,2.05647,2.05647,0,0,1,.21289.93164,3.52339,3.52339,0,0,1-.05957.52148,1.30936,1.30936,0,0,1-.043.16211c-.0166.05176-.03125.09961-.042.14551l-.10254.3252-.01758.05078a2.11822,2.11822,0,0,1,.6748.18848,1.70827,1.70827,0,0,1,.57324.42676,1.99957,1.99957,0,0,1,.44434,1.23145,1.8445,1.8445,0,0,1-.70117,1.45313l-.085.085q-.35889.30762-.76074.61523a10.18967,10.18967,0,0,1-.84668.582,3.87222,3.87222,0,0,1-1.98242.59766,2.947,2.947,0,0,1-.82129-.11914,1.86552,1.86552,0,0,1-.57227-.23145,1.669,1.669,0,0,1-.45312-.40137q-.20508.17139-.39355.31641-.1875.145-.42676.29883h.0166a7.10584,7.10584,0,0,1-.752.46191c-.23926.125-.46777.2334-.68359.32422a2.73021,2.73021,0,0,1-.61523.17188A3.95747,3.95747,0,0,1,159.59548,135.68112Z" fill="#dbdbdb"/>
        <path d="M173.409,134.3989a1.9057,1.9057,0,0,1-.53027-.085,1.63206,1.63206,0,0,1-.73437-.38477,1.7778,1.7778,0,0,1-.46191-.67578,1.98578,1.98578,0,0,1,.0166-1.46973,5.36333,5.36333,0,0,1,.30762-.68359c.02344-.0459.04883-.09473.07715-.14551.02832-.05176.06055-.10547.09473-.16309-.2627.1377-.51953.28223-.76953.43652q-.37646.23-.76953.43555-.70166.42773-1.3418.77832-.6416.3501-1.18848.58984a1.5229,1.5229,0,0,1-.6582.15332,1.7667,1.7667,0,0,1-.64062-.11914,1.74277,1.74277,0,0,1-.55566-.35059,1.6073,1.6073,0,0,1-.38477-.55566,1.52425,1.52425,0,0,1-.1543-.6582,1.75233,1.75233,0,0,1,.12012-.6416,1.72175,1.72175,0,0,1,.35059-.55469,1.58532,1.58532,0,0,1,.55566-.38477q.39258-.189.96582-.50488.57275-.31641,1.22168-.69238.75293-.44385,1.582-.91406a16.15173,16.15173,0,0,1,1.63281-.8125,6.89015,6.89015,0,0,1,1.69238-.59766,4.92886,4.92886,0,0,1,1.0166-.1543,3.08549,3.08549,0,0,1,.915.10254,1.8577,1.8577,0,0,1,1.28223,1.16211,1.90688,1.90688,0,0,1,.07617,1.26563,6.10461,6.10461,0,0,1-.46973,1.16211.71726.71726,0,0,1,.11133-.02539.25992.25992,0,0,0,.11133-.043,1.54207,1.54207,0,0,1,.6582-.09375,1.84525,1.84525,0,0,1,.63184.16211,1.69424,1.69424,0,0,1,.88086.958,1.77868,1.77868,0,0,1,.10254.6748,1.71227,1.71227,0,0,1-.1543.63281,1.65644,1.65644,0,0,1-.38477.5293,1.63447,1.63447,0,0,1-.58984.35059q-.80273.2915-1.46973.52148-.6665.23145-1.17969.40234-.71777.20508-1.16211.29883A3.93562,3.93562,0,0,1,173.409,134.3989Z" fill="#dbdbdb"/>
        <path d="M178.75955,135.68112c-.125,0-.24219-.00293-.34961-.00879a1.80771,1.80771,0,0,1-.248-.02539,2.43079,2.43079,0,0,1-.85547-.43555,1.90365,1.90365,0,0,1-.56348-.72656,1.62472,1.62472,0,0,1-.1543-.43652,2.36845,2.36845,0,0,1-.03418-.40137,2.6977,2.6977,0,0,1,.05176-.53027c-.10254-.06836-.21094-.14258-.3252-.22168a.91046.91046,0,0,1-.25586-.25684,1.89838,1.89838,0,0,1-.41113-1.16211,1.7598,1.7598,0,0,1,.17969-.77832,2.288,2.288,0,0,1,.4873-.6582c.05762-.05664.16211-.165.31641-.32422a6.12655,6.12655,0,0,0,.41895-.47949l.3418-.376c.15918-.1709.32227-.34473.4873-.52148q.24756-.26367.4873-.50391c.18164-.15918.3418-.2959.47852-.41016a4.261,4.261,0,0,1,.35938-.27344,2.43259,2.43259,0,0,1,1.8457-.3418,1.78075,1.78075,0,0,1,1.31641,1.11133l-.0166-.01758a2.49827,2.49827,0,0,1,.11035.29883,1.812,1.812,0,0,1,.06055.2998c.15918-.1709.30176-.334.42676-.4873.126-.1543.23926-.29395.3418-.41895l.23926-.27344a.26306.26306,0,0,0,.05176-.06836.22481.22481,0,0,0,.03418-.05176,2.20662,2.20662,0,0,1,.93164-.6582,1.82018,1.82018,0,0,1,1.08594-.05957,1.77225,1.77225,0,0,1,.69238.376,2.459,2.459,0,0,1,.52148.63281,2.05647,2.05647,0,0,1,.21289.93164,3.52339,3.52339,0,0,1-.05957.52148,1.30936,1.30936,0,0,1-.043.16211c-.0166.05176-.03125.09961-.042.14551l-.10254.3252-.01758.05078a2.11822,2.11822,0,0,1,.6748.18848,1.70827,1.70827,0,0,1,.57324.42676,1.99957,1.99957,0,0,1,.44434,1.23145,1.8445,1.8445,0,0,1-.70117,1.45313l-.085.085q-.35889.30762-.76074.61523a10.18967,10.18967,0,0,1-.84668.582,3.87222,3.87222,0,0,1-1.98242.59766,2.947,2.947,0,0,1-.82129-.11914,1.86552,1.86552,0,0,1-.57227-.23145,1.669,1.669,0,0,1-.45312-.40137q-.20508.17139-.39355.31641-.1875.145-.42676.29883h.0166a7.10584,7.10584,0,0,1-.752.46191c-.23926.125-.46777.2334-.68359.32422a2.73021,2.73021,0,0,1-.61523.17188A3.95747,3.95747,0,0,1,178.75955,135.68112Z" fill="#dbdbdb"/>
        <path d="M187.85427,135.68112c-.125,0-.24219-.00293-.34961-.00879a1.80771,1.80771,0,0,1-.248-.02539,2.43079,2.43079,0,0,1-.85547-.43555,1.90365,1.90365,0,0,1-.56348-.72656,1.62472,1.62472,0,0,1-.1543-.43652,2.36844,2.36844,0,0,1-.03418-.40137,2.6977,2.6977,0,0,1,.05176-.53027c-.10254-.06836-.21094-.14258-.3252-.22168a.91046.91046,0,0,1-.25586-.25684,1.89838,1.89838,0,0,1-.41113-1.16211,1.7598,1.7598,0,0,1,.17969-.77832,2.288,2.288,0,0,1,.4873-.6582c.05762-.05664.16211-.165.31641-.32422a6.12653,6.12653,0,0,0,.41895-.47949l.3418-.376c.15918-.1709.32227-.34473.4873-.52148q.24756-.26367.4873-.50391c.18164-.15918.3418-.2959.47852-.41016a4.26093,4.26093,0,0,1,.35938-.27344,2.43259,2.43259,0,0,1,1.8457-.3418,1.78075,1.78075,0,0,1,1.31641,1.11133l-.0166-.01758a2.49826,2.49826,0,0,1,.11035.29883,1.812,1.812,0,0,1,.06055.2998c.15918-.1709.30176-.334.42676-.4873.126-.1543.23926-.29395.3418-.41895l.23926-.27344a.26306.26306,0,0,0,.05176-.06836.22481.22481,0,0,0,.03418-.05176,2.20662,2.20662,0,0,1,.93164-.6582,1.82018,1.82018,0,0,1,1.08594-.05957,1.77225,1.77225,0,0,1,.69238.376,2.459,2.459,0,0,1,.52148.63281,2.05647,2.05647,0,0,1,.21289.93164,3.52341,3.52341,0,0,1-.05957.52148,1.30936,1.30936,0,0,1-.043.16211c-.0166.05176-.03125.09961-.042.14551l-.10254.3252-.01758.05078a2.11822,2.11822,0,0,1,.6748.18848,1.70827,1.70827,0,0,1,.57324.42676,1.99957,1.99957,0,0,1,.44434,1.23145,1.8445,1.8445,0,0,1-.70117,1.45313l-.085.085q-.35889.30762-.76074.61523a10.18967,10.18967,0,0,1-.84668.582,3.87222,3.87222,0,0,1-1.98242.59766,2.947,2.947,0,0,1-.82129-.11914,1.86552,1.86552,0,0,1-.57227-.23145,1.669,1.669,0,0,1-.45312-.40137q-.20508.17139-.39355.31641-.1875.145-.42676.29883h.0166a7.10585,7.10585,0,0,1-.752.46191c-.23926.125-.46777.2334-.68359.32422a2.73021,2.73021,0,0,1-.61523.17188A3.95746,3.95746,0,0,1,187.85427,135.68112Z" fill="#dbdbdb"/>
        <path d="M201.66775,134.3989a1.9057,1.9057,0,0,1-.53027-.085,1.63206,1.63206,0,0,1-.73437-.38477,1.7778,1.7778,0,0,1-.46191-.67578,1.98578,1.98578,0,0,1,.0166-1.46973,5.36334,5.36334,0,0,1,.30762-.68359c.02344-.0459.04883-.09473.07715-.14551.02832-.05176.06055-.10547.09473-.16309-.2627.1377-.51953.28223-.76953.43652q-.37646.23-.76953.43555-.70166.42773-1.3418.77832-.6416.3501-1.18848.58984a1.5229,1.5229,0,0,1-.6582.15332,1.7667,1.7667,0,0,1-.64062-.11914,1.74277,1.74277,0,0,1-.55566-.35059,1.6073,1.6073,0,0,1-.38477-.55566,1.52425,1.52425,0,0,1-.1543-.6582,1.75232,1.75232,0,0,1,.12012-.6416,1.72175,1.72175,0,0,1,.35059-.55469,1.58532,1.58532,0,0,1,.55566-.38477q.39258-.189.96582-.50488.57275-.31641,1.22168-.69238.75293-.44385,1.582-.91406a16.15175,16.15175,0,0,1,1.63281-.8125,6.89015,6.89015,0,0,1,1.69238-.59766,4.92886,4.92886,0,0,1,1.0166-.1543,3.08549,3.08549,0,0,1,.915.10254,1.8577,1.8577,0,0,1,1.28223,1.16211,1.90687,1.90687,0,0,1,.07617,1.26563,6.1046,6.1046,0,0,1-.46973,1.16211.71727.71727,0,0,1,.11133-.02539.25992.25992,0,0,0,.11133-.043,1.54207,1.54207,0,0,1,.6582-.09375,1.84525,1.84525,0,0,1,.63184.16211,1.69424,1.69424,0,0,1,.88086.958,1.77868,1.77868,0,0,1,.10254.6748,1.71228,1.71228,0,0,1-.1543.63281,1.65644,1.65644,0,0,1-.38477.5293,1.63447,1.63447,0,0,1-.58984.35059q-.80273.2915-1.46973.52148-.6665.23145-1.17969.40234-.71777.20508-1.16211.29883A3.93562,3.93562,0,0,1,201.66775,134.3989Z" fill="#dbdbdb"/>
        <path d="M207.01736,135.68112c-.125,0-.24219-.00293-.34961-.00879a1.80771,1.80771,0,0,1-.248-.02539,2.43079,2.43079,0,0,1-.85547-.43555,1.90365,1.90365,0,0,1-.56348-.72656,1.62472,1.62472,0,0,1-.1543-.43652,2.36845,2.36845,0,0,1-.03418-.40137,2.6977,2.6977,0,0,1,.05176-.53027c-.10254-.06836-.21094-.14258-.3252-.22168a.91046.91046,0,0,1-.25586-.25684,1.89838,1.89838,0,0,1-.41113-1.16211,1.7598,1.7598,0,0,1,.17969-.77832,2.288,2.288,0,0,1,.4873-.6582c.05762-.05664.16211-.165.31641-.32422a6.12655,6.12655,0,0,0,.41895-.47949l.3418-.376c.15918-.1709.32227-.34473.4873-.52148q.24756-.26367.4873-.50391c.18164-.15918.3418-.2959.47852-.41016a4.261,4.261,0,0,1,.35938-.27344,2.43259,2.43259,0,0,1,1.8457-.3418,1.78075,1.78075,0,0,1,1.31641,1.11133l-.0166-.01758a2.49827,2.49827,0,0,1,.11035.29883,1.812,1.812,0,0,1,.06055.2998c.15918-.1709.30176-.334.42676-.4873.126-.1543.23926-.29395.3418-.41895l.23926-.27344a.26306.26306,0,0,0,.05176-.06836.22481.22481,0,0,0,.03418-.05176,2.20662,2.20662,0,0,1,.93164-.6582,1.82018,1.82018,0,0,1,1.08594-.05957,1.77225,1.77225,0,0,1,.69238.376,2.459,2.459,0,0,1,.52148.63281,2.05647,2.05647,0,0,1,.21289.93164,3.52339,3.52339,0,0,1-.05957.52148,1.30936,1.30936,0,0,1-.043.16211c-.0166.05176-.03125.09961-.042.14551l-.10254.3252-.01758.05078a2.11822,2.11822,0,0,1,.6748.18848,1.70827,1.70827,0,0,1,.57324.42676,1.99957,1.99957,0,0,1,.44434,1.23145,1.8445,1.8445,0,0,1-.70117,1.45313l-.085.085q-.35889.30762-.76074.61523a10.18967,10.18967,0,0,1-.84668.582,3.87222,3.87222,0,0,1-1.98242.59766,2.947,2.947,0,0,1-.82129-.11914,1.86552,1.86552,0,0,1-.57227-.23145,1.669,1.669,0,0,1-.45312-.40137q-.20508.17139-.39355.31641-.1875.145-.42676.29883h.0166a7.10584,7.10584,0,0,1-.752.46191c-.23926.125-.46777.2334-.68359.32422a2.73021,2.73021,0,0,1-.61523.17188A3.95747,3.95747,0,0,1,207.01736,135.68112Z" fill="#dbdbdb"/>
        <path d="M216.11208,135.68112c-.125,0-.24219-.00293-.34961-.00879a1.80771,1.80771,0,0,1-.248-.02539,2.43079,2.43079,0,0,1-.85547-.43555,1.90365,1.90365,0,0,1-.56348-.72656,1.62472,1.62472,0,0,1-.1543-.43652,2.36844,2.36844,0,0,1-.03418-.40137,2.6977,2.6977,0,0,1,.05176-.53027c-.10254-.06836-.21094-.14258-.3252-.22168a.91046.91046,0,0,1-.25586-.25684,1.89838,1.89838,0,0,1-.41113-1.16211,1.7598,1.7598,0,0,1,.17969-.77832,2.288,2.288,0,0,1,.4873-.6582c.05762-.05664.16211-.165.31641-.32422a6.12653,6.12653,0,0,0,.41895-.47949l.3418-.376c.15918-.1709.32227-.34473.4873-.52148q.24756-.26367.4873-.50391c.18164-.15918.3418-.2959.47852-.41016a4.26093,4.26093,0,0,1,.35938-.27344,2.43259,2.43259,0,0,1,1.8457-.3418,1.78075,1.78075,0,0,1,1.31641,1.11133l-.0166-.01758a2.49826,2.49826,0,0,1,.11035.29883,1.812,1.812,0,0,1,.06055.2998c.15918-.1709.30176-.334.42676-.4873.126-.1543.23926-.29395.3418-.41895l.23926-.27344a.26306.26306,0,0,0,.05176-.06836.22481.22481,0,0,0,.03418-.05176,2.20662,2.20662,0,0,1,.93164-.6582,1.82018,1.82018,0,0,1,1.08594-.05957,1.77225,1.77225,0,0,1,.69238.376,2.459,2.459,0,0,1,.52148.63281,2.05647,2.05647,0,0,1,.21289.93164,3.52341,3.52341,0,0,1-.05957.52148,1.30936,1.30936,0,0,1-.043.16211c-.0166.05176-.03125.09961-.042.14551l-.10254.3252-.01758.05078a2.11822,2.11822,0,0,1,.6748.18848,1.70827,1.70827,0,0,1,.57324.42676,1.99957,1.99957,0,0,1,.44434,1.23145,1.8445,1.8445,0,0,1-.70117,1.45313l-.085.085q-.35889.30762-.76074.61523a10.18967,10.18967,0,0,1-.84668.582,3.87222,3.87222,0,0,1-1.98242.59766,2.947,2.947,0,0,1-.82129-.11914,1.86552,1.86552,0,0,1-.57227-.23145,1.669,1.669,0,0,1-.45312-.40137q-.20508.17139-.39355.31641-.1875.145-.42676.29883h.0166a7.10585,7.10585,0,0,1-.752.46191c-.23926.125-.46777.2334-.68359.32422a2.73021,2.73021,0,0,1-.61523.17188A3.95746,3.95746,0,0,1,216.11208,135.68112Z" fill="#dbdbdb"/>
        <path d="M225.20681,135.68112c-.125,0-.24219-.00293-.34961-.00879a1.80771,1.80771,0,0,1-.248-.02539,2.43079,2.43079,0,0,1-.85547-.43555,1.90365,1.90365,0,0,1-.56348-.72656,1.62472,1.62472,0,0,1-.1543-.43652,2.36845,2.36845,0,0,1-.03418-.40137,2.69771,2.69771,0,0,1,.05176-.53027c-.10254-.06836-.21094-.14258-.3252-.22168a.91046.91046,0,0,1-.25586-.25684,1.89838,1.89838,0,0,1-.41113-1.16211,1.7598,1.7598,0,0,1,.17969-.77832,2.288,2.288,0,0,1,.4873-.6582c.05762-.05664.16211-.165.31641-.32422a6.12653,6.12653,0,0,0,.41895-.47949l.3418-.376c.15918-.1709.32227-.34473.4873-.52148q.24756-.26367.4873-.50391c.18164-.15918.3418-.2959.47852-.41016a4.26091,4.26091,0,0,1,.35938-.27344,2.43259,2.43259,0,0,1,1.8457-.3418,1.78075,1.78075,0,0,1,1.31641,1.11133l-.0166-.01758a2.49826,2.49826,0,0,1,.11035.29883,1.812,1.812,0,0,1,.06055.2998c.15918-.1709.30176-.334.42676-.4873.126-.1543.23926-.29395.3418-.41895l.23926-.27344a.26306.26306,0,0,0,.05176-.06836.22481.22481,0,0,0,.03418-.05176,2.20662,2.20662,0,0,1,.93164-.6582,1.82018,1.82018,0,0,1,1.08594-.05957,1.77225,1.77225,0,0,1,.69238.376,2.459,2.459,0,0,1,.52148.63281,2.05647,2.05647,0,0,1,.21289.93164,3.5234,3.5234,0,0,1-.05957.52148,1.30936,1.30936,0,0,1-.043.16211c-.0166.05176-.03125.09961-.042.14551l-.10254.3252-.01758.05078a2.11822,2.11822,0,0,1,.6748.18848,1.70827,1.70827,0,0,1,.57324.42676,1.99957,1.99957,0,0,1,.44434,1.23145,1.8445,1.8445,0,0,1-.70117,1.45313l-.085.085q-.35889.30762-.76074.61523a10.18967,10.18967,0,0,1-.84668.582,3.87222,3.87222,0,0,1-1.98242.59766,2.947,2.947,0,0,1-.82129-.11914,1.86552,1.86552,0,0,1-.57227-.23145,1.669,1.669,0,0,1-.45312-.40137q-.20508.17139-.39355.31641-.1875.145-.42676.29883h.0166a7.10584,7.10584,0,0,1-.752.46191c-.23926.125-.46777.2334-.68359.32422a2.73022,2.73022,0,0,1-.61523.17188A3.95747,3.95747,0,0,1,225.20681,135.68112Z" fill="#dbdbdb"/>
        <path d="M136.05642,150.15671a1.9057,1.9057,0,0,1-.53027-.085,1.63206,1.63206,0,0,1-.73437-.38477,1.7778,1.7778,0,0,1-.46191-.67578,1.98578,1.98578,0,0,1,.0166-1.46973,5.36333,5.36333,0,0,1,.30762-.68359c.02344-.0459.04883-.09473.07715-.14551.02832-.05176.06055-.10547.09473-.16309-.2627.1377-.51953.28223-.76953.43652q-.37646.23-.76953.43555-.70166.42773-1.3418.77832-.6416.3501-1.18848.58984a1.5229,1.5229,0,0,1-.6582.15332,1.7667,1.7667,0,0,1-.64062-.11914,1.74277,1.74277,0,0,1-.55566-.35059,1.6073,1.6073,0,0,1-.38477-.55566,1.52425,1.52425,0,0,1-.1543-.6582,1.75233,1.75233,0,0,1,.12012-.6416,1.72175,1.72175,0,0,1,.35059-.55469,1.58532,1.58532,0,0,1,.55566-.38477q.39258-.189.96582-.50488.57275-.31641,1.22168-.69238.75293-.44385,1.582-.91406a16.15175,16.15175,0,0,1,1.63281-.8125,6.89015,6.89015,0,0,1,1.69238-.59766,4.92886,4.92886,0,0,1,1.0166-.1543,3.08549,3.08549,0,0,1,.915.10254,1.8577,1.8577,0,0,1,1.28223,1.16211,1.90688,1.90688,0,0,1,.07617,1.26563,6.10461,6.10461,0,0,1-.46973,1.16211.71727.71727,0,0,1,.11133-.02539.25992.25992,0,0,0,.11133-.043,1.54207,1.54207,0,0,1,.6582-.09375,1.84525,1.84525,0,0,1,.63184.16211,1.69424,1.69424,0,0,1,.88086.958,1.77868,1.77868,0,0,1,.10254.6748,1.71228,1.71228,0,0,1-.1543.63281,1.65644,1.65644,0,0,1-.38477.5293,1.63447,1.63447,0,0,1-.58984.35059q-.80273.2915-1.46973.52148-.6665.23145-1.17969.40234-.71777.20508-1.16211.29883A3.93562,3.93562,0,0,1,136.05642,150.15671Z" fill="#dbdbdb"/>
        <path d="M141.407,151.43894c-.125,0-.24219-.00293-.34961-.00879a1.80771,1.80771,0,0,1-.248-.02539,2.43079,2.43079,0,0,1-.85547-.43555,1.90365,1.90365,0,0,1-.56348-.72656,1.62472,1.62472,0,0,1-.1543-.43652,2.36845,2.36845,0,0,1-.03418-.40137,2.6977,2.6977,0,0,1,.05176-.53027c-.10254-.06836-.21094-.14258-.3252-.22168a.91046.91046,0,0,1-.25586-.25684,1.89838,1.89838,0,0,1-.41113-1.16211,1.7598,1.7598,0,0,1,.17969-.77832,2.288,2.288,0,0,1,.4873-.6582c.05762-.05664.16211-.165.31641-.32422a6.12653,6.12653,0,0,0,.41895-.47949l.3418-.376c.15918-.1709.32227-.34473.4873-.52148q.24756-.26367.4873-.50391c.18164-.15918.3418-.2959.47852-.41016a4.26091,4.26091,0,0,1,.35938-.27344,2.43259,2.43259,0,0,1,1.8457-.3418,1.78075,1.78075,0,0,1,1.31641,1.11133l-.0166-.01758a2.49827,2.49827,0,0,1,.11035.29883,1.812,1.812,0,0,1,.06055.2998c.15918-.1709.30176-.334.42676-.4873.126-.1543.23926-.29395.3418-.41895l.23926-.27344a.26306.26306,0,0,0,.05176-.06836.22481.22481,0,0,0,.03418-.05176,2.20662,2.20662,0,0,1,.93164-.6582,1.82018,1.82018,0,0,1,1.08594-.05957,1.77225,1.77225,0,0,1,.69238.376,2.459,2.459,0,0,1,.52148.63281,2.05647,2.05647,0,0,1,.21289.93164,3.52341,3.52341,0,0,1-.05957.52148,1.30937,1.30937,0,0,1-.043.16211c-.0166.05176-.03125.09961-.042.14551l-.10254.3252-.01758.05078a2.11822,2.11822,0,0,1,.6748.18848,1.70827,1.70827,0,0,1,.57324.42676,1.99957,1.99957,0,0,1,.44434,1.23145,1.8445,1.8445,0,0,1-.70117,1.45313l-.085.085q-.35889.30762-.76074.61523a10.18966,10.18966,0,0,1-.84668.582,3.87222,3.87222,0,0,1-1.98242.59766,2.947,2.947,0,0,1-.82129-.11914,1.86552,1.86552,0,0,1-.57227-.23145,1.669,1.669,0,0,1-.45312-.40137q-.20508.17139-.39355.31641-.1875.145-.42676.29883h.0166a7.10585,7.10585,0,0,1-.752.46191c-.23926.125-.46777.2334-.68359.32422a2.73022,2.73022,0,0,1-.61523.17188A3.95747,3.95747,0,0,1,141.407,151.43894Z" fill="#dbdbdb"/>
        <path d="M150.50173,151.43894c-.125,0-.24219-.00293-.34961-.00879a1.80771,1.80771,0,0,1-.248-.02539,2.43079,2.43079,0,0,1-.85547-.43555,1.90365,1.90365,0,0,1-.56348-.72656,1.62472,1.62472,0,0,1-.1543-.43652,2.36845,2.36845,0,0,1-.03418-.40137,2.6977,2.6977,0,0,1,.05176-.53027c-.10254-.06836-.21094-.14258-.3252-.22168a.91046.91046,0,0,1-.25586-.25684,1.89838,1.89838,0,0,1-.41113-1.16211,1.7598,1.7598,0,0,1,.17969-.77832,2.288,2.288,0,0,1,.4873-.6582c.05762-.05664.16211-.165.31641-.32422a6.12655,6.12655,0,0,0,.41895-.47949l.3418-.376c.15918-.1709.32227-.34473.4873-.52148q.24756-.26367.4873-.50391c.18164-.15918.3418-.2959.47852-.41016a4.261,4.261,0,0,1,.35938-.27344,2.43259,2.43259,0,0,1,1.8457-.3418,1.78075,1.78075,0,0,1,1.31641,1.11133l-.0166-.01758a2.49827,2.49827,0,0,1,.11035.29883,1.812,1.812,0,0,1,.06055.2998c.15918-.1709.30176-.334.42676-.4873.126-.1543.23926-.29395.3418-.41895l.23926-.27344a.26306.26306,0,0,0,.05176-.06836.22481.22481,0,0,0,.03418-.05176,2.20662,2.20662,0,0,1,.93164-.6582,1.82018,1.82018,0,0,1,1.08594-.05957,1.77225,1.77225,0,0,1,.69238.376,2.459,2.459,0,0,1,.52148.63281,2.05647,2.05647,0,0,1,.21289.93164,3.52339,3.52339,0,0,1-.05957.52148,1.30936,1.30936,0,0,1-.043.16211c-.0166.05176-.03125.09961-.042.14551l-.10254.3252-.01758.05078a2.11822,2.11822,0,0,1,.6748.18848,1.70827,1.70827,0,0,1,.57324.42676,1.99957,1.99957,0,0,1,.44434,1.23145,1.8445,1.8445,0,0,1-.70117,1.45313l-.085.085q-.35889.30762-.76074.61523a10.18967,10.18967,0,0,1-.84668.582,3.87222,3.87222,0,0,1-1.98242.59766,2.947,2.947,0,0,1-.82129-.11914,1.86552,1.86552,0,0,1-.57227-.23145,1.669,1.669,0,0,1-.45312-.40137q-.20508.17139-.39355.31641-.1875.145-.42676.29883h.0166a7.10584,7.10584,0,0,1-.752.46191c-.23926.125-.46777.2334-.68359.32422a2.73021,2.73021,0,0,1-.61523.17188A3.95747,3.95747,0,0,1,150.50173,151.43894Z" fill="#dbdbdb"/>
        <path d="M159.59548,151.43894c-.125,0-.24219-.00293-.34961-.00879a1.80771,1.80771,0,0,1-.248-.02539,2.43079,2.43079,0,0,1-.85547-.43555,1.90365,1.90365,0,0,1-.56348-.72656,1.62472,1.62472,0,0,1-.1543-.43652,2.36845,2.36845,0,0,1-.03418-.40137,2.6977,2.6977,0,0,1,.05176-.53027c-.10254-.06836-.21094-.14258-.3252-.22168a.91046.91046,0,0,1-.25586-.25684,1.89838,1.89838,0,0,1-.41113-1.16211,1.7598,1.7598,0,0,1,.17969-.77832,2.288,2.288,0,0,1,.4873-.6582c.05762-.05664.16211-.165.31641-.32422a6.12655,6.12655,0,0,0,.41895-.47949l.3418-.376c.15918-.1709.32227-.34473.4873-.52148q.24756-.26367.4873-.50391c.18164-.15918.3418-.2959.47852-.41016a4.261,4.261,0,0,1,.35938-.27344,2.43259,2.43259,0,0,1,1.8457-.3418,1.78075,1.78075,0,0,1,1.31641,1.11133l-.0166-.01758a2.49827,2.49827,0,0,1,.11035.29883,1.812,1.812,0,0,1,.06055.2998c.15918-.1709.30176-.334.42676-.4873.126-.1543.23926-.29395.3418-.41895l.23926-.27344a.26306.26306,0,0,0,.05176-.06836.22481.22481,0,0,0,.03418-.05176,2.20662,2.20662,0,0,1,.93164-.6582,1.82018,1.82018,0,0,1,1.08594-.05957,1.77225,1.77225,0,0,1,.69238.376,2.459,2.459,0,0,1,.52148.63281,2.05647,2.05647,0,0,1,.21289.93164,3.52339,3.52339,0,0,1-.05957.52148,1.30936,1.30936,0,0,1-.043.16211c-.0166.05176-.03125.09961-.042.14551l-.10254.3252-.01758.05078a2.11822,2.11822,0,0,1,.6748.18848,1.70827,1.70827,0,0,1,.57324.42676,1.99957,1.99957,0,0,1,.44434,1.23145,1.8445,1.8445,0,0,1-.70117,1.45313l-.085.085q-.35889.30762-.76074.61523a10.18967,10.18967,0,0,1-.84668.582,3.87222,3.87222,0,0,1-1.98242.59766,2.947,2.947,0,0,1-.82129-.11914,1.86552,1.86552,0,0,1-.57227-.23145,1.669,1.669,0,0,1-.45312-.40137q-.20508.17139-.39355.31641-.1875.145-.42676.29883h.0166a7.10584,7.10584,0,0,1-.752.46191c-.23926.125-.46777.2334-.68359.32422a2.73021,2.73021,0,0,1-.61523.17188A3.95747,3.95747,0,0,1,159.59548,151.43894Z" fill="#dbdbdb"/>
        <path d="M173.409,150.15671a1.9057,1.9057,0,0,1-.53027-.085,1.63206,1.63206,0,0,1-.73437-.38477,1.7778,1.7778,0,0,1-.46191-.67578,1.98578,1.98578,0,0,1,.0166-1.46973,5.36333,5.36333,0,0,1,.30762-.68359c.02344-.0459.04883-.09473.07715-.14551.02832-.05176.06055-.10547.09473-.16309-.2627.1377-.51953.28223-.76953.43652q-.37646.23-.76953.43555-.70166.42773-1.3418.77832-.6416.3501-1.18848.58984a1.5229,1.5229,0,0,1-.6582.15332,1.7667,1.7667,0,0,1-.64062-.11914,1.74277,1.74277,0,0,1-.55566-.35059,1.6073,1.6073,0,0,1-.38477-.55566,1.52425,1.52425,0,0,1-.1543-.6582,1.75233,1.75233,0,0,1,.12012-.6416,1.72175,1.72175,0,0,1,.35059-.55469,1.58532,1.58532,0,0,1,.55566-.38477q.39258-.189.96582-.50488.57275-.31641,1.22168-.69238.75293-.44385,1.582-.91406a16.15173,16.15173,0,0,1,1.63281-.8125,6.89015,6.89015,0,0,1,1.69238-.59766,4.92886,4.92886,0,0,1,1.0166-.1543,3.08549,3.08549,0,0,1,.915.10254,1.8577,1.8577,0,0,1,1.28223,1.16211,1.90688,1.90688,0,0,1,.07617,1.26563,6.10461,6.10461,0,0,1-.46973,1.16211.71726.71726,0,0,1,.11133-.02539.25992.25992,0,0,0,.11133-.043,1.54207,1.54207,0,0,1,.6582-.09375,1.84525,1.84525,0,0,1,.63184.16211,1.69424,1.69424,0,0,1,.88086.958,1.77868,1.77868,0,0,1,.10254.6748,1.71227,1.71227,0,0,1-.1543.63281,1.65644,1.65644,0,0,1-.38477.5293,1.63447,1.63447,0,0,1-.58984.35059q-.80273.2915-1.46973.52148-.6665.23145-1.17969.40234-.71777.20508-1.16211.29883A3.93562,3.93562,0,0,1,173.409,150.15671Z" fill="#dbdbdb"/>
        <path d="M178.75955,151.43894c-.125,0-.24219-.00293-.34961-.00879a1.80771,1.80771,0,0,1-.248-.02539,2.43079,2.43079,0,0,1-.85547-.43555,1.90365,1.90365,0,0,1-.56348-.72656,1.62472,1.62472,0,0,1-.1543-.43652,2.36845,2.36845,0,0,1-.03418-.40137,2.6977,2.6977,0,0,1,.05176-.53027c-.10254-.06836-.21094-.14258-.3252-.22168a.91046.91046,0,0,1-.25586-.25684,1.89838,1.89838,0,0,1-.41113-1.16211,1.7598,1.7598,0,0,1,.17969-.77832,2.288,2.288,0,0,1,.4873-.6582c.05762-.05664.16211-.165.31641-.32422a6.12655,6.12655,0,0,0,.41895-.47949l.3418-.376c.15918-.1709.32227-.34473.4873-.52148q.24756-.26367.4873-.50391c.18164-.15918.3418-.2959.47852-.41016a4.261,4.261,0,0,1,.35938-.27344,2.43259,2.43259,0,0,1,1.8457-.3418,1.78075,1.78075,0,0,1,1.31641,1.11133l-.0166-.01758a2.49827,2.49827,0,0,1,.11035.29883,1.812,1.812,0,0,1,.06055.2998c.15918-.1709.30176-.334.42676-.4873.126-.1543.23926-.29395.3418-.41895l.23926-.27344a.26306.26306,0,0,0,.05176-.06836.22481.22481,0,0,0,.03418-.05176,2.20662,2.20662,0,0,1,.93164-.6582,1.82018,1.82018,0,0,1,1.08594-.05957,1.77225,1.77225,0,0,1,.69238.376,2.459,2.459,0,0,1,.52148.63281,2.05647,2.05647,0,0,1,.21289.93164,3.52339,3.52339,0,0,1-.05957.52148,1.30936,1.30936,0,0,1-.043.16211c-.0166.05176-.03125.09961-.042.14551l-.10254.3252-.01758.05078a2.11822,2.11822,0,0,1,.6748.18848,1.70827,1.70827,0,0,1,.57324.42676,1.99957,1.99957,0,0,1,.44434,1.23145,1.8445,1.8445,0,0,1-.70117,1.45313l-.085.085q-.35889.30762-.76074.61523a10.18967,10.18967,0,0,1-.84668.582,3.87222,3.87222,0,0,1-1.98242.59766,2.947,2.947,0,0,1-.82129-.11914,1.86552,1.86552,0,0,1-.57227-.23145,1.669,1.669,0,0,1-.45312-.40137q-.20508.17139-.39355.31641-.1875.145-.42676.29883h.0166a7.10584,7.10584,0,0,1-.752.46191c-.23926.125-.46777.2334-.68359.32422a2.73021,2.73021,0,0,1-.61523.17188A3.95747,3.95747,0,0,1,178.75955,151.43894Z" fill="#dbdbdb"/>
        <path d="M187.85427,151.43894c-.125,0-.24219-.00293-.34961-.00879a1.80771,1.80771,0,0,1-.248-.02539,2.43079,2.43079,0,0,1-.85547-.43555,1.90365,1.90365,0,0,1-.56348-.72656,1.62472,1.62472,0,0,1-.1543-.43652,2.36844,2.36844,0,0,1-.03418-.40137,2.6977,2.6977,0,0,1,.05176-.53027c-.10254-.06836-.21094-.14258-.3252-.22168a.91046.91046,0,0,1-.25586-.25684,1.89838,1.89838,0,0,1-.41113-1.16211,1.7598,1.7598,0,0,1,.17969-.77832,2.288,2.288,0,0,1,.4873-.6582c.05762-.05664.16211-.165.31641-.32422a6.12653,6.12653,0,0,0,.41895-.47949l.3418-.376c.15918-.1709.32227-.34473.4873-.52148q.24756-.26367.4873-.50391c.18164-.15918.3418-.2959.47852-.41016a4.26093,4.26093,0,0,1,.35938-.27344,2.43259,2.43259,0,0,1,1.8457-.3418,1.78075,1.78075,0,0,1,1.31641,1.11133l-.0166-.01758a2.49826,2.49826,0,0,1,.11035.29883,1.812,1.812,0,0,1,.06055.2998c.15918-.1709.30176-.334.42676-.4873.126-.1543.23926-.29395.3418-.41895l.23926-.27344a.26306.26306,0,0,0,.05176-.06836.22481.22481,0,0,0,.03418-.05176,2.20662,2.20662,0,0,1,.93164-.6582,1.82018,1.82018,0,0,1,1.08594-.05957,1.77225,1.77225,0,0,1,.69238.376,2.459,2.459,0,0,1,.52148.63281,2.05647,2.05647,0,0,1,.21289.93164,3.52341,3.52341,0,0,1-.05957.52148,1.30936,1.30936,0,0,1-.043.16211c-.0166.05176-.03125.09961-.042.14551l-.10254.3252-.01758.05078a2.11822,2.11822,0,0,1,.6748.18848,1.70827,1.70827,0,0,1,.57324.42676,1.99957,1.99957,0,0,1,.44434,1.23145,1.8445,1.8445,0,0,1-.70117,1.45313l-.085.085q-.35889.30762-.76074.61523a10.18967,10.18967,0,0,1-.84668.582,3.87222,3.87222,0,0,1-1.98242.59766,2.947,2.947,0,0,1-.82129-.11914,1.86552,1.86552,0,0,1-.57227-.23145,1.669,1.669,0,0,1-.45312-.40137q-.20508.17139-.39355.31641-.1875.145-.42676.29883h.0166a7.10585,7.10585,0,0,1-.752.46191c-.23926.125-.46777.2334-.68359.32422a2.73021,2.73021,0,0,1-.61523.17188A3.95746,3.95746,0,0,1,187.85427,151.43894Z" fill="#dbdbdb"/>
        <path d="M136.05642,165.91452a1.9057,1.9057,0,0,1-.53027-.085,1.63206,1.63206,0,0,1-.73437-.38477,1.7778,1.7778,0,0,1-.46191-.67578,1.98578,1.98578,0,0,1,.0166-1.46973,5.36333,5.36333,0,0,1,.30762-.68359c.02344-.0459.04883-.09473.07715-.14551.02832-.05176.06055-.10547.09473-.16309-.2627.1377-.51953.28223-.76953.43652q-.37646.23-.76953.43555-.70166.42773-1.3418.77832-.6416.3501-1.18848.58984a1.5229,1.5229,0,0,1-.6582.15332,1.7667,1.7667,0,0,1-.64062-.11914,1.74277,1.74277,0,0,1-.55566-.35059,1.6073,1.6073,0,0,1-.38477-.55566,1.52425,1.52425,0,0,1-.1543-.6582,1.75233,1.75233,0,0,1,.12012-.6416,1.72175,1.72175,0,0,1,.35059-.55469,1.58532,1.58532,0,0,1,.55566-.38477q.39258-.189.96582-.50488.57275-.31641,1.22168-.69238.75293-.44385,1.582-.91406a16.15175,16.15175,0,0,1,1.63281-.8125,6.89015,6.89015,0,0,1,1.69238-.59766,4.92886,4.92886,0,0,1,1.0166-.1543,3.08549,3.08549,0,0,1,.915.10254,1.8577,1.8577,0,0,1,1.28223,1.16211,1.90688,1.90688,0,0,1,.07617,1.26563,6.10461,6.10461,0,0,1-.46973,1.16211.71727.71727,0,0,1,.11133-.02539.25992.25992,0,0,0,.11133-.043,1.54207,1.54207,0,0,1,.6582-.09375,1.84525,1.84525,0,0,1,.63184.16211,1.69424,1.69424,0,0,1,.88086.958,1.77868,1.77868,0,0,1,.10254.6748,1.71228,1.71228,0,0,1-.1543.63281,1.65644,1.65644,0,0,1-.38477.5293,1.63447,1.63447,0,0,1-.58984.35059q-.80273.2915-1.46973.52148-.6665.23145-1.17969.40234-.71777.20508-1.16211.29883A3.93562,3.93562,0,0,1,136.05642,165.91452Z" fill="#dbdbdb"/>
        <path d="M141.407,167.19675c-.125,0-.24219-.00293-.34961-.00879a1.80771,1.80771,0,0,1-.248-.02539,2.43079,2.43079,0,0,1-.85547-.43555,1.90365,1.90365,0,0,1-.56348-.72656,1.62472,1.62472,0,0,1-.1543-.43652,2.36845,2.36845,0,0,1-.03418-.40137,2.6977,2.6977,0,0,1,.05176-.53027c-.10254-.06836-.21094-.14258-.3252-.22168a.91046.91046,0,0,1-.25586-.25684,1.89838,1.89838,0,0,1-.41113-1.16211,1.7598,1.7598,0,0,1,.17969-.77832,2.288,2.288,0,0,1,.4873-.6582c.05762-.05664.16211-.165.31641-.32422a6.12653,6.12653,0,0,0,.41895-.47949l.3418-.376c.15918-.1709.32227-.34473.4873-.52148q.24756-.26367.4873-.50391c.18164-.15918.3418-.2959.47852-.41016a4.26091,4.26091,0,0,1,.35938-.27344,2.43259,2.43259,0,0,1,1.8457-.3418,1.78075,1.78075,0,0,1,1.31641,1.11133l-.0166-.01758a2.49827,2.49827,0,0,1,.11035.29883,1.812,1.812,0,0,1,.06055.2998c.15918-.1709.30176-.334.42676-.4873.126-.1543.23926-.29395.3418-.41895l.23926-.27344a.26306.26306,0,0,0,.05176-.06836.22481.22481,0,0,0,.03418-.05176,2.20662,2.20662,0,0,1,.93164-.6582,1.82018,1.82018,0,0,1,1.08594-.05957,1.77225,1.77225,0,0,1,.69238.376,2.459,2.459,0,0,1,.52148.63281,2.05647,2.05647,0,0,1,.21289.93164,3.52341,3.52341,0,0,1-.05957.52148,1.30937,1.30937,0,0,1-.043.16211c-.0166.05176-.03125.09961-.042.14551l-.10254.3252-.01758.05078a2.11822,2.11822,0,0,1,.6748.18848,1.70827,1.70827,0,0,1,.57324.42676,1.99957,1.99957,0,0,1,.44434,1.23145,1.8445,1.8445,0,0,1-.70117,1.45313l-.085.085q-.35889.30762-.76074.61523a10.18966,10.18966,0,0,1-.84668.582,3.87222,3.87222,0,0,1-1.98242.59766,2.947,2.947,0,0,1-.82129-.11914,1.86552,1.86552,0,0,1-.57227-.23145,1.669,1.669,0,0,1-.45312-.40137q-.20508.17139-.39355.31641-.1875.145-.42676.29883h.0166a7.10585,7.10585,0,0,1-.752.46191c-.23926.125-.46777.2334-.68359.32422a2.73022,2.73022,0,0,1-.61523.17188A3.95747,3.95747,0,0,1,141.407,167.19675Z" fill="#dbdbdb"/>
        <path d="M150.50173,167.19675c-.125,0-.24219-.00293-.34961-.00879a1.80771,1.80771,0,0,1-.248-.02539,2.43079,2.43079,0,0,1-.85547-.43555,1.90365,1.90365,0,0,1-.56348-.72656,1.62472,1.62472,0,0,1-.1543-.43652,2.36845,2.36845,0,0,1-.03418-.40137,2.6977,2.6977,0,0,1,.05176-.53027c-.10254-.06836-.21094-.14258-.3252-.22168a.91046.91046,0,0,1-.25586-.25684,1.89838,1.89838,0,0,1-.41113-1.16211,1.7598,1.7598,0,0,1,.17969-.77832,2.288,2.288,0,0,1,.4873-.6582c.05762-.05664.16211-.165.31641-.32422a6.12655,6.12655,0,0,0,.41895-.47949l.3418-.376c.15918-.1709.32227-.34473.4873-.52148q.24756-.26367.4873-.50391c.18164-.15918.3418-.2959.47852-.41016a4.261,4.261,0,0,1,.35938-.27344,2.43259,2.43259,0,0,1,1.8457-.3418A1.78075,1.78075,0,0,1,154.075,159.436l-.0166-.01758a2.49827,2.49827,0,0,1,.11035.29883,1.812,1.812,0,0,1,.06055.2998c.15918-.1709.30176-.334.42676-.4873.126-.1543.23926-.29395.3418-.41895l.23926-.27344a.26306.26306,0,0,0,.05176-.06836.22481.22481,0,0,0,.03418-.05176,2.20662,2.20662,0,0,1,.93164-.6582,1.82018,1.82018,0,0,1,1.08594-.05957,1.77225,1.77225,0,0,1,.69238.376,2.459,2.459,0,0,1,.52148.63281,2.05647,2.05647,0,0,1,.21289.93164,3.52339,3.52339,0,0,1-.05957.52148,1.30936,1.30936,0,0,1-.043.16211c-.0166.05176-.03125.09961-.042.14551l-.10254.3252-.01758.05078a2.11822,2.11822,0,0,1,.6748.18848,1.70827,1.70827,0,0,1,.57324.42676,1.99957,1.99957,0,0,1,.44434,1.23145,1.8445,1.8445,0,0,1-.70117,1.45313l-.085.085q-.35889.30762-.76074.61523a10.18967,10.18967,0,0,1-.84668.582,3.87222,3.87222,0,0,1-1.98242.59766,2.947,2.947,0,0,1-.82129-.11914,1.86552,1.86552,0,0,1-.57227-.23145,1.669,1.669,0,0,1-.45312-.40137q-.20508.17139-.39355.31641-.1875.145-.42676.29883h.0166a7.10584,7.10584,0,0,1-.752.46191c-.23926.125-.46777.2334-.68359.32422a2.73021,2.73021,0,0,1-.61523.17188A3.95747,3.95747,0,0,1,150.50173,167.19675Z" fill="#dbdbdb"/>
        <path d="M164.31423,165.91452a1.9057,1.9057,0,0,1-.53027-.085,1.63206,1.63206,0,0,1-.73437-.38477,1.7778,1.7778,0,0,1-.46191-.67578,1.98578,1.98578,0,0,1,.0166-1.46973,5.36333,5.36333,0,0,1,.30762-.68359c.02344-.0459.04883-.09473.07715-.14551.02832-.05176.06055-.10547.09473-.16309-.2627.1377-.51953.28223-.76953.43652q-.37646.23-.76953.43555-.70166.42773-1.3418.77832-.6416.3501-1.18848.58984a1.5229,1.5229,0,0,1-.6582.15332,1.7667,1.7667,0,0,1-.64062-.11914,1.74277,1.74277,0,0,1-.55566-.35059,1.6073,1.6073,0,0,1-.38477-.55566,1.52425,1.52425,0,0,1-.1543-.6582,1.75233,1.75233,0,0,1,.12012-.6416,1.72175,1.72175,0,0,1,.35059-.55469,1.58532,1.58532,0,0,1,.55566-.38477q.39258-.189.96582-.50488.57275-.31641,1.22168-.69238.75293-.44385,1.582-.91406a16.15175,16.15175,0,0,1,1.63281-.8125,6.89015,6.89015,0,0,1,1.69238-.59766,4.92886,4.92886,0,0,1,1.0166-.1543,3.08549,3.08549,0,0,1,.915.10254,1.8577,1.8577,0,0,1,1.28223,1.16211,1.90688,1.90688,0,0,1,.07617,1.26563,6.10461,6.10461,0,0,1-.46973,1.16211.71727.71727,0,0,1,.11133-.02539.25992.25992,0,0,0,.11133-.043,1.54207,1.54207,0,0,1,.6582-.09375,1.84525,1.84525,0,0,1,.63184.16211,1.69424,1.69424,0,0,1,.88086.958,1.77868,1.77868,0,0,1,.10254.6748,1.71228,1.71228,0,0,1-.1543.63281,1.65644,1.65644,0,0,1-.38477.5293,1.63447,1.63447,0,0,1-.58984.35059q-.80273.2915-1.46973.52148-.6665.23145-1.17969.40234-.71777.20508-1.16211.29883A3.93562,3.93562,0,0,1,164.31423,165.91452Z" fill="#dbdbdb"/>
        <path d="M169.66482,167.19675c-.125,0-.24219-.00293-.34961-.00879a1.80771,1.80771,0,0,1-.248-.02539,2.43079,2.43079,0,0,1-.85547-.43555,1.90365,1.90365,0,0,1-.56348-.72656,1.62472,1.62472,0,0,1-.1543-.43652,2.36845,2.36845,0,0,1-.03418-.40137,2.6977,2.6977,0,0,1,.05176-.53027c-.10254-.06836-.21094-.14258-.3252-.22168a.91046.91046,0,0,1-.25586-.25684,1.89838,1.89838,0,0,1-.41113-1.16211,1.7598,1.7598,0,0,1,.17969-.77832,2.288,2.288,0,0,1,.4873-.6582c.05762-.05664.16211-.165.31641-.32422a6.12653,6.12653,0,0,0,.41895-.47949l.3418-.376c.15918-.1709.32227-.34473.4873-.52148q.24756-.26367.4873-.50391c.18164-.15918.3418-.2959.47852-.41016a4.26091,4.26091,0,0,1,.35938-.27344,2.43259,2.43259,0,0,1,1.8457-.3418,1.78075,1.78075,0,0,1,1.31641,1.11133l-.0166-.01758a2.49827,2.49827,0,0,1,.11035.29883,1.812,1.812,0,0,1,.06055.2998c.15918-.1709.30176-.334.42676-.4873.126-.1543.23926-.29395.3418-.41895l.23926-.27344a.26306.26306,0,0,0,.05176-.06836.22481.22481,0,0,0,.03418-.05176,2.20662,2.20662,0,0,1,.93164-.6582,1.82018,1.82018,0,0,1,1.08594-.05957,1.77225,1.77225,0,0,1,.69238.376,2.459,2.459,0,0,1,.52148.63281,2.05647,2.05647,0,0,1,.21289.93164,3.52341,3.52341,0,0,1-.05957.52148,1.30937,1.30937,0,0,1-.043.16211c-.0166.05176-.03125.09961-.042.14551l-.10254.3252-.01758.05078a2.11822,2.11822,0,0,1,.6748.18848,1.70827,1.70827,0,0,1,.57324.42676,1.99957,1.99957,0,0,1,.44434,1.23145,1.8445,1.8445,0,0,1-.70117,1.45313l-.085.085q-.35889.30762-.76074.61523a10.18966,10.18966,0,0,1-.84668.582,3.87222,3.87222,0,0,1-1.98242.59766,2.947,2.947,0,0,1-.82129-.11914,1.86552,1.86552,0,0,1-.57227-.23145,1.669,1.669,0,0,1-.45312-.40137q-.20508.17139-.39355.31641-.1875.145-.42676.29883h.0166a7.10585,7.10585,0,0,1-.752.46191c-.23926.125-.46777.2334-.68359.32422a2.73022,2.73022,0,0,1-.61523.17188A3.95747,3.95747,0,0,1,169.66482,167.19675Z" fill="#dbdbdb"/>
        <path d="M178.75955,167.19675c-.125,0-.24219-.00293-.34961-.00879a1.80771,1.80771,0,0,1-.248-.02539,2.43079,2.43079,0,0,1-.85547-.43555,1.90365,1.90365,0,0,1-.56348-.72656,1.62472,1.62472,0,0,1-.1543-.43652,2.36845,2.36845,0,0,1-.03418-.40137,2.6977,2.6977,0,0,1,.05176-.53027c-.10254-.06836-.21094-.14258-.3252-.22168a.91046.91046,0,0,1-.25586-.25684,1.89838,1.89838,0,0,1-.41113-1.16211,1.7598,1.7598,0,0,1,.17969-.77832,2.288,2.288,0,0,1,.4873-.6582c.05762-.05664.16211-.165.31641-.32422a6.12655,6.12655,0,0,0,.41895-.47949l.3418-.376c.15918-.1709.32227-.34473.4873-.52148q.24756-.26367.4873-.50391c.18164-.15918.3418-.2959.47852-.41016a4.261,4.261,0,0,1,.35938-.27344,2.43259,2.43259,0,0,1,1.8457-.3418,1.78075,1.78075,0,0,1,1.31641,1.11133l-.0166-.01758a2.49827,2.49827,0,0,1,.11035.29883,1.812,1.812,0,0,1,.06055.2998c.15918-.1709.30176-.334.42676-.4873.126-.1543.23926-.29395.3418-.41895l.23926-.27344a.26306.26306,0,0,0,.05176-.06836.22481.22481,0,0,0,.03418-.05176,2.20662,2.20662,0,0,1,.93164-.6582,1.82018,1.82018,0,0,1,1.08594-.05957,1.77225,1.77225,0,0,1,.69238.376,2.459,2.459,0,0,1,.52148.63281,2.05647,2.05647,0,0,1,.21289.93164,3.52339,3.52339,0,0,1-.05957.52148,1.30936,1.30936,0,0,1-.043.16211c-.0166.05176-.03125.09961-.042.14551l-.10254.3252-.01758.05078a2.11822,2.11822,0,0,1,.6748.18848,1.70827,1.70827,0,0,1,.57324.42676,1.99957,1.99957,0,0,1,.44434,1.23145,1.8445,1.8445,0,0,1-.70117,1.45313l-.085.085q-.35889.30762-.76074.61523a10.18967,10.18967,0,0,1-.84668.582,3.87222,3.87222,0,0,1-1.98242.59766,2.947,2.947,0,0,1-.82129-.11914,1.86552,1.86552,0,0,1-.57227-.23145,1.669,1.669,0,0,1-.45312-.40137q-.20508.17139-.39355.31641-.1875.145-.42676.29883h.0166a7.10584,7.10584,0,0,1-.752.46191c-.23926.125-.46777.2334-.68359.32422a2.73021,2.73021,0,0,1-.61523.17188A3.95747,3.95747,0,0,1,178.75955,167.19675Z" fill="#dbdbdb"/>
        <path d="M192.573,165.91452a1.9057,1.9057,0,0,1-.53027-.085,1.63206,1.63206,0,0,1-.73437-.38477,1.7778,1.7778,0,0,1-.46191-.67578,1.98578,1.98578,0,0,1,.0166-1.46973,5.36333,5.36333,0,0,1,.30762-.68359c.02344-.0459.04883-.09473.07715-.14551.02832-.05176.06055-.10547.09473-.16309-.2627.1377-.51953.28223-.76953.43652q-.37646.23-.76953.43555-.70166.42773-1.3418.77832-.6416.3501-1.18848.58984a1.5229,1.5229,0,0,1-.6582.15332,1.7667,1.7667,0,0,1-.64062-.11914,1.74277,1.74277,0,0,1-.55566-.35059,1.6073,1.6073,0,0,1-.38477-.55566,1.52425,1.52425,0,0,1-.1543-.6582,1.75233,1.75233,0,0,1,.12012-.6416,1.72175,1.72175,0,0,1,.35059-.55469,1.58532,1.58532,0,0,1,.55566-.38477q.39258-.189.96582-.50488.57275-.31641,1.22168-.69238.75293-.44385,1.582-.91406a16.15173,16.15173,0,0,1,1.63281-.8125,6.89015,6.89015,0,0,1,1.69238-.59766,4.92886,4.92886,0,0,1,1.0166-.1543,3.08549,3.08549,0,0,1,.915.10254,1.8577,1.8577,0,0,1,1.28223,1.16211,1.90688,1.90688,0,0,1,.07617,1.26563,6.10461,6.10461,0,0,1-.46973,1.16211.71726.71726,0,0,1,.11133-.02539.25992.25992,0,0,0,.11133-.043,1.54207,1.54207,0,0,1,.6582-.09375,1.84525,1.84525,0,0,1,.63184.16211,1.69424,1.69424,0,0,1,.88086.958,1.77868,1.77868,0,0,1,.10254.6748,1.71227,1.71227,0,0,1-.1543.63281,1.65644,1.65644,0,0,1-.38477.5293,1.63447,1.63447,0,0,1-.58984.35059q-.80273.2915-1.46973.52148-.6665.23145-1.17969.40234-.71777.20508-1.16211.29883A3.93562,3.93562,0,0,1,192.573,165.91452Z" fill="#dbdbdb"/>
        <path d="M197.92263,167.19675c-.125,0-.24219-.00293-.34961-.00879a1.80771,1.80771,0,0,1-.248-.02539,2.43079,2.43079,0,0,1-.85547-.43555,1.90365,1.90365,0,0,1-.56348-.72656,1.62472,1.62472,0,0,1-.1543-.43652,2.36845,2.36845,0,0,1-.03418-.40137,2.6977,2.6977,0,0,1,.05176-.53027c-.10254-.06836-.21094-.14258-.3252-.22168a.91046.91046,0,0,1-.25586-.25684,1.89838,1.89838,0,0,1-.41113-1.16211,1.7598,1.7598,0,0,1,.17969-.77832,2.288,2.288,0,0,1,.4873-.6582c.05762-.05664.16211-.165.31641-.32422a6.12653,6.12653,0,0,0,.41895-.47949l.3418-.376c.15918-.1709.32227-.34473.4873-.52148q.24756-.26367.4873-.50391c.18164-.15918.3418-.2959.47852-.41016a4.26091,4.26091,0,0,1,.35938-.27344,2.43259,2.43259,0,0,1,1.8457-.3418,1.78075,1.78075,0,0,1,1.31641,1.11133l-.0166-.01758a2.49827,2.49827,0,0,1,.11035.29883,1.812,1.812,0,0,1,.06055.2998c.15918-.1709.30176-.334.42676-.4873.126-.1543.23926-.29395.3418-.41895l.23926-.27344a.26306.26306,0,0,0,.05176-.06836.22481.22481,0,0,0,.03418-.05176,2.20662,2.20662,0,0,1,.93164-.6582,1.82018,1.82018,0,0,1,1.08594-.05957,1.77225,1.77225,0,0,1,.69238.376,2.459,2.459,0,0,1,.52148.63281,2.05647,2.05647,0,0,1,.21289.93164,3.52341,3.52341,0,0,1-.05957.52148,1.30937,1.30937,0,0,1-.043.16211c-.0166.05176-.03125.09961-.042.14551l-.10254.3252-.01758.05078a2.11822,2.11822,0,0,1,.6748.18848,1.70827,1.70827,0,0,1,.57324.42676,1.99957,1.99957,0,0,1,.44434,1.23145,1.8445,1.8445,0,0,1-.70117,1.45313l-.085.085q-.35889.30762-.76074.61523a10.18966,10.18966,0,0,1-.84668.582,3.87222,3.87222,0,0,1-1.98242.59766,2.947,2.947,0,0,1-.82129-.11914,1.86552,1.86552,0,0,1-.57227-.23145,1.669,1.669,0,0,1-.45312-.40137q-.20508.17139-.39355.31641-.1875.145-.42676.29883h.0166a7.10585,7.10585,0,0,1-.752.46191c-.23926.125-.46777.2334-.68359.32422a2.73022,2.73022,0,0,1-.61523.17188A3.95747,3.95747,0,0,1,197.92263,167.19675Z" fill="#dbdbdb"/>
        <path d="M131.33767,182.95456c-.125,0-.24219-.00293-.34961-.00879a1.80771,1.80771,0,0,1-.248-.02539,2.43079,2.43079,0,0,1-.85547-.43555,1.90365,1.90365,0,0,1-.56348-.72656,1.62472,1.62472,0,0,1-.1543-.43652,2.36845,2.36845,0,0,1-.03418-.40137,2.6977,2.6977,0,0,1,.05176-.53027c-.10254-.06836-.21094-.14258-.3252-.22168a.91046.91046,0,0,1-.25586-.25684,1.89838,1.89838,0,0,1-.41113-1.16211,1.7598,1.7598,0,0,1,.17969-.77832,2.288,2.288,0,0,1,.4873-.6582c.05762-.05664.16211-.165.31641-.32422a6.12655,6.12655,0,0,0,.41895-.47949l.3418-.376c.15918-.1709.32227-.34473.4873-.52148q.24756-.26367.4873-.50391c.18164-.15918.3418-.2959.47852-.41016a4.261,4.261,0,0,1,.35938-.27344,2.43259,2.43259,0,0,1,1.8457-.3418,1.78075,1.78075,0,0,1,1.31641,1.11133l-.0166-.01758a2.49827,2.49827,0,0,1,.11035.29883,1.812,1.812,0,0,1,.06055.2998c.15918-.1709.30176-.334.42676-.4873.126-.1543.23926-.29395.3418-.41895l.23926-.27344a.26306.26306,0,0,0,.05176-.06836.22481.22481,0,0,0,.03418-.05176,2.20662,2.20662,0,0,1,.93164-.6582,1.82018,1.82018,0,0,1,1.08594-.05957,1.77225,1.77225,0,0,1,.69238.376,2.459,2.459,0,0,1,.52148.63281,2.05647,2.05647,0,0,1,.21289.93164,3.52339,3.52339,0,0,1-.05957.52148,1.30936,1.30936,0,0,1-.043.16211c-.0166.05176-.03125.09961-.042.14551l-.10254.3252-.01758.05078a2.11822,2.11822,0,0,1,.6748.18848,1.70827,1.70827,0,0,1,.57324.42676,1.99957,1.99957,0,0,1,.44434,1.23145,1.8445,1.8445,0,0,1-.70117,1.45313l-.085.085q-.35889.30762-.76074.61523a10.18967,10.18967,0,0,1-.84668.582,3.87222,3.87222,0,0,1-1.98242.59766,2.947,2.947,0,0,1-.82129-.11914,1.86552,1.86552,0,0,1-.57227-.23145,1.669,1.669,0,0,1-.45312-.40137q-.20508.17139-.39355.31641-.1875.145-.42676.29883h.0166a7.10584,7.10584,0,0,1-.752.46191c-.23926.125-.46777.2334-.68359.32422a2.73021,2.73021,0,0,1-.61523.17188A3.95747,3.95747,0,0,1,131.33767,182.95456Z" fill="#dbdbdb"/>
        <path d="M145.15115,181.67233a1.9057,1.9057,0,0,1-.53027-.085,1.63206,1.63206,0,0,1-.73437-.38477,1.7778,1.7778,0,0,1-.46191-.67578,1.98578,1.98578,0,0,1,.0166-1.46973,5.36333,5.36333,0,0,1,.30762-.68359c.02344-.0459.04883-.09473.07715-.14551.02832-.05176.06055-.10547.09473-.16309-.2627.1377-.51953.28223-.76953.43652q-.37646.23-.76953.43555-.70166.42773-1.3418.77832-.6416.3501-1.18848.58984a1.5229,1.5229,0,0,1-.6582.15332,1.7667,1.7667,0,0,1-.64062-.11914,1.74277,1.74277,0,0,1-.55566-.35059,1.6073,1.6073,0,0,1-.38477-.55566,1.52425,1.52425,0,0,1-.1543-.6582,1.75233,1.75233,0,0,1,.12012-.6416,1.72175,1.72175,0,0,1,.35059-.55469,1.58532,1.58532,0,0,1,.55566-.38477q.39258-.189.96582-.50488.57275-.31641,1.22168-.69238.75293-.44385,1.582-.91406a16.15173,16.15173,0,0,1,1.63281-.8125,6.89015,6.89015,0,0,1,1.69238-.59766,4.92886,4.92886,0,0,1,1.0166-.1543,3.08549,3.08549,0,0,1,.915.10254,1.8577,1.8577,0,0,1,1.28223,1.16211,1.90688,1.90688,0,0,1,.07617,1.26563,6.10461,6.10461,0,0,1-.46973,1.16211.71726.71726,0,0,1,.11133-.02539.25992.25992,0,0,0,.11133-.043,1.54207,1.54207,0,0,1,.6582-.09375,1.84525,1.84525,0,0,1,.63184.16211,1.69424,1.69424,0,0,1,.88086.958,1.77868,1.77868,0,0,1,.10254.6748,1.71227,1.71227,0,0,1-.1543.63281,1.65644,1.65644,0,0,1-.38477.5293,1.63447,1.63447,0,0,1-.58984.35059q-.80273.2915-1.46973.52148-.6665.23145-1.17969.40234-.71777.20508-1.16211.29883A3.93562,3.93562,0,0,1,145.15115,181.67233Z" fill="#dbdbdb"/>
        <path d="M150.50173,182.95456c-.125,0-.24219-.00293-.34961-.00879a1.80771,1.80771,0,0,1-.248-.02539,2.43079,2.43079,0,0,1-.85547-.43555,1.90365,1.90365,0,0,1-.56348-.72656,1.62472,1.62472,0,0,1-.1543-.43652,2.36845,2.36845,0,0,1-.03418-.40137,2.6977,2.6977,0,0,1,.05176-.53027c-.10254-.06836-.21094-.14258-.3252-.22168a.91046.91046,0,0,1-.25586-.25684,1.89838,1.89838,0,0,1-.41113-1.16211,1.7598,1.7598,0,0,1,.17969-.77832,2.288,2.288,0,0,1,.4873-.6582c.05762-.05664.16211-.165.31641-.32422a6.12655,6.12655,0,0,0,.41895-.47949l.3418-.376c.15918-.1709.32227-.34473.4873-.52148q.24756-.26367.4873-.50391c.18164-.15918.3418-.2959.47852-.41016a4.261,4.261,0,0,1,.35938-.27344,2.43259,2.43259,0,0,1,1.8457-.3418,1.78075,1.78075,0,0,1,1.31641,1.11133l-.0166-.01758a2.49827,2.49827,0,0,1,.11035.29883,1.812,1.812,0,0,1,.06055.2998c.15918-.1709.30176-.334.42676-.4873.126-.1543.23926-.29395.3418-.41895l.23926-.27344a.26306.26306,0,0,0,.05176-.06836.22481.22481,0,0,0,.03418-.05176,2.20662,2.20662,0,0,1,.93164-.6582,1.82018,1.82018,0,0,1,1.08594-.05957,1.77225,1.77225,0,0,1,.69238.376,2.459,2.459,0,0,1,.52148.63281,2.05647,2.05647,0,0,1,.21289.93164,3.52339,3.52339,0,0,1-.05957.52148,1.30936,1.30936,0,0,1-.043.16211c-.0166.05176-.03125.09961-.042.14551l-.10254.3252-.01758.05078a2.11822,2.11822,0,0,1,.6748.18848,1.70827,1.70827,0,0,1,.57324.42676,1.99957,1.99957,0,0,1,.44434,1.23145,1.8445,1.8445,0,0,1-.70117,1.45313l-.085.085q-.35889.30762-.76074.61523a10.18967,10.18967,0,0,1-.84668.582,3.87222,3.87222,0,0,1-1.98242.59766,2.947,2.947,0,0,1-.82129-.11914,1.86552,1.86552,0,0,1-.57227-.23145,1.669,1.669,0,0,1-.45312-.40137q-.20508.17139-.39355.31641-.1875.145-.42676.29883h.0166a7.10584,7.10584,0,0,1-.752.46191c-.23926.125-.46777.2334-.68359.32422a2.73021,2.73021,0,0,1-.61523.17188A3.95747,3.95747,0,0,1,150.50173,182.95456Z" fill="#dbdbdb"/>
        <path d="M159.59548,182.95456c-.125,0-.24219-.00293-.34961-.00879a1.80771,1.80771,0,0,1-.248-.02539,2.43079,2.43079,0,0,1-.85547-.43555,1.90365,1.90365,0,0,1-.56348-.72656,1.62472,1.62472,0,0,1-.1543-.43652,2.36845,2.36845,0,0,1-.03418-.40137,2.6977,2.6977,0,0,1,.05176-.53027c-.10254-.06836-.21094-.14258-.3252-.22168a.91046.91046,0,0,1-.25586-.25684,1.89838,1.89838,0,0,1-.41113-1.16211,1.7598,1.7598,0,0,1,.17969-.77832,2.288,2.288,0,0,1,.4873-.6582c.05762-.05664.16211-.165.31641-.32422a6.12655,6.12655,0,0,0,.41895-.47949l.3418-.376c.15918-.1709.32227-.34473.4873-.52148q.24756-.26367.4873-.50391c.18164-.15918.3418-.2959.47852-.41016a4.261,4.261,0,0,1,.35938-.27344,2.43259,2.43259,0,0,1,1.8457-.3418,1.78075,1.78075,0,0,1,1.31641,1.11133l-.0166-.01758a2.49827,2.49827,0,0,1,.11035.29883,1.812,1.812,0,0,1,.06055.2998c.15918-.1709.30176-.334.42676-.4873.126-.1543.23926-.29395.3418-.41895l.23926-.27344a.26306.26306,0,0,0,.05176-.06836.22481.22481,0,0,0,.03418-.05176,2.20662,2.20662,0,0,1,.93164-.6582,1.82018,1.82018,0,0,1,1.08594-.05957,1.77225,1.77225,0,0,1,.69238.376,2.459,2.459,0,0,1,.52148.63281,2.05647,2.05647,0,0,1,.21289.93164,3.52339,3.52339,0,0,1-.05957.52148,1.30936,1.30936,0,0,1-.043.16211c-.0166.05176-.03125.09961-.042.14551l-.10254.3252-.01758.05078a2.11822,2.11822,0,0,1,.6748.18848,1.70827,1.70827,0,0,1,.57324.42676,1.99957,1.99957,0,0,1,.44434,1.23145,1.8445,1.8445,0,0,1-.70117,1.45313l-.085.085q-.35889.30762-.76074.61523a10.18967,10.18967,0,0,1-.84668.582,3.87222,3.87222,0,0,1-1.98242.59766,2.947,2.947,0,0,1-.82129-.11914,1.86552,1.86552,0,0,1-.57227-.23145,1.669,1.669,0,0,1-.45312-.40137q-.20508.17139-.39355.31641-.1875.145-.42676.29883h.0166a7.10584,7.10584,0,0,1-.752.46191c-.23926.125-.46777.2334-.68359.32422a2.73021,2.73021,0,0,1-.61523.17188A3.95747,3.95747,0,0,1,159.59548,182.95456Z" fill="#dbdbdb"/>
      </g>
      <line id="2036f4b5-54f5-4e2d-be21-092b8dfa9179" data-name="&lt;Path&gt;" x1="390.29662" y1="205.71151" x2="378.574" y2="205.71151" fill="none" stroke="#b2b2b2" stroke-linecap="round" stroke-miterlimit="10" stroke-width="2.5"/>
      <circle id="b891eeeb-12bc-4c3c-b443-cf37363363ad" data-name="&lt;Path&gt;" cx="389.074" cy="148.69508" r="10.5" fill="none" stroke="#dbdbdb" stroke-miterlimit="10" stroke-width="2"/>
      <circle id="0a368223-79eb-4f0e-9e04-744a48708939" data-name="&lt;Path&gt;" cx="327.46453" cy="109.46608" r="10.5" fill="none" stroke="#dbdbdb" stroke-miterlimit="10" stroke-width="2"/>
      <circle id="cf705eb5-a1aa-4ae9-8b3c-b9ef8e7022ef" data-name="&lt;Path&gt;" cx="315.96453" cy="149.69508" r="10.5" fill="none" stroke="#dbdbdb" stroke-miterlimit="10" stroke-width="2"/>
    </g>
    <rect id="f390a88e-6c32-49fd-ae0d-f2ab09f3cc1b" data-name="&lt;Rectangle&gt;" x="101.074" y="278.62219" width="30.76666" height="24.84999" rx="4.23346" ry="4.23346" opacity="0.05"/>
    <circle id="5677c33f-4742-4183-aba4-1317207f52b9" data-name="&lt;Path&gt;" cx="116.45733" cy="291.04719" r="7.10002" opacity="0.05"/>
    <rect id="700f433d-f2c4-4a5b-9613-dc594e5eeb11" data-name="&lt;Rectangle&gt;" x="141.30734" y="278.62219" width="30.76666" height="24.84999" rx="4.23346" ry="4.23346" opacity="0.05"/>
    <circle id="0d694669-e306-4aed-9453-1b64c6383d24" data-name="&lt;Path&gt;" cx="156.69067" cy="291.04719" r="7.10002" opacity="0.05"/>
    <rect id="4fceca0d-6566-491d-924f-40612d314444" data-name="&lt;Rectangle&gt;" x="368.35023" y="300.36669" width="29.85598" height="7.92031" rx="3.96015" ry="3.96015" opacity="0.08"/>
    <rect id="314f6a72-4703-4e9b-9682-34453fe77548" data-name="&lt;Rectangle&gt;" x="349.89912" y="312.30665" width="29.85598" height="7.92031" rx="3.96015" ry="3.96015" opacity="0.08"/>
    <g>
      <path d="M136.06419,208.4138h0a6.84937,6.84937,0,0,1,6.84937,6.84937v4.20867a0,0,0,0,1,0,0h0a6.84937,6.84937,0,0,1-6.84937-6.84937V208.4138A0,0,0,0,1,136.06419,208.4138Z" transform="translate(-74.29131 74.20482) rotate(-23.72525)" fill="#81e259"/>
      <polygon points="145.63 210.691 143.394 210.691 144.106 224.289 145.63 224.289 145.63 210.691" fill="#565656"/>
      <path d="M130.72765,227.37386c0-4.67753,1.93946-8.82547,4.83995-10.32126,3.09513-1.59617,5.36882-.002,9.26334-.002s4.95577-1.80509,8.21624-.6723c3.08271,1.071,5.88705,6.318,5.88705,10.99555,0,5.84692-4.40025,14.046-8.70767,14.046-4.59653,0-3.32977-1.233-5.39562-1.233-2.0018,0-.77592,1.23306-5.3956,1.23306C134.68027,241.41984,130.72765,233.22079,130.72765,227.37386Z" fill="#e55757"/>
      <ellipse cx="138.08806" cy="223.02794" rx="3.02335" ry="2.72794" transform="translate(-120.74897 265.60926) rotate(-67.57828)" fill="#ed6e6e"/>
      <ellipse cx="135.74261" cy="228.71232" rx="1.46853" ry="1.32504" transform="matrix(0.38142, -0.9244, 0.9244, 0.38142, -127.45446, 266.95736)" fill="#ed6e6e"/>
      <ellipse cx="140.41074" cy="229.21803" rx="1.46853" ry="1.32504" transform="translate(-125.03433 271.58542) rotate(-67.57828)" fill="#d65050"/>
    </g>
  </g>
  <rect id="e350731d-9cde-4abd-8a48-ea69723b1776" data-name="&lt;Rectangle&gt;" x="202.13837" y="387.63199" width="121.87126" height="16.77474" rx="8.38736" ry="8.38736" opacity="0.05"/>
  <line id="3912a307-1de1-4501-aa63-0a9332fb3ecd" data-name="&lt;Path&gt;" x1="353.94539" y1="272.10437" x2="381.27872" y2="219.25413" fill="none" stroke="#474747" stroke-linecap="round" stroke-miterlimit="10" stroke-width="3"/>
  <g>
    <path d="M288.82,247.76054H237.21652a5.25941,5.25941,0,0,1-5.46344-4.75027l-2.10535-23.75614H296.3888l-2.10535,23.75614A5.25941,5.25941,0,0,1,288.82,247.76054Z" fill="#3a3a3a"/>
    <polygon points="289.9 271.254 236.137 271.254 233.869 220.708 292.168 220.708 289.9 271.254" fill="#3a3a3a"/>
    <path d="M273.3866,180.62913l-10.36835,1.01025-10.36835-1.01025-17.90121,3.81849a11.432,11.432,0,0,0-8.99943,11.21179v27.87638a8.47311,8.47311,0,0,0,8.71082,8.21334h23.9834a4.67383,4.67383,0,0,0,3.56975-1.61563,1.33787,1.33787,0,0,1,2.01005,0,4.67386,4.67386,0,0,0,3.56974,1.61563h23.9834a8.47311,8.47311,0,0,0,8.71082-8.21334V195.65941a11.432,11.432,0,0,0-8.99943-11.21179Z" fill="#3a3a3a"/>
    <path d="M252.35385,175.1528h21.32882a0,0,0,0,1,0,0v8.13433a8.467,8.467,0,0,1-8.467,8.467h-4.39483a8.467,8.467,0,0,1-8.467-8.467V175.1528A0,0,0,0,1,252.35385,175.1528Z" fill="#f9bfa2"/>
    <polygon points="221.706 246.455 200.811 243.639 204.216 221.844 225.111 224.66 221.706 246.455" fill="#feccae"/>
    <polygon points="304.465 246.455 325.36 243.639 321.955 221.844 301.06 224.66 304.465 246.455" fill="#feccae"/>
    <polygon points="218.833 290.134 204 290.134 200.811 243.639 221.706 246.455 218.833 290.134" fill="#feccae"/>
    <path d="M219.97342,308.45544l-14.49632-2.05365a3.99605,3.99605,0,0,1-3.417-4.34128l1.55312-16.05658,15.63623-2.14815,3.74365,3.19667a5.6039,5.6039,0,0,1,1.89808,3.39872l1.55978,10.00862a3.996,3.996,0,0,1-.48419,2.60725l-1.96867,3.42377A3.99605,3.99605,0,0,1,219.97342,308.45544Z" fill="#feccae"/>
    <polygon points="353.582 255.151 345.885 267.831 304.485 246.432 317.734 230.031 353.582 255.151" fill="#feccae"/>
    <path d="M369.83565,263.68205l-9.27724,11.32668a3.99605,3.99605,0,0,1-5.48412.66847l-12.92018-9.65893,6.27677-14.48131,4.67515-1.54163a5.6039,5.6039,0,0,1,3.89026.1409l9.36524,3.85976a3.99605,3.99605,0,0,1,1.97759,1.76673l1.90535,3.45941A3.99605,3.99605,0,0,1,369.83565,263.68205Z" fill="#feccae"/>
    <path d="M253.06833,382.38112H235.09765v-56.902h12.514c6.31713,0,9.45008,4.35289,10.24784,10.22288a20.64819,20.64819,0,0,1-.01026,5.13752Z" fill="#424242"/>
    <path d="M244.36753,330.27366h-2.70483c-5.62095,0-10.17763-4.92871-10.17763-11.00858V289.35179a24.80037,24.80037,0,0,1,2.76132-11.41374l.615-1.18392h25.38828v36.34073C260.24964,322.58245,253.139,330.27366,244.36753,330.27366Z" fill="#424242"/>
    <path d="M272.708,382.38112h17.97068v-56.902h-12.514c-6.31713,0-9.45008,4.35289-10.24784,10.22288a20.64819,20.64819,0,0,0,.01026,5.13752Z" fill="#424242"/>
    <path d="M281.28468,330.27364h2.73088c5.67509,0,10.27566-4.92871,10.27566-11.00858V289.35177a24.60933,24.60933,0,0,0-2.78792-11.41374l-.62088-1.18392H265.2496v36.34073C265.2496,322.58243,272.42875,330.27364,281.28468,330.27364Z" fill="#424242"/>
    <rect x="233.96873" y="269.28538" width="58.19919" height="7.46875" rx="1.25049" ry="1.25049" fill="#424242"/>
    <path d="M213.66476,395.17181l36.28824,1.3805a4.3776,4.3776,0,0,0,4.27281-4.8362l-.97459-10.962h-24.59a12.658,12.658,0,0,0-11.2554,7.03579Z" fill="#3a3a3a"/>
    <rect x="209.42234" y="391.48265" width="47.26919" height="5.06967" rx="2.53483" ry="2.53483" fill="#e8e7e6"/>
    <polygon points="300.014 224.801 321.955 221.844 317.915 196.023 295.974 198.98 300.014 224.801" fill="#3a3a3a"/>
    <polygon points="227.712 225.011 204.216 221.844 208.295 196.028 231.791 199.195 227.712 225.011" fill="#3a3a3a"/>
    <path d="M206.479,209.01081l24.038,3.24008,3.24008-24.038L221.264,186.39414a18.20288,18.20288,0,0,0-8.04928,1.11291,12.78579,12.78579,0,0,0-6.87763,11.71907Z" fill="#3a3a3a"/>
    <path d="M319.69215,209.01081l-24.038,3.24008-3.24008-24.038,12.49315-1.81874a18.20288,18.20288,0,0,1,8.04928,1.11291,12.78579,12.78579,0,0,1,6.87763,11.71907Z" fill="#3a3a3a"/>
    <rect x="255.60502" y="276.75411" width="14.2263" height="22.94436" fill="#424242"/>
    <path d="M312.51994,395.689l-36.55034.86333a4.3776,4.3776,0,0,1-4.27281-4.8362l.97459-10.962h24.59a12.658,12.658,0,0,1,11.2554,7.03579Z" fill="#3a3a3a"/>
    <rect x="269.23107" y="391.48265" width="47.26919" height="5.06967" rx="2.53483" ry="2.53483" transform="translate(585.73132 788.03496) rotate(180)" fill="#e8e7e6"/>
    <path id="61864e3b-cc93-4721-98e3-51cf8b5d91d7" data-name="&lt;Path&gt;" d="M262.64342,181.77047h-.09059c-8.20767,0-13.51142-4.87019-18.18587-10.88519-3.36187-4.326-7.36374-8.76143-7.36374-14.66441V136.93151a25.5496,25.5496,0,0,1,25.5496-25.5496h.09059a25.5496,25.5496,0,0,1,25.5496,25.5496v19.28935c0,5.903-4.00186,10.3384-7.36374,14.66441C276.15484,176.90028,270.85109,181.77047,262.64342,181.77047Z" fill="#feccae"/>
    <ellipse id="7166949f-fea0-4b19-8a1a-ab47b55b78f7" data-name="&lt;Path&gt;" cx="273.25981" cy="144.23551" rx="2.89662" ry="2.55218" fill="#5b5b5b"/>
    <ellipse id="ce301fd5-3377-498f-b7a8-b1cb01f5a944" data-name="&lt;Path&gt;" cx="251.93098" cy="144.23551" rx="2.89662" ry="2.55218" fill="#5b5b5b"/>
    <ellipse id="eb4df778-7a12-4e3e-81dd-195f939ca1f5" data-name="&lt;Path&gt;" cx="277.8852" cy="156.40064" rx="1.51586" ry="3.5901" transform="translate(42.42354 371.43354) rotate(-71.77545)" fill="#f9bfa2"/>
    <ellipse id="1afa49a9-1ecf-4c37-8638-fffe6016e957" data-name="&lt;Path&gt;" cx="247.3857" cy="156.40064" rx="3.5901" ry="1.51586" transform="translate(-43.93275 128.21545) rotate(-26.77545)" fill="#f9bfa2"/>
    <path d="M262.5954,157.67985h0a2.91464,2.91464,0,0,1-2.90972-2.74535l-.66086-11.35911a2.91464,2.91464,0,0,1,2.90972-3.08392h1.32172a2.91464,2.91464,0,0,1,2.90972,3.08392l-.66086,11.35911A2.91464,2.91464,0,0,1,262.5954,157.67985Z" fill="#f9bfa2"/>
    <rect x="257.29787" y="153.44157" width="7.45239" height="4.23828" rx="2.11914" ry="2.11914" fill="#f9bfa2"/>
    <path d="M290.47186,143.703h-2.28429v10.02272h1.3027c1.96,0,3.64726-1.78327,4.03081-4.26006l.121-.78169C294.04122,146.10669,292.51131,143.703,290.47186,143.703Z" fill="#f9bfa2"/>
    <path d="M234.71893,143.703h2.28429v10.02272h-1.3027c-1.96,0-3.64726-1.78327-4.03081-4.26006l-.121-.78169C231.14958,146.10669,232.67948,143.703,234.71893,143.703Z" fill="#f9bfa2"/>
    <rect x="269.64475" y="136.70435" width="10.24045" height="2.1875" rx="1.01041" ry="1.01041" fill="#5b5b5b"/>
    <rect x="245.81076" y="136.70435" width="10.24045" height="2.1875" rx="1.01041" ry="1.01041" fill="#5b5b5b"/>
    <rect x="260.2843" y="174.1528" width="5.46794" height="2" rx="0.79577" ry="0.79577" fill="#f9bfa2"/>
    <g>
      <path id="e33277fb-a38f-4dc0-9f25-83da2eebcc5c" data-name="&lt;Path&gt;" d="M269.95635,101.59618H255.23449c-10.07186,0-18.23672,10.57319-18.23672,21.14875v18.48619h4.56052l.716-12.80893a2.67658,2.67658,0,0,1,3.72019-2.56669l10.62173,4.82263a14.40787,14.40787,0,0,0,11.95841,0l10.62169-4.82262a2.67658,2.67658,0,0,1,3.72019,2.56669l.716,12.80892H288.193V120.74489C288.193,110.16935,280.02818,101.59618,269.95635,101.59618Z" fill="#3a3a3a"/>
      <path d="M263.97752,131.99519h-1.92395a15.06133,15.06133,0,0,1-13.32465-8.04012l-.7836-1.48709a1.25389,1.25389,0,0,1,1.28493-1.82606l5.72559.80991a3.146,3.146,0,0,0,2.60543-.83226l3.5526-3.36912a2.76358,2.76358,0,0,1,3.80336,0l3.5526,3.36912a3.146,3.146,0,0,0,2.60543.83226l5.72559-.80991a1.25389,1.25389,0,0,1,1.28493,1.82606l-.7836,1.48709A15.06133,15.06133,0,0,1,263.97752,131.99519Z" fill="#333"/>
      <polygon points="288.193 154.069 284.376 154.069 283.633 141.231 288.193 141.231 288.193 154.069" fill="url(#1764b0f8-7780-4c1b-83ba-fefce5453258)"/>
      <polygon points="236.998 154.069 240.815 154.069 241.558 141.231 236.998 141.231 236.998 154.069" fill="url(#4af8b339-fbf8-413a-9b74-09c7f09c624f)"/>
    </g>
    <path id="242db2de-33bc-4600-8abe-cd3b4b999559" data-name="&lt;Path&gt;" d="M256.0449,163.56242a7.45835,7.45835,0,0,0,12.20566-.20707" fill="none" stroke="#eaa688" stroke-linecap="round" stroke-miterlimit="10" stroke-width="1.6"/>
  </g>
</svg>
