<svg id="28e41d5f-f1e9-410c-b169-15a55bcdb486" data-name="Layer 1" xmlns="http://www.w3.org/2000/svg" viewBox="0 0 470 470"><title>joaco - exports</title><g id="66327865-3b87-4dcd-b117-86e23557755b" data-name="&lt;Group&gt;"><rect id="4949f0f0-d595-4965-91ca-1335e456750c" data-name="&lt;Rectangle&gt;" x="209.85" y="298.41" width="21.27" height="54.26" fill="#5b5b5b"/><rect id="22fd4899-38aa-4073-a361-701e47b814c1" data-name="&lt;Rectangle&gt;" x="209.85" y="288.24" width="50.3" height="10.17" fill="#3d3d3d"/><rect id="fbcdd7ee-c171-4431-84f5-da22ee398365" data-name="&lt;Rectangle&gt;" x="238.88" y="298.41" width="21.27" height="54.26" fill="#5b5b5b"/><rect id="34b44874-b336-452e-8e78-86b221191223" data-name="&lt;Rectangle&gt;" x="209.85" y="298.41" width="50.3" height="17.12" fill="#5b5b5b"/><path id="d2cfe105-659f-4eea-88b2-1f75e32470ae" data-name="&lt;Rectangle&gt;" d="M247.39,344h18.29a5.6,5.6,0,0,1,5.6,5.6V361a0,0,0,0,1,0,0H247.39a8.51,8.51,0,0,1-8.51-8.51v0A8.51,8.51,0,0,1,247.39,344Z" transform="translate(510.16 704.93) rotate(180)" fill="#474747"/><path id="60829bc1-2d5d-41b6-9c4d-1ac1f1801f89" data-name="&lt;Rectangle&gt;" d="M247.39,344h3a4.13,4.13,0,0,1,4.13,4.13V361a0,0,0,0,1,0,0h-7.08a8.51,8.51,0,0,1-8.51-8.51v0A8.51,8.51,0,0,1,247.39,344Z" transform="translate(493.35 704.93) rotate(180)" fill="#3d3d3d"/><path id="3477aeea-6d37-4a85-8961-1aa45917074a" data-name="&lt;Rectangle&gt;" d="M207.23,344h23.89a0,0,0,0,1,0,0v11.42a5.6,5.6,0,0,1-5.6,5.6H207.23a8.51,8.51,0,0,1-8.51-8.51v0a8.51,8.51,0,0,1,8.51-8.51Z" fill="#474747"/><path id="22f5a4ce-7ff8-4bc5-8360-4f6a06d4f992" data-name="&lt;Rectangle&gt;" d="M224,344h7.08a0,0,0,0,1,0,0v12.89A4.13,4.13,0,0,1,227,361h-3a8.51,8.51,0,0,1-8.51-8.51v0A8.51,8.51,0,0,1,224,344Z" fill="#3d3d3d"/><rect id="09832808-c105-4ca0-8e41-8c43a86f6253" data-name="&lt;Rectangle&gt;" x="209.85" y="227.49" width="50.3" height="60.75" fill="#474747"/><rect id="7619c434-beb5-4984-8542-b65ff3e61205" data-name="&lt;Rectangle&gt;" x="252.03" y="227.5" width="18.95" height="13.83" fill="#515151"/><g id="78a5453b-d06e-4c14-84fa-6b6bb5a1e518" data-name="&lt;Group&gt;"><rect id="0a2cbe73-7b67-4e63-94f4-bff6f4e7ce03" data-name="&lt;Rectangle&gt;" x="267.05" y="271.71" width="19.36" height="43.53" rx="9.68" ry="9.68" transform="translate(-29.2 30.58) rotate(-6.01)" fill="#feccae"/><rect id="3db06651-db2c-45a8-952f-2cc4cc2f5631" data-name="&lt;Rectangle&gt;" x="263.48" y="229.39" width="19.36" height="60.5" rx="9.28" ry="9.28" transform="translate(-25.68 30.03) rotate(-6.01)" fill="#feccae"/><path id="ddc970e5-1b11-4180-a67c-a974068e08f0" data-name="&lt;Path&gt;" d="M269.79,227.56l-9.63,1,3.15,29.91,19.26-2-2.14-20.28A9.68,9.68,0,0,0,269.79,227.56Z" fill="#515151"/></g><rect id="bd6be1f1-f468-4ff4-9b92-f17b35e75af2" data-name="&lt;Rectangle&gt;" x="198.96" y="227.5" width="18.95" height="13.83" transform="translate(416.87 468.83) rotate(-180)" fill="#515151"/><g id="044bec5e-8601-4f80-be84-f1738a30e436" data-name="&lt;Group&gt;"><rect id="5a96f834-7ac7-4592-a279-a226d4bb49f0" data-name="&lt;Rectangle&gt;" x="183.53" y="271.71" width="19.36" height="43.53" rx="9.68" ry="9.68" transform="translate(354.64 605.57) rotate(-173.99)" fill="#feccae"/><rect id="dcc19d6e-2173-4dde-9312-a2391cdd1db5" data-name="&lt;Rectangle&gt;" x="187.09" y="229.39" width="19.36" height="60.5" rx="9.28" ry="9.28" transform="translate(365.28 538.47) rotate(-173.99)" fill="#feccae"/><path id="704eb2f1-023a-4138-b521-6ccfd2ed2f45" data-name="&lt;Path&gt;" d="M200.15,227.56l9.63,1-3.15,29.91-19.26-2,2.14-20.28A9.68,9.68,0,0,1,200.15,227.56Z" fill="#515151"/></g><path id="bda1c6c8-ae48-4bf3-8639-35f34d8aa99e" data-name="&lt;Rectangle&gt;" d="M206.42,227.5h57.15a0,0,0,0,1,0,0v29.22a7.12,7.12,0,0,1-7.12,7.12H213.54a7.12,7.12,0,0,1-7.12-7.12V227.5A0,0,0,0,1,206.42,227.5Z" fill="#474747"/><path id="79f656f3-ecbe-485a-8560-b2eb052c0ec1" data-name="&lt;Path&gt;" d="M218.24,227.5a10.88,10.88,0,0,0-.12,1.55c0,7.44,7.56,13.48,16.88,13.48s16.88-6,16.88-13.48a10.9,10.9,0,0,0-.12-1.55H218.24Z" fill="#515151"/><path id="027977bb-fa6c-4bc1-9016-643c48cd98d1" data-name="&lt;Rectangle&gt;" d="M223.4,221.64H246.6a0.46,0.46,0,0,1,.46.46v4.07A10.83,10.83,0,0,1,236.23,237h-2.46a10.83,10.83,0,0,1-10.83-10.83V222.1A0.46,0.46,0,0,1,223.4,221.64Z" fill="#febd86"/><path id="e621f3b8-5e1d-4617-83ea-643cea089951" data-name="&lt;Rectangle&gt;" d="M227.59,157h14.82a20,20,0,0,1,20,20v23.3A23.76,23.76,0,0,1,238.61,224h-7.21a23.76,23.76,0,0,1-23.76-23.76V177A20,20,0,0,1,227.59,157Z" fill="#feccae"/><path id="11132590-3a31-4063-92f7-b8d46b12b613" data-name="&lt;Path&gt;" d="M242.87,155.44H227.13a19.5,19.5,0,0,0-19.5,19.5v25.31a5.64,5.64,0,0,0,5.64-5.64V180.71a2.85,2.85,0,0,1,4-2.61L228.61,183a16.1,16.1,0,0,0,12.78,0l11.35-4.91a2.85,2.85,0,0,1,4,2.61V194.6a5.64,5.64,0,0,0,5.64,5.64V174.93A19.5,19.5,0,0,0,242.87,155.44Z" fill="#735448"/><circle id="e41695bd-4e25-42d4-9db5-b1e697df1f16" data-name="&lt;Path&gt;" cx="224.55" cy="197" r="2.48" fill="#5b5b5b"/><circle id="60e1f264-1100-4118-b0e2-c3c03e97b793" data-name="&lt;Path&gt;" cx="244.55" cy="197" r="2.48" fill="#5b5b5b"/><ellipse id="f7340bf3-26f9-4c71-b643-d21a79a21674" data-name="&lt;Path&gt;" cx="249.69" cy="202.58" rx="1.43" ry="3.38" transform="translate(-20.82 376.4) rotate(-71.78)" fill="#f9bfa2"/><ellipse id="0372cd53-af42-4271-a7e6-81a78406c0d3" data-name="&lt;Path&gt;" cx="220.78" cy="202.58" rx="3.38" ry="1.43" transform="translate(-52.28 79.21) rotate(-18.22)" fill="#f9bfa2"/><path id="aa8ef9c0-2e65-4a40-ab2b-ee87d6d076d4" data-name="&lt;Path&gt;" d="M242.87,155.44H227.13a19.5,19.5,0,0,0-19.5,19.5v25.31a5.64,5.64,0,0,0,5.64-5.64V180.71a2.85,2.85,0,0,1,4-2.61L228.61,183a16.1,16.1,0,0,0,12.78,0l11.35-4.91a2.85,2.85,0,0,1,4,2.61V194.6a5.64,5.64,0,0,0,5.64,5.64V174.93A19.5,19.5,0,0,0,242.87,155.44Z" fill="#3a3a3a"/><path id="d6f0828d-9de5-44b3-a76a-7056263cd843" data-name="&lt;Path&gt;" d="M214.51,172a1,1,0,0,1-.92-1.39,16.72,16.72,0,0,1,8.8-8.81,1,1,0,1,1,.78,1.84,14.7,14.7,0,0,0-7.74,7.74A1,1,0,0,1,214.51,172Z" fill="#ededed" opacity="0.1"/><path id="369c7da7-9187-4e75-99d7-d69f0a0602dc" data-name="&lt;Path&gt;" d="M238.08,212.79h-6.16a7.37,7.37,0,0,1-7.07-5.27,1.62,1.62,0,0,1,1.53-2.1h17.25a1.59,1.59,0,0,1,1.56,2A7.37,7.37,0,0,1,238.08,212.79Z" fill="#fff"/><path id="4b7c50a9-8805-49f7-877b-fe6faa19c265" data-name="&lt;Path&gt;" d="M239.53,209.47H230.4a0.54,0.54,0,1,1,0-1.08h9.13A0.54,0.54,0,1,1,239.53,209.47Z" fill="#ededed"/></g><rect id="6135b158-9fbf-40ee-b310-555c18ddbbaa" data-name="&lt;Rectangle&gt;" x="46.04" y="375.33" width="377.91" height="16.77" rx="8.39" ry="8.39" opacity="0.08"/><rect id="c6af7ada-5f40-4419-84ae-cebf140d0906" data-name="&lt;Rectangle&gt;" x="106" y="274.83" width="258" height="108.17" fill="#b47860"/><path id="31368566-a513-4d58-88c5-e9f4b7eb01ed" data-name="&lt;Rectangle&gt;" d="M109.4,368.13h1.13a0,0,0,0,1,0,0V383a0,0,0,0,1,0,0h-16a0,0,0,0,1,0,0v0A14.87,14.87,0,0,1,109.4,368.13Z" fill="#b47860"/><path id="8cf2834c-516a-4640-aaa1-3c2ae57fa846" data-name="&lt;Rectangle&gt;" d="M360.2,368.13h16a0,0,0,0,1,0,0V383a0,0,0,0,1,0,0h-1.13a14.87,14.87,0,0,1-14.87-14.87v0A0,0,0,0,1,360.2,368.13Z" transform="translate(736.4 751.13) rotate(180)" fill="#b47860"/><rect id="ecf3ece9-d8b6-436c-b798-c6a78aa52291" data-name="&lt;Rectangle&gt;" x="106" y="274.83" width="258" height="20.28" fill="#aa6f5b"/><rect id="f43a1e8d-25ad-4767-8a51-97538d8f0b59" data-name="&lt;Rectangle&gt;" x="285.04" y="259.65" width="25.49" height="15.19" fill="#feccae"/><path id="5dd88183-b63c-4994-89a4-a76c681c137f" data-name="&lt;Rectangle&gt;" d="M311.92,255.58h6a10,10,0,0,1,10,10v9.27a0,0,0,0,1,0,0H301.94a0,0,0,0,1,0,0v-9.27A10,10,0,0,1,311.92,255.58Z" fill="#feccae"/><line id="41b36f3c-bfd4-4074-a3a8-493cdcecc18f" data-name="&lt;Path&gt;" x1="310.53" y1="274.83" x2="323.45" y2="234.42" fill="none" stroke="#515151" stroke-linecap="round" stroke-miterlimit="10" stroke-width="5"/><rect id="5adc019a-e7f2-4516-bbbe-195324930ae9" data-name="&lt;Rectangle&gt;" x="98.25" y="274.83" width="273.5" height="11.41" rx="5.71" ry="5.71" fill="#b77d67"/><rect id="a08a7765-e10d-436d-84d8-a0e8a252d04b" data-name="&lt;Path&gt;" x="120.53" y="306.97" width="68.67" height="61.16" rx="7.01" ry="7.01" fill="#aa6f5b"/><rect id="a74bd91f-9469-4c95-818f-c987fabb6e8a" data-name="&lt;Path&gt;" x="200.2" y="306.97" width="68.67" height="61.16" rx="7.01" ry="7.01" fill="#aa6f5b"/><rect id="e80adfba-3b50-4882-b171-f2120909ace9" data-name="&lt;Path&gt;" x="279.87" y="306.97" width="68.67" height="61.16" rx="7.01" ry="7.01" fill="#aa6f5b"/><rect id="2001f45b-2593-4173-aaf5-f85bf92ad857" data-name="&lt;Rectangle&gt;" x="50.98" y="86.1" width="99.1" height="101.04" rx="7.6" ry="7.6" opacity="0.08"/><rect id="4edffc56-a346-41d8-b591-8593719c873d" data-name="&lt;Rectangle&gt;" x="62.88" y="98.23" width="75.3" height="76.77" fill="#ad87c6"/><circle id="0c2a0f82-4c54-4c1e-9170-9a82c35f2d2a" data-name="&lt;Path&gt;" cx="109.82" cy="120" r="9.08" opacity="0.05"/><path id="b2c65f4a-11bc-4d36-909a-dbe3950dff86" data-name="&lt;Path&gt;" d="M62.88,140l12.41-11.09a5.06,5.06,0,0,1,6.71,0l17.77,15.68a4.39,4.39,0,0,0,5.63.15l7.36-5.82a5.06,5.06,0,0,1,5.76-.35l19.65,11.94V175H62.88V140Z" opacity="0.08"/><g id="b05da550-84fb-4812-87f7-1ac645515cf5" data-name="&lt;Group&gt;"><rect id="ed862678-1bd4-4d33-a1f3-bdcec42765a9" data-name="&lt;Rectangle&gt;" x="174.67" y="193" width="120.67" height="81.83" rx="8.8" ry="8.8" fill="#e3e3e3"/><path id="bc8a1c16-870c-47ea-9da1-76bab200e8fd" data-name="&lt;Path&gt;" d="M244.63,235.28a7.74,7.74,0,0,1-3.79-11.95A12.13,12.13,0,1,0,247,235.68,7.73,7.73,0,0,1,244.63,235.28Z" fill="#fff"/><g id="fd050d41-252a-400f-9bb8-4606a35bfc72" data-name="&lt;Group&gt;" opacity="0.3"><rect id="8d7a6493-5fe8-4f26-998c-347a6c5cbe4e" data-name="&lt;Rectangle&gt;" x="170.68" y="248.57" width="30.77" height="6.17" rx="3.08" ry="3.08" transform="translate(-65.6 437.72) rotate(-90)" fill="#fff"/><rect id="c1c5857b-9572-4d9c-a97b-6b7a93840623" data-name="&lt;Rectangle&gt;" x="182.79" y="224.9" width="6.55" height="6.17" rx="3.08" ry="3.08" transform="translate(-41.92 414.04) rotate(-90)" fill="#fff"/></g></g><polygon id="7ca577c0-86ba-41af-b00e-1e15ac60dbd4" data-name="&lt;Path&gt;" points="99.2 175 109.2 175 131.87 98.47 121.86 98.47 99.2 175" fill="#fff" opacity="0.1"/><polygon id="c715d936-2c36-4acd-b57d-63a749e6c1c0" data-name="&lt;Path&gt;" points="67.2 175 90.2 175 112.86 98.47 89.86 98.47 67.2 175" fill="#fff" opacity="0.1"/><line id="76bfbff5-ba04-48a0-956d-d7636da8e190" data-name="&lt;Path&gt;" x1="132.72" y1="265.88" x2="145.64" y2="225.46" fill="none" stroke="#5e5e5e" stroke-linecap="round" stroke-miterlimit="10" stroke-width="5"/><line id="2f847455-5d31-48a8-8013-a6a4e456980a" data-name="&lt;Path&gt;" x1="130.81" y1="263.72" x2="128.62" y2="221.34" fill="none" stroke="#5e5e5e" stroke-linecap="round" stroke-miterlimit="10" stroke-width="5"/><path id="f2b5733f-d1b9-4056-a40a-c830ec39e3df" data-name="&lt;Rectangle&gt;" d="M120.53,248.33h26a0,0,0,0,1,0,0v19.23a7.27,7.27,0,0,1-7.27,7.27H127.8a7.27,7.27,0,0,1-7.27-7.27V248.33a0,0,0,0,1,0,0Z" fill="#474747"/><rect id="0736fb5e-81ff-42ff-9cb3-3780e51449e0" data-name="&lt;Rectangle&gt;" x="360.2" y="224.99" width="29.86" height="7.92" opacity="0.08"/><rect id="1e627c2f-1f94-4b11-bf5c-29c2720fb5ab" data-name="&lt;Rectangle&gt;" x="395.32" y="224.99" width="29.86" height="7.92" opacity="0.08"/><rect id="f4a0b754-4b93-4e45-8620-e92aa9ce9dc9" data-name="&lt;Rectangle&gt;" x="376.87" y="235.93" width="29.86" height="7.92" opacity="0.08"/><rect id="b3459c3e-f472-4868-ba6b-cf0404467758" data-name="&lt;Rectangle&gt;" x="46.57" y="288.98" width="29.86" height="7.92" opacity="0.08"/><rect id="aca5c912-5121-46f0-a7a2-1479a1c39368" data-name="&lt;Rectangle&gt;" x="28.12" y="299.92" width="29.86" height="7.92" opacity="0.08"/></svg>