<svg id="9290d564-6222-4709-82e7-8c6ae8195abd" data-name="Layer 1" xmlns="http://www.w3.org/2000/svg" viewBox="0 0 470 470"><title>joaco - exports</title><rect id="743ad7af-de36-4de0-8a1c-71d4850d3122" data-name="&lt;Rectangle&gt;" x="174.06" y="352.59" width="121.87" height="16.77" rx="8.39" ry="8.39" opacity="0.05"/><g id="2da263bb-b847-4990-9154-73e98736a12c" data-name="&lt;Group&gt;" opacity="0.5"><line id="592280d0-4c40-46ac-84c0-0f274ee50128" data-name="&lt;Path&gt;" x1="123.19" y1="120.39" x2="287.68" y2="120.39" fill="none" stroke="#fff" stroke-linecap="round" stroke-miterlimit="10" stroke-width="5"/><line id="75a39800-1ca5-45ff-adc0-ef4a9889bc44" data-name="&lt;Path&gt;" x1="99.81" y1="112.62" x2="99.81" y2="217.35" fill="none" stroke="#fff" stroke-linecap="round" stroke-miterlimit="10" stroke-width="5"/><line id="375360cc-5a7a-44fb-81fe-d8caa90afea4" data-name="&lt;Path&gt;" x1="340.15" y1="94.12" x2="340.15" y2="225.75" fill="none" stroke="#fff" stroke-linecap="round" stroke-miterlimit="10" stroke-width="5"/><line id="2bf039ee-dc84-4f65-98f2-956462f0a90b" data-name="&lt;Path&gt;" x1="292.15" y1="120.39" x2="292.15" y2="173.21" fill="none" stroke="#fff" stroke-linecap="round" stroke-miterlimit="10" stroke-width="5"/><line id="d2c7cd2a-c671-4857-9325-f2c97b9c73ef" data-name="&lt;Path&gt;" x1="99.81" y1="164.27" x2="112.11" y2="164.27" fill="none" stroke="#fff" stroke-linecap="round" stroke-miterlimit="10" stroke-width="5"/><line id="435908c0-fd2c-4afc-bb75-77c523a457d6" data-name="&lt;Path&gt;" x1="190.53" y1="96.59" x2="190.53" y2="120.39" fill="none" stroke="#fff" stroke-linecap="round" stroke-miterlimit="10" stroke-width="5"/><line id="1b04342b-c053-4d20-b6ea-be63a918d928" data-name="&lt;Path&gt;" x1="99.81" y1="190.54" x2="112.11" y2="190.54" fill="none" stroke="#fff" stroke-linecap="round" stroke-miterlimit="10" stroke-width="5"/><line id="9145799b-baf9-448c-b3b4-9dee2542c7a8" data-name="&lt;Path&gt;" x1="99.81" y1="216.81" x2="112.11" y2="216.81" fill="none" stroke="#fff" stroke-linecap="round" stroke-miterlimit="10" stroke-width="5"/><rect id="d2ec8784-33c3-42b1-b308-9bead9a92cc2" data-name="&lt;Rectangle&gt;" x="82.53" y="104.86" width="46.83" height="31.07" rx="5.84" ry="5.84" fill="#fff"/><rect id="96c96b03-fad7-4652-b3ce-c6cacfb7c54b" data-name="&lt;Rectangle&gt;" x="170.65" y="65.74" width="69.41" height="36.14" rx="7.67" ry="7.67" fill="#fff"/><rect id="72028d42-672d-45a6-86ec-2d018c269be8" data-name="&lt;Rectangle&gt;" x="112.11" y="156.5" width="46.83" height="15.54" rx="4.13" ry="4.13" fill="#fff"/><rect id="fe901d1c-b786-4b5a-9877-a2e509971a07" data-name="&lt;Rectangle&gt;" x="112.11" y="209.05" width="46.83" height="15.54" rx="4.13" ry="4.13" fill="#fff"/><rect id="cb23b70e-68ee-4abe-b8d6-c0ac2904a338" data-name="&lt;Rectangle&gt;" x="112.11" y="182.77" width="46.83" height="15.54" rx="4.13" ry="4.13" fill="#fff"/><line id="872acd51-cc98-478d-9304-8652bf69c930" data-name="&lt;Path&gt;" x1="340.15" y1="94.12" x2="352.45" y2="94.12" fill="none" stroke="#fff" stroke-linecap="round" stroke-miterlimit="10" stroke-width="5"/><line id="863c182a-43c2-4440-8fcc-c80c57703789" data-name="&lt;Path&gt;" x1="300.9" y1="120.39" x2="352.45" y2="120.39" fill="none" stroke="#fff" stroke-linecap="round" stroke-miterlimit="10" stroke-width="5"/><line id="b3e01fae-b517-435d-b9e2-093557749ca6" data-name="&lt;Path&gt;" x1="340.15" y1="146.66" x2="352.45" y2="146.66" fill="none" stroke="#fff" stroke-linecap="round" stroke-miterlimit="10" stroke-width="5"/><rect id="cf3fc6da-7c21-4641-a3b0-c28abad36bcc" data-name="&lt;Rectangle&gt;" x="352.45" y="86.35" width="46.83" height="15.54" rx="4.13" ry="4.13" fill="#fff"/><rect id="3dc61a10-0a08-404d-a9f4-d705b345d525" data-name="&lt;Rectangle&gt;" x="352.45" y="138.9" width="46.83" height="15.54" rx="4.13" ry="4.13" fill="#fff"/><rect id="04b1403e-c416-4126-9826-17ec4fd94f19" data-name="&lt;Rectangle&gt;" x="352.45" y="112.62" width="46.83" height="15.54" rx="4.13" ry="4.13" fill="#fff"/><line id="13faa783-e98a-4a59-8105-766e21919b44" data-name="&lt;Path&gt;" x1="292.15" y1="173.21" x2="352.45" y2="173.21" fill="none" stroke="#fff" stroke-linecap="round" stroke-miterlimit="10" stroke-width="5"/><line id="9ff90af2-a432-4c7d-8bd0-d34d8a35f9d7" data-name="&lt;Path&gt;" x1="340.15" y1="199.48" x2="352.45" y2="199.48" fill="none" stroke="#fff" stroke-linecap="round" stroke-miterlimit="10" stroke-width="5"/><line id="1720d4bb-ee1a-4bed-b957-94277fef5ca9" data-name="&lt;Path&gt;" x1="340.15" y1="225.75" x2="352.45" y2="225.75" fill="none" stroke="#fff" stroke-linecap="round" stroke-miterlimit="10" stroke-width="5"/><rect id="de754140-2eb6-4f8d-81db-44dc4520fd45" data-name="&lt;Rectangle&gt;" x="352.45" y="165.44" width="46.83" height="15.54" rx="4.13" ry="4.13" fill="#fff"/><rect id="149871e3-559f-488e-95c7-a4739b902b66" data-name="&lt;Rectangle&gt;" x="352.45" y="217.99" width="46.83" height="15.54" rx="4.13" ry="4.13" fill="#fff"/><rect id="d7cbdce4-3da0-43ab-98ae-4b58976afcf9" data-name="&lt;Rectangle&gt;" x="352.45" y="191.71" width="46.83" height="15.54" rx="4.13" ry="4.13" fill="#fff"/><circle id="07be47fe-09ce-462d-a3af-2e19e6f99ec9" data-name="&lt;Path&gt;" cx="92.53" cy="76.17" r="10" fill="#fff"/><circle id="a06a9824-ee33-4bbc-9004-db4558522f20" data-name="&lt;Path&gt;" cx="116.96" cy="76.17" r="10" fill="#fff"/><circle id="08adcfe0-3ae0-485c-a74f-159990a31ec2" data-name="&lt;Path&gt;" cx="344.3" cy="61" r="6.36" fill="#fff"/><circle id="06b72272-bcf1-410a-b4b8-b8c652b6f646" data-name="&lt;Path&gt;" cx="362.03" cy="61" r="6.36" fill="#fff"/><circle id="b1db9dd6-e2f5-4340-b4c9-76476d9d406e" data-name="&lt;Path&gt;" cx="134.66" cy="245" r="6.36" fill="#fff"/><circle id="6002a81d-bd4f-43cf-8b1d-63598a5bb211" data-name="&lt;Path&gt;" cx="152.39" cy="245" r="6.36" fill="#fff"/><circle id="85bb125a-33b6-42b9-aaf8-920facfc4dd9" data-name="&lt;Path&gt;" cx="142.53" cy="76.17" r="10" fill="#fff"/><circle id="ee8e2e45-91ad-430b-80c6-909a6b325b12" data-name="&lt;Path&gt;" cx="292.15" cy="120.39" r="32" fill="#fff"/></g><g id="99ff5a5e-ca1f-4cd9-a0cb-6e2529ae6d2c" data-name="&lt;Group&gt;"><rect id="7e5e08d3-151c-4c0e-a2d0-ea63a8869eb1" data-name="&lt;Rectangle&gt;" x="209.85" y="298.41" width="21.27" height="54.26" fill="#5b5b5b"/><rect id="b7416620-1a92-4e3e-9ca5-38d320cf3611" data-name="&lt;Rectangle&gt;" x="209.85" y="288.24" width="50.3" height="10.17" fill="#3d3d3d"/><rect id="0f77b5b2-260f-4d19-bc1c-24bbc644a296" data-name="&lt;Rectangle&gt;" x="238.88" y="298.41" width="21.27" height="54.26" fill="#5b5b5b"/><rect id="e012f41a-1ae5-4384-b9b6-f25e03a45eaa" data-name="&lt;Rectangle&gt;" x="209.85" y="298.41" width="50.3" height="17.12" fill="#5b5b5b"/><path id="5c8a8fcc-c2fb-4cba-aa68-399804131ac6" data-name="&lt;Rectangle&gt;" d="M247.39,344h18.29a5.6,5.6,0,0,1,5.6,5.6V361a0,0,0,0,1,0,0H247.39a8.51,8.51,0,0,1-8.51-8.51v0a8.51,8.51,0,0,1,8.51-8.51Z" transform="translate(510.16 704.93) rotate(180)" fill="#474747"/><path id="4205e158-4670-426e-a5dd-00fa929a539a" data-name="&lt;Rectangle&gt;" d="M247.39,344h3a4.13,4.13,0,0,1,4.13,4.13V361a0,0,0,0,1,0,0h-7.08a8.51,8.51,0,0,1-8.51-8.51v0A8.51,8.51,0,0,1,247.39,344Z" transform="translate(493.35 704.93) rotate(180)" fill="#3d3d3d"/><path id="bdf202c2-6429-42be-8d87-1a54dc6458cd" data-name="&lt;Rectangle&gt;" d="M207.23,344h23.89a0,0,0,0,1,0,0v11.42a5.6,5.6,0,0,1-5.6,5.6H207.23a8.51,8.51,0,0,1-8.51-8.51v0A8.51,8.51,0,0,1,207.23,344Z" fill="#474747"/><path id="721e7398-fa32-4cd3-973e-daae1d91c318" data-name="&lt;Rectangle&gt;" d="M224,344h7.08a0,0,0,0,1,0,0v12.89A4.13,4.13,0,0,1,227,361h-3a8.51,8.51,0,0,1-8.51-8.51v0A8.51,8.51,0,0,1,224,344Z" fill="#3d3d3d"/><rect id="a83bcdf2-4ac3-4eab-b50c-d7545875dcbe" data-name="&lt;Rectangle&gt;" x="209.85" y="227.49" width="50.3" height="60.75" fill="#474747"/><rect id="2932a692-2596-481c-9572-ed9f4108d51a" data-name="&lt;Rectangle&gt;" x="252.03" y="227.5" width="18.95" height="13.83" fill="#515151"/><g id="d3cc2e0f-2b66-40ad-99ca-c6737c3cc881" data-name="&lt;Group&gt;"><rect id="cc01ef8b-917a-4d6c-8545-73d3f236b25d" data-name="&lt;Rectangle&gt;" x="267.05" y="271.71" width="19.36" height="43.53" rx="9.68" ry="9.68" transform="translate(-29.2 30.58) rotate(-6.01)" fill="#feccae"/><rect id="25c73366-95a4-466f-a71d-212ef17287e7" data-name="&lt;Rectangle&gt;" x="263.48" y="229.39" width="19.36" height="60.5" rx="9.28" ry="9.28" transform="translate(-25.68 30.03) rotate(-6.01)" fill="#feccae"/><path id="cd38eb61-7015-4aa2-8e1c-1003f6bc67aa" data-name="&lt;Path&gt;" d="M269.79,227.56l-9.63,1,3.15,29.91,19.26-2-2.14-20.28A9.68,9.68,0,0,0,269.79,227.56Z" fill="#515151"/></g><rect id="53176959-c45d-423d-a754-5bc6ee7c4b69" data-name="&lt;Rectangle&gt;" x="198.96" y="227.5" width="18.95" height="13.83" transform="translate(416.87 468.83) rotate(-180)" fill="#515151"/><g id="a7e308fa-090c-419a-a050-40c2c28fd024" data-name="&lt;Group&gt;"><rect id="94887662-a70a-4fc2-bc05-c1c5e0aae885" data-name="&lt;Rectangle&gt;" x="183.53" y="271.71" width="19.36" height="43.53" rx="9.68" ry="9.68" transform="translate(354.64 605.57) rotate(-173.99)" fill="#feccae"/><rect id="c9d0e17a-2bda-4d62-9368-123f67137c47" data-name="&lt;Rectangle&gt;" x="187.09" y="229.39" width="19.36" height="60.5" rx="9.28" ry="9.28" transform="translate(365.28 538.47) rotate(-173.99)" fill="#feccae"/><path id="6b4e73bd-cdc6-4b98-8861-f6cee7963c89" data-name="&lt;Path&gt;" d="M200.15,227.56l9.63,1-3.15,29.91-19.26-2,2.14-20.28A9.68,9.68,0,0,1,200.15,227.56Z" fill="#515151"/></g><path id="d62eca4c-be21-49c3-acdb-0f7f13ebd08c" data-name="&lt;Rectangle&gt;" d="M206.42,227.5h57.15a0,0,0,0,1,0,0v29.22a7.12,7.12,0,0,1-7.12,7.12H213.54a7.12,7.12,0,0,1-7.12-7.12V227.5A0,0,0,0,1,206.42,227.5Z" fill="#474747"/><path id="dbe35c6b-4371-4a44-a69d-33f69f7038b7" data-name="&lt;Path&gt;" d="M218.24,227.5a10.88,10.88,0,0,0-.12,1.55c0,7.44,7.56,13.48,16.88,13.48s16.88-6,16.88-13.48a10.9,10.9,0,0,0-.12-1.55H218.24Z" fill="#515151"/><path id="9ffa62cf-05c5-4658-8d63-4cbf39fde9be" data-name="&lt;Rectangle&gt;" d="M223.4,221.64H246.6a0.46,0.46,0,0,1,.46.46v4.07A10.83,10.83,0,0,1,236.23,237h-2.46a10.83,10.83,0,0,1-10.83-10.83V222.1a0.46,0.46,0,0,1,.46-0.46Z" fill="#febd86"/><path id="f3f5efa3-30c9-4786-8ff5-e7637cfae02a" data-name="&lt;Rectangle&gt;" d="M227.59,157h14.82a20,20,0,0,1,20,20v23.3A23.76,23.76,0,0,1,238.61,224h-7.21a23.76,23.76,0,0,1-23.76-23.76V177a20,20,0,0,1,20-20Z" fill="#feccae"/><path id="9ca80bd6-71a0-47fc-b017-5724b607865a" data-name="&lt;Path&gt;" d="M242.87,155.44H227.13a19.5,19.5,0,0,0-19.5,19.5v25.31a5.64,5.64,0,0,0,5.64-5.64V180.71a2.85,2.85,0,0,1,4-2.61L228.61,183a16.1,16.1,0,0,0,12.78,0l11.35-4.91a2.85,2.85,0,0,1,4,2.61V194.6a5.64,5.64,0,0,0,5.64,5.64V174.93A19.5,19.5,0,0,0,242.87,155.44Z" fill="#735448"/><circle id="d9d911de-62d0-4a77-a3f6-f4fd7c3d295d" data-name="&lt;Path&gt;" cx="224.55" cy="197" r="2.48" fill="#5b5b5b"/><circle id="f6c4992d-7c49-4c9d-9b72-84a848a6a469" data-name="&lt;Path&gt;" cx="244.55" cy="197" r="2.48" fill="#5b5b5b"/><ellipse id="4b4cd07d-dd8b-4331-9c13-3af379854f6f" data-name="&lt;Path&gt;" cx="249.69" cy="202.58" rx="1.43" ry="3.38" transform="translate(-20.82 376.4) rotate(-71.78)" fill="#f9bfa2"/><ellipse id="01a077bd-685a-4adb-a1a9-e24c166c9657" data-name="&lt;Path&gt;" cx="220.78" cy="202.58" rx="3.38" ry="1.43" transform="translate(-52.28 79.21) rotate(-18.22)" fill="#f9bfa2"/><path id="88e2ee79-e9b6-4434-8ef1-eec0df58adfe" data-name="&lt;Path&gt;" d="M242.87,155.44H227.13a19.5,19.5,0,0,0-19.5,19.5v25.31a5.64,5.64,0,0,0,5.64-5.64V180.71a2.85,2.85,0,0,1,4-2.61L228.61,183a16.1,16.1,0,0,0,12.78,0l11.35-4.91a2.85,2.85,0,0,1,4,2.61V194.6a5.64,5.64,0,0,0,5.64,5.64V174.93A19.5,19.5,0,0,0,242.87,155.44Z" fill="#473d3a"/><path id="759eca0f-2878-4c81-a24b-1810c199c108" data-name="&lt;Path&gt;" d="M214.51,172a1,1,0,0,1-.92-1.39,16.72,16.72,0,0,1,8.8-8.81,1,1,0,1,1,.78,1.84,14.7,14.7,0,0,0-7.74,7.74A1,1,0,0,1,214.51,172Z" fill="#ededed" opacity="0.1"/><path id="eed1b4e1-c23a-428d-b1f6-35658f11a4b3" data-name="&lt;Path&gt;" d="M238.08,212.79h-6.16a7.37,7.37,0,0,1-7.07-5.27,1.62,1.62,0,0,1,1.53-2.1h17.25a1.59,1.59,0,0,1,1.56,2A7.37,7.37,0,0,1,238.08,212.79Z" fill="#fff"/><path id="78ba7170-5d3c-4d8c-9bff-da9abf50204b" data-name="&lt;Path&gt;" d="M239.53,209.47H230.4a0.54,0.54,0,1,1,0-1.08h9.13A0.54,0.54,0,1,1,239.53,209.47Z" fill="#ededed"/></g></svg>