<?xml version="1.0" encoding="UTF-8" standalone="no"?>
<svg width="30px" height="39px" viewBox="0 0 30 39" version="1.1" xmlns="http://www.w3.org/2000/svg" xmlns:xlink="http://www.w3.org/1999/xlink">
    <!-- Generator: Sketch 39.1 (31720) - http://www.bohemiancoding.com/sketch -->
    <title>contact-icon</title>
    <desc>Created with Sketch.</desc>
    <defs></defs>
    <g id="Page-1" stroke="none" stroke-width="1" fill="none" fill-rule="evenodd">
        <g id="contact-icon" transform="translate(0.715000, 7.057606)" fill="#FFFFFF">
            <path d="M2.23319937,18.9118292 C2.23319937,20.0220533 3.12806259,20.9191951 4.22991425,20.9191951 L24.3400854,20.9191951 C25.4350857,20.9191951 26.3368003,20.0168503 26.3368003,18.9118292 L26.3368003,4.07056115 C26.3368003,2.96033705 25.4419371,2.0631953 24.3400854,2.0631953 L4.22991425,2.0631953 C3.13491399,2.0631953 2.23319937,2.96554003 2.23319937,4.07056115 L2.23319937,18.9118292 Z M4.22991425,0.063195299 L24.3400854,0.063195299 C26.5474101,0.063195299 28.3368003,1.85666726 28.3368003,4.07056115 L28.3368003,18.9118292 C28.3368003,21.1250362 26.5360418,22.9191951 24.3400854,22.9191951 L4.22991425,22.9191951 C2.02258957,22.9191951 0.233199366,21.1257231 0.233199366,18.9118292 L0.233199366,4.07056115 C0.233199366,1.8573541 2.03395792,0.063195299 4.22991425,0.063195299 Z" id="Rectangle-5"></path>
            <g id="Group" transform="translate(5.856800, 6.000000)">
                <path d="M9.29987287,5.95844535 C8.83371934,6.35475616 8.02289197,6.35493594 7.55652697,5.95844535 L1.99331442,1.22875633 C1.57254273,0.8710279 0.941443685,0.922134568 0.58371526,1.34290626 C0.225986835,1.76367796 0.277093502,2.394777 0.697865196,2.75250542 L6.26107775,7.48219445 C7.47449471,8.5138079 9.38240271,8.51338487 10.5953221,7.48219445 L16.1585346,2.75250542 C16.5793063,2.394777 16.630413,1.76367796 16.2726846,1.34290626 C15.9149562,0.922134568 15.2838571,0.8710279 14.8630854,1.22875633 L9.29987287,5.95844535 Z" id="Rectangle-6"></path>
                <path d="M1.28353096,7.61742746 C0.921962228,8.0349038 0.967284306,8.66644462 1.38476065,9.02801335 C1.802237,9.38958207 2.43377781,9.34426 2.79534654,8.92678365 L4.85868184,6.54440483 C5.22025057,6.12692849 5.17492849,5.49538767 4.75745215,5.13381894 C4.3399758,4.77225021 3.70843499,4.81757229 3.34686626,5.23504864 L1.28353096,7.61742746 Z" id="Path-5"></path>
                <path d="M13.9585804,8.92678365 C14.3201492,9.34426 14.95169,9.38958207 15.3691663,9.02801335 C15.7866427,8.66644462 15.8319647,8.0349038 15.470396,7.61742746 L13.4070607,5.23504864 C13.045492,4.81757229 12.4139512,4.77225021 11.9964748,5.13381894 C11.5789985,5.49538767 11.5336764,6.12692849 11.8952451,6.54440483 L13.9585804,8.92678365 Z" id="Path-5-Copy"></path>
            </g>
        </g>
    </g>
</svg>