<?xml version="1.0" encoding="UTF-8" standalone="no"?>
<svg width="237px" height="24px" viewBox="0 0 237 24" version="1.1" xmlns="http://www.w3.org/2000/svg" xmlns:xlink="http://www.w3.org/1999/xlink">
    <!-- Generator: Sketch 39.1 (31720) - http://www.bohemiancoding.com/sketch -->
    <title>logo</title>
    <desc>Created with Sketch.</desc>
    <defs></defs>
    <g id="Page-1" stroke="none" stroke-width="1" fill="none" fill-rule="evenodd">
        <g id="Desktop-HD---Home-Copy" transform="translate(-600.000000, -32.000000)" fill="#FFFFFF">
            <path d="M608.544,46.2880014 L608.544,32.9040014 L613.332,32.9040014 L613.332,46.2880014 C613.332,48.3226782 612.720673,49.909329 611.498,51.0480014 C610.275327,52.1866737 608.71201,52.7560014 606.808,52.7560014 C604.90399,52.7560014 603.345339,52.1913404 602.132,51.0620014 C600.918661,49.9326624 600.312,48.341345 600.312,46.2880014 L605.072,46.2880014 C605.090667,47.0346718 605.258665,47.5853329 605.576,47.9400014 C605.893335,48.2946698 606.303997,48.4720014 606.808,48.4720014 C607.312003,48.4720014 607.727332,48.2946698 608.054,47.9400014 C608.380668,47.5853329 608.544,47.0346718 608.544,46.2880014 L608.544,46.2880014 Z M634.344,42.6760014 C634.344,40.9586595 633.872671,39.5866732 632.93,38.5600014 C631.987329,37.5333296 630.727341,37.0200014 629.15,37.0200014 C627.572659,37.0200014 626.312671,37.5333296 625.37,38.5600014 C624.427329,39.5866732 623.956,40.9586595 623.956,42.6760014 C623.956,44.3933433 624.427329,45.7653296 625.37,46.7920014 C626.312671,47.8186732 627.572659,48.3320014 629.15,48.3320014 C630.727341,48.3320014 631.987329,47.8186732 632.93,46.7920014 C633.872671,45.7653296 634.344,44.3933433 634.344,42.6760014 L634.344,42.6760014 Z M619.084,42.6760014 C619.084,39.7639868 620.059324,37.3606775 622.01,35.4660014 C623.960676,33.5713252 626.349986,32.6240014 629.178,32.6240014 C632.006014,32.6240014 634.38599,33.5713252 636.318,35.4660014 C638.25001,37.3606775 639.216,39.7639868 639.216,42.6760014 C639.216,45.5880159 638.245343,47.9959919 636.304,49.9000014 C634.362657,51.8040109 631.982681,52.7560014 629.164,52.7560014 C626.345319,52.7560014 623.960676,51.8040109 622.01,49.9000014 C620.059324,47.9959919 619.084,45.5880159 619.084,42.6760014 L619.084,42.6760014 Z M656.784,52.5600014 L655.692,49.2560014 L648.636,49.2560014 L647.544,52.5600014 L642.448,52.5600014 L649.28,32.8480014 L655.104,32.8480014 L661.908,52.5600014 L656.784,52.5600014 Z M649.84,45.6160014 L654.488,45.6160014 L652.164,38.6160014 L649.84,45.6160014 Z M675.192,52.7560014 C672.373319,52.7560014 669.988676,51.8040109 668.038,49.9000014 C666.087324,47.9959919 665.112,45.5880159 665.112,42.6760014 C665.112,39.7639868 666.087324,37.3606775 668.038,35.4660014 C669.988676,33.5713252 672.377986,32.6240014 675.206,32.6240014 C678.034014,32.6240014 680.41399,33.5713252 682.346,35.4660014 C684.27801,37.3606775 685.244,39.7639868 685.244,42.6760014 C685.244,44.3186763 684.91267,45.8259945 684.25,47.1980014 C683.58733,48.5700082 682.677339,49.7133301 681.52,50.6280014 L685.524,55.7800014 L679.728,55.7800014 L677.348,52.5320014 C676.60133,52.6813355 675.88267,52.7560014 675.192,52.7560014 L675.192,52.7560014 Z M669.984,42.6760014 C669.984,44.3933433 670.455329,45.7653296 671.398,46.7920014 C672.340671,47.8186732 673.600659,48.3320014 675.178,48.3320014 C676.755341,48.3320014 678.015329,47.8186732 678.958,46.7920014 C679.900671,45.7653296 680.372,44.3933433 680.372,42.6760014 C680.372,40.9586595 679.900671,39.5866732 678.958,38.5600014 C678.015329,37.5333296 676.755341,37.0200014 675.178,37.0200014 C673.600659,37.0200014 672.340671,37.5333296 671.398,38.5600014 C670.455329,39.5866732 669.984,40.9586595 669.984,42.6760014 L669.984,42.6760014 Z M690.408,44.6360014 L690.408,32.9040014 L695.196,32.9040014 L695.196,44.6360014 C695.196,45.8120073 695.48533,46.7173315 696.064,47.3520014 C696.64267,47.9866712 697.491994,48.3040014 698.612,48.3040014 C699.732006,48.3040014 700.590664,47.9866712 701.188,47.3520014 C701.785336,46.7173315 702.084,45.8120073 702.084,44.6360014 L702.084,32.9040014 L706.872,32.9040014 L706.872,44.6360014 C706.872,46.3720101 706.466004,47.8699951 705.654,49.1300014 C704.841996,50.3900077 703.81534,51.3093318 702.574,51.8880014 C701.33266,52.4666709 699.984007,52.7560014 698.528,52.7560014 C696.250655,52.7560014 694.328008,52.0466751 692.76,50.6280014 C691.191992,49.2093276 690.408,47.2120143 690.408,44.6360014 L690.408,44.6360014 Z M712.96,52.5600014 L712.96,32.9040014 L717.748,32.9040014 L717.748,52.5600014 L712.96,52.5600014 Z M736.744,32.8480014 L741.532,32.8480014 L741.532,52.5600014 L736.744,52.5600014 L728.736,40.1560014 L728.736,52.5600014 L723.948,52.5600014 L723.948,32.8480014 L728.736,32.8480014 L736.744,45.2520014 L736.744,32.8480014 Z M758.132,32.9040014 L762.92,32.9040014 L762.92,48.9200014 L768.884,48.9200014 L768.884,52.5600014 L758.132,52.5600014 L758.132,32.9040014 Z M773.544,32.9040014 L778.332,32.9040014 L778.332,48.9200014 L784.296,48.9200014 L784.296,52.5600014 L773.544,52.5600014 L773.544,32.9040014 Z M788.872,44.6360014 L788.872,32.9040014 L793.66,32.9040014 L793.66,44.6360014 C793.66,45.8120073 793.94933,46.7173315 794.528,47.3520014 C795.10667,47.9866712 795.955994,48.3040014 797.076,48.3040014 C798.196006,48.3040014 799.054664,47.9866712 799.652,47.3520014 C800.249336,46.7173315 800.548,45.8120073 800.548,44.6360014 L800.548,32.9040014 L805.336,32.9040014 L805.336,44.6360014 C805.336,46.3720101 804.930004,47.8699951 804.118,49.1300014 C803.305996,50.3900077 802.27934,51.3093318 801.038,51.8880014 C799.79666,52.4666709 798.448007,52.7560014 796.992,52.7560014 C794.714655,52.7560014 792.792008,52.0466751 791.224,50.6280014 C789.655992,49.2093276 788.872,47.2120143 788.872,44.6360014 L788.872,44.6360014 Z M811.424,52.5600014 L811.424,32.9040014 L816.212,32.9040014 L816.212,52.5600014 L811.424,52.5600014 Z M827.606,36.8800014 C827.223331,37.1973363 827.032,37.6546651 827.032,38.2520014 C827.032,38.8493377 827.209332,39.3299996 827.564,39.6940014 C827.918668,40.0580032 828.380664,40.3380004 828.95,40.5340014 C829.519336,40.7300024 830.153996,40.9166672 830.854,41.0940014 C831.554004,41.2713356 832.24933,41.4860001 832.94,41.7380014 C833.63067,41.9900026 834.260664,42.3026662 834.83,42.6760014 C835.399336,43.0493366 835.861332,43.5766646 836.216,44.2580014 C836.570668,44.9393381 836.748,45.7559966 836.748,46.7080014 C836.748,48.369343 836.07134,49.7926621 834.718,50.9780014 C833.36466,52.1633406 831.582011,52.7560014 829.37,52.7560014 C827.157989,52.7560014 825.37534,52.2240067 824.022,51.1600014 C822.66866,50.0959961 821.992,48.5840112 821.992,46.6240014 L827.088,46.6240014 C827.218667,48.1920092 828.021326,48.9760014 829.496,48.9760014 C830.18667,48.9760014 830.727998,48.7940032 831.12,48.4300014 C831.512002,48.0659996 831.708,47.6040042 831.708,47.0440014 C831.708,46.4839986 831.530668,46.0266698 831.176,45.6720014 C830.821332,45.3173329 830.359336,45.0373357 829.79,44.8320014 C829.220664,44.626667 828.586004,44.4353356 827.886,44.2580014 C827.185996,44.0806672 826.49067,43.861336 825.8,43.6000014 C825.10933,43.3386667 824.479336,43.0260032 823.91,42.6620014 C823.340664,42.2979996 822.878668,41.7753381 822.524,41.0940014 C822.169332,40.4126646 821.992,39.6053394 821.992,38.6720014 C821.992,36.8426589 822.673327,35.3773402 824.036,34.2760014 C825.398673,33.1746625 827.139323,32.6240014 829.258,32.6240014 C831.376677,32.6240014 833.089327,33.1046632 834.396,34.0660014 C835.702673,35.0273395 836.384,36.543991 836.44,38.6160014 L831.232,38.6160014 C831.157333,37.9066645 830.928669,37.36067 830.546,36.9780014 C830.163331,36.5953328 829.673336,36.4040014 829.076,36.4040014 C828.478664,36.4040014 827.988669,36.5626665 827.606,36.8800014 L827.606,36.8800014 Z" id="logo"></path>
        </g>
    </g>
</svg>