<svg id="Layer_1" data-name="Layer 1" xmlns="http://www.w3.org/2000/svg" viewBox="0 0 112.2572 112.2572">
  <title>contact-me</title>
  <circle cx="56.1286" cy="56.1286" r="56.1286" style="opacity: 0.05"/>
  <g>
    <path id="_Path_" data-name="&lt;Path&gt;" d="M55.73,98.7227h-.0949c-8.5938,0-14.147-3.2438-19.0414-10.0417-3.52-4.8891-6.6145-9.9018-5.5189-16.5732l-1.0956-21.8C28.8836,34.36,40.8607,21.4325,55.6352,21.4325H55.73c14.7745,0,26.7515,12.9279,25.6559,28.8752l-1.0956,21.8c1.0956,6.6713-1.9989,11.6841-5.5189,16.5732C69.877,95.479,64.3238,98.7227,55.73,98.7227Z" style="fill: #feccae"/>
    <path d="M69.7834,90.2441l8.74-6.5738,1.0956-16.69h0a9.8358,9.8358,0,0,0-9.8358,9.8358Z" style="fill: #f9bfa2"/>
    <path d="M41.6229,90.2107l-8.74-6.5738-1.0956-16.69h0a9.8358,9.8358,0,0,1,9.8358,9.8358Z" style="fill: #f9bfa2"/>
    <polygon points="69.783 57.104 41.385 57.104 38.788 51.832 72.371 51.832 69.783 57.104" style="fill: #f9bfa2"/>
    <path d="M78.6567,72.03a14.4751,14.4751,0,0,1-3.1473,9.414c-2.3638,3.0732-5.2947,5.6069-6.3861,1.6021l-1.6663-6.7822c-.8784-2.59-2.814-4.0546-6.0211-3.8873l-5.7535.0815-5.7535-.0815c-3.2071-.1672-5.298,1.2971-6.1763,3.8873l-1.5561,6.59c-1.2166,5.4018-3.9094,1.3931-6.341-1.41-3.1424-3.6227-3.39-6.052-3.1474-9.414H29.9792v1.4164c0,6.9415,3.1861,12.1575,6.7829,17.2446,4.8028,6.7928,10.2356,10.008,18.4357,10.4376v.0422c.1651,0,.3218-.0167.4848-.0211.163.0045.32.0207.4848.0211v-.0422c8.2-.43,13.6329-3.6449,18.4357-10.4376C78.2,85.604,81.3859,80.388,81.3859,73.4465V72.03Z" style="fill: #3a3a3a"/>
    <path id="_Path_2" data-name="&lt;Path&gt;" d="M38.8253,63.5742c.15.9563,1.9294,1.4131,3.9749,1.02s3.5823-1.4863,3.4326-2.4426-1.9294-1.4131-3.9749-1.02S38.6756,62.6179,38.8253,63.5742Z" style="fill: #f7afa4"/>
    <path id="_Path_3" data-name="&lt;Path&gt;" d="M71.8044,63.5742c-.15.9563-1.9294,1.4131-3.9749,1.02s-3.5823-1.4863-3.4326-2.4426,1.9294-1.4131,3.9749-1.02S71.9542,62.6179,71.8044,63.5742Z" style="fill: #f7afa4"/>
    <path d="M83.772,54.2654H81.38V65.8848h1.364c2.0522,0,3.8188-2.0674,4.22-4.9387l.1267-.9062C87.5092,57.052,85.9074,54.2654,83.772,54.2654Z" style="fill: #f9bfa2"/>
    <path d="M27.5875,54.2654h2.3918V65.8848h-1.364c-2.0522,0-3.8188-2.0674-4.22-4.9387l-.1267-.9062C23.85,57.052,25.4521,54.2654,27.5875,54.2654Z" style="fill: #f9bfa2"/>
    <path d="M42.8414,27.7378a8.97,8.97,0,0,1-5.8247-11.12h0a8.66,8.66,0,0,1,10.8294-5.9811Z" style="fill: #424242"/>
    <g>
      <path id="_Path_4" data-name="&lt;Path&gt;" d="M63.387,15.8844H47.9725c-10.5457,0-19.0946,9.939-19.0946,22.1993V35.9074l1.0956,20.13h3.6272L34.4027,37.71c0-2.3319,2.0542-3.9011,3.8952-2.9756l11.1214,5.5909a13.7636,13.7636,0,0,0,12.521,0L73.0616,34.734c1.841-.9255,3.8952.6437,3.8952,2.9756l.8957,18.3274h3.5334L82.4815,38.226V35.765C82.4815,23.5047,73.9326,15.8844,63.387,15.8844Z" style="fill: #3a3a3a"/>
      <polygon points="81.386 72.785 78.657 72.03 77.852 56.037 81.386 55.254 81.386 72.785" style="fill: #3a3a3a"/>
      <polygon points="29.974 72.283 32.708 72.03 33.601 56.037 29.91 55.035 29.974 72.283" style="fill: #3a3a3a"/>
    </g>
    <path d="M40.3294,9.0352,40.3531,22.82a6.2973,6.2973,0,0,0,1.8262,4.4376L56.73,41.831h-16.4c-7.3385,0-13.2876-6.3635-13.2876-14.2132V23.2484C27.0418,15.3987,32.9908,9.0352,40.3294,9.0352Z" style="fill: #3a3a3a"/>
    <path d="M55.5914,72.2827h0a3.2456,3.2456,0,0,1-3.0466-3.2571L51.8529,55.549A3.3015,3.3015,0,0,1,54.8995,51.89h1.3839A3.3015,3.3015,0,0,1,59.33,55.549L58.638,69.0256A3.2456,3.2456,0,0,1,55.5914,72.2827Z" style="fill: #efb49a"/>
    <rect x="50.1889" y="67.9983" width="7.803" height="4.2844" rx="1.9102" ry="1.9102" style="fill: #efb49a"/>
    <rect x="61.6488" y="50.7254" width="10.7222" height="2.536" rx="1.107" ry="1.107" transform="translate(11.6962 -12.3031) rotate(11.4868)" style="fill: #3a3a3a"/>
    <rect x="38.6232" y="51.0675" width="10.8893" height="2.536" rx="1.1156" ry="1.1156" transform="translate(14.3574 -9.2946) rotate(14.3606)" style="fill: #3a3a3a"/>
    <path id="_Path_5" data-name="&lt;Path&gt;" d="M69.7834,57.0483c0-1.17-6.0658-1.17-6.0658,0s1.3579,2.1179,3.0329,2.1179S69.7834,58.218,69.7834,57.0483Z" style="fill: #3a3a3a"/>
    <path id="_Path_6" data-name="&lt;Path&gt;" d="M47.4512,57.0483c0-1.17-6.0658-1.17-6.0658,0s1.3579,2.1179,3.0329,2.1179S47.4512,58.218,47.4512,57.0483Z" style="fill: #3a3a3a"/>
    <path d="M53.0689,36.4511H47.4516c-5.05,0-8.9116-1.4765-11.4784-4.3889-4.1418-4.7-3.35-11.3682-3.3147-11.6507a.8144.8144,0,0,1,.918-.7115.8231.8231,0,0,1,.7126.918c-.0075.061-.7265,6.2324,2.9252,10.3667,2.2415,2.5368,5.6857,3.8229,10.2373,3.8229h5.6172a.8217.8217,0,1,1,0,1.6434Z" style="fill: #494949"/>
    <path d="M55.3618,30.8788c-8.5446,0-12.421-.2867-14.7546-7.0991a.8222.8222,0,0,1,1.5557-.5328c1.9569,5.7157,4.7292,5.9885,13.1989,5.9885a.8217.8217,0,1,1,0,1.6434Z" style="fill: #424242"/>
    <path d="M49.9307,93.83a2.5425,2.5425,0,0,1-2.539-2.539.5478.5478,0,1,1,1.0956,0,1.4428,1.4428,0,1,0,2.8857,0,.5478.5478,0,1,1,1.0956,0A2.5416,2.5416,0,0,1,49.9307,93.83Z" style="fill: #424242"/>
    <path d="M55.3179,95.2362a3.9494,3.9494,0,0,1-3.9449-3.9449.5478.5478,0,1,1,1.0956,0,2.8493,2.8493,0,0,0,5.6985,0,.5478.5478,0,1,1,1.0956,0A3.9494,3.9494,0,0,1,55.3179,95.2362Z" style="fill: #424242"/>
    <g>
      <path d="M57.8761,80.3575H52.7629a2.1913,2.1913,0,1,1,0-4.3825h5.1133a2.1913,2.1913,0,0,1,0,4.3825Z" style="fill: #feccae"/>
      <path d="M57.8761,79.0426H52.7629a.8763.8763,0,1,1,0-1.7526h5.1133a.8763.8763,0,1,1,0,1.7526Z" style="fill: #eaa688"/>
    </g>
  </g>
</svg>
