<?xml version="1.0" encoding="UTF-8" standalone="no"?>
<svg width="47px" height="21px" viewBox="0 0 47 21" version="1.1" xmlns="http://www.w3.org/2000/svg" xmlns:xlink="http://www.w3.org/1999/xlink">
    <!-- Generator: Sketch 39.1 (31720) - http://www.bohemiancoding.com/sketch -->
    <title>logo_mobile</title>
    <desc>Created with Sketch.</desc>
    <defs></defs>
    <g id="Page-1" stroke="none" stroke-width="1" fill="none" fill-rule="evenodd">
        <g id="Tablet-Home-Copy" transform="translate(-155.000000, -32.000000)" fill="#FFFFFF">
            <path d="M164.044,46.2880014 L164.044,32.9040014 L168.832,32.9040014 L168.832,46.2880014 C168.832,48.3226782 168.220673,49.909329 166.998,51.0480014 C165.775327,52.1866737 164.21201,52.7560014 162.308,52.7560014 C160.40399,52.7560014 158.845339,52.1913404 157.632,51.0620014 C156.418661,49.9326624 155.812,48.341345 155.812,46.2880014 L160.572,46.2880014 C160.590667,47.0346718 160.758665,47.5853329 161.076,47.9400014 C161.393335,48.2946698 161.803997,48.4720014 162.308,48.4720014 C162.812003,48.4720014 163.227332,48.2946698 163.554,47.9400014 C163.880668,47.5853329 164.044,47.0346718 164.044,46.2880014 L164.044,46.2880014 Z M175.732,32.9040014 L180.52,32.9040014 L180.52,48.9200014 L186.484,48.9200014 L186.484,52.5600014 L175.732,52.5600014 L175.732,32.9040014 Z M191.144,32.9040014 L195.932,32.9040014 L195.932,48.9200014 L201.896,48.9200014 L201.896,52.5600014 L191.144,52.5600014 L191.144,32.9040014 Z" id="logo_mobile"></path>
        </g>
    </g>
</svg>