<?xml version="1.0" encoding="UTF-8" standalone="no"?>
  <svg width="238px" height="26px" viewBox="0 0 238 26" version="1.1" xmlns="http://www.w3.org/2000/svg" xmlns:xlink="http://www.w3.org/1999/xlink">
    <title>Joaquín Lluis</title>
    <desc>Joaquín Lluis - Website</desc>

    <g id="Page-1" stroke="none" stroke-width="1" fill="none" fill-rule="evenodd">
      <g id="Artboard" fill="#FFFFFF">

        <!-- NAME -->

        <!-- J -->
        <path class="j" d="M9.232,15.664 L9.232,2.28 L14.02,2.28 L14.02,15.664 C14.02,17.6986768 13.408673,19.2853276 12.186,20.424 C10.963327,21.5626723 9.40001,22.132 7.496,22.132 C5.59199,22.132 4.033339,21.567339 2.82,20.438 C1.606661,19.308661 1,17.7173436 1,15.664 L5.76,15.664 C5.778667,16.4106704 5.946665,16.9613315 6.264,17.316 C6.581335,17.6706684 6.991997,17.848 7.496,17.848 C8.000003,17.848 8.415332,17.6706684 8.742,17.316 C9.068668,16.9613315 9.232,16.4106704 9.232,15.664 L9.232,15.664 L9.232,15.664 Z" id="J"></path>

        <!-- REST NAME -->
        <defs>
          <clipPath class="rest-name" id="mask-name">
            <rect x="18" y="0" width="0" height="100" />
          </clipPath>
        </defs>

        <g class="rest-name" clip-path="mask-name">
          <path d="M19.772,12.052 C19.772,9.1399854 20.747324,6.7366761 22.698,4.842 C24.648676,2.9473238 27.037986,2 29.866,2 C32.694014,2 35.07399,2.9473238 37.006,4.842 C38.93801,6.7366761 39.904,9.1399854 39.904,12.052 C39.904,14.9640145 38.933343,17.3719905 36.992,19.276 C35.050657,21.1800095 32.670681,22.132 29.852,22.132 C27.033319,22.132 24.648676,21.1800095 22.698,19.276 C20.747324,17.3719905 19.772,14.9640145 19.772,12.052 Z M35.032,12.052 C35.032,10.3346581 34.560671,8.9626718 33.618,7.936 C32.675329,6.9093282 31.415341,6.396 29.838,6.396 C28.260659,6.396 27.000671,6.9093282 26.058,7.936 C25.115329,8.9626718 24.644,10.3346581 24.644,12.052 C24.644,13.7693419 25.115329,15.1413282 26.058,16.168 C27.000671,17.1946718 28.260659,17.708 29.838,17.708 C31.415341,17.708 32.675329,17.1946718 33.618,16.168 C34.560671,15.1413282 35.032,13.7693419 35.032,12.052 Z" id="O"></path>

          <path d="M57.472,21.936 L56.38,18.632 L49.324,18.632 L48.232,21.936 L43.136,21.936 L49.968,2.224 L55.792,2.224 L62.596,21.936 L57.472,21.936 Z M50.528,14.992 L55.176,14.992 L52.852,7.992 L50.528,14.992 Z" id="A"></path>

          <path d="M75.88,22.132 C73.061319,22.132 70.676676,21.1800095 68.726,19.276 C66.775324,17.3719905 65.8,14.9640145 65.8,12.052 C65.8,9.1399854 66.775324,6.7366761 68.726,4.842 C70.676676,2.9473238 73.065986,2 75.894,2 C78.722014,2 81.10199,2.9473238 83.034,4.842 C84.96601,6.7366761 85.932,9.1399854 85.932,12.052 C85.932,13.6946749 85.60067,15.2019931 84.938,16.574 C84.27533,17.9460068 83.365339,19.0893287 82.208,20.004 L86.212,25.156 L80.416,25.156 L78.036,21.908 C77.28933,22.0573341 76.57067,22.132 75.88,22.132 Z M70.672,12.052 C70.672,13.7693419 71.143329,15.1413282 72.086,16.168 C73.028671,17.1946718 74.288659,17.708 75.866,17.708 C77.443341,17.708 78.703329,17.1946718 79.646,16.168 C80.588671,15.1413282 81.06,13.7693419 81.06,12.052 C81.06,10.3346581 80.588671,8.9626718 79.646,7.936 C78.703329,6.9093282 77.443341,6.396 75.866,6.396 C74.288659,6.396 73.028671,6.9093282 72.086,7.936 C71.143329,8.9626718 70.672,10.3346581 70.672,12.052 Z" id="Q"></path>

          <path d="M91.096,14.012 L91.096,2.28 L95.884,2.28 L95.884,14.012 C95.884,15.1880059 96.17333,16.0933301 96.752,16.728 C97.33067,17.3626698 98.179994,17.68 99.3,17.68 C100.420006,17.68 101.278664,17.3626698 101.876,16.728 C102.473336,16.0933301 102.772,15.1880059 102.772,14.012 L102.772,2.28 L107.56,2.28 L107.56,14.012 C107.56,15.7480087 107.154004,17.2459937 106.342,18.506 C105.529996,19.7660063 104.50334,20.6853304 103.262,21.264 C102.02066,21.8426695 100.672007,22.132 99.216,22.132 C96.938655,22.132 95.016008,21.4226737 93.448,20.004 C91.879992,18.5853262 91.096,16.5880129 91.096,14.012 L91.096,14.012 L91.096,14.012 Z" id="U1"></path>

          <polygon id="I1" points="113.648 21.936 113.648 2.28 118.436 2.28 118.436 21.936"></polygon>

          <polygon id="N" points="137.432 2.224 142.22 2.224 142.22 21.936 137.432 21.936 129.424 9.532 129.424 21.936 124.636 21.936 124.636 2.224 129.424 2.224 137.432 14.628"></polygon>
        </g>

        <!-- LASTNAME -->

        <!-- L1 -->
        <polygon class="l1" id="L1" points="158.82 2.28 163.608 2.28 163.608 18.296 169.572 18.296 169.572 21.936 158.82 21.936"></polygon>
        <!-- L2 -->
        <polygon class="l2" id="L2" points="174.232 2.28 179.02 2.28 179.02 18.296 184.984 18.296 184.984 21.936 174.232 21.936"></polygon>

        <!-- REST LASTNAME -->
        <defs>
          <clipPath class="rest-lastname" id="mask-lastname">
            <rect x="188" y="0" width="0" height="100" />
          </clipPath>
        </defs>

        <g class="rest-lastname" clip-path="mask-lastname">
          <path d="M189.56,14.012 L189.56,2.28 L194.348,2.28 L194.348,14.012 C194.348,15.1880059 194.63733,16.0933301 195.216,16.728 C195.79467,17.3626698 196.643994,17.68 197.764,17.68 C198.884006,17.68 199.742664,17.3626698 200.34,16.728 C200.937336,16.0933301 201.236,15.1880059 201.236,14.012 L201.236,2.28 L206.024,2.28 L206.024,14.012 C206.024,15.7480087 205.618004,17.2459937 204.806,18.506 C203.993996,19.7660063 202.96734,20.6853304 201.726,21.264 C200.48466,21.8426695 199.136007,22.132 197.68,22.132 C195.402655,22.132 193.480008,21.4226737 191.912,20.004 C190.343992,18.5853262 189.56,16.5880129 189.56,14.012 L189.56,14.012 L189.56,14.012 Z" id="U2"></path>

          <polygon id="I2" points="212.112 21.936 212.112 2.28 216.9 2.28 216.9 21.936"></polygon>

          <path d="M228.294,6.256 C227.911331,6.5733349 227.72,7.0306637 227.72,7.628 C227.72,8.2253363 227.897332,8.7059982 228.252,9.07 C228.606668,9.4340018 229.068664,9.713999 229.638,9.91 C230.207336,10.106001 230.841996,10.2926658 231.542,10.47 C232.242004,10.6473342 232.93733,10.8619987 233.628,11.114 C234.31867,11.3660012 234.948664,11.6786648 235.518,12.052 C236.087336,12.4253352 236.549332,12.9526632 236.904,13.634 C237.258668,14.3153367 237.436,15.1319952 237.436,16.084 C237.436,17.7453416 236.75934,19.1686607 235.406,20.354 C234.05266,21.5393392 232.270011,22.132 230.058,22.132 C227.845989,22.132 226.06334,21.6000053 224.71,20.536 C223.35666,19.4719947 222.68,17.9600098 222.68,16 L227.776,16 C227.906667,17.5680078 228.709326,18.352 230.184,18.352 C230.87467,18.352 231.415998,18.1700018 231.808,17.806 C232.200002,17.4419982 232.396,16.9800028 232.396,16.42 C232.396,15.8599972 232.218668,15.4026684 231.864,15.048 C231.509332,14.6933315 231.047336,14.4133343 230.478,14.208 C229.908664,14.0026656 229.274004,13.8113342 228.574,13.634 C227.873996,13.4566658 227.17867,13.2373346 226.488,12.976 C225.79733,12.7146653 225.167336,12.4020018 224.598,12.038 C224.028664,11.6739982 223.566668,11.1513367 223.212,10.47 C222.857332,9.7886632 222.68,8.981338 222.68,8.048 C222.68,6.2186575 223.361327,4.7533388 224.724,3.652 C226.086673,2.5506611 227.827323,2 229.946,2 C232.064677,2 233.777327,2.4806618 235.084,3.442 C236.390673,4.4033381 237.072,5.9199896 237.128,7.992 L231.92,7.992 C231.845333,7.2826631 231.616669,6.7366686 231.234,6.354 C230.851331,5.9713314 230.361336,5.78 229.764,5.78 C229.166664,5.78 228.676669,5.9386651 228.294,6.256 L228.294,6.256 L228.294,6.256 Z" id="S"></path>
        </g>

      </g>
    </g>
  </svg>
