<?xml version="1.0" encoding="UTF-8"?>
<svg width="467px" height="385px" viewBox="0 0 467 385" version="1.1" xmlns="http://www.w3.org/2000/svg" xmlns:xlink="http://www.w3.org/1999/xlink">
    <!-- Generator: Sketch 46.2 (44496) - http://www.bohemiancoding.com/sketch -->
    <title>I’m än Øfficial Nērd</title>
    <desc>Created with Sketch.</desc>
    <defs></defs>
    <g id="Page-1" stroke="none" stroke-width="1" fill="none" fill-rule="evenodd">
        <g id="Resume-desktop" transform="translate(-523.000000, -1741.000000)" fill="#F0F0F0">
            <path d="M547.795,1847.865 L547.795,1744.915 L528.945,1744.915 L528.945,1847.865 L547.795,1847.865 Z M581.435,1759.27 C581.435,1753.325 576.36,1748.395 570.56,1748.395 C564.47,1748.395 559.54,1753.325 559.54,1759.27 C559.54,1764.345 563.31,1768.695 568.24,1769.71 L565.92,1781.165 L571.43,1781.165 L579.985,1764.49 C580.855,1762.895 581.435,1761.155 581.435,1759.27 Z M676.99,1776.235 C666.405,1776.38 659.59,1782.325 655.82,1790.59 C651.47,1781.745 643.495,1775.945 632.04,1775.945 C624.355,1776.525 618.7,1779.715 614.64,1784.5 L614.64,1778.12 L596.08,1778.12 L596.08,1847.865 L614.64,1847.865 L614.64,1808.715 C614.64,1797.115 622.035,1792.62 629.43,1792.62 C635.81,1792.62 641.465,1797.84 641.465,1807.265 L641.175,1847.865 L659.59,1847.865 L659.59,1808.715 C659.59,1798.42 666.985,1792.91 674.525,1792.91 C680.76,1792.91 687.72,1796.825 687.72,1807.41 L687.285,1847.865 L705.845,1847.865 L705.845,1808.57 C705.845,1790.445 695.26,1776.09 676.99,1776.235 Z M773.85,1764.78 C780.375,1764.78 785.74,1759.27 785.74,1752.89 C785.74,1746.365 780.23,1741 773.85,1741 C767.18,1741 761.815,1746.22 761.815,1752.89 C761.815,1759.415 767.18,1764.78 773.85,1764.78 Z M806.765,1764.78 C813.29,1764.78 818.655,1759.27 818.655,1752.89 C818.655,1746.365 813.145,1741 806.765,1741 C800.095,1741 794.73,1746.22 794.73,1752.89 C794.73,1759.415 800.095,1764.78 806.765,1764.78 Z M790.235,1776.09 C806.04,1775.945 820.105,1785.37 820.105,1803.205 L820.105,1848.735 L801.545,1848.735 L801.545,1843.225 C797.195,1846.995 791.395,1849.605 784.725,1849.605 C768.63,1849.605 757.465,1840.615 757.465,1827.13 C757.175,1818.865 761.235,1811.47 768.195,1807.12 C772.98,1804.22 779.215,1803.93 787.335,1803.785 L797.485,1803.785 C799.805,1803.785 801.69,1802.625 801.4,1800.015 C800.24,1794.36 795.6,1792.765 790.235,1792.475 C783.275,1792.185 777.185,1794.07 772.545,1801.61 L758.625,1793.78 C766.89,1779.715 778.635,1776.09 790.235,1776.09 Z M784.435,1833.8 C793.135,1834.235 800.675,1831.19 801.545,1821.62 L801.545,1817.705 C797.195,1817.85 791.975,1817.85 787.48,1817.85 C778.2,1817.85 773.995,1822.055 774.43,1827.13 C774.865,1832.06 779.36,1833.655 784.435,1833.8 Z M877.815,1775.945 C870.13,1775.8 862.445,1779.135 856.935,1786.385 L856.935,1778.265 L838.81,1778.265 L838.665,1847.865 L857.08,1847.865 L856.935,1810.6 C857.95,1796.68 867.955,1791.605 876.655,1792.62 C884.775,1793.345 891.155,1799.435 891.155,1812.485 L891.155,1847.865 L909.57,1847.865 L909.57,1811.47 C909.57,1783.34 893.33,1776.09 877.815,1775.945 Z M609.71,1900.385 C619.425,1910.1 625.225,1923.875 625.225,1939.68 C625.225,1970.71 603.33,1993.62 574.04,1993.62 C567.225,1993.62 560.845,1992.315 554.9,1989.85 L554.03,1991.3 L531.12,1991.3 L538.805,1978.975 C528.945,1969.26 523,1955.34 523,1939.68 C523,1909.085 544.895,1885.885 573.895,1885.885 C581.145,1885.885 588.105,1887.335 594.195,1889.945 L595.355,1888.205 L617.25,1888.205 L609.71,1900.385 Z M544.17,1939.68 C544.17,1947.945 546.345,1955.195 550.115,1960.85 L583.465,1907.345 C580.42,1906.475 577.375,1906.04 573.895,1906.04 C556.06,1906.04 544.17,1919.67 544.17,1939.68 Z M574.04,1973.465 C592.6,1973.465 604.055,1960.125 604.055,1939.68 C604.055,1931.415 602.17,1924.31 598.545,1918.8 L565.63,1972.305 C568.24,1973.03 571.14,1973.465 574.04,1973.465 Z M701.785,1913.29 L701.785,1921.265 L743.98,1921.265 L743.98,1990.865 L725.13,1990.865 L725.13,1936.78 L701.785,1936.78 C701.93,1959.11 701.93,1988.545 701.93,1990.865 L682.935,1990.865 C682.935,1988.69 682.935,1959.545 682.79,1936.78 L659.735,1936.78 C659.88,1959.11 659.88,1988.545 659.88,1990.865 L640.885,1990.865 C640.885,1988.69 640.885,1959.545 640.74,1936.78 L633.055,1936.78 L633.055,1921.265 L640.74,1921.265 L640.74,1911.55 C640.74,1892.7 656.98,1881.97 675.25,1886.755 L671.48,1904.445 C664.81,1902.56 659.735,1906.475 659.735,1913.29 L659.735,1921.265 L682.79,1921.265 L682.79,1911.55 C682.79,1892.7 699.03,1881.97 717.3,1886.755 L713.53,1904.445 C706.86,1902.56 701.785,1906.475 701.785,1913.29 Z M735.135,1909.52 C728.61,1909.52 723.1,1903.72 723.1,1897.63 C723.1,1891.25 728.61,1885.74 735.135,1885.74 C741.37,1885.74 746.735,1891.25 746.735,1897.63 C746.735,1903.72 741.37,1909.52 735.135,1909.52 Z M828.515,1940.695 C824.02,1927.5 811.115,1918.945 796.035,1918.945 C776.17,1918.945 759.64,1935.62 759.64,1956.21 C759.64,1976.8 776.17,1992.605 796.035,1992.605 C810.39,1992.605 822.28,1985.5 827.065,1973.465 L810.97,1966.94 C809.665,1970.565 805.605,1976.365 796.035,1976.365 C784,1976.365 778.345,1967.23 778.345,1956.21 C778.345,1945.19 784,1935.62 796.035,1935.62 C805.605,1935.62 809.81,1941.42 811.84,1946.785 L828.515,1940.695 Z M852.585,1909.52 C858.82,1909.52 864.185,1903.72 864.185,1897.63 C864.185,1891.25 858.82,1885.74 852.585,1885.74 C846.06,1885.74 840.55,1891.25 840.55,1897.63 C840.55,1903.72 846.06,1909.52 852.585,1909.52 Z M842.58,1921.265 L842.58,1990.865 L861.43,1990.865 L861.43,1921.265 L842.58,1921.265 Z M911.165,1919.09 C926.97,1918.945 941.035,1928.37 941.035,1946.205 L941.035,1991.735 L922.475,1991.735 L922.475,1986.225 C918.125,1989.995 912.325,1992.605 905.655,1992.605 C889.56,1992.605 878.395,1983.615 878.395,1970.13 C878.105,1961.865 882.165,1954.47 889.125,1950.12 C893.91,1947.22 900.145,1946.93 908.265,1946.785 L918.415,1946.785 C920.735,1946.785 922.62,1945.625 922.33,1943.015 C921.17,1937.36 916.53,1935.765 911.165,1935.475 C904.205,1935.185 898.115,1937.07 893.475,1944.61 L879.555,1936.78 C887.82,1922.715 899.565,1919.09 911.165,1919.09 Z M905.365,1976.8 C914.065,1977.235 921.605,1974.19 922.475,1964.62 L922.475,1960.705 C918.125,1960.85 912.905,1960.85 908.41,1960.85 C899.13,1960.85 894.925,1965.055 895.36,1970.13 C895.795,1975.06 900.29,1976.655 905.365,1976.8 Z M992.075,1990.865 L992.075,1973.755 L985.405,1973.61 C981.635,1973.61 978.735,1973.61 978.735,1968.39 L978.59,1887.915 L959.595,1887.915 L959.595,1971.29 C959.595,1982.6 964.235,1990.72 975.11,1990.72 L992.075,1990.865 Z M595.79,2019.915 L595.79,2090.82 L547.65,2019.915 L528.8,2019.915 L528.8,2122.865 L547.65,2122.865 L547.65,2051.96 L595.79,2122.865 L614.64,2122.865 L614.64,2019.915 L595.79,2019.915 Z M690.33,2019.915 L642.48,2019.915 L642.48,2036.445 L690.33,2036.445 L690.33,2019.915 Z M701.495,2088.21 L701.495,2095.17 L650.02,2095.17 C652.775,2102.13 659.01,2106.77 666.405,2106.77 C673.655,2106.77 679.31,2103.58 681.63,2098.505 L698.015,2104.74 C693.085,2117.065 680.76,2124.605 666.405,2124.605 C646.975,2124.605 631.17,2108.075 631.17,2087.775 C631.17,2067.475 646.975,2050.945 666.405,2050.945 C681.05,2050.945 693.52,2059.21 698.74,2072.26 C701.495,2079.365 701.495,2088.21 701.495,2088.21 Z M649.73,2081.395 L683.225,2081.395 C682.79,2078.64 680.325,2074.29 677.86,2072.405 C674.815,2069.94 670.9,2068.49 666.405,2068.49 C658.72,2068.49 652.195,2073.855 649.73,2081.395 Z M735.425,2061.24 L735.425,2053.265 L716.72,2053.265 L716.865,2122.865 L735.57,2122.865 L735.57,2088.645 C736.44,2075.595 745.575,2066.46 759.06,2070.23 L759.06,2053.265 C746.735,2052.54 739.05,2055.44 735.425,2061.24 Z M820.395,2019.915 L839.535,2019.915 L839.535,2122.865 L820.395,2122.865 L820.395,2115.47 C814.16,2122.285 805.605,2125.475 797.05,2125.33 C780.23,2125.185 763.265,2111.845 763.99,2086.76 C765.005,2062.98 780.955,2051.815 797.05,2050.8 C806.04,2050.22 814.305,2053.41 820.395,2059.355 L820.395,2019.915 Z M800.82,2109.09 C810.1,2109.09 819.38,2102.275 819.67,2088.645 C820.25,2074.435 810.535,2066.895 800.82,2067.04 C791.685,2067.185 782.55,2074 782.115,2087.92 C782.115,2102.13 791.395,2109.09 800.82,2109.09 Z" id="I’m-än-Øfficial-Nērd"></path>
        </g>
    </g>
</svg>