<?xml version="1.0" encoding="UTF-8" standalone="no"?>
<svg width="31px" height="39px" viewBox="0 0 31 39" version="1.1" xmlns="http://www.w3.org/2000/svg" xmlns:xlink="http://www.w3.org/1999/xlink">
    <!-- Generator: Sketch 39.1 (31720) - http://www.bohemiancoding.com/sketch -->
    <title>portfolio-icon</title>
    <desc>Created with Sketch.</desc>
    <defs></defs>
    <g id="Page-1" stroke="none" stroke-width="1" fill="none" fill-rule="evenodd">
        <g id="portfolio-icon" transform="translate(1.558806, 0.557005)" fill="#FFFFFF">
            <g id="Group-9" transform="translate(1.000000, 8.281250)">
                <path d="M3.81568788,8.18273348 C2.64071489,9.35770646 2.6407693,11.2621396 3.81568788,12.4370582 L7.38456395,16.0059343 C10.5076955,19.1290658 15.570524,19.1289713 18.693561,16.0059343 L22.2624371,12.4370582 C23.4374101,11.2620852 23.4373557,9.35765206 22.2624371,8.18273348 L18.693561,4.6138574 C15.5704295,1.49072585 10.507601,1.49082034 7.38456395,4.6138574 L3.81568788,8.18273348 Z M20.1077746,3.19964384 L23.6766507,6.76851991 C25.6324986,8.72436783 25.6327915,11.8951309 23.6766507,13.8512718 L20.1077746,17.4201478 C16.2038327,21.3240897 9.87467427,21.3244717 5.97035039,17.4201478 L2.40147432,13.8512718 C0.445626404,11.8954238 0.445333498,8.72466073 2.40147432,6.76851991 L5.97035039,3.19964384 C9.87429229,-0.704298057 16.2034507,-0.704680036 20.1077746,3.19964384 Z" id="Rectangle-3"></path>
                <path d="M17.59375,10.3098958 C17.59375,7.79441139 15.5545469,5.75520833 13.0390625,5.75520833 C10.5235781,5.75520833 8.484375,7.79441139 8.484375,10.3098958 C8.484375,12.8253803 10.5235781,14.8645833 13.0390625,14.8645833 C15.5545469,14.8645833 17.59375,12.8253803 17.59375,10.3098958 Z M10.484375,10.3098958 C10.484375,8.89898089 11.6281476,7.75520833 13.0390625,7.75520833 C14.4499774,7.75520833 15.59375,8.89898089 15.59375,10.3098958 C15.59375,11.7208108 14.4499774,12.8645833 13.0390625,12.8645833 C11.6281476,12.8645833 10.484375,11.7208108 10.484375,10.3098958 Z" id="Oval-6"></path>
            </g>
            <g id="Group-5" transform="translate(0.734375, 0.000000)">
                <g id="Group-8" transform="translate(0.751953, 0.000000)">
                    <path d="M13.6438802,1 C13.6438802,0.44771525 13.196165,2.22044605e-16 12.6438802,0 C12.0915955,-2.22044605e-16 11.6438802,0.44771525 11.6438802,1 L11.6438802,4.75976562 C11.6438802,5.31205037 12.0915955,5.75976562 12.6438802,5.75976562 C13.196165,5.75976562 13.6438802,5.31205037 13.6438802,4.75976562 L13.6438802,1 Z" id="Path-3"></path>
                    <path d="M24.1565349,6.58108915 C24.5153279,6.16122492 24.46582,5.52999845 24.0459557,5.17120538 C23.6260915,4.8124123 22.994865,4.86192026 22.636072,5.2817845 L20.6678284,7.58504819 C20.3090354,8.00491243 20.3585433,8.63613889 20.7784076,8.99493197 C21.1982718,9.35372504 21.8294983,9.30421708 22.1882913,8.88435285 L24.1565349,6.58108915 Z" id="Path-3-Copy"></path>
                    <path d="M1.8541624,5.2817845 C1.49536933,4.86192026 0.864142864,4.8124123 0.444278629,5.17120538 C0.0244143943,5.52999845 -0.0250935639,6.16122492 0.333699509,6.58108915 L2.30194303,8.88435285 C2.66073611,9.30421708 3.29196257,9.35372504 3.71182681,8.99493197 C4.13169104,8.63613889 4.181199,8.00491243 3.82240593,7.58504819 L1.8541624,5.2817845 Z" id="Path-3-Copy-2"></path>
                </g>
                <g id="Group-8-Copy" transform="translate(13.251953, 32.000000) scale(1, -1) translate(-13.251953, -32.000000) translate(0.751953, 27.000000)">
                    <path d="M13.6438802,1 C13.6438802,0.44771525 13.196165,2.22044605e-16 12.6438802,0 C12.0915955,-2.22044605e-16 11.6438802,0.44771525 11.6438802,1 L11.6438802,4.75976563 C11.6438802,5.31205037 12.0915955,5.75976563 12.6438802,5.75976563 C13.196165,5.75976563 13.6438802,5.31205037 13.6438802,4.75976563 L13.6438802,1 Z" id="Path-3"></path>
                    <path d="M24.1565349,6.58108915 C24.5153279,6.16122492 24.46582,5.52999845 24.0459557,5.17120538 C23.6260915,4.8124123 22.994865,4.86192026 22.636072,5.2817845 L20.6678284,7.58504819 C20.3090354,8.00491243 20.3585433,8.63613889 20.7784076,8.99493197 C21.1982718,9.35372504 21.8294983,9.30421708 22.1882913,8.88435285 L24.1565349,6.58108915 Z" id="Path-3-Copy"></path>
                    <path d="M1.8541624,5.2817845 C1.49536933,4.86192026 0.864142864,4.8124123 0.444278629,5.17120538 C0.0244143943,5.52999845 -0.0250935639,6.16122492 0.333699509,6.58108915 L2.30194303,8.88435285 C2.66073611,9.30421708 3.29196257,9.35372504 3.71182681,8.99493197 C4.13169104,8.63613889 4.181199,8.00491243 3.82240593,7.58504819 L1.8541624,5.2817845 Z" id="Path-3-Copy-2"></path>
                </g>
            </g>
        </g>
    </g>
</svg>