<svg id="40cb9083-6e4a-40de-aca6-f1d0923117e8" data-name="Layer 1" xmlns="http://www.w3.org/2000/svg" xmlns:xlink="http://www.w3.org/1999/xlink" viewBox="0 0 470 470"><defs><linearGradient id="5670b8a6-1779-4016-b79e-7875c6bb9dec" x1="235" y1="89.22" x2="235" y2="136.5" gradientUnits="userSpaceOnUse"><stop offset="0" stop-opacity="0"/><stop offset="1"/></linearGradient><linearGradient id="58454a40-8ce9-490b-bb52-cf1ed930d217" x1="157.15" y1="131.5" x2="157.15" y2="178.78" gradientTransform="translate(-63.63 156.45) rotate(-45)" xlink:href="#5670b8a6-1779-4016-b79e-7875c6bb9dec"/><linearGradient id="be9327b3-3e9c-4b61-8a28-8113900c82e9" x1="271.74" y1="246.09" x2="271.74" y2="293.37" gradientTransform="matrix(-0.71, -0.71, -0.71, 0.71, 695.68, 156.45)" xlink:href="#5670b8a6-1779-4016-b79e-7875c6bb9dec"/></defs><title>joaco - exports</title><g id="b5011701-0811-4e3e-a585-cd7395955ef8" data-name="&lt;Group&gt;"><rect id="fec5e3cf-89ba-42a5-aeb7-1f502c1268a5" data-name="&lt;Rectangle&gt;" x="174.06" y="352.59" width="121.87" height="16.77" rx="8.39" ry="8.39" opacity="0.05"/><polygon id="e312d2dd-b79a-4e02-a723-60ebc00addd6" data-name="&lt;Path&gt;" points="244.55 116.66 244.55 89.22 225.45 89.22 225.45 116.66 217.97 116.66 235 136.5 252.03 116.66 244.55 116.66" opacity="0.1" fill="url(#5670b8a6-1779-4016-b79e-7875c6bb9dec)"/><polygon id="99eaa35b-9f32-4a43-a1c6-73ba5a385197" data-name="&lt;Path&gt;" points="166.63 150.97 147.22 131.56 133.72 145.06 153.13 164.47 147.84 169.75 173.91 171.75 171.92 145.68 166.63 150.97" opacity="0.1" fill="url(#58454a40-8ce9-490b-bb52-cf1ed930d217)"/><polygon id="07184f06-0fb1-4fef-8e56-07037b08c4d2" data-name="&lt;Path&gt;" points="303.37 150.97 322.77 131.56 336.27 145.06 316.87 164.47 322.16 169.75 296.09 171.75 298.08 145.68 303.37 150.97" opacity="0.1" fill="url(#be9327b3-3e9c-4b61-8a28-8113900c82e9)"/><g id="14d6d408-c9d3-449d-b59f-468076289ffc" data-name="&lt;Group&gt;"><rect id="4f2998be-b931-4351-922a-802af98842f8" data-name="&lt;Rectangle&gt;" x="210.46" y="298.95" width="21.27" height="54.26" fill="#5b5b5b"/><rect id="1d6b60e7-6fca-4343-9a3d-39f62b7b7a99" data-name="&lt;Rectangle&gt;" x="210.46" y="288.77" width="50.3" height="10.17" fill="#3d3d3d"/><rect id="e5876642-f862-41d3-9ac6-86cdc2a2222a" data-name="&lt;Rectangle&gt;" x="239.49" y="298.95" width="21.27" height="54.26" fill="#5b5b5b"/><rect id="cd835ef3-5896-448e-ab1d-fd703bdd7590" data-name="&lt;Rectangle&gt;" x="210.46" y="298.95" width="50.3" height="17.12" fill="#5b5b5b"/><path id="a701ef4d-b0ee-4526-b29e-7ddd89f5c0ea" data-name="&lt;Rectangle&gt;" d="M248,344.49h18.29a5.6,5.6,0,0,1,5.6,5.6v11.42a0,0,0,0,1,0,0H248a8.51,8.51,0,0,1-8.51-8.51v0a8.51,8.51,0,0,1,8.51-8.51Z" transform="translate(511.38 706) rotate(180)" fill="#474747"/><path id="f0190914-b8aa-41b5-84ee-fbe14ec0a06b" data-name="&lt;Rectangle&gt;" d="M248,344.49h3a4.13,4.13,0,0,1,4.13,4.13v12.89a0,0,0,0,1,0,0H248a8.51,8.51,0,0,1-8.51-8.51v0A8.51,8.51,0,0,1,248,344.49Z" transform="translate(494.57 706) rotate(180)" fill="#3d3d3d"/><path id="1fe0f142-6508-4770-b1e9-a9cf7b9ad6f4" data-name="&lt;Rectangle&gt;" d="M207.85,344.49h23.89a0,0,0,0,1,0,0v11.42a5.6,5.6,0,0,1-5.6,5.6H207.85a8.51,8.51,0,0,1-8.51-8.51v0a8.51,8.51,0,0,1,8.51-8.51Z" fill="#474747"/><path id="1dd615bb-4d34-419a-af91-a517e8a03a52" data-name="&lt;Rectangle&gt;" d="M224.65,344.49h7.08a0,0,0,0,1,0,0v12.89a4.13,4.13,0,0,1-4.13,4.13h-3a8.51,8.51,0,0,1-8.51-8.51v0a8.51,8.51,0,0,1,8.51-8.51Z" fill="#3d3d3d"/><rect id="a5ec0439-287f-42bf-9d53-fd833853cadc" data-name="&lt;Rectangle&gt;" x="210.46" y="228.02" width="50.3" height="60.75" fill="#474747"/><rect id="0c82f4c1-75bf-4df9-a9ae-2fb2f7d576d9" data-name="&lt;Rectangle&gt;" x="252.64" y="228.03" width="18.95" height="13.83" fill="#515151"/><g id="47b1764e-698a-44b1-8d04-963fb3d5c777" data-name="&lt;Group&gt;"><rect id="8b288b8c-f014-4e15-a2e7-bd6acc5de80d" data-name="&lt;Rectangle&gt;" x="267.66" y="272.24" width="19.36" height="43.53" rx="9.68" ry="9.68" transform="translate(-29.26 30.65) rotate(-6.01)" fill="#feccae"/><rect id="0639e72a-a2df-4c57-b9b5-04ccf1be58db" data-name="&lt;Rectangle&gt;" x="264.1" y="229.93" width="19.36" height="60.5" rx="9.28" ry="9.28" transform="translate(-25.73 30.09) rotate(-6.01)" fill="#feccae"/><path id="23c9e8a9-ae29-49ca-8c4a-e14bfb86a4b3" data-name="&lt;Path&gt;" d="M270.4,228.09l-9.63,1L263.92,259l19.26-2L281,236.71A9.68,9.68,0,0,0,270.4,228.09Z" fill="#515151"/></g><rect id="c5398932-9982-4e01-8c57-6a550131b4f4" data-name="&lt;Rectangle&gt;" x="199.57" y="228.03" width="18.95" height="13.83" transform="translate(418.1 469.9) rotate(-180)" fill="#515151"/><g id="c85c1d48-d281-485a-aca7-d213603fc037" data-name="&lt;Group&gt;"><rect id="0fad2dda-e165-430c-ad00-35bce1fc2a5f" data-name="&lt;Rectangle&gt;" x="184.14" y="272.24" width="19.36" height="43.53" rx="9.68" ry="9.68" transform="translate(355.8 606.69) rotate(-173.99)" fill="#feccae"/><rect id="61a80f1d-3fec-4f84-9a93-602123adb23d" data-name="&lt;Rectangle&gt;" x="187.7" y="229.93" width="19.36" height="60.5" rx="9.28" ry="9.28" transform="translate(366.45 539.59) rotate(-173.99)" fill="#feccae"/><path id="c1aa3587-e6bc-4e2d-9116-6d117016cd94" data-name="&lt;Path&gt;" d="M200.76,228.09l9.63,1L207.24,259,188,257l2.14-20.28A9.68,9.68,0,0,1,200.76,228.09Z" fill="#515151"/></g><path id="41c81a35-7b5c-4fe1-b018-04d3a3907946" data-name="&lt;Rectangle&gt;" d="M207,228h57.15a0,0,0,0,1,0,0v29.22a7.12,7.12,0,0,1-7.12,7.12H214.15a7.12,7.12,0,0,1-7.12-7.12V228A0,0,0,0,1,207,228Z" fill="#474747"/><path id="82529c65-31f0-48d7-b756-378ebb02bae8" data-name="&lt;Path&gt;" d="M218.85,228a10.88,10.88,0,0,0-.12,1.55c0,7.44,7.56,13.48,16.88,13.48s16.88-6,16.88-13.48a10.9,10.9,0,0,0-.12-1.55H218.85Z" fill="#515151"/><path id="5d8bf3c7-db57-4803-b683-cf016b0de127" data-name="&lt;Rectangle&gt;" d="M224,222.17h23.19a0.46,0.46,0,0,1,.46.46v4.07a10.83,10.83,0,0,1-10.83,10.83h-2.46a10.83,10.83,0,0,1-10.83-10.83v-4.07A0.46,0.46,0,0,1,224,222.17Z" fill="#febd86"/><path id="8be29cb0-7086-4bf7-ae04-0936faac70f6" data-name="&lt;Rectangle&gt;" d="M228.2,157.56H243a20,20,0,0,1,20,20v23.3a23.76,23.76,0,0,1-23.76,23.76H232a23.76,23.76,0,0,1-23.76-23.76v-23.3a20,20,0,0,1,20-20Z" fill="#feccae"/><path id="90d839e5-4e85-4fc4-81af-00c37449028f" data-name="&lt;Path&gt;" d="M243.48,156H227.74a19.5,19.5,0,0,0-19.5,19.5v25.31a5.64,5.64,0,0,0,5.64-5.64V181.24a2.85,2.85,0,0,1,4-2.61l11.35,4.91a16.1,16.1,0,0,0,12.78,0l11.35-4.91a2.85,2.85,0,0,1,4,2.61v13.89a5.64,5.64,0,0,0,5.64,5.64V175.46A19.5,19.5,0,0,0,243.48,156Z" fill="#735448"/><circle id="980073a4-9e96-48df-bae3-bb45b31d73ca" data-name="&lt;Path&gt;" cx="225.16" cy="197.53" r="2.48" fill="#5b5b5b"/><circle id="7f31e0c4-282d-4ccf-a17b-002144630e06" data-name="&lt;Path&gt;" cx="245.16" cy="197.53" r="2.48" fill="#5b5b5b"/><ellipse id="c3bd04fa-5617-456b-95b4-e131c12b1b8d" data-name="&lt;Path&gt;" cx="250.3" cy="203.12" rx="1.43" ry="3.38" transform="translate(-20.9 377.34) rotate(-71.78)" fill="#f9bfa2"/><ellipse id="a197e90d-41cd-4af0-a79b-95420f3f2f82" data-name="&lt;Path&gt;" cx="221.39" cy="203.12" rx="3.38" ry="1.43" transform="translate(-52.42 79.43) rotate(-18.22)" fill="#f9bfa2"/><path id="f141e03d-ba29-4a0d-858b-1d533d54eb66" data-name="&lt;Path&gt;" d="M243.48,156H227.74a19.5,19.5,0,0,0-19.5,19.5v25.31a5.64,5.64,0,0,0,5.64-5.64V181.24a2.85,2.85,0,0,1,4-2.61l11.35,4.91a16.1,16.1,0,0,0,12.78,0l11.35-4.91a2.85,2.85,0,0,1,4,2.61v13.89a5.64,5.64,0,0,0,5.64,5.64V175.46A19.5,19.5,0,0,0,243.48,156Z" fill="#3a3a3a"/><path id="0c5c5449-6387-40c5-8434-fec49455980d" data-name="&lt;Path&gt;" d="M215.12,172.57a1,1,0,0,1-.92-1.39,16.72,16.72,0,0,1,8.8-8.81,1,1,0,1,1,.78,1.84A14.7,14.7,0,0,0,216,172,1,1,0,0,1,215.12,172.57Z" fill="#ededed" opacity="0.1"/><path id="7d40ab01-2285-4d1f-9c15-baeed4a6919a" data-name="&lt;Path&gt;" d="M238.69,213.32h-6.16a7.37,7.37,0,0,1-7.07-5.27A1.62,1.62,0,0,1,227,206h17.25a1.59,1.59,0,0,1,1.56,2A7.37,7.37,0,0,1,238.69,213.32Z" fill="#fff"/><path id="a378d60b-2134-4391-8729-18ac097d8fc7" data-name="&lt;Path&gt;" d="M240.14,210H231a0.54,0.54,0,1,1,0-1.08h9.13A0.54,0.54,0,1,1,240.14,210Z" fill="#ededed"/></g></g></svg>