<svg id="8684e0c8-c985-4439-b2a1-11007ab8bd21" data-name="Layer 1" xmlns="http://www.w3.org/2000/svg" viewBox="0 0 470 470"><title>joaco - exports</title><rect id="5612dab6-cb1e-408d-ba57-a6bf2fe9d1d6" data-name="&lt;Rectangle&gt;" x="24.67" y="327.92" width="30.77" height="24.85" rx="4.23" ry="4.23" opacity="0.05"/><circle id="d523da73-8ba0-4805-956d-89866cb9528a" data-name="&lt;Path&gt;" cx="40.06" cy="340.34" r="7.1" fill="#fff" opacity="0.1"/><g id="13b08d57-e12a-4313-abf6-532a26a999e8" data-name="&lt;Group&gt;"><rect id="3107c061-32aa-43bc-8854-b105ea0888c3" data-name="&lt;Rectangle&gt;" x="209.85" y="298.41" width="21.27" height="54.26" fill="#5b5b5b"/><rect id="78eaa820-35bb-4100-b8ee-6ff6940aedc0" data-name="&lt;Rectangle&gt;" x="209.85" y="288.24" width="50.3" height="10.17" fill="#3d3d3d"/><rect id="c128ea0c-0f6d-46cf-b9c5-8c1d749b1ee6" data-name="&lt;Rectangle&gt;" x="238.88" y="298.41" width="21.27" height="54.26" fill="#5b5b5b"/><rect id="dbdc6543-7453-4eca-896d-1ce1b89b5b22" data-name="&lt;Rectangle&gt;" x="209.85" y="298.41" width="50.3" height="17.12" fill="#5b5b5b"/><path id="f6de8735-7872-4648-ba1f-c8b3cbb22e96" data-name="&lt;Rectangle&gt;" d="M247.39,344h18.29a5.6,5.6,0,0,1,5.6,5.6V361a0,0,0,0,1,0,0H247.39a8.51,8.51,0,0,1-8.51-8.51v0A8.51,8.51,0,0,1,247.39,344Z" transform="translate(510.16 704.93) rotate(180)" fill="#474747"/><path id="c7e3d332-e90a-4d3d-8343-419c61ab1bef" data-name="&lt;Rectangle&gt;" d="M247.39,344h3a4.13,4.13,0,0,1,4.13,4.13V361a0,0,0,0,1,0,0h-7.08a8.51,8.51,0,0,1-8.51-8.51v0A8.51,8.51,0,0,1,247.39,344Z" transform="translate(493.35 704.93) rotate(180)" fill="#3d3d3d"/><path id="c4c218a3-eded-4df8-b625-c803219387e7" data-name="&lt;Rectangle&gt;" d="M207.23,344h23.89a0,0,0,0,1,0,0v11.42a5.6,5.6,0,0,1-5.6,5.6H207.23a8.51,8.51,0,0,1-8.51-8.51v0a8.51,8.51,0,0,1,8.51-8.51Z" fill="#474747"/><path id="7633979d-573f-45e3-b733-f5022ca42dc6" data-name="&lt;Rectangle&gt;" d="M224,344h7.08a0,0,0,0,1,0,0v12.89A4.13,4.13,0,0,1,227,361h-3a8.51,8.51,0,0,1-8.51-8.51v0A8.51,8.51,0,0,1,224,344Z" fill="#3d3d3d"/><rect id="04972209-6444-40d1-be01-08728535a67c" data-name="&lt;Rectangle&gt;" x="209.85" y="227.49" width="50.3" height="60.75" fill="#474747"/><rect id="dce7d6ff-5311-4580-ba8c-387aaaa694c6" data-name="&lt;Rectangle&gt;" x="252.03" y="227.5" width="18.95" height="13.83" fill="#515151"/><g id="1d023eae-cc99-44f6-9790-59fe39aecdbc" data-name="&lt;Group&gt;"><rect id="64659485-fece-40d2-bab2-f898dae2e23c" data-name="&lt;Rectangle&gt;" x="267.05" y="271.71" width="19.36" height="43.53" rx="9.68" ry="9.68" transform="matrix(0.99, -0.1, 0.1, 0.99, -29.2, 30.58)" fill="#feccae"/><rect id="1356bab7-d186-4fde-bf60-73df22a36041" data-name="&lt;Rectangle&gt;" x="263.48" y="229.39" width="19.36" height="60.5" rx="9.28" ry="9.28" transform="translate(-25.68 30.03) rotate(-6.01)" fill="#feccae"/><path id="a1184d95-d608-4b6a-9811-3db1f99becf0" data-name="&lt;Path&gt;" d="M269.79,227.56l-9.63,1,3.15,29.91,19.26-2-2.14-20.28A9.68,9.68,0,0,0,269.79,227.56Z" fill="#515151"/></g><rect id="43dbe998-abfd-4af3-b044-b9eeceee73ec" data-name="&lt;Rectangle&gt;" x="198.96" y="227.5" width="18.95" height="13.83" transform="translate(416.87 468.83) rotate(-180)" fill="#515151"/><g id="53d77aed-88e5-4718-a115-93f99b07e174" data-name="&lt;Group&gt;"><rect id="93d1a394-56ed-4e59-b128-0de6454ef54f" data-name="&lt;Rectangle&gt;" x="183.53" y="271.71" width="19.36" height="43.53" rx="9.68" ry="9.68" transform="translate(354.64 605.57) rotate(-173.99)" fill="#feccae"/><rect id="42271dff-2673-4185-842e-8fee2ecd8738" data-name="&lt;Rectangle&gt;" x="187.09" y="229.39" width="19.36" height="60.5" rx="9.28" ry="9.28" transform="translate(365.28 538.47) rotate(-173.99)" fill="#feccae"/><path id="fcd6601e-8f1a-4fd0-bc14-62ae7ebe30ed" data-name="&lt;Path&gt;" d="M200.15,227.56l9.63,1-3.15,29.91-19.26-2,2.14-20.28A9.68,9.68,0,0,1,200.15,227.56Z" fill="#515151"/></g><path id="88a67af8-1f70-46d0-91d5-00ee851cfd19" data-name="&lt;Rectangle&gt;" d="M206.42,227.5h57.15a0,0,0,0,1,0,0v29.22a7.12,7.12,0,0,1-7.12,7.12H213.54a7.12,7.12,0,0,1-7.12-7.12V227.5A0,0,0,0,1,206.42,227.5Z" fill="#474747"/><path id="81c73e84-6032-43bd-80ed-6e6a53c4ec8c" data-name="&lt;Path&gt;" d="M218.24,227.5a10.88,10.88,0,0,0-.12,1.55c0,7.44,7.56,13.48,16.88,13.48s16.88-6,16.88-13.48a10.9,10.9,0,0,0-.12-1.55H218.24Z" fill="#515151"/><path id="db875fe1-8a18-4fec-84e4-a9f3a09bd908" data-name="&lt;Rectangle&gt;" d="M223.4,221.64H246.6a0.46,0.46,0,0,1,.46.46v4.07A10.83,10.83,0,0,1,236.23,237h-2.46a10.83,10.83,0,0,1-10.83-10.83V222.1a0.46,0.46,0,0,1,.46-0.46Z" fill="#febd86"/><path id="524025a2-02ca-486a-bf55-f35c1c893a88" data-name="&lt;Rectangle&gt;" d="M227.59,157h14.82a20,20,0,0,1,20,20v23.3A23.76,23.76,0,0,1,238.61,224h-7.21a23.76,23.76,0,0,1-23.76-23.76V177A20,20,0,0,1,227.59,157Z" fill="#feccae"/><path id="af2b2b21-34f6-4e7e-a032-912c14c1bd2a" data-name="&lt;Path&gt;" d="M242.87,155.44H227.13a19.5,19.5,0,0,0-19.5,19.5v25.31a5.64,5.64,0,0,0,5.64-5.64V180.71a2.85,2.85,0,0,1,4-2.61L228.61,183a16.1,16.1,0,0,0,12.78,0l11.35-4.91a2.85,2.85,0,0,1,4,2.61V194.6a5.64,5.64,0,0,0,5.64,5.64V174.93A19.5,19.5,0,0,0,242.87,155.44Z" fill="#735448"/><circle id="5e186f45-cfcd-41f4-a0bf-fea2d1ca9999" data-name="&lt;Path&gt;" cx="224.55" cy="197" r="2.48" fill="#5b5b5b"/><circle id="3a1dc287-9836-47d0-a57c-c9610da00762" data-name="&lt;Path&gt;" cx="244.55" cy="197" r="2.48" fill="#5b5b5b"/><ellipse id="ebe53d31-d6e4-42f9-8538-a5f3d2a0921a" data-name="&lt;Path&gt;" cx="249.69" cy="202.58" rx="1.43" ry="3.38" transform="translate(-20.82 376.4) rotate(-71.78)" fill="#f9bfa2"/><ellipse id="fe232c91-dd7d-4063-af15-6f65f931eef3" data-name="&lt;Path&gt;" cx="220.78" cy="202.58" rx="3.38" ry="1.43" transform="translate(-52.28 79.21) rotate(-18.22)" fill="#f9bfa2"/><path id="ee0a8738-9f97-4be2-b303-39e4a6ac7cd4" data-name="&lt;Path&gt;" d="M242.87,155.44H227.13a19.5,19.5,0,0,0-19.5,19.5v25.31a5.64,5.64,0,0,0,5.64-5.64V180.71a2.85,2.85,0,0,1,4-2.61L228.61,183a16.1,16.1,0,0,0,12.78,0l11.35-4.91a2.85,2.85,0,0,1,4,2.61V194.6a5.64,5.64,0,0,0,5.64,5.64V174.93A19.5,19.5,0,0,0,242.87,155.44Z" fill="#3a3a3a"/><path id="0d0c87ad-a814-42c6-9076-e9782520e028" data-name="&lt;Path&gt;" d="M214.51,172a1,1,0,0,1-.92-1.39,16.72,16.72,0,0,1,8.8-8.81,1,1,0,1,1,.78,1.84,14.7,14.7,0,0,0-7.74,7.74A1,1,0,0,1,214.51,172Z" fill="#ededed" opacity="0.1"/><path id="fb7588f0-5097-4282-baa7-b1658d562fa5" data-name="&lt;Path&gt;" d="M238.08,212.79h-6.16a7.37,7.37,0,0,1-7.07-5.27,1.62,1.62,0,0,1,1.53-2.1h17.25a1.59,1.59,0,0,1,1.56,2A7.37,7.37,0,0,1,238.08,212.79Z" fill="#fff"/><path id="3ac64f93-62fe-4cf4-b40b-ed51b3a4990d" data-name="&lt;Path&gt;" d="M239.53,209.47H230.4a0.54,0.54,0,1,1,0-1.08h9.13A0.54,0.54,0,1,1,239.53,209.47Z" fill="#ededed"/></g><g id="72e03cef-088d-421a-a0d6-0fc4dcbdd978" data-name="&lt;Group&gt;"><rect id="e5dbd17f-9d71-4786-a7c5-f037f614ad27" data-name="&lt;Rectangle&gt;" x="46.04" y="375.33" width="377.91" height="16.77" rx="8.39" ry="8.39" opacity="0.08"/><rect id="fc800cac-3d8f-41e7-af97-366deb98f9ca" data-name="&lt;Rectangle&gt;" x="74.53" y="274.83" width="320.95" height="108.17" fill="#b47860"/><rect id="a9b97084-c3f4-44ad-8694-0f114334fc1b" data-name="&lt;Rectangle&gt;" x="74.53" y="274.83" width="320.95" height="20.28" fill="#aa6f5b"/><rect id="ac465220-f36e-41fc-bcd0-bd0903ab3ba7" data-name="&lt;Rectangle&gt;" x="62.58" y="274.83" width="344.84" height="11.41" rx="5.71" ry="5.71" fill="#b77d67"/><path id="5f691aec-46de-4f0c-8b4c-db5138118ef3" data-name="&lt;Path&gt;" d="M278.26,304.67h0c5.53,0,10,4.82,10,10.78v44.22c0,6-4.49,10.78-10,10.78h0c-5.53,0-10-4.82-10-10.78V315.44C268.24,309.49,272.73,304.67,278.26,304.67Z" fill="#aa6f5b"/><path id="9c565ac8-24f5-446e-ad8d-f0fd7bee414d" data-name="&lt;Path&gt;" d="M308.33,304.67h0c5.53,0,10,4.82,10,10.78v44.22c0,6-4.49,10.78-10,10.78h0c-5.53,0-10-4.82-10-10.78V315.44C298.31,309.49,302.8,304.67,308.33,304.67Z" fill="#aa6f5b"/><path id="c79ef8cf-13bb-4d20-afa0-a796e0706403" data-name="&lt;Path&gt;" d="M338.39,304.67h0c5.53,0,10,4.82,10,10.78v44.22c0,6-4.49,10.78-10,10.78h0c-5.53,0-10-4.82-10-10.78V315.44C328.37,309.49,332.86,304.67,338.39,304.67Z" fill="#aa6f5b"/><path id="cee6bd5d-cdc3-4063-91a7-fc8ebabc43b1" data-name="&lt;Path&gt;" d="M368.46,304.67h0c5.53,0,10,4.82,10,10.78v44.22c0,6-4.49,10.78-10,10.78h0c-5.53,0-10-4.82-10-10.78V315.44C358.44,309.49,362.93,304.67,368.46,304.67Z" fill="#aa6f5b"/><path id="d33c2fb1-f95f-44cf-ae2e-b5d1ae3097dc" data-name="&lt;Path&gt;" d="M159.14,304.67h0c5.53,0,10,4.82,10,10.78v44.22c0,6-4.49,10.78-10,10.78h0c-5.53,0-10-4.82-10-10.78V315.44C149.12,309.49,153.61,304.67,159.14,304.67Z" fill="#aa6f5b"/><path id="fd06b03c-dbc3-4241-87e4-d522c017aae6" data-name="&lt;Path&gt;" d="M189.21,304.67h0c5.53,0,10,4.82,10,10.78v44.22c0,6-4.49,10.78-10,10.78h0c-5.53,0-10-4.82-10-10.78V315.44C179.19,309.49,183.67,304.67,189.21,304.67Z" fill="#aa6f5b"/><path id="c29a393b-3626-4cea-9a76-00a07e1c9089" data-name="&lt;Path&gt;" d="M219.27,304.67h0c5.53,0,10,4.82,10,10.78v44.22c0,6-4.49,10.78-10,10.78h0c-5.53,0-10-4.82-10-10.78V315.44C209.25,309.49,213.74,304.67,219.27,304.67Z" fill="#aa6f5b"/><path id="1a5060ac-ef6d-4eb7-9ade-f2fd1d518975" data-name="&lt;Path&gt;" d="M249.34,304.67h0c5.53,0,10,4.82,10,10.78v44.22c0,6-4.49,10.78-10,10.78h0c-5.53,0-10-4.82-10-10.78V315.44C239.32,309.49,243.8,304.67,249.34,304.67Z" fill="#aa6f5b"/><path id="90700587-e8eb-4db2-9f11-720388afea13" data-name="&lt;Path&gt;" d="M101.54,304.67h0c5.53,0,10,4.82,10,10.78v44.22c0,6-4.49,10.78-10,10.78h0c-5.53,0-10-4.82-10-10.78V315.44C91.52,309.49,96,304.67,101.54,304.67Z" fill="#aa6f5b"/><path id="2913e1f0-1f9f-44a0-87b0-926d276ffdc1" data-name="&lt;Path&gt;" d="M131.61,304.67h0c5.53,0,10,4.82,10,10.78v44.22c0,6-4.49,10.78-10,10.78h0c-5.53,0-10-4.82-10-10.78V315.44C121.58,309.49,126.07,304.67,131.61,304.67Z" fill="#aa6f5b"/></g><g id="912854ad-9f4f-4863-bee4-34076a0f4019" data-name="&lt;Group&gt;"><rect id="e64101c4-d5ef-4334-ac36-90fb18f0453f" data-name="&lt;Rectangle&gt;" x="75.91" y="193" width="120.67" height="81.83" rx="8.8" ry="8.8" fill="#e3e3e3"/><path id="d40db7ac-3180-4277-afee-64e40100466b" data-name="&lt;Path&gt;" d="M145.88,235.28a7.74,7.74,0,0,1-3.79-11.95,12.13,12.13,0,1,0,6.15,12.34A7.73,7.73,0,0,1,145.88,235.28Z" fill="#fff"/><g id="97dad041-f6a2-4b93-be67-c18a38fb04a5" data-name="&lt;Group&gt;" opacity="0.3"><rect id="b3ada367-50fe-4c77-9881-4f361b3c417f" data-name="&lt;Rectangle&gt;" x="71.92" y="248.57" width="30.77" height="6.17" rx="3.08" ry="3.08" transform="translate(-164.35 338.96) rotate(-90)" fill="#fff"/><rect id="697a4e61-de74-422f-9db1-ecf2e5ee032f" data-name="&lt;Rectangle&gt;" x="84.03" y="224.9" width="6.55" height="6.17" rx="3.08" ry="3.08" transform="translate(-140.68 315.28) rotate(-90)" fill="#fff"/></g></g><g id="6d887a85-7f00-4219-b650-a4e155f70252" data-name="&lt;Group&gt;"><rect id="d2624e72-b172-4aca-bc12-754a03110e1f" data-name="&lt;Rectangle&gt;" x="89.17" y="89.73" width="40.03" height="36.64" transform="translate(8.12 -7.63) rotate(4.16)" fill="#ffbc00"/><rect id="6f2f8764-5ed5-471b-957a-e3b27e286140" data-name="&lt;Rectangle&gt;" x="90.21" y="89.77" width="40.03" height="7.77" transform="translate(7.08 -7.74) rotate(4.16)" fill="#fff" opacity="0.3"/></g><g id="6406bda3-213d-4bb2-9a97-92cb7577ff00" data-name="&lt;Group&gt;"><rect id="bae31dff-28c0-45ae-b498-20d303d75440" data-name="&lt;Rectangle&gt;" x="346.17" y="102.07" width="40.03" height="36.64" transform="translate(9.69 -26.23) rotate(4.16)" fill="#ffbc00"/><rect id="bd141ee0-c5c9-4662-8b7d-9eea4bb15005" data-name="&lt;Rectangle&gt;" x="347.21" y="102.11" width="40.03" height="7.77" transform="translate(8.65 -26.34) rotate(4.16)" fill="#fff" opacity="0.3"/></g><g id="022edcad-5e02-463c-84bd-b88c9b5edf52" data-name="&lt;Group&gt;"><rect id="e72e5ce2-368f-458d-b0aa-fcd9af923ba1" data-name="&lt;Rectangle&gt;" x="214.37" y="36.98" width="40.03" height="36.64" transform="translate(-5.76 37.33) rotate(-9)" fill="#ffbc00"/><rect id="9f51d997-08aa-4c6c-aa84-703d19e6f888" data-name="&lt;Rectangle&gt;" x="212.11" y="37.16" width="40.03" height="7.77" transform="translate(-3.56 36.8) rotate(-9)" fill="#fff" opacity="0.3"/></g><g id="0a0a6e9f-9fee-4873-966a-d2bfc85204e3" data-name="&lt;Group&gt;"><rect id="784441fc-8c74-4c61-aff6-f084f96608a0" data-name="&lt;Rectangle&gt;" x="155.21" y="70.49" width="40.03" height="36.64" transform="translate(6.8 -12.31) rotate(4.1)" fill="#fc982b"/><rect id="d4e4b3fe-cbf2-4cbb-82e8-dc221a2a2f82" data-name="&lt;Rectangle&gt;" x="156.24" y="70.53" width="40.03" height="7.77" transform="translate(5.77 -12.42) rotate(4.1)" fill="#fff" opacity="0.3"/></g><g id="1334166c-b9fa-4df3-aa06-8b5baa83ffba" data-name="&lt;Group&gt;"><rect id="10188c16-f5e1-4ce8-8e5c-5bba32bd99a0" data-name="&lt;Rectangle&gt;" x="142.45" y="124.3" width="40.03" height="36.64" transform="translate(-5.82 6.92) rotate(-2.4)" fill="#fc982b"/><rect id="549c5c7e-524a-403b-adb6-1bce6a24e14b" data-name="&lt;Rectangle&gt;" x="141.85" y="124.31" width="40.03" height="7.77" transform="translate(-5.22 6.88) rotate(-2.4)" fill="#fff" opacity="0.3"/></g><g id="7b7190ad-c79c-4a0c-83c3-f59c9a3dc5c2" data-name="&lt;Group&gt;"><rect id="d9b15389-d873-4f4d-983a-2e1556df1ae7" data-name="&lt;Rectangle&gt;" x="218.24" y="98.46" width="40.03" height="36.64" fill="#ffb6f1"/><rect id="971d5c7c-48ab-48b4-9b57-74b63253e30d" data-name="&lt;Rectangle&gt;" x="218.24" y="98.46" width="40.03" height="7.77" fill="#fff" opacity="0.3"/></g><g id="4b6d0c4f-ab20-4b93-b3cf-9963ec22105e" data-name="&lt;Group&gt;"><rect id="cb40055b-f990-46d9-bd0b-3980c2259104" data-name="&lt;Rectangle&gt;" x="297.57" y="159.52" width="40.03" height="36.64" transform="translate(22.37 -35.07) rotate(6.55)" fill="#ffb6f1"/><rect id="2f1d145a-04e4-413b-966f-a8c9061bde6a" data-name="&lt;Rectangle&gt;" x="299.22" y="159.61" width="40.03" height="7.77" transform="translate(20.74 -35.36) rotate(6.55)" fill="#fff" opacity="0.3"/></g><g id="b75e391b-ae98-4d04-be4b-ee8423da9b5f" data-name="&lt;Group&gt;"><rect id="5e344f1e-6914-43ff-b237-ffa63eae8910" data-name="&lt;Rectangle&gt;" x="284.35" y="85.91" width="40.03" height="36.64" transform="translate(-9.11 31.88) rotate(-5.91)" fill="#9be26d"/><rect id="686924ec-3f21-41b7-bfe9-a0ccf6862bab" data-name="&lt;Rectangle&gt;" x="282.86" y="85.99" width="40.03" height="7.77" transform="translate(-7.64 31.65) rotate(-5.91)" fill="#fff" opacity="0.3"/></g><g id="c5e8dc28-fd7d-4423-8842-be375e918f4f" data-name="&lt;Group&gt;" opacity="0.1"><g id="03e0b2d5-a1af-4e53-87e2-436f6b498386" data-name="&lt;Group&gt;"><path id="e25bd268-9c40-4414-80cf-303699834086" data-name="&lt;Path&gt;" d="M106,135.11s1,19.53,26.09,17" fill="none" stroke="#000" stroke-linecap="round" stroke-miterlimit="10" stroke-width="2"/><g id="9fd45b6e-b7cd-48af-a8f6-09e9eeaee83c" data-name="&lt;Group&gt;"><polygon id="02e1b111-e3bd-4fde-8d9a-562d597b1c55" data-name="&lt;Path&gt;" points="128.51 157.23 127.63 156.42 131.63 152.06 126.99 148.39 127.74 147.44 133.39 151.92 128.51 157.23"/></g></g></g><g id="ea706de1-87ae-46c9-b36f-2fbbbbcc28fa" data-name="&lt;Group&gt;" opacity="0.1"><g id="41bc2690-40d6-40cf-a518-7633f9d0c205" data-name="&lt;Group&gt;"><path id="089c0345-a6c1-43df-99da-814d23ef1378" data-name="&lt;Path&gt;" d="M294.92,72.51c-0.66-4.41-4.53-18.49-26.86-16.14" fill="none" stroke="#000" stroke-linecap="round" stroke-miterlimit="10" stroke-width="2"/><g id="cf2c0394-9652-42a4-83e7-8ec4d23a6ca2" data-name="&lt;Group&gt;"><polygon id="a124ec1c-4b6e-465d-9a8d-2465b447bbed" data-name="&lt;Path&gt;" points="298.85 67.67 297.83 67.04 294.72 72.08 289.92 68.61 289.22 69.58 295.06 73.81 298.85 67.67"/></g></g></g><g id="273dc698-bd79-43b7-90d3-2e36ee9e9223" data-name="&lt;Group&gt;" opacity="0.1"><g id="2fc6b4ad-9d42-4645-80fc-033bfd75db93" data-name="&lt;Group&gt;"><path id="f0c982b0-3fb1-40e2-aa3b-554399b49efe" data-name="&lt;Path&gt;" d="M348.74,174.92c4.46,0.27,19-.57,21.4-22.89" fill="none" stroke="#000" stroke-linecap="round" stroke-miterlimit="10" stroke-width="2"/><g id="9b41cefe-b559-4999-a8be-159f649b13f4" data-name="&lt;Group&gt;"><polygon id="7b623e3a-e58a-4c67-b3ac-8fe597b01a1c" data-name="&lt;Path&gt;" points="352.65 179.77 353.48 178.91 349.2 174.81 353.6 170.85 352.79 169.96 347.44 174.79 352.65 179.77"/></g></g></g><rect id="b3b300cb-c06e-4b94-b0f4-8ce9d2b34174" data-name="&lt;Rectangle&gt;" x="297.06" y="211.79" width="32.46" height="54.25" rx="5.5" ry="5.5" fill="#e3e3e3"/><path id="48799c05-3863-4bc2-8ad5-9e1d39df3c7a" data-name="&lt;Path&gt;" d="M318.27,229.91a4,4,0,0,1-2-6.17,6.27,6.27,0,1,0,3.18,6.38A4,4,0,0,1,318.27,229.91Z" fill="#fff"/><g id="b814cd10-abad-4ab2-bb6e-3eaea9cf4cde" data-name="&lt;Group&gt;" opacity="0.3"><rect id="2b5062b2-413f-4873-b123-e39e385185be" data-name="&lt;Rectangle&gt;" x="294.45" y="249.1" width="18.91" height="3.79" rx="1.89" ry="1.89" transform="translate(52.91 554.9) rotate(-90)" fill="#fff"/><rect id="6fbcaf98-11da-4b18-9a04-6cbba8846bdf" data-name="&lt;Rectangle&gt;" x="301.89" y="234.55" width="4.02" height="3.79" rx="1.89" ry="1.89" transform="translate(67.46 540.35) rotate(-90)" fill="#fff"/></g><rect id="d03d157a-9814-41da-91aa-1a8b492427f0" data-name="&lt;Rectangle&gt;" x="292.61" y="266.04" width="41.37" height="8.84" rx="1.93" ry="1.93" fill="#d1d1d1"/><g id="e98bde2f-0ac7-48c3-b057-a33b1c68cc1a" data-name="&lt;Group&gt;"><path id="6ec06680-4e58-4877-b2de-1e4132d109fe" data-name="&lt;Rectangle&gt;" d="M252.83,253.52h5.71a10.76,10.76,0,0,1,10.76,10.76v10.55a0,0,0,0,1,0,0H242.07a0,0,0,0,1,0,0V264.28a10.76,10.76,0,0,1,10.76-10.76Z" fill="#feccae"/><rect id="03972af8-60d5-4258-a908-6e45b15c2c92" data-name="&lt;Rectangle&gt;" x="233.39" y="264.17" width="27.12" height="10.66" rx="4.84" ry="4.84" fill="#fff"/></g></svg>