<svg id="Layer_1" data-name="Layer 1" xmlns="http://www.w3.org/2000/svg" viewBox="0 0 470 470"><defs><style>.cls-1{fill:#5b5b5b;}.cls-2{fill:#3d3d3d;}.cls-3{fill:#474747;}.cls-4{fill:#515151;}.cls-5{fill:#feccae;}.cls-6{fill:#febd86;}.cls-7{fill:#735448;}.cls-8{fill:#f9bfa2;}.cls-9{fill:#3a3a3a;}.cls-10,.cls-12{fill:#ededed;}.cls-10,.cls-22{opacity:0.1;}.cls-11,.cls-22{fill:#fff;}.cls-13{opacity:0.08;}.cls-14{fill:#b47860;}.cls-15{fill:#aa6f5b;}.cls-16,.cls-23{fill:none;stroke-linecap:round;stroke-miterlimit:10;stroke-width:5px;}.cls-16{stroke:#515151;}.cls-17{fill:#b77d67;}.cls-18{fill:#ad87c6;}.cls-19{opacity:0.05;}.cls-20{fill:#e3e3e3;}.cls-21{opacity:0.3;}.cls-23{stroke:#5e5e5e;}</style></defs><title>slider</title><g id="_Group_" data-name="&lt;Group&gt;"><rect id="_Rectangle_" data-name="&lt;Rectangle&gt;" class="cls-1" x="209.85" y="298.41" width="21.27" height="54.26"/><rect id="_Rectangle_2" data-name="&lt;Rectangle&gt;" class="cls-2" x="209.85" y="288.24" width="50.3" height="10.17"/><rect id="_Rectangle_3" data-name="&lt;Rectangle&gt;" class="cls-1" x="238.88" y="298.41" width="21.27" height="54.26"/><rect id="_Rectangle_4" data-name="&lt;Rectangle&gt;" class="cls-1" x="209.85" y="298.41" width="50.3" height="17.12"/><path id="_Rectangle_5" data-name="&lt;Rectangle&gt;" class="cls-3" d="M247.39,344h18.29a5.6,5.6,0,0,1,5.6,5.6V361a0,0,0,0,1,0,0H247.39a8.51,8.51,0,0,1-8.51-8.51v0A8.51,8.51,0,0,1,247.39,344Z" transform="translate(510.16 704.93) rotate(180)"/><path id="_Rectangle_6" data-name="&lt;Rectangle&gt;" class="cls-2" d="M247.39,344h3a4.13,4.13,0,0,1,4.13,4.13V361a0,0,0,0,1,0,0h-7.08a8.51,8.51,0,0,1-8.51-8.51v0A8.51,8.51,0,0,1,247.39,344Z" transform="translate(493.35 704.93) rotate(180)"/><path id="_Rectangle_7" data-name="&lt;Rectangle&gt;" class="cls-3" d="M207.23,344h23.89a0,0,0,0,1,0,0v11.42a5.6,5.6,0,0,1-5.6,5.6H207.23a8.51,8.51,0,0,1-8.51-8.51v0a8.51,8.51,0,0,1,8.51-8.51Z"/><path id="_Rectangle_8" data-name="&lt;Rectangle&gt;" class="cls-2" d="M224,344h7.08a0,0,0,0,1,0,0v12.89A4.13,4.13,0,0,1,227,361h-3a8.51,8.51,0,0,1-8.51-8.51v0A8.51,8.51,0,0,1,224,344Z"/><rect id="_Rectangle_9" data-name="&lt;Rectangle&gt;" class="cls-3" x="209.85" y="227.49" width="50.3" height="60.75"/><rect id="_Rectangle_10" data-name="&lt;Rectangle&gt;" class="cls-4" x="252.03" y="227.5" width="18.95" height="13.83"/><g id="_Group_2" data-name="&lt;Group&gt;"><rect id="_Rectangle_11" data-name="&lt;Rectangle&gt;" class="cls-5" x="267.05" y="271.71" width="19.36" height="43.53" rx="9.68" ry="9.68" transform="translate(-29.2 30.58) rotate(-6.01)"/><rect id="_Rectangle_12" data-name="&lt;Rectangle&gt;" class="cls-5" x="263.48" y="229.39" width="19.36" height="60.5" rx="9.28" ry="9.28" transform="translate(-25.68 30.03) rotate(-6.01)"/><path id="_Path_" data-name="&lt;Path&gt;" class="cls-4" d="M269.79,227.56l-9.63,1,3.15,29.91,19.26-2-2.14-20.28A9.68,9.68,0,0,0,269.79,227.56Z"/></g><rect id="_Rectangle_13" data-name="&lt;Rectangle&gt;" class="cls-4" x="198.96" y="227.5" width="18.95" height="13.83" transform="translate(416.87 468.83) rotate(-180)"/><g id="_Group_3" data-name="&lt;Group&gt;"><rect id="_Rectangle_14" data-name="&lt;Rectangle&gt;" class="cls-5" x="183.53" y="271.71" width="19.36" height="43.53" rx="9.68" ry="9.68" transform="translate(354.64 605.57) rotate(-173.99)"/><rect id="_Rectangle_15" data-name="&lt;Rectangle&gt;" class="cls-5" x="187.09" y="229.39" width="19.36" height="60.5" rx="9.28" ry="9.28" transform="translate(365.28 538.47) rotate(-173.99)"/><path id="_Path_2" data-name="&lt;Path&gt;" class="cls-4" d="M200.15,227.56l9.63,1-3.15,29.91-19.26-2,2.14-20.28A9.68,9.68,0,0,1,200.15,227.56Z"/></g><path id="_Rectangle_16" data-name="&lt;Rectangle&gt;" class="cls-3" d="M206.42,227.5h57.15a0,0,0,0,1,0,0v29.22a7.12,7.12,0,0,1-7.12,7.12H213.54a7.12,7.12,0,0,1-7.12-7.12V227.5A0,0,0,0,1,206.42,227.5Z"/><path id="_Path_3" data-name="&lt;Path&gt;" class="cls-4" d="M218.24,227.5a10.88,10.88,0,0,0-.12,1.55c0,7.44,7.56,13.48,16.88,13.48s16.88-6,16.88-13.48a10.9,10.9,0,0,0-.12-1.55H218.24Z"/><path id="_Rectangle_17" data-name="&lt;Rectangle&gt;" class="cls-6" d="M223.4,221.64H246.6a0.46,0.46,0,0,1,.46.46v4.07A10.83,10.83,0,0,1,236.23,237h-2.46a10.83,10.83,0,0,1-10.83-10.83V222.1A0.46,0.46,0,0,1,223.4,221.64Z"/><path id="_Rectangle_18" data-name="&lt;Rectangle&gt;" class="cls-5" d="M227.59,157h14.82a20,20,0,0,1,20,20v23.3A23.76,23.76,0,0,1,238.61,224h-7.21a23.76,23.76,0,0,1-23.76-23.76V177A20,20,0,0,1,227.59,157Z"/><path id="_Path_4" data-name="&lt;Path&gt;" class="cls-7" d="M242.87,155.44H227.13a19.5,19.5,0,0,0-19.5,19.5v25.31a5.64,5.64,0,0,0,5.64-5.64V180.71a2.85,2.85,0,0,1,4-2.61L228.61,183a16.1,16.1,0,0,0,12.78,0l11.35-4.91a2.85,2.85,0,0,1,4,2.61V194.6a5.64,5.64,0,0,0,5.64,5.64V174.93A19.5,19.5,0,0,0,242.87,155.44Z"/><circle id="_Path_5" data-name="&lt;Path&gt;" class="cls-1" cx="224.55" cy="197" r="2.48"/><circle id="_Path_6" data-name="&lt;Path&gt;" class="cls-1" cx="244.55" cy="197" r="2.48"/><ellipse id="_Path_7" data-name="&lt;Path&gt;" class="cls-8" cx="249.69" cy="202.58" rx="1.43" ry="3.38" transform="translate(-20.82 376.4) rotate(-71.78)"/><ellipse id="_Path_8" data-name="&lt;Path&gt;" class="cls-8" cx="220.78" cy="202.58" rx="3.38" ry="1.43" transform="translate(-52.28 79.21) rotate(-18.22)"/><path id="_Path_9" data-name="&lt;Path&gt;" class="cls-9" d="M242.87,155.44H227.13a19.5,19.5,0,0,0-19.5,19.5v25.31a5.64,5.64,0,0,0,5.64-5.64V180.71a2.85,2.85,0,0,1,4-2.61L228.61,183a16.1,16.1,0,0,0,12.78,0l11.35-4.91a2.85,2.85,0,0,1,4,2.61V194.6a5.64,5.64,0,0,0,5.64,5.64V174.93A19.5,19.5,0,0,0,242.87,155.44Z"/><path id="_Path_10" data-name="&lt;Path&gt;" class="cls-10" d="M214.51,172a1,1,0,0,1-.92-1.39,16.72,16.72,0,0,1,8.8-8.81,1,1,0,1,1,.78,1.84,14.7,14.7,0,0,0-7.74,7.74A1,1,0,0,1,214.51,172Z"/><path id="_Path_11" data-name="&lt;Path&gt;" class="cls-11" d="M238.08,212.79h-6.16a7.37,7.37,0,0,1-7.07-5.27,1.62,1.62,0,0,1,1.53-2.1h17.25a1.59,1.59,0,0,1,1.56,2A7.37,7.37,0,0,1,238.08,212.79Z"/><path id="_Path_12" data-name="&lt;Path&gt;" class="cls-12" d="M239.53,209.47H230.4a0.54,0.54,0,1,1,0-1.08h9.13A0.54,0.54,0,1,1,239.53,209.47Z"/></g><rect id="_Rectangle_19" data-name="&lt;Rectangle&gt;" class="cls-13" x="46.04" y="375.33" width="377.91" height="16.77" rx="8.39" ry="8.39"/><rect id="_Rectangle_20" data-name="&lt;Rectangle&gt;" class="cls-14" x="106" y="274.83" width="258" height="108.17"/><path id="_Rectangle_21" data-name="&lt;Rectangle&gt;" class="cls-14" d="M109.4,368.13h1.13a0,0,0,0,1,0,0V383a0,0,0,0,1,0,0h-16a0,0,0,0,1,0,0v0A14.87,14.87,0,0,1,109.4,368.13Z"/><path id="_Rectangle_22" data-name="&lt;Rectangle&gt;" class="cls-14" d="M360.2,368.13h16a0,0,0,0,1,0,0V383a0,0,0,0,1,0,0h-1.13a14.87,14.87,0,0,1-14.87-14.87v0A0,0,0,0,1,360.2,368.13Z" transform="translate(736.4 751.13) rotate(180)"/><rect id="_Rectangle_23" data-name="&lt;Rectangle&gt;" class="cls-15" x="106" y="274.83" width="258" height="20.28"/><rect id="_Rectangle_24" data-name="&lt;Rectangle&gt;" class="cls-5" x="285.04" y="259.65" width="25.49" height="15.19"/><path id="_Rectangle_25" data-name="&lt;Rectangle&gt;" class="cls-5" d="M311.92,255.58h6a10,10,0,0,1,10,10v9.27a0,0,0,0,1,0,0H301.94a0,0,0,0,1,0,0v-9.27A10,10,0,0,1,311.92,255.58Z"/><line id="_Path_13" data-name="&lt;Path&gt;" class="cls-16" x1="310.53" y1="274.83" x2="323.45" y2="234.42"/><rect id="_Rectangle_26" data-name="&lt;Rectangle&gt;" class="cls-17" x="98.25" y="274.83" width="273.5" height="11.41" rx="5.71" ry="5.71"/><rect id="_Path_14" data-name="&lt;Path&gt;" class="cls-15" x="120.53" y="306.97" width="68.67" height="61.16" rx="7.01" ry="7.01"/><rect id="_Path_15" data-name="&lt;Path&gt;" class="cls-15" x="200.2" y="306.97" width="68.67" height="61.16" rx="7.01" ry="7.01"/><rect id="_Path_16" data-name="&lt;Path&gt;" class="cls-15" x="279.87" y="306.97" width="68.67" height="61.16" rx="7.01" ry="7.01"/><rect id="_Rectangle_27" data-name="&lt;Rectangle&gt;" class="cls-13" x="50.98" y="86.1" width="99.1" height="101.04" rx="7.6" ry="7.6"/><rect id="_Rectangle_28" data-name="&lt;Rectangle&gt;" class="cls-18" x="62.88" y="98.23" width="75.3" height="76.77"/><circle id="_Path_17" data-name="&lt;Path&gt;" class="cls-19" cx="109.82" cy="120" r="9.08"/><path id="_Path_18" data-name="&lt;Path&gt;" class="cls-13" d="M62.88,140l12.41-11.09a5.06,5.06,0,0,1,6.71,0l17.77,15.68a4.39,4.39,0,0,0,5.63.15l7.36-5.82a5.06,5.06,0,0,1,5.76-.35l19.65,11.94V175H62.88V140Z"/><g id="_Group_4" data-name="&lt;Group&gt;"><rect id="_Rectangle_29" data-name="&lt;Rectangle&gt;" class="cls-20" x="174.67" y="193" width="120.67" height="81.83" rx="8.8" ry="8.8"/><path id="_Path_19" data-name="&lt;Path&gt;" class="cls-11" d="M244.63,235.28a7.74,7.74,0,0,1-3.79-11.95A12.13,12.13,0,1,0,247,235.68,7.73,7.73,0,0,1,244.63,235.28Z"/><g id="_Group_5" data-name="&lt;Group&gt;" class="cls-21"><rect id="_Rectangle_30" data-name="&lt;Rectangle&gt;" class="cls-11" x="170.68" y="248.57" width="30.77" height="6.17" rx="3.08" ry="3.08" transform="translate(-65.6 437.72) rotate(-90)"/><rect id="_Rectangle_31" data-name="&lt;Rectangle&gt;" class="cls-11" x="182.79" y="224.9" width="6.55" height="6.17" rx="3.08" ry="3.08" transform="translate(-41.92 414.04) rotate(-90)"/></g></g><polygon id="_Path_20" data-name="&lt;Path&gt;" class="cls-22" points="99.2 175 109.2 175 131.87 98.47 121.86 98.47 99.2 175"/><polygon id="_Path_21" data-name="&lt;Path&gt;" class="cls-22" points="67.2 175 90.2 175 112.86 98.47 89.86 98.47 67.2 175"/><line id="_Path_22" data-name="&lt;Path&gt;" class="cls-23" x1="132.72" y1="265.88" x2="145.64" y2="225.46"/><line id="_Path_23" data-name="&lt;Path&gt;" class="cls-23" x1="130.81" y1="263.72" x2="128.62" y2="221.34"/><path id="_Rectangle_32" data-name="&lt;Rectangle&gt;" class="cls-3" d="M120.53,248.33h26a0,0,0,0,1,0,0v19.23a7.27,7.27,0,0,1-7.27,7.27H127.8a7.27,7.27,0,0,1-7.27-7.27V248.33a0,0,0,0,1,0,0Z"/><rect id="_Rectangle_33" data-name="&lt;Rectangle&gt;" class="cls-13" x="360.2" y="224.99" width="29.86" height="7.92"/><rect id="_Rectangle_34" data-name="&lt;Rectangle&gt;" class="cls-13" x="395.32" y="224.99" width="29.86" height="7.92"/><rect id="_Rectangle_35" data-name="&lt;Rectangle&gt;" class="cls-13" x="376.87" y="235.93" width="29.86" height="7.92"/><rect id="_Rectangle_36" data-name="&lt;Rectangle&gt;" class="cls-13" x="46.57" y="288.98" width="29.86" height="7.92"/><rect id="_Rectangle_37" data-name="&lt;Rectangle&gt;" class="cls-13" x="28.12" y="299.92" width="29.86" height="7.92"/></svg>