<svg id="Layer_1" data-name="Layer 1" xmlns="http://www.w3.org/2000/svg" viewBox="0 0 470 470"><defs><style>.cls-1{fill:#fff;}.cls-2{fill:#d1d1d1;}.cls-3{opacity:0.05;}.cls-4{fill:#c6c6c6;}.cls-5{fill:#b2b2b2;}.cls-6{font-size:62.74px;}.cls-6,.cls-8,.cls-9{fill:#474747;}.cls-6,.cls-7{font-family:Chivo;}.cls-10,.cls-6,.cls-7{font-weight:700;}.cls-7{font-size:17.57px;fill:#a5a5a5;}.cls-8{white-space:pre;}.cls-10{font-size:17.1px;fill:#dbdbdb;font-family:Redacted Script;}.cls-11,.cls-20,.cls-21{fill:none;stroke-miterlimit:10;}.cls-11{stroke:#474747;stroke-width:3px;}.cls-11,.cls-20{stroke-linecap:round;}.cls-12{fill:#5b5b5b;}.cls-13{fill:#3d3d3d;}.cls-14{fill:#515151;}.cls-15{fill:#feccae;}.cls-16{fill:#f9bfa2;}.cls-17{fill:#473d3a;}.cls-18,.cls-19{fill:#ededed;}.cls-18{opacity:0.1;}.cls-20{stroke:#b2b2b2;stroke-width:2.5px;}.cls-21{stroke:#dbdbdb;stroke-width:2px;}</style></defs><title>slider</title><g id="_Rectangle_" data-name="&lt;Rectangle&gt;"><rect id="_Path_" data-name="&lt;Path&gt;" class="cls-1" x="79.28" y="85.75" width="320.49" height="177.74" rx="1.62" ry="1.62"/><path id="_Compound_Path_" data-name="&lt;Compound Path&gt;" class="cls-2" d="M395,90.51V258.74H84V90.51H395M398.15,81H80.9a6.38,6.38,0,0,0-6.38,6.38V261.87a6.38,6.38,0,0,0,6.38,6.38H398.15a6.38,6.38,0,0,0,6.38-6.38V87.38A6.38,6.38,0,0,0,398.15,81h0Z"/></g><path id="_Rectangle_2" data-name="&lt;Rectangle&gt;" class="cls-3" d="M68.53,259.6h342a0,0,0,0,1,0,0v6.23a9.58,9.58,0,0,1-9.58,9.58H78.1a9.58,9.58,0,0,1-9.58-9.58V259.6a0,0,0,0,1,0,0Z"/><rect id="_Rectangle_3" data-name="&lt;Rectangle&gt;" class="cls-4" x="68.53" y="255.67" width="342" height="12.58" rx="6.29" ry="6.29"/><rect id="_Rectangle_4" data-name="&lt;Rectangle&gt;" class="cls-5" x="68.53" y="81" width="342" height="12.58" rx="6.29" ry="6.29"/><rect id="_Rectangle_5" data-name="&lt;Rectangle&gt;" class="cls-3" x="74.53" y="93.58" width="330" height="11.28"/><rect id="_Rectangle_6" data-name="&lt;Rectangle&gt;" class="cls-3" x="174.06" y="352.59" width="121.87" height="16.77" rx="8.39" ry="8.39"/><text class="cls-6" transform="translate(283.19 168.21)">Aa</text><text class="cls-7" transform="translate(301.95 191.8)">&gt;<tspan class="cls-8" x="10.54" y="0"> Chivo</tspan><tspan class="cls-9"><tspan x="20.17" y="16.2">Sans</tspan></tspan></text><text class="cls-10" transform="translate(105.53 134.89)">&gt; Chivoasda asdasd<tspan x="0" y="15.76">sdaasdasdad</tspan><tspan x="0" y="31.52">sdaasdasd</tspan><tspan x="0" y="47.27">sdasdasd</tspan><tspan x="0" y="63.03">asda</tspan></text><line id="_Path_2" data-name="&lt;Path&gt;" class="cls-11" x1="308.86" y1="285.27" x2="336.19" y2="232.42"/><g id="_Group_" data-name="&lt;Group&gt;"><rect id="_Rectangle_7" data-name="&lt;Rectangle&gt;" class="cls-12" x="209.85" y="298.41" width="21.27" height="54.26"/><rect id="_Rectangle_8" data-name="&lt;Rectangle&gt;" class="cls-13" x="209.85" y="288.24" width="50.3" height="10.17"/><rect id="_Rectangle_9" data-name="&lt;Rectangle&gt;" class="cls-12" x="238.88" y="298.41" width="21.27" height="54.26"/><rect id="_Rectangle_10" data-name="&lt;Rectangle&gt;" class="cls-12" x="209.85" y="298.41" width="50.3" height="17.12"/><path id="_Rectangle_11" data-name="&lt;Rectangle&gt;" class="cls-9" d="M247.39,344h18.29a5.6,5.6,0,0,1,5.6,5.6V361a0,0,0,0,1,0,0H247.39a8.51,8.51,0,0,1-8.51-8.51v0A8.51,8.51,0,0,1,247.39,344Z" transform="translate(510.16 704.93) rotate(180)"/><path id="_Rectangle_12" data-name="&lt;Rectangle&gt;" class="cls-13" d="M247.39,344h3a4.13,4.13,0,0,1,4.13,4.13V361a0,0,0,0,1,0,0h-7.08a8.51,8.51,0,0,1-8.51-8.51v0a8.51,8.51,0,0,1,8.51-8.51Z" transform="translate(493.35 704.93) rotate(180)"/><path id="_Rectangle_13" data-name="&lt;Rectangle&gt;" class="cls-9" d="M207.23,344h23.89a0,0,0,0,1,0,0v11.42a5.6,5.6,0,0,1-5.6,5.6H207.23a8.51,8.51,0,0,1-8.51-8.51v0A8.51,8.51,0,0,1,207.23,344Z"/><path id="_Rectangle_14" data-name="&lt;Rectangle&gt;" class="cls-13" d="M224,344h7.08a0,0,0,0,1,0,0v12.89A4.13,4.13,0,0,1,227,361h-3a8.51,8.51,0,0,1-8.51-8.51v0A8.51,8.51,0,0,1,224,344Z"/><rect id="_Rectangle_15" data-name="&lt;Rectangle&gt;" class="cls-9" x="209.85" y="227.49" width="50.3" height="60.75"/><rect id="_Rectangle_16" data-name="&lt;Rectangle&gt;" class="cls-14" x="252.03" y="227.5" width="18.95" height="13.83"/><g id="_Group_2" data-name="&lt;Group&gt;"><rect id="_Rectangle_17" data-name="&lt;Rectangle&gt;" class="cls-15" x="288.24" y="260.59" width="19.36" height="43.53" rx="9.68" ry="9.68" transform="matrix(0.31, -0.95, 0.95, 0.31, -63.6, 476.74)"/><rect id="_Rectangle_18" data-name="&lt;Rectangle&gt;" class="cls-15" x="268.8" y="228" width="19.36" height="60.5" rx="9.28" ry="9.28" transform="translate(-73.92 116.63) rotate(-20.95)"/><path id="_Path_3" data-name="&lt;Path&gt;" class="cls-14" d="M267,228.13l-9,3.46,10.75,28.09,18.08-6.92-7.29-19A9.68,9.68,0,0,0,267,228.13Z"/></g><rect id="_Rectangle_19" data-name="&lt;Rectangle&gt;" class="cls-14" x="198.96" y="227.5" width="18.95" height="13.83" transform="translate(416.87 468.83) rotate(-180)"/><g id="_Group_3" data-name="&lt;Group&gt;"><rect id="_Rectangle_20" data-name="&lt;Rectangle&gt;" class="cls-15" x="183.53" y="271.71" width="19.36" height="43.53" rx="9.68" ry="9.68" transform="translate(354.64 605.57) rotate(-173.99)"/><rect id="_Rectangle_21" data-name="&lt;Rectangle&gt;" class="cls-15" x="187.09" y="229.39" width="19.36" height="60.5" rx="9.28" ry="9.28" transform="translate(365.28 538.47) rotate(-173.99)"/><path id="_Path_4" data-name="&lt;Path&gt;" class="cls-14" d="M200.15,227.56l9.63,1-3.15,29.91-19.26-2,2.14-20.28A9.68,9.68,0,0,1,200.15,227.56Z"/></g><path id="_Rectangle_22" data-name="&lt;Rectangle&gt;" class="cls-9" d="M206.42,227.5h57.15a0,0,0,0,1,0,0v29.22a7.12,7.12,0,0,1-7.12,7.12H213.54a7.12,7.12,0,0,1-7.12-7.12V227.5A0,0,0,0,1,206.42,227.5Z"/><path id="_Path_5" data-name="&lt;Path&gt;" class="cls-14" d="M218.24,227.5a10.88,10.88,0,0,0-.12,1.55c0,7.44,7.56,13.48,16.88,13.48s16.88-6,16.88-13.48a10.9,10.9,0,0,0-.12-1.55H218.24Z"/><path id="_Rectangle_23" data-name="&lt;Rectangle&gt;" class="cls-16" d="M223.4,221.64H246.6a0.46,0.46,0,0,1,.46.46v4.07A10.83,10.83,0,0,1,236.23,237h-2.46a10.83,10.83,0,0,1-10.83-10.83V222.1A0.46,0.46,0,0,1,223.4,221.64Z"/><path id="_Rectangle_24" data-name="&lt;Rectangle&gt;" class="cls-15" d="M227.59,157h14.82a20,20,0,0,1,20,20v23.3A23.76,23.76,0,0,1,238.61,224h-7.21a23.76,23.76,0,0,1-23.76-23.76V177A20,20,0,0,1,227.59,157Z"/><path id="_Path_6" data-name="&lt;Path&gt;" class="cls-17" d="M242.87,155.44H227.13a19.5,19.5,0,0,0-19.5,19.5v25.31a5.64,5.64,0,0,0,5.64-5.64V180.71a2.85,2.85,0,0,1,4-2.61L228.61,183a16.1,16.1,0,0,0,12.78,0l11.35-4.91a2.85,2.85,0,0,1,4,2.61V194.6a5.64,5.64,0,0,0,5.64,5.64V174.93A19.5,19.5,0,0,0,242.87,155.44Z"/><circle id="_Path_7" data-name="&lt;Path&gt;" class="cls-12" cx="224.55" cy="197" r="2.48"/><circle id="_Path_8" data-name="&lt;Path&gt;" class="cls-12" cx="244.55" cy="197" r="2.48"/><ellipse id="_Path_9" data-name="&lt;Path&gt;" class="cls-16" cx="249.69" cy="202.58" rx="1.43" ry="3.38" transform="translate(-20.82 376.4) rotate(-71.78)"/><ellipse id="_Path_10" data-name="&lt;Path&gt;" class="cls-16" cx="220.78" cy="202.58" rx="3.38" ry="1.43" transform="translate(-52.28 79.21) rotate(-18.22)"/><path id="_Path_11" data-name="&lt;Path&gt;" class="cls-18" d="M214.51,172a1,1,0,0,1-.92-1.39,16.72,16.72,0,0,1,8.8-8.81,1,1,0,1,1,.78,1.84,14.7,14.7,0,0,0-7.74,7.74A1,1,0,0,1,214.51,172Z"/><path id="_Path_12" data-name="&lt;Path&gt;" class="cls-1" d="M238.08,212.79h-6.16a7.37,7.37,0,0,1-7.07-5.27,1.62,1.62,0,0,1,1.53-2.1h17.25a1.59,1.59,0,0,1,1.56,2A7.37,7.37,0,0,1,238.08,212.79Z"/><path id="_Path_13" data-name="&lt;Path&gt;" class="cls-19" d="M239.53,209.47H230.4a0.54,0.54,0,1,1,0-1.08h9.13A0.54,0.54,0,1,1,239.53,209.47Z"/></g><rect id="_Rectangle_25" data-name="&lt;Rectangle&gt;" class="cls-3" x="74.53" y="294.55" width="30.77" height="24.85" rx="4.23" ry="4.23"/><circle id="_Path_14" data-name="&lt;Path&gt;" class="cls-3" cx="89.91" cy="306.97" r="7.1"/><rect id="_Rectangle_26" data-name="&lt;Rectangle&gt;" class="cls-3" x="114.76" y="294.55" width="30.77" height="24.85" rx="4.23" ry="4.23"/><circle id="_Path_15" data-name="&lt;Path&gt;" class="cls-3" cx="130.14" cy="306.97" r="7.1"/><line id="_Path_16" data-name="&lt;Path&gt;" class="cls-20" x1="362.75" y1="221.64" x2="351.03" y2="221.64"/><circle id="_Path_17" data-name="&lt;Path&gt;" class="cls-21" cx="361.53" cy="164.62" r="10.5"/><circle id="_Path_18" data-name="&lt;Path&gt;" class="cls-21" cx="299.92" cy="125.39" r="10.5"/><circle id="_Path_19" data-name="&lt;Path&gt;" class="cls-21" cx="288.42" cy="165.62" r="10.5"/></svg>